<svg xmlns="http://www.w3.org/2000/svg" width="130" height="22" viewbox="0 0 260 44">>
    <path fill-rule="evenodd" d="M255.536 35.348V25.042c0-1.174-.304-2.086-.867-2.782-.563-.652-1.343-1-2.34-1-1.17 0-1.993.348-2.643 1.131-.65.739-.953 1.825-.953 3.173v9.87h-4.463V17.608h4.376v1.086c1.083-.999 2.513-1.521 4.29-1.521 2.21 0 3.943.695 5.2 2.087 1.256 1.391 1.863 3.348 1.863 5.782v10.306h-4.463zm-19.023-1.435c-1.43 1.173-3.033 1.868-4.723 1.868s-3.12-.52-4.29-1.477c-1.17-.999-1.733-2.392-1.733-4.044 0-1.871.693-3.392 2.037-4.434 1.343-1.044 3.163-1.566 5.373-1.566 1.083 0 2.166.174 3.293.522v-.87c0-.782-.26-1.434-.867-1.914-.606-.478-1.343-.738-2.296-.738-1.733 0-3.034.652-4.203 2.522l-2.86-2.74-.044-.043c.737-1.305 1.864-2.261 3.034-2.869a9.358 9.358 0 0 1 4.116-.957c2.34 0 4.203.565 5.546 1.739 1.387 1.174 2.08 2.87 1.994 5v11.479h-4.377v-1.478zm-.043-5.218c-1.17-.435-2.297-.653-3.38-.653-.91 0-1.603.174-2.123.523-.477.347-.737.826-.737 1.391 0 .565.217.957.607 1.304.39.348.996.522 1.776.522 1.604 0 2.904-.436 3.857-1.348v-1.739zm-24.699-.826c.087 1.131.52 2.044 1.257 2.696.779.739 1.776 1.087 3.033 1.087.823 0 1.603-.131 2.253-.48.433-.216.867-.52 1.3-.956.347-.347.736-.696.997-1.043L223.514 32l-.087.129c-1.82 2.436-4.333 3.652-7.323 3.652-2.643 0-4.853-.869-6.456-2.564-1.647-1.739-2.47-3.957-2.47-6.654 0-2.651.78-4.868 2.253-6.694 1.517-1.826 3.553-2.739 6.066-2.739 1.387 0 2.6.26 3.684.782a7.23 7.23 0 0 1 2.556 2.13 9.88 9.88 0 0 1 1.43 2.869c.303 1.045.477 2.131.477 3.306l-.043 1.652h-11.83zm6.196-5.739c-.563-.61-1.386-.913-2.47-.913-.953 0-1.733.303-2.339.913-.554.555-.938 1.238-1.157 2.086h6.876c-.086-.826-.39-1.521-.91-2.086zm-19.109 9.565c.91 0 1.69-.217 2.297-.609.65-.391 1.473-1.173 2.253-2.086l2.817 2.782c-1.734 2.565-4.334 3.957-7.583 3.957-2.47 0-4.594-.87-6.327-2.653-1.733-1.782-2.6-4-2.6-6.653 0-2.651.867-4.913 2.6-6.651 1.733-1.739 3.857-2.652 6.327-2.652 2.946 0 5.416 1.173 7.323 3.696l-2.947 2.824c-1.3-1.52-2.817-2.433-4.246-2.433-1.3 0-2.34.478-3.207 1.478-.823.955-1.257 2.217-1.257 3.738 0 1.523.434 2.784 1.3 3.783.867 1.001 1.95 1.479 3.25 1.479zm-24.352 4.044c-7.15 0-12.999-5.826-12.999-13.044 0-7.219 5.806-13.045 12.999-13.045 7.15 0 12.999 5.826 12.999 13.045 0 7.218-5.849 13.044-12.999 13.044zm0-21.435c-4.637 0-8.406 3.782-8.406 8.434 0 4.653 3.769 8.434 8.406 8.434 4.636 0 8.406-3.781 8.406-8.434 0-4.652-3.77-8.434-8.406-8.434zm-20.669-4.218h4.463v25.262h-4.463V10.086zm-7.973 23.827c-1.43 1.173-3.033 1.868-4.723 1.868s-3.12-.52-4.29-1.477c-1.17-.999-1.733-2.392-1.733-4.044 0-1.871.693-3.392 2.036-4.434 1.343-1.044 3.163-1.566 5.373-1.566 1.084 0 2.167.174 3.293.522v-.87c0-.782-.26-1.434-.866-1.914-.607-.478-1.343-.738-2.297-.738-1.733 0-3.033.652-4.203 2.522l-2.86-2.74-.043-.043c.737-1.305 1.863-2.261 3.033-2.869a9.366 9.366 0 0 1 4.117-.957c2.34 0 4.203.565 5.546 1.739 1.343 1.174 2.037 2.87 1.993 5v11.479h-4.376v-1.478zm-.044-5.218c-1.17-.435-2.296-.653-3.379-.653-.91 0-1.604.174-2.124.523-.52.347-.736.826-.736 1.391 0 .565.216.957.606 1.304.39.348.997.522 1.777.522 1.603 0 2.903-.436 3.856-1.348v-1.739zm-15.252 6.739c-2.297 0-3.9-.478-4.81-1.433-.91-.958-1.387-2.61-1.387-4.915v-7.391h-2.556v-4.087h2.556v-4.826h4.42v4.783h4.16v4.086h-4.16v6.783c0 1.174.174 1.957.52 2.348.347.39 1.04.564 2.124.564l1.516-.086v4.088h-.217c-.693.043-1.429.086-2.166.086zM116.789 15.26c-.781 0-1.431-.304-1.951-.827-.563-.521-.823-1.173-.823-1.955 0-.741.304-1.392.823-1.914.52-.522 1.17-.783 1.951-.783.736 0 1.429.261 1.949.783.564.478.824 1.131.824 1.914 0 .738-.304 1.434-.824 1.955-.52.565-1.17.827-1.949.827zm-14.82 27.393c-1.993 0-3.64-.436-4.983-1.306-1.343-.869-2.34-1.782-2.99-2.695l-.087-.131 3.034-2.913c1.603 2.13 2.859 2.956 4.939 2.956 1.344 0 2.427-.391 3.207-1.173.78-.826 1.17-1.957 1.17-3.436v-.432c-1.213.955-2.687 1.433-4.42 1.433-2.47 0-4.506-.87-6.11-2.522-1.603-1.739-2.383-3.869-2.383-6.391 0-2.566.78-4.739 2.383-6.391 1.604-1.654 3.64-2.522 6.11-2.522 1.603 0 3.12.695 4.463 1.912h.043v-1.477h4.377v16.173c0 2.696-.78 4.87-2.383 6.479-1.56 1.608-3.727 2.436-6.37 2.436zm3.163-20.089c-.78-.913-1.776-1.347-3.076-1.347-1.257 0-2.254.478-3.034 1.347-.779.87-1.169 2.088-1.169 3.522 0 1.434.39 2.609 1.169 3.479.737.869 1.734 1.303 3.034 1.303 1.3 0 2.296-.434 3.076-1.303.737-.87 1.17-2.045 1.17-3.479 0-1.434-.39-2.652-1.17-3.522zM87.886 15.26c-.78 0-1.43-.304-1.95-.827-.563-.521-.823-1.173-.823-1.955 0-.741.303-1.392.823-1.914s1.17-.783 1.95-.783c.737 0 1.43.261 1.95.783.564.478.823 1.131.823 1.914 0 .738-.303 1.434-.823 1.955-.52.565-1.17.827-1.95.827zm-9.879 17.304c-2.513 1.871-5.633 2.784-9.273 2.784h-7.93V10.086h7.93c3.64 0 6.76.912 9.273 2.651 1.386.913 2.47 2.261 3.206 3.913.737 1.696 1.127 3.697 1.127 5.914 0 2.26-.39 4.262-1.127 5.957-.736 1.695-1.82 3.087-3.206 4.043zm-3.25-16.565c-1.733-1.043-4.03-1.609-6.803-1.609h-2.47v16.696h2.513c2.817 0 5.113-.565 6.76-1.652 1.907-1.261 2.903-3.566 2.903-6.87 0-3.174-.996-5.391-2.903-6.565zM21.936 44v-8.523c9.013 0 15.946-8.956 12.523-18.435-1.3-3.521-4.073-6.348-7.583-7.608-9.447-3.436-18.373 3.521-18.373 12.564H.01c0-14.39 13.866-25.609 28.902-20.912 6.587 2.042 11.786 7.303 13.823 13.87C47.415 30.086 36.279 44 21.936 44zm-14.95-2v-6.523h6.5V42h-6.5zM1.527 30.042h5.459v5.435H1.527v-5.435zm11.959-3.044h8.45v8.479h-8.45v-8.479zm76.567 8.393H85.59V17.565h4.463v17.826zm28.902 0h-4.463V17.565h4.463v17.826z"/>
</svg>
