<svg xmlns="http://www.w3.org/2000/svg" width="130" height="15" viewbox="0 0 260 30">
    <path fill-rule="evenodd" d="M259.48 25.659H255.982c-.265 0-.477-.212-.477-.53v-8.126h-9.116v8.231c0 .319-.212.531-.53.531H242.361c-.265 0-.477-.212-.477-.531V5v-.054c0-.318.212-.53.53-.53H245.912c.265 0 .477.212.477.53v7.967h9.116v-8.02-.053c0-.265.212-.478.53-.478H259.533c.265 0 .477.213.477.531v20.289c0 .265-.212.477-.53.477zm-31.64.584c-2.862.055-5.671-1.061-7.685-3.08a.514.514 0 0 1 0-.743l1.961-1.966a.51.51 0 0 1 .742 0c1.272 1.221 2.915 1.913 4.663 1.913 2.279 0 3.817-1.223 3.817-2.762-.054-4.09-10.812-1.805-10.812-9.507 0-3.346 2.915-6.268 7.472-6.268a9.36 9.36 0 0 1 6.625 2.551.578.578 0 0 1 0 .796l-2.067 2.071a.564.564 0 0 1-.742.052c-.953-.901-2.226-1.38-3.55-1.38-1.855 0-3.18 1.062-3.18 2.284 0 3.984 10.811 1.699 10.811 9.294 0 3.825-2.915 6.745-8.055 6.745zm-12.084-.531h-3.657c-.265 0-.477-.159-.53-.372l-1.696-4.674h-8.268l-1.696 4.674c-.053.213-.264.372-.53.372h-3.656c-.265.053-.53-.159-.583-.478 0-.105 0-.213.053-.265l7.949-20.236c.053-.211.318-.371.53-.371h4.134c.212 0 .477.107.53.371l7.95 20.236c.106.265 0 .584-.265.69-.106.053-.212.053-.265.053zM205.739 9.673l-2.597 7.011h5.194l-2.597-7.011zM180.83 25.765h-7.367c-.318 0-.53-.212-.53-.531V5c0-.319.212-.531.53-.531l7.367-.053c6.254 0 10.971 4.726 10.971 10.674 0 5.949-4.717 10.675-10.971 10.675zm.265-17.206h-3.604v13.116h3.339c3.551-.053 6.413-2.973 6.413-6.531.106-3.505-2.65-6.479-6.148-6.585zM165.46 25.712h-3.603a.557.557 0 0 1-.477-.265l-3.975-7.169h-3.975v6.904c0 .318-.212.53-.53.53h-3.445c-.318 0-.53-.212-.53-.53l-.053-20.289c0-.318.212-.531.53-.531h8.904c4.24 0 7.314 3.134 7.314 7.01a6.822 6.822 0 0 1-3.816 6.268l4.133 7.222c.16.267.106.585-.158.744-.107.053-.213.106-.319.106zm-4.398-14.392c.053-1.541-1.166-2.868-2.703-2.921-.106.053-.159.053-.212.053h-4.717v5.63h4.717c1.537.052 2.809-1.116 2.915-2.656v-.106zm-29.838 14.87c-6.519 0-11.554-5.046-11.554-11.153 0-6.108 4.982-11.153 11.554-11.153 6.571 0 11.553 5.045 11.553 11.153 0 6.107-5.035 11.153-11.553 11.153zm0-18.164c-3.869 0-6.996 3.134-6.996 7.011a6.996 6.996 0 1 0 13.991 0c0-3.877-3.127-7.011-6.995-7.011zM103.717 26.19c-6.518 0-11.553-5.046-11.553-11.153 0-6.108 4.982-11.153 11.553-11.153 6.572 0 11.554 5.045 11.554 11.153 0 6.107-5.035 11.153-11.554 11.153zm0-18.164c-3.868 0-6.995 3.134-6.995 7.011a6.996 6.996 0 0 0 13.991 0c0-3.877-3.127-7.011-6.996-7.011zM76.635 25.712h-7.366c-.318 0-.53-.212-.53-.53V4.893c0-.318.212-.531.53-.531h7.366c6.254 0 10.971 4.726 10.971 10.675 0 5.947-4.717 10.675-10.971 10.675zm.212-17.26h-3.604v13.117h3.339c3.551-.052 6.413-2.973 6.413-6.532.106-3.505-2.65-6.478-6.148-6.585zM37.841 30.014h-8.268c-1.06 0-2.014-.372-2.756-1.116l-8.162-8.232c-.212-.265-.371-.584-.371-.902 0-.744.583-1.327 1.272-1.327h18.179c1.908 0 3.391-1.542 3.391-3.454 0-1.911-1.537-3.399-3.444-3.399H11.235c-1.007.055-1.96-.371-2.702-1.115L.371 2.237C.159 1.972 0 1.654 0 1.335 0 .591.583.008 1.272.008h37.575c4.929 0 9.487 2.709 11.819 7.116 5.989 11.419-2.12 22.89-12.825 22.89z"/>
</svg>
