<svg xmlns="http://www.w3.org/2000/svg" width="115" height="23" viewbox="0 0 230 46">
    <path fill-rule="evenodd" d="M228.286 34.725c.939.004 1.708.753 1.708 1.691v1.301a2.08 2.08 0 0 1-.616 1.48 2.087 2.087 0 0 1-1.481.614h-.002c-5.593 0-9.633-4.7-9.633-10.016V11.333c0-.932.758-1.689 1.693-1.689h2.012c.934 0 1.692.757 1.692 1.689v5.071h4.643c.934 0 1.692.757 1.692 1.689v1.542a1.69 1.69 0 0 1-1.692 1.69h-4.643v8.786c0 2.932 2.487 4.607 4.627 4.614zm-13.287-15.017a2.316 2.316 0 0 1-2.694 1.733 9.1 9.1 0 0 0-1.604-.174c-2.806 0-5.095 2.089-5.095 5.29V37.57a1.69 1.69 0 0 1-1.692 1.69h-1.929a1.69 1.69 0 0 1-1.692-1.69V26.378l.001-.015c0-5.881 4.839-10.147 10.082-10.147.083 0 .167-.004.253-.004.953 0 2.793.075 3.526.235.412.09.762.336.986.693.223.355.288.796.192 1.183-.095.388-.197.814-.334 1.385zm-20.026 19.535h-1.928a1.69 1.69 0 0 1-1.693-1.689v-.81c-.721.939-3.016 3.09-6.818 3.086a11.104 11.104 0 0 1-5.638-1.53c-3.488-1.959-5.64-5.653-5.64-10.278 0-4.412 1.962-7.98 5.174-9.998a.024.024 0 0 0 .009-.006c1.784-1.182 3.996-1.806 6.398-1.806.041 0 .082.003.124.004.042-.001.082-.004.124-.004 2.402 0 4.614.624 6.398 1.806a.024.024 0 0 0 .009.006c3.212 2.018 5.174 5.586 5.174 9.998v9.532a1.69 1.69 0 0 1-1.693 1.689zm-9.317-17.989a5.233 5.233 0 0 0-.62-.034h-.151a5.185 5.185 0 0 0-.217.007c-.043 0-.085.002-.127.006a4.14 4.14 0 0 0-.224.016l-.052.005c-3.272.335-5.58 3.078-5.58 6.768 0 3.127 1.656 5.571 4.15 6.451a6.813 6.813 0 0 0 2.126.354c.038 0 .077-.001.115-.003l.138-.003a6.82 6.82 0 0 0 1.873-.348c2.494-.88 4.15-3.324 4.15-6.451 0-3.69-2.308-6.433-5.581-6.768zm-22.273 13.573c1.32 0 2.667-.412 3.896-1.191a2.326 2.326 0 0 1 1.249-.362c.655 0 1.28.278 1.716.763l.171.191a2.52 2.52 0 0 1 .625 1.998 2.497 2.497 0 0 1-1.086 1.765c-1.797 1.206-4.022 1.843-6.433 1.843-6.964 0-11.829-4.858-11.829-11.812s4.865-11.81 11.829-11.81c2.402 0 4.614.624 6.398 1.806a2.47 2.47 0 0 1 1.09 1.779 2.522 2.522 0 0 1-.667 2.025l-.193.206c-.745.795-2.048.948-2.955.347a6.686 6.686 0 0 0-3.811-1.155c-3.629 0-6.262 2.861-6.262 6.802 0 3.943 2.633 6.805 6.262 6.805zm-16.554 4.416H144.9a1.69 1.69 0 0 1-1.692-1.689v-.81c-.722.939-3.017 3.09-6.818 3.086a11.099 11.099 0 0 1-5.638-1.53c-3.489-1.959-5.641-5.653-5.641-10.278 0-4.412 1.962-7.98 5.174-9.998a.024.024 0 0 0 .009-.006c1.785-1.182 3.997-1.806 6.398-1.806.042 0 .083.003.124.004.042-.001.083-.004.124-.004 2.402 0 4.614.624 6.398 1.806a.024.024 0 0 0 .009.006c3.212 2.018 5.174 5.586 5.174 9.998v9.532a1.69 1.69 0 0 1-1.692 1.689zm-9.317-17.989l-.052-.005a4.14 4.14 0 0 0-.224-.016 1.334 1.334 0 0 0-.127-.006 5.185 5.185 0 0 0-.217-.007h-.151a5.233 5.233 0 0 0-.218.007c-.043 0-.085.002-.127.006a4.103 4.103 0 0 0-.275.021c-3.273.335-5.581 3.078-5.581 6.768 0 3.127 1.656 5.571 4.151 6.451a6.806 6.806 0 0 0 2.125.354c.038 0 .077-.001.115-.003l.138-.003a6.813 6.813 0 0 0 1.873-.348c2.494-.88 4.15-3.324 4.15-6.451 0-3.69-2.308-6.433-5.58-6.768zm-16.787 18.557h-.002c-5.594 0-9.633-4.7-9.633-10.016V11.333c0-.932.758-1.689 1.692-1.689h2.012a1.69 1.69 0 0 1 1.692 1.689v5.071h4.644c.934 0 1.692.757 1.692 1.689v1.542a1.69 1.69 0 0 1-1.692 1.69h-4.644v8.786c0 2.932 2.488 4.607 4.627 4.614.94.004 1.709.753 1.709 1.691v1.301a2.08 2.08 0 0 1-.616 1.48 2.089 2.089 0 0 1-1.481.614zm-22.982-14.24l2.276.343c5.216.749 7.862 2.882 7.862 6.603 0 4.652-3.739 7.294-9.779 7.294-1.81 0-5.248-.593-8.226-2.266a2.163 2.163 0 0 1-1.043-1.36 2.237 2.237 0 0 1 .262-1.727l.128-.206a2.2 2.2 0 0 1 1.858-1.038c.403 0 .796.113 1.137.329 1.708 1.08 3.812 1.606 5.884 1.606 3.76 0 4.327-1.394 4.327-2.443 0-1.136-1.179-1.853-3.606-2.194l-2.297-.297c-5.026-.686-7.682-3.001-7.682-6.691 0-4.495 3.732-7.288 9.525-7.288 2.772 0 4.876.87 6.816 1.84.543.273.942.742 1.123 1.322a2.202 2.202 0 0 1-.177 1.732l-.186.335a2.17 2.17 0 0 1-2.879.884l-.266-.134c-1.331-.677-2.722-1.317-4.431-1.317-2.417 0-4.051.91-4.051 2.374 0 1.277 1.256 1.979 3.425 2.299zM83.757 39.26h-1.929a1.69 1.69 0 0 1-1.692-1.69V27.095c0-3.506-2.128-5.83-5.232-5.83-3.103 0-5.232 2.324-5.232 5.83V37.57a1.69 1.69 0 0 1-1.692 1.69h-1.929a1.69 1.69 0 0 1-1.692-1.69V26.246c0-4.627 3.775-10.034 10.545-10.034s10.545 5.407 10.545 10.034V37.57a1.69 1.69 0 0 1-1.692 1.69zM57.529 14.719c-1.843 0-3.232-1.388-3.232-3.228 0-1.835 1.419-3.27 3.232-3.27a3.236 3.236 0 0 1 3.274 3.27c0 1.809-1.438 3.228-3.274 3.228zM30.23 18.324c-.348-1.296 4.527-6.755 7.619-6.396 1.686.196 2.816 1.85 3.258 3.486l.006-.003c.436 1.639.249 3.695-1.077 4.647-2.572 1.846-9.458-.438-9.806-1.734zm-2.781-2.806c-1.819-.487-5.026-10.128-2.434-13.729C26.351-.068 29.237-.328 31.538.281l-.001.007c2.297.622 4.618 2.204 4.892 4.564.504 4.329-7.161 11.152-8.98 10.666zm.175 2.899c2.726 2.735 4.954 7.211 3.678 9.871C27.891 35.402 2.441 47.878.279 45.72c-2.162-2.159 10.341-27.581 17.466-30.987 2.664-1.274 7.149.952 9.888 3.674l-.009.01zm28.977-2.013h1.907a1.69 1.69 0 0 1 1.691 1.689V37.57a1.69 1.69 0 0 1-1.692 1.69h-1.906a1.69 1.69 0 0 1-1.692-1.69V18.093a1.69 1.69 0 0 1 1.692-1.689z"/>
</svg>
