<svg class="svg-icon" viewBox="0 0 261 46" fill="none" xmlns="http://www.w3.org/2000/svg">
<path fill-rule="evenodd" clip-rule="evenodd" d="M238.766 17.991C237.346 17.991 236.17 18.735 235.521 20.102C234.913 21.384 234.669 23.328 234.669 25.936C234.669 28.79 235.115 30.611 236.048 31.645C236.697 32.391 237.671 32.844 238.766 32.844C240.186 32.844 241.565 32.142 242.903 30.777L245.011 33.547C243.145 35.45 241.199 36.318 238.441 36.318C232.843 36.318 229.72 32.306 229.72 25.563C229.72 17.951 234.181 14.309 238.766 14.309C240.997 14.309 242.618 14.847 244.445 16.584L242.214 19.605C240.997 18.489 239.942 17.991 238.766 17.991V17.991ZM222.309 11.248C220.668 11.248 219.397 9.868 219.397 8.192C219.397 6.475 220.709 5.095 222.391 5.095C223.991 5.095 225.344 6.434 225.344 8.192C225.342 9.868 223.989 11.248 222.309 11.248V11.248ZM215.053 36.417C210.515 36.417 210.515 32.223 210.515 30.421V12.349C210.515 9.457 210.392 7.905 210.107 6.145L214.727 5.095C215.055 6.396 215.094 8.157 215.094 10.925V28.912C215.094 31.763 215.217 32.223 215.543 32.728C215.789 33.105 216.484 33.314 217.016 33.064L217.752 35.916C216.934 36.249 216.074 36.417 215.053 36.417V36.417ZM193.531 26.868C193.531 29.77 194.629 32.837 198.802 32.837C200.783 32.837 202.513 32.132 204.116 30.764L205.929 33.541C203.693 35.408 201.122 36.318 198.254 36.318C192.224 36.318 188.428 32.049 188.428 25.334C188.428 21.644 189.23 19.2 191.084 17.128C192.812 15.179 194.921 14.309 197.621 14.309C199.73 14.309 201.669 14.848 203.484 16.464C205.339 18.123 206.267 20.692 206.267 25.583V26.537H193.531V26.868V26.868ZM201.46 23.178C201.46 19.78 199.941 17.748 197.621 17.748C195.007 17.748 193.573 19.78 193.573 23.178H201.46ZM186.364 34.783H186.216L186.287 34.901H180.628L178.15 30.45C176.167 26.914 174.846 24.918 173.275 23.337C172.743 22.801 172.328 22.509 171.435 22.466V34.782H171.417V34.899H166.75V6.119H175.499C181.927 6.119 184.829 9.848 184.829 14.32C184.829 16.644 183.975 18.859 182.423 20.344C181.262 21.491 179.695 22.215 177.792 22.249C178.846 22.895 180.686 25.573 182.133 27.907L186.364 34.783V34.783ZM178.556 17.852C179.321 17.062 179.803 15.872 179.803 14.397C179.801 11.484 178.231 9.986 174.019 9.986H171.435V19.042H173.883C176.359 19.042 177.685 18.713 178.556 17.852V17.852ZM144.351 36.318L141.788 26.38C141.127 23.823 140.424 20.494 140.424 20.494H140.341C140.341 20.494 140.009 22.627 138.977 26.593L136.455 36.316H132.196L126.49 14.948L130.996 14.309L133.27 24.758C133.667 26.6414 134.025 28.5328 134.344 30.431H134.469C134.469 30.431 134.882 27.616 135.667 24.629L138.355 14.649H142.821L145.177 24.372C145.685 26.4039 146.126 28.452 146.5 30.513H146.624C146.624 30.513 147.12 27.229 147.659 24.713L149.809 14.647H154.522L148.61 36.318H144.351V36.318ZM111.979 26.868C111.979 29.77 113.076 32.837 117.249 32.837C119.231 32.837 120.961 32.132 122.564 30.764L124.376 33.541C122.141 35.408 119.569 36.318 116.702 36.318C110.672 36.318 106.876 32.049 106.876 25.334C106.876 21.644 107.677 19.2 109.532 17.128C111.26 15.179 113.369 14.309 116.069 14.309C118.178 14.309 120.117 14.848 121.931 16.464C123.786 18.123 124.715 20.692 124.715 25.583V26.537H111.979V26.868V26.868ZM119.908 23.178C119.906 19.78 118.389 17.748 116.069 17.748C113.455 17.748 112.021 19.78 112.021 23.178H119.908ZM92.2036 21.384C90.6626 18.181 89.0806 14.564 88.5376 12.856L88.4126 12.981C88.6216 15.396 88.6626 18.431 88.7046 20.967L88.8716 34.901H84.1646V6.119H89.5796L96.5786 20.178C97.9116 22.84 99.1606 26.25 99.5366 27.582L99.6616 27.456C99.5366 26 99.2466 21.882 99.2466 19.262L99.1626 6.119H103.703V34.901H98.6616L92.2036 21.384ZM46.3266 44.238C43.9884 44.7541 41.6012 45.0159 39.2066 45.019C27.2436 45.019 17.4506 38.35 15.3956 28.799C12.8766 17.094 22.6506 4.975 37.1846 1.783C39.5225 1.26614 41.9094 1.00361 44.3036 1C56.2676 1 66.0586 7.671 68.1156 17.222C69.3426 22.92 67.7316 28.874 63.5836 33.987C59.4696 39.056 53.3406 42.697 46.3266 44.238V44.238ZM66.8606 17.497C64.9346 8.548 55.6576 2.296 44.3036 2.296C42.0316 2.296 39.7296 2.55 37.4566 3.048C23.6126 6.088 14.2786 17.517 16.6476 28.525C18.5736 37.475 27.8506 43.726 39.2066 43.726C41.4776 43.726 43.7796 43.473 46.0516 42.974C52.7846 41.496 58.6576 38.014 62.5896 33.168C66.4856 28.367 68.0026 22.802 66.8606 17.497V17.497ZM43.9036 39.901C35.3666 39.901 28.4206 32.784 28.4206 24.033C28.4206 15.284 35.3666 8.166 43.9036 8.166C52.4416 8.166 59.3896 15.284 59.3896 24.033C59.3896 32.782 52.4416 39.901 43.9036 39.901ZM43.9036 9.475C36.0696 9.475 29.6966 16.005 29.6966 24.033C29.6966 32.061 36.0696 38.592 43.9036 38.592C51.7386 38.592 58.1136 32.061 58.1136 24.033C58.1136 16.005 51.7386 9.475 43.9036 9.475V9.475ZM41.2866 32.755C35.8986 32.755 31.5176 28.387 31.5176 23.019C31.5176 17.653 35.9006 13.286 41.2866 13.286C46.6736 13.286 51.0546 17.651 51.0546 23.019C51.0546 28.387 46.6736 32.755 41.2866 32.755V32.755ZM41.2866 14.571C36.6106 14.571 32.8066 18.361 32.8066 23.019C32.8066 27.679 36.6106 31.469 41.2866 31.469C45.9616 31.469 49.7656 27.679 49.7656 23.019C49.7656 18.361 45.9616 14.571 41.2866 14.571V14.571ZM224.604 35.57H220.053V14.723L224.604 13.886V35.57Z"/>
</svg>
