<svg xmlns="http://www.w3.org/2000/svg" width="115" height="22" viewbox="0 0 230 44">
    <path fill-rule="evenodd" d="M223.764 16.983c-1.42 0-2.596.744-3.245 2.111-.608 1.282-.852 3.226-.852 5.834 0 2.854.446 4.675 1.379 5.709.649.746 1.623 1.199 2.718 1.199 1.42 0 2.799-.702 4.137-2.067l2.108 2.77c-1.866 1.903-3.812 2.771-6.57 2.771-5.598 0-8.721-4.012-8.721-10.755 0-7.612 4.461-11.254 9.046-11.254 2.231 0 3.852.538 5.679 2.275l-2.231 3.021c-1.217-1.116-2.272-1.614-3.448-1.614zm-16.457-6.743c-1.641 0-2.912-1.38-2.912-3.056 0-1.717 1.312-3.097 2.994-3.097 1.6 0 2.953 1.339 2.953 3.097-.002 1.676-1.355 3.056-3.035 3.056zm-7.256 25.169c-4.538 0-4.538-4.194-4.538-5.996V11.341c0-2.892-.123-4.444-.408-6.204l4.62-1.05c.328 1.301.367 3.062.367 5.83v17.987c0 2.851.123 3.311.449 3.816.246.377.941.586 1.473.336l.736 2.852c-.818.333-1.678.501-2.699.501zm-21.522-9.549c0 2.902 1.098 5.969 5.271 5.969 1.981 0 3.711-.705 5.314-2.073l1.813 2.777c-2.236 1.867-4.807 2.777-7.675 2.777-6.03 0-9.826-4.269-9.826-10.984 0-3.69.802-6.134 2.656-8.206 1.728-1.949 3.837-2.819 6.537-2.819 2.109 0 4.048.539 5.863 2.155 1.855 1.659 2.783 4.228 2.783 9.119v.954h-12.736v.331zm7.929-3.69c0-3.398-1.519-5.43-3.839-5.43-2.614 0-4.048 2.032-4.048 5.43h7.887zm-15.096 11.605h-.148l.071.118h-5.659l-2.478-4.451c-1.983-3.536-3.304-5.532-4.875-7.113-.532-.536-.947-.828-1.84-.871v12.316h-.018v.117h-4.667V5.111h8.749c6.428 0 9.33 3.729 9.33 8.201 0 2.324-.854 4.539-2.406 6.024-1.161 1.147-2.728 1.871-4.631 1.905 1.054.646 2.894 3.324 4.341 5.658l4.231 6.876zm-7.808-16.931c.765-.79 1.247-1.98 1.247-3.455-.002-2.913-1.572-4.411-5.784-4.411h-2.584v9.056h2.448c2.476 0 3.802-.329 4.673-1.19zM129.349 35.31l-2.563-9.938c-.661-2.557-1.364-5.886-1.364-5.886h-.083s-.332 2.133-1.364 6.099l-2.522 9.723h-4.259l-5.706-21.368 4.506-.639 2.274 10.449a140.028 140.028 0 0 1 1.074 5.673h.125s.413-2.815 1.198-5.802l2.688-9.98h4.466l2.356 9.723a95.061 95.061 0 0 1 1.323 6.141h.124s.496-3.284 1.035-5.8l2.15-10.066h4.713l-5.912 21.671h-4.259zm-32.372-9.45c0 2.902 1.097 5.969 5.27 5.969 1.982 0 3.712-.705 5.315-2.073l1.812 2.777c-2.235 1.867-4.807 2.777-7.674 2.777-6.03 0-9.826-4.269-9.826-10.984 0-3.69.801-6.134 2.656-8.206 1.728-1.949 3.837-2.819 6.537-2.819 2.109 0 4.048.539 5.862 2.155 1.855 1.659 2.784 4.228 2.784 9.119v.954H96.977v.331zm7.929-3.69c-.002-3.398-1.519-5.43-3.839-5.43-2.614 0-4.048 2.032-4.048 5.43h7.887zm-27.704-1.794c-1.541-3.203-3.123-6.82-3.666-8.528l-.125.125c.209 2.415.25 5.45.292 7.986l.167 13.934h-4.707V5.111h5.415l6.999 14.059c1.333 2.662 2.582 6.072 2.958 7.404l.125-.126c-.125-1.456-.415-5.574-.415-8.194l-.084-13.143h4.54v28.782H83.66l-6.458-13.517zM31.325 43.23a33.237 33.237 0 0 1-7.12.781c-11.963 0-21.756-6.669-23.811-16.22C-2.125 16.086 7.649 3.967 22.183.775a33.21 33.21 0 0 1 7.119-.783c11.964 0 21.755 6.671 23.812 16.222 1.227 5.698-.384 11.652-4.532 16.765-4.114 5.069-10.243 8.71-17.257 10.251zm20.534-26.741C49.933 7.54 40.656 1.288 29.302 1.288c-2.272 0-4.574.254-6.847.752C8.611 5.08-.723 16.509 1.646 27.517c1.926 8.95 11.203 15.201 22.559 15.201 2.271 0 4.573-.253 6.845-.752 6.733-1.478 12.606-4.96 16.538-9.806 3.896-4.801 5.413-10.366 4.271-15.671zM28.902 38.893c-8.537 0-15.483-7.117-15.483-15.868 0-8.749 6.946-15.867 15.483-15.867 8.538 0 15.486 7.118 15.486 15.867S37.44 38.893 28.902 38.893zm0-30.426c-7.834 0-14.207 6.53-14.207 14.558 0 8.028 6.373 14.559 14.207 14.559 7.835 0 14.21-6.531 14.21-14.559 0-8.028-6.375-14.558-14.21-14.558zm-2.617 23.28c-5.388 0-9.769-4.368-9.769-9.736 0-5.366 4.383-9.733 9.769-9.733 5.387 0 9.768 4.365 9.768 9.733s-4.381 9.736-9.768 9.736zm0-18.184c-4.676 0-8.48 3.79-8.48 8.448 0 4.66 3.804 8.45 8.48 8.45 4.675 0 8.479-3.79 8.479-8.45 0-4.658-3.804-8.448-8.479-8.448zm183.317 20.999h-4.551V13.715l4.551-.837v21.684z"/>
</svg>
