<svg xmlns="http://www.w3.org/2000/svg" width="100" height="15" viewbox="0 0 200 31">
    <path fill-rule="evenodd" d="M7.689 8.384a3.625 3.625 0 0 1 0-1.517c.216-1.254 1.368-2.116 2.617-1.954 1.345-.118 2.53.89 2.647 2.252.01.126.012.25.004.373v1.795h7.131V7.294c0-6.293-5.611-7.299-9.645-7.299-5.074 0-9.223 1.7-9.988 6.432a10.115 10.115 0 0 0 0 3.9c1.234 5.913 11.428 7.627 12.868 11.376a3.79 3.79 0 0 1 0 2.142c-.27 1.298-1.494 2.156-2.789 1.955-1.397.172-2.668-.833-2.839-2.248a2.541 2.541 0 0 1-.018-.39v-2.789H.009v2.22c0 6.471 5.017 8.415 10.388 8.415 5.166 0 9.405-1.784 10.091-6.631a14.574 14.574 0 0 0 0-4.734C19.345 13.57 8.5 11.775 7.689 8.384zm92.955.069c-.096-.491-.096-1 0-1.491.221-1.241 1.36-2.09 2.594-1.935 1.327-.117 2.497.874 2.614 2.219.011.129.012.257.003.385v1.772h7.051V7.389c0-6.236-5.52-7.224-9.519-7.224-5.04 0-9.143 1.68-9.897 6.379a9.781 9.781 0 0 0 .068 3.853c1.223 5.855 11.28 7.545 12.743 11.25a3.962 3.962 0 0 1 0 2.117c-.217.959-.857 1.93-2.754 1.93-1.384.184-2.649-.809-2.826-2.213a2.487 2.487 0 0 1-.02-.377v-2.823h-7.588v2.21c0 6.4 4.948 8.331 10.285 8.331 5.108 0 9.325-1.769 9.999-6.55a14.24 14.24 0 0 0 0-4.688c-1.222-5.969-11.942-7.774-12.753-11.131zm64.899 15.772L158.767.92h-10.606v28.617h7.017l-.411-24.046 7.268 24.046h10.171V.92h-7.063l.4 23.305zM30.693.92l-5.291 28.93h7.725l3.989-26.788 3.897 26.788h7.668L43.412.92H30.693zm43.175 0l-3.611 22.623L66.657.92H55l-.617 28.93h7.143l.194-26.788 4.914 26.788h7.246l4.914-26.788.194 26.788h7.165L85.513.92H73.868zm66.419 0h-7.234v21.409a5.17 5.17 0 0 1-.068 1.158c-.43 1.529-2.004 2.416-3.516 1.981a2.862 2.862 0 0 1-1.958-1.981 4.642 4.642 0 0 1-.068-1.158V.92h-7.223v20.749c0 .532 0 1.631.068 1.91.503 5.403 4.709 7.164 9.966 7.164s9.474-1.761 9.976-7.164a15.23 15.23 0 0 0 .057-1.91V.92zm49.632 12.73v4.223h2.926v4.189c.015.388-.012.776-.08 1.158-.551 1.634-2.305 2.505-3.918 1.948a3.11 3.11 0 0 1-1.922-1.948 7.225 7.225 0 0 1-.08-1.158V8.802a5.974 5.974 0 0 1 .126-1.368c.494-1.595 2.175-2.487 3.752-1.985a3.016 3.016 0 0 1 1.962 1.985c.059.383.089.771.091 1.158v1.609h7.131v-.95c.035-.64.035-1.281 0-1.921-.537-5.425-4.96-7.152-10.022-7.152-5.063 0-9.405 1.738-10.034 7.152 0 .499-.149 1.389-.149 1.921v12.164c.002.637.04 1.275.115 1.909.468 5.277 4.994 7.151 10.045 7.151s9.577-1.874 10.045-7.151c.08-.974.091-1.378.103-1.909V13.66l-10.091-.01z"/>
</svg>
