<svg class="svg-icon" viewBox="0 0 261 46" fill="none" xmlns="http://www.w3.org/2000/svg">
<path fill-rule="evenodd" clip-rule="evenodd" d="M249.633 14.887C249.548 14.903 249.461 14.903 249.376 14.887H238.353V36.068C238.351 36.1458 238.333 36.2223 238.3 36.2926C238.267 36.363 238.219 36.4256 238.16 36.4764C238.101 36.5272 238.032 36.565 237.958 36.5875C237.884 36.61 237.805 36.6167 237.728 36.607H231.298C231.221 36.6164 231.143 36.6095 231.068 36.5869C230.994 36.5642 230.925 36.5263 230.867 36.4756C230.808 36.4248 230.76 36.3624 230.727 36.2922C230.694 36.222 230.676 36.1456 230.674 36.068V9.953C230.676 9.8753 230.694 9.79883 230.727 9.72852C230.76 9.65821 230.808 9.59561 230.866 9.54475C230.925 9.49389 230.994 9.45589 231.068 9.4332C231.143 9.41051 231.221 9.40363 231.298 9.413H249.376C249.453 9.40331 249.532 9.40997 249.606 9.43254C249.681 9.45511 249.749 9.49309 249.808 9.54401C249.867 9.59493 249.915 9.65766 249.948 9.72812C249.981 9.79858 249.999 9.8752 250 9.953V14.393C249.998 14.5033 249.961 14.6102 249.896 14.6987C249.83 14.7873 249.738 14.8531 249.633 14.887V14.887ZM226.559 14.887H215.536V20.453H224.786C224.805 20.452 224.825 20.449 224.845 20.449C224.992 20.4466 225.134 20.5024 225.24 20.6043C225.346 20.7063 225.408 20.846 225.411 20.993V25.046L225.407 25.104C225.388 25.25 225.312 25.3825 225.196 25.4726C225.079 25.5627 224.932 25.6031 224.786 25.585H215.536V36.026C215.524 36.1896 215.448 36.3417 215.324 36.4493C215.2 36.5568 215.039 36.611 214.875 36.6H208.755C208.591 36.6107 208.43 36.556 208.306 36.4478C208.183 36.3396 208.107 36.1868 208.096 36.023V9.989V9.987C208.108 9.82333 208.184 9.671 208.308 9.5634C208.432 9.45581 208.593 9.40172 208.757 9.413H226.559C226.636 9.40331 226.715 9.40997 226.789 9.43254C226.864 9.45511 226.932 9.49309 226.991 9.54401C227.05 9.59493 227.098 9.65766 227.131 9.72812C227.164 9.79858 227.182 9.8752 227.183 9.953V14.393C227.179 14.5027 227.141 14.6086 227.076 14.6968C227.01 14.7849 226.92 14.8512 226.816 14.887C226.731 14.901 226.644 14.901 226.559 14.887V14.887ZM202.171 36.607H195.943C195.866 36.6164 195.788 36.6095 195.713 36.5869C195.639 36.5642 195.57 36.5263 195.512 36.4756C195.453 36.4248 195.405 36.3624 195.372 36.2922C195.339 36.222 195.321 36.1456 195.319 36.068V9.953C195.317 9.87745 195.332 9.8024 195.361 9.73287C195.391 9.66334 195.435 9.60094 195.491 9.54982C195.546 9.4987 195.612 9.46006 195.684 9.43646C195.756 9.41287 195.832 9.40487 195.907 9.413H202.134C202.211 9.40316 202.29 9.4097 202.364 9.4322C202.439 9.4547 202.508 9.49266 202.567 9.54359C202.626 9.59453 202.673 9.65731 202.707 9.72785C202.74 9.79839 202.758 9.8751 202.759 9.953V36.068C202.762 36.144 202.749 36.2198 202.72 36.2901C202.691 36.3604 202.647 36.4235 202.591 36.4749C202.535 36.5263 202.468 36.5647 202.396 36.5876C202.323 36.6104 202.246 36.617 202.171 36.607V36.607ZM189.366 36.6H183.138L183.08 36.603C183.007 36.6045 182.935 36.5915 182.867 36.565C182.799 36.5384 182.737 36.4988 182.684 36.4483C182.632 36.3977 182.59 36.3374 182.56 36.2706C182.531 36.2038 182.515 36.1319 182.514 36.059V25.622H173.264V36.068C173.266 36.1436 173.252 36.2187 173.222 36.2882C173.192 36.3578 173.148 36.4202 173.093 36.4713C173.037 36.5223 172.971 36.5609 172.899 36.5843C172.827 36.6077 172.751 36.6155 172.676 36.607H166.448C166.371 36.6164 166.293 36.6095 166.218 36.5869C166.144 36.5642 166.075 36.5263 166.017 36.4756C165.958 36.4248 165.91 36.3624 165.877 36.2922C165.844 36.222 165.826 36.1456 165.824 36.068V9.953C165.822 9.87745 165.837 9.8024 165.866 9.73287C165.896 9.66334 165.94 9.60094 165.996 9.54982C166.051 9.4987 166.117 9.46006 166.189 9.43646C166.261 9.41287 166.337 9.40487 166.412 9.413H172.64C172.717 9.40331 172.796 9.40997 172.87 9.43254C172.945 9.45511 173.013 9.49309 173.072 9.54401C173.131 9.59493 173.179 9.65766 173.212 9.72812C173.245 9.79858 173.262 9.8752 173.264 9.953V20.453H182.551V9.953C182.549 9.87745 182.564 9.8024 182.593 9.73287C182.623 9.66334 182.667 9.60094 182.723 9.54982C182.778 9.4987 182.844 9.46006 182.916 9.43646C182.988 9.41287 183.064 9.40487 183.139 9.413H189.366V9.405C189.386 9.402 189.406 9.401 189.425 9.4C189.572 9.39732 189.714 9.45307 189.82 9.55504C189.926 9.65701 189.988 9.79688 189.991 9.944V36.059C189.989 36.1368 189.971 36.2133 189.938 36.2837C189.904 36.354 189.857 36.4167 189.798 36.4676C189.739 36.5185 189.67 36.5566 189.596 36.5794C189.522 36.6022 189.443 36.6092 189.366 36.6V36.6ZM151.476 37.004C148.06 37.0262 144.659 36.5656 141.372 35.636C141.177 35.5817 141.005 35.4633 140.885 35.3C140.765 35.1366 140.703 34.9376 140.71 34.735V34.546L141.261 31.368C141.335 30.862 141.556 30.684 141.923 30.684C142.087 30.692 142.25 30.716 142.41 30.755C144.899 31.4425 147.455 31.856 150.034 31.988C152.762 31.988 154.525 31.413 154.525 29.206C154.525 26.748 152.174 26.603 149.189 26.1C145.542 25.478 140.453 24.299 140.453 17.995C140.446 17.049 140.567 16.108 140.812 15.194C140.826 15.136 140.844 15.079 140.867 15.023C140.878 14.9764 140.894 14.9309 140.913 14.887C142.217 10.656 146.314 9 151.494 9C154.516 9.05047 157.52 9.48598 160.432 10.296C160.946 10.44 161.277 10.729 161.277 11.196V11.403L160.505 14.87V14.978C160.48 15.1331 160.409 15.2774 160.303 15.393C160.212 15.4874 160.093 15.5501 159.963 15.572H159.835C159.787 15.589 159.736 15.589 159.688 15.572C158.457 15.32 157.336 15.078 156.243 14.887C154.913 14.638 153.564 14.5059 152.211 14.492C151.276 14.4534 150.342 14.5873 149.455 14.887C149.354 14.9258 149.256 14.9712 149.161 15.023L148.886 15.194C148.576 15.4246 148.33 15.7296 148.169 16.0808C148.008 16.4319 147.939 16.8179 147.967 17.203C147.967 19.544 150.401 19.697 153.423 20.165V20.174C157.639 20.822 162.232 21.795 162.232 28.738C162.232 34.95 157.18 37.004 151.476 37.004V37.004ZM136.724 14.887H124.856V20.453H136.164C136.54 20.453 136.788 20.597 136.788 20.957V25.082C136.786 25.1597 136.768 25.2362 136.735 25.3065C136.702 25.3768 136.654 25.4394 136.596 25.4902C136.537 25.5411 136.468 25.5791 136.394 25.6018C136.319 25.6245 136.241 25.6314 136.164 25.622H124.856V31.467H136.733L136.761 31.465C137.071 31.466 137.321 31.712 137.321 32.016V36.059L137.32 36.096C137.308 36.2404 137.24 36.3743 137.13 36.4687C137.02 36.563 136.877 36.6102 136.733 36.6H118.048C117.884 36.611 117.722 36.5564 117.599 36.4482C117.475 36.34 117.399 36.187 117.388 36.023V9.989V9.987C117.4 9.82314 117.476 9.67065 117.6 9.56303C117.724 9.45541 117.886 9.40145 118.05 9.413H136.724C136.801 9.40332 136.88 9.40998 136.954 9.43254C137.029 9.4551 137.098 9.49306 137.157 9.54397C137.216 9.59488 137.263 9.65759 137.296 9.72805C137.329 9.79851 137.347 9.87515 137.349 9.953V14.393C137.35 14.5029 137.316 14.6103 137.251 14.6992C137.186 14.7882 137.095 14.854 136.99 14.887C136.902 14.901 136.812 14.901 136.724 14.887V14.887ZM101.663 36.635H89.391C89.2332 36.6393 89.08 36.5813 88.9647 36.4735C88.8494 36.3657 88.7812 36.2167 88.775 36.059V10.034C88.7769 9.95511 88.7944 9.87738 88.8265 9.80526C88.8585 9.73315 88.9044 9.66805 88.9616 9.61371C89.0189 9.55937 89.0862 9.51685 89.1599 9.48859C89.2336 9.46032 89.3121 9.44687 89.391 9.449H101.69C107.835 9.449 111.151 11.422 112.768 14.925L112.805 14.96V15.06C113.758 17.5192 114.193 20.1489 114.081 22.784C114.081 31.087 111.767 36.635 101.663 36.635V36.635ZM102.682 15.023C102.249 14.9397 101.81 14.8942 101.369 14.887H96.216V31.8H100.891C105.355 31.8 106.457 29.963 106.457 23.425C106.457 17.878 105.649 15.59 102.682 15.023V15.023ZM86.598 36.59H80.168C79.9877 36.5771 79.8161 36.5076 79.6777 36.3914C79.5392 36.2752 79.441 36.1183 79.397 35.943L78.295 31.98H67.162L66.05 36.068C66.0138 36.2278 65.9257 36.3711 65.7994 36.4755C65.6731 36.5799 65.5158 36.6395 65.352 36.645H54.173C54.0139 36.654 53.8548 36.626 53.7082 36.5634C53.5617 36.5008 53.4315 36.4052 53.328 36.284L46.595 26.937H42.104V36.149C42.1059 36.2246 42.0916 36.2997 42.062 36.3693C42.0325 36.4389 41.9884 36.5014 41.9327 36.5526C41.877 36.6037 41.811 36.6424 41.7391 36.6659C41.6672 36.6894 41.5912 36.6973 41.516 36.689H35.288C35.2102 36.6989 35.1312 36.6925 35.0561 36.6701C34.981 36.6478 34.9113 36.61 34.8516 36.5591C34.792 36.5083 34.7435 36.4456 34.7095 36.3749C34.6755 36.3043 34.6566 36.2274 34.654 36.149V10.034L34.655 10.023C34.6692 9.85963 34.7476 9.70855 34.873 9.60285C34.9984 9.49714 35.1606 9.44542 35.324 9.459H47.909C49.2653 9.43757 50.62 9.56128 51.95 9.828C52.532 9.931 53.103 10.08 53.659 10.278C55.616 10.932 57.125 12.482 57.701 14.429C57.719 14.509 57.802 14.826 57.802 14.887V15.023C57.972 15.781 58.07 16.553 58.096 17.329C58.096 17.759 58.031 18.175 58.031 18.571C57.701 21.381 56.13 23.091 52.456 23.705H52.272C52.2124 23.7006 52.1525 23.7081 52.0957 23.7269C52.039 23.7457 51.9865 23.7755 51.9413 23.8146C51.896 23.8537 51.8589 23.9013 51.8321 23.9547C51.8053 24.0082 51.7893 24.0664 51.785 24.126C51.7819 24.1858 51.7906 24.2456 51.8107 24.302C51.8307 24.3583 51.8617 24.4102 51.9018 24.4546C51.942 24.499 51.9904 24.5351 52.0445 24.5607C52.0986 24.5863 52.1572 24.6011 52.217 24.604C52.878 24.604 53.365 25.388 53.365 25.388L59.28 33.24L65.086 14.87L66.684 9.828C66.7275 9.69805 66.8119 9.58566 66.9245 9.50762C67.0372 9.42958 67.1721 9.39007 67.309 9.395H78.304C78.4406 9.39109 78.5749 9.43101 78.6872 9.50893C78.7995 9.58684 78.8838 9.69866 78.928 9.828L80.517 14.887V15.023L87.186 36.015C87.1939 36.0317 87.198 36.05 87.198 36.0685C87.198 36.087 87.1939 36.1053 87.186 36.122C87.1682 36.2612 87.0968 36.388 86.987 36.4754C86.8772 36.5628 86.7376 36.6039 86.598 36.59V36.59ZM50.499 18.733V18.679C50.499 17.066 50.122 16.023 49.14 15.446C48.7669 15.2348 48.3592 15.0915 47.936 15.023C47.5267 14.9467 47.1122 14.9013 46.696 14.887H42.104V22.452H46.384C47.3356 22.51 48.2859 22.3176 49.14 21.894C50.122 21.318 50.499 20.445 50.499 18.832V18.733ZM73.619 14.933H71.782L68.53 26.937H76.917L73.619 14.933V14.933ZM28.711 36.6H22.281C22.264 36.601 22.248 36.603 22.231 36.603C22.0815 36.6081 21.936 36.5537 21.8265 36.4518C21.717 36.3498 21.6525 36.2085 21.647 36.059V14.898H10.624C10.5328 14.8797 10.4437 14.8522 10.358 14.816C10.2552 14.782 10.1655 14.7168 10.1013 14.6296C10.0372 14.5423 10.0018 14.4373 10 14.329V9.963C10.0018 9.88526 10.0199 9.80876 10.053 9.73841C10.0861 9.66805 10.1336 9.6054 10.1923 9.55446C10.2511 9.50352 10.3198 9.46542 10.3942 9.44261C10.4685 9.4198 10.5468 9.41278 10.624 9.422H28.693L28.711 9.405C28.7882 9.39549 28.8664 9.40223 28.9408 9.42479C29.0152 9.44735 29.0841 9.48524 29.1429 9.536C29.2018 9.58677 29.2494 9.6493 29.2826 9.71957C29.3159 9.78984 29.3341 9.86629 29.336 9.944V36.059L29.332 36.116C29.313 36.2622 29.2372 36.3949 29.1209 36.4856C29.0047 36.5762 28.8574 36.6173 28.711 36.6V36.6Z"/>
</svg>
