<svg xmlns="http://www.w3.org/2000/svg" width="120" height="14" viewbox="0 0 240 28">
    <path fill-rule="evenodd" d="M239.642 5.881a.694.694 0 0 1-.257 0h-11.023v21.181a.556.556 0 0 1-.625.539h-6.43a.557.557 0 0 1-.624-.539V.947a.557.557 0 0 1 .624-.54h18.078a.555.555 0 0 1 .624.54v4.44a.53.53 0 0 1-.367.494zm-23.074 0h-11.023v5.566h9.25c.019-.001.039-.004.059-.004a.557.557 0 0 1 .566.544v4.053l-.004.058a.557.557 0 0 1-.621.481h-9.25V27.02a.621.621 0 0 1-.661.574h-6.12a.62.62 0 0 1-.659-.577V.983.981a.62.62 0 0 1 .661-.574h17.802a.555.555 0 0 1 .624.54v4.44a.545.545 0 0 1-.367.494.792.792 0 0 1-.257 0zm-24.388 21.72h-6.228a.557.557 0 0 1-.624-.539V.947a.531.531 0 0 1 .588-.54h6.227a.555.555 0 0 1 .625.54v26.115a.52.52 0 0 1-.588.539zm-12.805-.007h-6.228l-.058.003a.555.555 0 0 1-.566-.544V16.616h-9.25v10.446a.529.529 0 0 1-.588.539h-6.228a.557.557 0 0 1-.624-.539V.947a.531.531 0 0 1 .588-.54h6.228a.555.555 0 0 1 .624.54v10.5h9.287V.947a.531.531 0 0 1 .588-.54h6.227V.399c.02-.003.04-.004.059-.005a.556.556 0 0 1 .566.544v26.115a.559.559 0 0 1-.625.541zm-37.89.404a36.259 36.259 0 0 1-10.104-1.368.905.905 0 0 1-.662-.901v-.189l.551-3.178c.074-.506.295-.684.662-.684.164.008.327.032.487.071a35.437 35.437 0 0 0 7.624 1.233c2.728 0 4.491-.575 4.491-2.782 0-2.458-2.351-2.603-5.336-3.106-3.647-.622-8.736-1.801-8.736-8.105-.007-.946.114-1.887.359-2.801.014-.058.032-.115.055-.171a.807.807 0 0 1 .046-.136c1.304-4.231 5.401-5.887 10.581-5.887a35.57 35.57 0 0 1 8.938 1.296c.514.144.845.433.845.9v.207l-.772 3.467v.108a.803.803 0 0 1-.202.415.616.616 0 0 1-.34.179h-.128a.218.218 0 0 1-.147 0c-1.231-.252-2.352-.494-3.445-.685a23.205 23.205 0 0 0-4.032-.395 7.623 7.623 0 0 0-2.756.395 2.446 2.446 0 0 0-.294.136l-.275.171a2.297 2.297 0 0 0-.919 2.009c0 2.341 2.434 2.494 5.456 2.962v.009c4.216.648 8.809 1.621 8.809 8.564 0 6.212-5.052 8.266-10.756 8.266zM126.733 5.881h-11.868v5.566h11.308c.376 0 .624.144.624.504v4.125a.557.557 0 0 1-.624.54h-11.308v5.845h11.877l.028-.002c.31.001.56.247.56.551v4.043l-.001.037a.55.55 0 0 1-.587.504h-18.685a.62.62 0 0 1-.66-.577V.983.981a.62.62 0 0 1 .662-.574h18.674a.556.556 0 0 1 .625.54v4.44a.513.513 0 0 1-.359.494.848.848 0 0 1-.266 0zM91.672 27.629H79.4a.6.6 0 0 1-.616-.576V1.028A.6.6 0 0 1 79.4.443h12.299c6.145 0 9.461 1.973 11.078 5.476l.037.035v.1a19.134 19.134 0 0 1 1.276 7.724c0 8.303-2.314 13.851-12.418 13.851zm1.019-21.612a7.615 7.615 0 0 0-1.313-.136h-5.153v16.913H90.9c4.464 0 5.566-1.837 5.566-8.375 0-5.547-.808-7.835-3.775-8.402zM76.607 27.584h-6.43a.858.858 0 0 1-.771-.647l-1.102-3.963H57.171l-1.112 4.088a.741.741 0 0 1-.698.577H44.182a1.035 1.035 0 0 1-.845-.361l-6.733-9.347h-4.491v9.212a.53.53 0 0 1-.588.54h-6.228a.563.563 0 0 1-.634-.54V1.028l.001-.011a.62.62 0 0 1 .669-.564h12.585a19.023 19.023 0 0 1 4.041.369c.582.103 1.153.252 1.709.45 1.957.654 3.466 2.204 4.042 4.151.018.08.101.397.101.458v.136c.17.758.268 1.53.294 2.306 0 .43-.065.846-.065 1.242-.33 2.81-1.901 4.52-5.575 5.134h-.184a.455.455 0 0 0-.487.421.455.455 0 0 0 .432.478c.661 0 1.148.784 1.148.784l5.915 7.852 5.806-18.37L56.693.822a.635.635 0 0 1 .625-.433h10.995a.64.64 0 0 1 .624.433l1.589 5.059v.136l6.669 20.992a.125.125 0 0 1 0 .107.539.539 0 0 1-.588.468zM40.508 9.727v-.054c0-1.613-.377-2.656-1.359-3.233a3.618 3.618 0 0 0-1.204-.423 8.325 8.325 0 0 0-1.24-.136h-4.592v7.565h4.28a5.455 5.455 0 0 0 2.756-.558c.982-.576 1.359-1.449 1.359-3.062v-.099zm23.12-3.8h-1.837l-3.252 12.004h8.387L63.628 5.927zM18.72 27.594h-6.43c-.017.001-.033.003-.05.003a.565.565 0 0 1-.584-.544V5.892H.633a1.387 1.387 0 0 1-.266-.082.522.522 0 0 1-.358-.487V.957A.558.558 0 0 1 .633.416h18.069l.018-.017a.557.557 0 0 1 .625.539v26.115l-.004.057a.56.56 0 0 1-.621.484z"/>
</svg>
