<svg class="svg-icon" viewBox="0 0 261 46" fill="none" xmlns="http://www.w3.org/2000/svg">
<path fill-rule="evenodd" clip-rule="evenodd" d="M256.526 36.3467V26.0407C256.526 24.8667 256.222 23.9547 255.659 23.2587C255.096 22.6067 254.316 22.2587 253.319 22.2587C252.149 22.2587 251.326 22.6067 250.676 23.3897C250.026 24.1287 249.723 25.2147 249.723 26.5627V36.4327H245.26V18.6067H249.636V19.6927C250.719 18.6937 252.149 18.1717 253.926 18.1717C256.136 18.1717 257.869 18.8667 259.126 20.2587C260.382 21.6497 260.989 23.6067 260.989 26.0407V36.3467H256.526V36.3467ZM237.503 34.9117C236.073 36.0847 234.47 36.7797 232.78 36.7797C231.09 36.7797 229.66 36.2597 228.49 35.3027C227.32 34.3037 226.757 32.9107 226.757 31.2587C226.757 29.3877 227.45 27.8667 228.794 26.8247C230.137 25.7807 231.957 25.2587 234.167 25.2587C235.25 25.2587 236.333 25.4327 237.46 25.7807V24.9107C237.46 24.1287 237.2 23.4767 236.593 22.9967C235.987 22.5187 235.25 22.2587 234.297 22.2587C232.564 22.2587 231.263 22.9107 230.094 24.7807L227.234 22.0407L227.19 21.9977C227.927 20.6927 229.054 19.7367 230.224 19.1287C231.505 18.5 232.913 18.1727 234.34 18.1717C236.68 18.1717 238.543 18.7367 239.886 19.9107C241.273 21.0847 241.966 22.7807 241.88 24.9107V36.3897H237.503V34.9117V34.9117ZM237.46 29.6937C236.29 29.2587 235.163 29.0407 234.08 29.0407C233.17 29.0407 232.477 29.2147 231.957 29.5637C231.48 29.9107 231.22 30.3897 231.22 30.9547C231.22 31.5197 231.437 31.9117 231.827 32.2587C232.217 32.6067 232.823 32.7807 233.603 32.7807C235.207 32.7807 236.507 32.3447 237.46 31.4327V29.6937V29.6937ZM212.761 28.8677C212.848 29.9987 213.281 30.9117 214.018 31.5637C214.797 32.3027 215.794 32.6507 217.051 32.6507C217.874 32.6507 218.654 32.5197 219.304 32.1707C219.737 31.9547 220.171 31.6507 220.604 31.2147C220.951 30.8677 221.34 30.5187 221.601 30.1717L224.504 32.9987L224.417 33.1277C222.597 35.5637 220.084 36.7797 217.094 36.7797C214.451 36.7797 212.241 35.9107 210.638 34.2157C208.991 32.4767 208.168 30.2587 208.168 27.5617C208.168 24.9107 208.948 22.6937 210.421 20.8677C211.938 19.0417 213.974 18.1287 216.487 18.1287C217.874 18.1287 219.087 18.3887 220.171 18.9107C221.177 19.4123 222.052 20.1416 222.727 21.0407C223.357 21.9128 223.84 22.8819 224.157 23.9097C224.46 24.9547 224.634 26.0407 224.634 27.2157L224.591 28.8677H212.761V28.8677ZM218.957 23.1287C218.394 22.5187 217.571 22.2157 216.487 22.2157C215.534 22.2157 214.754 22.5187 214.148 23.1287C213.594 23.6837 213.21 24.3667 212.991 25.2147H219.867C219.781 24.3887 219.477 23.6937 218.957 23.1287ZM199.848 32.6937C200.758 32.6937 201.538 32.4767 202.145 32.0847C202.795 31.6937 203.618 30.9117 204.398 29.9987L207.215 32.7807C205.481 35.3457 202.881 36.7377 199.632 36.7377C197.162 36.7377 195.038 35.8677 193.305 34.0847C191.572 32.3027 190.705 30.0847 190.705 27.4317C190.705 24.7807 191.572 22.5187 193.305 20.7807C195.038 19.0417 197.162 18.1287 199.632 18.1287C202.578 18.1287 205.048 19.3017 206.955 21.8247L204.008 24.6487C202.708 23.1287 201.191 22.2157 199.762 22.2157C198.462 22.2157 197.422 22.6937 196.555 23.6937C195.732 24.6487 195.298 25.9107 195.298 27.4317C195.298 28.9547 195.732 30.2157 196.598 31.2147C197.465 32.2157 198.548 32.6937 199.848 32.6937ZM175.496 36.7377C168.346 36.7377 162.497 30.9117 162.497 23.6937C162.497 16.4747 168.303 10.6487 175.496 10.6487C182.646 10.6487 188.495 16.4747 188.495 23.6937C188.495 30.9117 182.646 36.7377 175.496 36.7377ZM175.496 15.3027C170.859 15.3027 167.09 19.0847 167.09 23.7367C167.09 28.3897 170.859 32.1707 175.496 32.1707C180.132 32.1707 183.902 28.3897 183.902 23.7367C183.902 19.0847 180.132 15.3027 175.496 15.3027V15.3027ZM154.827 11.0847H159.29V36.3467H154.827V11.0847V11.0847ZM146.854 34.9117C145.424 36.0847 143.821 36.7797 142.131 36.7797C140.441 36.7797 139.011 36.2597 137.841 35.3027C136.671 34.3037 136.108 32.9107 136.108 31.2587C136.108 29.3877 136.801 27.8667 138.144 26.8247C139.487 25.7807 141.307 25.2587 143.517 25.2587C144.601 25.2587 145.684 25.4327 146.81 25.7807V24.9107C146.81 24.1287 146.55 23.4767 145.944 22.9967C145.337 22.5187 144.601 22.2587 143.647 22.2587C141.914 22.2587 140.614 22.9107 139.444 24.7807L136.584 22.0407L136.541 21.9977C137.278 20.6927 138.404 19.7367 139.574 19.1287C140.855 18.5001 142.264 18.1728 143.691 18.1717C146.031 18.1717 147.894 18.7367 149.237 19.9107C150.58 21.0847 151.274 22.7807 151.23 24.9107V36.3897H146.854V34.9117V34.9117ZM146.81 29.6937C145.64 29.2587 144.514 29.0407 143.431 29.0407C142.521 29.0407 141.827 29.2147 141.307 29.5637C140.787 29.9107 140.571 30.3897 140.571 30.9547C140.571 31.5197 140.787 31.9117 141.177 32.2587C141.567 32.6067 142.174 32.7807 142.954 32.7807C144.557 32.7807 145.857 32.3447 146.81 31.4327V29.6937V29.6937ZM131.558 36.4327C129.261 36.4327 127.658 35.9547 126.748 34.9997C125.838 34.0417 125.361 32.3897 125.361 30.0847V22.6937H122.805V18.6067H125.361V13.7807H129.781V18.5637H133.941V22.6497H129.781V29.4327C129.781 30.6067 129.955 31.3897 130.301 31.7807C130.648 32.1707 131.341 32.3447 132.425 32.3447L133.941 32.2587V36.3467H133.724C133.031 36.3897 132.295 36.4327 131.558 36.4327V36.4327ZM117.779 16.2587C116.998 16.2587 116.348 15.9547 115.828 15.4317C115.265 14.9107 115.005 14.2587 115.005 13.4767C115.005 12.7357 115.309 12.0847 115.828 11.5627C116.348 11.0407 116.998 10.7797 117.779 10.7797C118.515 10.7797 119.208 11.0407 119.728 11.5627C120.292 12.0407 120.552 12.6937 120.552 13.4767C120.552 14.2147 120.248 14.9107 119.728 15.4317C119.208 15.9967 118.558 16.2587 117.779 16.2587ZM102.959 43.6517C100.966 43.6517 99.319 43.2157 97.976 42.3457C96.633 41.4767 95.636 40.5637 94.986 39.6507L94.899 39.5197L97.933 36.6067C99.536 38.7367 100.792 39.5627 102.872 39.5627C104.216 39.5627 105.299 39.1717 106.079 38.3897C106.859 37.5637 107.249 36.4327 107.249 34.9537V34.5217C106.036 35.4767 104.562 35.9547 102.829 35.9547C100.359 35.9547 98.323 35.0847 96.719 33.4327C95.116 31.6937 94.336 29.5637 94.336 27.0417C94.336 24.4757 95.116 22.3027 96.719 20.6507C98.323 18.9967 100.359 18.1287 102.829 18.1287C104.432 18.1287 105.949 18.8237 107.292 20.0407H107.335V18.5637H111.712V34.7367C111.712 37.4327 110.932 39.6067 109.329 41.2157C107.769 42.8237 105.602 43.6517 102.959 43.6517V43.6517ZM106.122 23.5627C105.342 22.6497 104.346 22.2157 103.046 22.2157C101.789 22.2157 100.792 22.6937 100.012 23.5627C99.233 24.4327 98.843 25.6507 98.843 27.0847C98.843 28.5187 99.233 29.6937 100.012 30.5637C100.749 31.4327 101.746 31.8667 103.046 31.8667C104.346 31.8667 105.342 31.4327 106.122 30.5637C106.859 29.6937 107.292 28.5187 107.292 27.0847C107.292 25.6507 106.902 24.4327 106.122 23.5627ZM88.876 16.2587C88.096 16.2587 87.446 15.9547 86.926 15.4317C86.363 14.9107 86.103 14.2587 86.103 13.4767C86.103 12.7357 86.406 12.0847 86.926 11.5627C87.446 11.0407 88.096 10.7797 88.876 10.7797C89.613 10.7797 90.306 11.0407 90.826 11.5627C91.39 12.0407 91.649 12.6937 91.649 13.4767C91.649 14.2147 91.346 14.9107 90.826 15.4317C90.306 15.9967 89.656 16.2587 88.876 16.2587ZM78.997 33.5627C76.484 35.4337 73.364 36.3467 69.724 36.3467H61.794V11.0847H69.724C73.364 11.0847 76.484 11.9967 78.997 13.7357C80.383 14.6487 81.467 15.9967 82.203 17.6487C82.94 19.3447 83.33 21.3457 83.33 23.5627C83.33 25.8227 82.94 27.8247 82.203 29.5197C81.467 31.2147 80.383 32.6067 78.997 33.5627ZM75.747 16.9977C74.014 15.9547 71.717 15.3887 68.944 15.3887H66.474V32.0847H68.987C71.804 32.0847 74.1 31.5197 75.747 30.4327C77.654 29.1717 78.65 26.8667 78.65 23.5627C78.65 20.3887 77.654 18.1717 75.747 16.9977V16.9977ZM22.926 44.9987V36.4757C31.939 36.4757 38.872 27.5197 35.449 18.0407C34.149 14.5197 31.376 11.6927 27.866 10.4327C18.419 6.99668 9.493 13.9537 9.493 22.9967H1C1 8.60668 14.866 -2.61232 29.902 2.08468C36.489 4.12668 41.688 9.38768 43.725 15.9547C48.405 31.0847 37.269 44.9987 22.926 44.9987ZM7.976 42.9987V36.4757H14.476V42.9987H7.976ZM2.517 31.0407H7.976V36.4757H2.517V31.0407V31.0407ZM14.476 27.9967H22.926V36.4757H14.476V27.9967V27.9967ZM91.043 36.3897H86.58V18.5637H91.043V36.3897ZM119.945 36.3897H115.482V18.5637H119.945V36.3897Z"/>
</svg>
