<svg class="svg-icon" viewBox="0 0 261 46" fill="none" xmlns="http://www.w3.org/2000/svg">
<path fill-rule="evenodd" clip-rule="evenodd" d="M259.48 33.651H255.982C255.717 33.651 255.505 33.439 255.505 33.121V24.995H246.389V33.226C246.389 33.545 246.177 33.757 245.859 33.757H242.361C242.096 33.757 241.884 33.545 241.884 33.226V12.992V12.938C241.884 12.62 242.096 12.408 242.414 12.408H245.912C246.177 12.408 246.389 12.62 246.389 12.938V20.905H255.505V12.885V12.832C255.505 12.567 255.717 12.354 256.035 12.354H259.533C259.798 12.354 260.01 12.567 260.01 12.885V33.174C260.01 33.439 259.798 33.651 259.48 33.651V33.651ZM227.84 34.235C224.978 34.29 222.169 33.174 220.155 31.155C220.105 31.107 220.065 31.0494 220.038 30.9855C220.01 30.9217 219.996 30.8529 219.996 30.7835C219.996 30.7141 220.01 30.6453 220.038 30.5815C220.065 30.5176 220.105 30.46 220.155 30.412L222.116 28.446C222.164 28.3955 222.221 28.3552 222.285 28.3277C222.349 28.3001 222.418 28.2859 222.487 28.2859C222.556 28.2859 222.625 28.3001 222.689 28.3277C222.753 28.3552 222.81 28.3955 222.858 28.446C224.13 29.667 225.773 30.359 227.521 30.359C229.8 30.359 231.338 29.136 231.338 27.597C231.284 23.507 220.526 25.792 220.526 18.09C220.526 14.744 223.441 11.822 227.998 11.822C230.456 11.7694 232.835 12.6857 234.623 14.373C234.725 14.4804 234.782 14.6229 234.782 14.771C234.782 14.9191 234.725 15.0616 234.623 15.169L232.556 17.24C232.46 17.3372 232.331 17.3961 232.195 17.4057C232.058 17.4152 231.923 17.3748 231.814 17.292C230.861 16.391 229.588 15.912 228.264 15.912C226.409 15.912 225.084 16.974 225.084 18.196C225.084 22.18 235.895 19.895 235.895 27.49C235.895 31.315 232.98 34.235 227.84 34.235ZM215.756 33.704H212.099C211.834 33.704 211.622 33.545 211.569 33.332L209.873 28.658H201.605L199.909 33.332C199.856 33.545 199.645 33.704 199.379 33.704H195.723C195.458 33.757 195.193 33.545 195.14 33.226C195.14 33.121 195.14 33.013 195.193 32.961L203.142 12.725C203.195 12.514 203.46 12.354 203.672 12.354H207.806C208.018 12.354 208.283 12.461 208.336 12.725L216.286 32.961C216.392 33.226 216.286 33.545 216.021 33.651C215.915 33.704 215.809 33.704 215.756 33.704V33.704ZM205.739 17.665L203.142 24.676H208.336L205.739 17.665V17.665ZM180.83 33.757H173.463C173.145 33.757 172.933 33.545 172.933 33.226V12.992C172.933 12.673 173.145 12.461 173.463 12.461L180.83 12.408C187.084 12.408 191.801 17.134 191.801 23.082C191.801 29.031 187.084 33.757 180.83 33.757ZM181.095 16.551H177.491V29.667H180.83C184.381 29.614 187.243 26.694 187.243 23.136C187.349 19.631 184.593 16.657 181.095 16.551ZM165.46 33.704H161.857C161.761 33.7045 161.667 33.6803 161.584 33.6339C161.5 33.5875 161.43 33.5204 161.38 33.439L157.405 26.27H153.43V33.174C153.43 33.492 153.218 33.704 152.9 33.704H149.455C149.137 33.704 148.925 33.492 148.925 33.174L148.872 12.885C148.872 12.567 149.084 12.354 149.402 12.354H158.306C162.546 12.354 165.62 15.488 165.62 19.364C165.647 20.6638 165.303 21.9443 164.627 23.0548C163.95 24.1653 162.971 25.0594 161.804 25.632L165.937 32.854C166.097 33.121 166.043 33.439 165.779 33.598C165.672 33.651 165.566 33.704 165.46 33.704V33.704ZM161.062 19.312C161.115 17.771 159.896 16.444 158.359 16.391C158.253 16.444 158.2 16.444 158.147 16.444H153.43V22.074H158.147C159.684 22.126 160.956 20.958 161.062 19.418V19.312ZM131.224 34.182C124.705 34.182 119.67 29.136 119.67 23.029C119.67 16.921 124.652 11.876 131.224 11.876C137.795 11.876 142.777 16.921 142.777 23.029C142.777 29.136 137.742 34.182 131.224 34.182ZM131.224 16.018C127.355 16.018 124.228 19.152 124.228 23.029C124.217 23.9547 124.39 24.8734 124.736 25.7318C125.083 26.5903 125.596 27.3714 126.247 28.0299C126.898 28.6884 127.673 29.2112 128.527 29.5681C129.381 29.9249 130.298 30.1086 131.223 30.1086C132.149 30.1086 133.066 29.9249 133.92 29.5681C134.774 29.2112 135.549 28.6884 136.2 28.0299C136.851 27.3714 137.364 26.5903 137.711 25.7318C138.057 24.8734 138.23 23.9547 138.219 23.029C138.219 19.152 135.092 16.018 131.224 16.018ZM103.717 34.182C97.199 34.182 92.164 29.136 92.164 23.029C92.164 16.921 97.146 11.876 103.717 11.876C110.289 11.876 115.271 16.921 115.271 23.029C115.271 29.136 110.236 34.182 103.717 34.182ZM103.717 16.018C99.849 16.018 96.722 19.152 96.722 23.029C96.744 24.8698 97.4907 26.6278 98.8002 27.9218C100.11 29.2157 101.877 29.9414 103.717 29.9414C105.558 29.9414 107.325 29.2157 108.635 27.9218C109.944 26.6278 110.691 24.8698 110.713 23.029C110.713 19.152 107.586 16.018 103.717 16.018ZM76.635 33.704H69.269C68.951 33.704 68.739 33.492 68.739 33.174V12.885C68.739 12.567 68.951 12.354 69.269 12.354H76.635C82.889 12.354 87.606 17.08 87.606 23.029C87.606 28.976 82.889 33.704 76.635 33.704V33.704ZM76.847 16.444H73.243V29.561H76.582C80.133 29.509 82.995 26.588 82.995 23.029C83.101 19.524 80.345 16.551 76.847 16.444ZM37.841 38.006H29.573C28.513 38.006 27.559 37.634 26.817 36.89L18.655 28.658C18.443 28.393 18.284 28.074 18.284 27.756C18.284 27.012 18.867 26.429 19.556 26.429H37.735C39.643 26.429 41.126 24.887 41.126 22.975C41.126 21.064 39.589 19.576 37.682 19.576H11.235C10.228 19.631 9.275 19.205 8.533 18.461L0.371 10.229C0.159 9.964 0 9.646 0 9.327C0 8.583 0.583 8 1.272 8H38.847C43.776 8 48.334 10.709 50.666 15.116C56.655 26.535 48.546 38.006 37.841 38.006V38.006Z"/>
</svg>
