<svg class="svg-icon" viewBox="0 0 261 46" fill="none" xmlns="http://www.w3.org/2000/svg">
<path fill-rule="evenodd" clip-rule="evenodd" d="M244.255 34.7381C245.194 34.7421 245.963 35.4911 245.963 36.4291V37.7301C245.963 38.0053 245.909 38.2778 245.803 38.5319C245.697 38.7859 245.542 39.0165 245.347 39.2101C245.153 39.4051 244.922 39.5597 244.668 39.665C244.413 39.7704 244.141 39.8245 243.866 39.8242H243.864C238.271 39.8242 234.231 35.1241 234.231 29.8081V11.3461C234.231 10.4141 234.989 9.65715 235.924 9.65715H237.936C238.87 9.65715 239.628 10.4141 239.628 11.3461V16.4171H244.271C245.205 16.4171 245.963 17.1741 245.963 18.1061V19.6481C245.963 19.8703 245.919 20.0902 245.834 20.2953C245.749 20.5005 245.624 20.6869 245.467 20.8439C245.31 21.0008 245.123 21.1253 244.918 21.2101C244.713 21.2949 244.493 21.3384 244.271 21.3382H239.628V30.1241C239.628 33.0561 242.115 34.7311 244.255 34.7381ZM230.968 19.7211C230.828 20.3015 230.471 20.8056 229.969 21.1285C229.467 21.4514 228.86 21.568 228.274 21.4541C227.745 21.3488 227.209 21.2905 226.67 21.2801C223.864 21.2801 221.575 23.3691 221.575 26.5701V37.5831C221.575 37.8053 221.531 38.0252 221.446 38.2303C221.361 38.4355 221.236 38.6219 221.079 38.7789C220.922 38.9358 220.735 39.0603 220.53 39.1451C220.325 39.2299 220.105 39.2734 219.883 39.2731H217.954C217.732 39.2734 217.512 39.2299 217.306 39.1451C217.101 39.0603 216.915 38.9358 216.757 38.7789C216.6 38.6219 216.476 38.4355 216.391 38.2303C216.306 38.0252 216.262 37.8053 216.262 37.5831V26.3911L216.263 26.3762C216.263 20.4952 221.102 16.2291 226.345 16.2291C226.428 16.2291 226.512 16.2251 226.598 16.2251C227.551 16.2251 229.391 16.3001 230.124 16.4601C230.536 16.5501 230.886 16.7961 231.11 17.1531C231.333 17.5081 231.398 17.9491 231.302 18.3361C231.207 18.7241 231.105 19.1501 230.968 19.7211V19.7211ZM210.942 39.2561H209.014C208.792 39.2565 208.572 39.2132 208.366 39.1285C208.161 39.0438 207.974 38.9194 207.817 38.7626C207.66 38.6057 207.535 38.4194 207.45 38.2143C207.365 38.0092 207.321 37.7893 207.321 37.5672V36.7571C206.6 37.6961 204.305 39.8472 200.503 39.8432C198.521 39.8455 196.574 39.3172 194.865 38.3131C191.377 36.3541 189.225 32.6601 189.225 28.0351C189.225 23.6231 191.187 20.0551 194.399 18.0371C194.402 18.0359 194.405 18.0338 194.408 18.0311C196.192 16.8491 198.404 16.2251 200.806 16.2251C200.847 16.2251 200.888 16.2281 200.93 16.2291C200.972 16.2281 201.012 16.2251 201.054 16.2251C203.456 16.2251 205.668 16.8491 207.452 18.0311C207.454 18.0338 207.457 18.0359 207.461 18.0371C210.673 20.0551 212.635 23.6231 212.635 28.0351V37.5672C212.635 37.7893 212.591 38.0092 212.506 38.2143C212.42 38.4194 212.296 38.6057 212.138 38.7626C211.981 38.9194 211.794 39.0438 211.589 39.1285C211.384 39.2132 211.164 39.2565 210.942 39.2561V39.2561ZM201.625 21.2671C201.419 21.2436 201.212 21.2322 201.005 21.2331H200.854C200.781 21.234 200.709 21.2363 200.637 21.2401C200.594 21.2401 200.552 21.2421 200.51 21.2461C200.435 21.2495 200.36 21.2548 200.286 21.2621L200.234 21.2671C196.962 21.6021 194.654 24.3451 194.654 28.0351C194.654 31.1621 196.31 33.6061 198.804 34.4861C199.489 34.7162 200.207 34.8357 200.93 34.8401C200.968 34.8401 201.007 34.8392 201.045 34.8372L201.183 34.8341C201.82 34.8063 202.451 34.6892 203.056 34.4861C205.55 33.6061 207.206 31.1621 207.206 28.0351C207.206 24.3451 204.898 21.6021 201.625 21.2671V21.2671ZM179.352 34.8401C180.672 34.8401 182.019 34.4282 183.248 33.6492C183.621 33.4122 184.054 33.2866 184.497 33.2871C185.152 33.2871 185.777 33.5651 186.213 34.0501L186.384 34.2411C186.625 34.5099 186.806 34.8275 186.914 35.1722C187.021 35.5169 187.054 35.8808 187.009 36.2392C186.965 36.5939 186.845 36.9351 186.658 37.2396C186.47 37.5441 186.22 37.8049 185.923 38.0042C184.126 39.2102 181.901 39.8471 179.49 39.8471C172.526 39.8471 167.661 34.9891 167.661 28.0351C167.661 21.0811 172.526 16.2251 179.49 16.2251C181.892 16.2251 184.104 16.8491 185.888 18.0311C186.188 18.2302 186.442 18.4926 186.63 18.7999C186.818 19.1072 186.937 19.4521 186.978 19.8102C187.021 20.1759 186.984 20.5468 186.869 20.8966C186.754 21.2464 186.563 21.5668 186.311 21.8351L186.118 22.0411C185.373 22.8361 184.07 22.9891 183.163 22.3881C182.039 21.625 180.71 21.2221 179.352 21.2331C175.723 21.2331 173.09 24.0941 173.09 28.0351C173.09 31.9781 175.723 34.8401 179.352 34.8401V34.8401ZM162.798 39.2561H160.869C160.647 39.2564 160.427 39.2129 160.222 39.1282C160.016 39.0434 159.83 38.9191 159.673 38.7622C159.516 38.6054 159.391 38.4191 159.306 38.214C159.221 38.009 159.177 37.7892 159.177 37.5672V36.7571C158.455 37.6961 156.16 39.8472 152.359 39.8432C150.377 39.8458 148.43 39.3175 146.721 38.3131C143.232 36.3541 141.08 32.6601 141.08 28.0351C141.08 23.6231 143.042 20.0551 146.254 18.0371C146.257 18.0359 146.26 18.0338 146.263 18.0311C148.048 16.8491 150.26 16.2251 152.661 16.2251C152.703 16.2251 152.744 16.2281 152.785 16.2291C152.827 16.2281 152.868 16.2251 152.909 16.2251C155.311 16.2251 157.523 16.8491 159.307 18.0311C159.309 18.0338 159.312 18.0359 159.316 18.0371C162.528 20.0551 164.49 23.6231 164.49 28.0351V37.5672C164.49 37.7892 164.446 38.009 164.361 38.214C164.276 38.4191 164.151 38.6054 163.994 38.7622C163.837 38.9191 163.65 39.0434 163.445 39.1282C163.24 39.2129 163.02 39.2564 162.798 39.2561V39.2561ZM153.481 21.2671L153.429 21.2621C153.354 21.2548 153.28 21.2495 153.205 21.2461C153.163 21.2421 153.12 21.2401 153.078 21.2401C153.005 21.2363 152.933 21.234 152.861 21.2331H152.71C152.637 21.234 152.564 21.2363 152.492 21.2401C152.449 21.2401 152.407 21.2421 152.365 21.2461C152.273 21.2501 152.181 21.2571 152.09 21.2671C148.817 21.6021 146.509 24.3451 146.509 28.0351C146.509 31.1621 148.165 33.6061 150.66 34.4861C151.345 34.7162 152.062 34.8357 152.785 34.8401C152.823 34.8401 152.862 34.8392 152.9 34.8372L153.038 34.8341C153.675 34.8064 154.306 34.6893 154.911 34.4861C157.405 33.6061 159.061 31.1621 159.061 28.0351C159.061 24.3451 156.753 21.6021 153.481 21.2671V21.2671ZM136.694 39.8242H136.692C131.098 39.8242 127.059 35.1241 127.059 29.8081V11.3461C127.059 10.4141 127.817 9.65715 128.751 9.65715H130.763C130.985 9.65689 131.205 9.70037 131.41 9.78512C131.615 9.86987 131.802 9.99423 131.959 10.1511C132.116 10.3079 132.241 10.4942 132.326 10.6993C132.411 10.9043 132.455 11.1241 132.455 11.3461V16.4171H137.099C138.033 16.4171 138.791 17.1741 138.791 18.1061V19.6481C138.791 19.8703 138.747 20.0902 138.662 20.2953C138.577 20.5005 138.452 20.6869 138.295 20.8439C138.138 21.0008 137.951 21.1253 137.746 21.2101C137.541 21.2949 137.321 21.3384 137.099 21.3382H132.455V30.1241C132.455 33.0561 134.943 34.7311 137.082 34.7381C138.022 34.7421 138.791 35.4911 138.791 36.4291V37.7301C138.791 38.0053 138.737 38.2778 138.631 38.5319C138.525 38.7859 138.37 39.0165 138.175 39.2101C137.98 39.405 137.75 39.5595 137.496 39.6649C137.241 39.7703 136.969 39.8244 136.694 39.8242V39.8242ZM113.712 25.5841L115.988 25.9271C121.204 26.6761 123.85 28.8091 123.85 32.5301C123.85 37.1821 120.111 39.8242 114.071 39.8242C112.261 39.8242 108.823 39.2311 105.845 37.5581C105.587 37.4145 105.362 37.2197 105.183 36.9859C105.003 36.752 104.874 36.4839 104.802 36.1982C104.727 35.9074 104.712 35.6047 104.757 35.308C104.802 35.0113 104.906 34.7267 105.064 34.4711L105.192 34.2651C105.388 33.9491 105.662 33.6881 105.987 33.5065C106.312 33.325 106.678 33.2289 107.05 33.2271C107.453 33.2271 107.846 33.3401 108.187 33.5561C109.895 34.6361 111.999 35.1621 114.071 35.1621C117.831 35.1621 118.398 33.7682 118.398 32.7192C118.398 31.5832 117.219 30.8661 114.792 30.5251L112.495 30.2281C107.469 29.5421 104.813 27.2271 104.813 23.5371C104.813 19.0421 108.545 16.2491 114.338 16.2491C117.11 16.2491 119.214 17.1191 121.154 18.0891C121.697 18.3621 122.096 18.8311 122.277 19.4111C122.367 19.6967 122.397 19.9976 122.367 20.2954C122.336 20.5932 122.245 20.8816 122.1 21.1431L121.914 21.4781C121.642 21.9694 121.189 22.336 120.653 22.5009C120.116 22.6658 119.536 22.616 119.035 22.3622L118.769 22.2281C117.438 21.5511 116.047 20.9111 114.338 20.9111C111.921 20.9111 110.287 21.8211 110.287 23.2851C110.287 24.5621 111.543 25.2641 113.712 25.5841V25.5841ZM99.7258 39.2731H97.7968C97.5747 39.2734 97.3547 39.2299 97.1494 39.1451C96.9441 39.0603 96.7576 38.9358 96.6005 38.7789C96.4433 38.6219 96.3186 38.4355 96.2336 38.2303C96.1485 38.0252 96.1048 37.8053 96.1048 37.5831V27.1081C96.1048 23.6021 93.9768 21.2781 90.8728 21.2781C87.7698 21.2781 85.6408 23.6021 85.6408 27.1081V37.5831C85.6408 37.8053 85.597 38.0252 85.5119 38.2303C85.4269 38.4355 85.3022 38.6219 85.1451 38.7789C84.9879 38.9358 84.8014 39.0603 84.5961 39.1451C84.3908 39.2299 84.1709 39.2734 83.9488 39.2731H82.0198C81.7977 39.2734 81.5777 39.2299 81.3724 39.1451C81.1671 39.0603 80.9806 38.9358 80.8235 38.7789C80.6663 38.6219 80.5416 38.4355 80.4566 38.2303C80.3715 38.0252 80.3278 37.8053 80.3278 37.5831V26.2591C80.3278 21.6321 84.1028 16.2251 90.8728 16.2251C97.6428 16.2251 101.418 21.6321 101.418 26.2591V37.5831C101.418 37.8053 101.374 38.0252 101.289 38.2303C101.204 38.4355 101.079 38.6219 100.922 38.7789C100.765 38.9358 100.578 39.0603 100.373 39.1451C100.168 39.2299 99.9479 39.2734 99.7258 39.2731V39.2731ZM73.4978 14.7321C71.6548 14.7321 70.2658 13.3441 70.2658 11.5041C70.2658 9.66915 71.6848 8.23415 73.4978 8.23415C73.9288 8.22906 74.3565 8.31014 74.7557 8.47262C75.155 8.6351 75.5177 8.87572 75.8227 9.18033C76.1277 9.48494 76.3688 9.84742 76.5317 10.2465C76.6947 10.6455 76.7763 11.0731 76.7718 11.5041C76.7718 13.3131 75.3338 14.7321 73.4978 14.7321ZM46.1988 18.3371C45.8508 17.0411 50.7258 11.5821 53.8178 11.9411C55.5038 12.1371 56.6338 13.7911 57.0758 15.4271L57.0818 15.4241C57.5178 17.0631 57.3308 19.1191 56.0048 20.0711C53.4328 21.9171 46.5468 19.6331 46.1988 18.3371V18.3371ZM43.4178 15.5311C41.5988 15.0441 38.3918 5.40315 40.9838 1.80215C42.3198 -0.0548505 45.2058 -0.314851 47.5068 0.294149L47.5058 0.301149C49.8028 0.923149 52.1238 2.50515 52.3978 4.86515C52.9018 9.19415 45.2368 16.0171 43.4178 15.5311ZM43.5928 18.4301C46.3188 21.1651 48.5468 25.6411 47.2708 28.3011C43.8598 35.4151 18.4098 47.8912 16.2478 45.7332C14.0858 43.5742 26.5888 18.1521 33.7138 14.7461C36.3778 13.4721 40.8628 15.6981 43.6018 18.4201L43.5928 18.4301ZM72.5698 16.4171H74.4768C74.6987 16.417 74.9185 16.4606 75.1236 16.5454C75.3287 16.6302 75.515 16.7546 75.6721 16.9114C75.8291 17.0683 75.9537 17.2545 76.0387 17.4595C76.1238 17.6645 76.1676 17.8842 76.1678 18.1061V37.5831C76.1678 37.8053 76.124 38.0252 76.0389 38.2303C75.9539 38.4355 75.8292 38.6219 75.6721 38.7789C75.5149 38.9358 75.3284 39.0603 75.1231 39.1451C74.9178 39.2299 74.6979 39.2734 74.4758 39.2731H72.5698C72.3477 39.2734 72.1277 39.2299 71.9224 39.1451C71.7171 39.0603 71.5306 38.9358 71.3735 38.7789C71.2163 38.6219 71.0916 38.4355 71.0066 38.2303C70.9215 38.0252 70.8778 37.8053 70.8778 37.5831V18.1061C70.8779 17.8841 70.9218 17.6643 71.0069 17.4593C71.092 17.2542 71.2167 17.0679 71.3738 16.9111C71.5309 16.7542 71.7174 16.6299 71.9226 16.5451C72.1278 16.4604 72.3477 16.4169 72.5698 16.4171Z" />
</svg>
