<svg class="svg-icon" viewBox="0 0 261 46" fill="none" xmlns="http://www.w3.org/2000/svg">
<path fill-rule="evenodd" clip-rule="evenodd" d="M37.68 15.389C37.573 14.889 37.573 14.372 37.68 13.872C37.896 12.618 39.048 11.756 40.297 11.918C41.642 11.8 42.827 12.808 42.944 14.17C42.954 14.296 42.956 14.42 42.948 14.543V16.338H50.079V14.299C50.079 8.006 44.468 7 40.434 7C35.36 7 31.211 8.7 30.446 13.432C30.193 14.7197 30.193 16.0443 30.446 17.332C31.68 23.245 41.874 24.959 43.314 28.708C43.52 29.4071 43.52 30.1509 43.314 30.85C43.044 32.148 41.82 33.006 40.525 32.805C39.128 32.977 37.857 31.972 37.686 30.557C37.67 30.4277 37.664 30.2973 37.668 30.167V27.378H30V29.598C30 36.069 35.017 38.013 40.388 38.013C45.554 38.013 49.793 36.229 50.479 31.382C50.737 29.8145 50.737 28.2155 50.479 26.648C49.336 20.575 38.491 18.78 37.68 15.389ZM130.635 15.458C130.539 14.967 130.539 14.458 130.635 13.967C130.856 12.726 131.995 11.877 133.229 12.032C134.556 11.915 135.726 12.906 135.843 14.251C135.854 14.38 135.855 14.508 135.846 14.636V16.408H142.897V14.394C142.897 8.158 137.377 7.17 133.378 7.17C128.338 7.17 124.235 8.85 123.481 13.549C123.248 14.8251 123.271 16.1349 123.549 17.402C124.772 23.257 134.829 24.947 136.292 28.652C136.484 29.3446 136.484 30.0764 136.292 30.769C136.075 31.728 135.435 32.699 133.538 32.699C132.154 32.883 130.889 31.89 130.712 30.486C130.696 30.361 130.689 30.235 130.692 30.109V27.286H123.104V29.496C123.104 35.896 128.052 37.827 133.389 37.827C138.497 37.827 142.714 36.058 143.388 31.277C143.647 29.7251 143.647 28.1409 143.388 26.589C142.166 20.62 131.446 18.815 130.635 15.458V15.458ZM195.534 31.23L188.758 7.925H178.152V36.542H185.169L184.758 12.496L192.026 36.542H202.197V7.925H195.134L195.534 31.23ZM60.684 7.925L55.393 36.855H63.118L67.107 10.067L71.004 36.855H78.672L73.403 7.925H60.684ZM103.859 7.925L100.248 30.548L96.648 7.925H84.991L84.374 36.855H91.517L91.711 10.067L96.625 36.855H103.871L108.785 10.067L108.979 36.855H116.144L115.504 7.925H103.859ZM170.278 7.925H163.044V29.334C163.065 29.7213 163.042 30.1098 162.976 30.492C162.546 32.021 160.972 32.908 159.46 32.473C158.992 32.3369 158.566 32.0834 158.224 31.7368C157.881 31.3901 157.633 30.9616 157.502 30.492C157.431 30.1104 157.408 29.7213 157.434 29.334V7.925H150.211V28.674C150.211 29.206 150.211 30.305 150.279 30.584C150.782 35.987 154.988 37.748 160.245 37.748C165.502 37.748 169.719 35.987 170.221 30.584C170.28 29.9492 170.299 29.3112 170.278 28.674V7.925V7.925ZM219.91 20.655V24.878H222.836V29.067C222.851 29.455 222.824 29.843 222.756 30.225C222.205 31.859 220.451 32.73 218.838 32.173C218.39 32.0164 217.984 31.7594 217.651 31.4218C217.318 31.0841 217.067 30.6748 216.916 30.225C216.858 29.8418 216.832 29.4545 216.836 29.067V15.807C216.825 15.3477 216.868 14.8886 216.962 14.439C217.456 12.844 219.137 11.952 220.714 12.454C221.177 12.6023 221.597 12.8603 221.938 13.2059C222.28 13.5515 222.533 13.9745 222.676 14.439C222.735 14.822 222.765 15.21 222.767 15.597V17.206H229.898V16.256C229.933 15.616 229.933 14.975 229.898 14.335C229.361 8.91 224.938 7.183 219.876 7.183C214.813 7.183 210.471 8.921 209.842 14.335C209.842 14.834 209.693 15.724 209.693 16.256V28.42C209.695 29.057 209.733 29.695 209.808 30.329C210.276 35.606 214.802 37.48 219.853 37.48C224.904 37.48 229.43 35.606 229.898 30.329C229.978 29.355 229.989 28.951 230.001 28.42V20.665L219.91 20.655V20.655Z"/>
</svg>
