<svg class="svg-icon" viewBox="0 0 18 22" fill="none" xmlns="http://www.w3.org/2000/svg">
<path d="M15.6851 10.5V8.99999C15.6851 5.83537 13.6142 3.15796 10.7835 2.29486V2.00001C10.7835 0.896999 9.90365 0 8.82281 0C7.74196 0 6.8622 0.896999 6.8622 2.00001V2.29486C4.03158 3.15796 1.9606 5.83537 1.9606 8.99999V10.5C1.9606 13.8286 1.19283 14.998 0.631799 15.852C0.307329 16.3467 0 16.8139 0 17.5C0 19.1301 3.33132 19.7021 6.03221 19.8991C6.4109 21.1358 7.52254 22 8.82285 22C10.1232 22 11.2348 21.1358 11.6135 19.8991C14.3144 19.7021 17.6457 19.13 17.6457 17.5C17.6457 16.814 17.3384 16.3467 17.0139 15.8521C16.4529 14.9981 15.6851 13.8286 15.6851 10.5ZM7.84255 2.00001C7.84255 1.44876 8.28199 1.00003 8.82285 1.00003C9.36371 1.00003 9.80315 1.44876 9.80315 2.00001V2.07989C9.48208 2.03273 9.15656 2.00001 8.82285 2.00001C8.48915 2.00001 8.16362 2.03273 7.84255 2.07989V2.00001ZM8.82285 21C8.09019 21 7.44672 20.5875 7.11246 19.9618C7.80698 19.9917 8.41011 20 8.82285 20C9.23564 20 9.83872 19.9917 10.5333 19.9618C10.199 20.5875 9.55552 21 8.82285 21ZM8.82285 19C4.33386 19 0.980302 18.208 0.980302 17.5C0.980302 17.1343 1.13158 16.8877 1.44653 16.4087C2.04107 15.5024 2.94095 14.1328 2.94095 10.5V8.99999C2.94095 5.69141 5.5794 3 8.82285 3C12.0663 3 14.7048 5.69141 14.7048 8.99999V10.5C14.7048 14.1328 15.6046 15.5024 16.1992 16.4087C16.5141 16.8877 16.6654 17.1342 16.6654 17.5C16.6654 18.208 13.3118 19 8.82285 19Z"/>
</svg>
