<svg class="svg-icon" viewBox="0 0 33 25" fill="none" xmlns="http://www.w3.org/2000/svg">
<path d="M27.5325 19.0859C26.8282 19.0859 26.2578 19.6553 26.2578 20.3583C26.2578 21.0614 26.8282 21.6308 27.5325 21.6308C28.2368 21.6308 28.8071 21.0614 28.8071 20.3583C28.8071 19.6553 28.2368 19.0859 27.5325 19.0859Z" />
<path d="M26.8951 13.998C26.5434 13.998 26.2578 14.2831 26.2578 14.6343C26.2578 14.9854 26.5434 15.2705 26.8951 15.2705C27.2469 15.2705 27.5325 14.9854 27.5325 14.6343C27.5325 14.2831 27.2469 13.998 26.8951 13.998Z" />
<path d="M8.03052 19.0859C7.32622 19.0859 6.75586 19.6553 6.75586 20.3583C6.75586 21.0614 7.32622 21.6308 8.03052 21.6308C8.73483 21.6308 9.30519 21.0614 9.30519 20.3583C9.30519 19.6553 8.73483 19.0859 8.03052 19.0859Z" />
<path d="M29.9526 11.4925L28.8537 7.10463C29.2444 6.73161 29.4448 6.23681 29.4448 5.72585C29.4448 4.67338 28.5871 3.81724 27.5328 3.81724H22.4341V1.90862C22.4341 0.856144 21.5764 0 20.5221 0H1.912C0.85766 0 0 0.856144 0 1.90862V18.45C0 19.5024 0.85766 20.3586 1.912 20.3586H4.2064C4.2064 22.4635 5.92172 24.1758 8.03039 24.1758C10.1391 24.1758 11.8544 22.4635 11.8544 20.3586H23.7088C23.7088 22.4635 25.4241 24.1758 27.5328 24.1758C29.6414 24.1758 31.3568 22.4635 31.3568 20.3586C31.3568 20.3223 31.355 20.2863 31.354 20.25C32.0972 19.9883 32.6314 19.2803 32.6314 18.45V14.6327C32.6314 13.0512 31.4693 11.736 29.9526 11.4925ZM27.6724 7.63447L28.6284 11.4517H23.3353L24.7967 9.99291C25.0457 9.74439 25.0457 9.34179 24.7967 9.09327C24.5478 8.84475 24.1444 8.84475 23.8955 9.09327L22.4341 10.5518V7.63447H27.6724ZM28.1701 5.72585C28.1701 6.07701 27.8845 6.36206 27.5328 6.36206H22.4341V5.08965H27.5328C27.8843 5.08965 28.1701 5.37495 28.1701 5.72585ZM8.03039 22.9034C6.62477 22.9034 5.48106 21.7617 5.48106 20.3586C5.48106 18.9363 6.64544 17.8138 8.03039 17.8138C9.41858 17.8138 10.5797 18.9393 10.5797 20.3586C10.5797 21.7617 9.43601 22.9034 8.03039 22.9034ZM11.6356 19.0862C11.1033 17.5849 9.66256 16.5414 8.03039 16.5414C6.39748 16.5414 4.95626 17.5856 4.42498 19.0862H1.912C1.56047 19.0862 1.27467 18.8009 1.27467 18.45V1.90862C1.27467 1.55771 1.56047 1.27241 1.912 1.27241H20.5221C20.8736 1.27241 21.1594 1.55771 21.1594 1.90862V19.0862H11.6356ZM27.5328 22.9034C26.1271 22.9034 24.9834 21.7617 24.9834 20.3586C24.9834 18.9363 26.1478 17.8138 27.5328 17.8138C28.921 17.8138 30.0821 18.9393 30.0821 20.3586C30.0821 21.7617 28.9384 22.9034 27.5328 22.9034ZM31.0926 18.9647C30.5272 17.5287 29.1206 16.5414 27.5328 16.5414C25.8999 16.5414 24.4586 17.5856 23.9274 19.0862H22.4341V12.7241H29.4448C30.2755 12.7241 30.9841 13.2559 31.2472 13.9965H29.4448C29.0927 13.9965 28.8074 14.2813 28.8074 14.6327C28.8074 14.9841 29.0927 15.2689 29.4448 15.2689H31.3568V18.45C31.3568 18.6615 31.2522 18.8488 31.0926 18.9647Z" />
<path d="M11.2165 3.81836C8.0537 3.81836 5.48047 6.38704 5.48047 9.54421C5.48047 12.7014 8.0537 15.2701 11.2165 15.2701C14.3792 15.2701 16.9525 12.7014 16.9525 9.54421C16.9525 6.38704 14.3792 3.81836 11.2165 3.81836ZM11.2165 13.9977C8.75651 13.9977 6.75513 11.9998 6.75513 9.54421C6.75513 7.08861 8.75651 5.09077 11.2165 5.09077C13.6764 5.09077 15.6778 7.08861 15.6778 9.54421C15.6778 11.9998 13.6764 13.9977 11.2165 13.9977Z" />
<path d="M13.7667 8.9081H11.8547V6.99949C11.8547 6.64808 11.5694 6.36328 11.2174 6.36328C10.8654 6.36328 10.5801 6.64808 10.5801 6.99949V9.54431C10.5801 9.89571 10.8654 10.1805 11.2174 10.1805H13.7667C14.1188 10.1805 14.4041 9.89571 14.4041 9.54431C14.4041 9.19291 14.1188 8.9081 13.7667 8.9081Z" />
</svg>
