<svg width="28" height="23" viewBox="0 0 28 23" fill="none" xmlns="http://www.w3.org/2000/svg">
<path d="M25.9905 2.34375H4.30877C3.3109 2.34375 2.50195 3.11317 2.50195 4.06229V21.2477C2.50195 22.1968 3.3109 22.9662 4.30877 22.9662H25.9905C26.9884 22.9662 27.7974 22.1968 27.7974 21.2477V4.06229C27.7974 3.11317 26.9884 2.34375 25.9905 2.34375ZM26.5928 21.2477C26.5928 21.5641 26.3232 21.8205 25.9905 21.8205H4.30877C3.97614 21.8205 3.70648 21.5641 3.70648 21.2477V4.06229C3.70648 3.74592 3.97614 3.48942 4.30877 3.48942H25.9905C26.3232 3.48942 26.5928 3.74592 26.5928 4.06229V21.2477Z" fill="#4E7AF3"/>
<path d="M24.8658 0H1.81945C0.814602 0 0 0.734483 0 1.6405V19.1392C0 20.0452 0.814602 20.7797 1.81945 20.7797H2.42595V19.686H1.81945C1.4845 19.686 1.21295 19.4412 1.21295 19.1392V1.6405C1.21295 1.3385 1.4845 1.09365 1.81945 1.09365H24.8658C25.2008 1.09365 25.4723 1.3385 25.4723 1.6405V2.18735H26.6853V1.6405C26.6853 0.734483 25.8707 0 24.8658 0Z" fill="#4E7AF3"/>
<path d="M12.5634 10.531C12.3283 10.3074 11.947 10.3074 11.7118 10.531L2.67773 19.1237L3.52937 19.9337L12.1376 11.746L21.3482 20.5065L22.1998 19.6965L12.5634 10.531Z" fill="#4E7AF3"/>
<path d="M20.9977 10.531C20.7626 10.3074 20.3813 10.3074 20.1461 10.531L17.1348 13.3952L17.9864 14.2052L20.5719 11.746L26.7711 17.6423L27.6228 16.8323L20.9977 10.531Z" fill="#4E7AF3"/>
<path d="M16.3512 4.63086C14.6881 4.63086 13.3398 5.91321 13.3398 7.49507C13.3398 9.07693 14.6881 10.3593 16.3512 10.3593C18.0135 10.3574 19.3605 9.07613 19.3625 7.49507C19.3626 5.91321 18.0144 4.63086 16.3512 4.63086ZM16.3512 9.21361C15.3533 9.21361 14.5444 8.44419 14.5444 7.49507C14.5444 6.54596 15.3533 5.77653 16.3512 5.77653C17.3491 5.77653 18.158 6.54596 18.158 7.49507C18.158 8.44419 17.3491 9.21361 16.3512 9.21361Z" fill="#4E7AF3"/>
</svg>
