<svg width="19" height="14" viewBox="0 0 19 14" fill="none" xmlns="http://www.w3.org/2000/svg">
<path d="M0.814285 1.647H18.1857C18.6336 1.647 19 1.27643 19 0.823501C19 0.370575 18.6336 0 18.1857 0H0.814285C0.366428 0 0 0.370575 0 0.823501C0 1.27643 0.366428 1.647 0.814285 1.647Z" fill="#828282"/>
<path d="M0.814285 7.82278H18.1857C18.6336 7.82278 19 7.45221 19 6.99928C19 6.54636 18.6336 6.17578 18.1857 6.17578H0.814285C0.366428 6.17578 0 6.54636 0 6.99928C0 7.45221 0.366428 7.82278 0.814285 7.82278Z" fill="#828282"/>
<path d="M0.814285 14.0005H18.1857C18.6336 14.0005 19 13.6299 19 13.177C19 12.7241 18.6336 12.3535 18.1857 12.3535H0.814285C0.366428 12.3535 0 12.7241 0 13.177C0 13.6299 0.366428 14.0005 0.814285 14.0005Z" fill="#828282"/>
</svg>
