<svg class="svg-icon" viewBox="0 0 15 15" fill="none" xmlns="http://www.w3.org/2000/svg">
<path d="M1.74006 14.5899L14.0235 2.30647C14.3402 1.98978 14.3373 1.46864 14.017 1.14838C13.6967 0.828111 13.1756 0.825178 12.8589 1.14186L0.575455 13.4253C0.258772 13.742 0.261704 14.2631 0.581971 14.5834C0.902238 14.9037 1.42338 14.9066 1.74006 14.5899Z"/>
<path d="M13.2593 14.5899L0.975821 2.30647C0.659138 1.98978 0.66207 1.46864 0.982337 1.14838C1.3026 0.828111 1.82374 0.825178 2.14043 1.14186L14.4239 13.4253C14.7406 13.742 14.7376 14.2631 14.4174 14.5834C14.0971 14.9037 13.576 14.9066 13.2593 14.5899Z"/>
</svg>
