<svg class="svg-icon" viewBox="0 0 19 16" xmlns="http://www.w3.org/2000/svg">
<path d="M14.4793 5.71298C14.4439 3.10818 12.3244 1 9.72424 1C8.56761 1 7.45328 1.42285 6.58661 2.19067C5.81312 2.8759 5.28399 3.7916 5.07445 4.79697C5.05914 4.79681 5.04397 4.79667 5.02883 4.79667C2.80738 4.79671 1 6.61307 1 8.84565C1 11.0782 2.80738 12.8946 5.02886 12.8946H6.50752C6.70771 12.8946 6.87007 12.7315 6.87007 12.5302C6.87007 12.329 6.70771 12.1659 6.50752 12.1659H5.02886C3.20714 12.1659 1.72509 10.6764 1.72509 8.84565C1.72509 7.01487 3.20714 5.52542 5.02886 5.52542C5.12591 5.52542 5.22851 5.53065 5.34256 5.54143C5.53587 5.55945 5.70942 5.42144 5.73575 5.2279C5.86631 4.26621 6.33875 3.3817 7.0661 2.73732C7.80025 2.08689 8.74425 1.72871 9.7242 1.72871C11.9467 1.72871 13.7547 3.54581 13.7547 5.77932C13.7547 5.85974 13.7398 6.06769 13.7398 6.06769C13.7322 6.17487 13.7722 6.27995 13.8489 6.3548C13.9256 6.42964 14.0311 6.46655 14.1377 6.45591C14.2341 6.44613 14.3314 6.44122 14.4268 6.44122C15.9972 6.44122 17.2749 7.72526 17.2749 9.30354C17.2749 10.8818 15.9973 12.1658 14.4268 12.1658H12.8031C12.6029 12.1658 12.4406 12.3289 12.4406 12.5302C12.4406 12.7314 12.6029 12.8945 12.8031 12.8945H14.4268C16.3971 12.8945 18 11.2836 18 9.30354C18 7.34118 16.4255 5.74135 14.4793 5.71298Z"/>
<path d="M9.72512 2.71289C8.20913 2.71289 6.91142 3.85147 6.70649 5.36127C6.67943 5.56065 6.81842 5.74375 7.01671 5.77154C7.22815 5.80118 7.40014 5.64244 7.42494 5.45978C7.58106 4.30926 8.56991 3.44163 9.72512 3.44163C9.92536 3.44163 10.0877 3.27853 10.0877 3.07728C10.0877 2.876 9.92533 2.71289 9.72512 2.71289Z"/>
<path d="M11.4016 13.1475C11.2683 12.9975 11.0391 12.9845 10.8897 13.1186L10.0176 13.9015V9.41904C10.0176 9.21779 9.85527 9.05469 9.65509 9.05469C9.45484 9.05469 9.29254 9.21779 9.29254 9.41904V13.9015L8.4205 13.1185C8.27122 12.9845 8.04195 12.9975 7.90861 13.1475C7.7752 13.2976 7.78808 13.5279 7.93743 13.662L9.25615 14.846C9.36987 14.9482 9.51245 14.9992 9.65505 14.9992C9.79763 14.9992 9.94024 14.9481 10.0539 14.846L11.3727 13.662C11.5221 13.528 11.535 13.2976 11.4016 13.1475Z"/>
<path d="M14.4793 5.71298L14.3294 5.71503L14.3313 5.86084L14.4772 5.86297L14.4793 5.71298ZM6.58661 2.19067L6.68608 2.30295L6.68608 2.30294L6.58661 2.19067ZM5.07445 4.79697L5.07281 4.94697L5.19613 4.94831L5.22129 4.82758L5.07445 4.79697ZM5.02883 4.79667L5.02883 4.64667L5.02882 4.64667L5.02883 4.79667ZM5.34256 5.54143L5.32845 5.69077L5.32864 5.69079L5.34256 5.54143ZM5.73575 5.2279L5.88438 5.24812L5.88439 5.24808L5.73575 5.2279ZM7.0661 2.73732L7.16557 2.84959L7.16557 2.84959L7.0661 2.73732ZM13.7398 6.06769L13.5902 6.05697L13.5902 6.05717L13.7398 6.06769ZM13.8489 6.3548L13.9537 6.24747L13.9536 6.2474L13.8489 6.3548ZM14.1377 6.45591L14.1526 6.60516L14.1528 6.60514L14.1377 6.45591ZM18 9.30354L18.15 9.30354L18.15 9.30353L18 9.30354ZM6.70649 5.36127L6.55786 5.3411L6.55786 5.3411L6.70649 5.36127ZM7.01671 5.77154L6.99589 5.92009L6.99589 5.92009L7.01671 5.77154ZM7.42494 5.45978L7.57358 5.47996L7.57358 5.47995L7.42494 5.45978ZM11.4016 13.1475L11.5138 13.0479L11.5137 13.0479L11.4016 13.1475ZM10.8897 13.1186L10.9899 13.2302L10.9899 13.2302L10.8897 13.1186ZM10.0176 13.9015H9.86763V14.2378L10.1178 14.0131L10.0176 13.9015ZM9.29254 13.9015L9.19233 14.0131L9.44254 14.2377V13.9015H9.29254ZM8.4205 13.1185L8.32027 13.2301L8.32029 13.2302L8.4205 13.1185ZM7.90861 13.1475L7.7965 13.0478L7.79649 13.0479L7.90861 13.1475ZM7.93743 13.662L7.83721 13.7736L7.83721 13.7736L7.93743 13.662ZM9.25615 14.846L9.35638 14.7344L9.35636 14.7344L9.25615 14.846ZM10.0539 14.846L9.95371 14.7344L9.95371 14.7344L10.0539 14.846ZM11.3727 13.662L11.2725 13.5504L11.2725 13.5504L11.3727 13.662ZM14.6293 5.71094C14.5927 3.02491 12.4073 0.85 9.72424 0.85V1.15C12.2415 1.15 14.295 3.19144 14.3294 5.71503L14.6293 5.71094ZM9.72424 0.85C8.53092 0.85 7.38121 1.2863 6.48714 2.07839L6.68608 2.30294C7.52535 1.5594 8.6043 1.15 9.72424 1.15V0.85ZM6.48715 2.07839C5.68942 2.78509 5.14372 3.72946 4.9276 4.76637L5.22129 4.82758C5.42426 3.85374 5.93682 2.96671 6.68608 2.30295L6.48715 2.07839ZM5.07608 4.64698C5.06062 4.64681 5.0448 4.64667 5.02883 4.64667V4.94667C5.04314 4.94667 5.05766 4.9468 5.07281 4.94697L5.07608 4.64698ZM5.02882 4.64667C2.72383 4.64671 0.85 6.53093 0.85 8.84565H1.15C1.15 6.69521 2.89092 4.94671 5.02883 4.94667L5.02882 4.64667ZM0.85 8.84565C0.85 11.1604 2.72383 13.0446 5.02886 13.0446V12.7446C2.89092 12.7446 1.15 10.9961 1.15 8.84565H0.85ZM5.02886 13.0446H6.50752V12.7446H5.02886V13.0446ZM6.50752 13.0446C6.79123 13.0446 7.02007 12.8136 7.02007 12.5302H6.72007C6.72007 12.6493 6.62418 12.7446 6.50752 12.7446V13.0446ZM7.02007 12.5302C7.02007 12.2468 6.79123 12.0159 6.50752 12.0159V12.3159C6.62418 12.3159 6.72007 12.4111 6.72007 12.5302H7.02007ZM6.50752 12.0159H5.02886V12.3159H6.50752V12.0159ZM5.02886 12.0159C3.29069 12.0159 1.87509 10.5943 1.87509 8.84565H1.57509C1.57509 10.7586 3.1236 12.3159 5.02886 12.3159V12.0159ZM1.87509 8.84565C1.87509 7.09701 3.29069 5.67542 5.02886 5.67542V5.37542C3.1236 5.37542 1.57509 6.93273 1.57509 8.84565H1.87509ZM5.02886 5.67542C5.12045 5.67542 5.21828 5.68036 5.32845 5.69077L5.35667 5.3921C5.23874 5.38095 5.13137 5.37542 5.02886 5.37542V5.67542ZM5.32864 5.69079C5.60237 5.7163 5.84727 5.52091 5.88438 5.24812L5.58712 5.20768C5.57157 5.32197 5.46937 5.4026 5.35648 5.39208L5.32864 5.69079ZM5.88439 5.24808C6.01011 4.32203 6.46508 3.47019 7.16557 2.84959L6.96663 2.62504C6.21243 3.29322 5.72251 4.21039 5.58712 5.20772L5.88439 5.24808ZM7.16557 2.84959C7.87231 2.22345 8.78094 1.87871 9.7242 1.87871V1.57871C8.70756 1.57871 7.72819 1.95033 6.96663 2.62504L7.16557 2.84959ZM9.7242 1.87871C11.8631 1.87871 13.6047 3.62795 13.6047 5.77932H13.9047C13.9047 3.46367 12.0302 1.57871 9.7242 1.57871V1.87871ZM13.6047 5.77932C13.6047 5.81424 13.6013 5.88178 13.5975 5.94467C13.5957 5.97523 13.5938 6.00336 13.5925 6.02386C13.5918 6.03411 13.5912 6.04242 13.5908 6.04816C13.5906 6.05103 13.5904 6.05325 13.5903 6.05475C13.5903 6.0555 13.5902 6.05606 13.5902 6.05643C13.5902 6.05662 13.5902 6.05676 13.5902 6.05685C13.5902 6.05689 13.5902 6.05693 13.5902 6.05695C13.5902 6.05696 13.5902 6.05696 13.5902 6.05697C13.5902 6.05697 13.5902 6.05697 13.5902 6.05697C13.5902 6.05697 13.5902 6.05697 13.7398 6.06769C13.8894 6.07842 13.8894 6.07842 13.8894 6.07841C13.8894 6.07841 13.8894 6.07841 13.8894 6.0784C13.8894 6.07839 13.8894 6.07838 13.8894 6.07836C13.8894 6.07833 13.8894 6.07829 13.8894 6.07823C13.8894 6.07812 13.8894 6.07796 13.8894 6.07775C13.8895 6.07733 13.8895 6.07672 13.8896 6.07593C13.8897 6.07434 13.8899 6.07201 13.8901 6.06904C13.8905 6.06309 13.8911 6.05453 13.8918 6.04402C13.8932 6.02302 13.8951 5.99414 13.897 5.96266C13.9006 5.90147 13.9047 5.82481 13.9047 5.77932H13.6047ZM13.5902 6.05717C13.5795 6.20819 13.6357 6.35645 13.7442 6.4622L13.9536 6.2474C13.9086 6.20346 13.885 6.14156 13.8894 6.07821L13.5902 6.05717ZM13.7441 6.46213C13.8526 6.568 14.002 6.62021 14.1526 6.60516L14.1228 6.30665C14.0603 6.31289 13.9986 6.29129 13.9537 6.24747L13.7441 6.46213ZM14.1528 6.60514C14.2442 6.59587 14.3365 6.59122 14.4268 6.59122V6.29122C14.3263 6.29122 14.224 6.29639 14.1226 6.30667L14.1528 6.60514ZM14.4268 6.59122C15.9137 6.59122 17.1249 7.80739 17.1249 9.30354H17.4249C17.4249 7.64312 16.0808 6.29122 14.4268 6.29122V6.59122ZM17.1249 9.30354C17.1249 10.7996 15.9137 12.0158 14.4268 12.0158V12.3158C16.0808 12.3158 17.4249 10.9639 17.4249 9.30354H17.1249ZM14.4268 12.0158H12.8031V12.3158H14.4268V12.0158ZM12.8031 12.0158C12.5194 12.0158 12.2906 12.2468 12.2906 12.5302H12.5906C12.5906 12.4111 12.6865 12.3158 12.8031 12.3158V12.0158ZM12.2906 12.5302C12.2906 12.8136 12.5194 13.0445 12.8031 13.0445V12.7445C12.6865 12.7445 12.5906 12.6493 12.5906 12.5302H12.2906ZM12.8031 13.0445H14.4268V12.7445H12.8031V13.0445ZM14.4268 13.0445C16.4806 13.0445 18.15 11.3658 18.15 9.30354H17.85C17.85 11.2015 16.3135 12.7445 14.4268 12.7445V13.0445ZM18.15 9.30353C18.15 7.25975 16.5102 5.59256 14.4815 5.563L14.4772 5.86297C16.3408 5.89013 17.85 7.42262 17.85 9.30354L18.15 9.30353ZM9.72512 2.56289C8.1335 2.56289 6.7728 3.75751 6.55786 5.3411L6.85513 5.38145C7.05004 3.94542 8.28476 2.86289 9.72512 2.86289V2.56289ZM6.55786 5.3411C6.5197 5.62223 6.71572 5.88082 6.99589 5.92009L7.03753 5.623C6.92112 5.60668 6.83916 5.49908 6.85513 5.38145L6.55786 5.3411ZM6.99589 5.92009C7.29874 5.96254 7.53887 5.73553 7.57358 5.47996L7.2763 5.4396C7.2614 5.54935 7.15755 5.63982 7.03753 5.623L6.99589 5.92009ZM7.57358 5.47995C7.71969 4.40321 8.64555 3.59163 9.72512 3.59163V3.29163C8.49428 3.29163 7.44244 4.21531 7.2763 5.43961L7.57358 5.47995ZM9.72512 3.59163C10.0089 3.59163 10.2377 3.36066 10.2377 3.07728H9.93766C9.93766 3.19639 9.84182 3.29163 9.72512 3.29163V3.59163ZM10.2377 3.07728C10.2377 2.79386 10.0089 2.56289 9.72512 2.56289V2.86289C9.84178 2.86289 9.93766 2.95813 9.93766 3.07728H10.2377ZM11.5137 13.0479C11.3252 12.8358 11.0008 12.8172 10.7895 13.007L10.9899 13.2302C11.0773 13.1517 11.2113 13.1592 11.2895 13.2472L11.5137 13.0479ZM10.7895 13.007L9.91742 13.7899L10.1178 14.0131L10.9899 13.2302L10.7895 13.007ZM10.1676 13.9015V9.41904H9.86763V13.9015H10.1676ZM10.1676 9.41904C10.1676 9.13564 9.9388 8.90469 9.65509 8.90469V9.20469C9.77174 9.20469 9.86763 9.29995 9.86763 9.41904H10.1676ZM9.65509 8.90469C9.37129 8.90469 9.14254 9.13566 9.14254 9.41904H9.44254C9.44254 9.29993 9.53839 9.20469 9.65509 9.20469V8.90469ZM9.14254 9.41904V13.9015H9.44254V9.41904H9.14254ZM9.39275 13.7899L8.52071 13.0069L8.32029 13.2302L9.19233 14.0131L9.39275 13.7899ZM8.52073 13.0069C8.30949 12.8172 7.98499 12.8358 7.7965 13.0478L8.02071 13.2472C8.0989 13.1592 8.23294 13.1517 8.32027 13.2301L8.52073 13.0069ZM7.79649 13.0479C7.6083 13.2596 7.62638 13.5843 7.83721 13.7736L8.03765 13.5504C7.94978 13.4715 7.94209 13.3356 8.02072 13.2472L7.79649 13.0479ZM7.83721 13.7736L9.15594 14.9576L9.35636 14.7344L8.03764 13.5504L7.83721 13.7736ZM9.15592 14.9576C9.29801 15.0852 9.47659 15.1492 9.65505 15.1492V14.8492C9.54831 14.8492 9.44174 14.8111 9.35638 14.7344L9.15592 14.9576ZM9.65505 15.1492C9.8335 15.1492 10.0121 15.0852 10.1541 14.9577L9.95371 14.7344C9.86838 14.8111 9.76176 14.8492 9.65505 14.8492V15.1492ZM10.1541 14.9577L11.4729 13.7736L11.2725 13.5504L9.95371 14.7344L10.1541 14.9577ZM11.4729 13.7737C11.6838 13.5844 11.7019 13.2596 11.5138 13.0479L11.2895 13.2472C11.3681 13.3356 11.3604 13.4715 11.2725 13.5504L11.4729 13.7737Z"/>
</svg>
