<svg width="9" height="33" viewBox="0 0 9 33" fill="none" xmlns="http://www.w3.org/2000/svg">
<path d="M5.5 1C5.5 0.447715 5.05228 0 4.5 0C3.94772 0 3.5 0.447715 3.5 1H5.5ZM4.5 31.5L3.79289 32.2071C4.18342 32.5976 4.81658 32.5976 5.20711 32.2071L4.5 31.5ZM8.70711 28.7071C9.09763 28.3166 9.09763 27.6834 8.70711 27.2929C8.31658 26.9024 7.68342 26.9024 7.29289 27.2929L8.70711 28.7071ZM1.70711 27.2929C1.31658 26.9024 0.683417 26.9024 0.292893 27.2929C-0.0976311 27.6834 -0.0976311 28.3166 0.292893 28.7071L1.70711 27.2929ZM3.5 1V31.5H5.5V1H3.5ZM5.20711 32.2071L8.70711 28.7071L7.29289 27.2929L3.79289 30.7929L5.20711 32.2071ZM5.20711 30.7929L1.70711 27.2929L0.292893 28.7071L3.79289 32.2071L5.20711 30.7929Z" fill="#0093FF" fill-opacity="0.3"/>
</svg>
