<svg class="svg-icon" viewBox="0 0 28 30" xmlns="http://www.w3.org/2000/svg">
<path fill-rule="evenodd" clip-rule="evenodd" d="M27.9989 17.7698C27.9986 21.5868 27.9987 25.4038 27.9985 29.2208C27.9984 29.8398 27.9634 29.8741 27.3424 29.8744C25.8359 29.8752 24.3294 29.8759 22.8228 29.8765C22.5379 29.8766 22.4939 29.8402 22.4678 29.5561C22.453 29.3946 22.4455 29.2319 22.4455 29.0697C22.4427 21.9624 22.4411 14.8551 22.4398 7.74776C22.4398 7.48736 22.4361 7.22862 22.3584 6.97534C22.1985 6.45375 21.8581 6.1716 21.3071 6.15838C20.3235 6.13478 19.3394 6.11194 18.3557 6.15574C17.5701 6.1907 16.8427 6.91519 16.7853 7.71241C16.776 7.84198 16.7751 7.97233 16.775 8.10231C16.774 11.126 16.7736 14.1497 16.7732 17.1734C16.7732 17.5469 16.6728 17.6509 16.2927 17.6512C14.806 17.6526 13.3193 17.6515 11.8326 17.6512C11.8128 17.6512 11.7929 17.6512 11.7732 17.6504C11.3576 17.6334 11.2979 17.575 11.2977 17.16C11.2964 14.0843 11.2957 11.0086 11.2975 7.93286C11.2976 7.69679 11.2695 7.467 11.2093 7.23918C11.0642 6.69066 10.6962 6.39361 10.1359 6.31409C9.9988 6.29463 9.86044 6.27817 9.72222 6.27361C8.79799 6.24313 7.87369 6.23987 6.94927 6.2705C6.19952 6.29536 5.64034 6.80571 5.55823 7.53989C5.5372 7.72795 5.52974 7.91541 5.52977 8.10406C5.53029 10.9717 5.51465 13.8394 5.53574 16.7069C5.54913 18.5274 5.54002 20.3479 5.55079 22.1683C5.55241 22.4419 5.56696 22.7128 5.64839 22.9781C5.75215 23.3163 5.97167 23.5385 6.30991 23.6479C6.51746 23.715 6.72963 23.7678 6.9494 23.7685C8.60123 23.7743 10.2531 23.7766 11.9049 23.7825C13.312 23.7875 14.7192 23.7952 16.1263 23.8029C16.4529 23.8046 16.5079 23.8581 16.508 24.1774C16.5088 25.9136 16.5089 27.6498 16.5076 29.386C16.5073 29.791 16.4219 29.8724 16.0029 29.8735C15.3421 29.8752 14.6813 29.8694 14.0206 29.8755C12.8382 29.8864 11.6556 29.8926 10.4736 29.922C9.48329 29.9466 8.49326 29.9782 7.50277 29.9984C5.66769 30.0358 4.07872 29.4141 2.66201 28.3018C1.71126 27.5553 0.937201 26.675 0.478578 25.5518C0.167432 24.7898 0.000868073 23.997 0.000734573 23.176C-6.54271e-05 18.091 -0.00296093 13.0059 0.0127166 7.92092C0.0150786 7.1569 -0.0147714 6.38791 0.128496 5.62705C0.385295 4.26337 1.03136 3.09968 1.96396 2.07589C2.2335 1.78 2.51861 1.50219 2.82772 1.24582C3.45157 0.728405 4.20269 0.528119 4.97646 0.35526C6.28726 0.062424 7.61227 -0.038506 8.95047 0.0144148C9.82096 0.0488329 10.6879 0.13336 11.5494 0.267021C12.2833 0.380905 12.8781 0.720475 13.316 1.31434C13.5353 1.61175 13.8412 1.73375 14.1994 1.76453C14.5862 1.79779 14.877 1.67271 15.1159 1.35007C15.6649 0.608747 16.4646 0.286142 17.3564 0.164479C18.7349 -0.0236027 20.1183 -0.0460045 21.5055 0.074909C22.3161 0.145564 23.1176 0.266084 23.9079 0.451709C25.2409 0.764866 26.2073 1.56134 26.9397 2.67882C27.6879 3.82044 28.0008 5.07184 28 6.41623C27.9976 10.2008 27.9992 13.9853 27.9989 17.7698Z"/>
</svg>
