<?xml version="1.0" encoding="UTF-8"?>
<svg width="241px" height="66px" viewBox="0 0 241 66" version="1.1" xmlns="http://www.w3.org/2000/svg" xmlns:xlink="http://www.w3.org/1999/xlink">
    <!-- Generator: Sketch 52.2 (67145) - http://www.bohemiancoding.com/sketch -->
    <title>Group 5</title>
    <desc>Created with Sketch.</desc>
    <defs>
        <polygon id="path-1" points="0 0 82.9520834 0 82.9520834 26.5446388 0 26.5446388"></polygon>
    </defs>
    <g id="Page-1" stroke="none" stroke-width="1" fill="none" fill-rule="evenodd">
        <g id="Group-5">
            <g id="Group-7">
                <g id="Page-1" transform="translate(160.000000, 39.770782)">
                    <g id="Group-3">
                        <mask id="mask-2" fill="white">
                            <use xlink:href="#path-1"></use>
                        </mask>
                        <g id="Clip-2"></g>
                    </g>
                    <path d="M5.5577907,6.8850243 C7.44909858,5.82323742 9.22427352,5.75687574 11.098991,6.52003506 C11.5967036,6.7191201 12.3266821,6.68593926 12.8243947,6.45367338 C14.2013995,5.83982784 15.5784044,5.92277994 16.9719997,6.23799792 C18.1167386,6.48685422 18.8301267,7.61500278 18.8633075,9.14132142 C18.9130788,11.6796557 18.9130788,14.2179899 18.9296692,16.7729146 C18.9296692,17.9840153 18.9130788,19.2117064 18.9296692,20.422807 C18.9296692,20.9702909 18.7471746,21.2357376 18.1499195,21.1859663 C17.5692548,21.1361951 16.9885901,21.1361951 16.4079254,21.1859663 C15.6945373,21.252328 15.4290906,21.0034717 15.4290906,20.2569028 C15.4622714,17.6853877 15.445681,15.1138726 15.4290906,12.5423575 C15.4290906,11.8787407 15.3959098,11.2151239 15.3129577,10.5680975 C15.1968247,9.75516696 14.7488834,9.42335856 13.9525432,9.43994898 C13.1064318,9.47312982 12.6253096,9.85470948 12.5423575,10.6510496 C12.4594054,11.4473898 12.4096342,12.24373 12.4096342,13.0566605 C12.3930437,15.4622714 12.3930437,17.8678823 12.4262246,20.2734932 C12.442815,21.0034717 12.1939587,21.2689184 11.4639802,21.2025568 C10.9164964,21.1527855 10.3524221,21.1527855 9.80493822,21.2025568 C9.14132142,21.2689184 8.94223638,20.9868813 8.94223638,20.3398549 C8.97541722,17.9674249 8.9588268,15.5949948 8.94223638,13.2059743 C8.94223638,12.3764533 8.8758747,11.5469323 8.77633218,10.7340017 C8.66019924,9.77175738 8.29521,9.43994898 7.48227942,9.43994898 C6.636168,9.43994898 6.03891288,9.92107116 5.93937036,10.7505922 C5.85641826,11.3810281 5.87300868,12.0114641 5.87300868,12.6584905 C5.87300868,15.1470535 5.87300868,17.6356165 5.8895991,20.1241795 C5.8895991,21.1196047 5.806647,21.2025568 4.8112218,21.2025568 C4.28032836,21.2025568 3.74943492,21.1527855 3.2351319,21.2025568 C2.4056109,21.2855089 2.17334502,20.9039292 2.18993544,20.1407699 C2.25629712,17.6687973 2.3226588,15.1802343 2.33924922,12.7082617 C2.33924922,11.0658101 2.2397067,9.40676814 2.20652586,7.76431656 C2.18993544,6.43708296 2.22311628,6.40390212 3.51716904,6.35413086 C3.76602534,6.33754044 4.01488164,6.35413086 4.26373794,6.28776918 C4.86099306,6.12186498 5.34211524,6.17163624 5.5577907,6.8850243 Z M44.777527,6.70251309 C45.1756971,6.55319931 45.4411438,6.43706637 45.7231809,6.33752385 C46.9840528,5.83981125 48.2781056,5.85640167 49.5389775,6.28775259 C50.8164399,6.73569393 51.2312004,7.79748081 51.2477908,9.04176231 C51.2809716,12.3598463 51.2809716,15.6779303 51.2809716,18.9960143 C51.2809716,19.4937269 51.297562,19.9914395 51.3141525,20.4891521 C51.3307429,21.0034551 51.098477,21.235721 50.5509931,21.2025402 C49.9371476,21.1693593 49.3233021,21.1361785 48.7260469,21.2025402 C47.9960685,21.2689018 47.8301643,20.9536839 47.8301643,20.2900671 C47.8467547,17.3535627 47.8135738,14.4336488 47.7969834,11.4971445 C47.7969834,11.281469 47.7969834,11.0492031 47.780393,10.8335277 C47.6808505,9.90446415 47.2494996,9.45652281 46.4531594,9.43993239 C45.5572767,9.42334197 44.9268408,9.88787373 44.8272982,10.7505756 C44.7443461,11.4307828 44.7277557,12.1275804 44.7277557,12.8243781 C44.7111653,15.3129411 44.7111653,17.8015041 44.7277557,20.2900671 C44.7277557,20.9536839 44.5452611,21.2689018 43.831873,21.2025402 C43.31757,21.1527689 42.7866766,21.1859497 42.2557831,21.1859497 C41.1939963,21.2025402 41.1774058,21.1859497 41.1774058,20.1573437 C41.1774058,15.8438345 41.1939963,11.5303253 41.1939963,7.21681611 C41.1939963,5.44164117 41.2105867,3.68305665 41.1774058,1.90788171 C41.1608154,1.17790323 41.4428526,0.91245651 42.172831,0.97881819 C42.7534957,1.02858945 43.3341604,1.02858945 43.9148251,0.97881819 C44.5452611,0.92904693 44.7609366,1.21108407 44.7443461,1.79174877 C44.7277557,3.08580153 44.7443461,4.39644471 44.7443461,5.69049747 C44.7277557,5.98912503 44.7609366,6.28775259 44.777527,6.70251309 Z M26.6442311,15.4788287 C26.6276407,13.8529675 25.7981197,13.3884358 24.587019,14.0520526 C23.9234022,14.4170418 23.6081843,14.9977065 23.5418226,15.727685 C23.5086417,16.1424455 23.5252322,16.557206 23.5418226,16.9719665 C23.6081843,18.0337534 23.9565831,18.415333 24.8358753,18.4319234 C25.847891,18.4485139 26.4119652,18.0005725 26.5280982,17.0217377 C26.6110503,16.4244826 26.6276407,15.8272275 26.6442311,15.4788287 Z M20.870765,6.7024965 C22.0155039,6.47023062 23.0607004,6.15501264 24.1390777,6.07206054 C25.2506358,5.98910844 26.4119652,6.05547012 27.5235234,6.18819348 C29.049842,6.38727852 29.9457247,7.56519834 29.9789055,9.34037328 C30.0120864,11.5137183 29.9789055,13.7036537 30.0120864,15.8769988 C30.0286768,16.7231102 29.8627726,17.6355833 30.8084265,18.2328384 C31.024102,18.3655618 30.9411499,18.9959977 30.9411499,19.4107582 C30.9245595,21.2854757 30.8913786,21.4513799 29.0000708,21.1361619 C27.5401138,20.8873056 26.1962898,21.1029811 24.7861041,21.2854757 C23.9068118,21.4016086 22.927977,21.1859332 22.0486848,20.903896 C21.1030308,20.6052685 20.4560045,19.8255187 20.3730524,18.8135031 C20.2735098,17.3701366 20.1407865,15.8769988 20.3398715,14.4502226 C20.6384991,12.3432393 22.0486848,11.3478141 24.5538382,11.1155482 C24.9354179,11.0823674 25.3335879,11.1155482 25.7151676,11.065777 C25.9640239,11.0325961 26.362194,10.949644 26.4119652,10.8169207 C26.4783269,10.5348835 26.4617365,10.1035326 26.2792419,9.92103798 C26.046976,9.67218168 25.6322155,9.4399158 25.3004071,9.4399158 C24.4874765,9.47309664 23.6579555,9.58922958 22.8616154,9.7717242 C22.3639028,9.88785714 22.0320944,9.80490504 21.8495997,9.3569637 C21.5509722,8.57721396 21.2523446,7.74769296 20.870765,6.7024965 Z M33.3799582,14.0355119 C33.3799582,12.7580496 33.3633678,11.4971777 33.3799582,10.2197153 C33.3965486,9.57268893 33.1642828,9.19110927 32.4674851,9.29065179 C31.7872779,9.39019431 31.555012,9.07497633 31.6545545,8.44454037 C31.6877354,8.26204575 31.671145,8.06296071 31.671145,7.86387567 C31.6877354,7.39934391 31.5384216,6.81867921 31.7540971,6.50346123 C31.9531821,6.22142409 32.5836181,6.30437619 32.9983786,6.13847199 C33.2472349,6.03892947 33.4629103,5.79007317 33.6288145,5.55780729 C33.7449475,5.39190309 33.728357,5.12645637 33.7615379,4.91078091 C34.1265271,2.91993051 34.1265271,2.95311135 36.1173775,2.58812211 C36.7312231,2.47198917 36.847356,2.72084547 36.847356,3.23514849 C36.847356,3.89876529 36.8639464,4.56238209 36.847356,5.22599889 C36.8141752,5.90620611 37.0132602,6.30437619 37.7764195,6.20483367 C38.0252758,6.17165283 38.2741321,6.22142409 38.5229884,6.23801451 C39.1202435,6.27119535 39.4354615,6.56982291 39.4188711,7.18366845 L39.4188711,7.68138105 C39.4188711,9.20769969 39.5847753,9.37360389 37.875962,9.30724221 C37.1293931,9.27406137 36.8307656,9.62246019 36.8307656,10.3524387 C36.847356,12.3101082 36.8141752,14.2677778 36.847356,16.2420378 C36.8805368,17.6688139 37.1128027,17.9010798 38.5561693,17.9674415 C39.2363765,18.0006223 39.535004,18.2494786 39.4188711,18.9296858 C39.3856903,19.1453613 39.3856903,19.3776272 39.3856903,19.5933026 C39.3690998,21.2025734 39.3690998,21.2025734 37.7100578,21.2025734 C34.2094792,21.2025734 33.4131391,20.439414 33.3467774,16.9388354 C33.3633678,15.9765911 33.3799582,15.0143467 33.3799582,14.0355119 Z" id="Combined-Shape" fill="#214694"></path>
                    <path d="M60.2895697,13.7866556 C60.223208,12.8078208 60.2066176,11.7294435 60.0573038,10.6676567 C59.9245804,9.78836439 59.3770966,9.43996557 58.5475756,9.47314641 C57.7014642,9.50632725 57.2535228,9.88790691 57.0876186,10.7506088 C56.6894485,12.77464 56.6728581,14.8152617 57.0876186,16.8392929 C57.2701132,17.7849468 57.6682833,18.1499361 58.5973468,18.1499361 C59.5098199,18.1499361 59.9743517,17.8347181 60.1236655,16.8558833 C60.223208,15.8770485 60.223208,14.8650329 60.2895697,13.7866556 Z M56.7889911,20.754632 C56.7889911,21.9657327 56.7724006,23.0607004 56.7889911,24.1556681 C56.8221719,25.2506358 56.8221719,25.2672263 55.7106138,25.2506358 C55.4285766,25.2506358 55.1631299,25.217455 54.8810928,25.2340454 C52.9234232,25.2838167 53.2386412,25.41654 53.2386412,23.558413 C53.2220508,18.1665265 53.2552316,12.77464 53.2220508,7.38275349 C53.2220508,6.55323249 53.4377262,6.20483367 54.2838376,6.28778577 C54.5824652,6.32096661 54.8976832,6.18824325 55.1963107,6.22142409 C55.6608425,6.27119535 56.1087838,6.37073787 56.5567252,6.56982291 C58.0000917,5.98915821 59.4766391,5.74030191 61.052729,6.12188157 C62.2638297,6.42050913 63.0933507,7.11730677 63.3753878,8.34499785 C63.5744728,9.25747095 63.7901483,10.1865345 63.8067387,11.115598 C63.8399196,13.1894005 63.85651,15.263203 63.6906058,17.3204151 C63.4085686,20.870765 60.6213781,22.3970836 57.3198845,20.9205362 C57.220342,20.870765 57.1207995,20.8541745 56.7889911,20.754632 Z M75.8679575,9.48975342 C76.2163563,8.643642 76.5647551,7.814121 76.8799731,6.96800958 C77.112239,6.37075446 77.4772282,6.08871732 78.140845,6.155079 C78.7215097,6.20485026 79.3021744,6.18825984 79.8828391,6.155079 C80.5630463,6.12189816 80.629408,6.42052572 80.3805517,6.96800958 C79.5344403,8.8924983 78.7381001,10.8335774 77.8753983,12.7414757 C77.5601803,13.4382734 77.5933612,14.0023477 77.9085791,14.6991453 C78.9040043,16.7895382 79.8330679,18.8965216 80.8948547,21.2357708 C80.0653337,21.2357708 79.3851265,21.1528187 78.7381001,21.2523612 C77.3942761,21.4680367 76.6311168,20.9703241 76.2495371,19.6430905 C76.0338617,18.8799311 75.5693299,18.1831335 75.2209311,17.453155 C75.1213886,17.4697454 75.0384365,17.4863359 74.938894,17.4863359 C74.5407239,18.4485802 74.1259634,19.3942342 73.7775646,20.3730689 C73.5452987,21.0035049 73.2134903,21.3021325 72.5001022,21.2523612 C71.7203525,21.1859995 70.9240123,21.2357708 70.0115392,21.2357708 C70.1276722,20.887372 70.1940338,20.6551061 70.2935764,20.4394306 C71.1230974,18.5149419 71.9526184,16.5904532 72.7987298,14.6659645 C73.2466711,13.6871297 73.2300807,12.791247 72.7489585,11.8124122 C71.9692088,10.2363223 71.2724111,8.61046116 70.5424327,7.00119042 C70.4594806,6.80210538 70.4097093,6.60302034 70.2935764,6.2380311 C71.5544483,6.2380311 72.7323681,6.18825984 73.8771071,6.27121194 C74.109373,6.28780236 74.3416388,6.76892454 74.4909526,7.08414252 C74.8891227,7.8970731 75.2375215,8.7265941 75.6025108,9.53952468 C75.6854629,9.52293426 75.7850054,9.50634384 75.8679575,9.48975342 Z M69.0327542,13.6041444 C69.0327542,15.8604415 69.0161638,18.1333291 69.0493446,20.3896262 C69.0493446,21.0366526 68.8502596,21.2855089 68.1866428,21.2357376 C67.523026,21.1859663 66.8594092,21.2025568 66.1957924,21.2357376 C65.6980798,21.2689184 65.4989948,21.0864238 65.4989948,20.5721208 C65.5155852,15.959984 65.4989948,11.3478473 65.4989948,6.75230094 C65.4989948,6.3043596 65.6814894,6.10527456 66.1460211,6.12186498 C66.8594092,6.1384554 67.5893877,6.15504582 68.3027757,6.12186498 C68.9000309,6.08868414 69.0493446,6.37072128 69.0493446,6.91820514 C69.0161638,9.124731 69.0327542,11.3644377 69.0327542,13.6041444 Z M68.9995402,3.03601368 L68.9995402,3.86553468 C69.0161306,4.41301854 68.7506839,4.69505568 68.2032,4.7116461 L66.2953017,4.7116461 C65.7478179,4.7116461 65.4989616,4.41301854 65.4989616,3.86553468 C65.4989616,3.64985922 65.4657807,3.41759334 65.4989616,3.20191788 C65.5985041,2.60466276 65.5985041,1.54287588 65.8473604,1.4765142 C66.7266526,1.26083874 67.688897,1.34379084 68.6013701,1.3935621 C68.7506839,1.3935621 68.9331785,1.8083226 68.9829498,2.04058848 C69.0493114,2.35580646 68.9995402,2.70420528 68.9995402,3.03601368 Z" id="Combined-Shape" fill="#1A2745"></path>
                </g>
                <path d="M142.481851,50.0186557 C143.84248,50.0186557 144.899156,50.4832152 145.651911,51.4123482 C146.404666,52.3414812 146.781038,53.6564208 146.781038,55.3572066 C146.781038,57.0579924 146.401517,58.3792311 145.642462,59.3209625 C144.883408,60.2626939 143.829881,60.7335525 142.481851,60.7335525 C141.807836,60.7335525 141.192098,60.6091451 140.634618,60.3603264 C140.077138,60.1115078 139.609429,59.7288367 139.231477,59.2123018 L139.118092,59.2123018 L138.787385,60.5445773 L137.662982,60.5445773 L137.662982,45.8423026 L139.231477,45.8423026 L139.231477,49.4139349 C139.231477,50.2139341 139.20628,50.9320329 139.155887,51.5682528 L139.231477,51.5682528 C139.962185,50.5351829 141.045632,50.0186557 142.481851,50.0186557 Z M142.255081,51.3320337 C141.184216,51.3320337 140.412575,51.6391154 139.940134,52.2532881 C139.467694,52.8674607 139.231477,53.9020899 139.231477,55.3572066 C139.231477,56.8123233 139.473993,57.8532516 139.959032,58.4800226 C140.44407,59.1067937 141.222011,59.4201745 142.292876,59.4201745 C143.256655,59.4201745 143.974753,59.068999 144.447194,58.3666375 C144.919634,57.664276 145.155851,56.6548432 145.155851,55.3383091 C145.155851,53.9902789 144.919634,52.9855705 144.447194,52.3241538 C143.974753,51.6627371 143.244056,51.3320337 142.255081,51.3320337 Z M147.49617,50.1887334 L149.178049,50.1887334 L151.445752,56.0942101 C151.94339,57.4422403 152.252046,58.4154531 152.371731,59.0138777 L152.447321,59.0138777 C152.529211,58.6926182 152.700862,58.1430207 152.962279,57.3650687 C153.223696,56.5871166 154.0788,54.1950288 155.527618,50.1887334 L157.209498,50.1887334 L152.75913,61.9807892 C152.318186,63.1461424 151.803233,63.9729009 151.214258,64.4610894 C150.625282,64.9492779 149.902459,65.1933685 149.045767,65.1933685 C148.567027,65.1933685 148.094594,65.1398261 147.628452,65.0327395 L147.628452,63.7760541 C147.974909,63.8516446 148.362304,63.8894393 148.79065,63.8894393 C149.867814,63.8894393 150.636306,63.2847245 151.096148,62.0752768 L151.672523,60.6012699 L147.49617,50.1887334 Z" id="by" fill="#1A2745"></path>
                <g id="Group-20">
                    <path d="M192,15.7742842 C191.782425,16.0272512 191.775486,16.3559025 191.711397,16.6569948 C191.657514,16.909139 191.715887,17.1682758 191.568116,17.4249447 C191.459533,17.614567 191.552196,17.8679453 191.433,18.1172102 C191.301557,18.3923889 191.348092,18.760939 191.279105,19.0949376 C191.097861,19.9731235 191.004381,20.8710532 190.812932,21.7504731 C190.793338,21.8409653 190.810483,21.9392727 190.810483,22.0581466 L182.276493,22.0581466 C182.182197,22.2091041 182.060143,22.3205741 182.042998,22.4464405 C181.96952,22.9951525 181.925842,23.5479777 181.865836,24.153453 L189.928346,24.153453 C189.529119,26.3347269 189.140505,28.4575922 188.749442,30.5952654 L180.786943,30.5952654 L180.551815,30.8321905 C180.523241,31.1637211 180.565694,31.4886705 180.418331,31.8255483 C180.293828,32.1105988 180.340772,32.4717451 180.306482,32.8493445 L189.79078,32.8493445 C189.372775,35.1782853 188.9662,37.4479948 188.557993,39.7234629 L170.146193,39.7234629 C170.219262,39.1825662 170.375197,38.6914402 170.451532,38.1785139 C170.5544,37.484603 170.607467,36.7750617 170.84831,36.1021286 C170.911582,35.9256688 170.855658,35.7097214 170.884232,35.5163971 C170.91199,35.3341787 171.022615,35.1573075 171.020574,34.978791 C171.012001,34.2527966 171.397758,33.5876788 171.325913,32.8559257 C171.634518,32.4997154 171.402656,32.0303898 171.597371,31.6190615 C171.771268,31.2505114 171.658194,30.7536268 171.78678,30.3505251 C171.994965,29.6969244 171.98027,29.0071269 172.200702,28.3539375 C172.343575,27.932326 172.309285,27.4514832 172.371333,26.9994334 C172.396234,26.8168037 172.475018,26.6424005 172.513389,26.4610047 C172.552169,26.2779636 172.521553,26.1031491 172.619523,25.9040662 C172.771785,25.59557 172.651772,25.2138573 172.792195,24.8547677 C172.936292,24.4886855 172.854651,24.0370471 172.975072,23.6561571 C173.180809,23.0029677 173.080798,22.2872565 173.40818,21.6661508 C173.32409,21.2457732 173.523703,20.86077 173.557993,20.4552003 C173.573913,20.2676346 173.4788,20.0508645 173.690252,19.9114242 C173.743727,19.2722201 173.881293,18.6474124 173.993959,18.0180801 C174.039678,17.7622339 174.036412,17.508033 174.137648,17.2521868 C174.220922,17.043232 174.084989,16.7635288 174.300931,16.5710272 C174.216432,16.1021129 174.445436,15.6751541 174.480542,15.1745676 L192,15.1745676 L192,15.7742842 Z M104.852841,15.2002756 C104.73691,17.2799515 105.075723,19.3189058 105.003062,21.3734907 C104.973671,22.1990266 105.109196,23.0290871 105.13328,23.8579136 C105.15818,24.7060725 105.052455,25.5678053 105.167569,26.4007451 C105.250844,26.9988164 105.249619,27.5997671 105.307993,28.2801041 C105.438619,28.1303806 105.550876,28.0571642 105.579043,27.9596793 C105.862747,26.9811293 106.306469,26.0651012 106.661201,25.1145215 C107.080431,23.9920066 107.578036,22.89993 107.968282,21.7646639 C108.102991,21.3730793 108.294848,20.9995933 108.461397,20.6232279 C109.067177,19.2522707 109.511716,17.8142669 110.175461,16.4688121 C110.133824,16.069001 110.548971,15.8115095 110.504068,15.4018265 C110.497537,15.3421839 110.636736,15.2660881 110.713479,15.192049 L119.519335,15.192049 C119.585873,15.7333571 119.676495,16.2549214 119.707927,16.7797763 C119.740176,17.3268429 119.641798,17.8903627 119.730787,18.4242668 C119.885498,19.3534574 119.747932,20.2991012 119.895703,21.2064914 C120.02837,22.0200988 119.974079,22.8180756 120.005103,23.6218111 C120.02388,24.1063559 120.229617,24.5579943 120.172468,25.0589922 C120.118584,25.5270838 120.056945,26.0379535 120.186347,26.4731389 C120.358202,27.0506438 120.234107,27.6302054 120.362693,28.311365 C120.720282,27.4570362 121.048073,26.707596 121.34729,25.94705 C121.660385,25.1535977 121.939191,24.3465716 122.244938,23.55024 C122.533949,22.7970979 122.846228,22.053005 123.133606,21.2994516 C123.445477,20.4804969 123.723875,19.6483798 124.046767,18.8339498 C124.445178,17.8266068 124.897472,16.8406529 125.222813,15.8036942 C125.291392,15.5848676 125.422019,15.3857847 125.518764,15.1879358 L135.211656,15.1879358 C135.159405,15.3668636 135.135729,15.522757 135.070416,15.6584953 C134.691599,16.4494796 134.265838,17.2198975 133.924985,18.027335 C133.142859,19.8799576 132.161936,21.6342728 131.311231,23.4527552 C130.519308,25.1461938 129.646968,26.8022015 128.883212,28.5075686 C128.014546,30.4473929 127.009947,32.318114 126.107399,34.2398398 C125.273431,36.0151327 124.414154,37.7780858 123.562224,39.5447408 C123.531609,39.6084967 123.459764,39.6520975 123.383021,39.7294272 L114.062823,39.7294272 C114.062823,39.5628392 114.059966,39.3732169 114.063231,39.1831832 C114.079151,38.3510661 113.805652,37.5362247 113.914236,36.698349 C113.653391,36.1126175 113.866883,35.4795832 113.74932,34.8913838 C113.60808,34.1851331 113.723603,33.4632519 113.586853,32.7837376 C113.462758,32.1692131 113.574607,31.5575679 113.451328,30.9706025 C113.308455,30.2894428 113.425611,29.5926527 113.290902,28.9374067 C113.161501,28.3056064 113.223956,27.6807988 113.137416,26.9181961 C113.012913,27.1370228 112.93617,27.2567193 112.874122,27.3838197 C112.400601,28.3594904 111.894016,29.3215873 111.470704,30.3190584 C111.180877,31.0018634 110.813082,31.6443582 110.524887,32.3214046 C109.928087,33.7228001 109.257402,35.08841 108.637335,36.477877 C108.334853,37.1541007 108.01441,37.815928 107.682129,38.4761099 C107.486189,38.8648151 107.364135,39.2913626 107.199627,39.7257252 L97.8826947,39.7257252 C97.8684074,39.1860625 97.6479753,38.6463998 97.6896125,38.055321 C97.7108393,37.7566967 97.6071545,37.4477891 97.5520465,37.1450515 C97.4969384,36.8414912 97.7018587,36.4976208 97.4087656,36.2290234 C97.3838649,36.2064003 97.407541,36.1327726 97.4042753,36.0834132 C97.3552904,35.3796305 97.3136532,34.6754364 97.2520138,33.973299 C97.2250721,33.6672708 97.1528194,33.3657671 97.1079165,33.0609729 C97.0634219,32.7561786 97.2152751,32.4205347 96.9617782,32.1461787 C96.9368775,32.1194424 96.9609617,32.0491053 96.9576961,31.9997459 C96.9091194,31.2461924 96.8674822,30.4922277 96.8054346,29.7399082 C96.7805339,29.43388 96.6956267,29.133199 96.6650112,28.8271707 C96.6339874,28.5190858 96.7319572,28.1920798 96.5135661,27.9148446 C96.5017281,27.8996254 96.5135661,27.8658965 96.5119333,27.8412168 C96.4625401,27.1378454 96.4213112,26.4336514 96.3592636,25.731514 C96.3327301,25.4254857 96.2604773,25.1235707 96.2159827,24.8191878 C96.1706716,24.5143935 96.3237495,24.1775157 96.0678033,23.906039 C96.0551489,23.8928765 96.0678033,23.8575023 96.0657623,23.8324112 C96.0167773,23.1290398 95.9747319,22.4248458 95.913909,21.7227084 C95.884518,21.3920004 95.8257361,21.0633491 95.7661378,20.7359318 C95.7069477,20.4081032 95.9216649,20.0411983 95.6253062,19.745042 C95.6004055,19.7199509 95.6228569,19.6487911 95.6195912,19.5994317 C95.5706063,18.895649 95.5065177,18.1931003 95.4771268,17.4889062 C95.4632477,17.1503831 95.2493469,16.8624533 95.310578,16.5004844 C95.3611958,16.199392 95.3611958,15.8777333 95.1819926,15.5856902 C95.1281092,15.497666 95.1734202,15.3475311 95.1734202,15.2002756 L104.852841,15.2002756 Z M40.285691,26.6333101 C40.4167256,26.2314424 40.2342568,25.7362031 40.12649,25.2454885 C40.0591357,24.9402829 39.8448266,24.6671609 39.6950144,24.380465 C39.3962064,23.8087187 38.9635062,23.3690088 38.3907908,23.079845 C37.4727317,22.6166893 36.6665215,22.5994135 35.5725249,22.803021 C34.5050618,23.0016926 33.6747673,23.4808901 33.0200022,24.3586646 C32.2791052,25.3516112 31.8627334,26.4412198 31.8145649,27.6764387 C31.7998694,28.0503361 31.7863985,28.4275241 31.8198716,28.7989536 C31.8513035,29.1485827 31.8921243,29.5146648 32.0227508,29.8346782 C32.3909541,30.7379552 32.9612203,31.4627156 33.8792794,31.8909084 C34.1964568,32.0389866 34.5495564,32.0077256 34.8185653,32.1348261 C35.5329288,32.4721153 36.2027976,32.2014613 36.8359277,32.0373413 C38.1826049,31.6893575 39.1357699,30.7988318 39.6966473,29.499857 C40.0758722,28.6224938 40.3261035,27.7196282 40.285691,26.6333101 Z M34.6267077,40.6530238 C34.3042236,40.6530238 33.9788821,40.6246421 33.6608883,40.660839 C33.3122789,40.7003265 33.0069395,40.5534823 32.6803734,40.5045342 C32.353399,40.4555862 31.9941762,40.6246421 31.7010831,40.3531654 C30.8071083,40.4029362 30.0213084,39.9936645 29.1967289,39.7513921 C28.4137865,39.5210483 26.8883144,38.6321678 26.276411,38.1653102 C25.8677951,37.853112 25.4812224,37.5240494 25.1399608,37.145216 C24.4113101,36.3365446 23.7691994,35.4674079 23.3311925,34.4555403 C22.9874816,33.6616767 22.7829696,32.8344955 22.5666195,31.9978538 C22.2037229,30.5927563 22.2392369,29.175319 22.3265934,27.7722782 C22.3841507,26.8509028 22.6176455,25.9233575 22.8364448,25.0052727 C23.1548468,23.6696898 23.7867523,22.4937022 24.3957982,21.30702 C24.7717575,20.5748557 25.2673216,19.8867034 25.8633048,19.2943907 C26.2870244,18.8736018 26.6984978,18.4400618 27.1275241,18.0250315 C27.7610624,17.4125637 28.5064497,16.956812 29.2391825,16.4767918 C29.8845589,16.0543577 30.5834104,15.7725978 31.2798128,15.4661582 C31.6823056,15.2884644 32.097861,15.1625979 32.5117836,15.0268596 C32.9322375,14.8886533 33.3469765,14.7393411 33.8004953,14.7154841 C34.0519512,14.7023216 34.2801393,14.5521867 34.5577206,14.5620586 C34.8324443,14.5719305 35.1092092,14.4563473 35.3884232,14.4308449 C35.6586567,14.4057539 35.9607304,14.4999481 36.2003483,14.4102785 C36.724487,14.2128409 37.2539324,14.2778308 37.7801121,14.284412 C38.1813803,14.289348 38.581832,14.3761382 38.982692,14.4250863 C39.3590595,14.4715664 39.735427,14.3637984 40.1203668,14.555066 C40.3750884,14.6813438 40.7432918,14.4962461 41.0159745,14.7249446 C41.7180918,14.6895704 42.3263212,15.0317955 42.9557775,15.2535015 C44.1481522,15.673879 45.211125,16.3213097 46.2091928,17.1262792 C46.9362107,17.7128334 47.5268873,18.3890571 48.0077559,19.1533051 C48.6229249,20.1310324 49.1495129,21.1634664 49.3736189,22.3287595 C49.4850596,22.9112004 49.5618026,23.5035131 49.6895717,24.0732028 C49.8720405,24.8872215 49.8516301,25.6971269 49.7838676,26.4881112 C49.6895717,27.5900597 49.5479236,28.6887176 49.263811,29.7791489 C48.9258151,31.076067 48.3971861,32.2693304 47.8040603,33.445318 C47.4423883,34.1622632 46.9423339,34.7973541 46.441463,35.4233958 C46.2006205,35.7240768 45.9361019,36.0066593 45.6891362,36.3011704 C45.3050128,36.7589788 44.8029173,37.120125 44.3347031,37.502249 C44.0065041,37.7704351 43.6632014,38.0250473 43.3052033,38.2516892 C42.1124204,39.0056539 40.8326893,39.5934421 39.4921352,40.0014797 C38.8990094,40.1816415 38.2826158,40.4292612 37.6262178,40.3531654 C37.200049,40.7126664 36.6110053,40.2778923 36.1881021,40.6530238 L34.6267077,40.6530238 Z M94.6871224,17.3834828 C92.9657106,19.5334958 91.236951,21.5490045 89.5702389,23.6081139 C89.1232515,23.3658415 88.8893485,22.9870082 88.5158385,22.7455585 C87.7369782,22.2433266 86.920971,21.9282491 86.0180156,21.7480874 C85.6122571,21.6670557 85.2167039,21.5995978 84.8125782,21.6267455 C84.4627442,21.6497799 84.1096446,21.7098338 83.7716486,21.8023827 C83.4018124,21.9039808 83.2475099,22.1174602 82.9768682,22.7249921 C83.0981059,23.5019912 83.7251129,23.6990175 84.3317096,23.8573789 C85.157922,24.0729149 85.9596419,24.3583767 86.7707506,24.6179249 C87.6039025,24.8844656 88.4346051,25.2250454 89.1420291,25.7030089 C90.4584989,26.5910667 91.4982039,27.7625297 91.9435585,29.370412 C92.0774506,29.8545454 92.2317531,30.3230483 92.2023622,30.8355634 C92.184401,31.1518748 92.2007293,31.1526975 92.3427856,31.4373367 C92.2933925,31.6253137 92.1974637,31.8075322 92.2076689,31.983992 C92.2427747,32.5976938 92.1550101,33.1961765 92.046835,33.7938365 C92.0182605,33.9517866 91.9488652,34.1023327 91.9019213,34.2569922 C91.6704675,35.0121909 91.1495945,36.0088394 90.7119959,36.5312263 C90.4487019,36.8454811 90.2156153,37.1926422 89.9176237,37.4694661 C89.1212105,38.2094457 88.237849,38.8330194 87.2557013,39.302345 C86.400098,39.710794 85.5061231,40.0065391 84.5790834,40.205622 C83.8830893,40.3549341 83.1691341,40.4047049 82.4784466,40.5346846 C81.596718,40.7008612 80.7264192,40.5671795 79.8597943,40.6646643 C79.5017961,40.7045632 79.2164589,40.5058916 78.8796876,40.4943744 C78.5772057,40.4840912 78.2828879,40.5499038 77.9608121,40.3800252 C77.6962935,40.2405849 77.3174767,40.2780157 76.9921352,40.230713 C76.2687912,40.1254129 75.6046372,39.8629855 74.9172155,39.655676 C73.4566483,39.2155548 72.1336472,38.4681712 70.7739074,37.8022307 C70.6551189,37.7442334 70.5575573,37.6414014 70.4003973,37.5208822 C72.1193599,35.3433102 73.8036249,33.2097503 75.5042181,31.055624 C75.8001687,31.0531561 76.0565232,31.2086382 76.2826702,31.4340461 C77.2248136,32.3747539 78.3984107,32.8342076 79.6560986,33.1776667 C80.3892396,33.3779836 81.1064606,33.2636343 81.8298046,33.2961293 C82.0155391,33.3043558 82.2253579,33.1731421 82.3943558,33.0608495 C82.5560061,32.9526701 82.6792848,32.7852595 82.8237903,32.6396493 L82.8237903,31.8930884 C82.4188483,31.3702902 81.8179666,31.1679167 81.2407609,30.8989079 C80.5676264,30.5854758 79.8381593,30.4698925 79.1568606,30.1799061 C78.4804605,29.8923876 77.8036521,29.6036351 77.160725,29.2535948 C76.0953029,28.6732105 75.2184728,27.8633051 74.6563708,26.7679379 C74.3261307,26.1254431 74.1216187,25.4434608 74.0187503,24.7038925 C73.9411909,24.144486 73.886491,23.5912494 73.913841,23.0392469 C73.9856855,21.6115264 74.360012,20.2648375 75.1723453,19.0756874 C75.6074947,18.4389512 76.0499918,17.8001584 76.6402602,17.2913453 C77.1419474,16.8590392 77.6705764,16.4637527 78.2404343,16.1235842 C79.0744027,15.6254657 79.9549067,15.2305905 80.8860284,14.9677517 C81.4673162,14.8036317 82.0400316,14.5712312 82.658058,14.5782238 C82.9715615,14.5819258 83.2324062,14.3692691 83.5642791,14.4145152 C83.8651282,14.4552367 84.1937354,14.4955468 84.4676427,14.2754862 C85.0395417,14.3445894 85.6302183,14.1315213 86.1943613,14.4149265 C86.3335601,14.4848523 86.5364393,14.4322023 86.7099276,14.424387 C87.7663691,14.3758503 88.7623959,14.7180755 89.7788331,14.919215 C90.2270451,15.0080619 90.6548468,15.1980956 91.0977521,15.3214941 C91.5206553,15.4395453 91.8819191,15.6921009 92.3019648,15.8323638 C92.8926414,16.030624 93.3792249,16.4686887 93.9013226,16.8179064 C94.1384913,16.9762678 94.3650465,17.150671 94.6871224,17.3834828 Z M61.3984787,22.104709 C61.3356148,22.4358283 61.2784657,22.7373319 61.2347875,22.9680871 C61.7062673,23.6973721 62.4430822,23.7866304 63.0994802,24.0108043 C63.7301611,24.225929 64.3828852,24.3707166 65.0078512,24.6125776 C66.0467398,25.0148567 67.0427666,25.4607366 67.9506205,26.1493001 C68.836023,26.8209992 69.4683367,27.6440671 69.9140995,28.6267304 C70.2541365,29.3765819 70.5186551,30.1601623 70.4859985,31.0103779 C70.4717112,31.3842753 70.4725276,31.7594067 70.4855903,32.1333042 C70.5325342,33.4989141 70.0455424,34.7139779 69.4360883,35.8895542 C69.2956648,36.1602082 69.093602,36.4057712 68.8886818,36.6340584 C67.9036766,37.7306596 66.8133538,38.6865866 65.4572879,39.3105716 C64.5931122,39.7083261 63.7154656,40.0266942 62.7818946,40.2257771 C62.45043,40.2965255 62.081002,40.2438755 61.8107685,40.3787912 C61.4666494,40.5499038 61.1347766,40.4153994 60.8212731,40.5100049 C59.9815898,40.7637945 59.1259865,40.6000858 58.2797719,40.6556151 C57.9152425,40.6794722 57.574389,40.5873346 57.2249633,40.5095936 C56.9037038,40.4380225 56.5804033,40.5272807 56.2354678,40.3824931 C55.9329859,40.2553927 55.5423311,40.2788384 55.1908643,40.2257771 C54.7014233,40.151738 54.2356583,39.9962559 53.761321,39.8839632 C53.3457655,39.7852444 52.9302101,39.628117 52.5281255,39.4565931 C52.1489006,39.2949411 51.7533473,39.1703086 51.3782044,39.0000187 C50.9810183,38.8198569 50.5973031,38.6088455 50.2111386,38.4035927 C49.8445681,38.2090344 49.4833043,38.0050156 49.119183,37.8055214 C48.8171093,37.6401674 48.8171093,37.6405787 48.7775132,37.3390751 C50.4895363,35.1841261 52.1754341,33.0620835 53.893172,30.9001419 C54.2997469,31.3394406 54.791229,31.655752 55.2553611,32.0074377 C55.7296985,32.3665273 56.2558782,32.6149696 56.7787922,32.8358529 C57.3008899,33.0571475 57.8421733,33.314639 58.4418304,33.3105257 C59.0606733,33.3055898 59.6799243,33.3092918 60.2428428,33.3092918 C60.4114325,33.2216788 60.5489985,33.1764327 60.6551325,33.0908764 C61.336023,32.5454551 61.2441762,31.8165814 60.4922577,31.3521917 C59.9542399,31.0198385 59.364788,30.7948419 58.7814592,30.6373032 C57.8650329,30.3900948 56.9600365,30.0828326 56.1309666,29.6690363 C54.7001987,28.9553818 53.4123034,27.9986321 52.7416181,26.4405206 C52.5493523,25.993818 52.4281146,25.5224358 52.3146329,25.0420043 C52.1288984,24.2576013 52.1933952,23.4797795 52.2007429,22.7019577 C52.2084989,21.8751878 52.4689354,21.097366 52.7734583,20.3248914 C53.3078022,18.9662741 54.1785092,17.8523971 55.2831193,16.9692752 C56.0685109,16.3415882 56.9269716,15.7945216 57.9136096,15.4300847 C58.8977984,15.0668818 59.885661,14.7925259 60.9000571,14.5527215 C61.3850079,14.4383722 61.8536303,14.4618179 62.3300087,14.4227417 C62.7810782,14.3857222 63.2137784,14.2409346 63.6811762,14.2647917 C64.3563517,14.2989319 65.0274452,14.4001187 65.6969058,14.4609953 C66.4271894,14.5280418 67.173393,14.6757086 67.8922468,14.8801388 C68.5102732,15.055776 69.1462608,15.2116694 69.7214255,15.4889047 C70.6798971,15.950415 71.7065395,16.3103273 72.4788684,17.1046022 C72.5874517,17.2160722 72.7348147,17.2897 72.9127932,17.4151551 C71.224038,19.4746759 69.5389566,21.529672 67.8567327,23.5813776 C67.3574947,23.2194087 66.8798917,22.8738929 66.4026969,22.5279658 C65.9642818,22.2104204 64.9241686,21.8500968 64.4122762,21.7583706 C64.0114162,21.6867994 63.619945,21.613583 63.2088799,21.611115 C62.6488189,21.6082357 62.132028,21.7036639 61.6666712,22.0310812 C61.6136042,22.0685121 61.5344119,22.0689234 61.3984787,22.104709 Z M147.925938,37.5606576 C149.720827,35.3032879 151.466731,33.1080288 153.237944,30.8806861 C153.818824,31.6075032 154.572783,32.0760061 155.323069,32.5116028 C155.847616,32.8155744 156.458295,32.9953249 157.056727,33.1713734 C157.754762,33.3766262 158.454839,33.2943605 159.154507,33.2992965 C159.427189,33.3013531 159.722324,33.2384199 159.967656,33.12078 C160.232583,32.9932682 160.341575,32.7036931 160.396683,32.410416 C160.404439,32.3676379 160.443627,32.3306183 160.47465,32.281259 C160.365659,32.059553 160.253402,31.8324998 160.114203,31.5499172 C159.137362,30.8539498 157.893961,30.6256626 156.746081,30.1657975 C156.019063,29.8749884 155.244285,29.69277 154.634831,29.1543412 C154.051502,29.0605584 153.805353,28.4579624 153.294685,28.2543549 C152.568075,27.3860409 151.951274,26.4696015 151.68104,25.3306334 C151.424686,24.2521306 151.527554,23.1670466 151.575723,22.0959477 C151.607155,21.3979236 151.828403,20.6719291 152.165174,20.032725 C152.561952,19.2783489 152.98608,18.5321993 153.626558,17.9444112 C153.846174,17.7428603 154.050686,17.524445 154.258464,17.310143 C155.262654,16.2744183 156.520751,15.6747017 157.838445,15.1687679 C158.094799,15.0700491 158.361767,15.0042365 158.61853,14.8981138 C159.064293,14.7146614 159.567205,14.6710606 160.047257,14.5768664 C160.34729,14.5180465 160.648547,14.4563473 160.952253,14.4308449 C161.247796,14.4061652 161.57028,14.4983027 161.83888,14.4098672 C162.363836,14.2371093 162.890015,14.2683702 163.417011,14.2835894 C163.744394,14.2934613 164.048509,14.4645738 164.397526,14.4357808 C164.724092,14.4082218 165.077192,14.33953 165.375592,14.5752211 C165.975249,14.5505414 166.538984,14.7364618 167.110475,14.8750795 C168.577981,15.2304671 169.963846,15.7787677 171.215411,16.6413232 C171.510954,16.8449307 171.786494,17.0785651 172.059177,17.2891652 L172.059177,17.6120579 C171.434211,18.4927118 170.670454,19.2606618 170.031201,20.1347344 C169.64422,20.6641139 169.12947,21.0976539 168.735549,21.6220975 C168.225698,22.3007892 167.705641,22.9654957 167.096187,23.5557518 C166.257729,22.7943831 165.313544,22.2135876 164.226079,21.8849363 C163.776234,21.7487866 163.324348,21.6430752 162.849194,21.6097576 C162.309136,21.5715041 161.789487,21.6706342 161.281269,21.7907421 C160.688143,21.931005 160.479549,22.5344237 160.733862,23.162522 C160.759987,23.2266892 160.770193,23.2974376 160.782031,23.3439177 C160.913882,23.4237154 161.025322,23.5125623 161.151459,23.564801 C161.918481,23.8835805 162.718976,24.0962372 163.515389,24.3261697 C164.019526,24.4717799 164.488557,24.7379093 164.990652,24.8921574 C165.662562,25.0982329 166.287936,25.4034385 166.831669,25.8283406 C167.327233,26.2149892 167.875048,26.5255421 168.253864,27.0972884 C168.617169,27.6451777 168.964962,28.194301 169.300101,28.7602887 C169.501347,29.0996346 169.522166,29.4677734 169.667896,29.8095872 C169.866693,30.2780902 169.916086,32.1784269 169.832812,32.6580357 C169.760967,33.070598 169.604624,33.4704091 169.551557,33.8842053 C169.499306,34.2860731 169.316021,34.641872 169.217643,35.02523 C169.118448,35.4135239 168.829845,35.7697342 168.597983,36.1062008 C167.500721,37.696396 165.995251,38.8106843 164.254245,39.5868608 C163.801543,39.788823 163.307612,39.9438938 162.811639,40.0549524 C162.309952,40.167245 161.800917,40.2552693 161.304128,40.3745545 C160.897145,40.4724506 160.4771,40.4099287 160.101957,40.52181 C159.351671,40.7455726 158.601385,40.6316347 157.853549,40.6419179 C157.305326,40.6493218 156.756286,40.5316819 156.205614,40.5094702 C155.681884,40.4880811 155.194484,40.2910549 154.691164,40.224831 C153.920468,40.1236442 153.184877,39.9130442 152.452961,39.6859909 C151.396519,39.3593963 150.427434,38.8246695 149.448144,38.317913 C148.959111,38.0653574 148.462731,37.8271984 147.925938,37.5606576 Z M19.4102759,39.7538601 L0,39.7538601 C0.0444946389,39.3824306 0.0269417079,38.9920801 0.153894301,38.6580815 C0.234719425,38.4450135 0.256762641,38.2496325 0.284928972,38.0382098 C0.313095303,37.8309003 0.426577042,37.6281155 0.420862135,37.4253306 C0.399227127,36.6725998 0.798862461,35.9832136 0.726609699,35.2271922 C1.01929462,34.6241849 0.921732978,33.936444 1.15318674,33.308757 C1.30626463,32.8937268 1.26381103,32.4075367 1.32545039,31.9554869 C1.35075927,31.7732685 1.42872694,31.598454 1.46791488,31.4170582 C1.50791923,31.2340171 1.42872694,31.049742 1.57159963,30.8555951 C1.66793665,30.7243814 1.59323464,30.4742937 1.62344201,30.2822034 C1.65242475,30.0995737 1.76223262,29.9227025 1.76019159,29.744186 C1.75121102,29.0181916 2.12880314,28.3518397 2.06512273,27.6209094 C2.35739944,27.2605858 2.15656126,26.7957848 2.33780548,26.3856905 C2.50435422,26.0097364 2.39495455,25.5173765 2.52680564,25.11592 C2.74070647,24.4627307 2.70274316,23.7696425 2.9386872,23.1176872 C3.08972405,22.7010116 3.04849507,22.2160556 3.11054264,21.7640058 C3.13544331,21.581376 3.21341098,21.4069728 3.25300713,21.2259883 C3.29260328,21.0425359 3.21341098,20.8582609 3.35669188,20.6641139 C3.4530289,20.5329002 3.37791869,20.2828126 3.40853426,20.0907223 C3.4371088,19.9080925 3.54691667,19.7312213 3.54487563,19.5527048 C3.53589506,18.8271217 3.91389539,18.1603586 3.85021499,17.4298395 C4.14208349,17.0691046 3.94124531,16.6043036 4.12289773,16.1942093 C4.28903826,15.8182552 4.1796386,15.3258953 4.31148969,14.9244389 C4.52579873,14.2712495 4.4874272,13.5781613 4.72337125,12.926206 C4.8744081,12.5099418 4.83032167,12.024163 4.89481848,11.5725246 C4.94176237,11.2463412 5.02381212,10.9255052 5.1025962,10.5405019 C5.12300659,10.5203468 5.1928101,10.4495983 5.23812116,10.4039409 L14.7167039,10.4039409 C13.4859577,17.4302508 12.2605182,24.4261225 11.0273227,31.4676516 C11.0493659,31.4915086 11.1159038,31.5626684 11.204893,31.6572739 L20.8296141,31.6572739 C20.3552768,34.3634028 19.8870625,37.0325121 19.4102759,39.7538601 Z" id="Combined-Shape" fill="#22232A"></path>
                    <path d="M129.91305,55.8029557 C129.173339,54.9248661 128.293959,54.3524302 127.741838,53.4620654 C127.678352,53.3593625 127.569403,53.2844834 127.481751,53.1965108 C127.147939,52.862624 126.809212,52.5340565 126.480725,52.1952595 C125.054958,50.7246845 123.589872,49.2892986 122.226362,47.7634849 C121.558738,47.0159222 120.836639,46.3219614 120.118227,45.5232517 C120.615054,45.0780693 121.105737,44.656619 121.575531,44.2126642 C122.044097,43.7687093 122.487268,43.2973396 122.950099,42.846838 C123.420713,42.3889711 123.902385,41.942152 124.399622,41.4707824 C124.834601,41.9045079 125.241729,42.2924058 125.62633,42.7015808 C125.990451,43.0890696 126.448777,43.3947233 126.690023,43.8894159 L126.994345,43.8894159 C127.288837,43.0428328 127.586605,42.1978864 127.877411,41.3500757 C128.399632,39.8275355 128.855091,38.2783989 129.455133,36.7873651 C129.987594,35.463684 130.321816,34.0761715 130.901789,32.7664023 C131.222494,32.0413441 131.400664,31.2377244 131.672628,30.4787047 C131.835234,30.0237021 131.960567,29.5551967 132.126449,29.1018308 C132.29315,28.6468282 132.422989,28.1750494 132.596653,27.7310945 C132.770726,27.2863213 132.931284,26.8264085 133.122151,26.3844995 C133.512485,25.4794044 133.713182,24.4945201 134.073617,23.5746947 C134.593381,22.2469218 134.934566,20.8594093 135.506347,19.5484125 C135.836472,18.7922571 136.039217,17.980863 136.302171,17.1956562 C136.513107,16.5630716 136.725682,15.9308962 136.94563,15.3011759 C136.968157,15.2377537 137.047207,15.1943812 137.108235,15.1330049 L143.761129,15.1330049 C143.79021,15.6039654 143.549783,16.0000468 143.425269,16.4051301 C143.081217,17.5246329 142.658116,18.6191761 142.271877,19.7255853 C141.968784,20.5938547 141.677978,21.4662158 141.374475,22.3344852 C141.078755,23.1806591 140.780577,24.0296973 140.517213,24.882418 C140.31283,25.5436449 140.003593,26.1639542 139.841398,26.8435939 C139.677154,27.5322354 139.343751,28.178732 139.146331,28.8616451 C138.954236,29.5269636 138.757225,30.198829 138.514751,30.837142 C138.065436,32.0188395 137.664861,33.2169039 137.23111,34.4031023 C136.883782,35.3540251 136.654824,36.3491387 136.289474,37.2926963 C135.832377,38.4739846 135.458835,39.6810509 135.059489,40.8811612 C134.841999,41.5346137 134.585599,42.1753817 134.363194,42.8276067 C133.99211,43.9160123 133.639866,45.0113738 133.269192,46.1001885 C132.99477,46.9050358 132.698639,47.7021087 132.422989,48.5061376 C132.102283,49.4419209 131.797552,50.3830234 131.478075,51.3192158 C131.100028,52.4288985 130.715427,53.5365353 130.331236,54.644172 C130.211637,54.9899249 130.083437,55.3324044 129.91305,55.8029557" id="Fill-16" fill="#4D93FF"></path>
                    <path d="M142.901383,40.6699507 L136.197044,40.6699507 C136.332556,40.2141972 136.444322,39.7933123 136.58229,39.3818625 C137.06006,37.9620939 137.545199,36.5451968 138.031157,35.1287099 C138.457752,33.8869765 138.88967,32.6468839 139.318312,31.4059708 C139.536113,30.7742333 139.756779,30.1437264 139.968849,29.5103479 C140.334034,28.4167036 140.687756,27.3197775 141.058263,26.227774 C141.331742,25.4212831 141.631833,24.6234068 141.906949,23.8173261 C142.22751,22.8791548 142.528828,21.9348302 142.847751,20.9962487 C143.225628,19.8837343 143.615786,18.775322 143.996938,17.6640382 C144.423123,16.4218945 144.847262,15.1789304 145.267307,13.9347356 C145.496161,13.2574637 145.67466,12.5605013 145.945273,11.9008689 C146.434916,10.7042595 146.777994,9.45924426 147.212777,8.24499546 C147.453913,7.57182577 147.618902,6.86994074 147.883784,6.20784697 C148.355413,5.02846681 148.716913,3.81421801 149.114441,2.61063491 C149.337973,1.93254259 149.579519,1.26060356 149.815743,0.587023658 C149.882476,0.396681955 149.956986,0.209622005 150.036001,0 C150.139169,0.0508671793 150.214909,0.0672759468 150.259943,0.114040934 C151.738287,1.63964609 153.26535,3.12258846 154.670002,4.71423891 C155.553078,5.71476351 156.529088,6.61519463 157.42895,7.59315717 C158.224005,8.457489 159.014148,9.3255128 159.842365,10.2304563 C159.784639,10.2923994 159.730598,10.3711615 159.658544,10.4249002 C158.499532,11.2789766 157.607039,12.4132326 156.556518,13.3813499 C156.237595,13.6750669 155.891652,13.9396582 155.531789,14.2399387 C155.270183,13.9683736 154.99875,13.682861 154.722815,13.4014507 C154.461617,13.1348082 154.196326,12.8726781 153.932672,12.608497 C153.658374,12.3336501 153.383666,12.058393 153.05328,11.7277564 C152.842439,12.2741683 152.624638,12.7069496 152.509597,13.1659848 C152.22752,14.2895752 151.740743,15.3401465 151.407901,16.445277 C151.202382,17.128292 150.973527,17.807615 150.704142,18.4676576 C150.163324,19.7906145 149.837441,21.1874108 149.267147,22.5017531 C148.93758,23.2598382 148.739839,24.0745335 148.470863,24.859693 C148.231774,25.5566554 147.966892,26.2441828 147.72903,26.9415554 C147.498538,27.6171864 147.272958,28.2924072 147.018311,28.9610645 C146.675234,29.8614956 146.415674,30.8000771 146.088154,31.7128148 C145.745896,32.6669846 145.422469,33.6277179 145.09454,34.5872206 C144.677361,35.8080329 144.292115,37.0411518 143.837681,38.2484269 C143.553148,39.0036404 143.293179,39.7654174 143.037713,40.530066 C143.023793,40.5723186 142.970162,40.6014441 142.901383,40.6699507" id="Fill-18" fill="#FFA362"></path>
                </g>
            </g>
        </g>
    </g>
</svg>