<svg class="svg-icon" viewBox="0 0 89 29" xmlns="http://www.w3.org/2000/svg"><path d="m4.22472558 6.74565234c2.11826483-1.19451024 4.10646076-1.26916713 6.20614432-.4106129.5574381.22397067 1.375014.18664223 1.9324521-.07465689 1.5422455-.69057623 3.0844909-.59725512 4.6453176-.24263489 1.2821077.27996334 2.0811023 1.54913047 2.1182648 3.26623894.0557439 2.855626.0557439 5.7112521.0743251 8.5855423 0 1.3624883-.0185812 2.7436408 0 4.106129 0 .6159193-.2043939.9145469-.8733197.8585542-.6503444-.0559926-1.3006889-.0559926-1.9510334 0-.7989946.0746569-1.0962949-.2053064-1.0962949-1.0451964.0371625-2.8929545.0185812-5.785909 0-8.6788635 0-.7465689-.0371626-1.4931378-.1300689-2.2210425-.1300689-.91454687-.6317632-1.28783132-1.5236642-1.2691671-.9476448.03732845-1.4865016.4666056-1.579408 1.3624882-.0929063.8958827-.1486501 1.7917654-.1486501 2.7063123-.0185813 2.7063123-.0185813 5.4126245.0185812 8.1189368.0185813.8212258-.2601378 1.1198533-1.0777137 1.0451965-.6131819-.0559927-1.24494507-.0559927-1.85812699 0-.74325082.0746568-.96622606-.2426349-.96622606-.9705396.03716254-2.6689838.01858127-5.3379676 0-8.0256157 0-.9332111-.07432509-1.8664222-.18581271-2.7809691-.13006889-1.08252495-.53885684-1.4558094-1.44933909-1.4558094-.94764479 0-1.61657052.5412625-1.72805815 1.4744736-.09290635.7092404-.07432508 1.4184809-.07432508 2.1463856 0 2.7996333 0 5.5992667.01858127 8.3989001 0 1.1198533-.09290635 1.2131745-1.20778257 1.2131745-.59460066 0-1.18920131-.0559927-1.76522069 0-.92906352.0933211-1.18920131-.335956-1.17062004-1.1945103.07432508-2.7809691.14865017-5.5806025.16723144-8.3615717 0-1.847758-.11148763-3.71418024-.14865017-5.56193827-.01858127-1.4931378.01858127-1.53046624 1.46792036-1.58645891.27871906-.01866422.55743812 0 .83615717-.07465689.66892574-.18664223 1.20778258-.13064956 1.44933909.67191201zm61.29959252 7.76433526c-.0743251-1.1011892-.0929064-2.3143636-.2601378-3.5088739-.1486502-.9892038-.7618321-1.38115243-1.6908956-1.34382399-.9476448.03732845-1.4493391.46660559-1.6351518 1.43714509-.4459505 2.2770352-.4645318 4.5727346 0 6.8497697.2043939 1.0638607.6503444 1.4744736 1.6908956 1.4744736 1.0219698 0 1.5422454-.3546202 1.7094768-1.4558094.1114877-1.1011891.1114877-2.2397067.1858128-3.4528811zm-3.9206481 7.8389734c0 1.3624883-.0185813 2.5943269 0 3.8261656.0371625 1.2318387.0371625 1.2505029-1.2077826 1.2318387-.3158816 0-.6131819-.0373284-.9290635-.0186642-2.1925899.0559927-1.8395458.2053064-1.8395458-1.8850865-.0185812-6.0658723.0185813-12.1317446-.0185812-18.19761692 0-.93321113.2415565-1.3251598 1.1892013-1.23183869.3344628.03732845.687507-.11198533 1.0219698-.07465689.5202756.05599267 1.0219699.167978 1.5236642.39194867 1.6165705-.65324778 3.2703036-.93321112 5.0355243-.503934 1.3564327.335956 2.2854962 1.11985335 2.6013778 2.50100581.2229753 1.02653224.4645318 2.07172872.4831131 3.11692512.0371625 2.3330279.0557438 4.6660557-.1300689 6.9804193-.3158816 3.9941436-3.437535 5.711252-7.1352078 4.0501362-.1114877-.0559926-.2229753-.0746569-.5946007-.1866422zm-13.4528398-15.80863377c.4459505-.16797801.7432508-.29862756 1.0591324-.4106129 1.4121766-.55992667 2.8615157-.54126245 4.2736922-.05599267 1.4307579.50393401 1.8952896 1.69844425 1.9138709 3.09826094.0371625 3.7328445.0371625 7.465689.0371625 11.1985335 0 .5599267.0185813 1.1198533.0371626 1.67978.0185812.5785909-.2415565.83989-.8547385.8025616-.687507-.0373285-1.375014-.0746569-2.0439397 0-.8175759.0746569-1.0033886-.2799633-1.0033886-1.0265322.0185813-3.3035674-.0185813-6.5884706-.0371626-9.892038 0-.2426349 0-.503934-.0185812-.7465689-.1114877-1.0451964-.5946007-1.54913044-1.4865017-1.56779466-1.0033886-.01866422-1.7094768.50393396-1.8209645 1.47447356-.0929063.7652331-.1114876 1.5491305-.1114876 2.3330278-.0185813 2.7996334-.0185813 5.5992668 0 8.3989002 0 .7465689-.204394 1.1011891-1.0033886 1.0265322-.5760194-.0559927-1.17062-.0186642-1.7652207-.0186642-1.1892013.0186642-1.2077825 0-1.2077825-1.1571818 0-4.8526979.0185812-9.7053957.0185812-14.55809358 0-1.9970718.0185813-3.97547939-.0185812-5.9725512-.0185813-.82122579.2973003-1.11985335 1.1148762-1.04519646.6503444.05599267 1.3006889.05599267 1.9510334 0 .7060882-.05599266.9476448.26129912.9290635.91454691-.0185813 1.45580935 0 2.93028293 0 4.38609228-.0185813.33595601.0185813.67191201.0371625 1.13851758zm-20.3092914 9.87335507c-.0185812-1.8290938-.9476447-2.3516921-2.3040775-1.6051232-.7432508.4106129-1.0962949 1.0638607-1.17062 1.8850865-.0371626.4666056-.0185813.9332111 0 1.3998167.0743251 1.1945102.4645317 1.6237873 1.4493391 1.6424516 1.1334575.0186642 1.7652207-.4852698 1.8952896-1.5864589.0929063-.6719121.1114876-1.3438241.1300688-1.7357727zm-6.4662821-9.87337374c1.2821077-.26129911 2.4527277-.61591934 3.6605103-.70924045 1.2449451-.09332112 2.5456341-.01866423 3.7905792.13064955 1.7094769.22397067 2.7128655 1.54913047 2.750028 3.54620228.0371625 2.44501316 0 4.90869056.0371625 7.35370366.0185813.9518754-.1672314 1.9784076.891901 2.6503196.2415565.1493138.1486502.8585542.1486502 1.3251598-.0185813 2.1090571-.0557438 2.2956994-2.1740087 1.9410791-1.6351518-.2799633-3.1402347-.0373284-4.7196426.167978-.9848074.1306496-2.0811023-.1119853-3.0659097-.4292771-1.0591324-.335956-1.7838019-1.2131744-1.8767083-2.351692-.1114876-1.6237874-.2601378-3.3035674-.0371625-4.9086905.3344629-2.3703563 1.9138708-3.4902096 4.7196427-3.7515088.4273692-.0373284.8733197 0 1.3006889-.0559926.2787191-.0373285.7246695-.1306496.7804134-.2799634.074325-.3172917.0557438-.8025615-.1486502-1.007868-.2601378-.27996331-.7246696-.54126243-1.096295-.54126243-.9104822.03732845-1.8395457.16797801-2.7314467.37328445-.5574381.13064958-.9290635.03732848-1.1334575-.46660556-.3344629-.87721846-.6689257-1.81042958-1.096295-2.9862756zm61.5968557 3.13566404c.3902067-.95187535.7804133-1.88508647 1.1334575-2.83696182.2601378-.67191201.6689257-.98920379 1.4121765-.9145469.6503445.05599266 1.3006889.03732844 1.9510334 0 .7618321-.03732845.8361572.29862756.5574381.9145469-.9476448 2.16504981-1.8395457 4.34876382-2.8057718 6.49514942-.3530441.7838974-.3158816 1.4184809.0371625 2.2023783 1.1148763 2.351692 2.1554274 4.7220483 3.3446287 7.3537036-.9290635 0-1.6908956-.0933211-2.4155651.0186643-1.5050829.2426348-2.3598214-.3172918-2.7871906-1.8104296-.2415565-.8585543-.7618321-1.6424516-1.1520388-2.4636774-.1114876.0186642-.2043939.0373284-.3158816.0373284-.4459505 1.0825249-.9104822 2.1463856-1.3006889 3.2475748-.2601378.7092404-.6317632 1.0451964-1.4307578.9892038-.8733197-.0746569-1.7652207-.0186643-2.7871906-.0186643.1300689-.3919486.204394-.6532478.3158816-.8958827.9290635-2.1650498 1.8581271-4.3300996 2.8057719-6.4951494.5016943-1.1011891.483113-2.1090571-.0557439-3.2102463-.8733197-1.7731011-1.653733-3.60219489-2.4713089-5.41262448-.0929064-.22397067-.1486502-.44794134-.2787191-.85855423 1.4121766 0 2.7314468-.05599267 4.0135544.03732844.2601378.01866423.5202756.55992668.687507.91454691.4459505.9145469.8361572 1.84775802 1.2449452 2.76230493.0929063-.01866423.2043939-.03732845.2973003-.05599267zm-47.5865592 5.1139783c0-1.4371451-.0185813-2.855626 0-4.2927712.0185813-.72790465-.2415565-1.15718177-1.0219699-1.04519644-.7618321.11198534-1.0219698-.24263489-.9104822-.95187534.0371625-.20530645.0185813-.42927712.0185813-.65324779.0185812-.52259823-.1486502-1.17584602.0929063-1.53046625.2229753-.31729178.9290635-.22397067 1.3935953-.41061289.278719-.11198534.5202756-.39194867.7060883-.65324779.1300689-.18664222.1114876-.48526978.1486501-.72790468.408788-2.2397067.408788-2.20237825 2.6385404-2.61299115.687507-.13064955.8175759.14931378.8175759.72790468 0 .7465689.0185813 1.4931378 0 2.2397067-.0371625.76523312.1858127 1.21317446 1.0405512 1.10118913.278719-.03732845.5574381.01866422.8361571.03732844.6689258.03732845 1.0219699.37328445 1.0033886 1.06386069v.55992667c0 1.71710847.1858127 1.9037507-1.7280581 1.82909381-.8361572-.03732845-1.17062.35462022-1.17062 1.17584601.0185812 2.2023783-.0185813 4.4047565.0185812 6.625799.0371626 1.6051231.2973003 1.8664222 1.9138709 1.9410791.7618321.0373285 1.0962949.3172918.966226 1.0825249-.0371625.2426349-.0371625.503934-.0371625.7465689-.0185813 1.8104296-.0185813 1.8104296-1.8767083 1.8104296-3.9206481 0-4.8125491-.8585542-4.8868741-4.7967052.0185812-1.0825249.0371625-2.1650498.0371625-3.2662389zm39.9311315-.4852884c0 2.5383342-.0185813 5.0953327.0185813 7.633667 0 .7279046-.2229753 1.007868-.9662261.9518753s-1.4865016-.0373284-2.2297524 0c-.5574381.0373284-.7804134-.167978-.7804134-.7465689.0185813-5.1886539 0-10.3773077 0-15.54729734 0-.50393401.204394-.72790468.7246696-.70924046.7989946.01866423 1.6165705.03732845 2.4155651 0 .6689258-.03732844.8361572.27996334.8361572.89588268-.0371626 2.4823416-.0185813 5.00201162-.0185813 7.52168172zm-.0371997-11.88914711v.93321112c.0185813.61591935-.278719.93321113-.891901.95187535h-2.1368461c-.6131819 0-.8919009-.335956-.8919009-.95187535 0-.24263489-.0371626-.503934 0-.7465689.1114876-.67191201.1114876-1.86642225.3902066-1.94107914.9848074-.24263489 2.0625211-.14931378 3.0844909-.09332111.1672315 0 .3716254.46660556.4273692.72790468.0743251.35462023.0185813.7465689.0185813 1.11985335z"/></svg>