<svg class="svg-icon" viewBox="0 0 265 58" xmlns="http://www.w3.org/2000/svg"><g fill="none" fill-rule="evenodd" transform=""><g transform="translate(183 32)"><path d="m5.628 7.003125c1.9152-1.08 3.7128-1.1475 5.6112-.37125.504.2025 1.2432.16875 1.7472-.0675 1.3944-.624375 2.7888-.54 4.2-.219375 1.1592.253125 1.8816 1.400625 1.9152 2.953125.0504 2.581875.0504 5.16375.0672 7.7625 0 1.231875-.0168 2.480625 0 3.7125 0 .556875-.1848.826875-.7896.77625-.588-.050625-1.176-.050625-1.764 0-.7224.0675-.9912-.185625-.9912-.945.0336-2.615625.0168-5.23125 0-7.846875 0-.675-.0336-1.35-.1176-2.008125-.1176-.826875-.5712-1.164375-1.3776-1.1475-.8568.03375-1.344.421875-1.428 1.231875s-.1344 1.62-.1344 2.446875c-.0168 2.446875-.0168 4.89375.0168 7.340625.0168.7425-.2352 1.0125-.9744.945-.5544-.050625-1.1256-.050625-1.68 0-.672.0675-.8736-.219375-.8736-.8775.0336-2.413125.0168-4.82625 0-7.25625 0-.84375-.0672-1.6875-.168-2.514375-.1176-.97875-.4872-1.31625-1.3104-1.31625-.8568 0-1.4616.489375-1.5624 1.333125-.084.64125-.0672 1.2825-.0672 1.940625 0 2.53125 0 5.0625.0168 7.59375 0 1.0125-.084 1.096875-1.092 1.096875-.5376 0-1.0752-.050625-1.596 0-.84.084375-1.0752-.30375-1.0584-1.08.0672-2.514375.1344-5.045625.1512-7.56 0-1.670625-.1008-3.358125-.1344-5.02875-.0168-1.35.0168-1.38375 1.3272-1.434375.252-.016875.504 0 .756-.0675.6048-.16875 1.092-.118125 1.3104.6075zm39.7151832-.18564187c.4032-.151875.672-.27.9576-.37125 1.2768-.50625 2.5872-.489375 3.864-.050625 1.2936.455625 1.7136 1.535625 1.7304 2.80125.0336 3.37499997.0336 6.74999997.0336 10.12499997 0 .50625.0168 1.0125.0336 1.51875.0168.523125-.2184.759375-.7728.725625-.6216-.03375-1.2432-.0675-1.848 0-.7392.0675-.9072-.253125-.9072-.928125.0168-2.986875-.0168-5.956875-.0336-8.94375 0-.219375 0-.455625-.0168-.675-.1008-.945-.5376-1.40062497-1.344-1.41749997-.9072-.016875-1.5456.45562497-1.6464 1.33312497-.084.691875-.1008 1.400625-.1008 2.109375-.0168 2.53125-.0168 5.0625 0 7.59375 0 .675-.1848.995625-.9072.928125-.5208-.050625-1.0584-.016875-1.596-.016875-1.0752.016875-1.092 0-1.092-1.04625 0-4.3875.0168-8.775.0168-13.16249997 0-1.805625.0168-3.594375-.0168-5.4-.0168-.7425.2688-1.0125 1.008-.945.588.050625 1.176.050625 1.764 0 .6384-.050625.8568.23625.84.826875-.0168 1.31625 0 2.649375 0 3.965625-.0168.30375.0168.6075.0336 1.029375zm-18.3623664 8.92685807c-.0168-1.65375-.8568-2.12625-2.0832-1.45125-.672.37125-.9912.961875-1.0584 1.704375-.0336.421875-.0168.84375 0 1.265625.0672 1.08.42 1.468125 1.3104 1.485 1.0248.016875 1.596-.43875 1.7136-1.434375.084-.6075.1008-1.215.1176-1.569375zm-5.8464-8.92687495c1.1592-.23625 2.2176-.556875 3.3096-.64125 1.1256-.084375 2.3016-.016875 3.4272.118125 1.5456.2025 2.4528 1.400625 2.4864 3.20625.0336 2.21062495 0 4.43812495.0336 6.64874995.0168.860625-.1512 1.78875.8064 2.39625.2184.135.1344.77625.1344 1.198125-.0168 1.906875-.0504 2.075625-1.9656 1.755-1.4784-.253125-2.8392-.03375-4.2672.151875-.8904.118125-1.8816-.10125-2.772-.388125-.9576-.30375-1.6128-1.096875-1.6968-2.12625-.1008-1.468125-.2352-2.986875-.0336-4.438125.3024-2.143125 1.7304-3.155625 4.2672-3.391875.3864-.03375.7896 0 1.176-.050625.252-.03375.6552-.118125.7056-.253125.0672-.286875.0504-.725625-.1344-.91125-.2352-.25312495-.6552-.48937495-.9912-.48937495-.8232.03375-1.6632.151875-2.4696.3375-.504.11812495-.84.03375-1.0248-.421875-.3024-.793125-.6048-1.636875-.9912-2.7zm12.6672168 7.45880065c0-1.299375-.0168-2.581875 0-3.88125.0168-.65812502-.2184-1.04625002-.924-.94500002-.6888.10125-.924-.219375-.8232-.860625.0336-.185625.0168-.388125.0168-.590625.0168-.4725-.1344-1.063125.084-1.38375.2016-.286875.84-.2025 1.26-.37125.252-.10125.4704-.354375.6384-.590625.1176-.16875.1008-.43875.1344-.658125.3696-2.025.3696-1.99125 2.3856-2.3625.6216-.118125.7392.135.7392.658125 0 .675.0168 1.35 0 2.025-.0336.691875.168 1.096875.9408.995625.252-.03375.504.016875.756.03375.6048.03375.924.3375.9072.961875v.50625c0 1.5525.168 1.72125-1.5624 1.65375-.756-.03375-1.0584.320625-1.0584 1.06312502.0168 1.99125-.0168 3.9825.0168 5.990625.0336 1.45125.2688 1.6875 1.7304 1.755.6888.03375.9912.286875.8736.97875-.0336.219375-.0336.455625-.0336.675-.0168 1.636875-.0168 1.636875-1.6968 1.636875-3.5448 0-4.3512-.77625-4.4184-4.336875.0168-.97875.0336-1.9575.0336-2.953125z" fill="#214694"/><path d="m61.0511832 14.0231419c-.0672-.995625-.084-2.0925-.2352-3.1725-.1344-.89437502-.6888-1.24875002-1.5288-1.21500002-.8568.03375-1.3104.42187502-1.4784 1.29937502-.4032 2.05875-.42 4.134375 0 6.193125.1848.961875.588 1.333125 1.5288 1.333125.924 0 1.3944-.320625 1.5456-1.31625.1008-.995625.1008-2.025.168-3.121875zm-3.5448 7.0875c0 1.231875-.0168 2.345625 0 3.459375.0336 1.11375.0336 1.130625-1.092 1.11375-.2856 0-.5544-.03375-.84-.016875-1.9824.050625-1.6632.185625-1.6632-1.704375-.0168-5.484375.0168-10.96875-.0168-16.45312502 0-.84375.2184-1.198125 1.0752-1.11375.3024.03375.6216-.10125.924-.0675.4704.050625.924.151875 1.3776.354375 1.4616-.590625 2.9568-.84375 4.5528-.455625 1.2264.30375 2.0664 1.0125 2.352 2.26125.2016.928125.42 1.87312502.4368 2.81812502.0336 2.109375.0504 4.21875-.1176 6.31125-.2856 3.61125-3.108 5.16375-6.4512 3.661875-.1008-.050625-.2016-.0675-.5376-.16875zm19.3199832-11.45810815c.3528-.860625.7056-1.704375 1.0248-2.565.2352-.6075.6048-.894375 1.2768-.826875.588.050625 1.176.03375 1.764 0 .6888-.03375.756.27.504.826875-.8568 1.9575-1.6632 3.93187505-2.5368 5.87250005-.3192.70875-.2856 1.2825.0336 1.99125 1.008 2.12625 1.9488 4.269375 3.024 6.64875-.84 0-1.5288-.084375-2.184.016875-1.3608.219375-2.1336-.286875-2.52-1.636875-.2184-.77625-.6888-1.485-1.0416-2.2275-.1008.016875-.1848.03375-.2856.03375-.4032.97875-.8232 1.940625-1.176 2.93625-.2352.64125-.5712.945-1.2936.894375-.7896-.0675-1.596-.016875-2.52-.016875.1176-.354375.1848-.590625.2856-.81.84-1.9575 1.68-3.915 2.5368-5.8725.4536-.995625.4368-1.906875-.0504-2.9025-.7896-1.603125-1.4952-3.25687505-2.2344-4.89375005-.084-.2025-.1344-.405-.252-.77625 1.2768 0 2.4696-.050625 3.6288.03375.2352.016875.4704.50625.6216.826875.4032.826875.756 1.670625 1.1256 2.4975.084-.016875.1848-.03375.2688-.050625zm-6.9215496 4.18496625c0 2.295-.0168 4.606875.0168 6.901875 0 .658125-.2016.91125-.8736.860625s-1.344-.03375-2.016 0c-.504.03375-.7056-.151875-.7056-.675.0168-4.69125 0-9.3825 0-14.056875 0-.455625.1848-.658125.6552-.64125.7224.016875 1.4616.03375 2.184 0 .6048-.03375.756.253125.756.81-.0336 2.244375-.0168 4.5225-.0168 6.800625zm-.0336336-10.74940875v.84375c.0168.556875-.252.84375-.8064.860625h-1.932c-.5544 0-.8064-.30375-.8064-.860625 0-.219375-.0336-.455625 0-.675.1008-.6075.1008-1.6875.3528-1.755.8904-.219375 1.8648-.135 2.7888-.084375.1512 0 .336.421875.3864.658125.0672.320625.0168.675.0168 1.0125z" fill="#1a2745"/></g><g fill="#1a2745"><path d="m163.542619 41.1032056c1.373384 0 2.439966.4689148 3.199779 1.4067584.759812.9378436 1.139712 2.2651108 1.139712 3.9818414 0 1.7167307-.383079 3.050356-1.14925 4.0009161-.76617.9505602-1.829573 1.4258331-3.190241 1.4258331-.680334 0-1.301845-.1255738-1.864551-.3767251-.562707-.2511514-1.0348-.63741-1.416296-1.1587874h-.114448l-.333807 1.3447656h-1.134944v-14.8401085h1.583199v3.6051163c0 .8074993-.025433 1.5323302-.076299 2.1745146h.076299c.737558-1.0427549 1.831163-1.5641245 3.280847-1.5641245zm-.228897 1.3256909c-1.080904 0-1.85978.3099606-2.336649.9298911-.47687.6199306-.715301 1.6642594-.715301 3.1330178s.244789 2.5194454.734375 3.1520925c.489587.632647 1.27482.9489658 2.355725.9489658.972814 0 1.697645-.3544678 2.174514-1.063414.47687-.7089462.715301-1.7278423.715301-3.056719 0-1.360668-.238431-2.3747955-.715301-3.042413-.476869-.6676174-1.214417-1.0014212-2.212664-1.0014212zm5.290224-1.1540187h1.697648l2.288962 5.9608405c.502303 1.360668.813853 2.3430047.93466 2.9470395h.076299c.082657-.3242713.255917-.8790213.519785-1.6642666s1.126989-3.199759 2.589389-7.2436134h1.697648l-4.49209 11.9026063c-.445078 1.1762784-.964858 2.0107877-1.559356 2.503553-.594497.4927653-1.324097.7391442-2.18882.7391442-.483228 0-.960091-.0540444-1.430602-.1621348v-1.2684669c.349704.0762992.740732.1144482 1.173093.1144482 1.087263 0 1.862959-.610384 2.327113-1.8311702l.581778-1.4878258z"/><path d="m1.08662798 16.284778c0-1.9830464.78802715-3.6071963 2.3641051-4.8724983 1.57607796-1.265302 3.61458951-1.89794356 6.11559584-1.89794356 2.53060408 0 4.57651488.66593846 6.13779398 1.99783526 1.5612791 1.3318969 2.3789035 3.0189409 2.4528978 5.0611828h-3.6848962c-.1479886-1.213506-.6474424-2.1680178-1.4983765-2.8635639-.8509341-.6955462-1.9867291-1.043314-3.40741908-1.043314-1.40589113 0-2.53798648.3181706-3.39632001.9545213s-1.28749386 1.4576748-1.28749386 2.4639969c0 .7991381.30337196 1.4724758.91012497 2.0200334s1.55386546.976718 2.84136576 1.2874939l3.66269802.8879268c2.338219.5623564 3.9808671 1.3318853 4.9279938 2.3086097.9471266.9767243 1.4206828 2.2938026 1.4206828 3.9512742 0 2.0126442-.8472216 3.658992-2.5416904 4.9390929-1.6944688 1.2801008-3.8291715 1.9201417-6.40417206 1.9201417-2.70819028 0-4.86879055-.6363412-6.48186564-1.9090427-1.61307509-1.2727014-2.53059027-2.9893427-2.75257308-5.1499754h3.86248158c.23678166 1.317098.79912968 2.2975074 1.68706092 2.9412575.88793124.6437502 2.1162177.9656204 3.68489622.9656204 1.56867856 0 2.80436426-.3107713 3.70709436-.9323231.9027301-.6215519 1.3540884-1.4502753 1.3540884-2.4861951 0-.8287358-.2626757-1.4983739-.788035-2.0089343-.5253594-.5105605-1.4465742-.9286219-2.7636722-1.2541966l-3.66269805-.8879268c-4.30646651-1.0359198-6.45966747-3.1669228-6.45966747-6.393073zm20.70926192 16.715222v-23.0860968h3.6404999v3.6848962h.0887926c.6511496-1.2431037 1.5871631-2.2346121 2.8080685-2.9745548 1.2209055-.73994266 2.7266663-1.10990846 4.5173276-1.10990846 2.5306041 0 4.4951225.76212956 5.8936142 2.28641156 1.3984917 1.5242819 2.097727 3.5960904 2.097727 6.2154876v14.9837647h-3.8624815v-14.2956215c0-1.8646556-.4402593-3.2927236-1.3207912-4.2842468-.8805318-.9915232-2.208709-1.4872774-3.9845715-1.4872774-1.820259 0-3.2779243.5919453-4.3730395 1.7758536s-1.6426645 2.7525633-1.6426645 4.7060121v13.58528zm23.3064478 0v-23.0860968h3.8624816v23.0860968zm1.9312408-26.97077655c-.6511496 0-1.2134976-.23677811-1.687061-.71034144-.4735633-.47356333-.7103414-1.03591134-.7103414-1.68706092 0-.66594843.2367781-1.2319961.7103414-1.69816.4735634-.46616391 1.0359114-.69924236 1.687061-.69924236.6659484 0 1.2356957.23307845 1.7092591.69924236.4735633.4661639.7103414 1.03221157.7103414 1.69816 0 .65114958-.2367781 1.21349759-.7103414 1.68706092-.4735634.47356333-1.0433107.71034144-1.7092591.71034144zm17.5127254 3.48511269c2.9449719 0 5.3275517 1.08399976 7.1478107 3.25203186 1.8202591 2.1680322 2.7303749 5.0648644 2.7303749 8.6905836 0 3.6109204-.9027165 6.5040529-2.7081767 8.6794845-1.8054602 2.1754315-4.165842 3.263131-7.0812162 3.263131-1.6574717 0-3.1225362-.3773652-4.3952377-1.1321067-1.2727014-.7547416-2.2568105-1.7610485-2.9523566-3.0189511h-.0887927v11.4542557h-3.8624816v-30.7888618h3.6626981v3.9068779h.0887927c.710345-1.3022991 1.7129523-2.3456027 3.007852-3.1299419 1.2948997-.78433931 2.7784626-1.17650306 4.4507331-1.17650306zm-.7547378 20.48891096c2.0570407 0 3.6848902-.7695289 4.8835974-2.3086097s1.7980518-3.6182886 1.7980518-6.2376858c0-2.6045983-.5993446-4.6801064-1.7980518-6.2265867-1.1987072-1.5464802-2.8265567-2.3197087-4.8835974-2.3197087-1.9682476 0-3.5628002.7843274-4.7837056 2.353006-1.2209055 1.5686785-1.831349 3.6330877-1.831349 6.1932894 0 2.5750006.6104435 4.6431094 1.831349 6.2043885 1.2209054 1.5612791 2.815458 2.341907 4.7837056 2.341907zm24.8825179-20.48891096c2.9449719 0 5.3275517 1.08399976 7.1478107 3.25203186 1.8202591 2.1680322 2.7303749 5.0648644 2.7303749 8.6905836 0 3.6109204-.9027165 6.5040529-2.7081767 8.6794845-1.8054602 2.1754315-4.165842 3.263131-7.0812162 3.263131-1.6574717 0-3.1225363-.3773652-4.3952377-1.1321067-1.2727014-.7547416-2.2568105-1.7610485-2.9523566-3.0189511h-.0887927v11.4542557h-3.8624816v-30.7888618h3.6626981v3.9068779h.0887927c.710345-1.3022991 1.7129523-2.3456027 3.007852-3.1299419 1.2948997-.78433931 2.7784626-1.17650306 4.4507331-1.17650306zm-.7547378 20.48891096c2.0570407 0 3.6848902-.7695289 4.8835974-2.3086097s1.7980518-3.6182886 1.7980518-6.2376858c0-2.6045983-.5993446-4.6801064-1.7980518-6.2265867-1.1987072-1.5464802-2.8265567-2.3197087-4.8835974-2.3197087-1.9682476 0-3.5628002.7843274-4.7837056 2.353006-1.2209055 1.5686785-1.8313491 3.6330877-1.8313491 6.1932894 0 2.5750006.6104436 4.6431094 1.8313491 6.2043885 1.2209054 1.5612791 2.815458 2.341907 4.7837056 2.341907zm13.8722258 2.9967529v-23.0860968h3.862481v23.0860968zm1.931241-26.97077655c-.65115 0-1.213498-.23677811-1.687061-.71034144-.473564-.47356333-.710342-1.03591134-.710342-1.68706092 0-.66594843.236778-1.2319961.710342-1.69816.473563-.46616391 1.035911-.69924236 1.687061-.69924236.665948 0 1.235695.23307845 1.709259.69924236.473563.4661639.710341 1.03221157.710341 1.69816 0 .65114958-.236778 1.21349759-.710341 1.68706092-.473564.47356333-1.043311.71034144-1.709259.71034144zm6.302649 26.97077655v-23.0860968h3.6405v3.6848962h.088793c.651149-1.2431037 1.587163-2.2346121 2.808068-2.9745548 1.220906-.73994266 2.726666-1.10990846 4.517328-1.10990846 2.530604 0 4.495122.76212956 5.893614 2.28641156 1.398492 1.5242819 2.097727 3.5960904 2.097727 6.2154876v14.9837647h-3.862482v-14.2956215c0-1.8646556-.440259-3.2927236-1.320791-4.2842468s-2.208709-1.4872774-3.984571-1.4872774c-1.820259 0-3.277925.5919453-4.37304 1.7758536s-1.642664 2.7525633-1.642664 4.7060121v13.58528zm32.49649-3.2187346c2.012644 0 3.633095-.7658293 4.8614-2.2975106 1.228304-1.5316814 1.842448-3.570193 1.842448-6.1155959s-.614144-4.5913137-1.842448-6.137794c-1.228305-1.5464802-2.848756-2.3197087-4.8614-2.3197087-1.983046 0-3.573899.7621295-4.772606 2.2864115-1.198707 1.5242819-1.798052 3.5812918-1.798052 6.1710912 0 2.5897995.599345 4.63941 1.798052 6.1488931s2.78956 2.2642134 4.772606 2.2642134zm.133189 11.9204172c-2.545403 0-4.724501-.6400408-6.537361-1.9201417-1.812859-1.2801008-2.882061-2.9042507-3.207635-4.8724983h3.973472c.38477 1.0507187 1.109903 1.8979403 2.175421 2.5416905 1.065517.6437501 2.316002.9656204 3.75149.9656204 1.997846 0 3.566501-.5290511 4.706013-1.5871692 1.139511-1.058118 1.709259-2.4454898 1.709259-4.1621568v-3.6404999h-.088793c-.710345 1.2579026-1.712952 2.2642095-3.007852 3.0189511-1.2949.7547415-2.756265 1.1321067-4.384139 1.1321067-2.944972 0-5.305353-1.0729009-7.081216-3.2187347-1.775862-2.1458338-2.66378-5.0093691-2.66378-8.5906918 0-3.6257192.891617-6.5077528 2.674879-8.6461872s4.169542-3.20763556 7.15891-3.20763556c1.627874 0 3.092939.37736512 4.395238 1.13210666 1.302299.7547416 2.338203 1.8054444 3.107743 3.1521402h.066595v-3.8846798h3.684896v22.6199352c0 2.7525869-.943413 4.968682-2.830266 6.6483519-1.886854 1.67967-4.42112 2.5194923-7.602874 2.5194923zm24.348131-37.35952007h3.862482v5.57174067h4.48403v3.1743383h-4.48403v13.7184691c0 1.0507186.229379 1.8239471.688143 2.3197087.458765.4957616 1.183898.7436387 2.175421.7436387.221983 0 .510556-.0147986.865729-.0443963.355172-.0295977.599349-.0517957.732539-.0665945v3.2409328c-.236782.0591954-.588249.1035913-1.054413.133189s-.928621.0443964-1.387386.0443964c-2.116236 0-3.625696-.4735563-4.528426-1.4206829-.90273-.9471267-1.354089-2.5305803-1.354089-4.7504084v-13.9182526h-3.440716v-3.1743383h3.440716zm20.487281 29.05740457c-3.196553 0-5.778914-1.0729009-7.747162-3.2187347-1.968247-2.1458338-2.952356-5.053765-2.952356-8.7238808 0-3.6849146.984109-6.5965455 2.952356-8.7349799 1.968248-2.1384344 4.550609-3.20763556 7.747162-3.20763556 3.181753 0 5.756715 1.06920116 7.724963 3.20763556 1.968247 2.1384344 2.952356 5.0500653 2.952356 8.7349799 0 3.6701158-.984109 6.578047-2.952356 8.7238808-1.968248 2.1458338-4.54321 3.2187347-7.724963 3.2187347zm0-3.39632c2.042241 0 3.67749-.7436313 4.905795-2.2309161 1.228305-1.4872849 1.842448-3.5923903 1.842448-6.3153794s-.614143-4.8280945-1.842448-6.3153794c-1.228305-1.4872848-2.863554-2.230916-4.905795-2.230916-2.042242 0-3.681191.7436312-4.916895 2.230916-1.235704 1.4872849-1.853547 3.5923903-1.853547 6.3153794s.617843 4.8280945 1.853547 6.3153794c1.235704 1.4872848 2.874653 2.2309161 4.916895 2.2309161zm23.284249 3.39632c-3.196552 0-5.778914-1.0729009-7.747161-3.2187347-1.968248-2.1458338-2.952357-5.053765-2.952357-8.7238808 0-3.6849146.984109-6.5965455 2.952357-8.7349799 1.968247-2.1384344 4.550609-3.20763556 7.747161-3.20763556 3.181754 0 5.756716 1.06920116 7.724963 3.20763556 1.968248 2.1384344 2.952357 5.0500653 2.952357 8.7349799 0 3.6701158-.984109 6.578047-2.952357 8.7238808-1.968247 2.1458338-4.543209 3.2187347-7.724963 3.2187347zm0-3.39632c2.042242 0 3.677491-.7436313 4.905796-2.2309161 1.228305-1.4872849 1.842448-3.5923903 1.842448-6.3153794s-.614143-4.8280945-1.842448-6.3153794c-1.228305-1.4872848-2.863554-2.230916-4.905796-2.230916s-3.68119.7436312-4.916894 2.230916c-1.235705 1.4872849-1.853548 3.5923903-1.853548 6.3153794s.617843 4.8280945 1.853548 6.3153794c1.235704 1.4872848 2.874652 2.2309161 4.916894 2.2309161zm13.916622 2.9967529s0-.7695289 0-2.3086097 0-3.5257971 0-5.9602086 0-5.0167728 0-7.7471614c0-2.7303885 0-5.3127498 0-7.74716128 0-2.43441149 0-4.42112783 0-5.96020865 0-1.53908081 0-2.30860968 0-2.30860968h3.862482v32.03195931z" stroke="#1a2745" stroke-width=".927793"/></g></g></svg>