<svg class="svg-icon" viewBox="0 0 186 35" xmlns="http://www.w3.org/2000/svg"><path d="m1.49900873 13.1024374c0-1.5920834.63266545-2.8960277 1.89801533-3.91187195 1.26534988-1.01584427 2.90196333-1.52375879 4.90988944-1.52375879 2.0316885 0 3.6742425.53464686 4.9277112 1.60395662 1.2534686 1.06930972 1.9098962 2.42374852 1.9693023 4.06335682h-2.9584089c-.1188122-.97426-.5197974-1.7405872-1.2029675-2.2990045-.6831701-.5584174-1.59504003-.8376218-2.7356371-.8376218-1.12871586 0-2.03761553.2554424-2.72672626.7663348s-1.03366093 1.1702902-1.03366093 1.9782132c0 .6415858.24356134 1.1821732.73069135 1.6217783.48713.4396052 1.24751664.7841554 2.28118275 1.033661l2.94058709.7128696c1.8772327.4514863 3.1960283 1.0693005 3.9564264 1.853461.760398.7841604 1.1405914 1.8415731 1.1405914 3.1722697 0 1.6158459-.6801897 2.9376117-2.0405893 3.9653372s-3.0742399 1.5415806-5.14157206 1.5415806c-2.17426318 0-3.90889522-.5108848-5.20394815-1.5326697s-2.0316775-2.3999857-2.20989579-4.1346437h3.1009828c.19009951 1.0574285.64157908 1.8445475 1.35445226 2.3613805.71287317.5168331 1.6989996.7752457 2.95840888.7752457 1.25940927 0 2.25147626-.2495018 2.97623066-.7485131.7247543-.4990112 1.0871261-1.1643495 1.0871261-1.9960349 0-.6653483-.2108885-1.2029654-.6326718-1.6128674-.4217833-.4099021-1.1613781-.7455415-2.21880663-1.0069284l-2.94058714-.7128696c-3.45743489-.8316854-5.1861264-2.5425553-5.1861264-5.1326612zm16.71548307 13.4197704v-18.53460982h2.9227654v2.95840892h.071287c.5227736-.99802248 1.2742495-1.79405225 2.2544501-2.38811323s2.1890966-.89108701 3.6267241-.89108701c2.0316886 0 3.6088968.61187363 4.7316721 1.83563924 1.1227752 1.2237656 1.6841544 2.8871114 1.6841544 4.9900873v12.0296746h-3.1009828v-11.4772007c0-1.4970336-.3534609-2.6435541-1.0603935-3.4395958-.7069326-.7960418-1.773256-1.1940566-3.1990024-1.1940566-1.46139 0-2.6316726.4752416-3.5108828 1.4257392-.8792103.9504975-1.3188088 2.2098879-1.3188088 3.7782089v10.906905zm18.8006267 0v-18.53460982h3.1009828v18.53460982zm1.5504914-21.65341436c-.5227737 0-.9742532-.19009666-1.3544523-.57029568-.380199-.38019903-.5702956-.8316786-.5702956-1.35445226 0-.53465488.1900966-.98910471.5702956-1.36336313.3801991-.37425842.8316786-.56138482 1.3544523-.56138482.5346549 0 .992075.1871264 1.372274.56138482s.5702957.82870825.5702957 1.36336313c0 .52277366-.1900967.97425323-.5702957 1.35445226-.380199.38019902-.8376191.57029568-1.372274.57029568zm14.1491525 2.79801322c2.3643627 0 4.2772103.87028628 5.7386004 2.61088494 1.46139 1.7405987 2.192074 4.0663125 2.192074 6.9772113 0 2.8990176-.7247435 5.2217612-2.1742523 6.9683004-1.4495088 1.7465393-3.3445349 2.6197959-5.6851351 2.6197959-1.3306966 0-2.5069197-.3029666-3.5287046-.9089088s-1.8118741-1.413853-2.3702915-2.4237567h-.0712869v9.196018h-3.1009828v-24.71875372h2.9405871v3.13662632h.071287c.5702985-1.0455474 1.3752391-1.88316077 2.4148458-2.51286541 1.0396067-.62970463 2.2306811-.94455223 3.5732589-.94455223zm-.6059392 16.44946624c1.6514895 0 2.9584041-.6178142 3.9207829-1.853461s1.4435609-2.9049331 1.4435609-5.007909c0-2.0910946-.4811821-3.7574107-1.4435609-4.9989981-.9623788-1.2415875-2.2692934-1.8623719-3.9207829-1.8623719-1.5802022 0-2.8603844.6296952-3.840585 1.8891045s-1.4702936 2.9168145-1.4702936 4.9722655c0 2.0673322.490093 3.7277077 1.4702936 4.9811764s2.2603828 1.8801936 3.840585 1.8801936zm20.0659703-16.44946624c2.3643627 0 4.2772103.87028628 5.7386003 2.61088494 1.46139 1.7405987 2.1920741 4.0663125 2.1920741 6.9772113 0 2.8990176-.7247435 5.2217612-2.1742523 6.9683004-1.4495088 1.7465393-3.3445349 2.6197959-5.6851352 2.6197959-1.3306966 0-2.5069196-.3029666-3.5287045-.9089088s-1.8118742-1.413853-2.3702915-2.4237567h-.0712869v9.196018h-3.1009828v-24.71875372h2.9405871v3.13662632h.071287c.5702985-1.0455474 1.375239-1.88316077 2.4148458-2.51286541 1.0396067-.62970463 2.2306811-.94455223 3.5732589-.94455223zm-.6059392 16.44946624c1.6514895 0 2.9584041-.6178142 3.9207829-1.853461.9623787-1.2356468 1.4435609-2.9049331 1.4435609-5.007909 0-2.0910946-.4811822-3.7574107-1.4435609-4.9989981-.9623788-1.2415875-2.2692934-1.8623719-3.9207829-1.8623719-1.5802022 0-2.8603844.6296952-3.840585 1.8891045s-1.4702936 2.9168145-1.4702936 4.9722655c0 2.0673322.490093 3.7277077 1.4702936 4.9811764s2.2603828 1.8801936 3.840585 1.8801936zm11.2263871 2.4059349v-18.53460982h3.1009828v18.53460982zm1.5504914-21.65341436c-.5227737 0-.9742532-.19009666-1.3544523-.57029568-.380199-.38019903-.5702956-.8316786-.5702956-1.35445226 0-.53465488.1900966-.98910471.5702956-1.36336313.3801991-.37425842.8316786-.56138482 1.3544523-.56138482.5346549 0 .992075.1871264 1.372274.56138482s.5702957.82870825.5702957 1.36336313c0 .52277366-.1900967.97425323-.5702957 1.35445226-.380199.38019902-.8376191.57029568-1.372274.57029568zm5.1491737 21.65341436v-18.53460982h2.9227654v2.95840892h.0712869c.5227737-.99802248 1.2742496-1.79405225 2.2544502-2.38811323s2.1890965-.89108701 3.6267241-.89108701c2.0316889 0 3.6088969.61187363 4.7316719 1.83563924 1.122775 1.2237656 1.684155 2.8871114 1.684155 4.9900873v12.0296746h-3.100983v-11.4772007c0-1.4970336-.353461-2.6435541-1.060394-3.4395958-.7069323-.7960418-1.7732558-1.1940566-3.1990021-1.1940566-1.46139 0-2.6316726.4752416-3.5108828 1.4257392-.8792103.9504975-1.3188088 2.2098879-1.3188088 3.7782089v10.906905zm26.1788275-2.5841523c1.615845 0 2.91682-.6148439 3.902961-1.8445501s1.479204-2.8663197 1.479204-4.9098895c0-2.0435697-.493063-3.6861237-1.479204-4.9277111-.986141-1.2415875-2.287116-1.8623719-3.902961-1.8623719-1.592084 0-2.869296.6118736-3.831675 1.8356393-.962378 1.2237656-1.44356 2.8752303-1.44356 4.9544437 0 2.0792135.481182 3.7247377 1.44356 4.9366221.962379 1.2118844 2.239591 1.8178175 3.831675 1.8178175zm.10693 9.5702745c-2.04357 0-3.793053-.513855-5.248502-1.5415805-1.45545-1.0277255-2.313855-2.3316698-2.575242-3.911872h3.190092c.308911.8435666.891082 1.5237562 1.74653 2.0405892.855448.5168331 1.859396.7752457 3.011874.7752457 1.603965 0 2.863355-.4247472 3.778209-1.2742544s1.372274-1.9633548 1.372274-3.3415763v-2.9227654h-.071287c-.570298 1.0099037-1.375239 1.8178145-2.414846 2.4237567-1.039606.6059422-2.212859.9089087-3.519793.9089087-2.364363 0-4.259389-.8613754-5.685135-2.5841523-1.425747-1.7227768-2.138609-4.0217583-2.138609-6.8970135 0-2.9108987.715832-5.2247315 2.147519-6.9415678 1.431687-1.7168362 3.347505-2.57524144 5.747512-2.57524144 1.306934 0 2.483157.30296655 3.528704.90890875 1.045548.6059422 1.87722 1.44949609 2.495044 2.53068709h.053465v-3.11880452h2.958409v18.16035332c0 2.2099068-.757416 3.9890928-2.272272 5.3376112-1.514855 1.3485184-3.549484 2.0227675-6.103946 2.0227675zm19.726048-29.99398881h3.100983v4.47325679h3.599991v2.54850882h-3.599991v11.0138355c0 .8435666.184156 1.464351.552474 1.8623719.368318.3980208.950489.5970283 1.74653.5970283.178219 0 .409899-.0118811.695048-.0356435.285149-.0237625.481187-.041584.588118-.0534652v2.601974c-.1901.0475249-.472275.083168-.846533.1069305-.374258.0237624-.745541.0356434-1.113859.0356434-1.699014 0-2.91088-.3801933-3.635635-1.1405913-.724754-.7603981-1.087126-2.0316695-1.087126-3.8138524v-11.1742312h-2.76237v-2.54850882h2.76237zm16.537266 23.32865801c-2.566344 0-4.639585-.8613755-6.219788-2.5841524-1.580202-1.7227768-2.370291-4.0574014-2.370291-7.0039439 0-2.9584237.790089-5.2960185 2.370291-7.0128548 1.580203-1.7168362 3.653444-2.57524144 6.219788-2.57524144 2.554462 0 4.621763.85840524 6.201965 2.57524144 1.580202 1.7168363 2.370292 4.0544311 2.370292 7.0128548 0 2.9465425-.79009 5.2811671-2.370292 7.0039439-1.580202 1.7227769-3.647503 2.5841524-6.201965 2.5841524zm0-2.7267263c1.639608 0 2.952463-.5970223 3.938604-1.7910849s1.479205-2.8841407 1.479205-5.0702851-.493064-3.8762225-1.479205-5.0702851-2.298996-1.7910849-3.938604-1.7910849c-1.639609 0-2.955434.5970223-3.947516 1.7910849s-1.488115 2.8841407-1.488115 5.0702851.496033 3.8762225 1.488115 5.0702851 2.307907 1.7910849 3.947516 1.7910849zm18.782805 2.7267263c-2.566344 0-4.639586-.8613755-6.219788-2.5841524-1.580202-1.7227768-2.370291-4.0574014-2.370291-7.0039439 0-2.9584237.790089-5.2960185 2.370291-7.0128548 1.580202-1.7168362 3.653444-2.57524144 6.219788-2.57524144 2.554462 0 4.621763.85840524 6.201965 2.57524144 1.580202 1.7168363 2.370292 4.0544311 2.370292 7.0128548 0 2.9465425-.79009 5.2811671-2.370292 7.0039439-1.580202 1.7227769-3.647503 2.5841524-6.201965 2.5841524zm0-2.7267263c1.639608 0 2.952463-.5970223 3.938604-1.7910849s1.479205-2.8841407 1.479205-5.0702851-.493064-3.8762225-1.479205-5.0702851-2.298996-1.7910849-3.938604-1.7910849c-1.639609 0-2.955434.5970223-3.947516 1.7910849s-1.488115 2.8841407-1.488115 5.0702851.496033 3.8762225 1.488115 5.0702851 2.307907 1.7910849 3.947516 1.7910849zm11.26203 2.4059349s0-.6178141 0-1.853461c0-1.2356468 0-2.8306766 0-4.7851372s0-4.0277023 0-6.2197874c0-2.192085 0-4.26532667 0-6.21978729s0-3.54949042 0-4.78513726c0-1.23564683 0-1.85346098 0-1.85346098h3.100983v25.71677113z" fill="#1a2745" fill-rule="evenodd" stroke="#1a2745" stroke-width="1.209442"/></svg>