<svg class="svg-icon" viewBox="0 0 546 98" xmlns="http://www.w3.org/2000/svg"><path d="m452.915 70.4868c-5.212.645-9.732.805-14.038 1.852-4.143 1.006-6.952 3.83-7.177 8.515-.206 4.31.007 8.501 4.384 10.865 4.384 2.369 8.717 1.361 11.958-1.874 2.216-2.212 3.916-5.408 4.698-8.459.793-3.093.175-6.548.175-10.899zm-193.8618-2.9438c.267-6.117.986-12.223-4.664-15.989-3.929-2.619-8.784-2.695-12.693.175-5.367 3.94-4.911 9.87-4.571 15.814zm-198.8911 29.1841c-20.054.091-40.108.182-60.162.273v-1c2.127-1.707 4.412-3.252 6.355-5.148 15.449-15.059 30.831-30.187 46.245-45.283.934-.915 1.962-1.734 3.112-2.743 6.867 5.098 13.631 10.118 20.394 15.139-.106 1.737.114 3.57-.372 5.193-2.811 9.4-5.788 18.75-8.71 28.117-2.287 1.817-4.574 3.635-6.862 5.452zm181.8381 1.2729c-10.39-4.64-12.083-13.548-11.576-23.549.261-5.14.04-10.349.815-15.408 1.467-9.579 7.817-14.281 18.018-14.043 9.514.221 14.477 4.627 15.804 14.423.571 4.212.616 8.495.937 13.313h-28.298c-2.324 10.455 1.281 18.573 8.501 19.954 6.893 1.319 11.69-2.616 13.236-11.19h5.593c.967 7.821-2.196 12.17-12.03 16.5zm209.8078-5.0762c-2.937 1.692-5.872 3.384-8.808 5.076h-9c-6.281-3.821-9.798-9.007-9.078-16.757.604-6.521 3.493-11.309 9.771-12.962 5.717-1.504 11.7-2.002 17.692-2.963 1.723-7.82-.421-13.381-5.981-14.981-6.486-1.867-11.142.809-14.146 8.276h-5.762c.176-1.464.136-2.749.501-3.904 2.342-7.397 10.262-11.021 20.731-9.57 7.687 1.065 11.273 5.316 11.325 13.772.076 12.431.019 24.863.019 37.671-2.708.29-6.113 1.772-6.065-3.582-.106-.255-.211-.511-.316-.766-.295.23-.589.46-.883.69zm-83.808 5.0762c-6.435-3.295-10.175-8.192-9.437-16.173h5.989c.155 1.316.302 2.59.456 3.864.471 3.899 2.476 6.612 6.438 7.187 3.668.533 8.175.812 9.495-3.316 1.033-3.226 1.034-7.91-.66-10.582-1.936-3.056-6.104-4.882-9.57-6.747-6.738-3.625-11.97-8.043-10.705-16.657.259-1.762.751-3.63 1.661-5.129 2.933-4.826 12.089-7.025 18.586-4.677 5.646 2.04 8.149 6.5 7.511 13.853-1.53.091-3.119.187-5.04.302-.31-1.481-.533-2.735-.837-3.968-.906-3.665-3.213-5.681-7.026-5.942-3.634-.249-6.654.784-8.217 4.303-1.537 3.458-.772 6.862 2.137 8.985 3.862 2.818 8.242 4.915 12.35 7.405 7.662 4.648 10.287 13.909 5.314 21.023-1.905 2.726-5.578 4.216-8.445 6.269zm139 0c-8.237-5.535-9.201-7.109-9.397-15.779h5.894c.149.893.371 1.835.45 2.789.358 4.311 2.327 7.352 6.827 7.92 3.714.469 7.442.362 9.591-3.576 1.998-3.663 1.33-9.337-1.977-11.91-2.987-2.322-6.465-4.039-9.816-5.86-6.323-3.435-10.734-8.022-9.542-15.853.314-2.06 1.035-4.255 2.206-5.949 3.098-4.485 12.303-6.271 18.404-3.883 5.348 2.095 7.692 6.393 7.203 13.62h-4.499c-1.541-2.966-2.386-6.012-4.324-7.982-2.78-2.825-8.805-1.918-11.316 1.034-2.751 3.234-2.442 8.199 1.419 11.049 3.983 2.939 8.633 4.958 12.8 7.672 7.216 4.702 9.401 13.505 4.546 20.434-1.912 2.729-5.593 4.219-8.469 6.274zm-221 0c-9.57-3.742-11.971-11.65-11.844-20.826.092-6.634-.005-13.356 1.026-19.873 1.703-10.773 15.039-16.199 24.224-10.209 4.646 3.029 6.291 7.492 5.448 13.316h-5.163c-2.05-8.416-4.001-10.533-9.516-10.421-4.201.085-7.637 2.218-7.933 6.162-.691 9.224-1.049 18.554-.436 27.767.425 6.396 3.919 9.034 8.709 8.99 5.112-.047 7.435-2.629 8.623-9.559.052-.308.241-.593.494-1.192.802-.09 1.755-.267 2.711-.283.788-.013 1.579.166 2.292.251 1.05 8.048-.888 11.167-9.635 15.877zm-171.1655-40.0527c6.785-5.039 13.569-10.077 21.5-15.967 17.379 18.49 34.691 36.907 51.451 54.737h-56.998c-2.551-1.849-5.101-3.698-7.651-5.546-.197-1.415-.211-2.884-.62-4.234-2.409-7.947-4.975-15.847-7.325-23.811-.478-1.62-.256-3.447-.357-5.179zm207.0581 38.6767h-5.746v-72.144h5.694v25.307c4.131-1.672 7.878-4.131 11.86-4.601 8.264-.974 13.934 4.091 14.148 12.426.328 12.802.086 25.618.086 39.008-1.865.084-3.575.16-6.012.269 0-7.966.062-15.565-.02-23.162-.058-5.314-.046-10.652-.56-15.931-.43-4.411-3.024-7.32-7.73-7.766-4.959-.469-8.502 1.784-10.235 6.262-.991 2.563-1.38 5.493-1.422 8.267-.158 10.475-.063 20.955-.063 32.065zm-114.1216-45.4575c-3.049-.152-5.352-.267-8.115-.404-.08-1.449-.156-2.819-.248-4.494 2.836-.185 5.267-.344 7.751-.506 2.109-4.117-2.629-11.68 6.639-12.261v12.336h9.522c.68 4.408.68 4.408-9.428 5.563v21.152c.001 3.992-.036 7.985.011 11.977.072 6.225.717 6.849 6.889 6.916.814.009 1.628.001 2.904.001.108 1.736.203 3.278.341 5.498-2.863 0-5.314.14-7.745-.028-5.731-.395-8.388-3.091-8.462-8.92-.131-10.312-.051-20.627-.059-30.94-.001-1.8 0-3.598 0-5.89zm194.2544.001c-2.12-.141-4.241-.281-6.792-.45-.112-1.398-.221-2.754-.354-4.422 2.634-.188 4.893-.349 7.152-.51.234-.248.469-.496.703-.744.065-1.495.367-3.025.152-4.479-.638-4.324 1.119-6.602 5.898-7.01v12.219h9.499c.976 4.634.976 4.634-9.279 5.499v16.2c0 4.832-.003 9.664 0 14.496.007 9.317.083 9.398 9.523 10.04 1.483 3.518.488 4.984-3.532 5.041-9.232.13-12.007-2.406-12.063-11.613-.068-11.16-.133-22.319-.198-33.478-.236-.263-.473-.526-.709-.789zm77.7158-1.791c3.949-1.708 7.897-3.415 12.638-5.464v6.616c-12.042 2.81-14.16 5.5-14.211 17.847-.037 8.996-.073 17.993-.131 26.989-.002.298-.236.595-.526 1.277-1.416.079-3.008.168-5.016.28v-50.652c2.6-.14 5.599-1.733 5.929 2.735v2.583c.557-.503.871-.665.985-.918.181-.399.228-.859.332-1.293zm55.2588-9.3765c-6.075132 0-11-4.9248678-11-11s4.924868-11 11-11 11 4.9248678 11 11-4.924868 11-11 11zm0-2c4.970563 0 9-4.0294373 9-9s-4.029437-9-9-9-9 4.0294373-9 9 4.029437 9 9 9zm-1.787422-9.8153613h1.234463c.827937 0 1.427811-.1536866 1.799639-.4610645.371828-.3073778.557739-.76348.557739-1.3683203 0-.6147557-.200784-1.055985-.602358-1.3237012-.401575-.2677161-1.006406-.4015722-1.814512-.4015722h-1.174971zm0 1.4724316v4.3429297h-1.777329v-10.8721973h3.071284c1.403031 0 2.441655.2627546 3.115904.7882715.674248.525517 1.011367 1.3187382 1.011367 2.3796875 0 1.3534541-.703984 2.3177136-2.111973 2.8928076l3.071284 4.8114307h-2.022734l-2.602783-4.3429297z" fill="#5b94a5"/><path d="m95 51-19.9846986 10.5065778 3.8167378-22.2532889-16.1679608-15.7598667 22.3435723-3.2467111 9.9923493-20.2467111 9.992349 20.2467111 22.343573 3.2467111-16.167961 15.7598667 3.816738 22.2532889zm-27.9756 40.2749c7.89-5.221 16.014-10.129 23.571-15.793 3.86-2.894 6.351-2.411 9.901.194 7.366 5.408 15.07 10.356 22.638 15.494 2.552 1.85 5.102 3.698 7.653 5.547-23.542.003-47.083.007-70.625.01 2.287-1.817 4.575-3.635 6.862-5.452z" fill="#00b344"/></svg>