<svg class="svg-icon" viewBox="0 0 18 15" xmlns="http://www.w3.org/2000/svg"><path d="m17.713722 1.74496516c-.3999319.17766647-.8150921.31782996-1.2410921.41930341.4694031-.44687007.8223332-1.00580937 1.0214433-1.62968641.0568322-.17810612-.1362656-.33211889-.2968-.23675672-.5926347.35216738-1.2309984.61635886-1.8974052.78532006-.0386634.00980441-.0785557.01477257-.1185796.01477257-.1213883 0-.2393973-.04515305-.3322159-.12710561-.70902-.62603137-1.6209243-.97081246-2.5676739-.97081246-.4096745 0-.8232987.06397048-1.2294185.1901528-1.25829535.39098932-2.22918222 1.43082834-2.53379398 2.71375519-.11427878.48120748-.14521831.96285462-.09202864 1.4315318.00610013.05385831-.01930978.09144921-.03497704.10907956-.02751643.03090807-.06653096.04862636-.10703761.04862636-.00452024 0-.00917214-.00021983-.01378016-.00065949-2.75436432-.25636554-5.23812844-1.58576441-6.99378226-3.74326222-.08952715-.11004681-.26120864-.09654926-.33256704.02607182-.34380183.59090256-.52548929 1.26674737-.52548929 1.95446298 0 1.0539521.42266472 2.04718721 1.15683126 2.77126268-.30873702-.07333523-.60755584-.18883382-.8851339-.34328625-.13429073-.07474214-.29952099.02132349-.30140808.17520436-.01922201 1.56571593.89579816 2.95890941 2.26652911 3.58625976-.02760421.00065949-.05520842.00096725-.08285651.00096725-.21727889 0-.4372787-.02101573-.65381154-.06247563-.15123067-.02892961-.27828023.11479513-.23132236.26168542.44491484 1.39156671 1.64089229 2.41729271 3.07209795 2.65018041-1.18781468.7988176-2.57105309 1.2201874-4.01072872 1.2201874l-.44882069-.0002638c-.13828434 0-.25524016.0903061-.2904805.2244902-.03471372.1321617.02922798.2715778.14714929.3402966 1.62228469.9458398 3.47273196 1.4457328 5.35210002 1.4457328 1.64506145 0 3.18387523-.3270628 4.57374039-.9720435 1.2741382-.5912983 2.4000738-1.4365439 3.3465163-2.5122592.8816669-1.0020722 1.5711137-2.15886074 2.0491185-3.43818237.4556669-1.21948396.6965125-2.52070065.6965125-3.76300294v-.05917819c-.0000439-.19947358.0900099-.38716428.2471213-.51492937.5961894-.48494459 1.1153591-1.05579867 1.5430268-1.69669054.1129183-.16922499-.0651705-.38131681-.2509832-.29874873z"/></svg>