<?xml version="1.0" encoding="UTF-8"?>
<svg width="375px" height="416px" viewBox="0 0 375 416" version="1.1" xmlns="http://www.w3.org/2000/svg" xmlns:xlink="http://www.w3.org/1999/xlink">
    <g id="Page-1" stroke="none" stroke-width="1" fill="none" fill-rule="evenodd">
        <path d="M338,342 C358.3,342 375.1,358.9 375,379 C374.9,399.3 358.1,416 338,416 C317.8,416 301,399.1 301,379 C301,358.8 317.9,341.9 338,342 Z M338,392.4 C340.7,392.4 343.3,392.4 346,392.4 C346.6,392.4 346.8,392.2 346.9,391.7 C348.5,386.6 350.2,381.6 351.8,376.6 C351.9,376.2 351.9,375.9 351.5,375.6 C347.2,372.5 342.9,369.4 338.6,366.2 C338.1,365.9 337.9,365.9 337.4,366.2 C333.2,369.3 328.9,372.4 324.6,375.5 C324.2,375.8 324,376 324.2,376.6 C325.9,381.6 327.5,386.7 329.1,391.7 C329.3,392.2 329.5,392.4 330,392.4 C332.7,392.4 335.3,392.4 338,392.4 Z M339.6,358.1 C339.6,359.6 339.6,361.1 339.6,362.5 C339.6,362.8 339.8,363.2 340,363.4 C344.6,366.8 349.2,370.2 353.8,373.5 C354,373.7 354.5,373.7 354.7,373.6 C357,372.4 359.3,371.2 361.5,369.9 C361.7,369.8 362,369.4 362,369.1 C362.4,365 362.8,360.8 363.1,356.7 C363.1,356.4 363,356.1 362.8,355.9 C359.8,352.6 356.2,350 352.1,348.2 C351.8,348.1 351.3,348.1 351,348.2 C347.3,349.7 343.7,351.3 340,352.9 C339.6,353.1 339.4,353.3 339.5,353.7 C339.6,355.1 339.6,356.6 339.6,358.1 Z M336.5,358.1 C336.5,356.6 336.5,355.1 336.5,353.7 C336.5,353.2 336.3,353 335.9,352.8 C332.2,351.2 328.6,349.7 325,348.1 C324.5,347.9 324.1,347.9 323.7,348.1 C319.9,349.9 316.5,352.3 313.6,355.3 C313,355.9 312.9,356.4 312.9,357.2 C313.3,361.1 313.6,365 313.9,369 C313.9,369.5 314.1,369.7 314.5,369.9 C316.9,371 319.2,372.2 321.6,373.4 C322,373.6 322.2,373.5 322.5,373.3 C327,370 331.5,366.7 336,363.4 C336.2,363.2 336.4,362.8 336.4,362.6 C336.5,361.1 336.5,359.6 336.5,358.1 Z M312.9,372.5 C310.1,375.8 307.3,379 304.5,382.2 C304.3,382.4 304.3,382.7 304.3,382.9 C304.8,387.3 306.1,391.4 308.2,395.3 C308.4,395.6 308.8,395.9 309.1,396 C313.1,397 317.1,397.9 321.1,398.8 C321.5,398.9 321.8,398.8 322.1,398.5 C323.5,397 324.8,395.4 326.2,393.9 C326.4,393.7 326.4,393.3 326.4,393.1 C324.7,387.7 322.9,382.3 321.2,377 C321.1,376.7 320.9,376.5 320.7,376.3 C318.1,375 315.5,373.8 312.9,372.5 Z M371.8,382.7 C371.6,382.4 371.5,382.2 371.4,382 C368.8,379 366.2,376 363.6,373 C363.3,372.6 363.1,372.6 362.7,372.8 C360.3,374.1 357.8,375.4 355.4,376.7 C355.1,376.8 354.9,377.2 354.8,377.5 C353.1,382.7 351.5,387.8 349.8,393 C349.7,393.5 349.7,393.7 350,394.1 C351.3,395.6 352.7,397 354,398.5 C354.3,398.9 354.6,398.9 355.1,398.8 C359,397.9 362.9,397 366.9,396.1 C367.4,396 367.7,395.8 367.9,395.3 C368.8,393.2 369.8,391.1 370.5,388.9 C371.1,386.9 371.4,384.8 371.8,382.7 Z M324.2,400.8 C324.2,400.9 324.2,401 324.3,401 C326.4,404.6 328.6,408.2 330.7,411.8 C330.8,412 331.1,412.2 331.4,412.2 C335.8,413.1 340.2,413 344.6,412.2 C344.9,412.1 345.2,411.9 345.3,411.7 C347.4,408.2 349.4,404.8 351.5,401.3 C351.7,401 351.7,400.8 351.4,400.5 C350,399 348.7,397.4 347.3,395.9 C347.1,395.7 346.8,395.5 346.5,395.5 C340.8,395.5 335.1,395.5 329.4,395.5 C329.2,395.5 328.9,395.5 328.7,395.7 C327.3,397.4 325.7,399.1 324.2,400.8 Z M326.5,410.8 C324.8,408 323.2,405.2 321.5,402.4 C321.3,402.1 321,402 320.7,401.9 C319,401.5 317.2,401.1 315.4,400.7 C314,400.4 312.6,400.1 311.3,399.8 C315.2,405 320.3,408.7 326.5,410.8 Z M304.3,377.8 C304.5,377.6 304.7,377.3 304.9,377.1 C306.7,375 308.5,372.9 310.4,370.8 C310.8,370.3 311,369.9 310.9,369.2 C310.7,367.5 310.6,365.8 310.4,364.1 C310.3,362.7 310.1,361.3 310,359.6 C306.3,365.3 304.4,371.2 304.3,377.8 Z M364.9,399.8 C364.6,399.8 364.5,399.8 364.4,399.8 C361.4,400.5 358.3,401.2 355.3,401.9 C355,402 354.6,402.3 354.4,402.6 C352.8,405.2 351.3,407.8 349.8,410.3 C349.7,410.5 349.6,410.6 349.5,410.9 C355.8,408.6 360.8,405 364.9,399.8 Z M366,360 C365.7,363.1 365.5,366.2 365.2,369.3 C365.1,369.8 365.3,370.2 365.6,370.6 C367.5,372.8 369.4,375 371.3,377.2 C371.4,377.4 371.6,377.5 371.9,377.8 C371.6,371.2 369.7,365.3 366,360 Z M347.4,346.4 C341,344.7 335,344.7 328.7,346.3 C331.8,347.6 334.8,348.9 337.7,350.1 C337.9,350.2 338.2,350.2 338.4,350.1 C341.3,348.9 344.3,347.7 347.4,346.4 Z M366.9,305.1 C366.3,308 365.7,310.8 365.1,313.7 C364.7,313.6 364.2,313.6 363.8,313.5 C363.8,307.8 363.8,302 363.8,296.3 C364.2,296.2 364.7,296.1 365.1,296.1 C365.6,297.4 366.3,298.7 366.9,300.1 C366.9,301.8 366.9,303.4 366.9,305.1 Z M361.4,329.8 C360.3,333 359.2,336.1 358,339.3 C357.3,339 356.5,338.8 355.8,338.5 C356.9,335.3 358,332.2 359.1,329 C359.9,329.3 360.6,329.5 361.4,329.8 Z M164.9,350.1 C162.4,349.3 159.8,348.7 157.4,347.7 C145.6,343.3 140.7,334.2 145.9,322.8 C150.2,313.2 155.7,303.8 162.6,295.8 C188.4,265.9 220.1,245.6 259.5,238.6 C266.8,237.3 274.4,237 281.9,237.1 C289.2,237.2 296.4,238.5 304.2,239.4 C318.2,211.9 330.2,183.5 326.9,151.3 C324.4,127.2 310.2,110.9 290.1,99.1 C283.6,95.3 276.1,93 269.2,89.9 C265.8,88.4 264,89.2 262.2,92.6 C225.2,159.7 173.2,212.1 107,250.6 C88.7,261.3 69.6,270.3 48.3,273.5 C37.8,275 27.5,274.9 17.5,270.1 C8.3,265.7 2.8,258.5 0,249 C0,244.7 0,240.3 0,236 C8.7,201 33.1,177.5 59.3,155.5 C92.1,128.1 128,105.6 169,92.4 C195.4,83.9 222.4,79.6 250.2,82.9 C251.2,83 252.2,83.1 253.2,83.3 C263.1,85 263.1,85 267.2,76 C277.9,52.8 285.4,28.7 284.9,2.6 C284.9,1.8 285.2,1.1 285.3,0.3 C285.8,0.2 286.3,0.1 286.9,0 C287.2,1.8 287.8,3.5 287.8,5.3 C287.9,23.9 283.9,41.7 277.5,58.9 C274.1,67.9 270.1,76.7 266.2,85.9 C267.4,86.3 268.8,86.6 270.1,87.2 C278,90.7 286.3,93.5 293.6,98 C322.1,115.2 334.4,142.9 329.4,175.9 C326.2,197.1 318.8,216.7 309.2,235.7 C308.5,237.2 307.7,238.7 306.8,240.5 C328.1,248.1 348.3,256.8 360.2,277.1 C359.8,277.6 359.5,278.1 359.1,278.6 C358.2,277.8 357,277.3 356.4,276.3 C344.7,259.1 327.1,250.7 308.3,244.2 C305.1,243.1 304.3,245.1 303.1,247.2 C291,268.4 276.9,288.2 259.7,305.6 C239.1,326.5 215,341.8 186.1,348.5 C184,349 182,349.5 179.9,350.1 C174.9,350.1 169.9,350.1 164.9,350.1 Z M262.6,88.5 C259.5,87.7 258.4,87.3 257.2,87.1 C233.3,82.8 209.7,84.6 186.4,90.6 C125.9,106.2 76.4,140 33.2,184 C21.8,195.6 12.2,208.6 6.6,224.1 C5,228.6 3.6,233.3 3.1,238.1 C1,256.4 12.5,269.6 31.6,271.1 C50.9,272.7 68.5,266.7 85.4,258.5 C142.6,230.6 189.8,190.5 228,139.8 C240.1,123.6 250.7,106.2 262.6,88.5 Z M301.5,242.5 C287.3,239.4 273.2,238.9 259.2,241.7 C217.4,249.9 184.4,272.1 158.6,305.5 C154.4,310.9 151.1,317.3 148.5,323.8 C144.4,334 148,341.9 158.5,344.9 C165.2,346.8 172.7,347.3 179.6,346.6 C197.8,344.6 214,336.7 229.3,326.9 C261.2,306.2 282.8,276.4 301.5,244.1 C301.6,243.7 301.5,243.3 301.5,242.5 Z" id="Combined-Shape" fill="#FFDA00" fill-rule="nonzero"></path>
    </g>
</svg>
