<?xml version="1.0" encoding="UTF-8"?>
<svg viewBox="0 0 86 66" version="1.1" xmlns="http://www.w3.org/2000/svg" xmlns:xlink="http://www.w3.org/1999/xlink">
    <g >
        <path d="M85.4,35.8 C85.4,22.1 74.3,11 60.6,11 C46.9,11 35.8,22.1 35.8,35.8 C35.8,49.5 46.9,60.6 60.6,60.6 C62.9,60.6 65,60.3 67.1,59.7 L76.1,65.8 L74.6,56.2 C81.2,51.8 85.4,44.3 85.4,35.8 Z" id="Shape" fill="#FFFFFF"></path>
        <path d="M29,0.9 C13.2,0.9 0.4,13.7 0.4,29.5 C0.4,39.3 5.3,47.9 12.8,53.1 L11.1,64.1 L21.5,57.1 C23.9,57.7 26.4,58.1 29,58.1 C44.8,58.1 57.6,45.3 57.6,29.5 C57.6,13.7 44.8,0.9 29,0.9 Z" id="Shape" fill="#F9F9F9"></path>
        <path d="M17.5,28.4 C15.9,28.4 14.7,29.7 14.7,31.2 C14.7,32.8 16,34 17.5,34 C19,34 20.3,32.7 20.3,31.2 C20.4,29.7 19.1,28.4 17.5,28.4 Z M28.9,28.4 C27.3,28.4 26.1,29.7 26.1,31.2 C26.1,32.8 27.4,34 28.9,34 C30.5,34 31.7,32.7 31.7,31.2 C31.7,29.7 30.5,28.4 28.9,28.4 Z M40.3,28.4 C38.7,28.4 37.5,29.7 37.5,31.2 C37.5,32.8 38.8,34 40.3,34 C41.9,34 43.1,32.7 43.1,31.2 C43.1,29.7 41.8,28.4 40.3,28.4 Z" id="Shape" fill="#738B98"></path>
    </g>
</svg>
