<?xml version="1.0" encoding="UTF-8"?>
<svg viewBox="0 0 98 73" version="1.1" xmlns="http://www.w3.org/2000/svg" xmlns:xlink="http://www.w3.org/1999/xlink">
    <g id="Group">
        <rect id="Rectangle-path" fill="#8BCB0A" transform="translate(41.685630, 35.199440) rotate(149.855738) translate(-41.685630, -35.199440) " x="4.18405728" y="16.9486746" width="75.0031454" height="36.5015308"></rect>
        <path d="M5.1,39.4 L19.9,64.8 L78.3,30.9 L63.6,5.5 L5.1,39.4 Z M68.4,32.4 L52,41.9 C53.5,38.5 53.2,34 50.9,30 C48.5,25.8 44.4,23.3 40.4,23.1 L57.3,13.3 C58.8,15.8 63,17.7 65.6,16.2 L71,25.5 C68.5,27.1 66.9,29.9 68.4,32.4 Z M13.5,46.5 C16,45 16.5,40.5 15,37.9 L31.3,28.4 C29.5,32 29.7,36.7 32.1,40.9 C34.4,44.8 38.1,47.3 41.9,47.7 L26.1,57 C24.6,54.5 21.5,54.3 19,55.8 L13.5,46.5 Z" id="Shape" fill="#419B19"></path>
        <path d="M43.1,30.5 C42.9,30.5 42.7,30.4 42.5,30.4 C42.3,30.4 42,30.4 41.7,30.4 C41.4,30.4 41.1,30.5 40.8,30.6 C40.5,30.7 40.2,30.8 39.8,31 L41.6,34.2 L41.9,34.1 C42.5,33.9 43.1,33.8 43.7,33.7 C44.2,33.6 44.7,33.6 45.2,33.6 C45.6,33.7 46.1,33.8 46.4,34.1 C46.8,34.3 47.1,34.7 47.4,35.2 C47.7,35.7 47.9,36.3 47.9,36.8 C47.9,37.3 47.8,37.8 47.7,38.2 C47.5,38.7 47.2,39.1 46.8,39.5 C46.4,39.9 46,40.2 45.5,40.6 L46.4,42.2 L45.6,42.7 L44.6,41.1 C43.8,41.5 43,41.7 42.2,41.9 C41.4,42 40.6,42.1 39.8,42 L39.7,40.1 C39.9,40.2 40.1,40.2 40.4,40.2 C40.7,40.2 41,40.2 41.4,40.2 C41.8,40.2 42.1,40.1 42.5,40 C42.9,39.9 43.3,39.8 43.7,39.6 L42,36 C41.9,36 41.9,36 41.8,36.1 C41.7,36.1 41.7,36.1 41.6,36.2 C41,36.4 40.4,36.5 39.9,36.6 C39.4,36.7 39,36.7 38.6,36.6 C38.2,36.5 37.8,36.4 37.5,36.2 C37.2,36 36.9,35.7 36.7,35.2 C36.4,34.7 36.2,34.2 36.2,33.7 C36.1,33.2 36.2,32.7 36.4,32.3 C36.6,31.8 36.8,31.4 37.1,31 C37.4,30.6 37.8,30.2 38.3,29.9 L37.4,28.3 L38.2,27.8 L39.1,29.4 C39.8,29.1 40.5,28.8 41.2,28.7 C41.9,28.6 42.5,28.6 43.2,28.6 L43.1,30.5 Z M38.2,33.8 C38.4,34.2 38.8,34.5 39.2,34.5 C39.6,34.5 40.2,34.5 40.9,34.3 L39.1,31.3 C38.5,31.7 38.1,32.1 38,32.5 C37.9,32.9 38,33.4 38.2,33.8 Z M45.6,36.3 C45.3,35.8 45,35.6 44.5,35.6 C44,35.6 43.4,35.7 42.6,35.9 L44.4,38.9 C45,38.5 45.5,38.1 45.7,37.7 C45.9,37.2 45.9,36.8 45.6,36.3 Z" id="Shape" fill="#FFFFFF"></path>
        <path d="M60.94694,27.32506 C59.561854,28.1293965 57.7869765,27.658606 56.98264,26.27352 C56.1783035,24.888434 56.649094,23.1135565 58.03418,22.30922 C59.419266,21.5048835 61.1941435,21.975674 61.99848,23.36076 C62.8028165,24.745846 62.332026,26.5207235 60.94694,27.32506 Z M25.45838,47.98552 C24.073294,48.7898565 22.2984165,48.319066 21.49408,46.93398 C20.6897435,45.548894 21.160534,43.7740165 22.54562,42.96968 C23.930706,42.1653435 25.7055835,42.636134 26.50992,44.02122 C27.3142565,45.406306 26.843466,47.1811835 25.45838,47.98552 Z" id="Combined-Shape" fill="#FFFFFF"></path>
    </g>
    <g id="Group-2" transform="translate(14.000000, 2.000000)">
        <rect id="Rectangle-path" fill="#8BCB0A" transform="translate(42.108310, 35.575480) rotate(149.855738) translate(-42.108310, -35.575480) " x="4.60673728" y="17.3247146" width="75.0031454" height="36.5015308"></rect>
        <path d="M5.5,39.8 L20.3,65.2 L78.7,31.3 L63.9,5.9 L5.5,39.8 Z M68.8,32.8 L52.4,42.3 C53.9,38.9 53.6,34.4 51.3,30.4 C48.9,26.2 44.8,23.7 40.8,23.5 L57.7,13.7 C59.2,16.2 63.4,18.1 66,16.6 L71.4,25.9 C68.8,27.5 67.3,30.3 68.8,32.8 Z M13.9,46.9 C16.4,45.4 16.9,40.9 15.4,38.3 L31.7,28.8 C29.9,32.4 30.1,37.1 32.5,41.3 C34.8,45.2 38.5,47.7 42.3,48.1 L26.5,57.3 C25,54.8 21.9,54.6 19.4,56.1 L13.9,46.9 Z" id="Shape" fill="#419B19"></path>
        <path d="M43.4,30.9 C43.2,30.9 43,30.8 42.8,30.8 C42.6,30.8 42.3,30.8 42,30.8 C41.7,30.8 41.4,30.9 41.1,31 C40.8,31.1 40.5,31.2 40.1,31.4 L41.9,34.6 L42.2,34.5 C42.8,34.3 43.4,34.2 44,34.1 C44.5,34 45,34 45.5,34 C45.9,34.1 46.4,34.2 46.7,34.5 C47.1,34.7 47.4,35.1 47.7,35.6 C48,36.1 48.2,36.7 48.2,37.2 C48.2,37.7 48.1,38.2 48,38.6 C47.8,39.1 47.5,39.5 47.1,39.9 C46.7,40.3 46.3,40.6 45.8,41 L46.7,42.6 L45.9,43.1 L44.9,41.5 C44.1,41.9 43.3,42.1 42.5,42.3 C41.7,42.4 40.9,42.5 40.1,42.4 L40,40.5 C40.2,40.6 40.4,40.6 40.7,40.6 C41,40.6 41.3,40.6 41.7,40.6 C42.1,40.6 42.4,40.5 42.9,40.4 C43.3,40.3 43.7,40.2 44.1,40 L42.3,36.8 C42.2,36.8 42.2,36.8 42.1,36.9 C42,36.9 42,36.9 41.9,37 C41.3,37.2 40.7,37.3 40.2,37.4 C39.7,37.5 39.3,37.5 38.9,37.4 C38.5,37.3 38.1,37.2 37.8,37 C37.5,36.8 37.2,36.5 37,36 C36.7,35.5 36.5,35 36.5,34.5 C36.4,34 36.5,33.5 36.7,33.1 C36.9,32.6 37.1,32.2 37.4,31.8 C37.7,31.4 38.1,31 38.6,30.7 L37.7,29.1 L38.5,28.6 L39.4,30.2 C40.1,29.9 40.8,29.6 41.5,29.5 C42.2,29.4 42.8,29.4 43.5,29.4 L43.4,30.9 Z M38.6,34.2 C38.8,34.6 39.2,34.9 39.6,34.9 C40,34.9 40.6,34.9 41.3,34.7 L39.5,31.7 C38.9,32.1 38.5,32.5 38.4,32.9 C38.3,33.3 38.3,33.8 38.6,34.2 Z M46,36.7 C45.7,36.2 45.4,36 44.9,36 C44.4,36 43.8,36.1 43,36.3 L44.8,39.3 C45.4,38.9 45.9,38.5 46.1,38.1 C46.3,37.6 46.3,37.2 46,36.7 Z" id="Shape" fill="#FFFFFF"></path>
        <path d="M61.34054,27.708 C59.955454,28.5123365 58.1805765,28.041546 57.37624,26.65646 C56.5719035,25.271374 57.042694,23.4964965 58.42778,22.69216 C59.812866,21.8878235 61.5877435,22.358614 62.39208,23.7437 C63.1964165,25.128786 62.725626,26.9036635 61.34054,27.708 Z M25.7654,48.41868 C24.380314,49.2230165 22.6054365,48.752226 21.8011,47.36714 C20.9967635,45.982054 21.467554,44.2071765 22.85264,43.40284 C24.237726,42.5985035 26.0126035,43.069294 26.81694,44.45438 C27.6212765,45.839466 27.150486,47.6143435 25.7654,48.41868 Z" id="Combined-Shape" fill="#FFFFFF"></path>
    </g>
</svg>
