<?xml version="1.0" encoding="UTF-8"?>
<svg viewBox="0 0 25 25" version="1.1" xmlns="http://www.w3.org/2000/svg" xmlns:xlink="http://www.w3.org/1999/xlink">
    <g id="skype" transform="translate(0.500000, 0.000000)">
        <path d="M17.8959538,18.0939227 C17.3410405,18.9226519 16.6473988,19.4751381 15.5375723,19.8895028 C14.566474,20.3038674 13.3179191,20.5801105 11.9306358,20.5801105 C10.265896,20.5801105 8.87861272,20.3038674 7.90751445,19.7513812 C7.07514451,19.3370166 6.52023121,18.7845304 5.96531792,18.0939227 C5.54913295,17.4033149 5.2716763,16.7127072 5.2716763,16.0220994 C5.2716763,15.6077348 5.41040462,15.1933702 5.68786127,14.9171271 C5.96531792,14.640884 6.38150289,14.5027624 6.93641618,14.5027624 C7.35260116,14.5027624 7.6300578,14.640884 7.90751445,14.9171271 C8.1849711,15.1933702 8.46242775,15.4696133 8.60115607,15.8839779 C8.73988439,16.2983425 9.01734104,16.7127072 9.29479769,17.1270718 C9.57225434,17.4033149 9.84971098,17.679558 10.265896,17.8176796 C10.6820809,17.9558011 11.2369942,18.0939227 11.9306358,18.0939227 C12.9017341,18.0939227 13.5953757,17.8176796 14.2890173,17.5414365 C14.8439306,17.1270718 15.1213873,16.7127072 15.1213873,16.0220994 C15.1213873,15.6077348 14.982659,15.1933702 14.7052023,14.9171271 C14.4277457,14.640884 14.0115607,14.3646409 13.4566474,14.2265193 C12.9017341,14.0883978 12.2080925,13.9502762 11.3757225,13.6740331 C10.1271676,13.3977901 9.15606936,13.121547 8.32369942,12.7071823 C7.49132948,12.2928177 6.79768786,11.878453 6.38150289,11.1878453 C5.8265896,10.4972376 5.68786127,9.80662983 5.68786127,8.83977901 C5.68786127,8.01104972 5.96531792,7.18232044 6.52023121,6.49171271 C7.07514451,5.80110497 7.76878613,5.24861878 8.73988439,4.97237569 C9.71098266,4.55801105 10.8208092,4.4198895 12.0693642,4.4198895 C13.0404624,4.4198895 14.0115607,4.55801105 14.7052023,4.83425414 C15.3988439,5.11049724 16.0924855,5.38674033 16.6473988,5.80110497 C17.2023121,6.21546961 17.4797688,6.62983425 17.7572254,7.0441989 C18.0346821,7.45856354 18.1734104,8.01104972 18.1734104,8.42541436 C18.1734104,8.83977901 18.0346821,9.25414365 17.7572254,9.53038674 C17.4797688,9.80662983 17.0635838,10.0828729 16.6473988,10.0828729 C16.2312139,10.0828729 15.9537572,9.94475138 15.6763006,9.80662983 C15.3988439,9.66850829 15.2601156,9.25414365 14.982659,8.83977901 C14.7052023,8.28729282 14.2890173,7.87292818 14.0115607,7.59668508 C13.5953757,7.32044199 13.0404624,7.18232044 12.0693642,7.18232044 C11.2369942,7.18232044 10.5433526,7.32044199 10.1271676,7.73480663 C9.71098266,8.01104972 9.43352601,8.42541436 9.43352601,8.83977901 C9.43352601,9.1160221 9.57225434,9.39226519 9.71098266,9.53038674 C9.84971098,9.66850829 10.1271676,9.94475138 10.4046243,10.0828729 C10.6820809,10.2209945 10.9595376,10.359116 11.3757225,10.4972376 C11.6531792,10.6353591 12.2080925,10.7734807 12.9017341,10.9116022 C13.8728324,11.0497238 14.7052023,11.3259669 15.3988439,11.6022099 C16.0924855,11.878453 16.7861272,12.1546961 17.3410405,12.5690608 C17.8959538,12.9834254 18.3121387,13.3977901 18.5895954,13.9502762 C18.867052,14.5027624 19.0057803,15.1933702 19.0057803,16.0220994 C18.7283237,16.4364641 18.4508671,17.4033149 17.8959538,18.0939227 Z M23.3063584,15.0552486 C23.4450867,14.2265193 23.583815,13.3977901 23.583815,12.5690608 C23.583815,6.07734807 18.4508671,0.828729282 12.2080925,0.828729282 C11.5144509,0.828729282 10.9595376,0.828729282 10.265896,0.966850829 C9.15606936,0.414364641 7.90751445,0 6.65895954,0 C2.9132948,0 0,3.03867403 0,6.7679558 C0,8.01104972 0.277456647,9.25414365 0.971098266,10.2209945 C0.832369942,10.9116022 0.693641618,11.7403315 0.693641618,12.5690608 C0.693641618,19.0607735 5.8265896,24.3093923 12.0693642,24.3093923 C12.7630058,24.3093923 13.4566474,24.3093923 14.150289,24.1712707 C15.1213873,24.7237569 16.0924855,25 17.3410405,25 C20.9479769,25 24,21.961326 24,18.2320442 C24,16.9889503 23.7225434,16.0220994 23.3063584,15.0552486 Z" id="Fill-188"></path>
    </g>
</svg>
