<?xml version="1.0" encoding="UTF-8"?>
<svg  viewBox="0 0 100 77" version="1.1" xmlns="http://www.w3.org/2000/svg" xmlns:xlink="http://www.w3.org/1999/xlink">
    <g id="video-nocircle" transform="translate(12.000000, 0.000000)">
        <path d="M77,65.0113924 C77,71.6392405 71.6392405,77 65.0113924,77 L11.9886076,77 C5.36075949,77 0,71.6392405 0,65.0113924 L0,11.9886076 C0,5.36075949 5.36075949,0 11.9886076,0 L64.9139241,0 C71.5417722,0 76.9025316,5.36075949 76.9025316,11.9886076 L77,65.0113924 Z" id="Shape" fill="#FFFFFF"></path>
        <rect id="Rectangle-path" fill="#FFCC00" x="27.4" y="28.5" width="25.3" height="17.4"></rect>
        <g id="Lozenge" transform="translate(13.000000, 21.000000)" fill="#F3513E">
            <path d="M49.2,8.1 C49.2,8.1 48.7,4.7 47.2,3.2 C45.3,1.2 43.2,1.2 42.3,1.1 C35.4,0.6 25,0.6 25,0.6 C25,0.6 14.6,0.6 7.7,1.1 C6.7,1.2 4.6,1.2 2.8,3.2 C1.3,4.7 0.8,8.1 0.8,8.1 C0.8,8.1 0.3,12.1 0.3,16.1 L0.3,19.8 C0.3,23.8 0.8,27.8 0.8,27.8 C0.8,27.8 1.3,31.2 2.8,32.7 C4.7,34.7 7.1,34.6 8.2,34.8 C12.2,35.2 25,35.3 25,35.3 C25,35.3 35.4,35.3 42.3,34.8 C43.3,34.7 45.4,34.7 47.2,32.7 C48.7,31.2 49.2,27.8 49.2,27.8 C49.2,27.8 49.7,23.8 49.7,19.8 L49.7,16.1 C49.7,12.1 49.2,8.1 49.2,8.1 Z M19.9,24.4 L19.9,10.5 L33.2,17.5 L19.9,24.4 Z" id="Shape"></path>
        </g>
    </g>
</svg>
