<svg width="312" height="174" fill="none" xmlns="http://www.w3.org/2000/svg"><path d="M72.36 173.88c-13.92 0-26.32-3.44-37.2-10.32-10.88-6.88-19.44-16.8-25.68-29.76C3.4 120.68.36 105.08.36 87S3.4 53.4 9.48 40.44c6.24-13.12 14.8-23.12 25.68-30C46.04 3.56 58.44.12 72.36.12c13.92 0 26.32 3.44 37.2 10.32 10.88 6.88 19.36 16.88 25.44 30 6.24 12.96 9.36 28.48 9.36 46.56 0 18.08-3.12 33.68-9.36 46.8-6.08 12.96-14.56 22.88-25.44 29.76-10.88 6.88-23.28 10.32-37.2 10.32zm0-32.88c10.24 0 18.24-4.4 24-13.2 5.92-8.8 8.88-22.4 8.88-40.8s-2.96-32-8.88-40.8C90.6 37.4 82.6 33 72.36 33c-10.08 0-18.08 4.4-24 13.2C42.6 55 39.72 68.6 39.72 87s2.88 32 8.64 40.8c5.92 8.8 13.92 13.2 24 13.2zm239.004-1.68V171h-126.96v-25.2l64.8-61.2c6.88-6.56 11.52-12.16 13.92-16.8 2.4-4.8 3.6-9.52 3.6-14.16 0-6.72-2.32-11.84-6.96-15.36-4.48-3.68-11.12-5.52-19.92-5.52-7.36 0-14 1.44-19.92 4.32-5.92 2.72-10.88 6.88-14.88 12.48l-28.32-18.24c6.56-9.76 15.6-17.36 27.12-22.8 11.52-5.6 24.72-8.4 39.6-8.4 12.48 0 23.36 2.08 32.64 6.24 9.44 4 16.72 9.76 21.84 17.28 5.28 7.36 7.92 16.08 7.92 26.16 0 9.12-1.92 17.68-5.76 25.68s-11.28 17.12-22.32 27.36l-38.64 36.48h72.24z" fill="#237BEF" fill-opacity=".15"/></svg>