<svg width="309" height="174" fill="none" xmlns="http://www.w3.org/2000/svg"><path d="M72.36 173.88c-13.92 0-26.32-3.44-37.2-10.32-10.88-6.88-19.44-16.8-25.68-29.76C3.4 120.68.36 105.08.36 87S3.4 53.4 9.48 40.44c6.24-13.12 14.8-23.12 25.68-30C46.04 3.56 58.44.12 72.36.12c13.92 0 26.32 3.44 37.2 10.32 10.88 6.88 19.36 16.88 25.44 30 6.24 12.96 9.36 28.48 9.36 46.56 0 18.08-3.12 33.68-9.36 46.8-6.08 12.96-14.56 22.88-25.44 29.76-10.88 6.88-23.28 10.32-37.2 10.32zm0-32.88c10.24 0 18.24-4.4 24-13.2 5.92-8.8 8.88-22.4 8.88-40.8s-2.96-32-8.88-40.8C90.6 37.4 82.6 33 72.36 33c-10.08 0-18.08 4.4-24 13.2C42.6 55 39.72 68.6 39.72 87s2.88 32 8.64 40.8c5.92 8.8 13.92 13.2 24 13.2zm191.027-69.6c14.72 2.4 26 7.92 33.84 16.56 7.84 8.48 11.76 19.04 11.76 31.68 0 9.76-2.56 18.8-7.68 27.12-5.12 8.16-12.96 14.72-23.52 19.68-10.4 4.96-23.2 7.44-38.4 7.44-11.84 0-23.52-1.52-35.04-4.56-11.36-3.2-21.04-7.68-29.04-13.44l15.12-29.76c6.4 4.8 13.76 8.56 22.08 11.28a89.216 89.216 0 0 0 25.92 3.84c9.76 0 17.44-1.84 23.04-5.52 5.6-3.84 8.4-9.2 8.4-16.08 0-13.76-10.48-20.64-31.44-20.64h-17.76V73.32l34.56-39.12h-71.52V3h117.6v25.2l-37.92 43.2z" fill="#237BEF" fill-opacity=".15"/></svg>