<svg width="315" height="174" fill="none" xmlns="http://www.w3.org/2000/svg"><path d="M72.36 173.88c-13.92 0-26.32-3.44-37.2-10.32-10.88-6.88-19.44-16.8-25.68-29.76C3.4 120.68.36 105.08.36 87S3.4 53.4 9.48 40.44c6.24-13.12 14.8-23.12 25.68-30C46.04 3.56 58.44.12 72.36.12c13.92 0 26.32 3.44 37.2 10.32 10.88 6.88 19.36 16.88 25.44 30 6.24 12.96 9.36 28.48 9.36 46.56 0 18.08-3.12 33.68-9.36 46.8-6.08 12.96-14.56 22.88-25.44 29.76-10.88 6.88-23.28 10.32-37.2 10.32zm0-32.88c10.24 0 18.24-4.4 24-13.2 5.92-8.8 8.88-22.4 8.88-40.8s-2.96-32-8.88-40.8C90.6 37.4 82.6 33 72.36 33c-10.08 0-18.08 4.4-24 13.2C42.6 55 39.72 68.6 39.72 87s2.88 32 8.64 40.8c5.92 8.8 13.92 13.2 24 13.2zm172.491-74.88c23.68 0 41.12 4.72 52.32 14.16 11.36 9.44 17.04 22.08 17.04 37.92 0 10.24-2.56 19.6-7.68 28.08-5.12 8.32-12.96 15.04-23.52 20.16-10.4 4.96-23.28 7.44-38.64 7.44-11.84 0-23.52-1.52-35.04-4.56-11.36-3.2-21.04-7.68-29.04-13.44l15.36-29.76c6.4 4.8 13.76 8.56 22.08 11.28 8.32 2.56 16.88 3.84 25.68 3.84 9.76 0 17.44-1.92 23.04-5.76 5.6-3.84 8.4-9.2 8.4-16.08 0-7.2-2.96-12.64-8.88-16.32-5.76-3.68-15.84-5.52-30.24-5.52h-42.96L201.411 3h102.48v31.2h-70.08l-2.64 31.92h13.68z" fill="#237BEF" fill-opacity=".15"/></svg>