<svg width="326" height="174" fill="none" xmlns="http://www.w3.org/2000/svg"><path d="M72.36 173.88c-13.92 0-26.32-3.44-37.2-10.32-10.88-6.88-19.44-16.8-25.68-29.76C3.4 120.68.36 105.08.36 87S3.4 53.4 9.48 40.44c6.24-13.12 14.8-23.12 25.68-30C46.04 3.56 58.44.12 72.36.12c13.92 0 26.32 3.44 37.2 10.32 10.88 6.88 19.36 16.88 25.44 30 6.24 12.96 9.36 28.48 9.36 46.56 0 18.08-3.12 33.68-9.36 46.8-6.08 12.96-14.56 22.88-25.44 29.76-10.88 6.88-23.28 10.32-37.2 10.32zm0-32.88c10.24 0 18.24-4.4 24-13.2 5.92-8.8 8.88-22.4 8.88-40.8s-2.96-32-8.88-40.8C90.6 37.4 82.6 33 72.36 33c-10.08 0-18.08 4.4-24 13.2C42.6 55 39.72 68.6 39.72 87s2.88 32 8.64 40.8c5.92 8.8 13.92 13.2 24 13.2zm195.771-75.36c10.72 0 20.48 2.16 29.28 6.48s15.76 10.48 20.88 18.48c5.12 7.84 7.68 16.96 7.68 27.36 0 11.2-2.8 21.04-8.4 29.52-5.6 8.48-13.28 15.04-23.04 19.68-9.6 4.48-20.32 6.72-32.16 6.72-23.52 0-41.92-7.2-55.2-21.6-13.28-14.4-19.92-34.96-19.92-61.68 0-19.04 3.6-35.36 10.8-48.96 7.2-13.6 17.2-23.92 30-30.96 12.96-7.04 27.92-10.56 44.88-10.56 8.96 0 17.52 1.04 25.68 3.12 8.32 1.92 15.36 4.72 21.12 8.4l-14.4 28.56c-8.32-5.6-18.8-8.4-31.44-8.4-14.24 0-25.52 4.16-33.84 12.48-8.32 8.32-12.8 20.4-13.44 36.24 9.92-9.92 23.76-14.88 41.52-14.88zm-7.92 79.2c8.32 0 15.04-2.24 20.16-6.72 5.28-4.48 7.92-10.56 7.92-18.24 0-7.68-2.64-13.76-7.92-18.24-5.12-4.64-12-6.96-20.64-6.96-8.48 0-15.44 2.4-20.88 7.2-5.44 4.64-8.16 10.64-8.16 18 0 7.36 2.64 13.36 7.92 18 5.28 4.64 12.48 6.96 21.6 6.96z" fill="#237BEF" fill-opacity=".15"/></svg>