<svg width="123" height="60" fill="none" xmlns="http://www.w3.org/2000/svg"><path d="M45.912 43.9a1.205 1.205 0 0 0-.082-.038l-5.694-2.456a1.35 1.35 0 0 0-1.03-.016l-3.416 1.346-3.417-1.346a1.35 1.35 0 0 0-.99 0l-3.417 1.346-3.417-1.346a1.35 1.35 0 0 0-.99 0l-2.481.977A10.944 10.944 0 0 0 10.998 36C4.934 36 0 40.934 0 47s4.934 11 10.998 11c4.533 0 8.507-2.708 10.182-6.837h22.977A3.847 3.847 0 0 0 48 47.32c0-1.448-.8-2.759-2.088-3.42zm-1.755 4.563h-23.93a1.35 1.35 0 0 0-1.29.957 8.25 8.25 0 0 1-7.94 5.88C6.423 55.3 2.7 51.576 2.7 47c0-4.576 3.722-8.3 8.298-8.3a8.26 8.26 0 0 1 7.922 5.824 1.351 1.351 0 0 0 1.783.854l3.251-1.28 3.417 1.346c.318.125.672.125.99 0l3.417-1.346 3.417 1.346c.318.125.671.125.99 0l3.393-1.337 5.133 2.214c.364.201.59.58.59.999a1.146 1.146 0 0 1-1.144 1.143z" fill="#237BEF"/><path d="M8.83 43.482A3.522 3.522 0 0 0 5.314 47a3.522 3.522 0 0 0 3.518 3.518A3.522 3.522 0 0 0 12.348 47a3.522 3.522 0 0 0-3.517-3.518zm0 4.335a.818.818 0 0 1 0-1.634.818.818 0 0 1 0 1.634zM85.74 24.06h-1.5v1.5h1.5v-1.5zM102 40.349a1.5 1.5 0 0 0-3 0h3zm-3 8.522a1.5 1.5 0 0 0 3 0h-3zm13.678-37.28a1.5 1.5 0 1 0 2.759-1.18l-2.759 1.18zm2.582 10.97H85.74v3h29.52v-3zm-28.02 1.5V16.9h-3v7.16h3zM100.5.5c-8.993 0-16.26 7.356-16.26 16.4h3c0-7.414 5.95-13.4 13.26-13.4v-3zM84.824 25.56h31.353v-3H84.824v3zm34.676 3.37v24.2h3v-24.2h-3zm-3.323 27.57H84.824v3h31.353v-3zM81.5 53.13v-24.2h-3v24.2h3zm3.324 3.37C83 56.5 81.5 55.005 81.5 53.13h-3c0 3.505 2.818 6.37 6.324 6.37v-3zm34.676-3.37c0 1.875-1.501 3.37-3.323 3.37v3c3.505 0 6.323-2.865 6.323-6.37h-3zm-3.323-27.57c1.822 0 3.323 1.496 3.323 3.37h3c0-3.504-2.818-6.37-6.323-6.37v3zm-31.353-3c-3.506 0-6.324 2.866-6.324 6.37h3c0-1.874 1.501-3.37 3.324-3.37v-3zM99 40.349v8.522h3v-8.522h-3zM100.5 3.5c5.447 0 10.14 3.322 12.178 8.09l2.759-1.18C112.947 4.59 107.203.5 100.5.5v3z" fill="#237BEF"/></svg>