<svg width="68" height="79" fill="none" xmlns="http://www.w3.org/2000/svg"><path d="M67.772 65.738L56.077 45.456c1.185-.547 1.896-1.795 1.817-3.199l-.869-7.177 4.978-5.148c1.107-1.093 1.186-2.965.08-4.291l-4.979-5.305 1.027-7.255c.158-1.56-.948-3.12-2.528-3.432l-7.191-1.404-3.477-6.32c-.712-1.48-2.45-2.105-4.03-1.48h-.08l-6.637 3.042-6.48-3.12a3.126 3.126 0 0 0-2.37-.234c-.79.234-1.423.78-1.818 1.482l-3.556 6.319-7.191 1.248c-1.66.312-2.766 1.794-2.608 3.51l.87 7.177-4.979 5.149c-1.106 1.092-1.185 2.964-.079 4.29l4.978 5.305-1.027 7.255c-.158 1.404.711 2.73 2.055 3.277L.208 65.738c-.316.468-.237 1.092 0 1.56.317.468.79.78 1.344.78h12.643l5.769 9.908c.316.468.79.78 1.343.78.553 0 1.107-.312 1.344-.78l11.3-19.035 11.3 19.269c.316.468.79.78 1.343.78.553 0 1.106-.312 1.344-.78l5.768-10.141H66.35c.553 0 1.106-.313 1.343-.78a1.278 1.278 0 0 0 .079-1.56zm-46.386 8.347l-4.9-8.347c-.315-.468-.79-.78-1.342-.78H4.239l10.905-19.034 4.504.78 3.477 6.319c.711 1.482 2.45 2.106 4.03 1.482h.079l3.24-1.482 1.58 2.73-10.668 18.332zm4.584-22.389h-.08l-3.476-6.474c-.475-.78-1.265-1.405-2.213-1.483l-7.27-1.326 1.027-7.177c.158-.936-.158-1.95-.79-2.574l-4.9-5.305 4.98-5.148c.71-.703 1.026-1.639.868-2.575l-.869-7.099s0-.078.08-.156l7.19-1.248c.87-.156 1.739-.702 2.213-1.56l3.556-6.319 6.48 3.12a3.05 3.05 0 0 0 2.844 0l6.559-2.964h.079l3.477 6.475c.474.78 1.264 1.404 2.133 1.482l7.192 1.404-1.028 7.177c-.158.936.158 1.95.79 2.575l4.979 5.304-5.058 5.149c-.71.702-1.027 1.638-.869 2.574l.87 7.177-7.113 1.17c-.869.156-1.738.702-2.212 1.56l-3.556 6.32-6.48-3.121a3.058 3.058 0 0 0-2.845 0l-6.558 3.042zm26.867 13.262c-.553 0-1.106.312-1.344.78l-4.899 8.581-11.142-19.034c-.079-.234-.158-.39-.316-.546l-1.738-3.043.553-.234 6.48 3.12a3.12 3.12 0 0 0 1.422.313c1.106 0 2.212-.546 2.766-1.56l3.556-6.32 4.74-.857 10.827 18.8H52.837z" fill="#237BEF"/><path d="M49.755 24.513c0-8.58-7.112-15.602-15.804-15.602-8.693 0-15.805 7.021-15.805 15.602s7.112 15.602 15.805 15.602c8.692 0 15.804-7.02 15.804-15.602zM33.951 36.995c-6.954 0-12.644-5.617-12.644-12.482 0-6.865 5.69-12.481 12.644-12.481s12.643 5.616 12.643 12.481-5.69 12.482-12.643 12.482z" fill="#237BEF"/></svg>