<svg width="63" height="68" fill="none" xmlns="http://www.w3.org/2000/svg"><path d="M31.5 66C47.807 66 61 52.68 61 36.282 61 19.885 47.807 6.565 31.5 6.565 15.193 6.565 2 19.885 2 36.282 2 52.68 15.193 66 31.5 66z" stroke="#237BEF" stroke-width="4"/><path d="M31.138 22.489V39.63h12.303" stroke="#237BEF" stroke-width="4" stroke-linecap="round" stroke-linejoin="round"/><path stroke="#237BEF" stroke-width="4" d="M30.586 7.835V2.73"/><path d="M23.54 2h15.197" stroke="#237BEF" stroke-width="4" stroke-linecap="round" stroke-linejoin="round"/><path d="M55.113 7.15a1.981 1.981 0 0 0-2.817.005 2.02 2.02 0 0 0 .005 2.84l2.812-2.845zm1.392 7.067c.779.782 2.04.78 2.817-.005a2.02 2.02 0 0 0-.005-2.84l-2.812 2.845zM52.3 9.995l4.204 4.222 2.812-2.845-4.204-4.222L52.3 9.995zm2.023-.758l-4.094 4.126 2.818 2.84 4.093-4.127-2.817-2.84z" fill="#237BEF"/></svg>