<svg width="129" height="77" fill="none" xmlns="http://www.w3.org/2000/svg"><path d="M119.543 11.107l-4.616-8.067c-.126-.218-1.305-2.15-3.799-2.816-2.371-.633-4.552.154-6.689 1.37-4.632 2.637-8.926 5.57-11.705 4.82a1.894 1.894 0 0 0-2.322 1.308 1.862 1.862 0 0 0 1.326 2.29c4.41 1.188 8.959-1.942 15.122-5.454 3.11-1.773 4.447-.197 4.792.346l4.598 8.037c.348.607.988.949 1.649.949 1.44 0 2.356-1.539 1.644-2.783z" fill="#237BEF"/><path d="M127.638 25.014l-3.722-6.361a1.905 1.905 0 0 0-2.583-.683 1.852 1.852 0 0 0-.692 2.548l3.721 6.36c1.494 2.554.812 4.435-.795 5.332-.036.02-.829.472-.862.493-.229.136.931-.526-7.075 4.027-2.691 1.53-4.434 4.194-4.901 5.672-2.803 8.818-1.249 6.893-17.218 15.974a7.33 7.33 0 0 0-2.028-5.732c5.135-2.664 5.344-9.935.236-12.838L68.275 26.45l3.87-2.205a1.857 1.857 0 0 0 .909-1.983 1.88 1.88 0 0 0-1.614-1.483c-.065-.009-17.248-2.181-17.314-2.188-5.447-.521-5.015-6.89-.624-7.403 29.378-3.25 27.356-3.125 29.671-3.013 1.042.05 1.93-.742 1.982-1.772.051-1.029-.753-1.904-1.796-1.955-2.792-.134-1.934-.103-18.864 1.77-17.14-1.896-15.904-1.803-17.498-1.803-5.917 0-9.803 2.119-11.704 2.12-2.268 0-5.384-1.852-7.387-2.992-4.116-2.385-3.887-2.215-3.887-2.215-4.578-2.608-8.432-.926-9.963 1.72-6.46 11.29-5.642 9.922-12.707 21.966-2.772 4.74-.888 8.717 2.188 10.433 0 0-.065-.031 7.932 4.516 5.949 3.383 1.628 9.995 11.012 15.33C61.956 77.742 59.853 76.997 62.57 76.997c4.094 0 7.422-3.277 7.453-7.277 3.187 1.816 4.424 2.775 6.86 2.775 2.907 0 5.512-1.679 6.707-4.148 1.648-.939-.691.371 22.916-13.054 4.011-2.28 5.62-5.194 6.223-6.728.035-.089 1.565-4.91 1.594-5 .091-.23.978-2.341 3.195-3.602a3168.19 3168.19 0 0 0 7.933-4.517c2.559-1.428 5.242-5.21 2.187-10.432zm-74.663 9.664l34.947 19.904c2.435 1.387 2.44 4.848.031 6.247a3.71 3.71 0 0 1-2.71.409c-.782-.182 1.922 1.272-36.573-20.664a1.905 1.905 0 0 0-2.583.683 1.852 1.852 0 0 0 .692 2.549C81.11 63.369 79.367 62.156 80.055 63.32c1.873 3.138-1.723 6.824-5 4.957L72.41 66.77l-6.11-3.48-23.465-13.366a1.904 1.904 0 0 0-2.583.683 1.852 1.852 0 0 0 .692 2.548L64.41 66.522c3.22 1.834 1.912 6.744-1.838 6.744-1.402 0 1.006 1.091-38.2-21.206-2.956-1.68-4.124-3.7-4.564-4.79l-1.564-4.919c-.051-.145-1.284-3.573-4.885-5.62C.6 29.475 10.745 35.246 5.42 32.21c-1.99-1.157-2.028-3.224-.796-5.332C12.308 13.75 9.59 18.444 17.337 4.906a2.662 2.662 0 0 1 2.213-1.169c1.235 0 2.285.597 5.257 2.332 9.647 5.64 10.1 4.574 17.178 2.668 3.373-.77 5.196-.68 8.113-.357-5.68 3.13-5.156 13.057 3.635 13.922l2.166.274c-.02.677.336 1.322.944 1.669C92.396 44.499 90.136 43.129 90.68 43.697c2.642 2.768-.356 7.073-3.826 5.881-.52-.171 1.428.9-31.987-18.131a1.905 1.905 0 0 0-2.583.683 1.85 1.85 0 0 0 .692 2.548z" fill="#237BEF"/></svg>