<svg width="72" height="84" fill="none" xmlns="http://www.w3.org/2000/svg"><path d="M70.56 49H60.48V1.4c0-.773-.645-1.4-1.44-1.4H12.96c-.795 0-1.44.627-1.44 1.4V49H1.44a1.46 1.46 0 0 0-1.04.431c-.55.559-.53 1.445.044 1.98l34.56 32.2c.268.25.625.389.996.389s.728-.14.996-.39l34.56-32.2c.284-.263.444-.628.444-1.01 0-.773-.645-1.4-1.44-1.4zM36 80.661L5.023 51.8h7.937c.795 0 1.44-.627 1.44-1.4V2.8h43.2v47.6c0 .773.645 1.4 1.44 1.4h7.937L36 80.661z" fill="#237BEF"/><path d="M36 21c3.181 0 5.76 2.507 5.76 5.6h2.88c-.008-4.095-3.048-7.588-7.2-8.274V15.4h-2.88v2.926c-4.7.8-7.843 5.153-7.02 9.723.72 4 4.282 6.927 8.46 6.95 3.181 0 5.76 2.508 5.76 5.6 0 3.094-2.579 5.6-5.76 5.6-3.181 0-5.76-2.506-5.76-5.6h-2.88c.008 4.095 3.048 7.59 7.2 8.275V51.8h2.88v-2.926c4.7-.8 7.843-5.153 7.02-9.723-.72-4.001-4.282-6.928-8.46-6.951-3.181 0-5.76-2.507-5.76-5.6 0-3.093 2.579-5.6 5.76-5.6zM20.16 5.6h-2.88v2.8h2.88V5.6zm5.76 0h-2.88v2.8h2.88V5.6zm5.76 0H28.8v2.8h2.88V5.6zm5.76 0h-2.88v2.8h2.88V5.6zm5.76 0h-2.88v2.8h2.88V5.6zm5.76 0h-2.88v2.8h2.88V5.6zm5.76 0h-2.88v2.8h2.88V5.6z" fill="#237BEF"/></svg>