<svg width="89" height="85" fill="none" xmlns="http://www.w3.org/2000/svg"><path d="M44.48 38.656a1.934 1.934 0 0 0-1.934 1.931v15.455a1.934 1.934 0 0 0 3.87 0V40.587a1.934 1.934 0 0 0-1.935-1.931zm-5.123.124a1.938 1.938 0 0 0-2.492 1.128L32.87 50.54l-3.993-10.628a1.946 1.946 0 0 0-2.492-1.129 1.926 1.926 0 0 0-1.13 2.489l5.804 15.454a1.934 1.934 0 0 0 3.622 0l5.805-15.454a1.93 1.93 0 0 0-1.13-2.493zm12.863-.124a1.934 1.934 0 0 0-1.935 1.931v15.455a1.934 1.934 0 0 0 3.87 0v-5.796h1.935c3.2 0 5.804-2.6 5.804-5.795s-2.604-5.795-5.804-5.795h-3.87zm5.805 5.795a1.937 1.937 0 0 1-1.935 1.932h-1.935v-3.864h1.935c1.064 0 1.935.866 1.935 1.932z" fill="#237BEF"/><path d="M88.897 32.219a1.939 1.939 0 0 0-1.579-1.295l-28.024-3.709L46.23 1.066a1.934 1.934 0 0 0-3.46.004L29.702 27.215l-28.02 3.71a1.944 1.944 0 0 0-1.58 1.294 1.928 1.928 0 0 0 .465 1.986l20.552 20.52-5.6 27.96c-.143.727.14 1.469.724 1.917a1.933 1.933 0 0 0 2.04.193l26.221-13.09 26.221 13.09c.279.135.573.205.867.205.414 0 .832-.135 1.165-.398.588-.452.867-1.19.724-1.916l-5.6-27.961 20.552-20.52c.522-.518.7-1.29.464-1.986zM64.421 52.723a1.936 1.936 0 0 0-.53 1.747l5.03 25.106-23.55-11.758a1.968 1.968 0 0 0-.867-.204 1.92 1.92 0 0 0-.867.204L20.086 79.575l5.03-25.106a1.932 1.932 0 0 0-.53-1.746L6.074 34.24l25.157-3.33a1.937 1.937 0 0 0 1.478-1.052L44.504 6.26l11.79 23.6c.287.575.84.969 1.48 1.05l25.16 3.33-18.513 18.484z" fill="#237BEF"/></svg>