<svg width="61" height="83" fill="none" xmlns="http://www.w3.org/2000/svg"><path fill-rule="evenodd" clip-rule="evenodd" d="M16.5 10.5h-11A5.5 5.5 0 0 0 0 16v61a5.5 5.5 0 0 0 5.5 5.5h50A5.5 5.5 0 0 0 61 77V16a5.5 5.5 0 0 0-5.5-5.5h-13v3h13A2.5 2.5 0 0 1 58 16v61a2.5 2.5 0 0 1-2.5 2.5h-50A2.5 2.5 0 0 1 3 77V16a2.5 2.5 0 0 1 2.5-2.5h11v-3z" fill="#237BEF"/><path clip-rule="evenodd" d="M24.6 6a5.002 5.002 0 0 1 9.8 0h4.1a4 4 0 0 1 4 4v8h-26v-8a4 4 0 0 1 4-4h4.1z" stroke="#237BEF" stroke-width="3"/><path d="M14.56 35.94a1.5 1.5 0 1 0-2.12 2.12l2.12-2.12zM18.5 42l-1.06 1.06a1.5 1.5 0 0 0 2.12 0L18.5 42zm11.06-8.94a1.5 1.5 0 0 0-2.12-2.12l2.12 2.12zm6.94 3.44a1.5 1.5 0 0 0 0 3v-3zm11 3a1.5 1.5 0 0 0 0-3v3zm-35.06-1.44l5 5 2.12-2.12-5-5-2.12 2.12zm7.12 5l10-10-2.12-2.12-10 10 2.12 2.12zM36.5 39.5h11v-3h-11v3zM14.56 56.94a1.5 1.5 0 1 0-2.12 2.12l2.12-2.12zM18.5 63l-1.06 1.06a1.5 1.5 0 0 0 2.12 0L18.5 63zm11.06-8.94a1.5 1.5 0 0 0-2.12-2.12l2.12 2.12zm6.94 3.44a1.5 1.5 0 0 0 0 3v-3zm11 3a1.5 1.5 0 0 0 0-3v3zm-35.06-1.44l5 5 2.12-2.12-5-5-2.12 2.12zm7.12 5l10-10-2.12-2.12-10 10 2.12 2.12zM36.5 60.5h11v-3h-11v3z" fill="#237BEF"/></svg>