<svg width="88" height="85" fill="none" xmlns="http://www.w3.org/2000/svg"><path d="M49.165 69.473l-12.649-5.267c3.62-.657 6.96-1.672 9.723-2.962a3.594 3.594 0 0 0 2.078-3.269c-.128-17.322-2.543-40.351-21.954-40.351-19.41 0-21.826 23.03-21.954 40.352a3.594 3.594 0 0 0 2.078 3.268c2.763 1.29 6.103 2.305 9.723 2.962L3.561 69.473A5.768 5.768 0 0 0 0 74.81v5.875A4.32 4.32 0 0 0 4.317 85H48.41a4.32 4.32 0 0 0 4.317-4.314V74.81a5.768 5.768 0 0 0-3.56-5.338zm-3.603-11.477a.833.833 0 0 1-.49.753c-2.784 1.3-6.231 2.303-9.982 2.908v-1.865l2.452-1.361a7.245 7.245 0 0 0 3.703-5.683l.005-.06h1.28a4.3 4.3 0 0 0 2.852-1.078c.103 2.02.163 4.147.18 6.386zm-19.199-.901c5.275 0 8.886-1.104 11.227-2.269-.37.483-.838.893-1.386 1.198l-7.655 4.249a4.477 4.477 0 0 1-4.372 0l-7.654-4.25a4.493 4.493 0 0 1-2.296-3.524L13.16 40.79c3.85-.434 14.79-1.906 21.386-5.19.793 1.453 2.356 3.622 5.049 4.861l-.947 10.402c-1.125.995-4.694 3.477-12.285 3.477a1.378 1.378 0 1 0 0 2.754zm15.138-7.16l.55-6.058h.48c.86 0 1.561.7 1.561 1.56v2.938c0 .86-.7 1.56-1.562 1.56H41.5zM11.16 31.226c3.111-7.3 8.083-10.848 15.202-10.848s12.092 3.549 15.203 10.849c1.211 2.842 2.142 6.261 2.8 10.306a4.29 4.29 0 0 0-1.836-.41h-.228l.13-1.436a1.377 1.377 0 0 0-.936-1.43c-3.673-1.224-4.996-4.972-5.007-5.004a1.377 1.377 0 0 0-2.016-.746C27.48 36.7 11.7 38.177 11.54 38.192a1.377 1.377 0 0 0-1.247 1.495l.13 1.436h-.228a4.3 4.3 0 0 0-1.835.41c.658-4.045 1.588-7.464 2.8-10.306zm.065 18.71h-1.03c-.86 0-1.561-.7-1.561-1.561v-2.938c0-.86.7-1.56 1.561-1.56h.479l.551 6.058zm-3.572 8.813a.833.833 0 0 1-.489-.753c.016-2.24.076-4.367.18-6.387a4.3 4.3 0 0 0 2.851 1.08h1.28l.006.06a7.245 7.245 0 0 0 3.703 5.682l2.452 1.36v1.866c-3.751-.605-7.198-1.608-9.983-2.908zm10.082 7.805a4.302 4.302 0 0 0 2.656-3.982v-1.25l2.447 1.358a7.25 7.25 0 0 0 3.524.92 7.25 7.25 0 0 0 3.524-.92l2.447-1.358v1.25a4.302 4.302 0 0 0 2.657 3.982l1.563.651c-4.536 5.407-8.971 7.216-10.195 7.634-1.229-.413-5.625-2.19-10.187-7.634l1.564-.65zM8.818 82.246h-4.5c-.862 0-1.562-.7-1.562-1.56V74.81c0-.38.07-.747.2-1.087L7.682 77.5a3.013 3.013 0 0 1 1.137 2.366v2.38zm32.334-2.38v2.38H11.574v-2.38a5.754 5.754 0 0 0-2.172-4.516l-4.38-3.502 8.495-3.538.013.017c6.099 7.619 12.24 9.224 12.5 9.288a1.383 1.383 0 0 0 .668 0c.258-.064 6.4-1.669 12.5-9.288l.011-.017 8.496 3.538-4.38 3.502a5.753 5.753 0 0 0-2.173 4.516zm8.819.82c0 .86-.7 1.56-1.562 1.56h-4.501v-2.38c0-.925.415-1.787 1.138-2.365l4.724-3.777c.13.34.2.707.2 1.087v5.875zM82.213 0H52.818a5.792 5.792 0 0 0-5.787 5.783v16.155a5.794 5.794 0 0 0 4.41 5.618v6.132a1.377 1.377 0 0 0 2.352.973l6.945-6.94h21.475A5.792 5.792 0 0 0 88 21.94V5.783A5.792 5.792 0 0 0 82.213 0zm3.031 21.939c0 1.67-1.36 3.029-3.031 3.029H60.167c-.365 0-.716.145-.974.403l-4.997 4.993v-4.02c0-.76-.617-1.376-1.378-1.376a3.034 3.034 0 0 1-3.03-3.03V5.784c0-1.67 1.359-3.03 3.03-3.03h29.395a3.034 3.034 0 0 1 3.031 3.03v16.155z" fill="#237BEF"/><path d="M63.014 12.392a5.056 5.056 0 0 0-5.052-5.049 5.056 5.056 0 0 0-5.052 5.049v2.937a5.056 5.056 0 0 0 5.052 5.049 5.02 5.02 0 0 0 2.462-.642l.238.239c.27.268.622.403.975.403a1.376 1.376 0 0 0 .974-2.35l-.239-.24a5.013 5.013 0 0 0 .642-2.459v-2.937zm-2.755 2.937c0 .11-.01.217-.026.323l-.562-.562a1.378 1.378 0 0 0-1.948 1.947l.562.562a2.277 2.277 0 0 1-.323.025 2.298 2.298 0 0 1-2.296-2.294v-2.938a2.298 2.298 0 0 1 2.296-2.295 2.298 2.298 0 0 1 2.297 2.295v2.937zM70.89 5.945a1.378 1.378 0 0 0-1.742.871l-4.41 13.218a1.377 1.377 0 0 0 2.615.872l4.41-13.219a1.377 1.377 0 0 0-.872-1.742zm11.178 12.678l-2.94-10.28a1.377 1.377 0 0 0-1.324-1h-1.47c-.615 0-1.156.408-1.325 1l-2.939 10.28a1.377 1.377 0 1 0 2.65.756l.554-1.938h3.59l.555 1.939a1.378 1.378 0 0 0 2.65-.757zm-6.007-3.936l1.008-3.525 1.008 3.525H76.06z" fill="#237BEF"/></svg>