<svg width="32" height="31" fill="none" xmlns="http://www.w3.org/2000/svg"><path d="M16.658 30.474a15.45 15.45 0 0 1-4.425-.643.82.82 0 0 1-.144-1.505.836.836 0 0 1 .621-.074c1.28.382 2.61.575 3.947.574 7.545 0 13.684-6.096 13.684-13.59 0-7.493-6.138-13.59-13.684-13.59a13.771 13.771 0 0 0-4.07.612.835.835 0 0 1-1.002-.554.82.82 0 0 1 .512-1.02A15.441 15.441 0 0 1 16.657 0C25.118 0 32 6.84 32 15.236c0 8.397-6.88 15.238-15.342 15.238z" fill="#fff"/><path d="M.329 11.942a16.694 16.694 0 0 0 0 6.592h17.697l3.234-3.211v-.17l-3.234-3.211H.33zm15.68-2.004L9.37 3.35H5.022A16.662 16.662 0 0 0 .866 9.942l15.143-.004zM5.022 27.13h4.349l6.638-6.593H.867a16.663 16.663 0 0 0 4.155 6.592z" fill="#fff"/></svg>