<svg width="152" height="39" fill="none" xmlns="http://www.w3.org/2000/svg"><path fill-rule="evenodd" clip-rule="evenodd" d="M21.318 39a19.772 19.772 0 0 1-5.663-.824 1.06 1.06 0 0 1-.612-.514 1.048 1.048 0 0 1 .427-1.412 1.07 1.07 0 0 1 .796-.094 17.64 17.64 0 0 0 5.05.734c9.657 0 17.513-7.8 17.513-17.391 0-9.59-7.855-17.392-17.512-17.392a17.622 17.622 0 0 0-5.208.782 1.068 1.068 0 0 1-.784-.098A1.053 1.053 0 0 1 15.48.876 19.762 19.762 0 0 1 21.318 0c10.827 0 19.634 8.753 19.634 19.499C40.952 30.245 32.147 39 21.318 39zM.42 15.283a21.372 21.372 0 0 0 0 8.436h22.65l4.139-4.11v-.216l-4.14-4.11H.42zM11.992 4.286l8.495 8.433-19.379.004a21.325 21.325 0 0 1 5.32-8.437h5.564zM6.427 34.72h5.565l8.495-8.436H1.11a21.32 21.32 0 0 0 5.318 8.436zm142.956-12.937c.709.581 1.064 1.375 1.064 2.38 0 1.03-.43 1.857-1.29 2.48-.859.623-1.999.934-3.418.934-1.595 0-2.872-.37-3.832-1.109-.96-.74-1.44-1.749-1.44-3.028h-1.54c0 1.063.275 2.006.826 2.829.559.822 1.373 1.462 2.442 1.919 1.077.457 2.258.685 3.544.685 1.878 0 3.389-.432 4.533-1.296 1.152-.864 1.728-2.01 1.728-3.44 0-.905-.213-1.69-.639-2.354-.425-.665-1.06-1.234-1.903-1.707-.843-.482-2.083-.943-3.719-1.384-1.636-.448-2.826-.963-3.569-1.545-.743-.581-1.115-1.333-1.115-2.255 0-.997.414-1.803 1.24-2.418.827-.623 1.937-.934 3.331-.934 1.436 0 2.58.378 3.431 1.134.852.747 1.277 1.74 1.277 2.978h1.553a5.087 5.087 0 0 0-.789-2.779c-.526-.83-1.269-1.479-2.229-1.944-.951-.465-2.032-.698-3.243-.698-1.786 0-3.256.436-4.408 1.309-1.144.864-1.715 1.99-1.715 3.377 0 1.428.617 2.583 1.853 3.464.868.623 2.246 1.2 4.132 1.732 1.887.523 3.185 1.08 3.895 1.67zm-90.098-1.857h-8.528v7.402h9.805v1.296H49.217V10.479h11.282v1.309h-9.742v6.841h8.528v1.296zm10.08-1.77L74.5 10.48h1.84l-6.036 8.948 6.224 9.196h-1.853l-5.31-7.925-5.334 7.925h-1.828l6.236-9.196-6.049-8.947h1.841l5.134 7.675zm11.671 2.916h5.297l4.408 7.552h1.64v-.162l-4.558-7.714c1.152-.34 2.07-.955 2.755-1.844.685-.889 1.027-1.915 1.027-3.078 0-1.686-.547-2.999-1.64-3.937-1.094-.94-2.613-1.409-4.559-1.409h-5.923v18.144h1.553V21.07zm4.72-1.308h-4.72v-7.975h4.345c1.478 0 2.626.353 3.444 1.06.818.705 1.227 1.698 1.227 2.977 0 1.163-.392 2.11-1.177 2.841-.785.732-1.824 1.097-3.118 1.097zm19.886 3.776h-8.277l-1.878 5.084h-1.615l6.899-18.144h1.465l6.9 18.144h-1.603l-1.891-5.084zm-7.801-1.309h7.313l-3.656-9.881-3.657 9.881zm18.483-10.442h6.248V10.48h-14.025v1.309h6.237v16.835h1.54V11.788zm19.272 8.137h-8.528v7.402h9.805v1.296h-11.345V10.479h11.282v1.309h-9.742v6.841h8.528v1.296z" fill="#fff"/></svg>