<svg width="387" height="85" fill="none" xmlns="http://www.w3.org/2000/svg"><path d="M.958 51.619C-.32 45.469-.32 39.4.958 33.25H50.36c.48 0 .798.16 1.118.48 2.793 2.714 5.507 5.43 8.3 8.145.559.559.559.639 0 1.198-2.793 2.715-5.587 5.51-8.38 8.225-.24.24-.559.32-.878.32H.958z" fill="#fff"/><path d="M47.087 84.92c-4.15 0-8.22-.559-12.21-1.757-1.437-.4-2.236-1.597-1.836-2.875.399-1.278 1.676-1.916 3.032-1.517 4.31 1.198 8.7 1.757 13.17 1.517 10.454-.639 19.393-4.791 26.576-12.458 5.188-5.59 8.46-12.218 9.577-19.805 1.596-11.02-1.197-20.923-8.38-29.468C70.551 10.81 62.251 6.338 52.275 4.98c-5.587-.799-11.014-.32-16.441 1.277-.798.24-1.517.24-2.235-.24-.798-.558-1.117-1.277-1.037-2.235.16-.959.638-1.597 1.596-1.837 1.756-.48 3.591-.958 5.347-1.278C49.641-1.009 59.298.428 68.237 5.46c11.333 6.309 18.675 15.812 21.31 28.51 2.793 13.656-.64 25.794-9.817 36.256-6.625 7.587-15.085 12.139-24.981 13.895-2.554.48-5.188.56-7.742.879.08 0 .08-.08.08-.08z" fill="#fff"/><path d="M2.474 57.209h42.699c-.16.24-.32.32-.4.479-5.985 5.83-11.971 11.66-17.877 17.49-.24.239-.559.319-.878.319H14.685c-.24 0-.559-.08-.798-.32-5.028-4.871-8.78-10.7-11.253-17.33 0-.159-.08-.399-.16-.638zM45.173 27.66H2.474l.24-.718c2.394-6.628 6.145-12.378 11.173-17.25.24-.24.559-.32.878-.32h11.333c.24 0 .559.08.798.32l18.117 17.65c-.08.08 0 .16.16.319z" fill="#fff"/><path d="M144.059 52.657v6.07h-24.821V26.222H143.5v6.07h-16.84v7.027h14.925v5.83H126.66v7.507h17.399zm34.956 6.069l-7.742-11.26-7.582 11.26h-8.54l11.892-16.53-11.253-15.973h8.46l7.343 10.542 7.262-10.542h8.061l-11.173 15.653 11.971 16.77h-8.7v.08zm41.182 0l-6.225-9.024h-6.864v9.024h-7.422V26.223h13.887c8.539 0 13.967 4.472 13.967 11.82 0 4.871-2.395 8.465-6.625 10.222l7.183 10.461h-7.901zm-7.023-26.353h-6.066v11.34h6.066c4.549 0 6.863-2.157 6.863-5.67 0-3.594-2.314-5.67-6.863-5.67zm50.519 19.325h-14.924l-2.873 6.948h-7.582L252.6 26.143h7.342l14.366 32.503h-7.741l-2.874-6.948zm-2.314-5.67l-5.108-12.458-5.108 12.458h10.216zm30.487-13.655h-10.295v-6.15h27.933v6.15h-10.295v26.353h-7.423V32.373h.08zm55.708 20.284v6.07h-24.821V26.222h24.262v6.07h-16.839v7.027H345.1v5.83h-14.924v7.507h17.398zm12.61 2.875l2.554-5.67c2.713 1.996 6.704 3.354 10.615 3.354 4.389 0 6.225-1.517 6.225-3.514 0-6.07-18.676-1.917-18.676-13.975 0-5.51 4.39-10.143 13.488-10.143 4.07 0 8.141.959 11.174 2.875l-2.315 5.67c-2.953-1.677-6.066-2.555-8.859-2.555-4.39 0-6.066 1.677-6.066 3.673 0 5.99 18.676 1.837 18.676 13.816 0 5.43-4.469 10.062-13.647 10.062-5.188.16-10.376-1.437-13.169-3.593z" fill="#237BEF"/></svg>