<svg width="17" height="22" fill="none" xmlns="http://www.w3.org/2000/svg"><path d="M11.722 0H3.335C2.11 0 1.113 1.051 1.113 2.341V11H.896C.4 11 0 11.422 0 11.944v5.722c0 .521.401.943.896.943h.217v1.05C1.113 20.95 2.11 22 3.335 22h11.443C16.003 22 17 20.95 17 19.659V5.541L11.722 0zM2.349 12.976a6.673 6.673 0 0 1 1.151-.082c.526 0 .9.106 1.152.318.24.2.402.53.402.918 0 .389-.123.719-.346.942-.291.289-.721.418-1.224.418-.112 0-.212-.005-.291-.017v1.419h-.844v-3.916zm12.43 7.59H3.334c-.474 0-.86-.407-.86-.907v-1.05h10.667c.494 0 .895-.422.895-.943v-5.722c0-.522-.4-.944-.895-.944H2.474V2.341c0-.499.387-.906.861-.906l7.877-.008v3.068c0 .896.69 1.623 1.542 1.623l2.852-.008.032 13.549c0 .5-.385.907-.86.907zm-9.18-3.692v-3.898c.312-.052.72-.082 1.15-.082.716 0 1.18.136 1.543.424.39.306.637.795.637 1.496 0 .759-.263 1.283-.626 1.607-.397.347-1 .512-1.738.512-.442 0-.755-.03-.967-.059zm6.098-2.308v.73h-1.352v1.596H9.49v-3.968h2.302v.735h-1.447v.907h1.352z" fill="#fff"/></svg>