<svg width="8" height="12" fill="none" xmlns="http://www.w3.org/2000/svg"><path d="M4.918 9H2.84a.321.321 0 0 0-.242.112.375.375 0 0 0-.104.263v2.25c0 .1.035.188.104.262.07.075.15.113.242.113h2.078a.32.32 0 0 0 .242-.113.374.374 0 0 0 .104-.262v-2.25c0-.1-.034-.188-.104-.263A.32.32 0 0 0 4.918 9zm2.727-6.736a3.833 3.833 0 0 0-.918-1.195A4.613 4.613 0 0 0 5.463.29 3.62 3.62 0 0 0 4.07 0C2.315 0 .976.831.053 2.494a.395.395 0 0 0 .086.497l1.42 1.172a.39.39 0 0 0 .217.074c.104 0 .193-.05.268-.15.415-.562.724-.921.926-1.078.249-.18.56-.271.935-.271.352 0 .662.1.93.3.27.2.403.43.403.693 0 .294-.072.531-.216.713-.144.18-.387.356-.727.525-.45.218-.863.557-1.238 1.017-.375.46-.563.948-.563 1.467v.422c0 .119.03.236.09.352.062.115.135.173.222.173h2.077c.093 0 .173-.048.243-.146a.516.516 0 0 0 .104-.304c0-.156.079-.366.238-.628.158-.262.356-.466.593-.61.225-.137.4-.248.528-.332.127-.085.293-.22.498-.408a2.63 2.63 0 0 0 .476-.558 3.15 3.15 0 0 0 .303-.717c.09-.294.134-.61.134-.947 0-.519-.118-1.014-.355-1.486z" fill="#237BEF"/></svg>