<svg width="74" height="77" fill="none" xmlns="http://www.w3.org/2000/svg"><path d="M39.738 24.227L37 15.825l-2.738 8.402h-8.85l7.166 5.192-2.74 8.407L37 32.643l7.161 5.19-2.739-8.407 7.167-5.199h-8.85zm-.432 6.93L37 29.487l-2.305 1.67.884-2.712-2.3-1.668h2.836L37 24.06l.886 2.717h2.836l-2.297 1.668.88 2.712z" fill="#237BEF"/><path d="M61.653 21.45a7.853 7.853 0 0 1 .068-2.745 7.345 7.345 0 0 0-.41-4.679 7.4 7.4 0 0 0-3.897-2.722 7.705 7.705 0 0 1-2.372-1.284 7.67 7.67 0 0 1-1.282-2.37 7.402 7.402 0 0 0-2.726-3.895 7.338 7.338 0 0 0-4.687-.408 7.825 7.825 0 0 1-2.746.066A7.547 7.547 0 0 1 41.37 2.04 7.46 7.46 0 0 0 37 0a7.461 7.461 0 0 0-4.37 2.04 7.544 7.544 0 0 1-2.236 1.38 7.887 7.887 0 0 1-2.746-.066 7.364 7.364 0 0 0-4.682.401 7.395 7.395 0 0 0-2.724 3.896 7.669 7.669 0 0 1-1.285 2.37 7.713 7.713 0 0 1-2.37 1.283 7.389 7.389 0 0 0-3.897 2.722 7.339 7.339 0 0 0-.411 4.684 7.88 7.88 0 0 1 .068 2.744 7.59 7.59 0 0 1-1.382 2.236 7.451 7.451 0 0 0-2.034 4.362 7.447 7.447 0 0 0 2.034 4.365 7.598 7.598 0 0 1 1.382 2.238 7.853 7.853 0 0 1-.068 2.745 7.346 7.346 0 0 0 .41 4.679 7.4 7.4 0 0 0 3.897 2.722c.86.285 1.663.72 2.372 1.284.564.708.998 1.51 1.282 2.37l.174.413V77L37 71.475 53.586 77V48.867l.172-.41c.285-.86.72-1.663 1.285-2.37a7.71 7.71 0 0 1 2.37-1.286 7.387 7.387 0 0 0 3.897-2.722 7.339 7.339 0 0 0 .411-4.684 7.845 7.845 0 0 1-.068-2.744 7.593 7.593 0 0 1 1.382-2.237 7.45 7.45 0 0 0 2.034-4.362 7.446 7.446 0 0 0-2.034-4.364 7.6 7.6 0 0 1-1.382-2.238zM51.034 63.755h-8.93v2.55h8.93v7.158l-12.758-4.251V59.93h-2.552v9.282l-12.758 4.25V61.206h8.93v-2.55h-8.93v-6.303a7.364 7.364 0 0 0 4.682.406 7.92 7.92 0 0 1 2.746-.067c.82.326 1.577.793 2.236 1.38A7.46 7.46 0 0 0 37 56.105a7.46 7.46 0 0 0 4.37-2.034 7.546 7.546 0 0 1 2.236-1.38 7.828 7.828 0 0 1 2.746.067 7.34 7.34 0 0 0 4.682-.407v11.404zm9.976-32.89a9.34 9.34 0 0 0-1.82 3.132 9.645 9.645 0 0 0 0 3.728 5.552 5.552 0 0 1-.088 3.078 5.583 5.583 0 0 1-2.663 1.642 9.52 9.52 0 0 0-3.2 1.837 9.516 9.516 0 0 0-1.838 3.197 5.562 5.562 0 0 1-1.642 2.662c-.999.32-2.067.35-3.082.088a9.691 9.691 0 0 0-3.73 0 9.353 9.353 0 0 0-3.134 1.82A5.602 5.602 0 0 1 37 53.556a5.602 5.602 0 0 1-2.815-1.506 9.351 9.351 0 0 0-3.133-1.821 5.988 5.988 0 0 0-1.555-.186 17.08 17.08 0 0 0-2.177.187 5.564 5.564 0 0 1-3.079-.087 5.581 5.581 0 0 1-1.64-2.662 9.511 9.511 0 0 0-1.839-3.198 9.498 9.498 0 0 0-3.198-1.836 5.593 5.593 0 0 1-2.667-1.642 5.549 5.549 0 0 1-.088-3.079 9.655 9.655 0 0 0 0-3.73 9.31 9.31 0 0 0-1.822-3.131 5.61 5.61 0 0 1-1.504-2.812 5.597 5.597 0 0 1 1.507-2.813 9.34 9.34 0 0 0 1.82-3.131 9.648 9.648 0 0 0 0-3.729 5.551 5.551 0 0 1 .088-3.078 5.585 5.585 0 0 1 2.663-1.64 9.516 9.516 0 0 0 3.2-1.838 9.516 9.516 0 0 0 1.838-3.197 5.563 5.563 0 0 1 1.642-2.662 5.525 5.525 0 0 1 3.082-.088 9.665 9.665 0 0 0 3.73 0 9.35 9.35 0 0 0 3.134-1.821A5.602 5.602 0 0 1 37 2.55a5.602 5.602 0 0 1 2.815 1.506 9.352 9.352 0 0 0 3.133 1.821c1.232.242 2.5.242 3.732 0a5.565 5.565 0 0 1 3.079.085 5.58 5.58 0 0 1 1.64 2.663 9.508 9.508 0 0 0 1.839 3.198 9.496 9.496 0 0 0 3.199 1.836 5.593 5.593 0 0 1 2.666 1.642c.32.998.35 2.065.088 3.078a9.655 9.655 0 0 0 0 3.73 9.308 9.308 0 0 0 1.822 3.132 5.61 5.61 0 0 1 1.504 2.811 5.597 5.597 0 0 1-1.507 2.813z" fill="#237BEF"/><path d="M37 7.65c-11.274.004-20.411 9.14-20.408 20.408a20.402 20.402 0 0 0 12.84 18.94c10.47 4.177 22.347-.92 26.527-11.384a20.394 20.394 0 0 0 1.455-7.562C57.4 16.79 48.269 7.664 37 7.651zm17.862 20.402A17.905 17.905 0 0 1 43.62 44.63c-9.162 3.653-19.554-.808-23.21-9.965-3.655-9.158.81-19.543 9.972-23.196 9.163-3.654 19.554.808 23.21 9.965a17.842 17.842 0 0 1 1.271 6.62zM7.655 45.904H5.103A5.1 5.1 0 0 1 0 51.004v2.55a5.102 5.102 0 0 1 5.103 5.101h2.552c0-2.817 2.285-5.1 5.104-5.1v-2.55a5.102 5.102 0 0 1-5.104-5.101zM6.38 54.43l-.011-.016a7.73 7.73 0 0 0-2.126-2.124l-.015-.012a7.715 7.715 0 0 0 2.152-2.15 7.715 7.715 0 0 0 2.153 2.15A7.715 7.715 0 0 0 6.38 54.43zM68.896 1.275h-2.551c0 2.817-2.285 5.1-5.104 5.1v2.55a5.102 5.102 0 0 1 5.104 5.101h2.551c0-2.817 2.285-5.1 5.104-5.1v-2.55a5.102 5.102 0 0 1-5.104-5.1zm-1.275 8.527l-.012-.016a7.73 7.73 0 0 0-2.125-2.124l-.016-.011A7.715 7.715 0 0 0 67.621 5.5a7.715 7.715 0 0 0 2.152 2.15 7.715 7.715 0 0 0-2.152 2.152z" fill="#237BEF"/></svg>