<svg width="25" height="20" fill="none" xmlns="http://www.w3.org/2000/svg"><path d="M24.762 2.366a10.19 10.19 0 0 1-2.917.796A5.078 5.078 0 0 0 24.078.369c-.984.579-2.07.999-3.228 1.227A5.079 5.079 0 0 0 17.143 0c-2.806 0-5.08 2.262-5.08 5.05 0 .395.045.781.131 1.15A14.449 14.449 0 0 1 1.725.923a5.041 5.041 0 0 0 1.572 6.742 5.102 5.102 0 0 1-2.3-.634v.063c0 2.447 1.751 4.488 4.074 4.953a5.175 5.175 0 0 1-1.339.177c-.328 0-.645-.032-.956-.094a5.079 5.079 0 0 0 4.744 3.508 10.228 10.228 0 0 1-6.308 2.159c-.41 0-.814-.025-1.212-.07A14.418 14.418 0 0 0 7.786 20c9.345 0 14.452-7.696 14.452-14.37l-.017-.654a10.113 10.113 0 0 0 2.54-2.61z" fill="#ECECEC"/></svg>