<svg viewBox="0 0 32 32">
    <g transform="translate(1.000000, 4.000000)">
        <g transform="translate(14.000000, 10.000000)">
            <g>
                <g transform="translate(7.503127, 5.902242) rotate(-4.999996) translate(-7.503127, -5.902242) translate(0.503127, 0.902242)">
                    <path d="M12.7770267,-0.00808093068 L0.304312813,-0.00808093068 C0.140088564,-0.00808093068 0.00734285829,0.119965982 0.00734285829,0.278377488 L0.00734285829,8.87213004 C0.00734285829,9.03053009 0.140088564,9.15858846 0.304312813,9.15858846 L12.7770267,9.15858846 C12.9409667,9.15858846 13.0740134,9.03053009 13.0740134,8.87213004 L13.0740134,0.278377488 C13.0740134,0.119965982 12.9409667,-0.00808093068 12.7770267,-0.00808093068 Z M12.4800866,7.89271725 L8.80121214,4.34436828 L8.38130535,4.74942048 L12.3583332,8.58567162 L0.723041738,8.58567162 L4.70005092,4.74942048 L4.28014413,4.34436828 L0.601283701,7.89271725 L0.601283701,0.564835906 L12.4800866,0.564835906 L12.4800866,7.89271725 Z"></path>
                </g>
            </g>
            <g transform="translate(0.466667, 0.916667)">
                <g transform="translate(6.522902, 3.573960) rotate(-4.999996) translate(-6.522902, -3.573960) translate(0.522902, 0.573960)">
                    <path d="M11.2789901,0.00116669348 L5.93976185,5.15141406 L0.600528933,0.00116669348 L0.000353421071,0.00116669348 L0.000353421071,0.232338637 L5.72980846,5.7589809 C5.84591516,5.8709976 6.03360855,5.8709976 6.14971525,5.7589809 L11.8791236,0.232338637 L11.8791236,0.00116669348 L11.2789901,0.00116669348 Z"></path>
                </g>
            </g>
        </g>
        <g>
            <g transform="translate(0.234848, 0.235294)">
                <path d="M29.2636712,1.03374118 C30.6393667,2.41206118 30.6393667,4.64676235 29.2636712,6.02508235 L13.0591258,22.2603765 C11.6834303,23.6386824 9.45293333,23.6386824 8.07723788,22.2603765 L1.03178333,15.2015529 C-0.343927621,13.8232471 -0.343927621,11.5885176 1.03178333,10.2102118 C2.40749288,8.83190588 4.63796167,8.83190588 6.01367121,10.2102118 L9.90393636,14.1078588 C10.2707697,14.4753882 10.8655939,14.4753882 11.2324273,14.1078588 L24.2817833,1.03374118 C25.6574788,-0.344580235 27.8879758,-0.344580235 29.2636712,1.03374118 Z"></path>
            </g>
        </g>
    </g>
</svg>