<?xml version="1.0" encoding="UTF-8" standalone="no"?>
<svg width="32px" height="32px" viewBox="0 0 32 32" version="1.1" xmlns="http://www.w3.org/2000/svg" xmlns:xlink="http://www.w3.org/1999/xlink">
    <!-- Generator: Sketch 47.1 (45422) - http://www.bohemiancoding.com/sketch -->
    <title>Artboard</title>
    <desc>Created with Sketch.</desc>
    <defs>
        <rect id="path-1" x="-634" y="-213" width="1153" height="782"></rect>
    </defs>
    <g id="Page-1" stroke="none" stroke-width="1" fill="none" fill-rule="evenodd">
        <g id="Rectangle" opacity="0.0598763993">
            <use fill="#000000" fill-rule="evenodd" xlink:href="#path-1"></use>
            <rect stroke="#979797" stroke-width="1" x="-633.5" y="-212.5" width="1152" height="781"></rect>
        </g>
        <g id="Artboard" fill-rule="nonzero" fill="#FFFFFF">
            <g id="cloud" transform="translate(0.000000, 4.000000)">
                <path d="M30.5994521,13.3717778 C29.6663233,12.1841333 28.4824548,11.4200444 27.049337,11.0792889 C27.5052712,10.3632889 27.7325589,9.5792 27.7325589,8.72706667 C27.7325589,7.52248889 27.3158137,6.49417778 26.4828055,5.64182222 C25.6496219,4.78977778 24.6441205,4.36354222 23.4662575,4.36354222 C22.3996932,4.36354222 21.4773479,4.71586667 20.6998356,5.42044444 C20.0445808,3.80682667 19.0025644,2.50001333 17.5750575,1.50000889 C16.1472,0.50024 14.5553973,0 12.7998247,0 C10.4444493,0 8.4332274,0.85248 6.76655342,2.55702667 C5.09974795,4.26115556 4.26660822,6.31817778 4.26660822,8.72728889 C4.26660822,8.89777778 4.27776,9.14191111 4.29994082,9.46008889 C3.01112548,10.0737778 1.97216,11.0026667 1.18332932,12.2473333 C0.39456,13.4912889 0,14.8637333 0,16.3637333 C0,18.4658667 0.730687123,20.2642222 2.19164932,21.7583111 C3.65267288,23.2528444 5.41106849,24 7.46656438,24 L25.6001315,24 C27.3664877,24 28.8747397,23.3603111 30.1249315,22.0823111 C31.3749041,20.804 32,19.2614667 32,17.4545333 C31.9998247,15.9205778 31.5329315,14.5590667 30.5994521,13.3717778 Z" id="path0_fill"></path>
            </g>
        </g>
    </g>
</svg>