<?xml version="1.0" encoding="UTF-8"?>
<svg width="148px" height="148px" viewBox="0 0 148 148" version="1.1" xmlns="http://www.w3.org/2000/svg" xmlns:xlink="http://www.w3.org/1999/xlink">
    <!-- Generator: Sketch 48 (47235) - http://www.bohemiancoding.com/sketch -->
    <title>Artboard 2</title>
    <desc>Created with Sketch.</desc>
    <defs></defs>
    <g id="Artboard-2" stroke="none" stroke-width="1" fill="none" fill-rule="evenodd">
        <g id="community" transform="translate(1.000000, 0.000000)">
            <path d="M108.480178,110.849124 C108.486466,111.890529 108.474854,112.810612 108.4648,113.65861 L108.4648,113.75431 L108.4492,115.50041 C108.4375,116.08439 108.293,116.67228 108.0586,117.19963 L116.6875,123.0785 C116.7891,123.1488 116.8867,123.225 116.9805,123.3051 L125.9414,117.19963 C125.707,116.67228 125.5625,116.08439 125.5508,115.50041 L125.5352,113.75431 L125.5352,113.65861 C125.5253,112.823601 125.513889,111.918699 125.519546,110.896894 C123.184426,112.227149 120.372227,113 117.0415,113 C113.671052,113 110.831607,112.20863 108.480178,110.849124 Z M127.537931,109.5192 C127.502999,111.027197 127.5171,112.294518 127.5312,113.44377 L127.5352,113.72111 L127.5508,115.50041 C127.5352,116.08635 127.6758,116.42424 128.0547,116.86955 C128.7188,117.68986 130.0156,118.3735 131.8359,119.059 C132.707,119.3871 133.6484,119.6977 134.625,120.0199 L134.7383,120.057 C135.7344,120.3871 136.7617,120.727 137.7695,121.1078 C141.7539,122.6039 146,124.893 146,130.0004 L146,146.5004 C146,147.0531 145.5508,147.5004 145,147.5004 C144.4492,147.5004 144,147.0531 144,146.5004 L144,130.0004 C144,126.3481 141.0898,124.4906 137.0664,122.9789 C136.1172,122.6215 135.1328,122.2953 134.1641,121.9731 L134.0078,121.9223 C133.0195,121.5961 132.0469,121.2738 131.1328,120.932 C129.6523,120.3754 128.1992,119.7172 127.1484,118.7973 L117.957,125.057 C117.9844,125.2211 118,125.3871 118,125.557 L118,146.5004 C118,147.0531 117.5508,147.5004 117,147.5004 C116.4492,147.5004 116,147.0531 116,146.5004 L116,125.557 C116,125.227 115.8359,124.9184 115.5625,124.7309 L106.8516,118.7973 C105.8008,119.7172 104.3477,120.3754 102.8672,120.932 C101.9531,121.2738 100.9805,121.5961 99.9922,121.9223 L99.8359,121.9731 C98.8672,122.2953 97.88281,122.6215 96.93359,122.9789 C92.91016,124.4906 90,126.3481 90,130.0004 L90,146.5004 C90,147.0531 89.55078,147.5004 89,147.5004 C88.449219,147.5004 88,147.0531 88,146.5004 L88,130.0004 C88,124.893 92.24609,122.6039 96.23047,121.1078 C97.23828,120.727 98.2656,120.3871 99.2617,120.057 L99.375,120.0199 C100.3516,119.6977 101.293,119.3871 102.1641,119.059 C103.9844,118.3735 105.2812,117.68986 105.9453,116.86955 C106.3242,116.42424 106.4648,116.08635 106.4492,115.50041 L106.4648,113.72111 L106.4688,113.44377 C106.483114,112.277077 106.497428,110.988706 106.460445,109.45038 C105.030844,108.278899 103.830561,106.866002 102.84517,105.2866 C100.16373,100.9887 99.10758,95.539 99.04451,90.4851 C95.99605,84.335 96.624954,78.8598 99.16783,74.86377 C101.68955,70.90098 106.04934,68.5 110.0415,68.5 L135.5415,68.5 C136.6217,68.5 137.5067,69.357709 137.5405,70.43736 C137.7899,78.5961 137.1345,83.7353 136.4247,86.7153 C136.0461,88.2795 135.6151,89.4113 135.3105,90.0585 C135.2164,90.2552 135.1212,90.4361 135.0371,90.5867 C134.9612,95.612 133.9013,101.0175 131.2378,105.2866 C130.233045,106.897056 129.004848,108.334395 127.537931,109.5192 Z M101,133 C101.55228,133 102,133.447715 102,134 L102,146 C102,146.5523 101.55228,147 101,147 C100.447715,147 100,146.5523 100,146 L100,134 C100,133.447715 100.447715,133 101,133 Z M133,133 C133.55228,133 134,133.447715 134,134 L134,146 C134,146.5523 133.55228,147 133,147 C132.447715,147 132,146.5523 132,146 L132,134 C132,133.447715 132.447715,133 133,133 Z M135.5415,70.5 L110.0415,70.5 C103.54286,70.5 95.04326,78.5 101.04149,90 C101.04149,99.9411 105.04287,111 117.0415,111 C129.0401,111 133.0415,99.9411 133.0415,90 C133.0415,90 136.0429,86.5 135.5415,70.5 Z" id="Combined-Shape" fill="#000000" fill-rule="nonzero"></path>
            <path d="M107.257464,82.078564 C117.1776,79.59852 124.7317,82.91634 127.6306,85.27167 C128.0592,85.61994 128.1244,86.24974 127.7761,86.67838 C127.4278,87.10701 126.798,87.17217 126.3694,86.8239 C124.0016,84.9001 117.3978,81.870475 108.5,83.84032 L108.5,86.04774 C108.5,86.60002 108.05228,87.04774 107.5,87.04774 C106.947715,87.04774 106.5,86.60002 106.5,86.04774 L106.5,83.04871 C106.5,82.58984 106.812297,82.189856 107.257464,82.078564 Z" id="Combined-Shape-path" fill="#000000"></path>
            <path d="M52,10 L107,10 C111.4183,10 115,13.58172 115,18 L115,55 C115,59.4183 111.4183,63 107,63 L90.2857,63 C90.099,63 89.916,63.0523 89.7574,63.1509 L69.0947,76.0077 C68.4149,76.4307 67.5385,75.9231 67.567,75.123 L67.963,64.0357 C67.9832,63.4698 67.5299,63 66.9636,63 L52,63 C47.58172,63 44,59.4183 44,55 L44,18 C44,13.58172 47.58172,10 52,10 Z M107,12 L52,12 C48.68629,12 46,14.68629 46,18 L46,55 C46,58.3137 48.68629,61 52,61 L66.9636,61 C68.6625,61 70.0224,62.4093 69.9617,64.1071 L69.6328,73.3174 L88.7008,61.4528 C89.1051,61.224 89.8216,61.0193 90.2857,61 L107,61 C110.3137,61 113,58.3137 113,55 L113,18 C113,14.68629 110.3137,12 107,12 Z" id="Combined-Shape" fill="#23B3FF" fill-rule="nonzero" transform="translate(79.500000, 43.080219) scale(-1, 1) translate(-79.500000, -43.080219) "></path>
            <g id="Group-2" transform="translate(22.000000, 0.000000)" fill-rule="nonzero">
                <path d="M0,8 C0,3.58172 3.58172,0 8,0 L75,0 C79.4183,0 83,3.58172 83,8 L83,47 C83,51.4183 79.4183,55 75,55 L56.2905,55 C56.1008,55 55.9149,55.054 55.7547,55.1557 L32.0912,70.1729 C31.3317,70.6549 30.3716,69.9672 30.5835,69.093 L33.7005,56.2356 C33.853,55.6062 33.3762,55 32.7286,55 L8,55 C3.58172,55 0,51.4183 0,47 L0,8 Z" id="path7_fill" fill="#F2F2F2"></path>
                <path d="M8,0 L75,0 C79.4183,0 83,3.58172 83,8 L83,47 C83,51.4183 79.4183,55 75,55 L56.2905,55 C56.1008,55 55.9149,55.054 55.7547,55.1557 L32.0912,70.1729 C31.3317,70.6549 30.3716,69.9672 30.5835,69.093 L33.7005,56.2356 C33.853,55.6062 33.3762,55 32.7286,55 L8,55 C3.58172,55 0,51.4183 0,47 L0,8 C0,3.58172 3.58172,0 8,0 Z M75,2 L8,2 C4.68629,2 2,4.68629 2,8 L2,47 C2,50.3137 4.68629,53 8,53 L32.7286,53 C34.6715,53 36.1019,54.8186 35.6442,56.7068 L33.1107,67.1571 L54.6831,53.467 C55.0919,53.2312 55.819,53.02 56.2905,53 L75,53 C78.3137,53 81,50.3137 81,47 L81,8 C81,4.68629 78.3137,2 75,2 Z M18,16 C18,15.447715 18.447715,15 19,15 L27,15 C27.55228,15 28,15.447715 28,16 C28,16.55228 27.55228,17 27,17 L19,17 C18.447715,17 18,16.55228 18,16 Z M56,39 C56,38.447715 56.447715,38 57,38 L65,38 C65.55228,38 66,38.447715 66,39 C66,39.55228 65.55228,40 65,40 L57,40 C56.447715,40 56,39.55228 56,39 Z M34,16 C34,15.447715 34.447715,15 35,15 L65,15 C65.5523,15 66,15.447715 66,16 C66,16.55228 65.5523,17 65,17 L35,17 C34.447715,17 34,16.55228 34,16 Z M17,39 C17,38.447715 17.447715,38 18,38 L48,38 C48.5523,38 49,38.447715 49,39 C49,39.55228 48.5523,40 48,40 L18,40 C17.447715,40 17,39.55228 17,39 Z M18,28 C18,27.447715 18.447715,27 19,27 L65,27 C65.5523,27 66,27.447715 66,28 C66,28.55228 65.5523,29 65,29 L19,29 C18.447715,29 18,28.55228 18,28 Z" id="Combined-Shape" fill="#000000"></path>
            </g>
            <path d="M18.5,110.5 C19.0523,110.500008 19.5,110.94773 19.5,111.50002 L19.5,117.5 C19.5,118.35366 18.8564,118.97643 18.3672,119.36212 C17.8315,119.7813 17.0648,120.22882 16.221,120.6608 C15.2583,121.1527 14.1209,121.6715 12.9156,122.2214 C12.0271,122.6267 11.1017,123.0488 10.182,123.4895 C8.01374,124.5279 5.92442,125.6367 4.35831,126.8925 C2.78303,128.1502 2,129.3466 2,130.5 L2,145.9996 C2,145.9997 2,146 1,146 C0,146 0,146 0,146 L0,130.5 C0,128.4034 1.40447,126.6915 3.11045,125.3295 C4.82558,123.9656 7.11126,122.7431 9.31798,121.6858 C10.2641,121.2326 11.2044,120.8039 12.0966,120.39698 C13.2864,119.85441 14.3909,119.35075 15.3103,118.88014 C16.1071,118.47301 16.7076,118.12701 17.1289,117.79159 C17.3914,117.58459 17.4762,117.46449 17.5,117.42901 L17.5,111.499985 C17.5,110.9477 17.9477,110.499992 18.5,110.5 Z M37.0045938,119.039093 C37.85692,119.463758 38.8465063,119.915018 39.9034,120.39698 C40.7956,120.8039 41.7359,121.2326 42.68202,121.6858 C44.88874,122.7431 47.17442,123.9656 48.88955,125.3295 C50.59553,126.6915 52,128.4034 52,130.5 L52,145.9999 C52,145.9999 52,145.9999 52,145.9999 C52,146.5522 51.552285,147 51,147 C50.44772,147 50,146.5519 50,145.9996 C50,145.9996 50,145.9996 50,145.9996 L50,130.5 C50,129.3466 49.21697,128.1502 47.64169,126.8925 C46.07558,125.6367 43.98626,124.5279 41.818,123.4895 C41.2979678,123.240312 40.7761133,122.997071 40.2601376,122.759451 C33.9035615,130.237077 27.9700939,132.024186 23.0023,130.79242 C18.03124,129.55982 14.41851,125.38566 12.6,122.00842 L14.36094,121.060217 C16.04243,124.18298 19.2797,127.80882 23.4836,128.85121 C27.3786062,129.817002 32.4671516,128.641646 38.3664528,121.893432 C37.4287678,121.463957 36.5481294,121.053793 35.779,120.6608 C34.9352,120.22882 34.1685,119.7813 33.6328,119.36212 C33.1436,118.97643 32.5,118.35366 32.5,117.5 L32.5,112.680633 C31.3245208,113.227385 30.0634526,113.665566 28.7248,113.9744 C25.2457,114.7771 22.251,114.2794 19.7391,112.9638 C17.304,111.6732 15.27932,109.5594 13.78932,107.2995 C10.81122,102.768 9.5,97.2037 9.5,94.5012 C9.5,93.9489 9.947715,93.5012 10.5,93.5012 C11.05228,93.5012 11.5,93.9489 11.5,94.5012 C11.5,96.7986 12.68878,101.9833 15.46068,106.2011 C16.84568,108.3158 18.5085,110.0766 20.6671,111.1921 C22.749,112.2826 25.2543,112.7225 28.2752,112.0256 C36.289,110.1768 41.0659,103.2132 40.7851,96.8296 C40.6458,93.6638 39.2666,90.61845 36.3788,88.34604 C33.5344,86.10777 29.1495,84.56202 22.8817,84.50182 L18.16895,88.74308 C17.75843,89.11253 17.12614,89.07924 16.75669,88.66872 C16.38724,88.2582 16.42054,87.62591 16.83105,87.25646 L21.8311,82.756689 C22.0147,82.5914397 22.253,82.5000027 22.5,82.5 C29.2781,82.4999242 34.2636,84.1366 37.6156,86.77431 C40.9816,89.42303 42.6194,93.0206 42.7831,96.7417 C43.0304608,102.363148 39.9231212,108.213828 34.5,111.597269 L34.5,117.42901 C34.5138757,117.449695 34.5484855,117.499143 34.6269557,117.577806 C34.6794918,117.555946 34.7346425,117.538309 34.7921,117.5254 C42.7492,115.7285 47.9757,112.6152 50.2218,111.0762 C50.5304,110.8652 50.6827,110.4238 50.5031,109.9531 C49.2765,106.793 46.5265,98.5801 46.5148,89 C46.5148,77.3672 37.2492,68 26.5148,68 C15.8117,68 7.01478,77.334 7.01478,89 C7.00306,98.7129 4.17494,107.0215 2.97572,110.084 C2.80384,110.5234 2.93666,110.9023 3.18275,111.0898 C4.97963,112.4473 9.40931,115.2461 17.2374,117.0254 C17.7765,117.1465 18.1124,117.6836 17.9913,118.2207 C17.8663,118.7598 17.3312,119.0977 16.7921,118.9746 C8.67494,117.1309 3.98744,114.2031 1.97572,112.6855 C0.8897817,111.8652 0.674938,110.4727 1.112438,109.3555 C2.29603,106.334 5.0265,98.3848 5.01478,89 C5.01478,76.3652 14.5734,66 26.5148,66 C38.4249,66 48.5148,76.334 48.5148,89 C48.5031,98.2559 51.1593,106.1133 52.3663,109.2305 C52.8351,110.4395 52.5343,111.918 51.3507,112.7266 C49.2181413,114.18569 44.2868032,117.114616 37.0045938,119.039093 Z M1,147 C0.447715,147 0,146.5522 0,145.9999 L1,146 L2,145.9996 C2,146.5519 1.55228,147 1,147 Z M10,134.5 C10.55228,134.5 11,134.947715 11,135.5 L11,146 C11,146.5523 10.55228,147 10,147 C9.447715,147 9,146.5523 9,146 L9,135.5 C9,134.947715 9.447715,134.5 10,134.5 Z M43,134.5 C43.55228,134.5 44,134.947715 44,135.5 L44,146 C44,146.5523 43.55228,147 43,147 C42.447715,147 42,146.5523 42,146 L42,135.5 C42,134.947715 42.447715,134.5 43,134.5 Z" id="Combined-Shape" fill="#000000" fill-rule="nonzero"></path>
        </g>
    </g>
</svg>