<svg class="svg-icon" viewBox="0 0 32 32">
    <g>
        <path d="M-5.13725395,15.1373027 C-5.61356109,15.1373027 -6,15.5236701 -6,16 C-6,16.4763299 -5.61356109,16.8626973 -5.13725395,16.8626973 L15.1373027,16.8626973 L15.1373027,37.1373027 C15.1373027,37.6136327 15.5236701,38 16,38 C16.4763299,38 16.8626973,37.6136327 16.8626973,37.1373027 L16.8626973,16.8626973 L37.1373027,16.8626973 C37.6136327,16.8626973 38,16.4763299 38,16 C38,15.5236701 37.6136327,15.1373027 37.1373027,15.1373027 L16.8626973,15.1373027 L16.8626973,-5.13725395 C16.8626973,-5.61356109 16.4763299,-6 16,-6 C15.5236701,-6 15.1373027,-5.61356109 15.1373027,-5.13725395 L15.1373027,15.1373027 L-5.13725395,15.1373027 Z" id="path0_fill" transform="translate(16.000000, 16.000000) rotate(45.000000) translate(-16.000000, -16.000000) "></path>
    </g>
</svg>