<?xml version="1.0" encoding="UTF-8"?>
<svg width="32px" height="32px" viewBox="0 0 32 32" version="1.1" xmlns="http://www.w3.org/2000/svg" xmlns:xlink="http://www.w3.org/1999/xlink">
    <g id="Artboard-4" stroke="none" stroke-width="1" fill="none" fill-rule="evenodd">
        <path d="M22.56664,14.13331 C25.13985,14.13331 27.23328,12.03982 27.23328,9.46666 C27.23328,6.8935 25.13979,4.8000001 22.56664,4.8000001 C19.99349,4.8000001 17.9000001,6.8935 17.9000001,9.46666 C17.9000001,12.03982 19.99343,14.13331 22.56664,14.13331 Z M20.23329,12.26666 C19.97571,12.26666 19.76664,12.05759 19.76664,11.80001 C19.76664,11.54243 19.97571,11.33336 20.23329,11.33336 C20.49087,11.33336 20.69994,11.54243 20.69994,11.80001 C20.69994,12.05759 20.49087,12.26666 20.23329,12.26666 Z M22.56664,13.19996 C22.30906,13.19996 22.09999,12.99089 22.09999,12.73331 C22.09999,12.47573 22.30906,12.26666 22.56664,12.26666 C22.82422,12.26666 23.03329,12.47573 23.03329,12.73331 C23.03329,12.99089 22.82422,13.19996 22.56664,13.19996 Z M24.89993,12.26666 C24.64235,12.26666 24.43328,12.05759 24.43328,11.80001 C24.43328,11.54243 24.64235,11.33336 24.89993,11.33336 C25.15751,11.33336 25.36658,11.54243 25.36658,11.80001 C25.36658,12.05759 25.15756,12.26666 24.89993,12.26666 Z M25.83328,8.99995 C26.09086,8.99995 26.29993,9.20902 26.29993,9.4666 C26.29993,9.72418 26.09086,9.93325 25.83328,9.93325 C25.57571,9.93325 25.36663,9.72418 25.36663,9.4666 C25.36663,9.20902 25.57571,8.99995 25.83328,8.99995 Z M24.89993,6.66665 C25.15751,6.66665 25.36658,6.87572 25.36658,7.1333 C25.36658,7.39088 25.15751,7.59995 24.89993,7.59995 C24.64235,7.59995 24.43328,7.39088 24.43328,7.1333 C24.43328,6.87572 24.64235,6.66665 24.89993,6.66665 Z M22.56664,5.733299 C22.82422,5.733299 23.03329,5.94237 23.03329,6.19995 C23.03329,6.45753 22.82422,6.6666 22.56664,6.6666 C22.30906,6.6666 22.09999,6.45753 22.09999,6.19995 C22.09999,5.94237 22.30901,5.733299 22.56664,5.733299 Z M22.56664,7.59995 C23.59613,7.59995 24.43328,8.43716 24.43328,9.4666 C24.43328,10.49604 23.59608,11.33325 22.56664,11.33325 C21.5372,11.33325 20.7,10.49604 20.7,9.4666 C20.7,8.43716 21.53715,7.59995 22.56664,7.59995 Z M20.23329,6.66665 C20.49087,6.66665 20.69994,6.87572 20.69994,7.1333 C20.69994,7.39088 20.49087,7.59995 20.23329,7.59995 C19.97571,7.59995 19.76664,7.39088 19.76664,7.1333 C19.76664,6.87572 19.97571,6.66665 20.23329,6.66665 Z M18.833296,9.46666 C18.833296,9.20908 19.04237,9.00001 19.29994,9.00001 C19.55752,9.00001 19.76659,9.20908 19.76659,9.46666 C19.76659,9.72424 19.55752,9.93331 19.29994,9.93331 C19.04237,9.93331 18.833296,9.72424 18.833296,9.46666 Z M22.53335,10.36671 C22.018578,10.36671 21.5999997,9.94813 21.5999997,9.433353 C21.5999997,8.918579 22.018578,8.49999986 22.53335,8.49999986 C23.04812,8.49999986 23.4667,8.918634 23.4667,9.433353 C23.4667,9.94813 23.04807,10.36671 22.53335,10.36671 Z" id="Combined-Shape" fill="#23B3FF" fill-rule="nonzero"></path>
        <path d="M22.5333,2 C19.6059,2 17.0738,3.69728 15.8507,6.15566 L4.00342,18.0035 C4.00107,18.0053 4.00063,18.0086 3.99828,18.0109 C2.78542,18.9503 2,20.417 2,22.0667 C2,24.8798 4.27549,27.1692 7.08248,27.1972 L25.254,29.8567 C25.5764,29.9477 25.9152,30 26.2666,30 L26.2671,30 L26.2676,30 C28.3256,29.9991 30,28.3246 30,26.2666 L30,9.46661 C29.9999,5.34929 26.6502,2 22.5333,2 Z M22.5333,3.86665 C25.6212,3.86665 28.1333,6.37824 28.1333,9.46666 C28.1333,12.5546 25.6212,15.0667 22.5333,15.0667 C19.4454,15.0667 16.9333,12.5546 16.9333,9.46666 C16.9333,6.37829 19.4454,3.86665 22.5333,3.86665 Z M7.13334,24.4 C5.84677,24.4 4.79999,23.3533 4.79999,22.0667 C4.79999,20.7801 5.84671,19.7333 7.13334,19.7333 C8.41992,19.7333 9.46669,20.7801 9.46669,22.0667 C9.46663,23.3533 8.41992,24.4 7.13334,24.4 Z M26.2666,26.7334 C26.009,26.7334 25.8,26.5243 25.8,26.2668 C25.8,26.0087 26.009,25.8001 26.2666,25.8001 C26.5242,25.8001 26.7332,26.0087 26.7332,26.2668 C26.7333,26.5243 26.5242,26.7334 26.2666,26.7334 Z M29.0666,23.8055 C28.382,23.0276 27.382,22.5334 26.2666,22.5334 C24.2081,22.5334 22.5333,24.2083 22.5333,26.2668 C22.5333,27.1674 22.8538,27.9948 23.3873,28.6402 L9.5147,26.6102 C11.14849,25.7502 12.2666,24.0375 12.2666,22.0667 C12.2666,19.2359 9.96363,16.9334 7.13329,16.9334 C6.85701,16.9334 6.58729,16.9614 6.32271,17.0039 L15.1926,8.13393 C15.1142,8.567 15.0666,9.01128 15.0666,9.46672 C15.0666,13.5837 18.4163,16.9334 22.5333,16.9334 C25.3426,16.9334 27.7921,15.3719 29.0666,13.0731 L29.0666,23.8055 Z M7.1,20.6999997 C7.87186,20.6999997 8.49999,21.328142 8.49999,22.1 C8.49999,22.87186 7.87186,23.50001 7.1,23.50001 C6.328139,23.50001 5.69999991,22.87186 5.69999991,22.1 C5.69999991,21.328142 6.328139,20.6999997 7.1,20.6999997 Z" id="Combined-Shape" fill="#23B3FF" fill-rule="nonzero"></path>
    </g>
</svg>