<?xml version="1.0" encoding="UTF-8"?>
<svg width="32px" height="32px" viewBox="0 0 32 32" version="1.1" xmlns="http://www.w3.org/2000/svg" xmlns:xlink="http://www.w3.org/1999/xlink">
    <!-- Generator: Sketch 48 (47235) - http://www.bohemiancoding.com/sketch -->
    <title>Artboard Copy 6</title>
    <desc>Created with Sketch.</desc>
    <defs></defs>
    <g id="Artboard-Copy-5" stroke="none" stroke-width="1" fill="none" fill-rule="evenodd">
        <path d="M23.3598001,0.00663213 L19.2823001,0 C14.7013401,0 11.7409201,3.07897 11.7409201,7.84448 L11.7409201,11.4613 L7.64115211,11.4613 C7.28688311,11.4613 7,11.7525 7,12.1116 L7,17.352 C7,17.7111 7.28721011,18.0019 7.64115211,18.0019 L11.7409201,18.0019 L11.7409201,31.2251 C11.7409201,31.5842 12.0278001,31.875 12.3820701,31.875 L17.7311001,31.875 C18.0854001,31.875 18.3723001,31.5838 18.3723001,31.2251 L18.3723001,18.0019 L23.1658001,18.0019 C23.5201001,18.0019 23.8070001,17.7111 23.8070001,17.352 L23.8090001,12.1116 C23.8090001,11.9392 23.7412001,11.774 23.6212001,11.652 C23.5011001,11.53 23.3376001,11.4613 23.1675001,11.4613 L18.3723001,11.4613 L18.3723001,8.39528 C18.3723001,6.92162 18.7187001,6.17352 20.6124001,6.17352 L23.3592001,6.17252 C23.7131001,6.17252 24.0000001,5.88137 24.0000001,5.52257 L24.0000001,0.656581 C24.0000001,0.298114 23.7134001,0.00729534 23.3598001,0.00663213 Z" id="path0_fill" fill="#FFFFFF" fill-rule="nonzero"></path>
    </g>
</svg>