<?xml version="1.0" encoding="UTF-8"?>
<svg width="32px" height="32px" viewBox="0 0 32 32" version="1.1" xmlns="http://www.w3.org/2000/svg" xmlns:xlink="http://www.w3.org/1999/xlink">
    <!-- Generator: Sketch 48 (47235) - http://www.bohemiancoding.com/sketch -->
    <title>Artboard Copy 4</title>
    <desc>Created with Sketch.</desc>
    <defs></defs>
    <g id="Artboard-Copy-3" stroke="none" stroke-width="1" fill="none" fill-rule="evenodd">
        <g id="Group" fill="#FFFFFF" fill-rule="nonzero">
            <path d="M23.169,0 L8.83065,0 C3.96143,0 0,3.96162 0,8.83084 L0,23.1692 C0,28.0386 3.96143,32 8.83065,32 L23.169,32 C28.0386,32 32,28.0384 32,23.1692 L32,8.83084 C32.0002,3.96162 28.0386,0 23.169,0 Z M29.161,23.1692 C29.161,26.473 26.473,29.1608 23.1692,29.1608 L8.83065,29.1608 C5.52697,29.161 2.8392,26.473 2.8392,23.1692 L2.8392,8.83084 C2.8392,5.52716 5.52697,2.8392 8.83065,2.8392 L23.169,2.8392 C26.4728,2.8392 29.1608,5.52716 29.1608,8.83084 L29.1608,23.1692 L29.161,23.1692 Z" id="path0_fill"></path>
            <path d="M16.04559,7.80000023 C11.4989,7.80000023 7.79999972,11.4989 7.79999972,16.04559 C7.79999972,20.5921 11.4989,24.2908 16.04559,24.2908 C20.5923,24.2908 24.2912,20.5921 24.2912,16.04559 C24.2912,11.4989 20.5923,7.80000023 16.04559,7.80000023 Z M16.04559,21.4514 C13.06462,21.4514 10.63919,19.0264 10.63919,16.0454 C10.63919,13.06425 13.06444,10.63901 16.04559,10.63901 C19.0267,10.63901 21.452,13.06425 21.452,16.0454 C21.452,19.0264 19.0266,21.4514 16.04559,21.4514 Z M24.58208,5.2999999 C25.13099,5.2999999 25.66854,5.521457 26.05467,5.909481 C26.4427,6.295611 26.66415,6.83317 26.66415,7.38208 C26.66415,7.92909 26.4427,8.46665 26.05467,8.85467 C25.66665,9.2408 25.13099,9.46415 24.58208,9.46415 C24.03506,9.46415 23.497504,9.2408 23.111374,8.85467 C22.72335,8.46665 22.4999995,7.92928 22.4999995,7.38208 C22.4999995,6.83317 22.723161,6.295611 23.111374,5.909481 C23.497693,5.521457 24.03506,5.2999999 24.58208,5.2999999 Z" id="Combined-Shape"></path>
        </g>
    </g>
</svg>