<svg viewBox="0 0 32 32">
    <g transform="translate(0.000000, 9.000000)">
        <g >
            <g transform="translate(6.848017, 4.818263) rotate(-4.999996) translate(-6.848017, -4.818263) translate(0.348017, 0.818263)">
                <path d="M12.1624778,0.00663062177 L1.25753039,0.00663062177 C1.11394844,0.00663062177 0.997888742,0.114944183 0.997888742,0.248943047 L0.997888742,7.51833874 C0.997888742,7.65233878 1.11394844,7.76063292 1.25753039,7.76063292 L12.1624778,7.76063292 C12.3057873,7.76063292 12.4221064,7.65233878 12.4221064,7.51833874 L12.4221064,0.248943047 C12.4221064,0.114944183 12.3057873,0.00663062177 12.1624778,0.00663062177 Z M11.9028491,6.6898679 L8.68640055,3.68832583 L8.3192433,4.03095535 L11.7963729,7.27598572 L1.62362226,7.27598572 L5.10074567,4.03095535 L4.73361318,3.68832583 L1.51717204,6.6898679 L1.51717204,0.491255472 L11.9028491,0.491255472 L11.9028491,6.6898679 Z" ></path>
            </g>
        </g>
        <g  transform="translate(0.000000, 0.588235)">
            <g transform="translate(6.770290, 3.249247) rotate(-4.999996) translate(-6.770290, -3.249247) translate(0.770290, 0.749247)">
                <path d="M10.8583298,0.00454847987 L6.19022655,4.36108507 L1.52212883,0.00454847987 L0.997393577,0.00454847987 L0.997393577,0.200095009 L6.0066603,4.87503228 C6.10817795,4.96977348 6.27226895,4.96977348 6.37379279,4.87503228 L11.3830348,0.200095009 L11.3830348,0.00454847987 L10.8583298,0.00454847987 Z" ></path>
            </g>
        </g>
    </g>
    <g  transform="translate(5.000000, 0.000000)">
        <g>
            <g>
                <path d="M1.23564375,1.23564375 C2.88316687,-0.411881063 5.55433312,-0.411881063 7.20185625,1.23564375 L12.7045125,6.7383 C13.143825,7.1776125 13.856175,7.1776125 14.2954875,6.7383 L19.7981437,1.23564375 C21.44565,-0.411881063 24.11685,-0.411881063 25.7643562,1.23564375 C27.4118625,2.88316688 27.4118625,5.55433313 25.7643562,7.20185625 L20.2617,12.7045125 C19.8223875,13.143825 19.8223875,13.856175 20.2617,14.2954875 L25.7643562,19.7981438 C27.4118625,21.44565 27.4118625,24.11685 25.7643562,25.7643563 C24.11685,27.4118625 21.44565,27.4118625 19.7981437,25.7643563 L14.2954875,20.2617 C13.856175,19.8223875 13.143825,19.8223875 12.7045125,20.2617 L7.20185625,25.7643563 C5.55433312,27.4118625 2.88316687,27.4118625 1.23564375,25.7643563 C-0.411881062,24.11685 -0.411881062,21.44565 1.23564375,19.7981438 L6.7383,14.2954875 C7.1776125,13.856175 7.1776125,13.143825 6.7383,12.7045125 L1.23564375,7.20185625 C-0.411881062,5.55433313 -0.411881062,2.88316688 1.23564375,1.23564375 Z" ></path>
            </g>
        </g>
    </g>
</svg>