<svg class="svg-icon" viewBox="0 0 32 32">
    <g transform="translate(1.000000, 5.000000)">
        <g>
            <path d="M29.3181429,0 L0.681818571,0 C0.304773214,0 0,0.3073125 0,0.6875 L0,21.3125 C0,21.69266 0.304773214,22 0.681818571,22 L29.3181429,22 C29.6945357,22 30,21.69266 30,21.3125 L30,0.6875 C30,0.3073125 29.6945357,0 29.3181429,0 Z M28.6363929,18.96191 L20.19,10.445875 L19.2259286,11.418 L28.3568571,20.625 L1.64318571,20.625 L10.7740714,11.418 L9.81,10.445875 L1.36363929,18.96191 L1.36363929,1.375 L28.6363929,1.375 L28.6363929,18.96191 Z" id="path0_fill"></path>
        </g>
        <g transform="translate(1.000000, 1.000000)">
            <g transform="translate(0.322222, 0.228571)">
                <path d="M25.9587593,0 L13.670063,12.8421714 L1.38135593,0 L0,0 L0,0.576428571 L13.186837,14.3571429 C13.4540667,14.6364571 13.8860593,14.6364571 14.1532889,14.3571429 L27.3400185,0.576428571 L27.3400185,0 L25.9587593,0 Z"></path>
            </g>
        </g>
    </g>
</svg>