<?xml version="1.0" encoding="UTF-8"?>

<svg width="32px" height="32px" class="svg-icon" viewBox="0 0 32 32" version="1.1" xmlns="http://www.w3.org/2000/svg" xmlns:xlink="http://www.w3.org/1999/xlink">
    <g>
        <path d="M21.9253239,22.9923822 C19.603494,24.9293547 16.5947471,26.0980502 13.3074314,26.0980502 C5.95814258,26.0980502 0,20.2555667 0,13.0490251 C0,5.84244623 5.95814258,0 13.3074314,0 C20.6566821,0 26.6148627,5.84244623 26.6148627,13.0490251 C26.6148627,16.5868022 25.1779136,19.7968624 22.8461982,22.1476754 C22.8560837,22.1561261 22.8672366,22.1658197 22.8771221,22.1756375 L31.8142663,30.9392385 C32.0619112,31.1819504 32.0619112,31.575161 31.8142663,31.8178729 C31.5667481,32.060709 31.1657508,32.060709 30.9182326,31.8178729 L21.9810884,23.0542719 C21.9611906,23.0348848 21.942687,23.0142549 21.9253239,22.9923822 Z M25.3474883,13.0490251 C25.3474883,6.52815385 19.9574717,1.2427643 13.3074314,1.2427643 C6.65742909,1.2427643 1.26737442,6.52815385 1.26737442,13.0490251 C1.26737442,19.5699336 6.65742909,24.8552859 13.3074314,24.8552859 C19.9574717,24.8552859 25.3474883,19.5699336 25.3474883,13.0490251 Z"></path>
    </g>
</svg>