<?xml version="1.0" encoding="UTF-8" standalone="no"?>
<svg width="224px" height="224px" viewBox="0 0 224 224" version="1.1" xmlns="http://www.w3.org/2000/svg" xmlns:xlink="http://www.w3.org/1999/xlink">
    <!-- Generator: Sketch 47.1 (45422) - http://www.bohemiancoding.com/sketch -->
    <title>Artboard 2</title>
    <desc>Created with Sketch.</desc>
    <defs>
        <polygon id="path-1" points="0 0 224 0 224 224 0 224"></polygon>
    </defs>
    <g id="Page-1" stroke="none" stroke-width="1" fill="none" fill-rule="evenodd">
        <g id="Artboard-2">
            <g id="pattern">
                <mask id="mask-2" fill="white">
                    <use xlink:href="#path-1"></use>
                </mask>
                <g id="Shape"></g>
                <g id="Frame" mask="url(#mask-2)">
                    <g transform="translate(-10.000000, -10.000000)" id="Group-5">
                        <g>
                            <g id="Line" transform="translate(10.000000, 31.000000)" fill-rule="nonzero" fill="#414141">
                                <g id="path0_stroke-link" transform="translate(0.500000, 90.500000) rotate(90.000000) translate(-0.500000, -90.500000) translate(-90.000000, 90.000000)">
                                    <path d="M0,1 L1,1 L1,-5.55111512e-15 L0,-5.55111512e-15 L0,1 Z M12,1 L13,1 L13,-5.55111512e-15 L12,-5.55111512e-15 L12,1 Z M24,1 L25,1 L25,-5.55111512e-15 L24,-5.55111512e-15 L24,1 Z M36,1 L37,1 L37,-5.55111512e-15 L36,-5.55111512e-15 L36,1 Z M48,1 L49,1 L49,-5.55111512e-15 L48,-5.55111512e-15 L48,1 Z M60,1 L61,1 L61,-5.55111512e-15 L60,-5.55111512e-15 L60,1 Z M72,1 L73,1 L73,-5.55111512e-15 L72,-5.55111512e-15 L72,1 Z M84,1 L85,1 L85,-5.55111512e-15 L84,-5.55111512e-15 L84,1 Z M96,1 L97,1 L97,-5.55111512e-15 L96,-5.55111512e-15 L96,1 Z M108,1 L109,1 L109,-5.55111512e-15 L108,-5.55111512e-15 L108,1 Z M120,1 L121,1 L121,-5.55111512e-15 L120,-5.55111512e-15 L120,1 Z M132,1 L133,1 L133,-5.55111512e-15 L132,-5.55111512e-15 L132,1 Z M144,1 L145,1 L145,-5.55111512e-15 L144,-5.55111512e-15 L144,1 Z M156,1 L157,1 L157,-5.55111512e-15 L156,-5.55111512e-15 L156,1 Z M168,1 L169,1 L169,-5.55111512e-15 L168,-5.55111512e-15 L168,1 Z M180,1 L181,1 L181,-5.55111512e-15 L180,-5.55111512e-15 L180,1 Z" id="path0_stroke"></path>
                                </g>
                            </g>
                            <g id="Line" transform="translate(233.000000, 31.000000)" fill-rule="nonzero" fill="#414141">
                                <g id="path0_stroke-link" transform="translate(0.500000, 90.500000) rotate(90.000000) translate(-0.500000, -90.500000) translate(-90.000000, 90.000000)">
                                    <path d="M0,1 L1,1 L1,0 L0,0 L0,1 Z M12,1 L13,1 L13,0 L12,0 L12,1 Z M24,1 L25,1 L25,0 L24,0 L24,1 Z M36,1 L37,1 L37,0 L36,0 L36,1 Z M48,1 L49,1 L49,0 L48,0 L48,1 Z M60,1 L61,1 L61,0 L60,0 L60,1 Z M72,1 L73,1 L73,0 L72,0 L72,1 Z M84,1 L85,1 L85,0 L84,0 L84,1 Z M96,1 L97,1 L97,0 L96,0 L96,1 Z M108,1 L109,1 L109,0 L108,0 L108,1 Z M120,1 L121,1 L121,0 L120,0 L120,1 Z M132,1 L133,1 L133,0 L132,0 L132,1 Z M144,1 L145,1 L145,0 L144,0 L144,1 Z M156,1 L157,1 L157,0 L156,0 L156,1 Z M168,1 L169,1 L169,0 L168,0 L168,1 Z M180,1 L181,1 L181,0 L180,0 L180,1 Z" id="path0_stroke"></path>
                                </g>
                            </g>
                            <g id="Line" transform="translate(31.000000, 9.000000)" fill-rule="nonzero" fill="#414141">
                                <g id="path0_stroke-link" transform="translate(90.999957, 1.496159) rotate(-0.002445) translate(-90.999957, -1.496159) translate(-0.000043, 0.496159)">
                                    <path d="M-2.1668959e-05,1.50772434 L0.999978331,1.50772434 L0.999978331,0.507724337 L-2.1668959e-05,0.507724337 L-2.1668959e-05,1.50772434 Z M11.9999783,1.50772434 L12.9999783,1.50772434 L12.9999783,0.507724337 L11.9999783,0.507724337 L11.9999783,1.50772434 Z M23.9999784,1.50772434 L24.9999784,1.50772434 L24.9999784,0.507724337 L23.9999784,0.507724337 L23.9999784,1.50772434 Z M35.9999784,1.50772434 L36.9999784,1.50772434 L36.9999784,0.507724337 L35.9999784,0.507724337 L35.9999784,1.50772434 Z M47.9999784,1.50772434 L48.9999784,1.50772434 L48.9999784,0.507724337 L47.9999784,0.507724337 L47.9999784,1.50772434 Z M59.9999784,1.50772434 L60.9999784,1.50772434 L60.9999784,0.507724337 L59.9999784,0.507724337 L59.9999784,1.50772434 Z M71.9999784,1.50772434 L72.9999784,1.50772434 L72.9999784,0.507724337 L71.9999784,0.507724337 L71.9999784,1.50772434 Z M83.9999784,1.50772434 L84.9999784,1.50772434 L84.9999784,0.507724337 L83.9999784,0.507724337 L83.9999784,1.50772434 Z M95.9999784,1.50772434 L96.9999784,1.50772434 L96.9999784,0.507724337 L95.9999784,0.507724337 L95.9999784,1.50772434 Z M107.999978,1.50772434 L108.999978,1.50772434 L108.999978,0.507724337 L107.999978,0.507724337 L107.999978,1.50772434 Z M119.999978,1.50772434 L120.999978,1.50772434 L120.999978,0.507724337 L119.999978,0.507724337 L119.999978,1.50772434 Z M131.999978,1.50772434 L132.999978,1.50772434 L132.999978,0.507724337 L131.999978,0.507724337 L131.999978,1.50772434 Z M143.999978,1.50772434 L144.999978,1.50772434 L144.999978,0.507724337 L143.999978,0.507724337 L143.999978,1.50772434 Z M155.999978,1.50772434 L156.999978,1.50772434 L156.999978,0.507724337 L155.999978,0.507724337 L155.999978,1.50772434 Z M167.999978,1.50772434 L168.999978,1.50772434 L168.999978,0.507724337 L167.999978,0.507724337 L167.999978,1.50772434 Z M179.999978,1.50772434 L180.999978,1.50772434 L180.999978,0.507724337 L179.999978,0.507724337 L179.999978,1.50772434 Z" id="path0_stroke"></path>
                                </g>
                            </g>
                            <g id="Line" transform="translate(31.000000, 232.000000)" fill-rule="nonzero" fill="#414141">
                                <g id="path0_stroke-link" transform="translate(90.499957, 1.496159) rotate(-0.002445) translate(-90.499957, -1.496159) translate(-0.000043, 0.996159)">
                                    <path d="M2.13384053e-05,1.00002134 L1.00002134,1.00002134 L1.00002134,2.13384052e-05 L2.13384053e-05,2.13384052e-05 L2.13384053e-05,1.00002134 Z M12.0000213,1.00002134 L13.0000213,1.00002134 L13.0000213,2.13384052e-05 L12.0000213,2.13384052e-05 L12.0000213,1.00002134 Z M24.0000213,1.00002134 L25.0000213,1.00002134 L25.0000213,2.13384052e-05 L24.0000213,2.13384052e-05 L24.0000213,1.00002134 Z M36.0000213,1.00002134 L37.0000213,1.00002134 L37.0000213,2.13384052e-05 L36.0000213,2.13384052e-05 L36.0000213,1.00002134 Z M48.0000213,1.00002134 L49.0000213,1.00002134 L49.0000213,2.13384052e-05 L48.0000213,2.13384052e-05 L48.0000213,1.00002134 Z M60.0000213,1.00002134 L61.0000213,1.00002134 L61.0000213,2.13384052e-05 L60.0000213,2.13384052e-05 L60.0000213,1.00002134 Z M72.0000213,1.00002134 L73.0000213,1.00002134 L73.0000213,2.13384052e-05 L72.0000213,2.13384052e-05 L72.0000213,1.00002134 Z M84.0000213,1.00002134 L85.0000213,1.00002134 L85.0000213,2.13384052e-05 L84.0000213,2.13384052e-05 L84.0000213,1.00002134 Z M96.0000213,1.00002134 L97.0000213,1.00002134 L97.0000213,2.13384052e-05 L96.0000213,2.13384052e-05 L96.0000213,1.00002134 Z M108.000021,1.00002134 L109.000021,1.00002134 L109.000021,2.13384052e-05 L108.000021,2.13384052e-05 L108.000021,1.00002134 Z M120.000021,1.00002134 L121.000021,1.00002134 L121.000021,2.13384052e-05 L120.000021,2.13384052e-05 L120.000021,1.00002134 Z M132.000021,1.00002134 L133.000021,1.00002134 L133.000021,2.13384052e-05 L132.000021,2.13384052e-05 L132.000021,1.00002134 Z M144.000021,1.00002134 L145.000021,1.00002134 L145.000021,2.13384052e-05 L144.000021,2.13384052e-05 L144.000021,1.00002134 Z M156.000021,1.00002134 L157.000021,1.00002134 L157.000021,2.13384052e-05 L156.000021,2.13384052e-05 L156.000021,1.00002134 Z M168.000021,1.00002134 L169.000021,1.00002134 L169.000021,2.13384052e-05 L168.000021,2.13384052e-05 L168.000021,1.00002134 Z M180.000021,1.00002134 L181.000021,1.00002134 L181.000021,2.13384052e-05 L180.000021,2.13384052e-05 L180.000021,1.00002134 Z" id="path0_stroke"></path>
                                </g>
                            </g>
                            <g id="Union" transform="translate(0.000000, 222.000000)" fill-rule="nonzero" fill="#414141">
                                <g id="path1_fill-link">
                                    <polygon id="path1_fill" points="11 0 10 0 10 10 0 10 0 12 10 12 10 22 12 22 12 12 22 12 22 11 11 11"></polygon>
                                </g>
                            </g>
                            <g id="Union" transform="translate(222.000000, 222.000000)" fill-rule="nonzero" fill="#414141">
                                <g id="path1_fill-link">
                                    <polygon id="path1_fill" points="12 0 11 0 11 11 2.84217094e-14 11 0 12 10 12 10 22 12 22 12 12 22 12 22 10 12 10"></polygon>
                                </g>
                            </g>
                            <g id="Union" fill-rule="nonzero" fill="#414141">
                                <g id="path1_fill-link">
                                    <polygon id="path1_fill" points="12 0 10 0 10 10 0 10 0 12 10 12 10 22 11 22 11 11 22 11 22 10 12 10"></polygon>
                                </g>
                            </g>
                            <g id="Union" transform="translate(222.000000, 0.000000)" fill-rule="nonzero" fill="#414141">
                                <g id="path1_fill-link">
                                    <polygon id="path1_fill" points="12 0 10 0 10 10 0 10 2.84217094e-14 11 11 11 11 22 12 22 12 12 22 12 22 10 12 10"></polygon>
                                </g>
                            </g>
                        </g>
                    </g>
                </g>
            </g>
        </g>
    </g>
</svg>