<svg viewBox="0 0 32 34" >
    <g class="plane" transform="translate(0.000000, 7.000000)">
        <path d="M21.9848727,3.993165 C21.9848727,4.828125 22.6628848,5.5073 23.4971636,5.5073 L29.5180121,5.5073 C30.0539636,5.5073 30.4877091,5.9551 30.4877091,6.5073 L30.4877091,11.99315 C30.4877091,12.5459 30.0539636,12.99315 29.5180121,12.99315 L22.9024485,12.99315 C22.6998303,13.5757 22.1458424,13.99465 21.4961939,13.99465 L20.4838788,13.99465 L20.4838788,15.10255 C21.0653576,15.3052 21.4848485,15.8594 21.4848485,16.50975 C21.4848485,17.33155 20.8162909,18 19.9952485,18 C19.1751758,18 18.5066182,17.33155 18.5066182,16.50975 C18.5066182,15.8594 18.9261576,15.3052 19.5075879,15.10255 L19.5075879,13.99465 L12.4924121,13.99465 C11.7111758,13.99465 11.0691394,13.3882 11.0094545,12.6211 L8.72441212,11.9453 L6.35796364,13.91945 C6.43558788,14.0996 6.47917576,14.29835 6.47917576,14.5073 C6.47917576,15.3291 5.81061818,15.99755 4.98957576,15.99755 C4.16950788,15.99755 3.50094545,15.3291 3.50094545,14.5073 C3.50094545,13.68555 4.16950788,13.0171 4.98957576,13.0171 C5.24620606,13.0171 5.48770909,13.0825 5.69793939,13.1968 L7.59752727,11.6123 L0.702652121,9.57275 C0.286931879,9.4502 0,9.0576 0,8.6118 L0,1 C0,0.447754 0.433712,0 0.96969697,0 L2.21117576,0 C2.56250182,0 2.88541576,0.194824 3.05681939,0.510255 L5.78031515,5.5073 L9.49149091,5.5073 L9.99146667,5.5073 C10.8257455,5.5073 11.5047273,4.828125 11.5047273,3.993165 C11.5047273,2.61963 12.6211879,1.501955 13.9933576,1.501955 L17.5066182,1.501955 L18.4829576,1.501955 L19.4952727,1.501955 C20.8683636,1.501955 21.9848727,2.61963 21.9848727,3.993165 Z M9.99146667,6.48485 L9.49149091,6.48485 L5.768,6.48485 C5.4176,6.48485 5.0937697,6.28955 4.92232727,5.9746 L2.42045576,1.3833 C2.28409212,1.13281 2.02651636,0.97754 1.74810667,0.97754 C1.32196848,0.97754 0.976324848,1.333495 0.976324848,1.77295 L0.976324848,6.50975 C0.976324848,7.062 1.41098667,7.50975 1.94602182,7.50975 L26.5132606,7.50975 C26.7878788,7.50975 27.0104242,7.28025 27.0104242,6.99755 C27.0104242,6.71435 26.7878788,6.48485 26.5132606,6.48485 L23.4971636,6.48485 L9.99146667,6.48485 Z M21.5217939,5.5073 C21.1998061,5.0874 21.0075636,4.5625 21.0075636,3.993165 C21.0075636,3.15869 20.3295515,2.47949 19.4952727,2.47949 L15.4819879,2.47949 L15.4819879,5.5073 L21.5217939,5.5073 Z M4.47822061,14.5073 C4.47822061,14.79005 4.70738424,15.01955 4.98957576,15.01955 C5.27272727,15.01955 5.50191515,14.79005 5.50191515,14.5073 C5.50191515,14.2246 5.27272727,13.99465 4.98957576,13.99465 C4.70738424,13.99465 4.47822061,14.2246 4.47822061,14.5073 Z M12.4924121,13.0171 L21.4961939,13.0171 C21.7784242,13.0171 22.0085333,12.7871 22.0085333,12.5044 C22.0085333,12.22215 21.7784242,11.9922 21.4961939,11.9922 L12.4924121,11.9922 C12.2102303,11.9922 11.9810424,12.22215 11.9810424,12.5044 C11.9810424,12.7871 12.2102303,13.0171 12.4924121,13.0171 Z M19.4838788,16.50975 C19.4838788,16.7925 19.7130667,17.02245 19.9952485,17.02245 C20.2784,17.02245 20.5075879,16.7925 20.5075879,16.50975 C20.5075879,16.22705 20.2784,15.99705 19.9952485,15.99705 C19.7130667,15.99705 19.4838788,16.22705 19.4838788,16.50975 Z M14.505697,2.47949 L13.9933576,2.47949 C13.3304727,2.47949 12.7661091,2.90918 12.5625212,3.504395 L14.505697,3.504395 L14.505697,2.47949 Z M14.5020108,4.48892396 C14.3374421,4.48892396 12.948424,4.48892396 12.4371225,4.48892396 C12.3289491,4.97231982 12.1251571,5.29287042 11.9752513,5.50564131 L14.5020108,5.50564131 C14.5020108,5.14125773 14.5020108,4.80235194 14.5020108,4.48892396 Z M21.4961939,11.01465 C22.1458424,11.01465 22.6998303,11.4336 22.9024485,12.0161 L26.0407273,12.0161 C26.5757576,12.0161 27.0104242,11.56835 27.0104242,11.0161 L27.0104242,9.4873 C27.0104242,8.93505 26.5757576,8.4873 26.0407273,8.4873 L0.976324848,8.4873 L0.976324848,8.63475 L11.2566303,11.6748 C11.5246061,11.27685 11.9782303,11.01465 12.4924121,11.01465 L21.4961939,11.01465 Z M28.7490424,12.0161 C29.169503,12.0161 29.5113697,11.66405 29.5113697,11.23 L29.5113697,7.2705 C29.5113697,6.83645 29.169503,6.48485 28.7490424,6.48485 C28.3276606,6.48485 27.9867636,6.83645 27.9867636,7.2705 L27.9867636,11.23 C27.9867636,11.66405 28.3276606,12.0161 28.7490424,12.0161 Z"></path>
        <path d="M31.4744242,8.51125 C31.2121212,8.51125 31,8.73 31,9 C31,9.27 31.2121212,9.48875 31.4744242,9.48875 L31.526497,9.48875 C31.7878788,9.48875 32,9.27 32,9 C32,8.73 31.7878788,8.51125 31.526497,8.51125 L31.4744242,8.51125 Z" ></path>
        <g class="plane__propeller" transform="translate(31.000000, 1.000000)">
            <path d="M0.987684848,6.4951 L0.987684848,0.99365 C0.987684848,0.71582 0.768921212,0.490235 0.500024242,0.490235 C0.230109091,0.490235 0.0113454545,0.71582 0.0113454545,0.99365 L0.0113454545,6.4951 C0.0113454545,6.77345 0.230109091,6.99855 0.500024242,6.99855 C0.768921212,6.99855 0.987684848,6.77345 0.987684848,6.4951 Z" ></path>
            <path d="M0.987684848,9.5586 L0.987684848,15.06005 C0.987684848,15.3384 0.768921212,15.5635 0.500024242,15.5635 C0.230109091,15.5635 0.0113454545,15.3384 0.0113454545,15.06005 L0.0113454545,9.5586 C0.0113454545,9.28075 0.230109091,9.0552 0.500024242,9.0552 C0.768921212,9.0552 0.987684848,9.28075 0.987684848,9.5586 Z" ></path>
        </g>
    </g>
</svg>