<?xml version="1.0" encoding="UTF-8"?>
<svg width="195px" height="107px" viewBox="0 0 195 107" version="1.1" xmlns="http://www.w3.org/2000/svg" xmlns:xlink="http://www.w3.org/1999/xlink">
    <!-- Generator: Sketch 48 (47235) - http://www.bohemiancoding.com/sketch -->
    <title> </title>
    <desc>Created with Sketch.</desc>
    <defs>
        <path d="M54.2009133,0 L66.1643836,11.9634703 L66.1643836,78.1818182 C66.1643836,79.2863877 65.2689531,80.1818182 64.1643836,80.1818182 L2,80.1818182 C0.8954305,80.1818182 1.3527075e-16,79.2863877 0,78.1818182 L0,2 C-1.3527075e-16,0.8954305 0.8954305,2.02906125e-16 2,0 L54.2009133,0 Z" id="path-1"></path>
        <path d="M59.6300955,1.77635684e-15 L72.7808219,13.1507264 L72.7808219,85.8181818 C72.7808219,86.9227513 71.8853914,87.8181818 70.7808219,87.8181818 L2,87.8181818 C0.8954305,87.8181818 -8.67738547e-17,86.9227513 -2.22044605e-16,85.8181818 L-2.22044605e-16,2 C-3.57315355e-16,0.8954305 0.8954305,-1.91384796e-17 2,-2.22044605e-16 L59.6300955,-1.86046799e-16 Z" id="path-3"></path>
    </defs>
    <g id="Page-1" stroke="none" stroke-width="1" fill="none" fill-rule="evenodd">
        <g id="-">
            <g id="Group-2" transform="translate(16.000000, 9.000000)">
                <g id="Group">
                    <g id="Rectangle-3">
                        <g transform="translate(1.917808, 1.909091)">
                            <mask id="mask-2" fill="white">
                                <use xlink:href="#path-1"></use>
                            </mask>
                            <use id="Mask" fill="#F2F2F2" xlink:href="#path-1"></use>
                            <path d="M55.6164384,-2.88657986e-15 L55.6164384,11.4545455 L66.1643836,11.4545455 L66.1643836,-2.88657986e-15 L55.6164384,-2.88657986e-15 Z M55.6164384,-1.90909091 L66.1643836,-1.90909091 C67.2235598,-1.90909091 68.0821918,-1.0543618 68.0821918,-3.33066907e-15 L68.0821918,11.4545455 C68.0821918,12.5089072 67.2235598,13.3636364 66.1643836,13.3636364 L55.6164384,13.3636364 C54.5572621,13.3636364 53.6986301,12.5089072 53.6986301,11.4545455 L53.6986301,-2.44249065e-15 C53.6986301,-1.0543618 54.5572621,-1.90909091 55.6164384,-1.90909091 Z" fill="#000000" fill-rule="nonzero" mask="url(#mask-2)"></path>
                        </g>
                        <path d="M56.1100042,1.90909091 L3.83561644,1.90909091 C2.77644021,1.90909091 1.91780822,2.76382002 1.91780822,3.81818182 L1.91780822,80.1818182 C1.91780822,81.23618 2.77644021,82.0909091 3.83561644,82.0909091 L66.1643836,82.0909091 C67.2235598,82.0909091 68.0821918,81.23618 68.0821918,80.1818182 L68.0821918,13.8268595 L56.1100042,1.90909091 Z M56.9043863,0 L70,13.0360881 L70,80.1818182 C70,82.2905418 68.282736,84 66.1643836,84 L3.83561644,84 C1.71726397,84 2.12919484e-16,82.2905418 0,80.1818182 L0,3.81818182 C-4.25838968e-16,1.70945823 1.71726397,3.81513003e-15 3.83561644,3.39122669e-15 L56.9043863,0 Z" id="Mask-Copy" fill="#000000" fill-rule="nonzero"></path>
                    </g>
                    <g id="Group-2-Copy-2" transform="translate(7.000000, 34.000000)">
                        <path d="M3.9763413,1.9872 C2.90301961,1.9872 2.03292047,2.81758643 2.03292047,3.84192 L2.03292047,14.04288 C2.03292047,15.0672136 2.90301961,15.8976 3.9763413,15.8976 L14.6651558,15.8976 C15.7384775,15.8976 16.6085767,15.0672136 16.6085767,14.04288 L16.6085767,3.84192 C16.6085767,2.81758643 15.7384775,1.9872 14.6651558,1.9872 L3.9763413,1.9872 Z M3.9763413,0.13248 L14.6651558,0.13248 C16.8117992,0.13248 18.5519975,1.79325286 18.5519975,3.84192 L18.5519975,14.04288 C18.5519975,16.0915471 16.8117992,17.75232 14.6651558,17.75232 L3.9763413,17.75232 C1.82969793,17.75232 0.0894996433,16.0915471 0.0894996433,14.04288 L0.0894996433,3.84192 C0.0894996433,1.79325286 1.82969793,0.13248 3.9763413,0.13248 Z" id="Rectangle-2" fill="#000000" fill-rule="nonzero"></path>
                        <path d="M8.2518686,13.5865797 C8.2518686,13.0376163 8.66054768,12.65184 9.23198674,12.65184 C9.80394233,12.65184 10.1952894,13.0376163 10.1952894,13.5866318 C10.1952894,14.10592 9.81972477,14.50656 9.2156304,14.50656 C8.64419133,14.5060906 8.2518686,14.1054507 8.2518686,13.5865797 Z" id="Path" fill="#23B3FF"></path>
                        <path d="M7.95352874,5.58067067 C7.52139864,5.8843733 6.91311401,5.79625101 6.59488698,5.38384402 C6.27665996,4.97143703 6.36899665,4.39091548 6.80112674,4.08721284 C8.94678631,2.57923535 12.2358798,3.49672957 12.2358798,6.24756767 C12.2358798,6.87273119 12.0023521,7.40727551 11.5642906,7.99983612 C11.4737291,8.12233759 11.3766341,8.24498779 11.2509506,8.39779045 C11.2047355,8.45397742 10.9994243,8.70076431 10.9453425,8.76665845 C10.287133,9.56863137 10.0435958,10.0698461 10.0699711,10.7634893 C10.0894332,11.2753191 9.67044686,11.7052962 9.13413903,11.72387 C8.5978312,11.7424437 8.14729071,11.3425806 8.12782868,10.8307507 C8.08106224,9.60084466 8.50041762,8.73778525 9.41538598,7.62297322 C9.47453893,7.55090032 9.68070303,7.30308829 9.72225873,7.25256602 C9.82925124,7.12248745 9.90803374,7.02296956 9.9763126,6.93060953 C10.2043348,6.62216653 10.292459,6.42045059 10.292459,6.24756767 C10.292459,5.24535872 8.95964379,4.87356928 7.95352874,5.58067067 Z" id="Path-2" fill="#23B3FF" fill-rule="nonzero"></path>
                        <path d="M24.38226,6.624 L52.5618619,6.624 L24.38226,6.624 Z M24.38226,5.69664 L52.5618619,5.69664 C53.0985228,5.69664 53.5335724,6.11183321 53.5335724,6.624 C53.5335724,7.13616679 53.0985228,7.55136 52.5618619,7.55136 L24.38226,7.55136 C23.8455991,7.55136 23.4105496,7.13616679 23.4105496,6.624 C23.4105496,6.11183321 23.8455991,5.69664 24.38226,5.69664 Z M24.38226,2.91456 L37.9862058,2.91456 L24.38226,2.91456 Z M24.38226,1.9872 L37.9862058,1.9872 C38.5228666,1.9872 38.9579162,2.40239321 38.9579162,2.91456 C38.9579162,3.42672679 38.5228666,3.84192 37.9862058,3.84192 L24.38226,3.84192 C23.8455991,3.84192 23.4105496,3.42672679 23.4105496,2.91456 C23.4105496,2.40239321 23.8455991,1.9872 24.38226,1.9872 Z M24.38226,14.04288 L52.5618619,14.04288 L24.38226,14.04288 Z M24.38226,13.11552 L52.5618619,13.11552 C53.0985228,13.11552 53.5335724,13.5307132 53.5335724,14.04288 C53.5335724,14.5550468 53.0985228,14.97024 52.5618619,14.97024 L24.38226,14.97024 C23.8455991,14.97024 23.4105496,14.5550468 23.4105496,14.04288 C23.4105496,13.5307132 23.8455991,13.11552 24.38226,13.11552 Z M24.38226,10.33344 L37.9862058,10.33344 L24.38226,10.33344 Z M24.38226,9.40608 L37.9862058,9.40608 C38.5228666,9.40608 38.9579162,9.82127321 38.9579162,10.33344 C38.9579162,10.8456068 38.5228666,11.2608 37.9862058,11.2608 L24.38226,11.2608 C23.8455991,11.2608 23.4105496,10.8456068 23.4105496,10.33344 C23.4105496,9.82127321 23.8455991,9.40608 24.38226,9.40608 Z" id="Rectangle-3-Copy-3" fill="#000000" fill-rule="nonzero"></path>
                    </g>
                    <g id="Group-2-Copy-4" transform="translate(7.000000, 57.000000)">
                        <path d="M3.9763413,1.9872 C2.90301961,1.9872 2.03292047,2.81758643 2.03292047,3.84192 L2.03292047,14.04288 C2.03292047,15.0672136 2.90301961,15.8976 3.9763413,15.8976 L14.6651558,15.8976 C15.7384775,15.8976 16.6085767,15.0672136 16.6085767,14.04288 L16.6085767,3.84192 C16.6085767,2.81758643 15.7384775,1.9872 14.6651558,1.9872 L3.9763413,1.9872 Z M3.9763413,0.13248 L14.6651558,0.13248 C16.8117992,0.13248 18.5519975,1.79325286 18.5519975,3.84192 L18.5519975,14.04288 C18.5519975,16.0915471 16.8117992,17.75232 14.6651558,17.75232 L3.9763413,17.75232 C1.82969793,17.75232 0.0894996433,16.0915471 0.0894996433,14.04288 L0.0894996433,3.84192 C0.0894996433,1.79325286 1.82969793,0.13248 3.9763413,0.13248 Z" id="Rectangle-2" fill="#000000" fill-rule="nonzero"></path>
                        <path d="M8.2518686,13.5865797 C8.2518686,13.0376163 8.66054768,12.65184 9.23198674,12.65184 C9.80394233,12.65184 10.1952894,13.0376163 10.1952894,13.5866318 C10.1952894,14.10592 9.81972477,14.50656 9.2156304,14.50656 C8.64419133,14.5060906 8.2518686,14.1054507 8.2518686,13.5865797 Z" id="Path" fill="#23B3FF"></path>
                        <path d="M7.95352874,5.58067067 C7.52139864,5.8843733 6.91311401,5.79625101 6.59488698,5.38384402 C6.27665996,4.97143703 6.36899665,4.39091548 6.80112674,4.08721284 C8.94678631,2.57923535 12.2358798,3.49672957 12.2358798,6.24756767 C12.2358798,6.87273119 12.0023521,7.40727551 11.5642906,7.99983612 C11.4737291,8.12233759 11.3766341,8.24498779 11.2509506,8.39779045 C11.2047355,8.45397742 10.9994243,8.70076431 10.9453425,8.76665845 C10.287133,9.56863137 10.0435958,10.0698461 10.0699711,10.7634893 C10.0894332,11.2753191 9.67044686,11.7052962 9.13413903,11.72387 C8.5978312,11.7424437 8.14729071,11.3425806 8.12782868,10.8307507 C8.08106224,9.60084466 8.50041762,8.73778525 9.41538598,7.62297322 C9.47453893,7.55090032 9.68070303,7.30308829 9.72225873,7.25256602 C9.82925124,7.12248745 9.90803374,7.02296956 9.9763126,6.93060953 C10.2043348,6.62216653 10.292459,6.42045059 10.292459,6.24756767 C10.292459,5.24535872 8.95964379,4.87356928 7.95352874,5.58067067 Z" id="Path-2" fill="#23B3FF" fill-rule="nonzero"></path>
                        <path d="M24.38226,6.624 L52.5618619,6.624 L24.38226,6.624 Z M24.38226,5.69664 L52.5618619,5.69664 C53.0985228,5.69664 53.5335724,6.11183321 53.5335724,6.624 C53.5335724,7.13616679 53.0985228,7.55136 52.5618619,7.55136 L24.38226,7.55136 C23.8455991,7.55136 23.4105496,7.13616679 23.4105496,6.624 C23.4105496,6.11183321 23.8455991,5.69664 24.38226,5.69664 Z M24.38226,2.91456 L37.9862058,2.91456 L24.38226,2.91456 Z M24.38226,1.9872 L37.9862058,1.9872 C38.5228666,1.9872 38.9579162,2.40239321 38.9579162,2.91456 C38.9579162,3.42672679 38.5228666,3.84192 37.9862058,3.84192 L24.38226,3.84192 C23.8455991,3.84192 23.4105496,3.42672679 23.4105496,2.91456 C23.4105496,2.40239321 23.8455991,1.9872 24.38226,1.9872 Z M24.38226,14.04288 L52.5618619,14.04288 L24.38226,14.04288 Z M24.38226,13.11552 L52.5618619,13.11552 C53.0985228,13.11552 53.5335724,13.5307132 53.5335724,14.04288 C53.5335724,14.5550468 53.0985228,14.97024 52.5618619,14.97024 L24.38226,14.97024 C23.8455991,14.97024 23.4105496,14.5550468 23.4105496,14.04288 C23.4105496,13.5307132 23.8455991,13.11552 24.38226,13.11552 Z M24.38226,10.33344 L37.9862058,10.33344 L24.38226,10.33344 Z M24.38226,9.40608 L37.9862058,9.40608 C38.5228666,9.40608 38.9579162,9.82127321 38.9579162,10.33344 C38.9579162,10.8456068 38.5228666,11.2608 37.9862058,11.2608 L24.38226,11.2608 C23.8455991,11.2608 23.4105496,10.8456068 23.4105496,10.33344 C23.4105496,9.82127321 23.8455991,9.40608 24.38226,9.40608 Z" id="Rectangle-3-Copy-3" fill="#000000" fill-rule="nonzero"></path>
                    </g>
                    <g id="Group-2-Copy-3" transform="translate(7.000000, 9.000000)">
                        <path d="M3.96163163,1.9872 C2.89816651,1.9872 2.03605769,2.81758643 2.03605769,3.84192 L2.03605769,14.04288 C2.03605769,15.0672136 2.89816651,15.8976 3.96163163,15.8976 L14.5522883,15.8976 C15.6157534,15.8976 16.4778623,15.0672136 16.4778623,14.04288 L16.4778623,3.84192 C16.4778623,2.81758643 15.6157534,1.9872 14.5522883,1.9872 L3.96163163,1.9872 Z M3.96163163,0.13248 L14.5522883,0.13248 C16.6792186,0.13248 18.4034362,1.79325286 18.4034362,3.84192 L18.4034362,14.04288 C18.4034362,16.0915471 16.6792186,17.75232 14.5522883,17.75232 L3.96163163,17.75232 C1.83470139,17.75232 0.110483751,16.0915471 0.110483751,14.04288 L0.110483751,3.84192 C0.110483751,1.79325286 1.83470139,0.13248 3.96163163,0.13248 Z" id="Rectangle-2" fill="#000000" fill-rule="nonzero"></path>
                        <path d="M8.19789577,13.5865797 C8.19789577,13.0376163 8.60282186,12.65184 9.16901327,12.65184 C9.73571645,12.65184 10.1234697,13.0376163 10.1234697,13.5866318 C10.1234697,14.10592 9.75135396,14.50656 9.15280713,14.50656 C8.58661572,14.5060906 8.19789577,14.1054507 8.19789577,13.5865797 Z" id="Path" fill="#23B3FF"></path>
                        <path d="M7.90229564,5.58067067 C7.47413389,5.8843733 6.87143528,5.79625101 6.55613061,5.38384402 C6.24082594,4.97143703 6.33231468,4.39091548 6.76047642,4.08721284 C8.8864319,2.57923535 12.1453209,3.49672957 12.1453209,6.24756767 C12.1453209,6.87273119 11.9139377,7.40727551 11.4798991,7.99983612 C11.3901692,8.12233759 11.2939659,8.24498779 11.1694365,8.39779045 C11.1236458,8.45397742 10.92022,8.70076431 10.8666348,8.76665845 C10.2144699,9.56863137 9.9731691,10.0698461 9.99930226,10.7634893 C10.0185856,11.2753191 9.60344691,11.7052962 9.07206411,11.72387 C8.54068132,11.7424437 8.09427825,11.3425806 8.07499495,10.8307507 C8.02865797,9.60084466 8.44416231,8.73778525 9.35072831,7.62297322 C9.40933804,7.55090032 9.61360889,7.30308829 9.65478297,7.25256602 C9.76079295,7.12248745 9.83885197,7.02296956 9.90650381,6.93060953 C10.1324321,6.62216653 10.2197469,6.42045059 10.2197469,6.24756767 C10.2197469,5.24535872 8.89917131,4.87356928 7.90229564,5.58067067 Z" id="Path-2" fill="#23B3FF" fill-rule="nonzero"></path>
                        <path d="M24.180158,6.624 L42.4731105,6.624 L24.180158,6.624 Z M24.180158,5.69664 L42.4731105,5.69664 C43.004843,5.69664 43.4358974,6.11183321 43.4358974,6.624 C43.4358974,7.13616679 43.004843,7.55136 42.4731105,7.55136 L24.180158,7.55136 C23.6484255,7.55136 23.217371,7.13616679 23.217371,6.624 C23.217371,6.11183321 23.6484255,5.69664 24.180158,5.69664 Z M24.180158,2.91456 L32.8452408,2.91456 L24.180158,2.91456 Z M24.180158,1.9872 L32.8452408,1.9872 C33.3769733,1.9872 33.8080277,2.40239321 33.8080277,2.91456 C33.8080277,3.42672679 33.3769733,3.84192 32.8452408,3.84192 L24.180158,3.84192 C23.6484255,3.84192 23.217371,3.42672679 23.217371,2.91456 C23.217371,2.40239321 23.6484255,1.9872 24.180158,1.9872 Z M24.180158,14.04288 L42.4731105,14.04288 L24.180158,14.04288 Z M24.180158,13.11552 L42.4731105,13.11552 C43.004843,13.11552 43.4358974,13.5307132 43.4358974,14.04288 C43.4358974,14.5550468 43.004843,14.97024 42.4731105,14.97024 L24.180158,14.97024 C23.6484255,14.97024 23.217371,14.5550468 23.217371,14.04288 C23.217371,13.5307132 23.6484255,13.11552 24.180158,13.11552 Z M24.180158,10.33344 L32.8452408,10.33344 L24.180158,10.33344 Z M24.180158,9.40608 L32.8452408,9.40608 C33.3769733,9.40608 33.8080277,9.82127321 33.8080277,10.33344 C33.8080277,10.8456068 33.3769733,11.2608 32.8452408,11.2608 L24.180158,11.2608 C23.6484255,11.2608 23.217371,10.8456068 23.217371,10.33344 C23.217371,9.82127321 23.6484255,9.40608 24.180158,9.40608 Z" id="Rectangle-3-Copy-3" fill="#000000" fill-rule="nonzero"></path>
                    </g>
                </g>
                <g id="Group-Copy-2" transform="translate(37.000000, 6.000000)">
                    <g id="Rectangle-3">
                        <g transform="translate(2.109589, 2.090909)">
                            <mask id="mask-4" fill="white">
                                <use xlink:href="#path-3"></use>
                            </mask>
                            <use id="Mask" fill="#F2F2F2" xlink:href="#path-3"></use>
                            <path d="M61.1780822,-2.22044605e-15 L61.1780822,12.5454545 L72.7808219,12.5454545 L72.7808219,-2.22044605e-15 L61.1780822,-2.22044605e-15 Z M61.1780822,-2.09090909 L72.7808219,-2.09090909 C73.9459158,-2.09090909 74.890411,-1.1547772 74.890411,-2.22044605e-15 L74.890411,12.5454545 C74.890411,13.7002317 73.9459158,14.6363636 72.7808219,14.6363636 L61.1780822,14.6363636 C60.0129883,14.6363636 59.0684932,13.7002317 59.0684932,12.5454545 L59.0684932,-1.33226763e-15 C59.0684932,-1.1547772 60.0129883,-2.09090909 61.1780822,-2.09090909 Z" fill="#000000" fill-rule="nonzero" mask="url(#mask-4)"></path>
                        </g>
                        <path d="M61.7210046,2.09090909 L4.21917808,2.09090909 C3.05408423,2.09090909 2.10958904,3.02704098 2.10958904,4.18181818 L2.10958904,87.8181818 C2.10958904,88.972959 3.05408423,89.9090909 4.21917808,89.9090909 L72.7808219,89.9090909 C73.9459158,89.9090909 74.890411,88.972959 74.890411,87.8181818 L74.890411,15.1437033 L61.7210046,2.09090909 Z M62.594825,0 L77,14.2776204 L77,87.8181818 C77,90.1277362 75.1110096,92 72.7808219,92 L4.21917808,92 C1.88899037,92 2.34211433e-16,90.1277362 0,87.8181818 L0,4.18181818 C-4.68422865e-16,1.87226377 1.88899037,4.17847575e-15 4.21917808,3.71420066e-15 L62.594825,0 Z" id="Mask-Copy" fill="#000000" fill-rule="nonzero"></path>
                    </g>
                    <g id="Group-2-Copy-2" transform="translate(8.144231, 36.800000)">
                        <path d="M4.34452104,2.208 C3.17181772,2.208 2.22115385,3.13065159 2.22115385,4.2688 L2.22115385,15.6032 C2.22115385,16.7413484 3.17181772,17.664 4.34452104,17.664 L16.0230406,17.664 C17.195744,17.664 18.1464078,16.7413484 18.1464078,15.6032 L18.1464078,4.2688 C18.1464078,3.13065159 17.195744,2.208 16.0230406,2.208 L4.34452104,2.208 Z M4.34452104,0.1472 L16.0230406,0.1472 C18.3684473,0.1472 20.269775,1.99250318 20.269775,4.2688 L20.269775,15.6032 C20.269775,17.8794968 18.3684473,19.7248 16.0230406,19.7248 L4.34452104,19.7248 C1.9991144,19.7248 0.0977866473,17.8794968 0.0977866473,15.6032 L0.0977866473,4.2688 C0.0977866473,1.99250318 1.9991144,0.1472 4.34452104,0.1472 Z" id="Rectangle-2" fill="#000000" fill-rule="nonzero"></path>
                        <path d="M9.0159305,15.0961996 C9.0159305,14.4862404 9.46245024,14.0576 10.0868003,14.0576 C10.7117148,14.0576 11.1392977,14.4862404 11.1392977,15.0962576 C11.1392977,15.6732445 10.7289585,16.1184 10.0689295,16.1184 C9.44457942,16.1178785 9.0159305,15.672723 9.0159305,15.0961996 Z" id="Path" fill="#23B3FF"></path>
                        <path d="M8.68996658,6.20074519 C8.21782444,6.53819256 7.55321716,6.4402789 7.20552467,5.98204891 C6.85783218,5.52381892 6.95871856,4.87879497 7.4308607,4.5413476 C9.77519245,2.86581705 13.3688316,3.88525508 13.3688316,6.94174185 C13.3688316,7.63636799 13.113681,8.23030612 12.6350583,8.8887068 C12.5361115,9.02481954 12.4300262,9.16109755 12.2927052,9.33087828 C12.242211,9.39330824 12.0178895,9.6675159 11.9588001,9.74073161 C11.2396453,10.6318126 10.9735583,11.1887179 11.0023759,11.9594325 C11.0236399,12.5281324 10.5658586,13.0058847 9.97989264,13.0265222 C9.39392668,13.0471597 8.90166948,12.6028674 8.88040541,12.0341675 C8.82930874,10.6676052 9.28749332,9.70865028 10.287181,8.46997024 C10.3518111,8.38988924 10.5770644,8.11454254 10.6224679,8.05840668 C10.7393671,7.91387495 10.8254443,7.80329951 10.9000453,7.70067726 C11.1491806,7.35796281 11.2454644,7.13383399 11.2454644,6.94174185 C11.2454644,5.82817636 9.78924044,5.41507698 8.68996658,6.20074519 Z" id="Path-2" fill="#23B3FF" fill-rule="nonzero"></path>
                        <path d="M26.6398766,7.36 L57.428701,7.36 L26.6398766,7.36 Z M26.6398766,6.3296 L57.428701,6.3296 C58.0150527,6.3296 58.4903846,6.79092579 58.4903846,7.36 C58.4903846,7.92907421 58.0150527,8.3904 57.428701,8.3904 L26.6398766,8.3904 C26.053525,8.3904 25.578193,7.92907421 25.578193,7.36 C25.578193,6.79092579 26.053525,6.3296 26.6398766,6.3296 Z M26.6398766,3.2384 L41.503447,3.2384 L26.6398766,3.2384 Z M26.6398766,2.208 L41.503447,2.208 C42.0897987,2.208 42.5651306,2.66932579 42.5651306,3.2384 C42.5651306,3.80747421 42.0897987,4.2688 41.503447,4.2688 L26.6398766,4.2688 C26.053525,4.2688 25.578193,3.80747421 25.578193,3.2384 C25.578193,2.66932579 26.053525,2.208 26.6398766,2.208 Z M26.6398766,15.6032 L57.428701,15.6032 L26.6398766,15.6032 Z M26.6398766,14.5728 L57.428701,14.5728 C58.0150527,14.5728 58.4903846,15.0341258 58.4903846,15.6032 C58.4903846,16.1722742 58.0150527,16.6336 57.428701,16.6336 L26.6398766,16.6336 C26.053525,16.6336 25.578193,16.1722742 25.578193,15.6032 C25.578193,15.0341258 26.053525,14.5728 26.6398766,14.5728 Z M26.6398766,11.4816 L41.503447,11.4816 L26.6398766,11.4816 Z M26.6398766,10.4512 L41.503447,10.4512 C42.0897987,10.4512 42.5651306,10.9125258 42.5651306,11.4816 C42.5651306,12.0506742 42.0897987,12.512 41.503447,12.512 L26.6398766,12.512 C26.053525,12.512 25.578193,12.0506742 25.578193,11.4816 C25.578193,10.9125258 26.053525,10.4512 26.6398766,10.4512 Z" id="Rectangle-3-Copy-3" fill="#000000" fill-rule="nonzero"></path>
                    </g>
                    <g id="Group-2-Copy-4" transform="translate(8.144231, 62.560000)">
                        <path d="M4.34452104,2.208 C3.17181772,2.208 2.22115385,3.13065159 2.22115385,4.2688 L2.22115385,15.6032 C2.22115385,16.7413484 3.17181772,17.664 4.34452104,17.664 L16.0230406,17.664 C17.195744,17.664 18.1464078,16.7413484 18.1464078,15.6032 L18.1464078,4.2688 C18.1464078,3.13065159 17.195744,2.208 16.0230406,2.208 L4.34452104,2.208 Z M4.34452104,0.1472 L16.0230406,0.1472 C18.3684473,0.1472 20.269775,1.99250318 20.269775,4.2688 L20.269775,15.6032 C20.269775,17.8794968 18.3684473,19.7248 16.0230406,19.7248 L4.34452104,19.7248 C1.9991144,19.7248 0.0977866473,17.8794968 0.0977866473,15.6032 L0.0977866473,4.2688 C0.0977866473,1.99250318 1.9991144,0.1472 4.34452104,0.1472 Z" id="Rectangle-2" fill="#000000" fill-rule="nonzero"></path>
                        <path d="M9.0159305,15.0961996 C9.0159305,14.4862404 9.46245024,14.0576 10.0868003,14.0576 C10.7117148,14.0576 11.1392977,14.4862404 11.1392977,15.0962576 C11.1392977,15.6732445 10.7289585,16.1184 10.0689295,16.1184 C9.44457942,16.1178785 9.0159305,15.672723 9.0159305,15.0961996 Z" id="Path" fill="#23B3FF"></path>
                        <path d="M8.68996658,6.20074519 C8.21782444,6.53819256 7.55321716,6.4402789 7.20552467,5.98204891 C6.85783218,5.52381892 6.95871856,4.87879497 7.4308607,4.5413476 C9.77519245,2.86581705 13.3688316,3.88525508 13.3688316,6.94174185 C13.3688316,7.63636799 13.113681,8.23030612 12.6350583,8.8887068 C12.5361115,9.02481954 12.4300262,9.16109755 12.2927052,9.33087828 C12.242211,9.39330824 12.0178895,9.6675159 11.9588001,9.74073161 C11.2396453,10.6318126 10.9735583,11.1887179 11.0023759,11.9594325 C11.0236399,12.5281324 10.5658586,13.0058847 9.97989264,13.0265222 C9.39392668,13.0471597 8.90166948,12.6028674 8.88040541,12.0341675 C8.82930874,10.6676052 9.28749332,9.70865028 10.287181,8.46997024 C10.3518111,8.38988924 10.5770644,8.11454254 10.6224679,8.05840668 C10.7393671,7.91387495 10.8254443,7.80329951 10.9000453,7.70067726 C11.1491806,7.35796281 11.2454644,7.13383399 11.2454644,6.94174185 C11.2454644,5.82817636 9.78924044,5.41507698 8.68996658,6.20074519 Z" id="Path-2" fill="#23B3FF" fill-rule="nonzero"></path>
                        <path d="M26.6398766,7.36 L57.428701,7.36 L26.6398766,7.36 Z M26.6398766,6.3296 L57.428701,6.3296 C58.0150527,6.3296 58.4903846,6.79092579 58.4903846,7.36 C58.4903846,7.92907421 58.0150527,8.3904 57.428701,8.3904 L26.6398766,8.3904 C26.053525,8.3904 25.578193,7.92907421 25.578193,7.36 C25.578193,6.79092579 26.053525,6.3296 26.6398766,6.3296 Z M26.6398766,3.2384 L41.503447,3.2384 L26.6398766,3.2384 Z M26.6398766,2.208 L41.503447,2.208 C42.0897987,2.208 42.5651306,2.66932579 42.5651306,3.2384 C42.5651306,3.80747421 42.0897987,4.2688 41.503447,4.2688 L26.6398766,4.2688 C26.053525,4.2688 25.578193,3.80747421 25.578193,3.2384 C25.578193,2.66932579 26.053525,2.208 26.6398766,2.208 Z M26.6398766,15.6032 L57.428701,15.6032 L26.6398766,15.6032 Z M26.6398766,14.5728 L57.428701,14.5728 C58.0150527,14.5728 58.4903846,15.0341258 58.4903846,15.6032 C58.4903846,16.1722742 58.0150527,16.6336 57.428701,16.6336 L26.6398766,16.6336 C26.053525,16.6336 25.578193,16.1722742 25.578193,15.6032 C25.578193,15.0341258 26.053525,14.5728 26.6398766,14.5728 Z M26.6398766,11.4816 L41.503447,11.4816 L26.6398766,11.4816 Z M26.6398766,10.4512 L41.503447,10.4512 C42.0897987,10.4512 42.5651306,10.9125258 42.5651306,11.4816 C42.5651306,12.0506742 42.0897987,12.512 41.503447,12.512 L26.6398766,12.512 C26.053525,12.512 25.578193,12.0506742 25.578193,11.4816 C25.578193,10.9125258 26.053525,10.4512 26.6398766,10.4512 Z" id="Rectangle-3-Copy-3" fill="#000000" fill-rule="nonzero"></path>
                    </g>
                    <g id="Group-2-Copy-3" transform="translate(8.144231, 10.304000)">
                        <path d="M4.32177996,2.208 C3.16163619,2.208 2.22115385,3.13065159 2.22115385,4.2688 L2.22115385,15.6032 C2.22115385,16.7413484 3.16163619,17.664 4.32177996,17.664 L15.8752236,17.664 C17.0353674,17.664 17.9758497,16.7413484 17.9758497,15.6032 L17.9758497,4.2688 C17.9758497,3.13065159 17.0353674,2.208 15.8752236,2.208 L4.32177996,2.208 Z M4.32177996,0.1472 L15.8752236,0.1472 C18.1955112,0.1472 20.0764758,1.99250318 20.0764758,4.2688 L20.0764758,15.6032 C20.0764758,17.8794968 18.1955112,19.7248 15.8752236,19.7248 L4.32177996,19.7248 C2.00149242,19.7248 0.120527728,17.8794968 0.120527728,15.6032 L0.120527728,4.2688 C0.120527728,1.99250318 2.00149242,0.1472 4.32177996,0.1472 Z" id="Rectangle-2" fill="#000000" fill-rule="nonzero"></path>
                        <path d="M8.94315903,15.0961996 C8.94315903,14.4862404 9.38489657,14.0576 10.0025599,14.0576 C10.6207816,14.0576 11.0437851,14.4862404 11.0437851,15.0962576 C11.0437851,15.6732445 10.6378407,16.1184 9.9848805,16.1184 C9.36721715,16.1178785 8.94315903,15.672723 8.94315903,15.0961996 Z" id="Path" fill="#23B3FF"></path>
                        <path d="M8.62068615,6.20074519 C8.15360061,6.53819256 7.49611121,6.4402789 7.15214248,5.98204891 C6.80817375,5.52381892 6.90797965,4.87879497 7.37506519,4.5413476 C9.69428934,2.86581705 13.249441,3.88525508 13.249441,6.94174185 C13.249441,7.63636799 12.9970229,8.23030612 12.5235263,8.8887068 C12.4256392,9.02481954 12.32069,9.16109755 12.1848398,9.33087828 C12.1348864,9.39330824 11.9129673,9.6675159 11.8545107,9.74073161 C11.143058,10.6318126 10.8798208,11.1887179 10.9083297,11.9594325 C10.9293661,12.5281324 10.4764875,13.0058847 9.89679722,13.0265222 C9.3171069,13.0471597 8.83012173,12.6028674 8.8090854,12.0341675 C8.75853597,10.6676052 9.21181343,9.70865028 10.2007945,8.46997024 C10.2647324,8.38988924 10.4875733,8.11454254 10.5324905,8.05840668 C10.6481378,7.91387495 10.7332931,7.80329951 10.8070951,7.70067726 C11.0535622,7.35796281 11.1488148,7.13383399 11.1488148,6.94174185 C11.1488148,5.82817636 9.70818688,5.41507698 8.62068615,6.20074519 Z" id="Path-2" fill="#23B3FF" fill-rule="nonzero"></path>
                        <path d="M26.3783542,7.36 L46.3343023,7.36 L26.3783542,7.36 Z M26.3783542,6.3296 L46.3343023,6.3296 C46.9143742,6.3296 47.3846154,6.79092579 47.3846154,7.36 C47.3846154,7.92907421 46.9143742,8.3904 46.3343023,8.3904 L26.3783542,8.3904 C25.7982823,8.3904 25.3280411,7.92907421 25.3280411,7.36 C25.3280411,6.79092579 25.7982823,6.3296 26.3783542,6.3296 Z M26.3783542,3.2384 L35.8311717,3.2384 L26.3783542,3.2384 Z M26.3783542,2.208 L35.8311717,2.208 C36.4112436,2.208 36.8814848,2.66932579 36.8814848,3.2384 C36.8814848,3.80747421 36.4112436,4.2688 35.8311717,4.2688 L26.3783542,4.2688 C25.7982823,4.2688 25.3280411,3.80747421 25.3280411,3.2384 C25.3280411,2.66932579 25.7982823,2.208 26.3783542,2.208 Z M26.3783542,15.6032 L46.3343023,15.6032 L26.3783542,15.6032 Z M26.3783542,14.5728 L46.3343023,14.5728 C46.9143742,14.5728 47.3846154,15.0341258 47.3846154,15.6032 C47.3846154,16.1722742 46.9143742,16.6336 46.3343023,16.6336 L26.3783542,16.6336 C25.7982823,16.6336 25.3280411,16.1722742 25.3280411,15.6032 C25.3280411,15.0341258 25.7982823,14.5728 26.3783542,14.5728 Z M26.3783542,11.4816 L35.8311717,11.4816 L26.3783542,11.4816 Z M26.3783542,10.4512 L35.8311717,10.4512 C36.4112436,10.4512 36.8814848,10.9125258 36.8814848,11.4816 C36.8814848,12.0506742 36.4112436,12.512 35.8311717,12.512 L26.3783542,12.512 C25.7982823,12.512 25.3280411,12.0506742 25.3280411,11.4816 C25.3280411,10.9125258 25.7982823,10.4512 26.3783542,10.4512 Z" id="Rectangle-3-Copy-3" fill="#000000" fill-rule="nonzero"></path>
                    </g>
                </g>
                <path d="M164.791959,37.213517 C163.185022,35.5954943 160.58245,35.5954943 158.975509,37.213521 L140.023098,56.2964601 C139.099251,57.22667 137.598435,57.22667 136.674588,56.29646 L131.024512,50.6074709 C129.417552,48.9894606 126.815009,48.9894606 125.20805,50.6074713 C123.597317,52.2292793 123.597317,54.8616483 125.208054,56.4834603 L135.440616,66.7864959 C137.047554,68.4045014 139.650132,68.4045014 141.25707,66.7864959 L164.79196,43.0895178 C166.40268,41.4676873 166.40268,38.8353479 164.79196,37.2135174 Z" id="Shape" stroke="#23B3FF" stroke-width="2" fill-rule="nonzero"></path>
            </g>
        </g>
    </g>
</svg>