<?xml version="1.0" encoding="UTF-8"?>
<svg width="288px" height="138px" viewBox="0 0 288 138" version="1.1" xmlns="http://www.w3.org/2000/svg" xmlns:xlink="http://www.w3.org/1999/xlink">
    <!-- Generator: Sketch 48 (47235) - http://www.bohemiancoding.com/sketch -->
    <title>Artboard</title>
    <desc>Created with Sketch.</desc>
    <defs></defs>
    <g id="Artboard" stroke="none" stroke-width="1" fill="none" fill-rule="evenodd">
        <g id="server">
            <g id="Cloud-Copy" transform="translate(174.000000, 40.000000)">
                <path d="M38.7972177,15.7604444 C44.1752419,7.47743111 53.5001371,2 64.0967742,2 C80.5565887,2 93.9360484,15.2100444 94.2509677,31.6267556 C104.32129,33.3176889 112,42.0954667 112,52.6666667 C112,64.4479111 102.467258,74 90.7096774,74 C90.1136371,74 89.5211452,73.9757333 88.9354839,73.9271111 L88.9354839,74 L24.1774194,74 C11.9278548,74 2,64.0503111 2,51.7777778 C2,42.6041778 7.54435484,34.7274667 15.4624032,31.3351111 C15.3584355,30.6093333 15.3064516,29.8663111 15.3064516,29.1111111 C15.3064516,20.5208 22.2576532,13.5555556 30.8306452,13.5555556 C33.7449355,13.5555556 36.4685887,14.3610667 38.7972177,15.7604444 Z" id="path8_fill" fill="#F2F2F2" fill-rule="nonzero"></path>
                <path d="M36.8556385,12.7675258 C37.2985642,12.9327438 37.7315271,13.1139631 38.1521484,13.3099247 C43.9755,5.24842588 53.4416859,0 64.125,0 C81.1386984,0 95.0555156,13.3021459 96.1207031,30.1124518 C97.8144404,30.5091626 99.4368645,31.0924768 100.965255,31.8396342 C101.574947,32.1090102 102.198091,32.4088338 102.833967,32.7418551 C102.98913,32.8231091 103.110497,32.9438119 103.192231,33.0853243 C109.685741,37.2036784 114,44.4724668 114,52.7529412 C114,65.5911294 103.631344,76 90.84375,76 L24.046875,76 C10.7647172,76 0,65.1911012 0,51.8588235 C0,42.3618635 5.45945109,34.1474259 13.3976719,30.2062447 C13.3729125,29.8212376 13.3599094,29.4345318 13.359375,29.0588235 C13.359375,19.4304282 21.1357781,11.6235294 30.7265625,11.6235294 C30.8415724,11.6241936 30.956602,11.6260665 31.0716196,11.6291313 C31.1045292,11.6254302 31.137981,11.6235294 31.171875,11.6235294 C33.1869137,11.6235294 35.1072268,12.0306877 36.8556385,12.7675258 Z M39.6297663,14.3105071 C43.4026968,16.9809009 45.8671875,21.3897502 45.8671875,26.3764706 C45.8671875,26.8702918 45.4684547,27.2705882 44.9765625,27.2705882 C44.4846703,27.2705882 44.0859375,26.8702918 44.0859375,26.3764706 C44.0859375,20.7682513 40.5389219,15.9917321 35.5742002,14.184573 C34.0489337,13.683121 32.4197977,13.4117647 30.7265625,13.4117647 C22.1194734,13.4117647 15.140625,20.4179812 15.140625,29.0588235 C15.140625,29.8184659 15.1928156,30.5658588 15.2971969,31.2959059 C7.34765625,34.7082165 1.78125,42.6312612 1.78125,51.8588235 C1.78125,64.2035482 11.7485906,74.2117647 24.046875,74.2117647 L89.0625,74.2117647 L89.0625,74.1384471 C89.6503125,74.1873553 90.24525,74.2117647 90.84375,74.2117647 C102.648094,74.2117647 112.21875,64.6034871 112.21875,52.7529412 C112.21875,44.2791668 107.322958,36.9510124 100.217692,33.4631131 C96.0594657,31.6317841 92.6329794,31.3353199 90.187297,31.5205529 C88.7834405,31.6239666 87.7297688,31.8811864 86.974207,32.1233939 C86.6089706,32.2396739 86.3483648,32.3428998 86.1583945,32.4248456 C86.0691094,32.4632033 86.010052,32.4908315 85.9643541,32.5129609 C85.944217,32.52268 85.9331109,32.5282682 85.9228777,32.5334899 L85.916385,32.5368249 C85.4828483,32.7669351 84.9452288,32.6018273 84.7142969,32.1670536 C84.482859,31.7313233 84.6470923,31.1897384 85.0811213,30.9573929 L85.5001781,31.7463534 C85.0811213,30.9573929 85.0816307,30.9571158 85.082166,30.9568296 L85.0833656,30.9561948 L85.0862317,30.9546748 L85.0938242,30.9506871 L85.1164212,30.9390278 C85.1320899,30.9310433 85.1597447,30.9172024 85.1910306,30.9020471 C85.2481793,30.8744188 85.3426373,30.8304551 85.4559996,30.7815111 C85.6713384,30.6888715 86.0125992,30.554643 86.4336155,30.4195043 C87.250568,30.1588788 88.5069548,29.8574065 90.0532936,29.7373815 C91.2831249,29.6442363 92.7137311,29.6627332 94.3197968,29.889647 C93.1510729,14.1736727 80.0793369,1.78823529 64.125,1.78823529 C54.0582731,1.78823529 45.1347288,6.72129983 39.6297663,14.3105071 Z" id="Combined-Shape" fill="#000000"></path>
            </g>
            <g id="Server" transform="translate(76.000000, 84.000000)">
                <path d="M2,9 C2,5.13401 5.13401,2 9,2 L119,2 C122.866,2 126,5.13401 126,9 L126,35 C126,38.866 122.866,42 119,42 L9,42 C5.13401,42 2,38.866 2,35 L2,9 Z" id="path3_fill" fill="#F2F2F2" fill-rule="nonzero"></path>
                <path d="M9,0 L119,0 C123.971,0 128,4.02944 128,9 L128,35 C128,39.9706 123.971,44 119,44 L9,44 C4.02944,44 0,39.9706 0,35 L0,9 C0,4.02944 4.02944,0 9,0 Z M9,2 C5.13401,2 2,5.13401 2,9 L2,35 C2,38.866 5.13401,42 9,42 L119,42 C122.866,42 126,38.866 126,35 L126,9 C126,5.13401 122.866,2 119,2 L9,2 Z M102.65008,28.8002 C101.849222,28.8002 101.2,28.17336 101.2,27.4001 C101.2,26.626846 101.849222,26 102.65008,26 C103.45093,26 104.10015,26.626846 104.10015,27.4001 C104.10015,28.17336 103.45093,28.8002 102.65008,28.8002 Z M96.85008,28.8002 C96.049222,28.8002 95.4,28.17336 95.4,27.4001 C95.4,26.626846 96.049222,26 96.85008,26 C97.65093,26 98.30015,26.626846 98.30015,27.4001 C98.30015,28.17336 97.65093,28.8002 96.85008,28.8002 Z M105.55008,24.6002 C104.749222,24.6002 104.1,23.97336 104.1,23.2001 C104.1,22.426846 104.749222,21.8 105.55008,21.8 C106.35093,21.8 107.00015,22.426846 107.00015,23.2001 C107.00015,23.97336 106.35093,24.6002 105.55008,24.6002 Z M99.75008,24.6002 C98.949222,24.6002 98.3,23.97336 98.3,23.2001 C98.3,22.426846 98.949222,21.8 99.75008,21.8 C100.55093,21.8 101.20015,22.426846 101.20015,23.2001 C101.20015,23.97336 100.55093,24.6002 99.75008,24.6002 Z M91.05008,28.8002 C90.249222,28.8002 89.6,28.17336 89.6,27.4001 C89.6,26.626846 90.249222,26 91.05008,26 C91.85093,26 92.50015,26.626846 92.50015,27.4001 C92.50015,28.17336 91.85093,28.8002 91.05008,28.8002 Z M93.95008,24.6002 C93.149222,24.6002 92.5,23.97336 92.5,23.2001 C92.5,22.426846 93.149222,21.8 93.95008,21.8 C94.75093,21.8 95.40015,22.426846 95.40015,23.2001 C95.40015,23.97336 94.75093,24.6002 93.95008,24.6002 Z M85.25008,28.8002 C84.449222,28.8002 83.8,28.17336 83.8,27.4001 C83.8,26.626846 84.449222,26 85.25008,26 C86.05093,26 86.70015,26.626846 86.70015,27.4001 C86.70015,28.17336 86.05093,28.8002 85.25008,28.8002 Z M88.15008,24.6002 C87.349222,24.6002 86.7,23.97336 86.7,23.2001 C86.7,22.426846 87.349222,21.8 88.15008,21.8 C88.95093,21.8 89.60015,22.426846 89.60015,23.2001 C89.60015,23.97336 88.95093,24.6002 88.15008,24.6002 Z M79.45008,28.8002 C78.649222,28.8002 78,28.17336 78,27.4001 C78,26.626846 78.649222,26 79.45008,26 C80.25093,26 80.90015,26.626846 80.90015,27.4001 C80.90015,28.17336 80.25093,28.8002 79.45008,28.8002 Z M82.35008,24.6002 C81.549222,24.6002 80.9,23.97336 80.9,23.2001 C80.9,22.426846 81.549222,21.8 82.35008,21.8 C83.15093,21.8 83.80015,22.426846 83.80015,23.2001 C83.80015,23.97336 83.15093,24.6002 82.35008,24.6002 Z M21,31 C16.02944,31 12,26.9706 12,22 C12,17.02944 16.02944,13 21,13 C25.9706,13 30,17.02944 30,22 C30,26.9706 25.9706,31 21,31 Z M21,29 C24.866,29 28,25.866 28,22 C28,18.13401 24.866,15 21,15 C17.13401,15 14,18.13401 14,22 C14,25.866 17.13401,29 21,29 Z" id="Combined-Shape" fill="#000000"></path>
            </g>
            <g id="Server-Copy" transform="translate(76.000000, 42.000000)">
                <path d="M2,9 C2,5.13401 5.13401,2 9,2 L119,2 C122.866,2 126,5.13401 126,9 L126,35 C126,38.866 122.866,42 119,42 L9,42 C5.13401,42 2,38.866 2,35 L2,9 Z" id="path3_fill" fill="#F2F2F2" fill-rule="nonzero"></path>
                <path d="M9,0 L119,0 C123.971,0 128,4.02944 128,9 L128,35 C128,39.9706 123.971,44 119,44 L9,44 C4.02944,44 0,39.9706 0,35 L0,9 C0,4.02944 4.02944,0 9,0 Z M9,2 C5.13401,2 2,5.13401 2,9 L2,35 C2,38.866 5.13401,42 9,42 L119,42 C122.866,42 126,38.866 126,35 L126,9 C126,5.13401 122.866,2 119,2 L9,2 Z M102.65008,28.8002 C101.849222,28.8002 101.2,28.17336 101.2,27.4001 C101.2,26.626846 101.849222,26 102.65008,26 C103.45093,26 104.10015,26.626846 104.10015,27.4001 C104.10015,28.17336 103.45093,28.8002 102.65008,28.8002 Z M96.85008,28.8002 C96.049222,28.8002 95.4,28.17336 95.4,27.4001 C95.4,26.626846 96.049222,26 96.85008,26 C97.65093,26 98.30015,26.626846 98.30015,27.4001 C98.30015,28.17336 97.65093,28.8002 96.85008,28.8002 Z M105.55008,24.6002 C104.749222,24.6002 104.1,23.97336 104.1,23.2001 C104.1,22.426846 104.749222,21.8 105.55008,21.8 C106.35093,21.8 107.00015,22.426846 107.00015,23.2001 C107.00015,23.97336 106.35093,24.6002 105.55008,24.6002 Z M99.75008,24.6002 C98.949222,24.6002 98.3,23.97336 98.3,23.2001 C98.3,22.426846 98.949222,21.8 99.75008,21.8 C100.55093,21.8 101.20015,22.426846 101.20015,23.2001 C101.20015,23.97336 100.55093,24.6002 99.75008,24.6002 Z M91.05008,28.8002 C90.249222,28.8002 89.6,28.17336 89.6,27.4001 C89.6,26.626846 90.249222,26 91.05008,26 C91.85093,26 92.50015,26.626846 92.50015,27.4001 C92.50015,28.17336 91.85093,28.8002 91.05008,28.8002 Z M93.95008,24.6002 C93.149222,24.6002 92.5,23.97336 92.5,23.2001 C92.5,22.426846 93.149222,21.8 93.95008,21.8 C94.75093,21.8 95.40015,22.426846 95.40015,23.2001 C95.40015,23.97336 94.75093,24.6002 93.95008,24.6002 Z M85.25008,28.8002 C84.449222,28.8002 83.8,28.17336 83.8,27.4001 C83.8,26.626846 84.449222,26 85.25008,26 C86.05093,26 86.70015,26.626846 86.70015,27.4001 C86.70015,28.17336 86.05093,28.8002 85.25008,28.8002 Z M88.15008,24.6002 C87.349222,24.6002 86.7,23.97336 86.7,23.2001 C86.7,22.426846 87.349222,21.8 88.15008,21.8 C88.95093,21.8 89.60015,22.426846 89.60015,23.2001 C89.60015,23.97336 88.95093,24.6002 88.15008,24.6002 Z M79.45008,28.8002 C78.649222,28.8002 78,28.17336 78,27.4001 C78,26.626846 78.649222,26 79.45008,26 C80.25093,26 80.90015,26.626846 80.90015,27.4001 C80.90015,28.17336 80.25093,28.8002 79.45008,28.8002 Z M82.35008,24.6002 C81.549222,24.6002 80.9,23.97336 80.9,23.2001 C80.9,22.426846 81.549222,21.8 82.35008,21.8 C83.15093,21.8 83.80015,22.426846 83.80015,23.2001 C83.80015,23.97336 83.15093,24.6002 82.35008,24.6002 Z" id="Combined-Shape" fill="#000000"></path>
                <path d="M21,31 C16.02944,31 12,26.9706 12,22 C12,17.02944 16.02944,13 21,13 C25.9706,13 30,17.02944 30,22 C30,26.9706 25.9706,31 21,31 Z M21,29 C24.866,29 28,25.866 28,22 C28,18.13401 24.866,15 21,15 C17.13401,15 14,18.13401 14,22 C14,25.866 17.13401,29 21,29 Z" id="Combined-Shape" fill="#23B3FF"></path>
            </g>
            <g id="Server-Copy-2" transform="translate(76.000000, 0.000000)">
                <path d="M2,9 C2,5.13401 5.13401,2 9,2 L119,2 C122.866,2 126,5.13401 126,9 L126,35 C126,38.866 122.866,42 119,42 L9,42 C5.13401,42 2,38.866 2,35 L2,9 Z" id="path3_fill" fill="#F2F2F2" fill-rule="nonzero"></path>
                <path d="M9,0 L119,0 C123.971,0 128,4.02944 128,9 L128,35 C128,39.9706 123.971,44 119,44 L9,44 C4.02944,44 0,39.9706 0,35 L0,9 C0,4.02944 4.02944,0 9,0 Z M9,2 C5.13401,2 2,5.13401 2,9 L2,35 C2,38.866 5.13401,42 9,42 L119,42 C122.866,42 126,38.866 126,35 L126,9 C126,5.13401 122.866,2 119,2 L9,2 Z M102.65008,28.8002 C101.849222,28.8002 101.2,28.17336 101.2,27.4001 C101.2,26.626846 101.849222,26 102.65008,26 C103.45093,26 104.10015,26.626846 104.10015,27.4001 C104.10015,28.17336 103.45093,28.8002 102.65008,28.8002 Z M96.85008,28.8002 C96.049222,28.8002 95.4,28.17336 95.4,27.4001 C95.4,26.626846 96.049222,26 96.85008,26 C97.65093,26 98.30015,26.626846 98.30015,27.4001 C98.30015,28.17336 97.65093,28.8002 96.85008,28.8002 Z M105.55008,24.6002 C104.749222,24.6002 104.1,23.97336 104.1,23.2001 C104.1,22.426846 104.749222,21.8 105.55008,21.8 C106.35093,21.8 107.00015,22.426846 107.00015,23.2001 C107.00015,23.97336 106.35093,24.6002 105.55008,24.6002 Z M99.75008,24.6002 C98.949222,24.6002 98.3,23.97336 98.3,23.2001 C98.3,22.426846 98.949222,21.8 99.75008,21.8 C100.55093,21.8 101.20015,22.426846 101.20015,23.2001 C101.20015,23.97336 100.55093,24.6002 99.75008,24.6002 Z M91.05008,28.8002 C90.249222,28.8002 89.6,28.17336 89.6,27.4001 C89.6,26.626846 90.249222,26 91.05008,26 C91.85093,26 92.50015,26.626846 92.50015,27.4001 C92.50015,28.17336 91.85093,28.8002 91.05008,28.8002 Z M93.95008,24.6002 C93.149222,24.6002 92.5,23.97336 92.5,23.2001 C92.5,22.426846 93.149222,21.8 93.95008,21.8 C94.75093,21.8 95.40015,22.426846 95.40015,23.2001 C95.40015,23.97336 94.75093,24.6002 93.95008,24.6002 Z M85.25008,28.8002 C84.449222,28.8002 83.8,28.17336 83.8,27.4001 C83.8,26.626846 84.449222,26 85.25008,26 C86.05093,26 86.70015,26.626846 86.70015,27.4001 C86.70015,28.17336 86.05093,28.8002 85.25008,28.8002 Z M88.15008,24.6002 C87.349222,24.6002 86.7,23.97336 86.7,23.2001 C86.7,22.426846 87.349222,21.8 88.15008,21.8 C88.95093,21.8 89.60015,22.426846 89.60015,23.2001 C89.60015,23.97336 88.95093,24.6002 88.15008,24.6002 Z M79.45008,28.8002 C78.649222,28.8002 78,28.17336 78,27.4001 C78,26.626846 78.649222,26 79.45008,26 C80.25093,26 80.90015,26.626846 80.90015,27.4001 C80.90015,28.17336 80.25093,28.8002 79.45008,28.8002 Z M82.35008,24.6002 C81.549222,24.6002 80.9,23.97336 80.9,23.2001 C80.9,22.426846 81.549222,21.8 82.35008,21.8 C83.15093,21.8 83.80015,22.426846 83.80015,23.2001 C83.80015,23.97336 83.15093,24.6002 82.35008,24.6002 Z" id="Combined-Shape" fill="#000000"></path>
                <path d="M21,31 C16.02944,31 12,26.9706 12,22 C12,17.02944 16.02944,13 21,13 C25.9706,13 30,17.02944 30,22 C30,26.9706 25.9706,31 21,31 Z M21,29 C24.866,29 28,25.866 28,22 C28,18.13401 24.866,15 21,15 C17.13401,15 14,18.13401 14,22 C14,25.866 17.13401,29 21,29 Z" id="Combined-Shape" fill="#23B3FF"></path>
            </g>
            <g id="Cloud" transform="translate(0.000000, 53.000000)">
                <path d="M43.4805,17.4805 C49.543,8.16211 60.0547,2 72,2 C90.5547,2 105.637,16.8613 105.992,35.3301 C117.344,37.2324 126,47.1074 126,59 C126,72.2539 115.254,83 102,83 C101.3281,83 100.6602,82.9727 100,82.918 L100,83 L27,83 C13.1914,83 2,71.8066 2,58 C2,47.6797 8.25,38.8184 17.1758,35.002 C17.0586,34.1855 17,33.3496 17,32.5 C17,22.8359 24.8359,15 34.5,15 C37.7852,15 40.8555,15.9062 43.4805,17.4805 Z" id="path8_fill" fill="#F2F2F2" fill-rule="nonzero"></path>
                <path d="M41.3817695,14.2794697 C41.8790896,14.464253 42.3652234,14.6669325 42.8375,14.8861 C49.376,5.86995 60.0047,0 72,0 C91.1031,0 106.729,14.8774 107.925,33.6784 C109.82674,34.1220897 111.648409,34.7744806 113.364497,35.6101172 C114.049064,35.9113929 114.748734,36.246722 115.4627,36.61918 C115.636917,36.7100563 115.77319,36.8450528 115.864961,37.0033232 C123.155919,41.6093771 128,49.7389431 128,59 C128,73.3585 116.358,85 102,85 L27,85 C12.0867,85 0,72.9111 0,58 C0,47.3784 6.12991,38.1912 15.043,33.7833 C15.0152,33.3527 15.0006,32.9202 15,32.5 C15,21.7314 23.7314,13 34.5,13 C34.6291339,13.0007428 34.75829,13.0028375 34.8874325,13.0062653 C34.9243837,13.0021258 34.9619436,13 35,13 C37.2624996,13 39.4186407,13.4553744 41.3817695,14.2794697 Z M44.4965797,16.0051725 C48.7328526,18.9917971 51.5,23.9227469 51.5,29.5 C51.5,30.0523 51.0523,30.5 50.5,30.5 C49.9477,30.5 49.5,30.0523 49.5,29.5 C49.5,23.2276495 45.5173859,17.8854899 39.9429617,15.864325 C38.2303817,15.3034906 36.4011764,15 34.5,15 C24.8359,15 17,22.8359 17,32.5 C17,33.3496 17.0586,34.1855 17.1758,35.002 C8.25,38.8184 2,47.6797 2,58 C2,71.8066 13.1914,83 27,83 L100,83 L100,82.918 C100.66,82.9727 101.328,83 102,83 C115.254,83 126,72.2539 126,59 C126,49.5227523 120.50297,41.3267901 112.525127,37.4258502 C107.856242,35.3776533 104.008959,35.0460814 101.26293,35.25325 C99.68667,35.36891 98.5036,35.65659 97.65525,35.92748 C97.24516,36.05753 96.95255,36.17298 96.73925,36.26463 C96.639,36.30753 96.57269,36.33843 96.52138,36.36318 C96.49877,36.37405 96.4863,36.3803 96.47481,36.38614 L96.46752,36.38987 C95.980742,36.64723 95.377099,36.46257 95.117807,35.97631 C94.857947,35.48898 95.0423492,34.88326 95.52968,34.6234 L96.0002,35.50579 C95.52968,34.6234 95.530252,34.62309 95.530853,34.62277 L95.5322,34.62206 L95.535418,34.62036 L95.543943,34.6159 L95.569315,34.60286 C95.586908,34.59393 95.617959,34.57845 95.653087,34.5615 C95.717254,34.5306 95.823312,34.48143 95.950596,34.42669 C96.19238,34.32308 96.57555,34.172956 97.04827,34.021814 C97.96555,33.730325 99.37623,33.393152 101.11247,33.2589135 C102.493333,33.1547379 104.099628,33.1754252 105.90293,33.4292104 C104.590678,15.8521339 89.9136414,2 72,2 C60.6970084,2 50.6775902,7.51724323 44.4965797,16.0051725 Z" id="Combined-Shape" fill="#000000"></path>
            </g>
        </g>
    </g>
</svg>