<?xml version="1.0" encoding="UTF-8"?>
<svg width="32px" height="32px" viewBox="0 0 32 32" version="1.1" xmlns="http://www.w3.org/2000/svg" xmlns:xlink="http://www.w3.org/1999/xlink">
    <!-- Generator: Sketch 48 (47235) - http://www.bohemiancoding.com/sketch -->
    <title>s</title>
    <desc>Created with Sketch.</desc>
    <defs></defs>
    <g id="Artboard-3" stroke="none" stroke-width="1" fill="none" fill-rule="evenodd">
        <path d="M26.5762,9.48482 C23.6356,6.47912 19.7125,4.898158 15.5794,5.00508895 C7.54,5.231564 1,12.28386 1,20.7281 L1,24.249 C1.00720703,25.2211 1.761719,26.004 2.6875,26 L29.3125,26 C30.238,26.004 30.9924,25.2215 31,24.2497 L31,20.4217 C31,16.2871 29.4288,12.40064 26.5762,9.48482 Z M29.75,24.2509 C29.7432,24.4981 29.548,24.6934 29.3125,24.6887 L2.6875,24.6887 C2.45201,24.6935 2.25684,24.4981 2.24998,24.2509 L2.24998,20.7281 C2.24998,12.98931 8.24436,6.52372 15.6125,6.317 C19.3695,6.18053 23.0159,7.66484 25.7037,10.42462 C28.3125,13.09237 29.75,16.6421 29.75,20.4216 L29.75,24.2509 Z" id="path1_fill" fill="#23B3FF" fill-rule="nonzero"></path>
        <path d="M15.9764,18.17064 C15.35958,18.17254 14.76556,18.41563 14.31017,18.85252 L10.038916,16.2878346 C9.73915,16.1065805 9.356181,16.2148653 9.1836228,16.529691 C9.0110642,16.844456 9.1141305,17.24659 9.413955,17.42778 L13.61835,19.95051 C13.52665,20.22202 13.47872,20.50768 13.47649,20.79581 C13.47649,22.24559 14.59575,23.42091 15.97651,23.42091 C17.35727,23.42091 18.47653,22.24565 18.47653,20.79581 C18.47641,19.3459 17.3571,18.17064 15.9764,18.17064 Z M15.9764,22.10827 C15.28604,22.10827 14.72642,21.52064 14.72642,20.79574 C14.72642,20.07085 15.28604,19.48322 15.9764,19.48322 C16.66675,19.48322 17.22638,20.07085 17.22638,20.79574 C17.22638,21.52064 16.66675,22.10827 15.9764,22.10827 Z M16.025019,10.93769 C15.679844,10.93769 15.3999996,10.64385 15.3999996,10.2814 L15.3999996,7.656292 C15.3999996,7.293845 15.679844,6.99999978 16.025019,6.99999978 C16.370195,6.99999978 16.65004,7.293845 16.65004,7.656292 L16.65004,10.2814 C16.65004,10.64385 16.370195,10.93769 16.025019,10.93769 Z M25.4,20.756292 C25.4,20.393846 25.679843,20.1000002 26.025019,20.1000002 L28.52504,20.1000002 C28.87022,20.1000002 29.15006,20.393846 29.15006,20.756292 C29.15006,21.11874 28.87022,21.41258 28.52504,21.41258 L26.025019,21.41258 C25.679843,21.41258 25.4,21.11874 25.4,20.756292 Z M6.02498,20.1000002 C6.37016,20.1000002 6.65006,20.393846 6.65006,20.756292 C6.65006,21.11874 6.37021,21.41258 6.02504,21.41258 L3.525019,21.41258 C3.179844,21.41258 2.9,21.11874 2.9,20.756292 C2.9,20.393846 3.179844,20.1000002 3.525019,20.1000002 L6.02498,20.1000002 Z M10.4492,11.78449 L9.3867149,9.889818 C9.2114024,9.577576 9.3103084,9.175199 9.607672,8.9910531 C9.905035,8.8069689 10.288238,8.9108246 10.46361,9.223066 L11.52609,11.11774 C11.7014,11.42999 11.6025,11.83236 11.30513,12.01651 C11.00777,12.20059 10.62457,12.09674 10.4492,11.78449 Z M24.1806266,15.57733 C24.0111735,15.26159 24.1175217,14.86149 24.418108,14.68355 L26.26246,13.5901846 C26.2685,13.5864931 26.27453,13.5828629 26.28063,13.5794174 C26.58408,13.4067154 26.96342,13.5250288 27.12789,13.843669 C27.29236,14.16231 27.17969,14.56063 26.87623,14.73333 L25.031877,15.8267 C24.731233,16.00463 24.350138,15.89296 24.1806266,15.57733 Z M7.58543,14.68351 C7.87624,14.86243 7.97954,15.25127 7.81893,15.56246 C7.65452,15.88116 7.27512,15.99948 6.97166,15.82677 L5.127309,14.73341 C5.121216,14.7299 5.115121,14.72633 5.109145,14.72264 C4.8113128,14.53935 4.7113521,14.137347 4.8858443,13.824613 C5.060336,13.5118788 5.443247,13.4069169 5.741079,13.5901398 L7.58608,14.68351 L7.58543,14.68351 Z M22.40813,8.9925999 C22.70497,9.177545 22.80276,9.58023 22.62657,9.891918 L21.56409,11.7866 C21.38825,12.09884 21.004577,12.20226 20.707214,12.01762 C20.4098505,11.83299 20.3113559,11.43012 20.4871957,11.11787 L21.54968,9.223197 C21.72493,8.9110171 22.10796,8.8069775 22.40532,8.9908772 C22.40626,8.9914309 22.4072,8.9919846 22.40813,8.9925999 Z" id="Combined-Shape" fill="#23B3FF" fill-rule="nonzero"></path>
    </g>
</svg>