<?xml version="1.0" encoding="UTF-8"?>
<svg width="32px" height="32px" viewBox="0 0 32 32" version="1.1" xmlns="http://www.w3.org/2000/svg" xmlns:xlink="http://www.w3.org/1999/xlink">
    <!-- Generator: Sketch 48 (47235) - http://www.bohemiancoding.com/sketch -->
    <title>Artboard Copy 2</title>
    <desc>Created with Sketch.</desc>
    <defs></defs>
    <g id="Artboard-Copy" stroke="none" stroke-width="1" fill="none" fill-rule="evenodd">
        <path d="M31,5.95962005 C29.8965,6.46136005 28.7095,6.80072005 27.4647,6.95227005 C28.7357,6.17142005 29.7111,4.93589005 30.1715,3.46126306 C28.9822,4.18469005 27.6644,4.70950005 26.263,4.99238005 C25.1402999,3.76626306 23.5405999,3 21.7692999,3 C18.3707999,3 15.6143998,5.82641005 15.6143998,9.31131004 C15.6143998,9.80599004 15.6690998,10.28749 15.7745999,10.74969 C10.6594098,10.48659 6.12392976,7.97411005 3.08803973,4.15457005 C2.55833972,5.08651005 2.25447972,6.17142005 2.25447972,7.32787005 C2.25447972,9.51699004 3.34186973,11.44959 4.99246974,12.5811 C3.98402974,12.54862 3.03432973,12.2648 2.20489972,11.79083 C2.20443972,11.81766 2.20443972,11.84449 2.20443972,11.87085 C2.20443972,14.9288 4.32690974,17.4794 7.14201977,18.0588 C6.62608976,18.2038 6.08123976,18.2805 5.52078975,18.2805 C5.12328975,18.2805 4.73817974,18.2415 4.36270974,18.168 C5.14577975,20.6749 7.41833977,22.4997 10.1122698,22.551 C8.00541977,24.244 5.35187975,25.2527 2.46745972,25.2527 C1.97172472,25.2527 1.48058371,25.223 1,25.1642 C3.72238973,26.9556 6.95840976,28 10.4340398,28 C21.7550999,28 27.9462,18.3831 27.9462,10.04227 C27.9462,9.76880004 27.9402,9.49628004 27.9283,9.22611004 C29.1318,8.33653005 30.1752,7.22527005 31,5.95962005 Z" id="path0_fill" fill="#FFFFFF" fill-rule="nonzero"></path>
    </g>
</svg>