<?xml version="1.0" encoding="UTF-8"?>
<svg width="1333px" height="713px" viewBox="0 0 1333 713" version="1.1" xmlns="http://www.w3.org/2000/svg" xmlns:xlink="http://www.w3.org/1999/xlink">
    <g id="States" stroke="none" stroke-width="1" fill="none" fill-rule="evenodd" fill-opacity="0.3">
        <g id="Welcome-Window-+-Incstructions_2" transform="translate(-18.000000, -27.000000)" fill="#FFFFFE" stroke="#FFFFFF">
            <g id="map_back" transform="translate(19.000000, 28.000000)">
                <path d="M1191.02,28.355 L1196.25,29.488 L1205.35,12.782 L1218.11,7.54 L1225.52,0.029 L1238.33,4.058 L1231.46,8.655 L1235.7,12.11 L1237.8,17.579 L1235.96,23.147 L1251.93,30.242 L1253.82,39.242 L1249.81,46.457 L1241.7,50.633 L1236.98,57.103 L1230.47,59.457 L1224.63,57.776 L1221.99,59.612 L1221.6,65.563 L1217.48,76.72 L1222.13,86.568 L1225.16,97.828 L1239.43,100.699 L1246.45,99.059 L1252.33,100.366 L1257.52,102.736 L1262.07,109.522 L1261.87,113.516 L1253.17,120.529 L1250.85,125.287 L1251.82,151.269 L1246.09,148.197 L1239.3,149.091 L1237.76,146.708 L1233.89,149.128 L1233.56,156.773 L1228.5,161.197 L1228.53,166.959 L1226.06,167.64 L1226.41,171.885 L1223.29,175.804 L1216.53,173.414 L1203.37,180.185 L1200.14,166.732 L1194.79,165.645 L1191.91,168.563 L1185.67,167.678 L1181.8,172.919 L1175.35,172.73 L1174.88,176.602 L1170.7,179.349 L1170.21,182.208 L1166.57,181.1 L1162.58,183.372 L1164.13,186.699 L1157.21,188.044 L1157.01,190.897 L1154.16,192.241 L1154.07,196.246 L1156.12,196.493 L1154.1,199.936 L1147.11,203.624 L1140.49,202.956 L1136.11,207.334 L1129.73,205.918 L1120.89,209.738 L1115.8,202.168 L1108.98,204.494 L1107.48,197.405 L1102.62,195.431 L1095.22,197.027 L1091.68,194.791 L1089.99,191.232 L1091.96,189.075 L1088.57,188.845 L1087.96,182.804 L1095.68,170.749 L1097.03,165.542 L1102.6,161.376 L1099.73,156.444 L1096.38,155.126 L1096.74,153.165 L1092.04,152.316 L1091.71,149.419 L1086.7,149.356 L1081.02,143.21 L1086.08,134.522 L1091.57,132.768 L1098.93,124.431 L1099.74,122.083 L1096.98,112.715 L1098.38,109.023 L1101.99,106.287 L1104.09,97.177 L1121.49,77.563 L1125.94,68.388 L1132.13,65.606 L1146.51,53.775 L1148.76,53.057 L1191.02,28.355 Z M1123.15,20.885 L1114.51,24.348 L1110.23,29.869 L1109.04,34.909 L1111.41,46.146 L1114.85,50.821 L1123.13,51.666 L1126.2,42.739 L1129.38,27.785 L1127.35,22.687 L1123.15,20.885 Z M1257.52,102.736 L1252.33,100.366 L1257.52,102.736 Z" id="Fill-1"></path>
                <polyline id="Fill-2" points="78.322 155.868 87.605 155.241 91.691 160.811 96.04 161.593 95.9 166.605 97.751 168.904 96.51 177.281 99.547 181.584 96.856 186.28 92.254 186.335 89.273 189.087 88.424 187.779 79.577 169.042 76.756 159.198 78.322 155.868"></polyline>
                <polyline id="Fill-5" points="210.462 193.355 207.095 198.5 208.104 202.209 206.275 202.459 208.633 203.591 206.103 204.852 210.2 207.554 210.445 204.58 212.639 203.918 213.45 201.224 212.812 195.294 210.462 193.355"></polyline>
                <polyline id="Fill-6" points="136.996 255.668 142.288 255.536 144.884 251.29 152.691 248.758 155.568 255.191 157.792 255.507 158.083 258.053 156.623 258.126 160.539 260.987 159.261 262.177 162.574 267.103 173.403 269.095 175.213 276.231 179.045 279.058 177.756 283.327 169.6 289.651 162.441 289.087 161.078 290.788 159.099 290.81 156.547 287.507 154.174 289.627 152.312 284.846 149.388 283.124 141.324 287.036 138.949 285.899 135.778 287.574 129.003 287.516 128.462 283.006 131.112 280.948 127.831 274.328 132.4 272.958 131.848 266.062 134.443 261.443 137.273 260.923 136.996 255.668"></polyline>
                <polyline id="Fill-7" points="166.101 236.758 170.631 236.458 171.552 240.321 174.391 241.959 176.535 241.199 181.525 245.007 187.304 245.771 189.258 249.935 192.771 247.934 195.489 249.322 199.826 247.361 199.908 245.406 202.49 245.594 205.702 248.739 206.431 253.902 208.337 252.696 210.907 255.772 214.743 255.043 223.004 262.708 228.484 261.477 231.09 262.988 228.809 271.842 223.882 271.786 223.96 276.37 220.62 274.717 220.275 276.666 218.953 275.779 218.279 282.269 215.54 285.117 216.951 289.587 214.836 289.133 212.967 292.009 209.456 292.931 209.028 295.056 207.588 293.116 208.423 288.765 204.568 289.133 201.79 286.257 198.527 288.699 197.995 285.993 190.036 283.354 187.874 276.94 185.46 279.609 183.908 278.485 179.08 280.058 175.213 276.231 172.998 268.756 168.649 269.262 162.574 267.103 159.261 262.177 160.539 260.987 156.623 258.126 158.085 258.046 157.792 255.507 155.867 255.483 154.526 252.711 157.083 249.549 163.352 247.305 163.105 241.269 165.937 240.511 166.101 236.758"></polyline>
                <polyline id="Fill-9" points="113.437 277.407 117.116 277 118.741 278.798 118.394 282.964 121.256 285.736 129.246 287.645 139.027 285.906 142.204 287.517 142.986 289.883 141.506 291.219 144.178 293.954 139.563 302.167 141.456 306.712 138.955 309.953 139.372 312.269 132.927 309.999 132.573 314.53 127.433 314.931 124.673 317.617 118.182 315.831 115.718 317.261 119.485 306.667 117.032 305.207 115.812 301.135 111.988 299.845 110.167 294.371 107.182 296.216 103.067 293.22 105.076 287.476 112.061 282.78 113.437 277.407"></polyline>
                <polyline id="Fill-10" points="141.609 286.06 146.558 285.649 149.388 283.124 152.312 284.846 154.174 289.627 156.547 287.507 159.409 290.824 162.408 289.039 165.027 290.32 170.437 288.844 173.293 291.876 174.775 297.403 179.375 298.107 179.047 305.004 176.603 309.054 171.59 311.083 170.242 309.112 166.918 312.688 159.336 305.752 159.3 308.805 153.879 308.826 152.67 312.053 141.665 309.385 139.339 303.236 144.178 293.954 141.506 291.219 142.986 289.883 141.609 286.06"></polyline>
                <polyline id="Fill-11" points="111.202 316.423 114.406 318.87 116.89 315.789 121.529 317.813 122.706 316.136 123.976 317.702 126.715 316.411 126.955 318.149 131.799 320.919 129.733 323.909 136.057 328.291 135.133 331.779 137.83 339.111 137.269 342.607 138.961 342.403 140.627 344.523 140.091 347.316 144.334 350.991 142.245 353.978 138.262 351.929 134.919 357.609 133.879 352.756 127.311 346.638 125.583 348.069 119.984 345.318 117.229 339.203 112.524 339.696 110.191 337.774 109.744 335.029 111.209 334.26 109.904 332.075 111.92 330.591 108.928 328.208 106.443 321.959 110.592 319.961 111.202 316.423"></polyline>
                <polyline id="Fill-12" points="132.927 309.999 138.31 312.554 140.502 308.533 151.394 311.293 151.87 322.163 156.959 329.015 154.597 331.188 155.813 331.859 154.901 334.577 151.556 337.527 148.404 337.75 145.937 344.263 142.749 342.91 139.71 344.634 138.961 342.403 137.269 342.607 137.83 339.111 135.133 331.779 136.057 328.291 129.799 324.08 132.125 321.453 126.772 317.922 127.433 314.931 132.666 314.435 132.927 309.999"></polyline>
                <polyline id="Fill-13" points="548.866 40.852 552.145 40.07 561.36 42.95 568.409 48.005 572.314 46.14 576.143 47.324 578.948 52.145 575.767 56.896 576.396 59.244 584.064 52.013 594.122 54.448 600.526 52.762 605.696 54.728 620.101 68.256 620.113 81.867 618.374 86.002 612.955 88.937 602.065 86.886 593.827 89.415 589.654 92.867 580.811 91.067 578.699 88.334 578.919 84.91 570.656 75.392 559.521 72.232 549.636 59.959 548.872 40.852"></polyline>
                <polyline id="Fill-14" points="521.823 25.564 526.844 22.371 529.686 25.396 529.794 29.108 525.017 30.672 521.823 25.564"></polyline>
                <polyline id="Fill-15" points="179.08 280.058 183.908 278.485 185.461 279.608 187.874 276.94 190.036 283.354 197.996 285.993 198.535 288.707 201.79 286.257 204.568 289.133 208.606 289.066 207.588 293.116 209.406 295.534 205.959 297.918 200.639 306.267 203.009 310.311 201.852 311.489 203.666 313.431 202.995 315.871 206.869 318.033 202.006 326.445 197.487 324.743 195.183 326.99 193.002 325.03 186.431 326.795 183.729 323.939 181.278 325.063 181.39 327.142 177.446 326.644 178.538 322.096 181.555 320.535 179.656 316.417 180.875 314.22 177.402 313.734 176.175 307.933 179.254 303.908 183.013 305.562 185.968 303.047 186.401 304.511 188.707 303.463 192.378 305.18 193.816 301.011 192.306 297.199 188.771 301.019 185.836 299.267 184.023 301.377 182.903 298.078 179.879 302.004 178.515 301.525 179.375 298.107 174.039 296.381 173.322 291.933 170.379 290.009 170.505 288.338 175.407 285.902 179.08 280.058"></polyline>
                <polyline id="Fill-16" points="109.177 335.11 112.524 339.696 117.229 339.203 119.508 345.056 125.583 348.069 127.339 346.628 134.229 353.285 134.94 360.071 132.175 360.461 134.958 364.94 133.236 366.869 132.172 365.374 130.672 366.341 131.266 371.896 127.739 372.836 123.749 380.368 118.77 379.9 119.724 375.244 117.673 373.952 118.1 370.988 113.497 370.645 117.221 359.479 108.021 354.812 107.336 347.272 102.809 344.192 104.423 339.629 107.871 338.383 109.177 335.11"></polyline>
                <polyline id="Fill-17" points="153.826 308.858 159.043 309.029 159.336 305.752 166.918 312.688 170.242 309.112 171.59 311.083 176.487 309.029 177.417 313.697 180.843 314.167 179.656 316.417 181.178 321.676 178.538 322.095 176.926 328.739 175.333 328.735 174.572 332.183 172.428 332.631 170.139 336.586 167.96 335.435 165.913 337.71 163.661 336.392 160.784 340.254 157.335 338.81 154.597 331.188 156.959 329.015 152.305 323.366 152.635 319.565 151.262 318.678 152.24 315.151 150.711 312.836 152.993 311.973 153.826 308.858"></polyline>
                <polyline id="Fill-18" points="181.881 298.72 183.646 298.815 183.918 301.363 185.917 299.258 188.807 301.033 192.447 297.271 191.853 298.782 193.847 298.998 192.979 304.734 186.437 304.521 185.968 303.047 183.013 305.561 180.033 304.535 181.881 298.72"></polyline>
                <polyline id="Fill-19" points="223.882 271.786 231.495 270.225 234.983 271.57 240.071 277.612 243.49 275.534 246.436 280.405 245.267 288.709 250.017 292.976 248.575 298.03 238.981 299.103 236.607 302.717 233.472 302.085 229.91 305.076 220.44 301.608 212.411 305.303 210.252 300.707 208.034 300.15 209.061 293.432 217.479 288.939 215.54 285.117 218.279 282.269 218.426 276.794 220.275 276.666 220.62 274.717 224.138 276.236 223.882 271.786"></polyline>
                <polyline id="Fill-20" points="148.472 337.688 156.121 334.268 157.335 338.809 160.784 340.253 163.57 336.432 166.06 337.697 167.979 335.429 170.893 337.52 170.204 341.871 175.787 343.061 175.37 349.293 164.306 355.659 164.337 367.334 158.943 368.369 157.101 364.528 153.503 362.336 152.586 356.453 149.08 355.604 148.364 351.575 140.091 347.317 142.687 342.913 147.115 343.604 148.472 337.688"></polyline>
                <polyline id="Fill-21" points="138.023 352.056 142.222 353.978 143.834 349.554 148.364 351.575 149.368 355.95 152.586 356.453 153.779 362.843 157.101 364.528 161.208 371.287 159.042 373.743 159.725 375.101 164.303 377.864 166.587 385.021 168.71 384.933 167.505 386.617 169.462 388.035 169.672 391.874 168.252 396.2 163.67 394.492 159.6 388.797 156.093 389.66 148.412 387.498 148.826 392.396 145.619 395.372 141.219 395.777 140.862 397.561 136.739 396.628 132.292 398.121 127.725 396.246 125.753 392.233 121.937 390.139 122.838 386.398 120.739 382.766 124.464 380.056 127.739 372.836 131.266 371.896 130.672 366.341 132.172 365.374 133.197 366.88 135.111 364.015 132.847 363.461 132.175 360.461 134.94 360.071 134.476 357.132 136.347 356.844 138.023 352.056"></polyline>
                <polyline id="Fill-22" points="205.959 297.918 209.277 296.948 208.034 300.158 210.252 300.707 212.411 305.303 215.857 303.321 218.677 305.117 219.542 307.2 215.767 311.124 217.175 313.477 221.542 314.056 223.613 319.851 229.13 324.507 227.453 327.07 230.235 327.752 232.517 331.333 230.622 334.802 231.734 336.716 228.653 335.499 227.406 337.271 219.657 336.495 216.856 339.596 209.915 340.953 209.042 339.788 208.187 335.623 205.92 334.749 206.726 332.975 203.089 330.784 204.947 328.712 202.434 326.18 206.869 318.033 203.05 315.989 203.666 313.431 201.845 311.486 203.009 310.311 200.6 306.652 205.959 297.918"></polyline>
                <polyline id="Fill-23" points="177.512 326.694 181.389 327.142 181.299 325.083 183.745 323.939 186.645 326.822 193.002 325.03 195.183 326.99 197.487 324.743 200.981 326.656 202.685 325.853 202.666 327.906 204.971 328.945 203.089 330.785 206.726 332.975 205.92 334.75 208.187 335.623 207.796 337.764 211.19 342.531 210.041 344.417 213.313 346.704 209.031 350.264 209.247 353.927 207.021 354.021 206.159 355.942 201.379 353.837 200.665 355.59 203.246 355.911 203.384 359.385 199.825 356.649 199.924 359.143 197.407 360.147 189.786 353.656 186.058 356.369 183.151 356.021 181.893 350.884 175.222 349.898 175.787 343.061 171.993 343.251 169.281 340.801 170.27 335.638 174.572 332.183 174.283 330.141 177.512 326.694"></polyline>
                <polyline id="Fill-24" points="216.88 302.795 224.661 302.21 239.216 311.207 243.28 308.094 244.685 314.493 250.151 316.828 246.719 321.372 249.113 322.904 251.283 320.978 250.178 323.874 245.366 325.308 242.333 331.032 239.323 328.149 235.117 332.463 232.116 331.078 230.235 327.753 227.453 327.07 229.151 324.544 223.682 319.875 221.542 314.056 217.175 313.478 215.913 311.451 216.792 308.622 219.542 307.2 216.394 304.295 216.88 302.795"></polyline>
                <polyline id="Fill-25" points="165.081 354.51 167.587 354.919 173.931 349.373 176.713 350.806 179.16 349.385 182.237 351.356 183.151 356.022 186.085 356.354 189.786 353.656 194.689 358.017 194.929 359.637 191.278 362.367 191.669 365.028 190.15 365.285 191.133 366.847 188.156 381.868 178.858 383.681 176.997 386.025 169.288 388.769 167.861 387.442 168.71 384.933 166.578 385.005 164.303 377.864 159.042 373.743 161.5 372.498 159.27 368.459 164.772 366.495 163.502 361.269 165.081 354.51"></polyline>
                <polyline id="Fill-26" points="231.038 303.468 233.533 302.022 236.057 303.068 238.981 299.103 248.462 298.094 250.063 293.427 253.662 293.804 256.588 290.721 264.193 294.582 266.104 293.332 265.416 291.446 268.063 290.747 267.369 294.394 270.437 295.956 269.702 299.507 273.125 299.733 273.484 302.381 275.547 301.931 274.108 303.698 276.777 304.17 278.699 309.601 282.965 314.174 286.083 314.915 289.67 319.539 291.823 317.86 294.328 319.806 297.976 316.529 302.348 321.168 299.099 323.71 300.206 325.157 298.113 326.879 299.389 329.095 297.537 333.245 295.279 331.018 293.913 332.787 292.315 331.707 289.747 333.209 286.97 331.312 284.12 333.24 282.589 332.363 278.403 336.043 274.573 332.787 271.707 333.086 272.373 331.006 268.725 326.171 263.459 330.05 254.17 327.968 253.785 322.854 250.048 323.631 251.322 320.995 249.067 322.912 246.747 321.486 250.339 317.268 244.685 314.493 243.28 308.094 239.216 311.207 229.857 305.527 231.038 303.468"></polyline>
                <polyline id="Fill-27" points="2.077 380.259 8.869 378.628 9.489 384.032 7.943 384.309 8.887 385.942 6.063 390.537 4.386 389.167 1.037 390.547 0.125 384.61 2.077 380.259"></polyline>
                <polyline id="Fill-28" points="7.585 362.661 11.365 361.888 17.93 364.186 26.142 370.084 30.048 368.887 31.995 380.167 33.734 381.276 32.923 387.023 35.474 389.38 33.778 396.024 37.708 396.612 43.53 405.306 37.056 408.699 34.063 412.322 29.633 410.076 25.176 403.495 18.111 401.573 14.551 397.185 5.721 395.755 1.257 391.01 4.386 389.167 6.063 390.537 8.887 385.942 7.943 384.309 9.461 384.158 8.528 371.677 5.437 366.605 7.585 362.661"></polyline>
                <polyline id="Fill-29" points="38.116 408.758 43.517 405.501 68.135 401.26 78.555 409.105 76.347 411.36 78.494 413.507 74.428 416.427 75.441 415.571 77.477 418.675 80.452 417.118 86.527 424.807 83.35 427.583 84.665 428.998 82.089 432.928 86.304 439.126 87.743 438.916 85.196 440.993 82.939 447.911 80.949 447.937 78.553 444.723 76.184 446.795 73.908 452.025 76.462 453.851 74.335 458.615 75.987 460.675 72.611 462.714 70.395 461.846 70.091 467.458 67.271 467.52 67.149 470.201 60.621 470.29 58.331 463.428 57.045 465.336 50.798 466.371 48.678 468.878 43.925 462.495 37.08 463.732 38.929 441.539 34.311 423.904 36.083 417.616 34.063 412.322 38.116 408.758"></polyline>
                <polyline id="Fill-30" points="79.292 401.579 84.547 399.28 88.723 402.403 91.728 400.962 99.13 409.596 101.286 407.471 106.058 407.181 105.42 404.92 106.836 405.351 108.97 401.972 108.09 399.826 112.282 398.382 112.95 400.513 114.785 400.53 113.084 398.091 113.958 394.956 116.194 397.118 120.97 397.342 122.314 393.296 125.753 392.233 127.725 396.246 132.292 398.121 136.738 396.628 140.862 397.561 142.361 395.687 141.874 408.864 133.358 414.3 135.943 416.96 135.077 424.277 131.672 426.771 124.484 423.487 123.437 425.986 122.34 425.092 118.823 427.604 122.855 432.103 119.506 441.804 125.617 449.065 123.67 452.325 124.784 453.708 126.793 452.173 130.95 452.612 126.501 458.463 122.899 460.922 114.95 461.081 112.977 465.495 111.518 465.23 112.23 462.452 108.307 464.328 105.696 461.766 105.864 454.777 102.722 453.471 100.562 446.238 97.525 449.717 95.788 447.823 92.943 448.763 91.604 446.174 89.558 449.322 84.562 444.593 85.195 440.993 87.742 438.916 84.803 437.461 82.089 432.077 84.665 428.998 83.35 427.583 86.527 424.807 80.452 417.118 77.471 418.671 74.287 416.02 78.494 413.507 76.347 411.36 78.555 409.105 75.752 406.346 76.875 403.689 80.178 402.636 79.292 401.579"></polyline>
                <polyline id="Fill-31" points="50.775 432.666 52.466 431.502 55.689 437.463 61.994 438.635 62.518 442.838 65.711 445.623 65.941 448.145 61.694 458.474 60.297 457.021 62.783 455.247 62.656 451.72 59.504 453.003 57.143 457.461 55.183 457.074 52.443 461.55 48.909 462.67 46.437 454.72 49.301 452.098 49.779 455.484 51.334 455.867 52.96 454.381 52.265 450.831 57.646 447.295 59.095 448.046 61.606 443.454 59.08 442.468 58.357 439.331 57.678 442.947 55.999 442.82 52.273 438.157 50.775 432.666"></polyline>
                <polyline id="Fill-32" points="50.798 466.371 57.045 465.336 58.331 463.428 60.901 467.582 59.822 469.439 62.638 470.909 67.122 470.207 67.271 467.52 69.96 467.586 71.958 469.167 70.917 471.798 75.44 477.749 69.256 477.988 68.988 479.662 71.524 480.982 69.544 484.497 68.07 485.827 65.124 484.667 58.902 488.401 52.504 481.396 52.406 477.475 49.238 472.556 48.715 468.892 50.798 466.371"></polyline>
                <polyline id="Fill-33" points="76.184 446.795 78.553 444.723 80.949 447.937 82.939 447.911 84.562 444.593 92.166 453.457 95.104 451.959 96.621 452.983 94.489 455.046 102.99 457.182 104.552 465.203 107.855 469.713 106.344 478.179 109.422 484.201 111.841 497.649 106.144 499.928 102.047 498.938 100.815 499.948 102.173 502.261 99.917 503.493 96.239 502.303 99.701 506.132 95.354 509.328 92.866 504.789 89.941 507.874 87.526 506.981 88.664 504.129 84.036 499.61 87.762 498.163 84.916 497.801 83.325 493.59 79.187 494.423 75.112 490.654 75.912 487.366 71.01 486.261 69.462 484.24 71.524 480.982 68.988 479.662 69.153 478.046 75.611 477.119 70.917 471.797 71.958 469.167 69.254 465.68 70.395 461.846 72.611 462.713 75.987 460.674 74.332 458.794 76.462 453.851 73.908 452.024 76.184 446.795"></polyline>
                <polyline id="Fill-34" points="148.382 387.513 156.113 389.665 159.6 388.797 163.67 394.492 166.183 394.507 167.932 402.785 174.384 405.32 175.549 408.26 177.227 407.292 182.552 413.994 181.774 419.952 177.092 422.618 180.91 426.637 184.42 425.587 185.299 428.7 183.339 430.233 185.117 431.914 190.956 432.997 189.818 437.334 192.464 439.361 191.034 441.379 192.721 442.816 189.039 443.875 188.646 445.882 181.901 445.464 174.651 451.135 173.708 456.344 165.296 458.377 163.29 450.878 155.106 450.873 151.84 448.374 152.844 450.901 149.435 448.29 142.135 451.309 139.878 449.05 141.646 447.349 140.476 444.875 136.607 449.735 134.139 447.013 131.136 447.65 128.758 446.098 125.104 449.149 119.507 441.803 122.855 432.102 118.855 427.579 122.341 425.092 123.437 425.986 124.484 423.487 131.672 426.77 135.077 424.277 135.943 416.96 133.358 414.3 141.714 409.174 141.699 398.483 142.772 395.805 148.534 392.988 148.382 387.513"></polyline>
                <polyline id="Fill-35" points="91.513 446.233 92.943 448.763 95.788 447.823 97.525 449.717 100.562 446.238 102.722 453.471 105.864 454.777 105.722 461.846 108.307 464.328 112.23 462.452 111.519 465.23 112.977 465.495 114.95 461.081 122.9 460.922 130.709 454.194 130.057 451.846 128.381 453.464 123.67 452.325 128.758 446.098 131.136 447.65 134.139 447.013 135.842 449.907 140.476 444.874 141.646 447.348 139.878 449.05 142.135 451.309 146.16 449.807 147.658 458.067 149.5 459.093 146.758 464.144 146.733 471.541 152.812 472.782 153.594 474.93 148.87 474.02 146.285 481.644 147.024 488.59 141.896 488.08 140.924 489.93 134.408 486.854 130.624 491.712 128.416 490.901 129.306 494.702 127.398 495.807 128.853 499.946 136.379 504.838 133.567 508.303 134.447 512.612 131.817 511.529 122.927 515.075 119.04 510.414 118.268 505.396 111.513 497.787 112.318 494.886 106.343 478.178 107.855 469.712 104.552 465.203 103.14 457.346 96.969 456.724 94.489 455.046 96.743 453.123 95.104 451.959 91.979 453.312 89.581 449.333 91.513 446.233"></polyline>
                <polyline id="Fill-36" points="60.327 488.078 65.039 484.7 68.053 485.813 69.544 484.497 75.912 487.366 75.112 490.654 79.187 494.423 83.325 493.59 84.916 497.801 87.809 498.229 83.005 500.184 83.706 502.448 80.574 505.777 77.114 504.259 77.529 502.587 73.81 504.331 73.64 501.33 66.43 503.574 63.581 501.958 63.258 494.951 60.685 492.594 60.327 488.078"></polyline>
                <polyline id="Fill-37" points="64.251 502.483 66.43 503.574 73.64 501.33 73.81 504.331 77.529 502.587 77.114 504.259 80.574 505.777 83.706 502.448 82.588 501.145 83.86 499.383 88.664 504.129 86.023 507.821 83.152 504.345 81.389 505.606 79.294 509.36 80.929 510.105 80.529 515.38 76.903 517.015 75.833 513.983 74.124 516.359 70.441 513.354 64.98 512.199 63.759 508.795 66.001 508.245 64.251 502.483"></polyline>
                <polyline id="Fill-38" points="81.389 505.606 84.687 505.215 86.963 512.625 81.458 519.852 77.125 520.741 76.106 518.441 73.894 519.52 75.833 513.983 76.903 517.015 80.529 515.38 80.929 510.105 79.294 509.36 81.389 505.606"></polyline>
                <polyline id="Fill-39" points="87.355 506.215 89.941 507.874 92.866 504.789 95.354 509.328 97.057 507.665 100.436 511.936 101.901 514.371 100.565 515.881 106.206 516.737 104.729 518.462 106.005 520.993 98.362 522.79 93.727 531.451 90.075 528.713 88.073 530.566 81.803 530.276 77.564 525.521 77.537 520.746 81.458 519.852 86.963 512.625 85.878 508.453 87.355 506.215"></polyline>
                <polyline id="Fill-40" points="146.161 449.808 149.435 448.29 152.844 450.901 151.844 448.358 157.226 451.315 162.874 450.621 165.031 453.609 165.296 458.377 161.147 460.441 164.556 467.691 162.292 469.606 163.062 470.802 160.528 470.712 158.984 474.847 159.63 477.438 161.757 475.725 166.952 482.489 166.476 490.167 163.304 502.815 159.958 501.638 158.791 499.056 156.582 501.714 160.07 508.721 160.085 518.183 151.113 517.49 146.344 519.071 140.567 513.688 135.511 513.445 133.567 508.304 136.379 504.84 128.853 499.948 127.398 495.807 129.306 494.703 128.416 490.901 130.624 491.712 134.408 486.854 140.924 489.931 141.896 488.08 147.024 488.59 146.285 481.644 148.87 474.02 153.594 474.93 152.812 472.782 146.733 471.541 146.758 464.144 149.5 459.093 147.658 458.067 146.161 449.808"></polyline>
                <polyline id="Fill-41" points="96.239 502.303 99.917 503.493 102.173 502.261 100.814 499.948 102.047 498.938 106.144 499.928 111.513 497.789 118.268 505.397 119.041 510.414 122.928 515.076 120.348 515.423 124.827 517.434 125.98 520.942 123.866 524.24 120.243 524.914 122.933 528.724 121.957 532.197 115.046 534.002 108.398 539.898 104.411 564.771 95.998 565.503 91.663 563.951 86.265 565.862 81.862 560.232 83.025 547.166 80.599 546.3 76.242 531.928 81.255 530.005 88.095 530.563 90.075 528.713 93.764 531.448 98.362 522.79 106.005 520.993 105.197 515.6 104.745 516.789 100.279 515.536 101.901 514.371 97.487 508.08 99.701 506.132 96.239 502.303"></polyline>
                <polyline id="Fill-42" points="192.982 172.958 204.072 178.467 209.574 177.86 227.009 181.658 226.003 185.097 229.995 193.642 234.645 213.947 242.01 214.4 243.031 217.532 245.614 216.804 243.585 214.619 245.756 213.057 249.444 217.386 249.057 219.868 252.955 220.097 255.898 224.912 253.908 226.509 256.415 227.792 253.532 229.981 247.507 228.893 245.762 231.552 236.718 236.68 237.716 239.273 233.853 241.765 234.88 243.321 231.371 244.836 230.541 243.247 228.106 245.994 224.381 243.34 221.137 243.57 220.821 239.598 218.52 238.455 217.833 235.597 219.553 232.463 216.995 230.91 216.84 227.328 211.424 228.179 209.41 226.539 211.654 219.635 209.052 219.596 208.63 217.193 204.313 219.276 202.015 218.877 200.897 216.016 194.641 217.072 192.327 212.472 187.381 214.798 185.588 212.876 185.498 207.997 188.164 203.136 184.501 197.491 186.223 194.3 184.179 191.668 192.734 191.323 193.938 187.083 190.391 179.355 192.983 172.958"></polyline>
                <polyline id="Fill-43" points="160.843 200.978 165.638 200.602 167.976 202.241 171.524 196.556 179.49 190.402 185.685 192.684 184.5 197.491 188.164 203.136 185.498 207.997 186.663 213.785 184.686 214.985 182.346 213.143 179.898 215.144 181.09 218.145 179.074 218.407 181.218 224.22 178.134 225.208 178.665 227.443 173.464 227.824 173.354 231.675 168.91 233.917 170.196 236.516 166.101 236.758 165.937 240.511 163.124 241.229 163.344 247.312 157.111 249.523 154.363 253.055 152.691 248.758 148.703 248.306 150.37 243.99 149.678 240.393 143.561 236.618 143.566 234.759 147.063 233.296 146.285 229.88 143.804 228.548 145.163 225.752 142.675 222.275 152.647 213.124 151.129 210.55 159.208 208.046 160.842 200.978"></polyline>
                <polyline id="Fill-44" points="337.915 104.958 341.652 107.625 346.642 106.272 351.217 109.137 354.872 107.168 356.152 112.676 359.469 109.775 364.173 109.686 369.517 113.893 370.456 122.897 367.576 127.551 373.188 141.666 374.154 158.271 372.823 163.834 385.732 174.991 369.175 202.383 341.196 200.048 331.654 194.536 322.502 180.271 321.608 157.055 319.01 151.731 314.546 152.674 312.96 150.187 315.943 145.006 307.23 131.35 310.657 126.824 325.002 125.858 328.458 118.03 327.842 112.962 332.29 108.537 338.558 107.558 337.914 104.958"></polyline>
                <polyline id="Fill-45" points="227.009 181.658 252.12 183.982 260.88 182.285 263.862 176.913 266.328 163.166 268.534 164.475 274.413 163.389 276.266 157.461 281.997 154.15 280.793 151.76 282.324 149.612 284.401 148.429 286.157 149.754 287.276 146.398 292.829 145.192 293.407 143.569 295.554 145.869 307.23 131.351 315.943 145.006 312.96 150.187 314.546 152.674 319.01 151.731 321.608 157.055 322.526 171.262 308.848 185.505 306.233 190.352 304.58 202.267 294.223 206.478 290.773 203.484 288.302 210.45 284.637 211.94 282.934 216.061 285.755 224.486 279.458 228.517 280.903 230.046 278.871 234.305 272.101 238.438 269.097 235.273 269.088 232.301 253.909 226.509 255.737 224.603 252.956 220.097 249.058 219.868 249.445 217.386 245.757 213.057 243.586 214.619 245.615 216.804 243.031 217.532 242.01 214.4 234.645 213.947 229.997 193.642 226.005 185.097 227.009 181.658"></polyline>
                <polyline id="Fill-46" points="210.462 193.355 212.812 195.294 213.457 201.238 212.644 203.832 210.445 204.58 210.2 207.554 206.103 204.851 208.633 203.591 206.278 202.452 208.105 202.209 207.095 198.5 210.462 193.355"></polyline>
                <polyline id="Fill-47" points="182.346 213.143 183.432 214.748 186.504 213.475 188.482 214.931 192.327 212.472 194.641 217.073 200.897 216.016 202.636 219.185 208.63 217.193 209.052 219.597 211.653 219.635 209.41 226.539 211.424 228.179 216.623 227.188 217.068 231.044 219.553 232.463 217.833 235.597 218.52 238.455 220.821 239.598 220.433 247.344 221.69 248.361 219.518 249.417 223.382 253.716 222.632 259.785 218.507 259.59 214.743 255.043 210.308 255.51 209.18 252.846 206.431 253.902 205.702 248.739 202.49 245.594 199.908 245.406 199.826 247.361 195.489 249.322 192.771 247.933 189.258 249.935 187.304 245.771 181.525 245.007 176.535 241.199 171.586 240.361 168.909 233.917 173.354 231.675 173.579 227.722 178.665 227.443 178.134 225.208 181.217 224.22 179.045 218.042 181.09 218.145 179.897 215.144 182.346 213.143"></polyline>
                <polyline id="Fill-48" points="221.012 243.629 224.396 243.341 228.106 245.994 230.541 243.247 231.371 244.836 233.371 243.112 233.444 244.308 234.88 243.321 233.853 241.765 237.716 239.273 236.718 236.68 247.658 228.844 253.532 229.981 256.415 227.792 266.578 230.677 272.101 238.438 265.377 250.482 265.335 252.944 267.853 254.579 267.457 257.586 268.604 256.716 271.545 259.36 272.231 262.967 276.449 264.117 280.006 271.903 282.805 269.472 286.272 271.546 287.575 276.841 290.795 277.184 290.75 281.233 292.751 281.229 294.386 284.114 300.693 283.209 302.102 284.553 300.75 285.62 306.495 293.203 310.792 289.937 313.252 293.192 311.082 294.802 313.898 298.588 316.225 298.971 317.214 304.794 307.797 310.813 304.661 307.723 304.671 311.981 308.229 313.846 303.103 317.816 304.439 319.401 302.348 321.168 297.976 316.53 294.328 319.806 291.822 317.861 289.67 319.539 278.699 309.601 276.776 304.171 274.108 303.699 275.547 301.931 273.484 302.381 273.125 299.734 269.702 299.508 270.437 295.956 267.367 294.394 268.063 290.747 265.415 291.447 266.104 293.332 264.193 294.583 256.681 290.717 253.662 293.804 250.583 293.799 245.267 288.711 246.436 280.406 243.49 275.535 240.071 277.612 234.983 271.571 231.495 270.226 229.038 271.218 231.09 262.989 228.484 261.479 223.004 262.708 221.204 260.782 223.683 257.598 222.008 251.365 219.728 251.106 219.518 249.418 221.69 248.362 221.012 243.63"></polyline>
                <polyline id="Fill-49" points="322.526 171.262 322.502 180.271 331.654 194.536 341.548 200.135 366.585 202.943 369.175 202.384 385.731 174.991 372.297 206.247 370.702 218.224 371.197 223.922 376.596 234.016 378.202 240.859 381.938 243.936 386.994 241.558 391.785 246.263 381.583 258.291 385.616 260.37 383.722 269.474 384.827 271.314 380.76 274.43 376.804 269.461 374.636 271.118 372.227 267.737 369.995 269.335 368.26 267.085 366.114 268.764 364.829 267.063 366.048 265.323 361.494 260.894 348.355 252.681 351.163 265.739 346.428 273.546 348.161 277.823 341.278 279.125 335.417 289.326 336.893 290.836 338.837 288.943 342.634 292.941 347.906 287.498 349.529 289.722 351.669 288.075 356.191 294.044 339.307 305.664 341.694 308.82 335.228 313.833 328.258 310.701 325.699 312.813 323.303 309.618 324.516 307.414 320.687 302.628 317.214 304.794 316.429 303.767 316.225 298.971 313.898 298.588 311.082 294.802 313.252 293.192 310.792 289.937 306.495 293.203 300.75 285.62 302.103 284.553 300.693 283.208 294.386 284.114 292.751 281.229 290.75 281.233 290.795 277.184 287.575 276.841 286.879 272.219 282.891 269.468 280.006 271.903 278.089 266.05 272.231 262.967 271.546 259.36 268.663 256.716 267.49 257.563 267.85 254.576 265.335 252.944 269.107 241.492 272.976 237.105 278.871 234.304 280.903 230.046 279.404 228.589 285.76 224.477 283.062 219.012 284.637 211.94 288.302 210.45 290.773 203.484 294.223 206.478 304.58 202.267 306.233 190.352 308.848 185.505 322.526 171.262"></polyline>
                <polyline id="Fill-50" points="467.37 177.342 471.872 173.777 480.385 172.819 481.212 169.268 484.232 167.125 496.897 163.797 500.045 157.469 512.546 154.753 523.364 144.923 534.717 144.632 546.078 140.42 558.329 142.174 567.27 147.763 572.539 148.931 586.651 145.762 591.74 146.29 596.989 150.056 598.481 153.907 597.657 159.621 589.357 166.32 557.73 165.566 548.751 166.908 524.622 175.639 498.892 188.259 491.125 199.629 489.488 206.243 491.493 217.457 490.333 221.836 483.3 224.595 471.404 215.583 464.957 203.247 464.033 184.119 467.37 177.342"></polyline>
                <polyline id="Fill-51" points="385.732 174.991 397.668 183.981 400.054 189.773 405.626 195.687 408.456 205.135 404.863 212.262 415.914 220.874 430.365 220.503 436.279 223.797 451.513 225.831 456.404 228.904 468.221 243.919 474.895 244.251 476.563 237.669 482.863 230.435 483.299 224.595 490.398 221.832 495.012 224.057 498.28 238.108 512.76 253.248 518.282 263.925 508.986 267.472 508.276 269.431 512.518 273.188 511.934 277.942 509.715 279.284 503.998 277.326 502.531 279.862 496.953 279.994 496.575 282.471 493.542 284.387 489.618 282.759 485.053 286.708 473.981 287.894 463.539 282.146 434.836 261.171 420.428 247.64 416.38 248.41 415.081 247.035 413.413 249.373 391.785 246.263 386.994 241.558 381.411 243.86 378.202 240.859 376.596 234.016 373.703 230.446 370.702 218.224 372.296 206.247 385.731 174.991"></polyline>
                <polyline id="Fill-52" points="418.479 202.984 425.625 197.761 433.476 198.303 436.792 202.133 438.104 209.433 437.045 213.789 431.922 216.911 422.638 217.695 416.09 209.64 418.479 202.984"></polyline>
                <polyline id="Fill-53" points="348.355 252.681 361.495 260.894 366.048 265.323 364.829 267.063 366.114 268.764 368.261 267.085 369.995 269.335 372.227 267.737 374.636 271.118 376.806 269.461 380.76 274.43 384.827 271.314 383.723 269.474 385.616 260.37 381.583 258.291 391.785 246.263 413.414 249.373 415.058 247.058 416.355 248.422 420.428 247.64 431.176 258.399 472.52 287.386 485.053 286.708 487.435 283.34 491.287 282.482 493.494 284.376 496.577 282.459 496.976 279.971 502.573 279.854 505 277.085 509.801 279.266 505.178 286.536 509.579 289.272 508.208 293.166 505.2 292.423 505.476 296.125 497.31 298.137 495.022 301.754 480.406 302.561 471.26 309.586 463.522 308.653 455.063 314.217 449.188 315.695 447.36 311.305 440.903 312.976 440.401 315.53 436.927 316.853 435.37 324.541 431.826 326.021 420.866 337.547 421.358 340.611 417.997 345.483 419.148 346.599 408.563 358.439 403.346 358.568 388.318 347.583 386.631 348.676 385.579 347.396 382.254 350.5 379.626 347.389 377.477 349.142 374.886 346.06 369.754 348.628 363.503 341.13 361.437 342.922 360.581 341.909 358.863 339.763 360.914 337.969 357.872 334.282 355.752 336.052 353.657 333.489 351.54 335.139 348.992 331.86 344.77 335.326 347.133 340.504 344.518 343.206 342.756 340.576 335.188 342.707 334.738 339.251 330.25 339.779 323.561 336.037 315.783 342.636 313.815 340.782 316.213 338.724 313.697 334.365 316.229 332.357 312.906 328.302 317.636 322.396 322.334 321.309 321.843 318.063 328.258 310.701 335.228 313.833 341.694 308.82 339.307 305.664 356.191 294.044 351.669 288.075 349.529 289.722 347.906 287.498 342.634 292.941 338.837 288.943 336.893 290.836 335.417 289.326 341.278 279.125 348.161 277.823 346.428 273.546 351.163 265.739 348.355 252.681"></polyline>
                <polyline id="Fill-57" points="209.679 340.841 216.856 339.596 219.657 336.495 227.406 337.271 228.665 335.476 231.312 336.937 232.417 331.128 235.117 332.463 239.323 328.149 242.333 331.032 245.366 325.308 253.675 322.786 253.651 327.525 258.461 329.641 263.459 330.05 267.571 326.582 269.834 326.92 272.373 331.006 271.708 333.086 274.573 332.787 278.403 336.043 286.264 346.747 279.515 350.47 274.55 345.642 267.857 352.844 260.791 348.721 258.298 351.466 254.995 350.282 253.905 353.178 255.614 354.351 252.777 355.894 252.272 360.926 245.872 363.691 246.293 370.057 238.024 372.596 236.056 370.648 238.403 368.271 235.87 367.723 232.612 370.164 227.846 369.172 225.587 373.074 221.345 369.274 222.673 368.143 220.144 364.908 221.078 360.532 218.96 354.415 214.478 354.421 210.199 349.392 213.38 347.198 210.041 344.417 211.18 342.547 209.679 340.841"></polyline>
                <polyline id="Fill-58" points="194.12 359.354 197.407 360.147 196.91 362.715 199.734 363.458 198.604 364.405 199.949 363.609 202.846 366.705 204.536 364.544 207.955 367.169 209.04 370.609 207.68 373.899 210.23 378.96 212.258 380.161 213.491 377.14 216.744 377.457 219.418 382.44 222.461 384.781 225.916 384.849 224.945 393.244 223.206 394.991 224.855 400.273 217.981 408.52 214.402 408.743 214.582 406.1 211.58 404.637 205.684 405.639 204.588 401.814 201.448 401.74 199.444 399.08 197.744 400.053 196.449 393.072 191.638 394.604 189.254 388.257 185.41 386.256 185.545 383.693 183.188 383.485 188.691 380.781 190.15 365.285 194.12 359.354"></polyline>
                <polyline id="Fill-59" points="201.363 353.848 206.198 355.89 209.247 353.927 208.912 350.367 210.668 348.634 209.803 350.101 211.268 349.389 214.532 354.503 218.973 354.429 221.078 360.532 220.144 364.908 222.673 368.143 221.351 369.295 225.09 373.024 227.801 369.194 232.612 370.164 235.731 367.763 238.403 368.271 236.079 370.937 239.238 372.625 238.999 374.211 240.767 373.853 237.619 381.212 235.157 382.695 236.125 385.658 234.251 386.542 227.495 383.324 222.461 384.781 219.01 382.03 219.363 379.881 214.804 376.828 212.653 379.991 210.23 378.96 210.466 377.212 208.029 375.48 209.04 370.609 206.482 365.372 204.536 364.544 202.726 366.693 199.949 363.609 198.604 364.405 199.784 363.466 197.45 362.916 198.646 362.015 196.91 362.715 196.333 360.487 199.924 359.143 199.825 356.646 203.55 359.035 203.246 355.911 200.738 355.78 201.363 353.848"></polyline>
                <polyline id="Fill-60" points="170.083 387.771 182.154 382.654 185.545 383.693 185.41 386.256 189.254 388.257 191.638 394.604 196.449 393.072 197.744 400.053 199.444 399.08 201.451 401.75 204.588 401.814 205.684 405.639 209.887 404.493 214.513 406.044 215.866 412.046 221.62 416.486 224.292 414.965 224.17 417.02 227.164 416.224 230.089 418.27 227.595 419.258 230.118 422.606 228.885 427.024 232.964 428.544 231.858 430.237 232.45 432.263 234.312 432.107 233.559 436.724 236.553 440.325 234.614 441.456 238.249 446.362 236.143 451.189 233.976 451.075 233.989 449.458 231.66 451.461 227.013 451.871 221.039 450.798 217.554 448.15 214.969 451.607 207.009 450.588 205.363 448.15 200.821 458.726 194.325 458.127 193.298 455.569 195.373 443.393 191.034 441.379 192.464 439.361 189.818 437.334 190.96 433.029 185.117 431.914 183.339 430.233 185.299 428.7 184.42 425.587 180.91 426.637 177.092 422.617 181.774 419.952 182.552 413.994 177.227 407.292 175.549 408.26 174.384 405.32 167.932 402.785 167.305 396.079 169.262 393.905 170.083 387.771"></polyline>
                <polyline id="Fill-61" points="224.14 384.216 227.495 383.324 235.106 386.396 235.156 382.696 238.497 378.962 239.742 383.33 243.934 386.372 242.353 389.095 244.368 389.909 247.644 388.23 247.261 390.132 250.919 390.484 251.965 394.828 255.135 397.681 257.158 395.422 261.377 396.908 259.629 403.135 263.068 407.46 261.656 411.463 258.175 414.652 254.819 414.439 254.641 416.309 248.031 408.823 245.144 410.624 241.966 406.24 237.497 409.303 234.872 406.968 232.736 407.65 232.989 410.982 230.522 413.088 232.34 414.317 232.106 418.735 227.163 416.224 224.17 417.02 224.527 415.016 221.473 416.372 215.858 412.044 216.575 410.154 214.872 409.143 218.811 407.797 224.855 400.273 223.205 394.991 226.14 386.432 224.14 384.216"></polyline>
                <polyline id="Fill-62" points="254.299 350.944 258.298 351.466 261.182 348.834 267.575 352.483 269.419 358.239 275.755 358.505 276.118 360.809 278.579 361.719 281.276 360.512 284.747 363.57 284.688 365.597 289.354 363.548 286.399 368.115 289.797 370.685 288.11 373.136 289.965 375.262 287.079 379.097 287.989 380.268 284.509 380.824 284.164 378.033 281.051 378.013 281.033 376.685 278.634 378.075 276.734 376.039 274.742 376.369 274.911 378.088 270.715 377.458 269.092 378.881 266.967 377.532 266.225 378.997 264.545 374.113 265.667 371.37 262.679 367.744 264.453 365.363 251.784 360.82 252.778 355.894 255.615 354.351 253.921 353.191 254.3 350.944"></polyline>
                <polyline id="Fill-63" points="246.075 363.407 252.813 360.836 256.452 363.279 263.51 364.347 264.452 365.363 262.679 367.744 265.666 371.37 265.548 379.153 261.901 378.194 260.014 380.588 254.349 379.906 253.067 381.657 256.24 381.978 255.498 385.543 253.313 384.841 252.195 387.164 250.707 385.652 249.415 388.068 249.875 386.089 248.892 387.435 247.199 383.979 243.387 386.013 239.743 383.33 238.43 378.493 240.87 373.329 239.016 374.226 239.157 372.396 246.769 369.645 246.075 363.407"></polyline>
                <polyline id="Fill-64" points="304.661 307.723 307.797 310.812 320.687 302.628 324.516 307.414 323.303 309.618 325.699 312.813 321.212 319.21 322.334 321.309 318.517 321.688 312.906 328.302 316.229 332.357 313.697 334.365 316.213 338.724 313.815 340.782 315.011 342.251 321.253 336.929 323.072 337.917 323.561 336.037 330.25 339.779 334.738 339.251 335.188 342.707 343.708 340.685 347.585 347.286 352.197 349.408 352.319 351.965 348.292 357.198 341.203 360.301 340.093 364.075 342.85 365.583 343.099 367.899 340.695 368.779 339.906 372.453 337.611 372.53 335.383 376.1 330.613 373.588 331.37 370.917 329.764 369.917 327.824 371.568 324.11 366.384 319.907 365.862 316.699 368.11 316.783 371.594 314.253 373.122 314.346 375.016 308.246 376.982 304.911 374.667 302.358 377.102 301.333 384.523 297.789 386.619 296.404 385.052 294.04 387.073 292.197 392.67 293.352 393.576 290.631 394.486 288.546 389.79 290.462 386.713 288.907 387.357 288.084 385.816 290.1 379.942 287.417 379.118 289.688 376.832 288.106 373.25 289.797 370.684 286.375 368.031 289.406 363.604 284.688 365.596 284.747 363.57 281.275 360.512 278.579 361.719 276.118 360.808 275.755 358.504 269.431 358.244 269.67 355.565 267.099 352.785 271.6 350.185 271.858 347.506 274.55 345.642 279.515 350.469 283.486 347.363 286.079 347.395 285.024 343.671 278.304 337.366 278.485 335.75 286.97 331.312 289.747 333.209 292.315 331.707 293.922 332.785 295.205 331.013 297.536 333.245 299.389 329.095 298.113 326.879 300.206 325.157 299.099 323.71 308.229 313.845 304.671 311.981 304.659 307.723"></polyline>
                <polyline id="Fill-65" points="243.515 385.779 247.161 383.962 248.768 387.423 249.875 386.089 249.415 388.068 250.707 385.65 252.199 387.171 253.298 384.88 255.498 385.543 256.24 381.978 253.067 381.657 254.348 379.906 260.033 380.591 260.589 378.571 265.383 379.229 266.967 377.532 269.091 378.881 270.714 377.458 274.91 378.088 274.742 376.369 276.734 376.039 278.632 378.075 281.033 376.685 281.05 378.013 284.164 378.033 284.509 380.824 287.674 380.609 287.295 378.968 290.019 379.789 288.083 385.816 290.611 387.438 288.723 388.893 288.964 392.063 293.59 395.395 290.345 394.773 289.84 397.33 292.623 398.142 291.891 399.72 294.367 399.381 294.971 401.832 297.806 399.705 300.549 404.39 301.769 402.168 302.235 403.678 303.404 402.8 301.813 399.64 307.001 399.569 308.14 397.891 309.448 399.326 305.268 401.436 304.476 404.332 305.812 406.919 307.093 403.785 309.606 405.948 303.008 409.004 307.295 411.141 309.217 417.625 298.763 420.516 294.59 418.337 295.665 425.028 290.101 428.39 285.169 435.989 283.194 436.288 283.638 433.498 281.696 433.045 282.56 430.074 284.331 431.014 284.816 429.009 282.667 429.132 281.145 423.311 276.799 423.118 276.244 420.734 277.818 419.211 276.004 415.048 274.168 414.971 275.154 413.742 270.715 412.982 267.902 415.411 266.923 413.141 264.316 412.782 265.11 409.525 259.599 403.125 261.378 396.908 257.158 395.422 255.136 397.681 251.966 394.828 250.92 390.484 247.262 390.132 247.644 388.23 244.368 389.909 242.353 389.095 244.6 386.299 243.515 385.779"></polyline>
                <polyline id="Fill-66" points="232.736 407.65 234.872 406.968 237.498 409.303 241.966 406.24 245.144 410.624 247.972 408.796 254.641 416.309 254.819 414.439 258.175 414.653 260.89 412.357 263.068 407.46 265.11 409.525 264.214 412.619 266.923 413.142 267.901 415.412 270.715 412.982 275.16 413.749 274.091 414.913 275.976 415.045 277.818 419.211 276.244 420.734 276.799 423.12 281.538 423.973 280.744 426.044 278.441 425.236 276.482 426.815 276.922 429.48 267.377 434.438 267.146 436.951 263.455 440.657 257.39 440.541 254.897 443.649 252.577 442.269 250.947 445.522 248.754 445.17 245.562 449.349 236.954 448.996 238.25 446.362 234.632 441.49 236.553 440.326 233.559 436.724 234.312 432.107 232.45 432.263 232.306 427.88 228.886 427.025 230.118 422.606 227.595 419.258 232.335 418.472 232.34 414.317 230.522 413.088 232.989 410.982 232.736 407.652"></polyline>
                <polyline id="Fill-67" points="236.954 448.995 245.562 449.349 248.754 445.17 250.947 445.522 252.577 442.269 254.897 443.649 257.39 440.54 263.455 440.655 268.202 433.749 276.922 429.48 276.303 427.254 278.156 425.349 281.314 425.929 283.14 429.643 284.816 429.009 284.322 431.016 282.546 430.096 281.696 433.045 283.638 433.498 283.194 436.288 285.236 436.093 283.046 441.147 283.29 449.541 287.923 456.998 285.517 463.995 287.892 465.477 286.087 467.32 285.196 465.803 286.609 469.447 284.336 472.55 286.7 474.781 291.493 472.076 292.437 474.976 294.498 475.352 291.521 479.759 287.7 480.394 290.741 481.074 289.622 481.393 291.291 484.764 288.089 487.456 288.826 489.465 286.635 491.659 288.309 492.521 289.25 489.66 290.818 495.051 296.504 495.043 297.838 493.499 300.842 498.781 305.189 500.593 311.25 493.422 313.639 495.349 314.422 492.349 315.516 496.7 318.441 494.218 319.749 496.877 323.451 497.565 325.76 500.736 324.522 502.892 320.361 503.978 319.739 508.058 323.288 511.833 320.9 513.492 325.443 517.012 324.43 518.992 328.817 523.402 329.183 526.821 327.865 526.39 322.727 532.229 311.751 528.445 309.693 523.225 304.627 526.438 301.337 525.119 302.478 522.804 296.469 515.286 298.215 511.889 296.928 507.8 294.456 508.536 291.539 504.903 289.229 507.866 286.506 506.985 285.897 501.5 281.208 498.955 280.331 500.642 279.592 497.621 266.757 500.104 263.608 491.885 264.887 490.518 261.784 485.766 258.555 492.393 255.707 492.119 255.723 490.312 259.259 487.849 257.688 485.525 258.125 480.071 255.767 476.457 257.135 474.108 256.03 470.557 248.558 465.907 250.431 460.082 245.067 458.05 240.766 459.68 241.475 457.926 238.191 456.503 240.459 455.387 240.219 453.747 236.954 448.995"></polyline>
                <polyline id="Fill-68" points="302.356 377.103 304.911 374.667 311.279 376.936 316.783 371.594 316.707 368.104 322.159 365.615 327.824 371.568 329.743 369.9 331.371 370.917 330.614 373.588 335.384 376.1 333 379.169 332.579 385.094 327.179 389.868 328.245 392.883 325.721 393.896 326.855 395.296 324.891 399.821 322.144 398.95 318.804 401.375 317.691 399.181 315.581 402.503 317.86 403.396 316.197 410.553 310.557 411.796 309.614 410.274 306.943 411.088 303.112 409.37 303.284 408.004 306.378 408.249 309.607 405.948 307.093 403.785 305.812 406.919 304.476 404.332 305.24 401.489 309.448 399.326 308.202 397.915 306.391 399.71 301.815 399.64 303.404 402.8 302.235 403.678 301.769 402.168 300.549 404.39 297.807 399.705 294.971 401.832 294.367 399.38 291.891 399.72 292.67 398.177 289.867 397.332 290.337 394.77 293.617 395.428 292.047 394.302 294.04 387.074 296.404 385.052 297.789 386.619 301.333 384.523 302.358 377.103"></polyline>
                <polyline id="Fill-69" points="344.77 335.326 348.992 331.86 351.54 335.139 353.657 333.489 355.752 336.052 357.872 334.282 360.914 337.969 358.863 339.763 360.581 341.909 361.437 342.922 363.503 341.13 369.754 348.628 374.886 346.06 377.477 349.142 379.626 347.389 382.254 350.5 385.579 347.396 386.631 348.676 388.318 347.583 403.346 358.568 408.535 359.325 403.95 363.959 402.371 369.898 398.724 374.473 388.795 382.737 387.928 381.641 383.08 383.101 379.761 386.152 382.911 395.031 378.566 400.106 380.175 402.56 378.364 406.256 367.35 408.255 366.273 414.277 362.233 415.029 362.613 412.934 358.724 411.636 353.406 420.086 345.231 417.99 344.638 422.067 341.052 426.738 337.59 428.146 334.409 427.084 334.545 421.04 329.81 419.952 330.208 416.616 322.916 414.581 320.609 407.746 317.547 409.624 317.848 403.309 315.579 402.504 317.689 399.181 318.802 401.376 322.143 398.95 324.889 399.821 326.855 395.296 325.719 393.896 328.244 392.883 327.179 389.869 332.577 385.094 332.999 379.17 336.374 373.574 339.906 372.455 340.694 368.779 343.099 367.899 342.849 365.583 340.093 364.075 340.917 360.712 351.606 353.76 352.197 349.408 351.009 350.009 344.924 344.457 347.132 340.504 344.77 335.326"></polyline>
                <polyline id="Fill-70" points="294.223 418.789 298.763 420.516 308.975 417.832 307.676 410.535 310.856 411.746 320.609 407.746 322.916 414.581 329.983 416.439 329.847 419.991 334.545 421.04 334.644 427.495 340.983 426.762 339.931 431.596 342.702 432.145 346.299 436.024 348.633 435.652 350.249 439.282 352.543 438.352 354.864 440.033 349.605 444.474 350.906 445.804 348.522 448.182 350.919 448.438 351.581 450.688 346.863 449.492 343.046 451.66 343.194 450.088 341.043 449.649 340.285 451.619 338.744 450.646 339.784 453.714 338.114 454.351 336.092 452.376 336.069 448.645 331.423 451.15 333.771 447.39 335.576 447.429 331.805 442.125 328.74 441.525 325.945 443.491 325.689 446.142 323.653 446.929 326.133 458.497 331.181 458.414 332.083 461.179 337.857 460.964 339.201 462.663 345.067 460.25 347.943 462.995 341.228 466.691 338.45 472.135 335.582 469.286 331.889 471.49 329.451 470.747 324.873 475.784 321.405 484.422 319.925 483.702 315.072 489.278 313.641 495.351 311.25 493.423 305.19 500.595 300.882 498.828 297.839 493.5 296.505 495.043 290.819 495.051 289.252 489.661 288.309 492.521 286.636 491.66 288.826 489.467 288.09 487.456 291.291 484.765 289.622 481.393 290.742 481.074 287.702 480.395 291.521 479.76 294.498 475.352 292.437 474.977 291.493 472.076 286.7 474.782 284.337 472.551 286.61 469.448 285.197 465.804 286.087 467.321 287.892 465.478 285.517 463.995 287.924 457 283.291 449.541 283.046 441.147 287.697 430.774 295.666 425.029 294.223 418.79"></polyline>
                <polyline id="Fill-72" points="366.437 471.041 368.048 472.841 369.642 471.973 369.213 467.941 371.652 467.818 372.154 465.878 376.285 467.404 375.645 465.518 378.001 462.657 377.334 454.796 378.924 452.323 385.094 450.494 385.543 452.337 390.928 453.428 391.546 455.749 393.766 454.525 398.248 460.182 401.765 456.374 407.078 457.335 406.287 466.571 405.019 467.028 409.55 470.232 410.196 476.122 412.042 475.589 413.854 478.787 416.757 478.561 421.224 482.42 420.243 486.6 421.438 488.015 426.985 490.009 426.167 492.28 429.028 498.659 427.041 500.416 423.025 498.456 421.76 502.38 398.664 497.507 399.273 495.983 396.242 496.579 394.317 494.582 393.736 495.976 390.874 495.027 389.19 498.297 384.262 494.354 377.757 492.641 376.646 494.07 375.753 492.111 371.179 491.166 370.063 487.733 373.709 485.369 374.25 482.495 368.914 480.918 368.895 478.755 364.161 477.021 366.437 471.041"></polyline>
                <polyline id="Fill-73" points="325.945 443.491 328.74 441.525 331.804 442.125 335.575 447.429 333.763 447.403 331.422 451.149 336.307 448.776 336.092 452.376 338.114 454.351 339.784 453.714 338.744 450.646 340.285 451.619 341.043 449.649 343.194 450.088 343.046 451.66 346.863 449.492 352.015 450.244 348.522 448.182 350.906 445.804 349.885 444.009 354.864 440.033 352.643 437.788 353.878 438.589 355.275 436.374 362.733 444.305 367.432 444.968 366.331 446.269 369.754 449.111 371.496 446.608 374.203 448.271 377.946 455.476 376.285 467.404 372.154 465.878 371.651 467.818 369.808 467.406 369.642 471.973 368.048 472.841 366.437 471.04 365.786 475.128 364.07 475.966 368.895 478.754 368.913 480.918 374.249 482.495 373.708 485.367 370.081 487.581 371.168 490.919 363.263 488.937 361.113 490.959 361.455 488.401 357.769 486.348 356.223 487.271 356.205 485.571 353.188 485.048 352.823 482.365 350.947 482.228 350.23 484.058 347.795 482.398 348.519 485.78 344.04 486.506 349.274 491.864 346.116 490.298 343.543 492.821 347.597 496.25 350.226 501.034 349.209 502.964 338.903 496.893 333.274 499.982 333.533 506.738 328.507 507.607 320.388 505.873 320.361 503.978 324.521 502.892 325.76 500.736 318.429 494.211 315.515 496.7 315.487 493.53 313.708 492.194 315.07 489.278 319.925 483.702 321.405 484.422 324.871 475.784 329.451 470.747 331.888 471.49 335.581 469.284 338.449 472.134 341.226 466.691 347.941 462.995 345.066 460.25 339.201 462.662 337.856 460.964 332.083 461.179 331.18 458.414 326.132 458.497 323.653 446.928 325.689 446.142 325.944 443.491"></polyline>
                <polyline id="Fill-74" points="344.787 418.303 353.407 420.086 358.726 411.636 362.614 412.934 362.234 415.029 366.273 414.277 367.351 408.255 378.364 406.256 380.175 402.56 378.566 400.106 382.911 395.031 379.761 386.152 383.08 383.101 387.929 381.641 388.796 382.737 398.724 374.473 409.684 356.219 411.982 354.86 413.759 356.161 415.1 358.051 413.641 360.55 421.729 366.813 427.777 380.7 423.311 397.549 425.79 400.754 421.934 412.378 430.104 419.987 429.289 432.692 431.322 434.653 428.26 445.156 423.026 444.665 420.485 446.452 420.442 444.499 413.988 444.804 414.678 446.777 410.904 450.304 411.892 452.045 409.651 456.236 411.33 458.071 409.297 460.129 407.079 457.335 402.082 456.308 398.248 460.182 393.767 454.525 391.548 455.749 390.928 453.428 385.544 452.337 385.128 450.501 378.924 452.323 377.335 454.796 374.203 448.271 371.497 446.608 369.755 449.111 366.331 446.27 367.434 444.968 362.642 444.232 355.853 436.56 350.249 439.282 348.633 435.652 346.299 436.024 339.853 431.52 340.719 425.541 344.638 422.067 344.788 418.303"></polyline>
                <polyline id="Fill-75" points="420.864 337.537 431.843 326.011 435.37 324.541 436.888 316.875 440.285 315.646 440.911 312.972 447.385 311.316 449.188 315.695 464.707 308.731 464.166 316.237 466.437 318.582 461.062 326.833 457.773 328.562 463.003 333.717 461.729 336.354 482.601 341.743 487.186 345.598 483.901 349.997 488.976 356.386 495.775 354.396 498.549 356.954 500.246 355.726 499.774 353.376 502.956 354.061 506.034 358.526 509.18 359.593 511.465 363.567 508.678 365.742 509.052 371.979 512.794 373.989 510.748 382.589 518.916 384.311 522.798 383.11 524.517 388.343 530.108 390.841 531.289 393.892 541.309 396.074 544.612 400.374 547.605 399.849 555.45 413.158 561.268 412.438 569.977 414.973 571.548 412.002 579.04 408.219 581.963 408.456 582.589 413.95 585.427 417.541 589.223 416.559 593.713 418.871 596.959 425.002 601.345 424.01 604.914 431.021 605.337 438.795 614.161 444.569 614.703 447.121 611.666 448.166 611.832 449.71 598.189 454.394 595.439 454.237 592.28 449.851 589.562 449.353 579.014 456.034 577.141 453.275 570.629 451.473 570.734 449.407 568.054 447.79 556.239 447.428 555.54 443.651 545.009 441.937 538.6 437.608 536.365 443.105 532.941 444.693 527.478 457.953 519.958 458.528 516.619 460.878 515.676 465.125 508.906 468.407 492.187 457.862 493.479 453.606 489.853 451.697 488.795 443.897 483.766 436.766 483.962 434.56 477.092 432.831 475.768 430.084 469.087 426.215 466.871 426.839 467.757 429.904 460.424 429.985 456.864 433.83 440.552 433.286 438.493 437.554 434.213 436.861 429.288 432.692 430.099 419.952 421.934 412.378 425.789 400.754 423.311 397.549 425.767 386.055 427.582 384.09 427.4 378.613 421.577 366.604 413.662 360.581 415.094 358.03 412.284 354.871 413.729 351.339 419.154 346.581 417.997 345.459 421.324 340.695 420.864 337.537"></polyline>
                <polyline id="Fill-76" points="464.707 308.731 471.135 309.623 479.483 302.922 495.036 301.746 497.338 298.117 505.577 296.044 505.22 292.412 508.222 293.158 509.583 289.266 505.286 287.082 505.469 285.125 507.086 281.486 512.268 277.271 512.378 272.708 508.253 269.326 509.167 267.227 515.586 263.811 523.49 265.033 530.415 254.602 529.743 247.688 532.637 241.87 539.618 235.599 550.003 232.927 560.344 219.472 569.136 213.96 571.688 209.646 579.199 209.479 583.947 214.351 591.15 214.227 608.023 220.253 611.488 223.979 611.775 227.793 608.497 233.676 601.274 234.359 600.808 240.283 612.069 236.341 613.234 245.002 611.207 249.608 619.705 258.105 617.529 258.341 615.973 262.084 612.2 261.229 610.12 264.287 616.806 272.641 616.219 280.074 614.449 282.254 615.615 283.669 611.691 282.393 606.039 286.624 604.902 285.673 604.546 287.531 600.751 289.404 600.768 292.841 603.184 294.239 603.809 300.251 609.519 302.436 610.254 304.771 614.487 304.671 616.15 301.707 617.232 303.877 615.738 306.31 619.53 308.151 618.114 309.706 620.06 317.033 618.114 318.08 617.378 322.591 613.541 328.795 609.119 328.402 611.904 335.961 608.713 340.506 614.572 352.536 611.955 355.639 614.109 361.099 611.596 362.966 612.087 367.354 615.768 368.723 618.297 375.267 614.363 383.902 619.27 384.672 620.137 388.315 623.736 387.459 625.467 389.068 623.868 402.074 619.858 403.456 617.255 407.981 614.859 408.67 617.151 413.069 619.384 413.727 616.273 421.271 604.905 431.647 601.345 424.009 596.959 425.002 593.713 418.871 589.223 416.559 585.427 417.541 582.589 413.95 581.963 408.456 579.04 408.219 571.548 412.002 569.977 414.973 561.268 412.437 555.452 413.158 547.605 399.849 544.612 400.374 541.309 396.074 531.289 393.892 530.108 390.841 524.531 388.374 522.798 383.11 518.916 384.311 510.748 382.589 512.794 373.989 509.052 371.979 508.678 365.742 511.465 363.567 509.175 359.571 506.034 358.526 502.957 354.061 499.778 353.358 500.257 355.705 498.495 356.976 495.775 354.396 488.992 356.393 483.901 349.997 487.182 345.582 482.589 341.734 461.729 336.354 462.999 333.711 457.779 328.555 461.062 326.833 466.438 318.582 464.187 316.279 464.707 308.731"></polyline>
                <polyline id="Fill-77" points="410.904 450.304 414.681 446.771 413.987 444.804 420.441 444.499 420.484 446.452 423.035 444.65 428.26 445.156 431.32 434.653 438.493 437.554 440.552 433.286 455.31 434.261 460.424 429.985 467.757 429.904 466.871 426.839 469.087 426.215 475.785 430.092 477.098 432.833 483.962 434.56 483.766 436.765 488.795 443.897 489.853 451.697 493.479 453.606 492.217 457.912 509.215 469.377 497.677 474.175 488.313 470.115 484.496 471.603 479.042 468.997 478.259 466.732 471.159 464.854 474.242 459.873 471.404 455.769 462.669 464.054 462.685 471.581 458.609 473.376 460.414 476.691 462.48 474.415 464.489 475.063 466.083 487.599 462.403 488.594 459.65 486.401 459.092 489.234 455.268 489.482 456.306 492.263 453.993 492.244 453.12 497.507 448.735 497.711 451.853 499.424 449.017 498.995 449.402 503.19 441.386 508.111 437.887 502.536 438.786 500.414 436.456 502.153 431.748 497.913 431.047 500.647 427.515 496.327 426.985 490.009 424.281 490.053 420.242 486.6 421.223 482.42 416.755 478.561 413.854 478.787 412.042 475.589 410.196 476.122 409.548 470.232 405.019 467.028 407.301 458.873 409.295 460.129 411.33 458.071 409.517 457.423 411.89 452.045 410.902 450.304"></polyline>
                <polyline id="Fill-79" points="693.98 107.241 695.567 104.282 698.613 103.115 709.595 105.823 717.449 103.589 722.104 104.813 730.835 115.642 727.938 122.881 728.969 125.126 734.237 126.859 739.123 136.163 746.91 137.679 754.15 143.71 759.905 152.451 769.565 158.705 769.672 164.391 765.2 166.702 753.614 163.082 746.915 166.342 741.332 165.795 734.512 169.812 728.592 169.354 726.573 165.681 727.258 162.58 721.02 154.055 710.296 149.091 701.362 148.137 698.502 145.627 697.356 140.445 692.893 136.876 692.676 134.078 695.347 131.098 695.156 125.418 701.608 115.557 695.181 110.565 693.98 107.241"></polyline>
                <polyline id="Fill-80" points="653.818 102.969 656.587 100.138 661.044 99.611 666.966 104.578 664.782 107.383 660.383 108.082 654.993 106.194 653.818 102.969"></polyline>
                <polyline id="Fill-81" points="637.724 119.806 640.475 117.197 644.401 117.82 650.303 123.136 650.55 126.867 647.185 128.821 641.517 127.427 638.315 123.956 637.724 119.806"></polyline>
                <polyline id="Fill-82" points="638.803 202.007 641.098 199.854 644.819 200.459 647.949 204.191 647.318 208.075 644.56 209.565 641.616 208.723 638.803 202.007"></polyline>
                <polyline id="Fill-83" points="702.104 160.506 704.189 157.445 707.635 156.783 710.545 158.627 710.961 162.403 708.822 164.825 705.593 165.097 702.104 160.506"></polyline>
                <polyline id="Fill-84" points="623.503 208.94 625.669 206.266 629.18 205.996 632.45 209.018 632.839 212.289 630.602 215.014 627.268 215.195 623.884 212.384 623.503 208.94"></polyline>
                <path d="M772.357,358.857 L775.434,358.171 L776.094,355.86 L781.097,352.413 L779.014,325.414 L773.302,315.561 L774.973,312.958 L777.544,313.709 L784.248,310.414 L785.793,306.904 L792.672,307.414 L793.582,302.788 L791.616,299.866 L793.355,296.654 L797.375,295.459 L795.646,291.591 L809.235,280.994 L809.537,278.238 L804.786,276.378 L802.602,263.746 L799.58,260.657 L796.186,260.049 L797.543,257.652 L793.211,253.906 L793.175,246.653 L790.635,247.233 L791.675,245 L788.55,242.936 L794.263,238.416 L791.43,236.363 L796.361,230.886 L795.797,229.069 L788.091,226.515 L796.817,219.207 L799.721,213.799 L803.022,212.032 L803.324,216.503 L807.088,221.962 L807.578,231.597 L809.685,232.1 L816.662,228.648 L833.98,227.243 L848.251,233.929 L853.866,230.046 L854.518,226.922 L850.783,217.078 L852.674,213.415 L862.66,210.916 L874.194,213.995 L882.828,211.953 L896.426,217.5 L901.991,228.449 L903.545,236.482 L909.436,239.751 L910.568,245.606 L913.685,245.949 L915.638,243.648 L913.806,230.73 L915.612,226.192 L921.49,224.207 L924.737,226.463 L925.836,230.565 L928.383,230.748 L933.982,222.411 L943.382,218.109 L943.779,201.383 L946.69,196.913 L945.489,191.877 L947.365,188.688 L955.144,186.95 L995.58,168.404 L1002.27,168.87 L1007.68,172.463 L1017.14,171.478 L1025.33,173.534 L1035.64,156.976 L1044.68,148.986 L1053.78,145.011 L1055.47,139.564 L1061.1,133.058 L1070.49,131.172 L1073.45,132.969 L1072.77,137.93 L1064.41,143.79 L1064.61,145.895 L1071.1,152.052 L1072.92,152.776 L1077.48,148.897 L1081.02,143.209 L1086.67,149.344 L1091.73,149.41 L1092.04,152.316 L1096.64,153.094 L1096.38,155.126 L1099.73,156.444 L1102.35,160.302 L1102.5,161.765 L1097.03,165.542 L1087.36,185.256 L1088.57,188.853 L1091.96,189.075 L1090,191.247 L1091.68,194.791 L1095.22,197.026 L1102.65,195.432 L1107.48,197.405 L1108.96,204.473 L1114.07,207.739 L1110.24,211.815 L1110.22,217.136 L1103.72,216.44 L1104.49,219.62 L1099.4,221.633 L1095.63,226.737 L1092.3,227.309 L1092.93,230.96 L1094.64,230.59 L1096.12,233.816 L1093.65,234.569 L1092.16,237.565 L1097.7,243.669 L1094.95,249.389 L1097.5,254.292 L1101.97,255.385 L1101.37,260.032 L1103.48,261.555 L1102.2,263.642 L1099.6,262.727 L1098.25,267.754 L1093.77,271.534 L1095.2,274.38 L1091.19,275.207 L1089.26,272.428 L1087.09,272.374 L1085.61,277.742 L1081.57,280.551 L1077.89,280.696 L1077.53,283.708 L1081.27,284.992 L1082.68,290.369 L1079.72,291.06 L1077.69,288.894 L1077.33,292.813 L1069.75,294.888 L1071.37,299.545 L1068.81,303.806 L1071.03,305.521 L1073,313.641 L1081.99,322.477 L1080.37,325.063 L1082.91,327.586 L1082.19,340.26 L1079.99,341.305 L1077.17,338.026 L1076.86,341.313 L1075.21,338.979 L1071.37,339.572 L1071.92,343.647 L1069.32,344.152 L1068.54,346.891 L1064.64,345.247 L1062.97,347.727 L1052.78,344.304 L1050.57,345.005 L1050.73,347.425 L1049.07,348.381 L1051.76,354.608 L1050.32,356.811 L1052.04,366.308 L1047.41,372.065 L1048.37,374.149 L1046.64,377.355 L1047.99,381.707 L1051.04,383.024 L1053.75,391.689 L1059.16,400.13 L1057.67,400.711 L1056.15,398.18 L1053.65,401.269 L1054.51,404.766 L1050.75,411.428 L1040.76,413.65 L1040.23,421.964 L1035.64,422.3 L1034.43,424.559 L1029.76,424.571 L1026.83,426.756 L1025.23,425.935 L1021.23,431.844 L1022.81,443.13 L1020.37,444.275 L1022.9,448.17 L1021.88,450.572 L1023.76,451.193 L1017.11,452.137 L1026.28,457.704 L1024.21,460.855 L1025.29,465.685 L1021.47,468.458 L1025.83,469.325 L1031.46,473.375 L1030.77,475.396 L1032.8,478.585 L1030.05,478.046 L1030.33,480.13 L1028.02,479.906 L1027.79,482.193 L1029.37,491.133 L1031.76,494.023 L1018.16,499.185 L1014.65,502.177 L1015.58,505.621 L1010.77,506.76 L1007.68,505.16 L1002.33,506.758 L1000.84,510.323 L997.39,509.063 L991.65,514.345 L988.13,515.212 L987.3,513.216 L984.44,512.598 L982.12,514.681 L978.272,512.948 L971.457,515.909 L963.014,509.461 L955.99,510.924 L952.24,509.282 L949.974,512.124 L944.752,508.974 L939.685,510.76 L936.341,507.176 L928.219,508.621 L922.391,512.988 L919.457,511.364 L919.702,508.672 L915.757,505.04 L915.9,501.976 L913.654,504.344 L911.008,500.609 L910.386,493.21 L908.026,487.289 L904.236,486.244 L900.539,472.563 L895.048,469.938 L893.416,470.557 L893.042,474.16 L891.289,472.504 L889.932,474.474 L886.98,474.569 L885.381,473.22 L885.197,468.409 L883.136,468.05 L885.608,465.559 L882.436,465.921 L877.665,461.001 L869.695,459.837 L865.403,461.842 L864.744,466.604 L861.178,469.279 L861.769,471.728 L858.96,476.728 L854.564,480.364 L854.581,486.292 L848.916,491.226 L847.428,490.489 L847.32,494.434 L845.859,489.98 L847.182,486.82 L843.909,487.67 L843.142,483.617 L840.981,488.545 L838.516,489.957 L830.07,490.298 L826.691,496.006 L820.94,495.601 L816.436,488.913 L818.554,485.038 L818.766,474.724 L821.449,467.96 L820.54,466.526 L822.476,465.925 L823.443,457.523 L816.369,455.501 L816.762,451.551 L813.4,445.524 L815.884,437.951 L814.878,435.901 L811.098,436.646 L809.178,434.202 L812.016,429.003 L808.518,419.938 L805.448,416.756 L797.932,417.14 L798.777,412.763 L802.616,411.868 L800.061,405.308 L798.722,404.285 L795.488,407.159 L792.659,405.178 L790.289,406.152 L784.047,401.915 L781.196,404.441 L779.778,402.331 L777.783,403.344 L778.391,396.007 L780.67,396.334 L778.461,393.553 L785.334,384.566 L780.964,382.115 L781.164,376.179 L777.859,373.006 L779.047,367.949 L777.686,362.293 L772.356,358.857 M898.519,168.99 L895.67,158.878 L898.019,156.582 L902.299,155.946 L905.534,146.093 L912.356,138.932 L940.097,135.267 L944.437,131.679 L967.098,123.383 L971.403,124.706 L973.763,131.683 L969.795,139.568 L962.55,144.205 L949.608,145.052 L941.044,160.118 L934.178,162.528 L926.762,173.24 L918.904,174.421 L908.888,170.125 L901.396,171.609 L898.519,168.99 M936.369,188.622 L936.199,185.162 L938.645,181.71 L932.593,178.516 L930.181,174.098 L931.315,170.325 L934.841,167.444 L955.613,169.894 L962.469,176.004 L962.469,179.033 L959.275,182.548 L946.643,186.803 L941.4,190.845 L936.368,188.622 M908.699,187.774 L909.232,183.698 L913.623,182.166 L920.575,184.793 L922.668,188.593 L921.339,191.95 L918.114,193.186 L910.666,190.291 L908.699,187.774" id="Fill-90"></path>
                <polyline id="Fill-91" points="812.564 222.438 813.102 218.897 815.351 216.967 818.718 217.053 821.168 219.71 820.734 223.068 817.799 225.301 814.477 224.938 812.564 222.438"></polyline>
                <polyline id="Fill-92" points="462.649 464.081 471.445 455.773 474.246 459.9 471.096 464.833 478.211 466.699 479.042 468.997 484.516 471.607 488.313 470.115 497.677 474.175 508.165 469.792 509.746 472.687 506.252 473.57 507.032 476.445 505.004 477.319 508.238 481.955 506.221 487.065 507.593 487.567 508.766 495.333 507.343 504.972 501.477 508.144 504.197 508.592 503.014 511.048 504.323 514.066 498.718 512.91 492.723 515.797 493.086 517.887 490.709 516.712 491.323 519.417 489.984 519.71 491.312 521.068 488.24 522.987 488.896 530.365 487.658 531.582 489.409 532.182 490.802 538.459 488.881 538.928 486.303 545.977 482.954 545.771 482.967 547.599 478.005 549.181 475.741 547.732 473.299 549.697 471.667 548.765 469.523 552.288 465.968 547.3 460.058 549.035 458.979 546.159 461.368 542.847 465.282 543.012 467.224 540.095 461.977 540.126 456.621 534.236 455.238 535.468 456.304 537.599 453.397 537.183 454.206 533.84 455.772 533.813 452.525 528.055 452.363 532.745 451.056 529.901 449.27 528.932 447.425 531.127 444.431 528.191 442.636 529.172 442.175 527.104 442.673 524.495 444.393 525.754 447.815 520.303 446.167 517.49 448.265 512.435 447.811 508.246 444.53 506.827 445.216 504.767 449.402 503.19 449.017 498.995 451.853 499.424 449.213 496.861 453.12 497.507 453.993 492.244 456.306 492.263 455.271 489.48 459.092 489.234 459.65 486.401 462.403 488.594 466.083 487.599 464.48 475.055 462.479 474.415 460.139 476.604 458.609 473.376 463 470.978 462.649 464.081"></polyline>
                <polyline id="Fill-93" points="612.069 236.341 616.385 229.342 626.246 226.114 630.778 226.323 640.587 219.101 645.657 219.852 648.042 218.286 650.127 212.694 660.31 209.575 662.391 203.682 667.16 203.463 670.009 205.582 670.39 200.925 672.325 199.029 677.559 198.246 682.643 201.852 688.504 199.201 690.142 194.405 700.58 193.695 702.144 186.52 714.98 176.609 718.983 176.353 728.742 182.268 731.217 177.676 738.127 176.526 744.673 169.297 750.992 166.315 769.618 171.492 772.044 174.911 770.987 180.417 773.272 181.912 783.283 179.506 793.557 181.746 800.024 186.235 804.41 196.116 804.258 209.766 796.406 219.638 788.092 226.515 795.797 229.069 796.361 230.886 791.43 236.363 794.282 238.379 788.564 243.002 791.644 244.954 790.609 247.219 793.175 246.653 793.223 253.962 797.543 257.666 796.191 260.025 799.589 260.673 802.602 263.746 804.786 276.378 809.498 278.198 809.225 281.02 795.646 291.591 797.403 295.431 793.28 296.723 791.638 299.807 793.615 303.103 792.607 307.479 785.793 306.904 784.291 310.392 777.545 313.709 774.973 312.958 773.121 316.071 779.024 325.436 781.097 352.413 776.094 355.86 775.435 358.171 772.382 358.912 777.686 362.295 779.028 367.925 777.853 372.9 781.165 376.179 780.966 382.116 785.336 384.567 778.465 393.57 780.671 396.335 778.396 396.014 777.322 401.789 780.856 404.466 784.087 401.931 790.652 406.279 792.614 405.17 795.488 407.16 797.471 405.711 798.977 408.972 791.658 412.722 785.577 410.655 786.818 413.669 784.859 419.676 787.216 422.032 786.425 423.553 784.762 422.945 784.954 427.064 782.699 427.937 786.225 434.59 789.021 435.673 788.89 437.981 786.411 439.959 786.728 446.144 782.824 450.178 783.758 452.782 774.131 459.5 776.486 462.442 773.084 464.481 771.906 468.753 774.137 476.393 781.804 479.085 782.365 485.865 778.468 485.499 775.914 489.072 778.083 492.806 780.485 493.097 782.096 498.76 777.153 503.567 777.591 506.925 774.493 508.335 771.951 505.336 769.059 506.374 769.785 503.87 764.246 501.439 762.452 497.856 763.472 497.134 760.606 496.463 758.859 498.776 755.961 499.022 756.889 506.917 743.652 518.574 743.991 520.935 741.009 522.664 742.547 529.409 740.596 531.068 737.129 528.386 733.977 519.143 730.317 518.982 727.952 524.178 723.663 525.396 714.006 523.219 707.723 537.167 710.852 538.343 708.805 540.84 711.851 541.474 712.534 548.986 709.373 548.866 709.424 552.226 707.209 554.904 705.02 553.388 703.423 557.954 701.349 558.967 702.55 567.434 699.622 568.627 699.917 574.721 697.762 581.217 692.936 580.162 688.402 584.758 698.513 597.915 695.941 599.181 693.867 597.181 692.336 600.067 688.435 598.534 684.854 601.135 682.949 599.179 680.928 600.869 677.618 600.444 674.927 608.54 670.724 609.604 664.778 620.114 655.425 625.925 651.694 626.329 646.613 626.099 636.099 621.63 633.564 622.223 630.707 617.442 635.538 610.013 639.641 609.813 642.474 605.61 642.747 601.282 645.877 600.907 648.179 598.105 644.137 589.514 646.126 584.746 643.778 576.885 640.637 573.851 641.355 570.463 637.065 568.883 637.36 566.12 633.85 563.972 626.439 565.433 623.143 562.969 623.181 559.315 619.39 556.816 628.523 550.386 626.166 542.23 623.014 540.539 621.876 535.757 624.4 534.5 623.325 532.751 625.27 527.85 623.377 526.942 625.784 525.852 627.815 521.354 629.592 521.975 630.653 519.305 632.76 519.625 633.575 514.622 622.567 509.031 622.097 501.768 627.413 495.787 631.795 494.189 630.757 489.119 624.172 488.706 621.993 480.96 619.054 480.095 618.848 476.508 615.218 474.562 598.21 472.059 597.382 470.602 600.702 464.24 598.192 454.378 611.832 449.71 611.666 448.166 614.88 446.733 614.161 444.569 605.337 438.795 604.905 431.648 617.528 419.149 617.119 416.465 619.351 413.598 617.179 413.105 614.855 408.658 617.31 407.91 619.857 403.477 623.868 402.074 625.349 392.405 624.873 388.233 620.137 388.315 619.269 384.672 614.368 383.92 618.297 375.267 615.768 368.722 612.087 367.353 611.604 362.95 614.109 361.098 611.983 355.425 614.538 352.495 608.713 340.527 611.904 335.961 609.063 328.501 613.505 328.823 617.378 322.591 618.114 318.08 620.06 317.033 618.114 309.706 619.525 308.134 615.738 306.309 617.232 303.877 616.19 301.736 614.486 304.671 610.225 304.776 609.554 302.443 603.844 300.276 603.184 294.239 600.767 292.841 600.767 289.382 604.585 287.508 604.903 285.673 606.065 286.61 611.654 282.401 615.697 283.492 614.44 282.222 616.221 280.073 616.808 272.641 610.122 264.287 612.297 261.148 615.974 262.084 617.528 258.369 619.711 258.043 611.209 249.608 613.235 245.002 612.071 236.341"></polyline>
                <polyline id="Fill-94" points="506.252 473.57 509.746 472.687 508.906 468.407 515.676 465.125 516.619 460.878 523.099 457.194 527.478 457.953 532.952 444.736 536.372 443.123 538.579 437.614 544.984 441.889 555.424 443.641 556.345 447.442 568.055 447.79 570.734 449.407 570.63 451.473 577.141 453.275 579.016 456.034 589.177 449.521 592.281 449.851 595.439 454.237 598.693 455.614 600.702 464.24 598.469 467.11 598.015 471.879 615.218 474.562 618.848 476.508 619.054 480.095 621.994 480.96 624.172 488.706 630.757 489.119 631.797 494.189 627.4 495.798 622.098 501.768 622.047 507.112 622.567 509.031 629.067 512.945 633.11 513.692 633.091 518.954 630.653 519.305 630.354 521.64 627.815 521.354 625.784 525.852 623.399 526.974 625.27 527.85 622.525 533.216 621.084 531.957 613.513 535.728 613.335 533.531 610.889 534.365 608.936 532.831 609.497 534.506 608.074 534.909 600.023 531.655 592.529 536.42 593.326 537.834 589.145 536.703 579.6 539.053 578.605 537.393 576.022 537.6 571.337 542.885 569.692 542.39 567.688 540.806 570.215 538.408 568.403 531.838 571.435 528.695 570.185 526.444 567.185 526.309 566.115 528.174 554.257 527.98 552.297 522.007 542.747 521.436 538.968 511.055 529.886 503.757 508.766 495.333 507.593 487.567 506.221 487.065 508.238 481.955 505.004 477.319 507.032 476.445 506.252 473.57"></polyline>
                <polyline id="Fill-95" points="490.373 517.146 493.086 517.888 492.722 515.797 498.718 512.91 504.323 514.066 503.013 511.048 504.187 508.576 501.477 508.144 507.343 504.972 508.766 495.333 529.886 503.757 538.968 511.055 542.747 521.437 552.297 522.007 554.256 527.98 566.115 528.174 567.242 526.298 570.185 526.444 571.435 528.695 568.403 531.838 570.215 538.408 567.74 540.625 568.525 541.765 571.337 542.885 576.022 537.6 581.812 538.708 580.522 544.026 582.194 547.775 580.101 549.653 582.692 551.693 580.671 557.185 582.478 560.863 580.218 561.964 581.347 567.492 574.395 571.062 564.315 569.6 562.529 572.226 560.543 569.479 554.422 573.247 551.715 577.76 547.939 574.722 548.706 573.612 544.94 572.439 544.298 570.609 546.32 567.691 543.138 567.937 544.404 566.172 540.103 563.32 539.461 558.279 533.835 561.715 529.073 561.343 523.243 565.299 512.445 563.936 512.088 566.137 509.155 565.945 508.501 563.05 505.58 562.769 505.906 565.528 502.694 566.189 493.572 548.607 496.992 548.964 500.306 544.651 497.05 545.719 493.299 544.028 492.281 545.489 486.303 545.977 488.879 538.928 490.801 538.459 489.408 532.182 487.657 531.582 488.896 530.365 488.24 522.987 491.312 521.069 490.372 517.146"></polyline>
                <polyline id="Fill-96" points="503.704 566.158 505.999 565.379 505.58 562.769 508.502 563.05 509.155 565.945 512.089 566.137 512.446 563.936 523.243 565.299 529.073 561.343 533.835 561.715 539.462 558.279 540.103 563.32 544.404 566.172 543.138 567.937 546.321 567.691 544.299 570.609 544.94 572.439 548.706 573.612 547.939 574.722 551.715 577.76 554.422 573.247 560.543 569.479 561.574 572.171 564.315 569.6 573.432 571.178 581.836 567.328 583.497 572.591 585.645 572.456 589.902 577.523 591.331 584.787 595.166 588.166 596.555 587.486 592.509 592.556 596.333 595.803 594.204 598.908 596.407 602.045 590.391 604.047 590.744 610.688 584.138 612.024 581.152 609.756 579.683 610.451 579.835 613.274 574.184 618.091 560.222 620.18 557.91 623.499 556.137 621.889 561.449 626.548 560.53 627.958 562.049 628.939 560.143 631.055 555.648 630.926 553.92 626.148 549.996 622.68 546.829 621.97 544.78 623.771 542.181 622.377 539.581 625.099 531.456 621.554 527.649 621.723 528.24 617.865 524.287 617.221 526.538 613.006 521.964 609.726 520.973 611.549 518.718 611.349 518.198 615.052 513.171 615.793 512.68 617.756 503.704 566.158"></polyline>
                <polyline id="Fill-97" points="556.137 621.889 557.91 623.499 560.246 620.175 574.112 618.128 579.835 613.274 579.687 610.414 581.153 609.756 584.138 612.024 590.745 610.688 589.738 605.703 592.544 602.245 595.228 602.523 600.618 607.723 603.56 606.158 606.729 609.203 608.821 608.763 607.511 614.306 603.946 615.049 601.342 618.871 603.483 620.544 600.641 623.452 605.56 629.07 608.831 627.768 610.042 624.855 612.201 628.081 611.801 634.396 619.234 644.889 616.639 647.291 615.174 645.454 612.323 649.542 614.657 650.188 615.691 658.662 611.227 660.573 609.776 659.314 609.248 661.375 606.617 662.024 605.892 660.25 604.941 662.153 597.974 660.318 594.42 665.052 587.647 665.864 586.169 664.783 586.874 662.846 583.667 661.808 582.245 656.204 580.087 655.359 582.636 651.892 580.665 651.229 574.972 656.265 568.666 652.246 564.839 651.912 562.959 645.756 563.968 643.332 556.281 637.521 557.061 633.333 555.648 630.926 560.143 631.055 562.047 628.922 556.137 621.891"></polyline>
                <polyline id="Fill-98" points="580.907 538.253 589.145 536.702 593.324 537.834 592.528 536.42 600.023 531.655 608.074 534.908 609.507 534.482 608.936 532.831 610.889 534.365 613.335 533.531 613.513 535.728 621.163 531.929 623.859 532.521 624.139 535.043 621.876 535.755 622.215 539.253 626.166 542.23 628.513 550.407 617.306 559.132 619.338 567.219 615.993 574.158 613.996 574.933 616.409 576.964 619.043 574.918 619.971 577.441 621.632 576.647 622.562 578.231 619.459 582.447 621.342 586.074 619.267 586.234 615.122 593.07 617.773 595.192 615.676 600.082 618.589 603.951 611.104 612.817 607.972 613.684 609.133 609.027 606.728 609.203 603.56 606.158 600.671 607.759 595.566 603.649 596.401 601.789 594.203 598.908 596.333 595.803 592.534 591.501 595.1 590.537 596.555 587.486 595.166 588.166 591.331 584.787 589.902 577.522 585.644 572.456 583.497 572.591 580.137 564.124 582.536 560.16 580.671 557.185 582.639 551.431 580.1 549.653 582.193 547.775 580.522 544.026 580.906 538.253"></polyline>
                <polyline id="Fill-99" points="601.154 619.373 603.945 615.049 611.332 612.667 618.589 603.951 615.665 600.079 617.787 595.243 616.771 593.019 615.086 593.296 619.184 586.323 621.342 586.074 619.459 582.447 622.563 578.231 621.634 576.647 619.972 577.441 619.108 574.944 616.463 576.975 613.985 574.755 615.987 574.18 619.112 568.249 617.242 559.554 620.105 556.767 623.181 559.315 623.143 562.969 625.07 564.671 628.217 564.327 628.831 565.984 634.757 564.097 637.36 566.12 637.065 568.883 641.356 570.463 640.637 573.851 643.779 576.885 646.115 584.678 644.077 588.528 644.969 593.306 648.179 598.105 645.877 600.907 642.748 601.282 642.497 605.566 639.688 609.769 635.538 610.013 630.664 616.257 626.571 616.784 624.642 619.899 625.473 623.636 623.213 623.359 619.736 626.759 617.463 625.175 615.283 626.013 615.637 624.106 614.173 624.068 608.852 625.215 608.908 627.694 605.559 629.07 600.864 624.8 603.483 620.544 601.154 619.373"></polyline>
                <polyline id="Fill-100" points="610.33 625.04 615.166 623.925 615.305 626.018 617.207 625.137 619.753 626.752 623.189 623.385 625.482 623.626 624.679 619.798 629.027 616.181 632.904 619.093 633.564 622.223 643.895 623.755 646.614 626.099 655.425 625.925 664.778 620.114 670.724 609.604 674.927 608.54 677.389 602.905 676.484 601.163 682.972 599.174 684.816 601.144 688.436 598.533 692.336 600.067 693.867 597.181 695.941 599.181 698.199 598.372 699.183 595.554 705.256 598.239 707.963 602.215 715.243 604.971 715.257 607.286 721.81 606.381 725.551 610.401 721.48 610.973 722.165 614.192 718.538 619.333 718.658 621.898 722.302 624.059 719.783 629.169 715.239 631.533 713.69 636.375 711.766 636.439 709.128 643.84 711.26 646.89 710.906 650.287 714.471 653.418 714.121 656.465 709.143 663.479 707.764 662.069 702.588 666.27 698.761 663.604 693.574 662.483 692.329 663.691 686.047 660.268 682.147 662.707 676.096 659.546 671.865 659.463 669.639 656.032 668.929 649.678 656.014 648.313 654.267 646.759 655.053 644.495 650.849 645.628 647.974 642.112 646.695 644.665 641.353 644.239 636.488 648.541 630.938 648.413 627.683 651.639 614.721 655.236 614.659 650.188 612.323 649.542 615.174 645.454 616.641 647.291 619.235 644.889 611.789 634.38 612.253 628.215 610.331 625.04"></polyline>
                <polyline id="Fill-101" points="688.393 584.788 692.936 580.162 697.772 581.204 699.829 575.321 699.623 568.627 702.559 567.417 701.365 558.947 703.425 557.932 705.02 553.388 707.209 554.903 709.425 552.226 709.373 548.866 712.534 548.986 711.968 541.728 708.808 540.797 710.856 538.32 707.722 537.167 714.011 523.21 723.643 525.397 727.951 524.177 730.317 518.982 733.976 519.143 737.128 528.386 740.515 531.057 742.113 530.255 741.014 522.617 742.923 522.509 743.651 518.574 756.477 507.471 755.349 499.762 760.606 496.463 763.671 497.247 762.715 498.95 766.458 503.211 769.408 503.411 769.037 506.353 771.917 505.354 774.502 508.334 777.604 506.906 777.165 503.552 782.101 498.735 780.47 493.073 778.024 492.762 775.913 489.072 778.373 485.525 782.379 485.856 781.828 479.014 774.125 476.384 771.903 468.735 773.096 464.481 776.502 462.493 774.131 459.5 783.756 452.782 782.838 450.102 786.669 446.262 786.41 439.959 788.904 437.915 789.021 435.673 786.252 434.609 782.711 427.999 784.94 427.098 784.761 422.945 786.424 423.552 787.215 422.032 784.838 419.565 786.822 413.63 785.544 410.662 791.691 412.72 794.178 410.18 798.486 409.866 797.898 406.295 796.227 405.923 798.698 404.289 802.616 411.869 798.777 412.763 797.932 417.142 805.473 416.759 808.519 419.938 811.996 428.988 809.16 434.185 811.154 436.649 814.878 435.902 815.898 438.028 813.398 445.473 816.762 451.553 816.363 455.479 823.442 457.563 822.476 465.925 820.527 466.546 821.449 467.961 818.766 474.725 818.554 485.039 816.436 488.915 820.912 495.583 826.713 495.994 830.009 490.313 838.516 489.957 841 488.518 843.142 483.617 843.842 487.624 847.182 486.82 845.859 489.981 847.343 494.422 847.428 490.49 848.819 491.288 854.582 486.293 854.564 480.365 858.961 476.729 861.746 468.286 864.746 466.605 865.397 461.865 869.503 459.854 877.68 461.013 882.42 465.906 885.611 465.56 883.134 468.102 885.229 468.45 885.367 473.206 886.998 474.555 889.932 474.474 891.291 472.504 893.029 474.165 893.393 470.55 895.08 469.941 900.472 472.509 904.238 486.261 908.261 487.748 909.315 492.041 905.674 494.159 900.82 491.441 895.491 492.28 894.125 494.51 895.885 496.809 894.406 497.479 895.498 501.401 892.702 504.011 894.04 506.932 895.899 506.713 898.616 512.911 899.401 510.952 901.379 511.092 900.463 520.181 898.677 518.272 894.316 523.509 889.753 522.216 887.518 523.461 883.773 521.908 888.02 518.023 884.763 516.444 882.451 519.336 876.989 520.701 875.727 528.695 869.825 529.758 867.659 533.39 863.522 531.139 857.617 532.337 854.945 527.775 852.646 530.142 849.306 528.949 846.652 530.25 843.555 526.781 840.882 532.794 835.28 533.425 830.19 531.435 827.856 536.792 824.466 536.711 817.598 540.68 816.952 545.033 821.921 550.155 824.781 550.584 820.673 553.151 819.429 560.61 821.934 565.192 822.191 574.103 820.765 576.48 826.348 577.872 825.872 579.558 817.991 600.19 799.957 617.629 794.538 627.16 783.775 631.927 784.143 637.973 779.799 638.297 775.666 641.268 775.269 635.873 769.069 634.953 768.634 629.625 763.438 626.476 761.151 622.569 754.2 622.771 754.545 621.081 748.516 615.6 739.691 610.08 736.105 602.614 731.949 603.684 731.616 605.73 726.628 607.387 725.09 609.832 721.795 606.385 715.351 607.329 715.233 604.978 708.044 602.227 700.792 595.582 696.885 596.367 688.393 584.788"></polyline>
                <polyline id="Fill-102" points="718.51 619.467 721.934 614.968 721.828 610.341 725.069 611.548 726.627 607.387 736.104 602.614 739.69 610.08 748.516 615.6 754.544 621.081 754.2 622.771 761.129 622.547 763.438 626.476 768.634 629.625 769.068 634.953 775.268 635.873 775.665 641.268 779.799 638.295 784.141 637.973 783.773 631.927 794.538 627.16 799.956 617.629 817.99 600.19 825.871 579.558 826.347 577.872 820.765 576.48 822.19 574.103 821.933 565.192 819.428 560.61 820.673 553.151 824.779 550.584 821.921 550.155 816.951 545.033 817.598 540.68 824.466 536.711 827.855 536.792 830.19 531.434 835.279 533.425 840.882 532.794 843.554 526.781 846.651 530.25 849.305 528.949 852.645 530.142 854.945 527.775 857.616 532.337 863.522 531.139 867.659 533.39 869.825 529.758 875.727 528.695 876.988 520.701 882.451 519.336 883.713 516.715 887.96 517.781 882.89 523.105 882.145 528.653 884.909 528.757 886.541 530.856 885.818 533.514 889.544 539.389 891.62 548.465 896.319 547.802 902.347 552.672 904.143 556.584 903.285 561.698 892.602 566.287 887.884 574.988 877.192 584.066 880.012 590.128 882.935 590.847 882.676 592.798 885.171 592.639 883.431 600.082 879.04 604.833 868.289 608.705 866.991 611.544 863.465 610.666 860.524 616.746 853.495 621.212 850.905 626.645 842.677 625.984 836.957 631.49 832.963 629.079 831.547 630.813 828.256 630.133 825.989 634.638 828.329 636.776 823.501 643.538 831.086 647.302 823.375 651.646 821.078 654.914 821.701 658.079 815.759 658.421 809.73 653.201 804.2 653.939 793.671 651.66 782.984 655.431 780.316 658.532 770.448 658.171 769.977 655.979 763.406 654.793 759.182 649.937 756.595 637.9 748.356 636.521 739.652 631.57 731.889 631.146 730.542 628.684 722.682 625.779 720.651 622.011 718.746 622.171 718.51 619.467"></polyline>
                <polyline id="Fill-103" points="821.153 655.668 823.879 651.145 831.086 647.302 823.501 643.538 828.329 636.776 825.991 634.638 828.256 630.133 831.547 630.813 832.963 629.079 836.957 631.49 842.677 625.984 850.905 626.645 853.495 621.212 860.525 616.746 863.465 610.666 867.207 611.434 868.289 608.705 879.04 604.833 883.431 600.082 885.172 592.639 882.676 592.798 882.935 590.847 880.012 590.128 877.192 584.066 887.884 574.988 892.602 566.287 903.285 561.698 904.143 556.584 902.347 552.672 896.319 547.802 891.62 548.465 889.544 539.389 885.818 533.514 886.542 530.856 884.909 528.757 882.145 528.653 882.723 523.729 884.021 521.862 894.243 523.523 898.714 518.272 899.971 520.14 901.361 519.421 900.176 514.206 901.371 511.08 899.425 510.944 898.571 512.871 895.88 506.71 894.019 506.919 892.704 503.999 895.496 501.411 894.376 497.779 895.876 496.79 894.129 494.502 896.866 491.776 900.88 491.452 905.68 494.155 909.347 492.075 911.012 500.627 913.666 504.346 915.9 501.977 915.757 505.042 919.702 508.672 919.451 511.392 922.616 513.053 921.44 515.948 923.9 516.564 925.459 519.638 928.383 519.058 932.038 521.512 928 525.225 930.241 529.85 939.61 523.762 943.682 532.143 947.178 528.968 949.956 530.439 952.429 539.069 950.617 544.049 952.964 542.437 954.48 546.428 957.265 547.809 953.12 549.803 955.167 553.575 954.084 555.393 958.725 558.938 962.546 565.07 950.868 571.342 944.833 582.744 946.15 585.878 949.952 583.675 953.179 584.54 953.039 588.128 955.768 590.919 955.653 595.237 950.902 601.307 950.385 612.3 946.91 626.232 950.087 626.606 949.075 632.414 943.032 635.763 937.203 645.062 927.425 644.305 916.774 640.491 909.178 644.584 900.76 640.804 894.768 640.879 883.826 651 880.374 657.518 864.379 663.221 858.374 667.371 853.401 666.849 851.465 668.882 839.43 667.009 831.717 668.519 824.457 663.157 824.232 658.422 822.173 658.638 821.155 655.668"></polyline>
                <polyline id="Fill-104" points="921.44 515.948 925.981 509.603 936.393 507.179 939.661 510.742 944.754 508.974 949.975 512.125 952.241 509.284 955.104 510.912 963.014 509.462 971.467 515.913 978.239 512.959 982.12 514.681 984.44 512.599 987.26 513.196 988.13 515.212 991.53 514.42 997.39 509.063 1000.85 510.324 1002.33 506.758 1007.68 505.16 1013.7 506.608 1016.19 504.797 1014.65 502.177 1019.53 498.229 1029.5 494.271 1033.99 494.311 1044.6 487.113 1052.11 489.806 1050.42 494.344 1048 495.508 1049.92 497.576 1047.04 499.485 1047.02 502.833 1041.94 510.357 1043.78 515.368 1040.48 517.624 1040.07 525.266 1051.07 523.35 1055.35 531.765 1058.53 529.524 1060.35 531.021 1061.52 528.376 1068.73 524.876 1072.79 516.51 1077.22 516.402 1081.48 510.512 1086.52 512.082 1085.49 513.128 1088.66 517.168 1087.8 521.602 1091.45 524.826 1091.34 529.317 1076.99 531.68 1078.63 535.526 1082.13 537.999 1076.75 541.747 1075.66 546.771 1074.26 547.069 1075.54 548.269 1074.64 550.282 1066.73 556.42 1070.28 561.514 1068.31 561.72 1066.63 565.378 1066.89 576.369 1070.62 575.302 1072.28 579.921 1072.56 578.371 1076.14 578.065 1078.97 580.369 1079.83 584.007 1081.73 584.439 1082.85 587.174 1081.57 588.55 1085.46 591.988 1085.66 595.317 1082.61 597.21 1083.82 601.739 1076.25 607.499 1064.26 601.944 1060.24 605.084 1055.84 604.53 1055.16 602.683 1049.39 606.281 1043.37 606.294 1039.07 601.862 1038.63 597.344 1035.01 596.917 1031.98 590.29 1025.99 586.826 1024.79 582.201 1023.87 583.865 1021.98 579.346 1015.35 574.054 1015.12 570.587 1012.06 570.351 1012.83 568.417 1005.98 564.796 1006.51 561.856 1004.83 562.561 1002.89 560.797 1001.47 561.993 999.58 558.593 994.26 558.224 991.97 561.064 976.84 558.052 962.374 565.007 958.722 558.938 954.102 555.461 955.13 553.61 953.041 549.98 957.263 547.809 954.477 546.428 952.962 542.438 950.615 544.049 952.425 539.069 949.95 530.415 947.127 528.986 943.68 532.143 939.609 523.762 930.253 529.858 928 525.152 932.035 521.512 928.431 519.076 925.496 519.655 923.897 516.564 921.438 515.948"></polyline>
                <polyline id="Fill-105" points="1039.97 525.162 1040.47 517.659 1043.77 515.415 1041.95 510.328 1047.03 502.833 1047.04 499.47 1049.93 497.565 1048.07 495.353 1050.43 494.313 1050.05 492.139 1052.32 490.063 1044.85 487.053 1033.13 494.465 1029.39 491.16 1027.99 479.956 1030.28 480.157 1030.02 478.058 1032.8 478.587 1030.77 475.396 1031.6 473.717 1025.88 469.343 1021.49 468.556 1025.29 465.685 1024.19 460.913 1026.31 457.824 1017.15 452.404 1023.76 451.193 1021.88 450.572 1022.9 448.165 1020.37 444.264 1022.81 443.13 1021.22 431.879 1025.23 425.935 1026.84 426.757 1029.79 424.569 1034.46 424.534 1035.65 422.297 1040.2 421.991 1040.81 413.582 1050.79 411.394 1054.52 404.734 1053.73 401.163 1056.15 398.181 1057.7 400.736 1059.16 400.13 1046.63 377.307 1048.39 374.17 1047.41 372.066 1052.04 366.309 1050.33 356.84 1051.74 354.567 1048.97 349.29 1050.57 345.005 1055.29 344.237 1062.94 347.729 1064.58 345.249 1068.54 346.891 1069.31 344.169 1071.75 344.104 1071.39 339.581 1075.22 338.979 1076.88 341.315 1077.35 337.976 1079.97 341.282 1081.38 340.762 1083.55 331.813 1088.15 330.945 1089.06 328.163 1095.25 327.92 1101.96 331.134 1107.11 337.43 1106.1 339.742 1108.68 343.795 1105.5 344.793 1105.05 352.172 1110.05 353.975 1112.89 350.036 1119.42 352.54 1121.97 351.058 1124.36 352.651 1128.69 362.492 1124.76 370.179 1116.41 371.12 1106.36 378.17 1098.76 387.472 1098.21 399.769 1095.3 408.275 1097.43 416.554 1091.06 444.501 1092.5 449.392 1083.03 481.59 1087.83 477.824 1092.94 467.833 1102.82 464.563 1106.16 466.396 1108.12 473.237 1111.6 475.041 1116.76 474.327 1118.91 469.477 1121.97 468.137 1137.5 474.631 1143.77 473.528 1149.38 477.313 1163.39 503.76 1163.45 512.206 1165.8 519.62 1174.05 528.146 1182.4 547.438 1185.5 557.408 1182.73 572.562 1184.11 580.278 1174.69 582.676 1174.44 580.197 1172.47 579.855 1174.02 574.938 1169.93 574.081 1169.51 570.564 1167.65 571.632 1165.32 568.909 1163.16 569.158 1161.19 575.615 1157.91 576.861 1156.29 580.711 1160.97 581.681 1160.07 584.655 1167.65 582.378 1169.59 585.04 1166 593.449 1160.92 594.798 1162.56 599.271 1160.8 605.009 1156.88 607.645 1154.24 607.216 1153.69 609.018 1149.94 607.656 1146.35 610.602 1145.97 608.182 1140.93 607.633 1136.04 615.198 1138.28 619.507 1134.26 622.83 1131.9 617.319 1132.5 614.129 1130.26 611.288 1133.12 606.542 1133.31 601.66 1128.26 597.984 1127.94 586.646 1123.65 589.055 1120.81 587.576 1118.65 591.035 1112.49 592.324 1108.32 592.106 1106.81 589.25 1102.97 587.53 1100.29 588.456 1099.11 587.107 1095.42 589.694 1092.39 587.416 1090.88 588.257 1091.63 592.381 1089.01 592.057 1086.57 595.734 1078.01 579.285 1073.6 577.882 1072.28 579.928 1070.37 575.224 1066.98 576.541 1066.63 565.378 1068.31 561.719 1070.28 561.542 1066.73 556.42 1074.58 550.357 1076.75 541.746 1082.16 537.953 1078.63 535.526 1076.98 531.708 1091.97 528.674 1091.16 524.256 1087.82 521.626 1088.67 517.235 1085.52 513.2 1086.53 512.082 1081.37 510.539 1077.26 516.382 1072.92 516.402 1070.31 520.151 1070.74 522.497 1061.52 528.375 1060.35 531.021 1058.54 529.501 1055.35 531.765 1051.07 523.348 1045.92 525.346 1039.97 525.162"></polyline>
                <polyline id="Fill-106" points="1123.68 705.577 1130.81 698.543 1129.51 689.647 1126.82 687.77 1124.45 679.326 1114.34 668.209 1119.48 663.528 1121 655.402 1135.93 654.315 1136.89 651.741 1134.43 645.25 1136.64 642.001 1134.79 638.637 1136.21 629.324 1133.49 624.083 1138.28 619.507 1136.01 615.298 1137.15 611.509 1140.93 607.633 1145.97 608.182 1146.35 610.602 1149.94 607.656 1153.69 609.018 1154.26 607.207 1156.91 607.639 1160.82 605 1162.56 599.271 1160.92 594.798 1166 593.449 1169.59 585.04 1167.65 582.378 1160.07 584.655 1160.99 581.701 1156.29 580.689 1157.91 576.861 1161.19 575.615 1163.1 569.235 1165.32 568.909 1167.65 571.633 1169.8 570.731 1169.89 574.049 1174.02 574.938 1172.47 579.855 1174.44 580.208 1174.59 582.618 1178.02 580.747 1184.11 580.278 1184.31 581.762 1182.58 588.98 1184.85 597.949 1184.58 613.837 1177.55 648.318 1176.59 666.118 1165.2 687.201 1157.07 694.315 1141.39 698.334 1134.25 711.496 1129.72 710.494 1126.38 705.4 1123.68 705.577"></polyline>
                <polyline id="Fill-107" points="1080.77 606.729 1080.29 604.433 1083.9 601.622 1082.62 597.21 1086.74 595.685 1089.06 592.045 1091.61 592.413 1090.79 588.703 1092.4 587.406 1095.41 589.725 1099.14 587.103 1100.27 588.437 1103.01 587.522 1106.71 589.172 1108.32 592.106 1112.49 592.325 1118.75 590.981 1120.81 587.576 1123.59 589.049 1127.47 586.421 1128.73 587.629 1128 591.17 1121.59 594.476 1116.95 602.073 1111.9 605.104 1110.79 609.053 1109.03 609.525 1109.7 613.989 1099.88 619.972 1098.47 619.075 1092.5 622.251 1086.38 617.757 1086.78 613.538 1084.4 610.712 1081.04 610.047 1080.77 606.729"></polyline>
                <path d="M1163.39,503.76 L1149.38,477.313 L1143.77,473.528 L1148.51,464.879 L1141.33,461.268 L1139.88,458.039 L1144.8,450.691 L1154.07,454.408 L1156.35,459.103 L1170.49,471.15 L1176.68,483.315 L1199.01,503.106 L1215.91,516.027 L1223.25,518.407 L1227.23,522.188 L1227.51,525.61 L1224.64,528.143 L1211.67,523.854 L1206.25,527.967 L1214.56,549.714 L1223.79,553.176 L1226.65,556.125 L1232.65,556.073 L1240.32,563.328 L1242.22,571.207 L1240.75,574.149 L1237.15,574.521 L1233.56,570.464 L1229.83,569.118 L1227.06,572.603 L1230.91,584.619 L1224.11,587.417 L1214.29,577.216 L1210.72,566.757 L1204.63,559.674 L1202.69,552.385 L1192.32,544.094 L1187.42,530.92 L1173.61,512.854 L1172.94,507.658 L1167.7,504.056 L1163.39,503.76 M1280.62,588.503 L1278.67,571.62 L1285.48,564.313 L1286.46,543.836 L1291.86,539.565 L1293.47,535.023 L1298.38,530.725 L1298.72,519.708 L1301.56,512.294 L1297.65,504.824 L1299.34,502.221 L1302.46,501.727 L1308.41,504.438 L1309.62,512.888 L1307.73,529.889 L1302.79,537.018 L1303.15,540.399 L1299.24,547.282 L1295.78,560.135 L1294.98,566.948 L1300.82,574.079 L1300.77,578.461 L1295.88,591.644 L1289.25,589.472 L1281.76,589.961 L1280.62,588.503 M1306.34,498.299 L1305.5,482.962 L1306.81,476.984 L1301.36,465.257 L1302.65,461.472 L1294.8,453.883 L1300.02,447.449 L1300.81,443.674 L1300.07,441.303 L1294.74,439.585 L1292.56,436.741 L1294.1,432.34 L1291.96,425.791 L1294.52,418.334 L1288.96,416.682 L1287.13,413.523 L1289.12,409.596 L1294.91,407.435 L1295.16,404.576 L1304.13,405.073 L1305.92,418.258 L1304.46,430.91 L1308.83,436.786 L1309.95,442.987 L1310.68,456.947 L1307.82,461.837 L1311.65,465.943 L1314.44,477.532 L1314.02,497.183 L1310.74,499.788 L1306.34,498.299" id="Fill-108"></path>
                <polyline id="Fill-109" points="1081.82 332.68 1082.91 327.587 1080.37 325.062 1081.99 322.467 1073.81 314.833 1071.05 305.549 1068.8 303.771 1071.38 299.502 1070.05 294.483 1077.31 292.825 1077.67 288.9 1079.72 291.06 1082.68 290.37 1081.27 284.992 1077.5 283.643 1077.87 280.718 1081.57 280.552 1085.61 277.742 1086.59 272.562 1089.26 272.428 1091.15 275.202 1095.18 274.402 1093.77 271.534 1098.26 267.754 1099.6 262.727 1102.2 263.642 1103.47 261.596 1101.36 260.045 1101.97 255.385 1097.52 254.318 1094.93 249.333 1097.7 243.669 1092.16 237.551 1093.65 234.569 1096.12 233.836 1094.64 230.59 1092.95 230.983 1092.32 227.284 1095.66 226.706 1099.42 221.624 1104.49 219.62 1103.72 216.44 1108.15 217.75 1110.89 216.534 1110.22 211.859 1114.06 207.798 1111.08 204.715 1115.68 202.146 1120.9 209.738 1129.74 205.918 1136.11 207.334 1140.88 202.854 1147.4 203.554 1154.1 199.936 1156.09 196.504 1157.96 198.664 1161.91 198.779 1163.18 202.919 1161.76 205.501 1166.01 207.504 1165.92 209.875 1171.58 211.678 1171.34 214.696 1174.86 216.509 1174.2 220.798 1176.07 222.442 1181.78 221.368 1186.86 225.786 1185.62 231.439 1189.86 230.794 1189.41 233.107 1194.14 235.068 1202.63 247.081 1204.14 261.467 1200.06 262.021 1198.3 265.636 1188.24 264.315 1181.2 257.935 1177.25 257.549 1174.52 259.47 1168.32 271.416 1171.19 277.025 1170.38 283.015 1173.09 287.963 1172.58 303.834 1176.5 306.822 1186.46 304.254 1189.68 308.318 1189.38 311.4 1181.25 323.348 1176.53 326.962 1175.68 332.11 1165.49 343.224 1158.91 345.084 1128.69 362.492 1124.36 352.651 1121.97 351.058 1119.42 352.54 1112.77 350.067 1110.05 353.975 1104.65 351.726 1105.48 344.818 1108.68 343.795 1106.1 339.742 1107.15 337.471 1101.94 331.085 1090.92 327.597 1088.26 328.449 1088.69 330.538 1086.34 331.994 1081.82 332.68"></polyline>
                <path d="M1234.24,361.213 L1225.23,351.081 L1218.1,339.258 L1217.41,332.313 L1214.07,327.762 L1215.16,323.315 L1211.06,322.306 L1209.26,318.902 L1211.85,308.49 L1214.99,304.579 L1214.99,295.759 L1208.49,272.843 L1208.21,262.457 L1207.71,260.928 L1204.13,261.467 L1202.63,247.081 L1194.13,235.055 L1189.41,233.107 L1189.86,230.794 L1185.62,231.439 L1186.86,225.786 L1181.78,221.368 L1176.07,222.442 L1174.2,220.798 L1172.02,214.696 L1171.58,211.678 L1165.92,209.875 L1166.01,207.504 L1161.76,205.501 L1163.18,202.919 L1161.9,198.779 L1154.1,196.266 L1154.13,192.497 L1156.99,190.931 L1157.22,188.042 L1164.14,186.675 L1162.97,183.112 L1166.53,181.113 L1170.22,182.197 L1170.7,179.349 L1174.87,176.617 L1175.33,172.75 L1181.78,172.935 L1185.67,167.678 L1191.91,168.563 L1194.79,165.645 L1200.13,166.732 L1203.38,180.189 L1216.73,173.386 L1223.23,175.82 L1226.37,171.943 L1226.07,167.637 L1228.53,166.982 L1228.51,161.178 L1233.57,156.742 L1233.89,149.128 L1237.29,146.695 L1239.33,149.098 L1246.07,148.188 L1251.82,151.269 L1252.14,158.82 L1256.76,175.455 L1257.03,188.174 L1262.48,196.809 L1260.43,201.156 L1247.59,202.129 L1242.41,207.983 L1240.89,218.105 L1244,228.665 L1240.93,233.326 L1241.48,243.786 L1247.95,248.179 L1247.02,259.773 L1256.68,270.877 L1259.7,279.625 L1269.13,281.009 L1278.4,287.47 L1279.18,295.074 L1272.81,298.882 L1276.14,305.633 L1280.83,309.272 L1287.92,310.362 L1290.77,313.298 L1291.69,321.914 L1284.94,329.083 L1285.2,335.94 L1287.22,340.636 L1299.34,349.365 L1298.99,352.225 L1295.48,354.396 L1292.55,360.519 L1301.86,377.113 L1303.62,384.523 L1304.13,405.073 L1292.27,402.988 L1280.77,393.185 L1268.9,386.633 L1234.24,361.213 M1300.3,282.711 L1299.22,276.23 L1303.98,271.945 L1315.35,273.802 L1320.07,277.806 L1319.47,280.825 L1316.41,282.452 L1303.79,283.944 L1300.3,282.711 M1315.94,273.162 L1314.62,269.458 L1317.59,266.609 L1327.48,264.871 L1331,267.338 L1328.77,271.963 L1319.6,274.248 L1315.94,273.162" id="Fill-110"></path>
            </g>
        </g>
    </g>
</svg>
