<svg class="svg-icon" viewBox="0 0 14 16" xmlns="http://www.w3.org/2000/svg"><path d="m11.5328936 7.83491044c.0233462 2.33781436 2.2486123 3.11372686 2.2756448 3.12716256-.0208888.0526233-.3575662 1.1084465-1.1759137 2.197859-.7065312.9405001-1.4376374 1.8776412-2.593891 1.8977947-1.13536493.019034-1.50030365-.6146839-2.7990923-.6146839-1.29878864 0-1.70427611.5945304-2.77820352.6337179-1.11447616.0369482-1.9647711-1.0166358-2.67744604-1.9548965-1.45729738-1.9201876-2.56931604-5.42243055-1.07392741-7.78711634.74216494-1.17338576 2.06798608-1.91682864 3.50808097-1.93698221 1.09481616-.01791429 2.12942357.67290538 2.79786352.67290538.67089745 0 1.9279086-.83077503 3.24635728-.70761431.5541662.02015357 2.1048485.20265537 3.1013647 1.52943219-.07864.04702501-1.8529548.98416611-1.8308373 2.94242153zm-2.08086117-5.51667323c-.59373626.61216608-1.57136437 1.09074954-2.52677365 1.0265878-.12837541-.83410259.35179799-1.70186379.90356537-2.24566082.61595508-.61426975 1.65159899-1.0697129 2.50949235-1.09916419.1098597.8509319-.2925478 1.70501929-.88628407 2.31823721z"/></svg>