<?xml version="1.0" encoding="UTF-8"?>
<svg class="svg-icon" viewBox="0 0 174 35" version="1.1" xmlns="http://www.w3.org/2000/svg" xmlns:xlink="http://www.w3.org/1999/xlink">
    <path d="M5.62538936,8.41189945 C8.38360202,6.89686401 10.9724507,6.80217429 13.7064686,7.89110602 C14.432314,8.17517516 15.4968873,8.1278303 16.2227327,7.7964163 C18.2309051,6.92053643 20.2390775,7.03889858 22.2714447,7.48867473 C23.9408892,7.84376116 24.9812677,9.45348632 25.0296574,11.6313498 C25.1022419,15.2532314 25.1022419,18.875113 25.1264368,22.520667 C25.1264368,24.2487543 25.1022419,26.0005141 25.1264368,27.7286014 C25.1264368,28.5097915 24.8602935,28.8885504 23.9892789,28.8175331 C23.1424593,28.7465158 22.2956396,28.7465158 21.4488199,28.8175331 C20.4084414,28.9122228 20.0213239,28.5571364 20.0213239,27.4918771 C20.0697136,23.8226506 20.0455187,20.1534241 20.0213239,16.4841977 C20.0213239,15.5373005 19.9729342,14.5904034 19.8519599,13.6671786 C19.682596,12.5072296 19.0293351,12.0337811 17.8679824,12.0574535 C16.6340452,12.1047983 15.9323946,12.6492642 15.8114203,13.7855408 C15.6904461,14.9218174 15.6178615,16.058094 15.6178615,17.218043 C15.5936667,20.6505451 15.5936667,24.0830473 15.6420564,27.5155495 C15.6662512,28.5571364 15.3033285,28.9358952 14.2387552,28.8412055 C13.4403252,28.7701882 12.6177004,28.7701882 11.8192704,28.8412055 C10.8514765,28.9358952 10.5611383,28.5334639 10.5611383,27.6102392 C10.609528,24.2250819 10.5853332,20.8399246 10.5611383,17.4310948 C10.5611383,16.2474734 10.4643589,15.0638519 10.3191899,13.9039029 C10.1498259,12.5309021 9.61753927,12.0574535 8.43199172,12.0574535 C7.19805447,12.0574535 6.32703995,12.7439539 6.18187086,13.9275754 C6.06089662,14.8271277 6.08509147,15.72668 6.08509147,16.6499047 C6.08509147,20.200769 6.08509147,23.7516333 6.10928632,27.3024976 C6.10928632,28.7228434 5.98831208,28.8412055 4.5366212,28.8412055 C3.76238607,28.8412055 2.98815094,28.7701882 2.23811065,28.8412055 C1.02836825,28.9595677 0.689640384,28.4151018 0.713835232,27.3261701 C0.810614623,23.7989782 0.907394015,20.2481139 0.931588863,16.720922 C0.931588863,14.3773515 0.786419776,12.0101086 0.73803008,9.66653818 C0.713835232,7.77274387 0.762224928,7.72539901 2.64942307,7.65438173 C3.01234578,7.6307093 3.3752685,7.65438173 3.73819122,7.55969201 C4.60920575,7.32296772 5.31085634,7.39398501 5.62538936,8.41189945 Z M83.8966345,18.1688047 C83.8033046,16.7934827 83.7799721,15.2782974 83.5699797,13.7864226 C83.3833198,12.5509638 82.6133478,12.0614424 81.4467234,12.1080635 C80.2567666,12.1546846 79.6267895,12.6908271 79.3934646,13.9029753 C78.8334849,16.7468616 78.8101524,19.6140584 79.3934646,22.4579447 C79.6501219,23.7866456 80.2101016,24.2994776 81.5167209,24.2994776 C82.8000077,24.2994776 83.4533173,23.8565773 83.6633097,22.4812552 C83.8033046,21.1059332 83.8033046,19.68399 83.8966345,18.1688047 Z M78.9734798,27.9592329 C78.9734798,29.6609025 78.9501473,31.1993984 78.9734798,32.7378942 C79.0201448,34.2763901 79.0201448,34.2997006 77.4568682,34.2763901 C77.0602159,34.2763901 76.6868961,34.229769 76.2902438,34.2530795 C73.5370104,34.3230112 73.9803276,34.5094955 73.9803276,31.8987147 C73.9569952,24.3227881 74.0036601,16.7468616 73.9569952,9.17093505 C73.9569952,8.00540789 74.2603175,7.51588648 75.4502743,7.6324392 C75.8702591,7.67906028 76.3135763,7.49257594 76.7335611,7.53919702 C77.3868707,7.60912865 78.0168479,7.74899191 78.646825,8.02871843 C80.6767514,7.21284942 82.7533427,6.86319127 84.9699289,7.39933376 C86.6732005,7.81892354 87.8398248,8.79796636 88.2364771,10.5229466 C88.5164669,11.8050264 88.8197893,13.1104168 88.8431217,14.4158073 C88.8897867,17.3296252 88.9131192,20.2434431 88.6797943,23.1339504 C88.2831421,28.1224067 84.3632843,30.2669766 79.7201194,28.1923383 C79.5801245,28.1224067 79.4401296,28.0990961 78.9734798,27.9592329 Z M61.6208163,8.42964112 C62.2067663,8.21941508 62.5973996,8.05590595 63.0124476,7.91575526 C64.8679559,7.21500181 66.7722934,7.23836026 68.6278017,7.84567991 C70.5077247,8.47635802 71.1180893,9.97129871 71.1425038,11.7231823 C71.191333,16.394872 71.191333,21.0665617 71.191333,25.7382513 C71.191333,26.4390048 71.2157476,27.1397582 71.2401622,27.8405117 C71.2645768,28.5646236 70.9227726,28.8916418 70.1170913,28.8449249 C69.2137517,28.7982081 68.3104122,28.7514912 67.4314872,28.8449249 C66.3572455,28.9383587 66.1130997,28.4945482 66.1130997,27.5602103 C66.1375142,23.4257649 66.0886851,19.314678 66.0642705,15.1802327 C66.0642705,14.8765729 66.0642705,14.5495546 66.0398559,14.2458948 C65.8933684,12.9378216 65.2585892,12.3071435 64.0866892,12.2837851 C62.7683017,12.2604266 61.8405476,12.9144632 61.69406,14.1291025 C61.5719871,15.0867989 61.5475725,16.0678537 61.5475725,17.0489085 C61.523158,20.5526758 61.523158,24.056443 61.5475725,27.5602103 C61.5475725,28.4945482 61.2790121,28.9383587 60.229185,28.8449249 C59.472333,28.7748496 58.6910663,28.8215665 57.9097996,28.8215665 C56.3472663,28.8449249 56.3228517,28.8215665 56.3228517,27.3733427 C56.3228517,21.3001461 56.3472663,15.2269496 56.3472663,9.15375302 C56.3472663,6.65439905 56.3716809,4.17840353 56.3228517,1.67904956 C56.2984371,0.65127783 56.713485,0.277542657 57.7877267,0.37097645 C58.6422371,0.441051795 59.4967475,0.441051795 60.351258,0.37097645 C61.2790121,0.300901105 61.5964017,0.697994727 61.5719871,1.51554042 C61.5475725,3.33749939 61.5719871,5.1828168 61.5719871,7.00477577 C61.5475725,7.42522784 61.5964017,7.84567991 61.6208163,8.42964112 Z M35.400361,20.5609029 C35.3772718,18.2507195 34.2228095,17.5906671 32.5372947,18.5335991 C31.6137249,19.0522117 31.1750292,19.8772772 31.0826723,20.9145023 C31.0364938,21.5038348 31.059583,22.0931673 31.0826723,22.6824998 C31.1750292,24.1911909 31.6599034,24.7333768 32.8836333,24.7569501 C34.2920773,24.7805234 35.0771116,24.1440444 35.2387363,22.7532197 C35.3541825,21.9045809 35.3772718,21.0559421 35.400361,20.5609029 Z M27.3653039,8.09062754 C28.9584617,7.76060135 30.4130842,7.31270866 31.9138851,7.19484217 C33.4608645,7.07697567 35.0771116,7.17126887 36.624091,7.35985526 C38.7483015,7.64273485 39.9951207,9.3164391 40.0412992,11.8387821 C40.0874777,14.9268843 40.0412992,18.0385598 40.0874777,21.126662 C40.1105669,22.3289003 39.8796745,23.6254318 41.1957614,24.4740705 C41.4959216,24.6626569 41.3804754,25.5584423 41.3804754,26.1477748 C41.3573861,28.8115576 41.3112076,29.0472906 38.6790337,28.5993979 C36.6471802,28.2457984 34.7769514,28.5522513 32.8143656,28.8115576 C31.5906356,28.9765707 30.2283702,28.6701178 29.0046402,28.2693717 C27.6885533,27.8450523 26.7880728,26.7371073 26.6726265,25.299136 C26.5340911,23.248259 26.3493771,21.126662 26.626448,19.0993583 C27.0420544,16.1055493 29.0046402,14.6911513 32.4911162,14.3611251 C33.0221688,14.3139785 33.5763107,14.3611251 34.1073633,14.2904052 C34.453702,14.2432587 35.0078438,14.1253922 35.0771116,13.9368058 C35.1694686,13.5360597 35.1463793,12.9231539 34.8923976,12.6638476 C34.5691482,12.3102481 33.9919171,11.9802219 33.5301322,11.9802219 C32.3987592,12.0273685 31.244297,12.1923816 30.1360132,12.4516879 C29.4433359,12.616701 28.981551,12.4988345 28.7275693,11.8623554 C28.3119629,10.7544104 27.8963565,9.57574539 27.3653039,8.09062754 Z M105.039844,11.9343528 C105.517452,10.7220571 105.995059,9.53353196 106.42718,8.32123629 C106.745585,7.46549818 107.245935,7.06139962 108.155663,7.15648164 C108.951675,7.22779315 109.747687,7.20402264 110.543699,7.15648164 C111.47617,7.10894063 111.567143,7.53680969 111.225995,8.32123629 C110.066092,11.0786147 108.974418,13.8597635 107.791772,16.5933714 C107.359651,17.5917325 107.405137,18.3999296 107.837258,19.3982908 C109.20185,22.3933742 110.47547,25.4122281 111.931034,28.763869 C110.793874,28.763869 109.861403,28.6450165 108.974418,28.7876395 C107.132219,29.0966561 106.086032,28.383541 105.562938,26.4819007 C105.267276,25.3884576 104.630467,24.3900964 104.15286,23.3441943 C104.0164,23.3679648 103.902684,23.3917353 103.766225,23.3917353 C103.220388,24.7704245 102.651808,26.1253432 102.174201,27.5278029 C101.855796,28.431082 101.400932,28.858951 100.422974,28.7876395 C99.354044,28.6925575 98.2623703,28.763869 97.0114943,28.763869 C97.1706967,28.2646885 97.2616695,27.9319014 97.3981287,27.6228849 C98.5352888,24.8655065 99.6724488,22.1081281 100.832352,19.3507498 C101.446419,17.9482901 101.423675,16.6646829 100.764123,15.2622232 C99.695192,13.0040254 98.7399776,10.6745161 97.7392767,8.3687773 C97.6255607,8.08353126 97.5573311,7.79828522 97.3981287,7.27533415 C99.126612,7.27533415 100.741379,7.20402264 102.31066,7.32287516 C102.629065,7.34664566 102.94747,8.03599026 103.152159,8.48762982 C103.697996,9.65238447 104.175603,10.8409096 104.675953,12.0056643 C104.789669,11.9818938 104.926128,11.9581233 105.039844,11.9343528 Z M45.1860942,18.4221852 C45.1860942,16.5622506 45.1630472,14.726471 45.1860942,12.8665365 C45.2091411,11.9244917 44.8864836,11.3689268 43.9185112,11.5138568 C42.9735857,11.6587867 42.6509282,11.1998418 42.78921,10.281952 C42.8353039,10.0162471 42.8122569,9.72638717 42.8122569,9.43652723 C42.8353039,8.76018739 42.6278812,7.91476258 42.9274918,7.45581768 C43.2040553,7.04518277 44.0798399,7.16595775 44.656014,6.9244078 C45.0017185,6.77947783 45.301329,6.41715291 45.5317986,6.07898299 C45.6931274,5.83743304 45.6700804,5.45095313 45.7161743,5.1369382 C46.2232075,2.23833886 46.2232075,2.28664885 48.9888431,1.75523896 C49.8415808,1.586154 50.0029095,1.94847892 50.0029095,2.69728375 C50.0029095,3.66348353 50.0259565,4.62968332 50.0029095,5.5958831 C49.9568156,6.58623788 50.2333791,7.16595775 51.2935394,7.02102778 C51.6392439,6.97271779 51.9849483,7.04518277 52.3306528,7.06933777 C53.1603435,7.11764776 53.5982358,7.55243766 53.5751888,8.44617246 L53.5751888,9.17082229 C53.5751888,11.3930818 53.8056584,11.6346317 51.4318212,11.5380118 C50.3947079,11.4897018 49.9798625,11.9969567 49.9798625,13.0597764 C50.0029095,15.9100658 49.9568156,18.7603551 50.0029095,21.6347995 C50.0490034,23.712129 50.3716609,24.0502989 52.3767467,24.1469189 C53.3216722,24.1952289 53.7365176,24.5575538 53.5751888,25.5479086 C53.5290949,25.8619235 53.5290949,26.2000935 53.5290949,26.5141084 C53.5060479,28.8571429 53.5060479,28.8571429 51.2013516,28.8571429 C46.3384423,28.8571429 45.2321881,27.7460131 45.1400002,22.6493093 C45.1630472,21.2483196 45.1860942,19.8473299 45.1860942,18.4221852 Z M95.6298206,17.8902617 C95.6298206,21.1300268 95.6044688,24.3936137 95.6551724,27.6333788 C95.6551724,28.5624291 95.3509507,28.9197561 94.3368783,28.8482907 C93.3228059,28.7768253 92.3087335,28.8006471 91.2946611,28.8482907 C90.5341068,28.8959343 90.2298851,28.6338945 90.2298851,27.8954186 C90.2552369,21.2729576 90.2298851,14.6504966 90.2298851,8.05185745 C90.2298851,7.40866879 90.508755,7.12280716 91.2186057,7.14662896 C92.3087335,7.17045077 93.4242131,7.19427257 94.514341,7.14662896 C95.4270061,7.09898536 95.6551724,7.503956 95.6551724,8.29007547 C95.6044688,11.4583752 95.6298206,14.6743184 95.6298206,17.8902617 Z M95.6276599,3.09143559 L95.6276599,4.42523693 C95.6531344,5.30554581 95.2455416,5.75903826 94.4048813,5.78571429 L91.4753077,5.78571429 C90.6346474,5.78571429 90.2525291,5.30554581 90.2525291,4.42523693 C90.2525291,4.07844858 90.20158,3.7049842 90.2525291,3.35819586 C90.4053764,2.3978589 90.4053764,0.690593191 90.7874947,0.583889084 C92.1376461,0.237100737 93.6151702,0.37048087 95.0162706,0.450508951 C95.2455416,0.450508951 95.5257617,1.11740962 95.6021853,1.49087399 C95.7040836,1.9977185 95.6276599,2.55791506 95.6276599,3.09143559 Z" id="Combined-Shape"></path>
    <path d="M159.977337,3.54181531 C162.492304,2.27577627 165.221259,1.09231615 168.247324,1.00491482 C169.447495,0.96715146 170.732839,1.14338048 171.762663,1.65947974 C172.90089,2.22593015 173.582277,3.17001417 173.84554,4.22109438 C174.317866,6.09667463 173.675194,8.04148771 172.351134,9.5960794 C169.323606,13.1521292 163.887993,14.0395682 158.893733,14.1339766 C159.195712,13.812988 159.489947,13.4982933 159.791926,13.1773048 C160.372653,14.5116102 160.992097,15.8270339 161.650255,17.1361638 C162.811711,19.4397288 164.104798,21.6929426 165.514031,23.8958054 C166.203161,24.9720611 166.900035,26.0483169 167.666596,27.0805154 C168.293782,27.9238972 169.021627,28.7169277 170.136625,29.1449125 C170.593464,29.3211415 170.70961,29.8498286 170.469576,30.177111 C170.198569,30.5484507 169.656557,30.6239775 169.199717,30.4477484 C167.751769,29.8938858 166.768403,28.8050423 165.97087,27.7161987 C164.360318,25.5070421 162.943342,23.1908893 161.627026,20.8558548 C160.391135,18.660859 159.267293,16.4283605 158.255499,14.1583593 C157.199262,19.7377035 156.42907,25.3640895 155.944922,31.0071421 C155.909762,31.4199401 155.586293,31.7692308 155.101088,31.7692308 C154.67214,31.7692308 154.222095,31.4199401 154.257255,31.0071421 C154.426022,29.0130102 154.63698,27.0188783 154.876066,25.0310972 C155.733964,17.9690759 157.034874,10.9515098 158.778797,4.02285402 C158.877244,3.61640676 159.390576,3.38778017 159.812493,3.48304125 C159.871232,3.49773158 159.926254,3.51756105 159.977337,3.54181531 Z M160.261959,4.98997051 C159.829174,6.73799565 159.420413,8.48652544 159.046011,10.2402271 C158.870597,11.0588644 158.701393,11.8786778 158.5384,12.6995702 C158.653075,12.657372 158.77671,12.6325146 158.901476,12.6297361 C161.456679,12.5793849 164.050597,12.3590986 166.42771,11.5660681 C168.278296,10.9429726 169.91982,9.94224354 170.988359,8.56388087 C172.018183,7.24216324 172.498252,5.66868988 171.93301,4.18333102 C171.313567,2.54691872 169.068086,2.34551413 167.248472,2.59726987 C164.92556,2.91825843 162.850426,3.88122413 160.875951,4.8819532 C160.661579,4.99020009 160.451295,5.01815322 160.261959,4.98997051 Z M117.248076,16.5640683 C118.599127,11.3288361 122.099675,5.1712417 126.812076,1.28597507 C127.691073,0.555018132 128.512261,1.37201725 127.633264,2.09638899 C127.112377,2.53101204 126.062464,4.09170388 125.59041,4.56583812 C121.72445,8.44451954 119.860651,13.5217069 118.802599,18.3486568 C118.22474,20.9827359 117.858491,23.7155929 117.964296,26.3957684 C118.037546,28.2198681 118.558433,30.4983465 120.926842,31.1897923 C123.58825,31.9668456 126.23338,30.7156581 128.105318,29.181307 C130.188866,27.4691556 131.8085,25.3882331 133.045607,23.2151179 C134.298991,21.0156619 135.137294,18.6581611 135.674459,16.2743196 C136.244179,13.7390185 136.626706,10.9995762 135.837236,8.47086033 C135.202405,6.44920465 133.647883,4.45388976 131.173669,3.64391044 C128.528539,2.78124955 124.217708,4.55423677 121.792327,5.63420919 C120.693581,6.12809901 120.421971,4.4913553 121.520718,4.00405067 C122.236937,3.68796118 123.4874,3.16319101 124.260592,2.94587949 C127.280109,2.08980379 130.937642,1.37860245 133.599049,2.94587949 C136.301151,4.52632693 137.66848,7.06162803 138.075423,9.67595151 C138.303311,11.1510358 138.221923,12.6392905 138.018451,14.1077895 C137.839396,15.4379995 137.578953,16.7616242 137.212704,18.0654933 C136.496484,20.6468908 135.38146,23.1756067 133.81066,25.5001815 C132.272415,27.7852451 130.253977,30.0571383 127.633264,31.5980745 C125.053245,33.11267 121.341924,33.646071 118.680516,31.94709 C116.336524,30.445665 115.962136,27.7918303 116.002831,25.5396927 C116.051664,22.5302574 116.483023,19.5076516 117.248076,16.5640683 Z M151.3446,3.89243762 C151.801741,4.08738626 151.946102,4.58419088 151.697481,4.92377885 C151.4248,5.28852148 150.839339,5.38285147 150.382197,5.19419149 C149.676436,4.90491285 148.898493,4.90491285 148.128571,5.07470683 C147.334589,5.25078948 146.636848,5.60295478 146.059406,6.06831607 C144.744122,7.13110063 144.062421,8.60893714 143.420819,9.97986634 C140.742132,15.7277071 139.683489,21.9031771 140.325091,28.0031832 C140.389251,28.6823591 140.437371,29.2986484 140.637872,29.9400923 C140.798272,30.4494743 141.030853,30.9337016 141.552154,31.2229802 C142.658917,31.8392695 144.327081,31.3487535 145.481964,30.8519489 C148.224812,29.6759684 150.285957,27.6447292 151.128059,25.2927681 C151.45688,24.3620456 153.317525,24.7582315 152.980684,25.6952428 C151.873921,28.7766891 148.874433,31.5499909 145.008783,32.6756621 C143.268439,33.185044 141.070953,33.1913327 139.787749,31.9839088 C138.528606,30.8079283 138.496526,29.1099884 138.360186,27.6573066 C138.039385,24.2740042 138.247905,20.8718359 138.929607,17.5262656 C139.603289,14.2184273 140.742132,10.9420322 142.418316,7.86058589 C143.180218,6.46450203 144.206781,5.11243883 145.842865,4.25089158 C147.45489,3.40192167 149.588215,3.16924102 151.3446,3.89243762 Z" id="Combined-Shape" fill-rule="nonzero"></path>
</svg>