<?xml version="1.0" encoding="UTF-8"?>
<svg width="89px" height="29px" viewBox="0 0 89 29" version="1.1" xmlns="http://www.w3.org/2000/svg" xmlns:xlink="http://www.w3.org/1999/xlink">
    <!-- Generator: Sketch 52.2 (67145) - http://www.bohemiancoding.com/sketch -->
    <title>Combined Shape</title>
    <desc>Created with Sketch.</desc>
    <g id="Page-1" stroke="none" stroke-width="1" fill="none" fill-rule="evenodd">
        <g id="mathpix.com" transform="translate(-205.000000, -3194.000000)" fill="#FFFFFF">
            <g id="Page-1" transform="translate(205.039292, 3194.655850)">
                <path d="M4.22472558,6.74565234 C6.34299041,5.5511421 8.33118634,5.47648521 10.4308699,6.33503944 C10.988308,6.55901011 11.8058839,6.52168167 12.363322,6.26038255 C13.9055675,5.56980632 15.4478129,5.66312743 17.0086396,6.01774766 C18.2907473,6.297711 19.0897419,7.56687813 19.1269044,9.2839866 C19.1826483,12.1396126 19.1826483,14.9952387 19.2012295,17.8695289 C19.2012295,19.2320172 19.1826483,20.6131697 19.2012295,21.9756579 C19.2012295,22.5915772 18.9968356,22.8902048 18.3279098,22.8342121 C17.6775654,22.7782195 17.0272209,22.7782195 16.3768764,22.8342121 C15.5778818,22.908869 15.2805815,22.6289057 15.2805815,21.7890157 C15.317744,18.8960612 15.2991627,16.0031067 15.2805815,13.1101522 C15.2805815,12.3635833 15.2434189,11.6170144 15.1505126,10.8891097 C15.0204437,9.97456283 14.5187494,9.60127838 13.6268484,9.6199426 C12.6792036,9.65727105 12.1403468,10.0865482 12.0474404,10.9824308 C11.9545341,11.8783135 11.8987903,12.7741962 11.8987903,13.6887431 C11.880209,16.3950554 11.880209,19.1013676 11.9173715,21.8076799 C11.9359528,22.6289057 11.6572337,22.9275332 10.8396578,22.8528764 C10.2264759,22.7968837 9.59471273,22.7968837 8.98153081,22.8528764 C8.23827999,22.9275332 8.01530475,22.6102415 8.01530475,21.8823368 C8.05246729,19.213353 8.03388602,16.5443692 8.01530475,13.8567211 C8.01530475,12.92351 7.94097966,11.9902989 7.82949204,11.075752 C7.69942315,9.99322705 7.2906352,9.6199426 6.38015295,9.6199426 C5.43250816,9.6199426 4.76358243,10.1612051 4.6520948,11.0944162 C4.55918845,11.8036566 4.57776972,12.5128971 4.57776972,13.2408018 C4.57776972,16.0404351 4.57776972,18.8400685 4.59635099,21.6397019 C4.59635099,22.7595552 4.50344464,22.8528764 3.38856842,22.8528764 C2.79396776,22.8528764 2.19936711,22.7968837 1.62334773,22.8528764 C0.694284208,22.9461975 0.434146422,22.5169204 0.452727693,21.6583661 C0.527052774,18.877397 0.601377856,16.0777636 0.619959126,13.2967944 C0.619959126,11.4490364 0.508471504,9.58261416 0.471308963,7.73485613 C0.452727693,6.24171833 0.489890234,6.20438989 1.93922932,6.14839722 C2.21794838,6.129733 2.49666744,6.14839722 2.77538649,6.07374033 C3.44431223,5.8870981 3.98316907,5.94309077 4.22472558,6.74565234 Z M65.5243181,14.5099876 C65.449993,13.4087984 65.4314117,12.195624 65.2641803,11.0011137 C65.1155301,10.0119099 64.5023482,9.61996127 63.5732847,9.65728971 C62.6256399,9.69461816 62.1239456,10.1238953 61.9381329,11.0944348 C61.4921824,13.37147 61.4736011,15.6671694 61.9381329,17.9442045 C62.1425268,19.0080652 62.5884773,19.4186781 63.6290285,19.4186781 C64.6509983,19.4186781 65.1712739,19.0640579 65.3385053,17.9628687 C65.449993,16.8616796 65.449993,15.723162 65.5243181,14.5099876 Z M61.60367,22.348961 C61.60367,23.7114493 61.5850887,24.9432879 61.60367,26.1751266 C61.6408325,27.4069653 61.6408325,27.4256295 60.3958874,27.4069653 C60.0800058,27.4069653 59.7827055,27.3696369 59.4668239,27.3883011 C57.274234,27.4442938 57.6272781,27.5936075 57.6272781,25.5032146 C57.6086969,19.4373423 57.6458594,13.37147 57.6086969,7.30559768 C57.6086969,6.37238655 57.8502534,5.98043788 58.7978982,6.07375899 C59.132361,6.11108744 59.4854052,5.96177366 59.819868,5.9991021 C60.3401436,6.05509477 60.8418379,6.1670801 61.3435322,6.39105077 C62.9601027,5.73780299 64.6138358,5.45783965 66.3790565,5.88711677 C67.7354892,6.22307277 68.6645527,7.00697012 68.9804343,8.38812258 C69.2034096,9.41465482 69.4449661,10.4598513 69.4635474,11.5050477 C69.5007099,13.8380756 69.5192912,16.1711034 69.3334785,18.485467 C69.0175969,22.4796106 65.8959435,24.196719 62.1982707,22.5356032 C62.086783,22.4796106 61.9752954,22.4609463 61.60367,22.348961 Z M48.1508302,6.54032723 C48.5967807,6.37234922 48.894081,6.24169967 49.2099626,6.12971433 C50.6221392,5.56978766 52.0714783,5.58845188 53.4836548,6.07372166 C54.9144127,6.57765567 55.3789444,7.77216591 55.3975257,9.1719826 C55.4346882,12.9048271 55.4346882,16.6376716 55.4346882,20.3705161 C55.4346882,20.9304428 55.4532695,21.4903694 55.4718508,22.0502961 C55.490432,22.628887 55.2302943,22.8901861 54.6171123,22.8528577 C53.9296053,22.8155292 53.2420983,22.7782008 52.5731726,22.8528577 C51.7555967,22.9275146 51.569784,22.5728944 51.569784,21.8263255 C51.5883653,18.5227581 51.5512027,15.2378549 51.5326214,11.9342875 C51.5326214,11.6916526 51.5326214,11.4303535 51.5140402,11.1877186 C51.4025525,10.1425222 50.9194395,9.63858816 50.0275385,9.61992394 C49.0241499,9.60125972 48.3180617,10.1238579 48.206574,11.0943975 C48.1136677,11.8596306 48.0950864,12.643528 48.0950864,13.4274253 C48.0765051,16.2270587 48.0765051,19.0266921 48.0950864,21.8263255 C48.0950864,22.5728944 47.8906924,22.9275146 47.0916978,22.8528577 C46.5156784,22.796865 45.9210778,22.8341935 45.3264771,22.8341935 C44.1372758,22.8528577 44.1186946,22.8341935 44.1186946,21.6770117 C44.1186946,16.8243138 44.1372758,11.971616 44.1372758,7.11891812 C44.1372758,5.12184632 44.1558571,3.14343873 44.1186946,1.14636692 C44.1001133,0.325141133 44.4159949,0.0265135733 45.2335708,0.101170463 C45.8839152,0.157163131 46.5342597,0.157163131 47.1846042,0.101170463 C47.8906924,0.0451777958 48.132249,0.362469578 48.1136677,1.01571737 C48.0950864,2.47152672 48.1136677,3.9460003 48.1136677,5.40180965 C48.0950864,5.73776566 48.132249,6.07372166 48.1508302,6.54032723 Z M27.8415388,16.4136823 C27.8229576,14.5845885 26.8938941,14.0619902 25.5374613,14.8085591 C24.7942105,15.219172 24.4411664,15.8724198 24.3668413,16.6936456 C24.3296787,17.1602512 24.34826,17.6268567 24.3668413,18.0934623 C24.4411664,19.2879725 24.831373,19.7172496 25.8161804,19.7359139 C26.9496379,19.7545781 27.5814011,19.2506441 27.71147,18.149455 C27.8043763,17.4775429 27.8229576,16.8056309 27.8415388,16.4136823 Z M21.3752567,6.54030856 C22.6573644,6.27900945 23.8279844,5.92438922 25.035767,5.83106811 C26.2807121,5.73774699 27.5814011,5.81240388 28.8263462,5.96171766 C30.5358231,6.18568833 31.5392117,7.51084813 31.5763742,9.50791994 C31.6135367,11.9529331 31.5763742,14.4166105 31.6135367,16.8616236 C31.632118,17.813499 31.4463053,18.8400312 32.5054377,19.5119432 C32.7469942,19.661257 32.6540879,20.3704974 32.6540879,20.837103 C32.6355066,22.9461601 32.5983441,23.1328024 30.4800792,22.7781821 C28.8449274,22.4982188 27.3398445,22.7408537 25.7604366,22.9461601 C24.7756292,23.0768097 23.6793343,22.8341748 22.6945269,22.516883 C21.6353945,22.180927 20.910725,21.3037086 20.8178186,20.165191 C20.706331,18.5414036 20.5576808,16.8616236 20.7806561,15.2565005 C21.115119,12.8861442 22.6945269,11.7662909 25.5002988,11.5049917 C25.927668,11.4676633 26.3736185,11.5049917 26.8009877,11.4489991 C27.0797068,11.4116706 27.5256572,11.3183495 27.5814011,11.1690357 C27.6557261,10.851744 27.6371449,10.3664742 27.4327509,10.1611677 C27.1726131,9.88120439 26.7080813,9.61990527 26.3364559,9.61990527 C25.4259737,9.65723372 24.4969102,9.78788328 23.6050092,9.99318972 C23.0475711,10.1238393 22.6759457,10.0305182 22.4715517,9.52658416 C22.1370888,8.6493657 21.802626,7.71615458 21.3752567,6.54030856 Z M82.9721124,9.6759726 C83.3623191,8.72409725 83.7525257,7.79088613 84.1055699,6.83901078 C84.3657077,6.16709877 84.7744956,5.84980699 85.5177464,5.92446388 C86.1680909,5.98045654 86.8184353,5.96179232 87.4687798,5.92446388 C88.2306119,5.88713543 88.304937,6.22309144 88.0262179,6.83901078 C87.0785731,9.00406059 86.1866722,11.1877746 85.2204461,13.3341602 C84.867402,14.1180576 84.9045645,14.7526411 85.2576086,15.5365385 C86.3724849,17.8882305 87.413036,20.2585868 88.6022373,22.8902421 C87.6731738,22.8902421 86.9113417,22.796921 86.1866722,22.9089064 C84.6815893,23.1515412 83.8268508,22.5916146 83.3994816,21.0984768 C83.1579251,20.2399225 82.6376495,19.4560252 82.2474428,18.6347994 C82.1359552,18.6534636 82.0430489,18.6721278 81.9315612,18.6721278 C81.4856107,19.7546527 81.021079,20.8185134 80.6308723,21.9197026 C80.3707345,22.628943 79.9991091,22.964899 79.2001145,22.9089064 C78.3267948,22.8342495 77.4348938,22.8902421 76.4129239,22.8902421 C76.5429928,22.4982935 76.6173179,22.2369943 76.7288055,21.9943594 C77.657869,19.8293096 78.5869326,17.6642598 79.5345774,15.49921 C80.0362717,14.3980209 80.0176904,13.3901529 79.4788335,12.2889637 C78.6055138,10.5158626 77.8251005,8.68676881 77.0075246,6.87633922 C76.9146182,6.65236855 76.8588744,6.42839788 76.7288055,6.01778499 C78.1409821,6.01778499 79.4602523,5.96179232 80.7423599,6.05511343 C81.0024977,6.07377766 81.2626355,6.61504011 81.4298669,6.96966034 C81.8758174,7.88420724 82.2660241,8.81741836 82.6748121,9.73196527 C82.7677184,9.71330104 82.879206,9.69463682 82.9721124,9.6759726 Z M35.3855532,14.7899509 C35.3855532,13.3528058 35.3669719,11.9343249 35.3855532,10.4971797 C35.4041345,9.76927505 35.1439967,9.33999793 34.3635833,9.45198326 C33.6017512,9.5639686 33.3416135,9.20934837 33.4531011,8.50010792 C33.4902636,8.29480147 33.4716824,8.0708308 33.4716824,7.84686013 C33.4902636,7.3242619 33.3230322,6.67101411 33.5645887,6.31639388 C33.787564,5.9991021 34.4936522,6.09242321 34.958184,5.90578099 C35.236903,5.79379565 35.4784596,5.51383232 35.6642723,5.2525332 C35.7943412,5.06589098 35.7757599,4.76726342 35.8129224,4.52462852 C36.2217104,2.28492182 36.2217104,2.32225027 38.4514628,1.91163737 C39.1389698,1.78098782 39.2690387,2.06095115 39.2690387,2.63954205 C39.2690387,3.38611095 39.28762,4.13267985 39.2690387,4.87924875 C39.2318762,5.64448187 39.4548514,6.09242321 40.3095899,5.98043788 C40.5883089,5.94310943 40.867028,5.9991021 41.145747,6.01776632 C41.8146728,6.05509477 42.1677169,6.39105077 42.1491356,7.08162701 L42.1491356,7.64155368 C42.1491356,9.35866215 42.3349483,9.54530438 40.4210775,9.47064749 C39.5849203,9.43331904 39.2504575,9.82526771 39.2504575,10.6464935 C39.2690387,12.8488718 39.2318762,15.05125 39.2690387,17.2722925 C39.3062013,18.8774156 39.566339,19.1387147 41.1829096,19.2133716 C41.9447417,19.2507001 42.2792045,19.5306634 42.1491356,20.2958965 C42.1119731,20.5385314 42.1119731,20.7998305 42.1119731,21.0424654 C42.0933918,22.852895 42.0933918,22.852895 40.2352648,22.852895 C36.3146167,22.852895 35.4227157,21.9943408 35.3483907,18.0561898 C35.3669719,16.9736649 35.3855532,15.89114 35.3855532,14.7899509 Z M75.3166847,14.3046625 C75.3166847,16.8429967 75.2981034,19.3999952 75.335266,21.9383295 C75.335266,22.6662341 75.1122907,22.9461975 74.3690399,22.8902048 C73.6257891,22.8342121 72.8825383,22.8528764 72.1392875,22.8902048 C71.5818494,22.9275332 71.3588741,22.7222268 71.3588741,22.1436359 C71.3774554,16.954982 71.3588741,11.7663282 71.3588741,6.59633856 C71.3588741,6.09240455 71.5632681,5.86843388 72.0835437,5.8870981 C72.8825383,5.90576233 73.7001142,5.92442655 74.4991088,5.8870981 C75.1680346,5.84976966 75.335266,6.16706144 75.335266,6.78298078 C75.2981034,9.26532238 75.3166847,11.7849924 75.3166847,14.3046625 Z M75.279485,2.41551539 L75.279485,3.34872651 C75.2980663,3.96464586 75.000766,4.28193764 74.387584,4.30060186 L72.2507379,4.30060186 C71.637556,4.30060186 71.358837,3.96464586 71.358837,3.34872651 C71.358837,3.10609162 71.3216744,2.84479251 71.358837,2.60215761 C71.4703246,1.9302456 71.4703246,0.735735364 71.7490436,0.661078474 C72.733851,0.418443582 73.8115647,0.511764694 74.8335345,0.567757362 C75.000766,0.567757362 75.2051599,1.03436292 75.2609037,1.29566204 C75.3352288,1.65028227 75.279485,2.04223094 75.279485,2.41551539 Z" id="Combined-Shape"></path>
            </g>
        </g>
    </g>
</svg>