<?xml version="1.0" encoding="UTF-8"?>
<svg class="svg-icon" viewBox="0 0 233 52" version="1.1" xmlns="http://www.w3.org/2000/svg" xmlns:xlink="http://www.w3.org/1999/xlink">
    <path d="M23.4817641,22.5897436 C22.2828351,22.7948728 20.964033,22.8974359 19.5253181,22.8974359 C18.3263891,22.8974359 16.956205,22.7606851 15.4147248,22.4871795 L15.4661072,22.0769231 C15.4661072,21.8717938 15.3804707,21.7264962 15.2091952,21.6410256 C15.0379196,21.5555551 14.8666466,21.5042736 14.695371,21.4871795 C14.5240954,21.4700854 14.4213316,21.4615385 14.3870765,21.4615385 L14.4384589,21.0512821 C14.4384589,20.5042708 14.2671859,20.1196592 13.9246348,19.8974359 C13.5820836,19.6752126 13.1367738,19.512821 12.5886919,19.4102564 C11.9720999,19.5811974 11.4925354,19.8376051 11.1499843,20.1794872 C10.8074331,20.5213692 10.6361601,20.8974338 10.6361601,21.3076923 C10.6361601,21.9572682 10.9787061,22.4188021 11.6638084,22.6923077 L11.5610436,22.6410256 C15.3976165,23.2564133 18.3606396,24.2478564 20.4502016,25.6153846 C22.5397636,26.9829128 23.584529,29.1538313 23.584529,32.1282051 C23.584529,35.27352 22.5568909,37.5640954 20.501584,39 C18.4462771,40.4359046 15.7401636,41.1538462 12.3831623,41.1538462 C9.9853042,41.1538462 7.84439161,40.7008592 5.96036026,39.7948718 C4.07632892,38.8888844 2.61194471,37.6581274 1.56716369,36.1025641 C0.522382673,34.5470008 0,32.8461631 0,31 L0,30.2820513 C1.06190858,30.1452985 2.22656503,30.0769231 3.49400429,30.0769231 L6.16588993,30.1282051 C6.71397177,30.1623933 7.51895491,30.1794872 8.58086348,30.1794872 C8.58086348,30.4529928 8.66649999,30.7948697 8.83777556,31.2051282 L9.60851181,31.2051282 C9.60851181,32.4017154 10.3792403,33 11.9207205,33 C13.3251803,33 14.0273996,32.3162462 14.0273996,30.9487179 C14.0273996,30.4358949 13.7619264,30.0683772 13.2309721,29.8461538 C12.7000179,29.6239305 11.8522165,29.3931636 10.6875425,29.1538462 C9.21457258,28.8803405 8.08417073,28.5726513 7.29630308,28.2307692 L7.3476855,28.2307692 C5.25812346,27.5128169 3.59677529,26.3418885 2.36359114,24.7179487 C1.13040699,23.094009 0.513824161,21.4102651 0.513824161,19.6666667 C0.513824161,18.059821 1.03620683,16.5384687 2.08098785,15.1025641 C3.12576887,13.6666595 4.50451658,12.6923103 6.21727234,12.1794872 C7.38194627,11.8376051 9.16318554,11.6666667 11.5610436,11.6666667 C13.8561363,11.6666667 15.7401394,11.8376051 17.2131094,12.1794872 C18.6860793,12.5213692 19.8849904,13.2734985 20.8098785,14.4358974 C22.8651854,16.1111195 23.8928235,18.6581026 23.8928235,22.0769231 L23.4817641,22.5897436 Z M17.8810808,12.7948718 C16.0313046,12.3846133 13.9246466,12.1794872 11.5610436,12.1794872 C4.53874498,12.1794872 1.02764832,14.6751887 1.02764832,19.6666667 C1.02764832,21.2051359 1.49008544,22.6153782 2.41497356,23.8974359 C3.33986167,25.1794936 4.69291843,26.1282021 6.47418443,26.7435897 C7.29630719,27.11966 8.59798205,27.4786308 10.379248,27.8205128 C11.852218,28.1623949 12.9141107,28.5042718 13.5649578,28.8461538 C14.215805,29.1880359 14.5412237,29.7692267 14.5412237,30.5897436 C14.5412237,31.6153897 14.3185688,32.3589721 13.8732523,32.8205128 C13.4279358,33.2820536 12.7770984,33.5128205 11.9207205,33.5128205 C10.9615773,33.5128205 10.1052123,33.2564128 9.35159973,32.7435897 C8.59798719,32.2307667 8.18693197,31.5470128 8.11842174,30.6923077 L2.20944389,30.6410256 C1.42157624,30.6410256 0.856375314,30.6752133 0.513824161,30.7435897 L0.513824161,31 C0.513824161,33.6324918 1.5072076,35.7264879 3.49400429,37.2820513 C5.48080098,38.8376146 8.101278,39.6153846 11.355514,39.6153846 C14.4727294,39.6153846 17.0246973,38.9743654 19.0114939,37.6923077 C20.9982906,36.41025 21.9916741,34.2136908 21.9916741,31.1025641 C21.9916741,29.3247774 21.5806189,27.9059882 20.7584961,26.8461538 C19.9363733,25.7863195 18.7974078,25.0000026 17.3415654,24.4871795 C15.885723,23.9743564 13.9417744,23.5299164 11.5096612,23.1538462 C10.7217935,22.8803405 10.122338,22.4871821 9.71127664,21.974359 C9.30021525,21.4615359 9.09468765,20.9145328 9.09468765,20.3333333 C9.09468765,19.7521338 9.32590621,19.1965838 9.78835026,18.6666667 C10.2507943,18.1367495 10.8930681,17.8717949 11.7151909,17.8717949 C12.5030585,17.8717949 13.2566598,18.1623903 13.9760172,18.7435897 C14.6953746,19.3247892 15.0550479,19.9572615 15.0550479,20.6410256 C15.0550479,20.8461549 15.0379206,20.9829056 15.0036655,21.0512821 C16.0655741,21.2564113 17.2302305,21.3589744 18.4976698,21.3589744 C19.9021295,21.3589744 21.1866771,21.2564113 22.351351,21.0512821 C22.351351,19.1025544 21.9916777,17.4017167 21.2723203,15.9487179 C20.5529628,14.4957192 19.422561,13.4444477 17.8810808,12.7948718 Z M31.8363879,14.4358974 C33.5148886,13.4102513 35.3303824,12.8974359 37.282924,12.8974359 C38.3790877,12.8974359 39.4409804,13.0854682 40.4686338,13.4615385 C41.4962873,13.8376087 42.2670158,14.4187995 42.7808425,15.2051282 L43.3974315,15.6666667 C44.2880645,16.3504308 44.7333743,19.2221969 44.7333743,24.2820513 C44.7333743,25.6153913 44.6991197,27.6153713 44.6306095,30.2820513 C44.5620993,32.8803549 44.5278447,34.7777718 44.5278447,35.974359 C44.5278447,37.3418872 44.5620993,38.7435826 44.6306095,40.1794872 C43.3974254,40.3504282 41.9587321,40.4358974 40.3144866,40.4358974 L37.2315416,40.4358974 C37.1972865,40.19658 37.1801592,39.8547031 37.1801592,39.4102564 L36.2038933,39.4102564 C36.1011279,38.3504221 36.049746,36.2820667 36.049746,33.2051282 L36.049746,30.6410256 C36.049746,28.6581097 36.0154914,27.1196636 35.9469812,26.025641 C35.878471,24.9316185 35.6900707,24.0085508 35.3817746,23.2564103 C35.1077337,23.1538456 34.7480604,23.1025641 34.3027439,23.1025641 C33.2750904,23.1025641 32.5643074,23.444441 32.1703736,24.1282051 C31.7764398,24.8119692 31.5794758,26.1281954 31.5794758,28.0769231 C31.5794758,29.0000046 31.6137304,30.2820431 31.6822407,31.9230769 C31.7507509,33.6324872 31.7850055,34.8803379 31.7850055,35.6666667 C31.7850055,37.1367595 31.7164963,38.4187979 31.5794758,39.5128205 L31.5794758,40.0769231 C30.3805468,40.3846169 29.3871634,40.5384615 28.5992957,40.5384615 C28.1197241,40.5384615 27.7429235,40.5213677 27.4688825,40.4871795 L26.2357046,40.4358974 L25.670498,40.4358974 C25.1566713,40.4358974 24.6599795,40.4700851 24.1804079,40.5384615 L24.1804079,39.4102564 L23.1527596,39.5128205 L23.1013772,29.8205128 C23.0328669,25.512799 22.9986123,22.2478744 22.9986123,20.025641 C22.9986123,18.2136662 23.0328669,15.7692462 23.1013772,12.6923077 C23.9234999,12.7948723 24.6942285,12.8461538 25.4135859,12.8461538 C25.6876268,12.8461538 26.1415003,12.7948723 26.7752199,12.6923077 C27.4089396,12.5897431 28.2738682,12.5384615 29.3700319,12.5384615 C30.2949201,12.5384615 30.7744845,12.7435877 30.8087396,13.1538462 C30.8087396,13.3589754 30.9714489,13.5384608 31.2968725,13.6923077 C31.6222961,13.8461546 31.8021328,14.0085462 31.8363879,14.1794872 L31.8363879,14.4358974 Z M29.6783264,13 C28.7191832,13 27.6401633,13.0854692 26.4412342,13.2564103 C25.8931524,13.3247867 25.5506064,13.3589744 25.4135859,13.3589744 L24.7969969,13.3589744 C24.3516804,13.3589744 23.9577525,13.3247867 23.6152013,13.2564103 C23.5466911,14.3162446 23.5124365,15.8717846 23.5124365,17.9230769 L23.5124365,21.0512821 C23.5124365,23.1367626 23.5466911,26.1623733 23.6152013,30.1282051 L23.6665838,38.9487179 C24.0776451,38.9145297 24.6257188,38.8974359 25.3108211,38.8974359 L27.777177,38.9487179 C28.4965345,38.9487179 29.2501357,38.8461549 30.0380033,38.6410256 L30.0380033,38.4358974 C30.1750238,37.3076867 30.243533,36.0427421 30.243533,34.6410256 C30.243533,33.7521323 30.2092784,32.453 30.1407682,30.7435897 C30.072258,29.0341795 30.0380033,27.7350472 30.0380033,26.8461538 C30.0380033,24.7948615 30.2949129,23.4017131 30.8087396,22.6666667 C31.3225663,21.9316203 32.1446768,21.5641026 33.2750956,21.5641026 C34.5082797,21.5641026 35.3046992,21.9316203 35.6643779,22.6666667 C36.0240566,23.4017131 36.2381479,24.2222177 36.3066581,25.1282051 C36.3751683,26.0341926 36.4265502,26.6581179 36.4608054,27 C36.5293156,27.5128231 36.5635702,28.3333277 36.5635702,29.4615385 L36.5635702,36.6923077 C36.5635702,37.7179538 36.5978248,38.4529892 36.666335,38.8974359 L39.6465152,38.9487179 C40.8796993,38.9487179 42.0272285,38.8632487 43.089137,38.6923077 C43.0206268,37.3931559 42.9863722,36.3162436 42.9863722,35.4615385 C42.9863722,34.2649513 43.0206268,32.3333467 43.089137,29.6666667 C43.1576473,26.8632338 43.1919019,24.8119723 43.1919019,23.5128205 C43.1919019,21.1538344 43.1062654,19.2478705 42.9349898,17.7948718 C42.7637142,16.3418731 42.4554228,15.4102585 42.0101063,15 C40.8454324,13.9401656 39.2525934,13.4102564 37.2315416,13.4102564 C36.1353779,13.4102564 35.1591218,13.5811949 34.3027439,13.9230769 C33.446366,14.264959 32.6413829,14.6495705 31.8877703,15.0769231 C31.1341578,15.5042756 30.6374661,15.7863241 30.3976803,15.9230769 L30.4490627,14.7435897 C30.4490627,13.5811908 30.1921532,13 29.6783264,13 Z M52.7797036,2.48717949 L53.8073519,2.48717949 L53.8587344,5.25641026 C53.9272446,7.23932615 53.9614992,8.72649077 53.9614992,9.71794872 C53.5846929,10.2991482 52.7625825,10.5897436 51.4951432,10.5897436 C51.1868472,10.5897436 50.5188824,10.5555559 49.491229,10.4871795 L49.5426114,10.4871795 L47.7956093,10.4358974 C47.1105069,10.4358974 46.5110514,10.4529913 45.9972247,10.4871795 L45.9972247,9.41025641 L44.9695764,9.46153846 C44.9695764,8.81196256 44.9353218,7.83761333 44.8668115,6.53846154 C44.7983013,4.9658041 44.7640467,3.58120256 44.7640467,2.38461538 L44.7640467,1.30769231 L52.7797036,1.46153846 L52.7797036,2.48717949 Z M45.2778709,2.64102564 C45.2778709,3.70086 45.3121255,4.94871077 45.3806357,6.38461538 C45.4491459,7.54701436 45.4834005,8.38461282 45.4834005,8.8974359 L46.3569016,8.8974359 C46.8707283,8.8974359 47.6072023,8.93162359 48.5663455,9 L50.4161125,9.05128205 C51.5465313,9.05128205 52.214496,8.88034359 52.4200267,8.53846154 C52.4200267,7.44443897 52.3857721,5.94018051 52.3172619,4.02564103 C52.2830068,3.41025333 52.2658795,2.72649949 52.2658795,1.97435897 L45.2778709,1.82051282 L45.2778709,2.64102564 Z M52.9852333,13.6153846 L54.0128816,13.7692308 C54.0128816,15.7179585 53.978627,18.6751938 53.9101168,22.6410256 C53.8073514,25.6153995 53.7559695,28.6581041 53.7559695,31.7692308 C53.7559695,34.811981 53.8244787,37.4444333 53.9614992,39.6666667 C53.6874583,39.9401723 53.3106576,40.1282046 52.831086,40.2307692 C52.3515144,40.3333338 51.7349316,40.3846154 50.9813191,40.3846154 C49.9879207,40.3846154 49.2343195,40.3675215 48.7204927,40.3333333 L48.7718752,40.3333333 L47.5386972,40.2820513 C46.7850846,40.2820513 46.1513745,40.3675205 45.6375478,40.5384615 C45.6375478,40.2991441 45.6718024,39.8717979 45.7403126,39.2564103 C45.2264859,39.3247867 44.8496853,39.4102559 44.6098995,39.5128205 C44.781175,37.2222108 44.8668115,34.86326 44.8668115,32.4358974 C44.8668115,31.0683692 44.8325569,29.0171077 44.7640467,26.2820513 C44.6955365,23.5469949 44.6612819,21.4615456 44.6612819,20.025641 C44.6612819,17.6324667 44.781173,15.1196713 45.0209588,12.4871795 C45.2607446,12.4871795 45.4320176,12.4700856 45.5347829,12.4358974 L46.3569016,12.3333333 C46.6309425,12.3333333 47.1533252,12.3589741 47.9240653,12.4102564 C48.6948054,12.4615387 49.5254795,12.4871795 50.4161125,12.4871795 L51.597908,12.4871795 L52.9852333,12.7435897 L52.9852333,13.6153846 Z M50.4161125,13 C49.2856937,13 48.2066737,12.9658123 47.1790203,12.8974359 L45.6889302,12.8461538 L45.4834005,12.8461538 L45.4834005,12.8974359 C45.2778698,14.7094108 45.175106,17.0512677 45.175106,19.9230769 C45.175106,21.2222287 45.2093606,23.2734903 45.2778709,26.0769231 C45.3463811,28.8803559 45.3806357,31.0170867 45.3806357,32.4871795 C45.3806357,34.8119774 45.3121265,36.9145205 45.175106,38.7948718 C45.2436163,38.7606836 45.5176531,38.7435897 45.9972247,38.7435897 C46.7165821,38.7435897 47.2989103,38.7606836 47.7442268,38.7948718 L50.0564356,38.8461538 C50.8100481,38.8461538 51.3666854,38.82906 51.7263641,38.7948718 C52.0860428,38.7606836 52.3172614,38.6581205 52.4200267,38.4871795 C52.2830062,36.0598169 52.214497,33.3077077 52.214497,30.2307692 C52.214497,26.8803251 52.2658789,23.564119 52.3686443,20.2820513 C52.4371545,17.06836 52.4714091,14.6923154 52.4714091,13.1538462 L52.4714091,13 L50.4161125,13 Z M73.0036655,15.7692308 C74.5108906,17.0000062 75.5214013,18.6666562 76.035228,20.7692308 C76.5490548,22.8718054 76.8916008,25.5469923 77.0628764,28.7948718 C77.0628764,31.4615518 76.6860757,33.7948618 75.9324632,35.7948718 C75.1788507,37.7948818 74.0484488,39.0854672 72.5412237,39.6666667 C71.2395294,40.1794897 69.6466904,40.4358974 67.7626591,40.4358974 C66.8720261,40.4358974 65.9985337,40.3589751 65.1421558,40.2051282 C64.285778,40.0512813 63.5835586,39.8547021 63.0354768,39.6153846 L63.1382416,44.7948718 C63.1382416,45.5812005 63.103987,46.5555497 63.0354768,47.7179487 L62.8813295,49.6666667 L62.8813295,50.2307692 C62.8813295,50.4017103 62.4617107,50.5726487 61.6224603,50.7435897 C60.78321,50.9145308 59.8668994,51 58.8735011,51 C57.4347862,51 56.2701298,50.9145308 55.3794968,50.7435897 L55.3794968,49.8717949 L54.3518485,49.7179487 L54.3518485,45.8717949 C54.3518485,42.72648 54.2833393,38.1795169 54.1463188,32.2307692 C54.1120637,30.7264882 54.0778091,28.9059936 54.043554,26.7692308 C54.0092988,24.6324679 53.9921715,22.179501 53.9921715,19.4102564 C53.9921715,16.2649415 54.0092988,14.0256477 54.043554,12.6923077 L56.9723517,12.6410256 C57.6231989,12.6068374 58.5652004,12.5897436 59.7983846,12.5897436 C60.517742,12.5897436 61.0743793,12.658119 61.4683131,12.7948718 C61.8622469,12.9316246 62.0592109,13.2051262 62.0592109,13.6153846 L62.0592109,13.7179487 C62.5387825,13.7179487 62.7785647,13.7692303 62.7785647,13.8717949 C63.6691977,13.1196544 64.7995995,12.7435897 66.1698042,12.7435897 C69.0129787,12.7435897 71.2909097,13.7521267 73.0036655,15.7692308 Z M71.3594282,38.1794872 C72.798143,37.6666641 73.851472,36.453001 74.5194468,34.5384615 C75.1874215,32.6239221 75.5214039,30.3675344 75.5214039,27.7692308 C75.4186385,24.7264805 75.161729,22.2136851 74.7506676,20.2307692 C74.3396063,18.2478533 73.4489866,16.5897503 72.078782,15.2564103 C70.7085774,13.9230703 68.6533013,13.2564103 65.9128921,13.2564103 C64.097371,13.2564103 62.8299507,14.0085395 62.1105933,15.5128205 C62.0078279,15.6495733 61.9393187,15.7179487 61.9050636,15.7179487 C61.7680432,15.7179487 61.6395884,15.3247903 61.5196955,14.5384615 C61.3998026,13.7521328 61.3912389,13.3247867 61.4940043,13.2564103 C61.1514531,13.1880338 60.6547614,13.1538462 60.0039142,13.1538462 L54.5573781,13.2051282 C54.523123,14.4359036 54.5059957,16.3162267 54.5059957,18.8461538 C54.5059957,21.6495867 54.523123,24.1281944 54.5573781,26.2820513 C54.5916332,28.4359082 54.6258878,30.2478559 54.660143,31.7179487 C54.7971634,37.8718256 54.8656726,42.5897272 54.8656726,45.8717949 L54.8656726,49.2564103 C55.58503,49.3931631 56.5784135,49.4615385 57.8458528,49.4615385 C58.7022306,49.4615385 59.4986501,49.4358977 60.2351351,49.3846154 C60.9716201,49.3333331 61.339857,49.2735046 61.339857,49.2051282 L61.339857,48.6410256 L61.4426219,46.8461538 C61.5111321,46.1965779 61.5453867,45.1709472 61.5453867,43.7692308 L61.5453867,41.4102564 C61.5453867,39.9059754 61.5282594,38.6239369 61.4940043,37.5641026 C61.5625145,37.9401728 62.1105881,38.256409 63.1382416,38.5128205 C64.1658951,38.7692321 65.3648061,38.8974359 66.7350107,38.8974359 C68.6532972,38.8974359 70.1947543,38.6581221 71.3594282,38.1794872 Z M64.9880086,19.6153846 C66.3924683,19.6153846 67.5228702,20.2820446 68.379248,21.6153846 C69.2356259,22.9487246 69.6638084,24.5213585 69.6638084,26.3333333 C69.6638084,27.6666733 69.5439173,28.6581164 69.3041315,29.3076923 C68.9273253,31.7350549 67.3002317,32.9487179 64.422802,32.9487179 C63.3951485,32.9487179 62.6758019,32.8205141 62.2647405,32.5641026 C61.8536792,32.307691 61.588206,31.8034226 61.4683131,31.0512821 C61.3484202,30.2991415 61.2884746,28.9658215 61.2884746,27.0512821 C61.2884746,25.3418718 61.3655475,23.9743641 61.5196955,22.9487179 C61.6738435,21.9230718 62.0163895,21.1111141 62.5473438,20.5128205 C63.0782981,19.9145269 63.8918449,19.6153846 64.9880086,19.6153846 Z M69.1499843,26.3333333 C69.1499843,24.9658051 68.9016384,23.760689 68.4049393,22.7179487 C67.9082401,21.6752085 67.1118206,21.1538462 66.0156569,21.1538462 C65.0565137,21.1538462 64.3457307,21.4358946 63.8832866,22 C63.4208426,22.5641054 63.1296785,23.3162346 63.0097856,24.2564103 C62.8898927,25.1965859 62.8299471,26.4700774 62.8299471,28.0769231 C62.8299471,29.068381 62.8470744,29.9316203 62.8813295,30.6666667 C62.9155846,31.4017131 62.9840938,31.9572631 63.0868592,32.3333333 C63.2923899,32.4017097 63.5407357,32.4358974 63.8319042,32.4358974 L64.422802,32.4358974 C67.0261908,32.4358974 68.4820113,31.376079 68.7903074,29.2564103 L68.8416898,29.1538462 C69.0472205,28.6752113 69.1499843,28.1111144 69.1499843,27.4615385 L69.1499843,26.3333333 Z M95.4884537,15.7692308 C96.9956788,17.0000062 98.0061895,18.6666562 98.5200162,20.7692308 C99.033843,22.8718054 99.376389,25.5469923 99.5476645,28.7948718 C99.5476645,31.4615518 99.1708639,33.7948618 98.4172514,35.7948718 C97.6636389,37.7948818 96.533237,39.0854672 95.0260119,39.6666667 C93.7243176,40.1794897 92.1314786,40.4358974 90.2474472,40.4358974 C89.3568142,40.4358974 88.4833219,40.3589751 87.626944,40.2051282 C86.7705661,40.0512813 86.0683468,39.8547021 85.520265,39.6153846 L85.6230298,44.7948718 C85.6230298,45.5812005 85.5887752,46.5555497 85.520265,47.7179487 L85.3661177,49.6666667 L85.3661177,50.2307692 C85.3661177,50.4017103 84.9464988,50.5726487 84.1072485,50.7435897 C83.2679982,50.9145308 82.3516876,51 81.3582893,51 C79.9195744,51 78.754918,50.9145308 77.864285,50.7435897 L77.864285,49.8717949 L76.8366366,49.7179487 L76.8366366,45.8717949 C76.8366366,42.72648 76.7681274,38.1795169 76.631107,32.2307692 C76.5968519,30.7264882 76.5625973,28.9059936 76.5283421,26.7692308 C76.494087,24.6324679 76.4769597,22.179501 76.4769597,19.4102564 C76.4769597,16.2649415 76.494087,14.0256477 76.5283421,12.6923077 L79.4571399,12.6410256 C80.1079871,12.6068374 81.0499886,12.5897436 82.2831727,12.5897436 C83.0025302,12.5897436 83.5591674,12.658119 83.9531013,12.7948718 C84.3470351,12.9316246 84.5439991,13.2051262 84.5439991,13.6153846 L84.5439991,13.7179487 C85.0235707,13.7179487 85.2633529,13.7692303 85.2633529,13.8717949 C86.1539859,13.1196544 87.2843877,12.7435897 88.6545923,12.7435897 C91.4977669,12.7435897 93.7756979,13.7521267 95.4884537,15.7692308 Z M93.8442164,38.1794872 C95.2829312,37.6666641 96.3362602,36.453001 97.004235,34.5384615 C97.6722097,32.6239221 98.0061921,30.3675344 98.0061921,27.7692308 C97.9034267,24.7264805 97.6465172,22.2136851 97.2354558,20.2307692 C96.8243944,18.2478533 95.9337748,16.5897503 94.5635702,15.2564103 C93.1933656,13.9230703 91.1380895,13.2564103 88.3976803,13.2564103 C86.5821591,13.2564103 85.3147389,14.0085395 84.5953815,15.5128205 C84.4926161,15.6495733 84.4241069,15.7179487 84.3898518,15.7179487 C84.2528313,15.7179487 84.1243766,15.3247903 84.0044837,14.5384615 C83.8845908,13.7521328 83.8760271,13.3247867 83.9787925,13.2564103 C83.6362413,13.1880338 83.1395496,13.1538462 82.4887024,13.1538462 L77.0421663,13.2051282 C77.0079112,14.4359036 76.9907839,16.3162267 76.9907839,18.8461538 C76.9907839,21.6495867 77.0079112,24.1281944 77.0421663,26.2820513 C77.0764214,28.4359082 77.110676,30.2478559 77.1449311,31.7179487 C77.2819516,37.8718256 77.3504608,42.5897272 77.3504608,45.8717949 L77.3504608,49.2564103 C78.0698182,49.3931631 79.0632017,49.4615385 80.3306409,49.4615385 C81.1870188,49.4615385 81.9834383,49.4358977 82.7199233,49.3846154 C83.4564083,49.3333331 83.8246452,49.2735046 83.8246452,49.2051282 L83.8246452,48.6410256 L83.9274101,46.8461538 C83.9959203,46.1965779 84.0301749,45.1709472 84.0301749,43.7692308 L84.0301749,41.4102564 C84.0301749,39.9059754 84.0130476,38.6239369 83.9787925,37.5641026 C84.0473027,37.9401728 84.5953763,38.256409 85.6230298,38.5128205 C86.6506833,38.7692321 87.8495943,38.8974359 89.2197989,38.8974359 C91.1380854,38.8974359 92.6795424,38.6581221 93.8442164,38.1794872 Z M87.4727968,19.6153846 C88.8772565,19.6153846 90.0076583,20.2820446 90.8640362,21.6153846 C91.7204141,22.9487246 92.1485966,24.5213585 92.1485966,26.3333333 C92.1485966,27.6666733 92.0287055,28.6581164 91.7889197,29.3076923 C91.4121135,31.7350549 89.7850199,32.9487179 86.9075902,32.9487179 C85.8799367,32.9487179 85.1605901,32.8205141 84.7495287,32.5641026 C84.3384673,32.307691 84.0729942,31.8034226 83.9531013,31.0512821 C83.8332084,30.2991415 83.7732628,28.9658215 83.7732628,27.0512821 C83.7732628,25.3418718 83.8503357,23.9743641 84.0044837,22.9487179 C84.1586317,21.9230718 84.5011777,21.1111141 85.032132,20.5128205 C85.5630863,19.9145269 86.3766331,19.6153846 87.4727968,19.6153846 Z M91.6347725,26.3333333 C91.6347725,24.9658051 91.3864266,23.760689 90.8897274,22.7179487 C90.3930283,21.6752085 89.5966088,21.1538462 88.5004451,21.1538462 C87.5413019,21.1538462 86.8305189,21.4358946 86.3680748,22 C85.9056308,22.5641054 85.6144667,23.3162346 85.4945738,24.2564103 C85.3746808,25.1965859 85.3147353,26.4700774 85.3147353,28.0769231 C85.3147353,29.068381 85.3318626,29.9316203 85.3661177,30.6666667 C85.4003728,31.4017131 85.468882,31.9572631 85.5716474,32.3333333 C85.7771781,32.4017097 86.0255239,32.4358974 86.3166924,32.4358974 L86.9075902,32.4358974 C89.510979,32.4358974 90.9667995,31.376079 91.2750956,29.2564103 L91.326478,29.1538462 C91.5320087,28.6752113 91.6347725,28.1111144 91.6347725,27.4615385 L91.6347725,26.3333333 Z M107.028787,2.48717949 L108.056436,2.48717949 L108.107818,5.25641026 C108.176328,7.23932615 108.210583,8.72649077 108.210583,9.71794872 C107.833777,10.2991482 107.011666,10.5897436 105.744227,10.5897436 C105.435931,10.5897436 104.767966,10.5555559 103.740313,10.4871795 L103.791695,10.4871795 L102.044693,10.4358974 C101.359591,10.4358974 100.760135,10.4529913 100.246308,10.4871795 L100.246308,9.41025641 L99.21866,9.46153846 C99.21866,8.81196256 99.1844054,7.83761333 99.1158952,6.53846154 C99.0473849,4.9658041 99.0131303,3.58120256 99.0131303,2.38461538 L99.0131303,1.30769231 L107.028787,1.46153846 L107.028787,2.48717949 Z M99.5269545,2.64102564 C99.5269545,3.70086 99.5612091,4.94871077 99.6297193,6.38461538 C99.6982296,7.54701436 99.7324842,8.38461282 99.7324842,8.8974359 L100.605985,8.8974359 C101.119812,8.8974359 101.856286,8.93162359 102.815429,9 L104.665196,9.05128205 C105.795615,9.05128205 106.46358,8.88034359 106.66911,8.53846154 C106.66911,7.44443897 106.634856,5.94018051 106.566345,4.02564103 C106.53209,3.41025333 106.514963,2.72649949 106.514963,1.97435897 L99.5269545,1.82051282 L99.5269545,2.64102564 Z M107.234317,13.6153846 L108.261965,13.7692308 C108.261965,15.7179585 108.227711,18.6751938 108.1592,22.6410256 C108.056435,25.6153995 108.005053,28.6581041 108.005053,31.7692308 C108.005053,34.811981 108.073562,37.4444333 108.210583,39.6666667 C107.936542,39.9401723 107.559741,40.1282046 107.08017,40.2307692 C106.600598,40.3333338 105.984015,40.3846154 105.230403,40.3846154 C104.237004,40.3846154 103.483403,40.3675215 102.969576,40.3333333 L103.020959,40.3333333 L101.787781,40.2820513 C101.034168,40.2820513 100.400458,40.3675205 99.8866314,40.5384615 C99.8866314,40.2991441 99.920886,39.8717979 99.9893962,39.2564103 C99.4755695,39.3247867 99.0987689,39.4102559 98.8589831,39.5128205 C99.0302587,37.2222108 99.1158952,34.86326 99.1158952,32.4358974 C99.1158952,31.0683692 99.0816406,29.0171077 99.0131303,26.2820513 C98.9446201,23.5469949 98.9103655,21.4615456 98.9103655,20.025641 C98.9103655,17.6324667 99.0302566,15.1196713 99.2700424,12.4871795 C99.5098282,12.4871795 99.6811012,12.4700856 99.7838666,12.4358974 L100.605985,12.3333333 C100.880026,12.3333333 101.402409,12.3589741 102.173149,12.4102564 C102.943889,12.4615387 103.774563,12.4871795 104.665196,12.4871795 L105.846992,12.4871795 L107.234317,12.7435897 L107.234317,13.6153846 Z M104.665196,13 C103.534777,13 102.455757,12.9658123 101.428104,12.8974359 L99.9380138,12.8461538 L99.7324842,12.8461538 L99.7324842,12.8974359 C99.5269535,14.7094108 99.4241897,17.0512677 99.4241897,19.9230769 C99.4241897,21.2222287 99.4584443,23.2734903 99.5269545,26.0769231 C99.5954647,28.8803559 99.6297193,31.0170867 99.6297193,32.4871795 C99.6297193,34.8119774 99.5612101,36.9145205 99.4241897,38.7948718 C99.4926999,38.7606836 99.7667367,38.7435897 100.246308,38.7435897 C100.965666,38.7435897 101.547994,38.7606836 101.99331,38.7948718 L104.305519,38.8461538 C105.059132,38.8461538 105.615769,38.82906 105.975448,38.7948718 C106.335126,38.7606836 106.566345,38.6581205 106.66911,38.4871795 C106.53209,36.0598169 106.463581,33.3077077 106.463581,30.2307692 C106.463581,26.8803251 106.514963,23.564119 106.617728,20.2820513 C106.686238,17.06836 106.720493,14.6923154 106.720493,13.1538462 L106.720493,13 L104.665196,13 Z M117.130413,14.4358974 C118.808914,13.4102513 120.624408,12.8974359 122.576949,12.8974359 C123.673113,12.8974359 124.735006,13.0854682 125.762659,13.4615385 C126.790313,13.8376087 127.561041,14.4187995 128.074868,15.2051282 L128.691457,15.6666667 C129.58209,16.3504308 130.0274,19.2221969 130.0274,24.2820513 C130.0274,25.6153913 129.993145,27.6153713 129.924635,30.2820513 C129.856125,32.8803549 129.82187,34.7777718 129.82187,35.974359 C129.82187,37.3418872 129.856125,38.7435826 129.924635,40.1794872 C128.691451,40.3504282 127.252757,40.4358974 125.608512,40.4358974 L122.525567,40.4358974 C122.491312,40.19658 122.474184,39.8547031 122.474184,39.4102564 L121.497919,39.4102564 C121.395153,38.3504221 121.343771,36.2820667 121.343771,33.2051282 L121.343771,30.6410256 C121.343771,28.6581097 121.309517,27.1196636 121.241006,26.025641 C121.172496,24.9316185 120.984096,24.0085508 120.6758,23.2564103 C120.401759,23.1538456 120.042086,23.1025641 119.596769,23.1025641 C118.569116,23.1025641 117.858333,23.444441 117.464399,24.1282051 C117.070465,24.8119692 116.873501,26.1281954 116.873501,28.0769231 C116.873501,29.0000046 116.907756,30.2820431 116.976266,31.9230769 C117.044776,33.6324872 117.079031,34.8803379 117.079031,35.6666667 C117.079031,37.1367595 117.010522,38.4187979 116.873501,39.5128205 L116.873501,40.0769231 C115.674572,40.3846169 114.681189,40.5384615 113.893321,40.5384615 C113.413749,40.5384615 113.036949,40.5213677 112.762908,40.4871795 L111.52973,40.4358974 L110.964523,40.4358974 C110.450696,40.4358974 109.954005,40.4700851 109.474433,40.5384615 L109.474433,39.4102564 L108.446785,39.5128205 L108.395402,29.8205128 C108.326892,25.512799 108.292638,22.2478744 108.292638,20.025641 C108.292638,18.2136662 108.326892,15.7692462 108.395402,12.6923077 C109.217525,12.7948723 109.988254,12.8461538 110.707611,12.8461538 C110.981652,12.8461538 111.435526,12.7948723 112.069245,12.6923077 C112.702965,12.5897431 113.567893,12.5384615 114.664057,12.5384615 C115.588945,12.5384615 116.06851,12.7435877 116.102765,13.1538462 C116.102765,13.3589754 116.265474,13.5384608 116.590898,13.6923077 C116.916321,13.8461546 117.096158,14.0085462 117.130413,14.1794872 L117.130413,14.4358974 Z M114.972352,13 C114.013208,13 112.934189,13.0854692 111.735259,13.2564103 C111.187178,13.3247867 110.844632,13.3589744 110.707611,13.3589744 L110.091022,13.3589744 C109.645706,13.3589744 109.251778,13.3247867 108.909227,13.2564103 C108.840716,14.3162446 108.806462,15.8717846 108.806462,17.9230769 L108.806462,21.0512821 C108.806462,23.1367626 108.840716,26.1623733 108.909227,30.1282051 L108.960609,38.9487179 C109.37167,38.9145297 109.919744,38.8974359 110.604846,38.8974359 L113.071202,38.9487179 C113.79056,38.9487179 114.544161,38.8461549 115.332029,38.6410256 L115.332029,38.4358974 C115.469049,37.3076867 115.537558,36.0427421 115.537558,34.6410256 C115.537558,33.7521323 115.503304,32.453 115.434793,30.7435897 C115.366283,29.0341795 115.332029,27.7350472 115.332029,26.8461538 C115.332029,24.7948615 115.588938,23.4017131 116.102765,22.6666667 C116.616592,21.9316203 117.438702,21.5641026 118.569121,21.5641026 C119.802305,21.5641026 120.598724,21.9316203 120.958403,22.6666667 C121.318082,23.4017131 121.532173,24.2222177 121.600683,25.1282051 C121.669194,26.0341926 121.720575,26.6581179 121.754831,27 C121.823341,27.5128231 121.857595,28.3333277 121.857595,29.4615385 L121.857595,36.6923077 C121.857595,37.7179538 121.89185,38.4529892 121.96036,38.8974359 L124.94054,38.9487179 C126.173725,38.9487179 127.321254,38.8632487 128.383162,38.6923077 C128.314652,37.3931559 128.280397,36.3162436 128.280397,35.4615385 C128.280397,34.2649513 128.314652,32.3333467 128.383162,29.6666667 C128.451673,26.8632338 128.485927,24.8119723 128.485927,23.5128205 C128.485927,21.1538344 128.400291,19.2478705 128.229015,17.7948718 C128.057739,16.3418731 127.749448,15.4102585 127.304132,15 C126.139458,13.9401656 124.546619,13.4102564 122.525567,13.4102564 C121.429403,13.4102564 120.453147,13.5811949 119.596769,13.9230769 C118.740391,14.264959 117.935408,14.6495705 117.181796,15.0769231 C116.428183,15.5042756 115.931491,15.7863241 115.691706,15.9230769 L115.743088,14.7435897 C115.743088,13.5811908 115.486178,13 114.972352,13 Z M152.358041,13.7179487 C152.495061,17.7179687 152.56357,22.5384333 152.56357,28.1794872 C152.56357,33.478659 152.477934,38.0939974 152.306658,42.025641 L152.306658,43.2564103 C152.306658,45.9230903 151.587311,47.7777726 150.148597,48.8205128 C148.709882,49.8632531 147.236934,50.4529908 145.729709,50.5897436 C145.250137,50.65812 144.821955,50.6923077 144.445148,50.6923077 C142.287076,50.6923077 140.480146,50.5811977 139.024304,50.3589744 C137.568461,50.136751 136.189713,49.6495764 134.888019,48.8974359 C133.586325,48.1452954 132.421668,46.9829138 131.394015,45.4102564 C131.119974,45.0341862 130.914446,44.4615423 130.777426,43.6923077 C130.640405,42.9230731 130.571896,42.1794908 130.571896,41.4615385 C130.571896,41.05128 130.589023,40.7606846 130.623279,40.5897436 C131.445401,40.2478615 132.524421,40.0769231 133.860371,40.0769231 L134.990784,40.0769231 C135.573121,40.0769231 136.069813,40.1111108 136.480874,40.1794872 C135.281945,39.8717933 134.151543,39.3247903 133.089634,38.5384615 C132.027726,37.7521328 131.291252,36.8632528 130.880191,35.8717949 L130.880191,35.9230769 C130.058068,34.3504195 129.561376,32.2820641 129.390101,29.7179487 C129.390101,26.6751985 129.55281,24.0341992 129.878233,21.7948718 C130.203657,19.5555444 131.025768,17.5555644 132.344589,15.7948718 C133.663411,14.0341792 135.692997,13.0341892 138.433406,12.7948718 C139.358294,12.7948718 140.248914,12.9230756 141.105291,13.1794872 C141.961669,13.4358987 142.663889,13.8376041 143.21197,14.3846154 C143.21197,13.7692277 143.331862,13.2393185 143.571647,12.7948718 C144.804832,12.658119 145.918106,12.5897436 146.911504,12.5897436 C147.802137,12.5897436 148.487229,12.6068374 148.966801,12.6410256 L151.330392,12.6923077 L151.381775,13.7179487 L152.358041,13.7179487 Z M150.765186,41.5128205 C150.765186,39.0170815 150.816568,36.5726615 150.919333,34.1794872 C150.987843,31.0341723 151.022098,28.6923154 151.022098,27.1538462 C151.022098,21.8546744 150.953589,17.2051482 150.816568,13.2051282 L148.144682,13.1538462 C147.52809,13.1196579 146.620343,13.1025641 145.421414,13.1025641 C144.290996,13.1025641 143.725795,13.3931595 143.725795,13.974359 L143.777177,14.8461538 L143.777177,15.3076923 C143.777177,15.6153862 143.742922,15.7692308 143.674412,15.7692308 L143.571647,15.7179487 C143.194841,14.8974318 142.621077,14.2906003 141.850336,13.8974359 C141.079596,13.5042715 140.163286,13.3076923 139.101377,13.3076923 C136.189692,13.3076923 134.065907,14.1538377 132.729958,15.8461538 C131.394008,17.53847 130.589025,19.4529808 130.314984,21.5897436 C130.040943,23.7265064 129.903925,26.4187872 129.903925,29.6666667 C130.00669,30.8974421 130.160836,31.9829013 130.366366,32.9230769 C130.571897,33.8632526 130.897316,34.7777733 131.342632,35.6666667 C132.404541,37.8205236 134.63109,38.8974359 138.022346,38.8974359 C138.296387,38.8632477 138.72457,38.8461538 139.306907,38.8461538 C140.471581,38.8119656 141.405019,38.7179495 142.107249,38.5641026 C142.809478,38.4102556 143.40037,38.0769256 143.879942,37.5641026 C143.845687,37.80342 143.828559,38.1111092 143.828559,38.4871795 L143.879942,39.7179487 C143.879942,41.1196651 143.597341,42.1709367 143.032132,42.8717949 C142.466923,43.5726531 141.704758,43.9230769 140.745614,43.9230769 C139.889237,43.9230769 139.161326,43.6581223 138.561862,43.1282051 C137.962397,42.5982879 137.66267,41.8547056 137.66267,40.8974359 C136.566506,40.7264949 135.14494,40.6410256 133.397929,40.6410256 C132.644316,40.6410256 132.061988,40.6923072 131.650927,40.7948718 C131.239865,40.8974364 131.034338,41.1196564 131.034338,41.4615385 C131.034338,43.7521482 131.830757,45.5897367 133.42362,46.974359 C135.016483,48.3589813 136.977559,49.0512821 139.306907,49.0512821 L143.571647,49.1025641 C144.153984,49.1025641 144.49653,49.0854703 144.599296,49.0512821 C146.003755,48.880341 147.382503,48.3760726 148.73558,47.5384615 C150.088657,46.7008505 150.765186,45.1709513 150.765186,42.9487179 L150.765186,41.5128205 Z M140.488702,19.6153846 C141.927417,19.6153846 142.89511,20.2905915 143.391809,21.6410256 C143.888508,22.9914597 144.136854,24.743579 144.136854,26.8974359 L144.085472,29.6153846 C143.982706,30.4359015 143.854251,31.0683738 143.700103,31.5128205 C143.545955,31.9572672 143.237664,32.3247849 142.77522,32.6153846 C142.312776,32.9059844 141.636247,33.0512821 140.745614,33.0512821 C139.169879,33.0512821 137.936714,32.4700913 137.046081,31.3076923 C136.155448,30.1452933 135.710138,28.7435979 135.710138,27.1025641 L135.710138,25.6666667 C135.710138,24.7435851 135.907102,23.8119705 136.301036,22.8717949 C136.694969,21.9316192 137.251607,21.1538492 137.970964,20.5384615 C138.690321,19.9230738 139.529559,19.6153846 140.488702,19.6153846 Z M143.571647,29.5641026 C143.571647,28.1965744 143.520265,26.7521444 143.4175,25.2307692 C143.314735,23.7093941 143.143462,22.4529964 142.903676,21.4615385 C142.492615,21.2564092 142.030177,21.1538462 141.516351,21.1538462 C140.522952,21.1538462 139.752224,21.4102538 139.204142,21.9230769 L139.306907,21.8717949 C138.587549,22.6923118 138.065167,23.5213633 137.739743,24.3589744 C137.41432,25.1965854 137.25161,26.1623877 137.25161,27.2564103 L137.25161,28.1282051 C137.25161,29.4273569 137.499956,30.4786285 137.996655,31.2820513 C138.493354,32.0854741 139.426792,32.4871795 140.796997,32.4871795 C141.584865,32.4871795 142.158629,32.3846164 142.518308,32.1794872 C142.877987,31.9743579 143.117769,31.6837626 143.237662,31.3076923 C143.357555,30.9316221 143.468882,30.3504313 143.571647,29.5641026 Z M138.022346,40.3846154 C138.090857,40.4188036 138.142239,40.5641013 138.176494,40.8205128 C138.210749,41.0769244 138.245003,41.2393159 138.279259,41.3076923 L139.204142,41.4615385 C139.204142,42.1453026 139.306906,42.6410241 139.512437,42.9487179 C139.717967,43.2564118 140.129022,43.4102564 140.745614,43.4102564 C141.327951,43.4102564 141.901716,43.1709426 142.466925,42.6923077 C143.032135,42.2136728 143.314735,41.5982944 143.314735,40.8461538 L143.366118,40.025641 C142.852291,40.1965821 142.295654,40.2991451 141.696189,40.3333333 C141.096725,40.3675215 140.728488,40.3846154 140.591467,40.3846154 C139.906365,40.3846154 139.409673,40.4017092 139.101377,40.4358974 C138.621806,40.4358974 138.262132,40.4188036 138.022346,40.3846154 Z M172.201615,12.9487179 C173.332034,12.9145297 175.079019,12.8119667 177.442622,12.6410256 L178.727182,12.5384615 C179.001223,12.94872 179.189624,13.3076908 179.292389,13.6153846 L179.754831,13.5641026 C180.234402,14.1453021 180.474184,14.9487128 180.474184,15.974359 C180.474184,16.3504292 180.43993,16.9145262 180.37142,17.6666667 C180.302909,18.4188072 180.268655,18.9999979 180.268655,19.4102564 C180.268655,19.7863267 180.320037,20.3162359 180.422802,21 L172.355763,21 C172.355763,25.2735256 172.37289,28.4187933 172.407145,30.4358974 C173.057992,30.7435913 173.880103,30.9743582 174.873501,31.1282051 C175.866899,31.2820521 176.87741,31.3589744 177.905064,31.3589744 C178.555911,31.3589744 179.018348,31.3418805 179.292389,31.3076923 L179.343771,32.1794872 L179.343771,32.3846154 C179.754833,32.3846154 180.080251,32.3675215 180.320037,32.3333333 C180.320037,32.9145328 180.371419,33.564099 180.474184,34.2820513 C180.611205,35.3760738 180.679714,36.2991415 180.679714,37.0512821 C180.679714,38.3162456 180.508441,39.4102518 180.16589,40.3333333 C179.720573,40.3675215 178.91559,40.3846154 177.750916,40.3846154 C174.49668,40.3846154 171.644985,39.9059877 169.195744,38.9487179 C166.746503,37.9914482 165.076592,36.4530021 164.185959,34.3333333 C163.843407,32.3846056 163.620752,30.5213764 163.517987,28.7435897 C163.415222,26.9658031 163.36384,24.86326 163.36384,22.4358974 L163.36384,21.2051282 L160.691954,21.1538462 L160.691954,20.1282051 L159.664306,20.1282051 L159.818453,12.8461538 C160.743341,12.8803421 161.95938,12.8974359 163.466605,12.8974359 C163.466605,11.7008487 163.449477,10.7948749 163.415222,10.1794872 L163.36384,7.15384615 C163.36384,5.58118872 163.432349,4.23077487 163.56937,3.1025641 C164.322982,3.03418769 164.888183,3 165.264989,3 C165.778816,3 166.481035,3.03418769 167.371668,3.1025641 C168.056771,3.20512872 168.75899,3.25641026 169.478347,3.25641026 L170.146319,3.25641026 C170.591635,3.25641026 170.934181,3.22222256 171.173967,3.15384615 L171.173967,4.28205128 C171.379498,4.28205128 171.722044,4.24786359 172.201615,4.17948718 L172.201615,12.9487179 Z M170.660143,3.71794872 C170.420357,3.75213692 170.026429,3.76923077 169.478347,3.76923077 C168.62197,3.76923077 167.834114,3.71794923 167.114756,3.61538462 C166.155613,3.54700821 165.453394,3.51282051 165.008077,3.51282051 C164.597016,3.51282051 164.271597,3.52991436 164.031811,3.56410256 C163.929046,4.52137231 163.877664,5.70084769 163.877664,7.1025641 L163.929046,10.5384615 C163.963302,11.2222256 163.980429,12.179481 163.980429,13.4102564 L162.233427,13.4102564 C161.411304,13.4102564 160.777594,13.3931626 160.332277,13.3589744 L160.17813,19.6153846 L162.130662,19.6153846 C162.91853,19.6153846 163.500858,19.5982908 163.877664,19.5641026 L163.877664,22.4358974 C163.877664,24.8290718 163.929046,26.914521 164.031811,28.6923077 C164.134577,30.4700944 164.357232,32.3333236 164.699783,34.2820513 C165.384885,35.9572733 166.823578,37.1367487 169.015906,37.8205128 C171.208233,38.5042769 173.777328,38.8461538 176.723268,38.8461538 C177.648156,38.8461538 178.333248,38.82906 178.778565,38.7948718 C179.018351,38.0427313 179.138242,37.1196636 179.138242,36.025641 C179.138242,35.1025595 179.018351,33.7179579 178.778565,31.8717949 C178.538779,31.9059831 178.179106,31.9230769 177.699534,31.9230769 C176.260819,31.9230769 174.890635,31.7606854 173.588941,31.4358974 C172.287246,31.1111095 171.379499,30.5726533 170.865673,29.8205128 C170.831418,28.7606785 170.81429,27.1196692 170.81429,24.8974359 L170.81429,19.4615385 L178.778565,19.4615385 C178.74431,19.3589738 178.727182,19.0854723 178.727182,18.6410256 C178.727182,18.2991436 178.761437,17.7179528 178.829947,16.8974359 C178.898457,16.076919 178.932712,15.4444467 178.932712,15 C178.932712,14.0427303 178.778566,13.3931641 178.47027,13.0512821 L176.260826,13.2051282 L170.711525,13.4615385 L170.660143,10.5897436 L170.660143,3.71794872 Z M179.991033,15.2051282 C180.504859,14.1111056 181.523934,13.290601 183.048286,12.7435897 C184.572639,12.1965785 186.293933,11.9230769 188.212219,11.9230769 C188.48626,11.9572651 189.11997,11.974359 190.113369,11.974359 L191.346547,11.9230769 C192.648241,11.9230769 193.915661,12.1282031 195.148845,12.5384615 C196.38203,12.94872 197.409668,13.5470046 198.23179,14.3333333 L198.180408,14.3333333 C198.283173,14.4700862 198.437319,14.6495715 198.64285,14.8717949 C198.84838,15.0940182 199.036781,15.2564097 199.208056,15.3589744 L199.156674,15.3076923 C200.081562,15.92308 200.706708,17.1538369 201.032132,19 C201.357556,20.8461631 201.520265,23.1367385 201.520265,25.8717949 C201.520265,28.2991574 201.366119,30.8119528 201.057823,33.4102564 C200.749527,36.00856 200.321345,37.6153815 199.773263,38.2307692 C199.053905,39.2564154 198.077649,39.9572631 196.844465,40.3333333 C195.611281,40.7094036 194.172588,40.8974359 192.528342,40.8974359 C190.781331,40.8974359 189.368329,40.8461544 188.289293,40.7435897 C187.210257,40.6410251 186.148364,40.3589767 185.103583,39.8974359 C184.058802,39.4358951 183.056855,38.7094067 182.097712,37.7179487 L181.63527,37.2564103 C180.573361,36.2649523 179.854015,34.9914608 179.477208,33.4358974 C179.100402,31.8803341 178.912002,30.0598395 178.912002,27.974359 L178.912002,26.1282051 L178.963384,24.3846154 C178.963384,23.9743569 178.946257,23.5811985 178.912002,23.2051282 C178.877747,22.8290579 178.860619,22.487181 178.860619,22.1794872 C178.860619,20.7093944 178.894874,19.5982944 178.963384,18.8461538 C179.031895,18.0940133 179.288804,17.1880395 179.734121,16.1282051 L179.682738,16.1282051 C179.716993,15.9230759 179.759811,15.7179497 179.811194,15.5128205 C179.862577,15.3076913 179.922522,15.1709405 179.991033,15.1025641 L179.991033,15.1538462 L179.93965,15.3076923 L179.991033,15.2051282 Z M179.425826,24.2820513 L179.425826,28.0769231 C179.425826,31.0854851 179.931081,33.5726397 180.941607,35.5384615 C181.952133,37.5042833 183.776191,38.7093995 186.413835,39.1538462 L188.828808,39.2051282 C189.993482,39.2735046 190.901229,39.3076923 191.552076,39.3076923 C193.162067,39.3076923 194.532251,39.1367538 195.66267,38.7948718 C196.793088,38.4529897 197.683708,37.8205174 198.334555,36.8974359 C198.916892,36.3162364 199.302256,35.0171041 199.49066,33 C199.679063,30.9828959 199.841772,28.2649744 199.978792,24.8461538 C199.978792,24.53846 199.944538,23.4359069 199.876028,21.5384615 C199.807517,19.6410162 199.610553,18.1196638 199.28513,16.974359 C198.959706,15.8290541 198.488705,15.0683779 197.872113,14.6923077 C196.330633,13.1880267 194.086957,12.4358974 191.141017,12.4358974 L189.188485,12.4871795 C188.743169,12.4871795 188.400623,12.4700856 188.160837,12.4358974 C186.413826,12.4358974 184.80386,12.6923051 183.33089,13.2051282 C181.85792,13.7179513 180.898791,14.4529867 180.453474,15.4102564 C180.076668,16.7435964 179.802631,17.9230718 179.631356,18.9487179 C179.46008,19.9743641 179.374444,21.0341826 179.374444,22.1282051 L179.425826,24.2820513 Z M189.959221,20.1794872 C192.357079,20.1794872 193.55599,21.9572472 193.55599,25.5128205 C193.55599,26.9829133 193.487481,28.1538418 193.350461,29.025641 C193.21344,29.8974403 192.853767,30.6068349 192.27143,31.1538462 C191.689093,31.7008574 190.798473,31.974359 189.599544,31.974359 C188.571891,31.974359 187.732653,31.752139 187.081806,31.3076923 C186.430959,30.8632456 186.10554,30.1453041 186.10554,29.1538462 C186.139795,28.7093995 186.156923,27.9230826 186.156923,26.7948718 C186.156923,25.2222144 186.199741,24.0000044 186.285379,23.1282051 C186.371016,22.2564059 186.56798,21.7008559 186.876276,21.4615385 C187.561379,20.6068333 188.589017,20.1794872 189.959221,20.1794872 Z M188.212219,22.8974359 C187.938178,23.0683769 187.775469,23.8461469 187.724086,25.2307692 C187.672704,26.6153915 187.647013,28.2820415 187.647013,30.2307692 C187.647013,30.7777805 187.818286,31.1196574 188.160837,31.2564103 C188.503388,31.3931631 188.982952,31.4615385 189.599544,31.4615385 C191.689106,31.4615385 192.733872,30.7435969 192.733872,29.3076923 C192.939403,27.4615292 193.042166,26.1282092 193.042166,25.3076923 C193.042166,24.1794815 192.913712,23.3076954 192.656798,22.6923077 C192.399885,22.07692 191.808993,21.7692308 190.884105,21.7692308 C190.678574,21.7692308 190.301774,21.8034185 189.753692,21.8717949 L189.805074,21.8717949 C189.154227,22.0427359 188.657535,22.3504251 188.314984,22.7948718 L188.212219,22.8974359 Z M201.653702,15.2051282 C202.167529,14.1111056 203.186603,13.290601 204.710956,12.7435897 C206.235309,12.1965785 207.956602,11.9230769 209.874889,11.9230769 C210.14893,11.9572651 210.78264,11.974359 211.776038,11.974359 L213.009216,11.9230769 C214.31091,11.9230769 215.578331,12.1282031 216.811515,12.5384615 C218.044699,12.94872 219.072337,13.5470046 219.89446,14.3333333 L219.843077,14.3333333 C219.945843,14.4700862 220.099988,14.6495715 220.305519,14.8717949 C220.51105,15.0940182 220.69945,15.2564097 220.870726,15.3589744 L220.819343,15.3076923 C221.744231,15.92308 222.369378,17.1538369 222.694802,19 C223.020225,20.8461631 223.182934,23.1367385 223.182934,25.8717949 C223.182934,28.2991574 223.028789,30.8119528 222.720493,33.4102564 C222.412197,36.00856 221.984014,37.6153815 221.435932,38.2307692 C220.716575,39.2564154 219.740319,39.9572631 218.507135,40.3333333 C217.27395,40.7094036 215.835257,40.8974359 214.191012,40.8974359 C212.444001,40.8974359 211.030998,40.8461544 209.951962,40.7435897 C208.872926,40.6410251 207.811034,40.3589767 206.766253,39.8974359 C205.721472,39.4358951 204.719524,38.7094067 203.760381,37.7179487 L203.297939,37.2564103 C202.236031,36.2649523 201.516684,34.9914608 201.139878,33.4358974 C200.763072,31.8803341 200.574671,30.0598395 200.574671,27.974359 L200.574671,26.1282051 L200.626054,24.3846154 C200.626054,23.9743569 200.608927,23.5811985 200.574671,23.2051282 C200.540416,22.8290579 200.523289,22.487181 200.523289,22.1794872 C200.523289,20.7093944 200.557544,19.5982944 200.626054,18.8461538 C200.694564,18.0940133 200.951474,17.1880395 201.39679,16.1282051 L201.345408,16.1282051 C201.379663,15.9230759 201.422481,15.7179497 201.473864,15.5128205 C201.525246,15.3076913 201.585192,15.1709405 201.653702,15.1025641 L201.653702,15.1538462 L201.60232,15.3076923 L201.653702,15.2051282 Z M201.088496,24.2820513 L201.088496,28.0769231 C201.088496,31.0854851 201.593751,33.5726397 202.604277,35.5384615 C203.614803,37.5042833 205.43886,38.7093995 208.076504,39.1538462 L210.491478,39.2051282 C211.656152,39.2735046 212.563899,39.3076923 213.214746,39.3076923 C214.824736,39.3076923 216.19492,39.1367538 217.325339,38.7948718 C218.455758,38.4529897 219.346378,37.8205174 219.997225,36.8974359 C220.579562,36.3162364 220.964926,35.0171041 221.153329,33 C221.341732,30.9828959 221.504442,28.2649744 221.641462,24.8461538 C221.641462,24.53846 221.607207,23.4359069 221.538697,21.5384615 C221.470187,19.6410162 221.273223,18.1196638 220.947799,16.974359 C220.622376,15.8290541 220.151375,15.0683779 219.534783,14.6923077 C217.993303,13.1880267 215.749626,12.4358974 212.803686,12.4358974 L210.851155,12.4871795 C210.405838,12.4871795 210.063292,12.4700856 209.823506,12.4358974 C208.076495,12.4358974 206.466529,12.6923051 204.993559,13.2051282 C203.520589,13.7179513 202.56146,14.4529867 202.116144,15.4102564 C201.739338,16.7435964 201.465301,17.9230718 201.294025,18.9487179 C201.12275,19.9743641 201.037113,21.0341826 201.037113,22.1282051 L201.088496,24.2820513 Z M211.621891,20.1794872 C214.019749,20.1794872 215.21866,21.9572472 215.21866,25.5128205 C215.21866,26.9829133 215.150151,28.1538418 215.01313,29.025641 C214.87611,29.8974403 214.516437,30.6068349 213.9341,31.1538462 C213.351763,31.7008574 212.461143,31.974359 211.262214,31.974359 C210.234561,31.974359 209.395323,31.752139 208.744476,31.3076923 C208.093628,30.8632456 207.76821,30.1453041 207.76821,29.1538462 C207.802465,28.7093995 207.819592,27.9230826 207.819592,26.7948718 C207.819592,25.2222144 207.86241,24.0000044 207.948048,23.1282051 C208.033686,22.2564059 208.23065,21.7008559 208.538946,21.4615385 C209.224048,20.6068333 210.251686,20.1794872 211.621891,20.1794872 Z M209.874889,22.8974359 C209.600848,23.0683769 209.438138,23.8461469 209.386756,25.2307692 C209.335373,26.6153915 209.309682,28.2820415 209.309682,30.2307692 C209.309682,30.7777805 209.480955,31.1196574 209.823506,31.2564103 C210.166057,31.3931631 210.645622,31.4615385 211.262214,31.4615385 C213.351776,31.4615385 214.396541,30.7435969 214.396541,29.3076923 C214.602072,27.4615292 214.704836,26.1282092 214.704836,25.3076923 C214.704836,24.1794815 214.576381,23.3076954 214.319468,22.6923077 C214.062554,22.07692 213.471662,21.7692308 212.546774,21.7692308 C212.341244,21.7692308 211.964443,21.8034185 211.416361,21.8717949 L211.467744,21.8717949 C210.816896,22.0427359 210.320205,22.3504251 209.977654,22.7948718 L209.874889,22.8974359 Z M230.972352,2.17948718 L232,2.17948718 C232,3.75214462 231.965745,7.37604 231.897235,13.0512821 C231.86298,14.7265041 231.828725,16.9316103 231.79447,19.6666667 C231.760215,22.4017231 231.743088,25.5982723 231.743088,29.2564103 C231.743088,33.9743826 231.811597,37.4444333 231.948618,39.6666667 C231.674577,39.9401723 231.297776,40.1282046 230.818204,40.2307692 C230.338633,40.3333338 229.72205,40.3846154 228.968437,40.3846154 C227.975039,40.3846154 227.221438,40.3675215 226.707611,40.3333333 L226.758994,40.3333333 L225.525816,40.2820513 C224.772203,40.2820513 224.138493,40.3675205 223.624666,40.5384615 L223.676049,39.3076923 C223.264987,39.3076923 222.905314,39.3760677 222.597018,39.5128205 C222.836804,36.1623764 222.956695,33.0683903 222.956695,30.2307692 C222.956695,28.1452887 222.888186,24.9487395 222.751165,20.6410256 C222.614145,16.4016882 222.545635,13.1709513 222.545635,10.9487179 C222.545635,7.35895641 222.699781,4.04275026 223.008077,1 L230.972352,1.15384615 L230.972352,2.17948718 Z M223.470519,1.51282051 C223.162223,4.79488821 223.008077,8.05981282 223.008077,11.3076923 C223.008077,14.2478779 223.093714,17.4786149 223.264989,21 C223.40201,25.3077138 223.470519,28.5042631 223.470519,30.5897436 C223.470519,33.3248 223.367755,36.0598154 223.162224,38.7948718 C223.230735,38.7606836 223.504771,38.7435897 223.984343,38.7435897 C224.703701,38.7435897 225.286029,38.7606836 225.731345,38.7948718 L228.043554,38.8461538 C228.797166,38.8461538 229.353804,38.82906 229.713482,38.7948718 C230.073161,38.7606836 230.30438,38.6581205 230.407145,38.4871795 C230.30438,36.8119574 230.252998,33.3760944 230.252998,28.1794872 C230.252998,24.2478436 230.287252,18.8632821 230.355763,12.025641 L230.458528,1.66666667 L223.470519,1.51282051 Z" id="snipping-tool"></path>
</svg>