<svg class="svg-icon" viewBox="0 0 22 22" xmlns="http://www.w3.org/2000/svg"><path d="m7.01216813 10.633662c0 1.6544035.74703906 3.1304315 1.91423375 4.0932003l-1.70348847 3.1018632c-1.48934129-1.0702085-2.63108636-2.6122787-3.21698753-4.4136677.80267512-.5714097 1.32557662-1.5207321 1.32557662-2.5975095 0-1.11636741-.56574816-2.09862261-1.41884885-2.66077414.54494923-1.90173072 1.70004352-3.53545742 3.23511662-4.66421325l1.83168396 3.00152148c-1.19673521.9631215-1.9672861 2.45912086-1.9672861 4.13957961zm-2.54646959.1838422c0 1.2557701-.99610949 2.2745292-2.22238521 2.2745292-1.22687859 0-2.22225603-1.018715-2.22225603-2.2745292 0-1.25515283.99537744-2.27386786 2.22225603-2.27386786 1.22627572 0 2.22238521 1.01871503 2.22238521 2.27386786zm12.47892826 5.5001883c-1.6283453 0-2.9620176 1.289761-3.0802658 2.924149-.5543367.1158162-1.1296016.176612-1.7161917.176612-1.3592511 0-2.64318679-.3236857-3.78691271-.8998569l1.71563191-3.0730304c.6335708.2865205 1.3356532.4449687 2.0713239.4449687 2.6579139 0 4.8447299-2.0645876 5.1104654-4.7146927l3.4513307.0683787c-.1423198 2.0999893-1.0027841 3.9959006-2.3344324 5.4327354-.4275623-.2298248-.9141195-.3592638-1.4309493-.3592638zm2.2210072 3.1619535c0 1.2555056-.9940425 2.2738238-2.2210072 2.2738238s-2.2217393-1.0183182-2.2217393-2.2738238c0-1.2564754.9947746-2.2745292 2.2217393-2.2745292s2.2210072 1.0180538 2.2210072 2.2745292zm-.5537769-14.6233904c1.1745583 1.37639172 1.9377025 3.12875616 2.0900988 5.0579089l-3.4512877.1078805c-.2966969-2.61611413-2.4680537-4.64737203-5.1024558-4.64737203-.7531108 0-1.4685424.16735371-2.1135677.46485183l-1.7055554-3.07505836c1.14979766-.58542939 2.4472118-.91599265 3.8191231-.91599265.5477051 0 1.0839559.05219884 1.6028526.15390722-.0067177.09002537-.0107655.17974212-.0107655.27250087 0 1.74641272 1.3819878 3.16168904 3.0888351 3.16168904.6644893 0 1.2798879-.21576109 1.7827225-.58031532zm.4376388-2.58132963c0 1.25612276-.9920617 2.27452919-2.2203182 2.27452919-1.2268786 0-2.2216532-1.01840643-2.2216532-2.27452919-.000043-1.25621094.9947315-2.27492597 2.2216101-2.27492597 1.2282566 0 2.2203613 1.01871503 2.2203613 2.27492597z"/></svg>