<svg xmlns="http://www.w3.org/2000/svg" viewbox="0 0 26 25" class="svg-icon" >
    <path fill-rule="evenodd" d="M20.415 24.992v-9.015c0-2.265-.805-3.811-2.822-3.811-1.538 0-2.455 1.043-2.858 2.047-.147.362-.183.864-.183 1.368v9.411h-5.57s.072-15.273 0-16.852h5.57v2.389l-.037.055h.037v-.055c.74-1.149 2.061-2.787 5.02-2.787 3.665 0 6.414 2.411 6.414 7.586v9.664h-5.571zM3.114 5.839h-.037c-1.869 0-3.078-1.295-3.078-2.914 0-1.654 1.246-2.911 3.152-2.911 1.905 0 3.078 1.257 3.115 2.911 0 1.619-1.21 2.914-3.152 2.914zm2.785 19.153H.329V8.14h5.57v16.852z"/>
</svg>
