<svg class="svg-icon" viewBox="0 0 26 31" fill="none" xmlns="http://www.w3.org/2000/svg">
<path fill-rule="evenodd" clip-rule="evenodd" d="M20.416 27.977V18.963C20.416 16.698 19.611 15.152 17.594 15.152C16.056 15.152 15.139 16.195 14.736 17.199C14.589 17.561 14.553 18.063 14.553 18.567V27.977H8.983C8.983 27.977 9.055 12.705 8.983 11.126H14.553V13.515L14.516 13.57H14.553V13.515C15.293 12.365 16.614 10.728 19.573 10.728C23.238 10.728 25.987 13.138 25.987 18.314V27.977H20.416ZM3.115 8.825H3.078C1.209 8.825 0 7.53 0 5.911C0 4.257 1.246 3 3.152 3C5.057 3 6.23 4.257 6.267 5.911C6.267 7.53 5.057 8.825 3.115 8.825ZM5.9 27.977H0.33V11.126H5.9V27.977Z"/>
</svg>
