<svg width="10" height="17" viewBox="0 0 10 17" fill="none" xmlns="http://www.w3.org/2000/svg">
<path d="M9.67201 9.71895C9.45428 9.25837 9.15949 8.89771 8.78764 8.64183C8.53118 8.45906 8.15854 8.28994 7.67367 8.13836C8.12653 7.94828 8.48969 7.70849 8.76709 7.418C9.04212 7.12752 9.25354 6.79318 9.40093 6.41302C9.54714 6.03432 9.62104 5.6332 9.62104 5.21161C9.62104 4.63114 9.48234 4.09794 9.20572 3.61153C8.92792 3.12511 8.53197 2.75275 8.01668 2.49298C7.71793 2.34237 7.34727 2.24051 6.91891 2.17715V0H5.46708V2.10355H4.53371V0H3.08188V2.10355H7.08491e-08V3.87374H0.408204C0.680076 3.87374 0.865012 3.90444 0.962222 3.96537C1.05825 4.02629 1.12661 4.10915 1.16613 4.21296C1.20683 4.31677 1.2254 4.55803 1.2254 4.93721V12.0716C1.2254 12.4439 1.20564 12.6847 1.16613 12.7914C1.12661 12.8991 1.05904 12.981 0.962222 13.039C0.865012 13.097 0.680076 13.1267 0.408204 13.1267H7.08491e-08V14.8974H3.08188V17H4.53292V14.8974H5.43468C5.44495 14.8974 5.45562 14.8964 5.46629 14.8964V17H6.91812V14.7921C7.38718 14.7171 7.78076 14.6021 8.09531 14.4466C8.7011 14.1468 9.17095 13.7111 9.50209 13.1389C9.83403 12.5677 10 11.9424 10 11.263C9.99921 10.6957 9.88975 10.181 9.67201 9.71895ZM3.79159 4.16714H4.92848C5.59314 4.16714 6.0539 4.21783 6.31155 4.31872C6.56919 4.41961 6.76598 4.59019 6.90271 4.82755C7.03865 5.06637 7.10741 5.35344 7.10741 5.69071C7.10741 6.01433 7.03549 6.29994 6.89125 6.54753C6.74781 6.79561 6.53323 6.98082 6.24832 7.10267C5.96341 7.225 5.52359 7.28641 4.92848 7.28641H3.79159V4.16714V4.16714ZM7.00387 12.0716C6.80076 12.3888 6.55457 12.5989 6.26531 12.6998C5.97645 12.8007 5.61171 12.8519 5.1715 12.8519H4.41476C4.16186 12.8519 4.00814 12.8348 3.95084 12.8012C3.89394 12.7671 3.85363 12.7081 3.82834 12.6223C3.80779 12.5546 3.79594 12.3269 3.7908 11.9341V9.16479H5.13277C5.72196 9.16479 6.15941 9.23254 6.44669 9.36657C6.73319 9.5006 6.94855 9.69994 7.09199 9.96264C7.23544 10.2263 7.30736 10.547 7.30736 10.9267C7.30815 11.3717 7.2062 11.7533 7.00387 12.0716Z" fill="#EA064A"/>
</svg>
