<svg width="8" height="17" viewBox="0 0 8 17" fill="none" xmlns="http://www.w3.org/2000/svg">
<path d="M6.14726 7.72239C5.54139 7.35373 4.89726 7.07284 4.2595 6.78142C3.8896 6.61289 3.53565 6.41627 3.22315 6.14241C2.60772 5.60171 2.7257 4.72394 3.44637 4.37634C3.65045 4.27804 3.86409 4.24644 4.08093 4.23239C4.91639 4.18324 5.7104 4.35177 6.46614 4.75203C6.84241 4.95216 6.96677 4.88896 7.09432 4.4571C7.22825 4.00066 7.33986 3.5372 7.46422 3.07725C7.54713 2.76828 7.44509 2.56464 7.18042 2.43473C6.69573 2.19949 6.19828 2.03096 5.67532 1.93967C4.99292 1.8238 4.99292 1.82029 4.98973 1.06541C4.98654 0.00156049 4.98654 0.00156047 4.01716 0.00156047C3.87685 0.00156047 3.73654 -0.00195059 3.59624 0.00156047C3.14343 0.0156047 3.0669 0.103381 3.05415 0.605463C3.04777 0.830171 3.05415 1.05488 3.05096 1.2831C3.04777 1.9502 3.04458 1.93967 2.46422 2.1714C1.06116 2.73317 0.193814 3.78649 0.10134 5.4718C0.0184316 6.964 0.72634 7.97167 1.83922 8.70549C2.52481 9.15841 3.28374 9.42525 4.01078 9.77987C4.29458 9.9168 4.56563 10.0748 4.80159 10.2925C5.49994 10.928 5.37239 11.9848 4.5433 12.3851C4.10006 12.5993 3.63131 12.6519 3.14981 12.5852C2.40682 12.4834 1.69573 12.2692 1.02608 11.8865C0.633865 11.6618 0.519069 11.7215 0.385141 12.1885C0.270345 12.5922 0.168304 12.9995 0.0662633 13.4068C-0.070854 13.9545 -0.0198339 14.0844 0.455294 14.3407C1.06116 14.6638 1.70848 14.8288 2.36856 14.9446C2.88514 15.0359 2.90108 15.0605 2.90746 15.6504C2.91065 15.9172 2.91065 16.1876 2.91384 16.4544C2.91703 16.7915 3.06371 16.9881 3.3794 16.9951C3.73654 17.0021 4.09687 17.0021 4.45402 16.9916C4.74739 16.9846 4.89726 16.809 4.89726 16.4825C4.89726 16.1173 4.9132 15.7487 4.90045 15.3835C4.8845 15.0114 5.03119 14.8218 5.35644 14.7234C6.1058 14.4987 6.74356 14.0563 7.23463 13.3963C8.59943 11.5705 8.07966 8.89859 6.14726 7.72239Z" fill="#EA064A"/>
</svg>
