<svg width="20" height="38" viewBox="0 0 20 38" fill="none" xmlns="http://www.w3.org/2000/svg">
<path d="M19.2469 0.00790654L14.4498 0C9.0604 0 5.57756 3.67061 5.57756 9.35185V13.6637H0.754296C0.337509 13.6637 0 14.0108 0 14.4389V20.6863C0 21.1144 0.337894 21.4611 0.754296 21.4611H5.57756V37.2252C5.57756 37.6533 5.91506 38 6.33185 38H12.6248C13.0416 38 13.3791 37.6529 13.3791 37.2252V21.4611H19.0186C19.4354 21.4611 19.7729 21.1144 19.7729 20.6863L19.7753 14.4389C19.7753 14.2333 19.6956 14.0365 19.5544 13.891C19.4131 13.7455 19.2207 13.6637 19.0206 13.6637H13.3791V10.0085C13.3791 8.25166 13.7867 7.3598 16.0145 7.3598L19.2461 7.35861C19.6625 7.35861 20 7.01152 20 6.58377V0.782747C20 0.355399 19.6629 0.00869719 19.2469 0.00790654Z" fill="white"/>
</svg>
