<svg width="52" height="44" viewBox="0 0 52 44" fill="none" xmlns="http://www.w3.org/2000/svg">
<path d="M17.316 19.944V25.452H6.516H0V0H6.516H16.992V5.508H6.516V9.972H15.336V15.48H6.516V19.944H17.316Z" transform="translate(34.4375 8.54797)" fill="black"/>
<path fill-rule="evenodd" clip-rule="evenodd" d="M14.9236 40.5479V44H10.4861V40.1017C6.99194 39.595 4.19312 38.7565 3.0271 37.6006C-1.00806 33.6005 -1.01001 10.0032 3.0271 6.00067C4.18921 4.84814 6.98999 4.02771 10.4861 3.53925V0H14.9236V3.1142C17.5642 2.96198 20.3533 2.96198 22.9939 3.11414V0H27.4314V3.53888C30.9314 4.0274 33.7361 4.84808 34.8982 6.00067C38.9314 9.99994 39.1326 33.4017 34.8982 37.6006C33.6873 38.8006 30.8962 39.6414 27.4314 40.137V44H22.9939V40.5677C20.3513 40.7189 17.5642 40.7108 14.9236 40.5479ZM6.40796 9.55756C9.57983 6.41296 28.2791 6.41553 31.449 9.55756C34.6189 12.6996 34.7771 31.0851 31.449 34.384C28.1208 37.683 9.57983 37.5269 6.40796 34.384C3.23804 31.2413 3.23804 12.7021 6.40796 9.55756Z" transform="translate(0 44) scale(1 -1)" fill="black"/>
<mask id="mask0" mask-type="alpha" maskUnits="userSpaceOnUse" x="4" y="7" width="30" height="30">
<path d="M2.37779 2.35748C5.54846 -0.787107 24.249 -0.784545 27.4181 2.35748C30.5873 5.4995 30.7455 23.885 27.4181 27.184C24.0907 30.483 5.54788 30.3268 2.37779 27.184C-0.792306 24.0412 -0.792885 5.50206 2.37779 2.35748Z" transform="translate(4.03125 36.8) scale(1 -1)" fill="black"/>
</mask>
<g mask="url(#mask0)">
<path d="M15.795 7.911H20.655V27H15.795V26.892V25.731V16.227L13.419 20.547L13.311 20.763H8.451L8.316 20.547L7.992 19.926L5.967 16.227V25.731V26.892V27H5.319H1.08V7.911H5.967L10.881 16.038L15.795 7.911Z" transform="translate(7.99805 4)" fill="#EA064A"/>
</g>
</svg>
