<svg width="399" height="210" viewBox="0 0 399 210" fill="none" xmlns="http://www.w3.org/2000/svg">
<path fill-rule="evenodd" clip-rule="evenodd" d="M156.727 421.147V457H110.129V416.515C73.4302 411.252 44.0239 402.543 31.7798 390.535C-10.5894 348.987 -10.5972 103.897 31.7798 62.3252C43.9849 50.3516 73.4067 41.8293 110.129 36.7563V0H156.727V32.3433C184.454 30.7637 213.719 30.7646 241.448 32.345V0H288.045V36.7578C324.79 41.8323 354.231 50.3557 366.436 62.3252C408.792 103.863 410.907 346.922 366.436 390.535C353.729 402.996 324.42 411.729 288.045 416.876V457H241.448V421.351C213.706 422.922 184.444 422.838 156.727 421.147ZM67.3228 99.2678C100.616 66.6069 296.971 66.6335 330.249 99.2678C363.526 131.902 365.186 322.861 330.249 357.125C295.311 391.389 100.61 389.767 67.3228 357.125C34.0376 324.483 34.0298 131.929 67.3228 99.2678Z" transform="translate(0 457) scale(1 -1)" fill="black"/>
</svg>
