<svg width="38" height="33" viewBox="0 0 38 33" fill="none" xmlns="http://www.w3.org/2000/svg">
<path d="M0.671193 15.8234L9.42717 19.083L12.8163 29.9541C13.0331 30.6504 13.8867 30.9077 14.4533 30.4457L19.334 26.4771C19.8456 26.0613 20.5744 26.0406 21.109 26.4277L29.9121 32.8025C30.5182 33.2419 31.3769 32.9106 31.5289 32.1801L37.9776 1.24059C38.1435 0.442627 37.3575 -0.223058 36.5957 0.0708089L0.660933 13.8976C-0.225862 14.2387 -0.218135 15.491 0.671193 15.8234ZM12.2701 17.3478L29.3825 6.83543C29.6901 6.64706 30.0065 7.06183 29.7424 7.30617L15.6197 20.4C15.1232 20.8609 14.803 21.4777 14.7123 22.1472L14.2313 25.7032C14.1675 26.178 13.4989 26.2251 13.3675 25.7656L11.5173 19.2812C11.3054 18.5416 11.6142 17.7516 12.2701 17.3478Z" fill="white"/>
</svg>
