<svg width="42" height="35" viewBox="0 0 42 35" fill="none" xmlns="http://www.w3.org/2000/svg">
<path d="M42 4.14105C40.4542 4.84377 38.7955 5.32035 37.0528 5.53311C38.8322 4.43992 40.1943 2.70597 40.8399 0.646183C39.1708 1.65855 37.3283 2.39365 35.3652 2.79215C33.7931 1.07164 31.557 0 29.0768 0C24.3186 0 20.4606 3.958 20.4606 8.83683C20.4606 9.52877 20.5367 10.2046 20.6837 10.8509C13.524 10.4819 7.17535 6.96284 2.92628 1.61546C2.18352 2.91867 1.76098 4.43718 1.76098 6.05813C1.76098 9.12493 3.28321 11.8309 5.5928 13.414C4.18079 13.3656 2.85278 12.9671 1.69016 12.3047V12.4151C1.69016 16.6962 4.66112 20.2692 8.60047 21.0823C7.87872 21.2816 7.11764 21.392 6.33027 21.392C5.77391 21.392 5.23587 21.3355 4.70833 21.2277C5.80534 24.7415 8.9863 27.2966 12.7551 27.3667C9.80777 29.7361 6.09145 31.1443 2.05498 31.1443C1.35951 31.1443 0.674472 31.1012 0 31.0231C3.81343 33.5353 8.34072 35 13.2065 35C29.0559 35 37.7195 21.532 37.7195 9.85194L37.6906 8.70763C39.3834 7.46899 40.8478 5.91274 42 4.14105Z" fill="white"/>
</svg>
