<svg width="62" height="34" viewBox="0 0 62 34" fill="none" xmlns="http://www.w3.org/2000/svg">
<path fill-rule="evenodd" clip-rule="evenodd" d="M53.3598 21.6187C55.4165 23.5645 57.5872 25.3952 59.4317 27.5372C60.2465 28.489 61.018 29.4713 61.6081 30.5759C62.4443 32.1462 61.6869 33.8743 60.2339 33.968L51.2016 33.9641C48.872 34.1514 47.0136 33.2426 45.4509 31.6991C44.2004 30.4648 43.0423 29.1511 41.8398 27.8751C41.3469 27.3536 40.8309 26.8629 40.2145 26.475C38.9814 25.6994 37.9112 25.9369 37.2065 27.183C36.4889 28.4505 36.3261 29.854 36.2556 31.2666C36.1589 33.3277 35.516 33.8695 33.3795 33.9639C28.8137 34.1725 24.4804 33.5032 20.455 31.2712C16.906 29.3035 14.1539 26.5257 11.7586 23.3809C7.0947 17.2574 3.52312 10.5287 0.313121 3.61142C-0.409425 2.05295 0.118989 1.21637 1.89347 1.18676C4.84008 1.13129 7.78629 1.13524 10.7364 1.18282C11.9339 1.19979 12.7268 1.86542 13.1892 2.96177C14.7834 6.76032 16.7341 10.3743 19.1826 13.7242C19.8347 14.616 20.4996 15.5079 21.4464 16.1356C22.4939 16.8306 23.2914 16.6003 23.7841 15.4696C24.0968 14.7526 24.2337 13.9804 24.3042 13.2125C24.5377 10.5707 24.5684 7.93347 24.159 5.30095C23.9076 3.658 22.9526 2.59442 21.2608 2.28351C20.3975 2.125 20.5261 1.8137 20.9441 1.3362C21.6701 0.512646 22.3529 0 23.7141 0H33.922C35.529 0.30735 35.8859 1.00693 36.1059 2.57389L36.1147 13.5617C36.0972 14.1683 36.4274 15.9684 37.5549 16.3699C38.4573 16.6557 39.0521 15.9562 39.5936 15.4017C42.0376 12.888 43.782 9.91733 45.3403 6.84126C46.0319 5.48868 46.6265 4.08399 47.2028 2.68048C47.6298 1.639 48.2998 1.12656 49.5104 1.14926L59.3349 1.15775C59.6262 1.15775 59.921 1.16189 60.2031 1.20867C61.8587 1.48207 62.3123 2.17218 61.801 3.73874C60.9954 6.19655 59.4278 8.24477 57.8952 10.3025C56.2567 12.4993 54.5045 14.621 52.8797 16.8308C51.3869 18.8488 51.5055 19.866 53.3598 21.6187Z" fill="white"/>
</svg>
