<?xml version="1.0" encoding="UTF-8"?>
<svg  viewBox="0 0 50 50" version="1.1" xmlns="http://www.w3.org/2000/svg" xmlns:xlink="http://www.w3.org/1999/xlink">
    <g transform="translate(0.000000, 1.000000)">
        <path d="M25.2529241,38.5916109 C25.0471378,38.5425371 24.8315521,38.5229076 24.6159664,38.5229076 C17.3644476,38.5229076 10.1031295,38.5229076 2.85161076,38.5229076 C2.00886668,38.5229076 1.71488619,38.2480945 1.71488619,37.43347 C1.71488619,29.8074065 1.71488619,22.1715282 1.71488619,14.5454647 C1.71488619,14.3786139 1.71488619,14.2215779 1.71488619,14.0547271 C14.9734063,14.0547271 28.163331,14.0547271 41.3924531,14.0547271 C41.3924531,15.4876811 41.3924531,16.8813761 41.3924531,18.2848858 C41.3924531,19.4822858 41.3826537,20.6796857 41.4022524,21.8672709 C41.4120518,22.4070823 41.7452296,22.7407839 42.2253978,22.7505987 C42.7251646,22.7604135 43.0779412,22.4168971 43.1171386,21.8672709 C43.126938,21.7494938 43.1171386,21.6317168 43.1171386,21.5139398 C43.1171386,16.4986007 43.1171386,11.4734469 43.1171386,6.45810783 C43.1171386,4.54423089 42.0784075,3.49405226 40.1969324,3.50386701 C37.9136839,3.50386701 35.6304354,3.50386701 33.3373876,3.51368177 C33.1609993,3.51368177 32.984611,3.51368177 32.7690253,3.51368177 C32.7690253,3.1897949 32.7690253,2.94442606 32.7690253,2.68924247 C32.7494266,1.75684088 32.3868507,0.991290107 31.6225014,0.461293416 C31.3383203,0.264998346 31.0051424,0.147221303 30.7013626,0 C30.3681847,0 30.0350068,0 29.7116282,0 C28.7022952,0.314072113 27.9379459,0.902957325 27.6831629,1.99239497 C27.57537,2.45368838 27.6047681,2.95424081 27.5655707,3.47442275 C23.5576366,3.47442275 19.5497026,3.47442275 15.5025712,3.47442275 C15.5025712,3.20942441 15.5025712,2.98368508 15.5025712,2.74813099 C15.5025712,1.40350976 14.8460148,0.50055243 13.5818987,0.0981475354 C13.5231026,0.0785180283 13.4643065,0.0392590142 13.4153097,8.71725229e-17 C13.0821318,8.71725229e-17 12.7489539,8.71725229e-17 12.4255754,8.71725229e-17 C12.0727988,0.176665564 11.6906242,0.314072113 11.3868443,0.549626198 C10.6616925,1.0992524 10.3383139,1.86480317 10.3481133,2.77757525 C10.3481133,2.99349983 10.3481133,3.20942441 10.3481133,3.51368177 C10.1423269,3.51368177 9.96593863,3.51368177 9.79934968,3.51368177 C7.60429535,3.51368177 5.39944167,3.51368177 3.20438735,3.51368177 C1.30331351,3.51368177 0.705553177,3.90627191 0,5.66311279 C0,16.5084155 0,27.3537181 0,38.2088355 C0.538964233,39.8184551 1.68548815,40.3288223 3.30238084,40.3190075 C10.4069094,40.2797485 17.5114379,40.299378 24.6159664,40.299378 C24.8413514,40.299378 25.0863352,40.2895633 25.3019209,40.22086 C25.6938949,40.0932682 25.8800825,39.7890108 25.8604838,39.3669764 C25.8310858,38.9743863 25.6448981,38.6897584 25.2529241,38.5916109 Z M29.3196542,2.69905722 C29.3294536,2.11998676 29.6822302,1.74702613 30.2015957,1.75684088 C30.6817639,1.76665564 31.0247411,2.11998676 31.0345404,2.68924247 C31.0443398,3.25849817 31.0345404,3.82775388 31.0345404,4.40682434 C31.0345404,4.40682434 31.0345404,4.40682434 31.0345404,4.40682434 C31.0345404,4.95645054 31.0443398,5.51589149 31.0345404,6.06551769 C31.0247411,6.66421765 30.6915632,7.00773403 30.1623983,6.99791927 C29.6528321,6.98810452 29.3196542,6.61514388 29.3098549,6.02625867 C29.3098549,4.91719152 29.3098549,3.80812437 29.3196542,2.69905722 Z M12.0825982,2.72850148 C12.0923975,2.13961627 12.4353747,1.75684088 12.9253422,1.75684088 C13.4447078,1.75684088 13.8072837,2.13961627 13.8072837,2.75794574 C13.8170831,3.83756863 13.8170831,4.90737677 13.8072837,5.98699966 C13.7974844,6.64458814 13.4447078,7.01754878 12.8959442,6.99791927 C12.3667793,6.97828977 12.0923975,6.63477339 12.0825982,5.9575554 C12.0825982,5.81033409 12.0727988,5.65329804 12.0727988,5.50607673 C12.0727988,5.1331161 12.0727988,4.76997022 12.0727988,4.39700958 C12.0727988,3.83756863 12.0629995,3.27812768 12.0825982,2.72850148 Z M1.71488619,7.84198808 C1.71488619,7.28254712 1.70508684,6.73292093 1.72468554,6.17347998 C1.74428424,5.58459476 2.06766278,5.2607079 2.63602506,5.2607079 C5.13485923,5.25089314 7.6336934,5.2607079 10.1423269,5.2607079 C10.1913237,5.2607079 10.2403204,5.2803374 10.3089159,5.29015216 C10.3383139,5.73181607 10.3285146,6.19310948 10.4167087,6.62495864 C10.6812912,7.96957987 11.8866112,8.88235195 13.1507273,8.75476016 C14.5324356,8.60753885 15.5025712,7.51810121 15.5123705,6.1047767 C15.5123705,5.83977835 15.5123705,5.57478001 15.5123705,5.2803374 C19.559502,5.2803374 23.5576366,5.2803374 27.6145674,5.2803374 C27.6145674,5.56496526 27.6145674,5.8299636 27.6145674,6.08514719 C27.6341661,7.56717498 28.751292,8.73513065 30.1721977,8.75476016 C31.583304,8.77438966 32.7396273,7.6260635 32.788624,6.13422096 C32.7984234,5.86922262 32.788624,5.59440952 32.788624,5.29996691 C32.9160156,5.2803374 33.0238084,5.25089314 33.1316013,5.25089314 C35.56184,5.25089314 38.0018781,5.25089314 40.4321168,5.25089314 C41.0494758,5.25089314 41.3924531,5.5551505 41.3924531,6.15385047 C41.4120518,8.10698642 41.4022524,10.0601224 41.4022524,12.0132583 C41.4022524,12.0721469 41.3728544,12.1408501 41.3532557,12.2193682 C28.163331,12.2193682 14.9832057,12.2193682 1.72468554,12.2193682 C1.71488619,10.7275256 1.71488619,9.28475685 1.71488619,7.84198808 Z M11.2300547,35.0386701 C10.759686,35.0484849 10.3383139,34.6264505 10.3481133,34.1455276 C10.3481133,33.6744194 10.7498866,33.2818292 11.210456,33.291644 C11.6906242,33.3014588 12.0629995,33.6842341 12.0727988,34.1553423 C12.0727988,34.6166357 11.6808248,35.0288554 11.2300547,35.0386701 Z M16.3257166,28.0407509 C16.8254834,28.0113066 17.2370561,28.394082 17.2468554,28.8946344 C17.2566548,29.3461131 16.8646808,29.7681475 16.4139107,29.787777 C15.9435419,29.8074065 15.5123705,29.3853721 15.5123705,28.9044492 C15.5123705,28.4529705 15.8847458,28.0603804 16.3257166,28.0407509 Z M21.5389706,22.780043 C22.0289381,22.7702282 22.4307114,23.1726331 22.4307114,23.6633708 C22.4209121,24.1246642 22.0093394,24.5270691 21.5585693,24.5270691 C21.1077992,24.5270691 20.7060259,24.1246642 20.6962265,23.6633708 C20.6864272,23.1922626 21.0784012,22.7898577 21.5389706,22.780043 Z M26.7326259,17.5291498 C27.2029947,17.5291498 27.5949687,17.9119252 27.6047681,18.3830334 C27.6145674,18.8541415 27.1735967,19.2958055 26.7130272,19.2761759 C26.2524578,19.2565464 25.8702832,18.8443268 25.8702832,18.3830334 C25.8702832,17.9119252 26.2622571,17.5193351 26.7326259,17.5291498 Z M36.2281958,18.4222924 C36.2085971,17.9511842 36.571173,17.5585941 37.0513411,17.5193351 C37.5315093,17.4997056 37.9528813,17.9021105 37.9528813,18.3830334 C37.9528813,18.8443268 37.5609073,19.2565464 37.1003379,19.2663612 C36.6495678,19.2859907 36.2477945,18.8934006 36.2281958,18.4222924 Z M11.2594528,22.780043 C11.7298216,22.8094872 12.0923975,23.2118921 12.0532001,23.692815 C12.0336014,24.1639232 11.6220287,24.5466986 11.1712586,24.5270691 C10.7204886,24.5074396 10.3285146,24.0854052 10.3383139,23.6339265 C10.3579126,23.1431888 10.7792847,22.7505987 11.2594528,22.780043 Z M26.7718233,22.780043 C27.2421921,22.7996725 27.6145674,23.2118921 27.6047681,23.6633708 C27.5851694,24.1246642 27.1735967,24.5270691 26.7228266,24.5172543 C26.2426584,24.5074396 25.8408851,24.0755904 25.8702832,23.5946675 C25.8996812,23.1235593 26.3014545,22.7604135 26.7718233,22.780043 Z M6.04619875,28.0309361 C6.51656754,28.0407509 6.88894283,28.4235262 6.88894283,28.9044492 C6.88894283,29.3853721 6.51656754,29.7681475 6.04619875,29.7779622 C5.57582997,29.787777 5.15445793,29.3559278 5.17405663,28.8750049 C5.18385598,28.4137115 5.58562932,28.0211213 6.04619875,28.0309361 Z M10.3481133,28.8848197 C10.3579126,28.4235262 10.7498866,28.0309361 11.210456,28.0407509 C11.6906242,28.0407509 12.0629995,28.4137115 12.0629995,28.8946344 C12.0727988,29.3559278 11.6906242,29.7583327 11.2300547,29.7779622 C10.7694853,29.7975917 10.3383139,29.3657426 10.3481133,28.8848197 Z M6.02660005,33.291644 C6.50676819,33.291644 6.87914348,33.6547899 6.88894283,34.1357128 C6.88894283,34.606821 6.53616624,34.9994111 6.06579745,35.0288554 C5.60522802,35.0582996 5.17405663,34.6362652 5.17405663,34.1553423 C5.17405663,33.6842341 5.56603062,33.291644 6.02660005,33.291644 Z M16.3845127,33.291644 C16.8646808,33.291644 17.2370561,33.6646046 17.2468554,34.1553423 C17.2566548,34.6166357 16.8744802,35.0190406 16.4139107,35.0386701 C15.9435419,35.0484849 15.5123705,34.6264505 15.5221699,34.1455276 C15.5221699,33.6744194 15.9141439,33.291644 16.3845127,33.291644 Z M16.3551146,24.5270691 C15.8945452,24.5074396 15.5123705,24.0952199 15.5221699,23.6339265 C15.5319692,23.1726331 15.9239432,22.7898577 16.394312,22.7898577 C16.8744802,22.7898577 17.2468554,23.1628183 17.2468554,23.6437413 C17.2468554,24.1246642 16.8254834,24.5466986 16.3551146,24.5270691 Z M21.5585693,35.0386701 C21.1077992,35.0386701 20.7060259,34.6362652 20.7060259,34.1651571 C20.6962265,33.7038636 21.0784012,33.3014588 21.54877,33.291644 C22.0191387,33.2818292 22.4209121,33.6547899 22.4307114,34.125898 C22.4405108,34.6166357 22.0387374,35.0386701 21.5585693,35.0386701 Z M21.5879673,19.2663612 C21.1175986,19.2859907 20.6962265,18.8639563 20.6864272,18.3830334 C20.6864272,17.9119252 21.0784012,17.5291498 21.54877,17.5291498 C22.0387374,17.5291498 22.4111127,17.8922957 22.4209121,18.3732186 C22.4307114,18.834512 22.0485368,19.2467317 21.5879673,19.2663612 Z M6.0168007,22.780043 C6.48716949,22.7702282 6.86934413,23.1333741 6.88894283,23.6044823 C6.90854153,24.1050347 6.51656754,24.5172543 6.0363994,24.5172543 C5.58562932,24.5270691 5.18385598,24.1148494 5.17405663,23.653556 C5.17405663,23.1922626 5.55623127,22.7898577 6.0168007,22.780043 Z M22.4209121,28.9044492 C22.4209121,29.3951868 21.9897407,29.8074065 21.5095726,29.7779622 C21.0490031,29.748518 20.6668285,29.3362983 20.6864272,28.8750049 C20.7060259,28.4038967 21.0979999,28.0309361 21.5683686,28.0407509 C22.0485368,28.0505656 22.4209121,28.433341 22.4209121,28.9044492 Z M31.0443398,18.3928481 C31.0443398,17.9021105 31.4559125,17.5095203 31.9360806,17.5291498 C32.4064494,17.5389646 32.788624,17.9511842 32.7690253,18.4124776 C32.759226,18.8737711 32.3476533,19.2761759 31.8968832,19.2663612 C31.4363138,19.2565464 31.0443398,18.8639563 31.0443398,18.3928481 Z M49.8982886,34.3123784 C50.6724372,40.3484518 46.9584837,45.7269367 41.1082719,47.0519285 C40.6966992,47.150076 40.2753272,47.2187793 39.8539552,47.2972973 C39.1582013,47.2972973 38.4624475,47.2972973 37.7666937,47.2972973 C37.1199366,47.1598907 36.4731795,47.0519285 35.8362218,46.8850776 C31.583304,45.756381 28.3103212,41.9188124 27.7125609,37.4825438 C26.8502181,31.0735097 31.3481196,25.3024346 37.6197034,24.5859576 C43.5581093,23.8989249 49.1339393,28.3253787 49.8982886,34.3123784 Z M48.3009946,36.3538471 C48.4871822,31.0244359 44.4106528,26.480205 39.2659942,26.28391 C34.0037434,26.0778001 29.5254406,30.2098114 29.3196542,35.4705193 C29.1040686,40.8490042 33.1903974,45.3245318 38.5016449,45.5404564 C43.6267048,45.7465662 48.1148069,41.5458517 48.3009946,36.3538471 Z M43.9206853,35.0484849 C44.4890476,35.0582996 44.8222254,35.3821865 44.8222254,35.8925537 C44.8222254,36.4323651 44.4792482,36.7856963 43.9010866,36.7856963 C42.2253978,36.795511 40.5595083,36.795511 38.8838195,36.7856963 C38.2860592,36.7856963 37.9626807,36.4519946 37.9626807,35.8532947 C37.9528813,34.1357128 37.9528813,32.4181309 37.9626807,30.7005491 C37.97248,30.1411081 38.3056579,29.7975917 38.8152241,29.7975917 C39.3247903,29.7975917 39.6579682,30.1509229 39.6579682,30.7103638 C39.6579682,32.1236883 39.6579682,33.5370128 39.6579682,35.0484849 C40.3243239,35.0484849 40.9318836,35.0484849 41.5394433,35.0484849 C42.3331906,35.0484849 43.126938,35.0386701 43.9206853,35.0484849 Z"></path>
    </g>
</svg>
