<?xml version="1.0" encoding="UTF-8"?>
<svg width="50px" height="50px" viewBox="0 0 50 50" version="1.1" xmlns="http://www.w3.org/2000/svg" xmlns:xlink="http://www.w3.org/1999/xlink">
    <g id="Page-1" stroke="none" stroke-width="1" fill="none" fill-rule="evenodd">
        <g>
            <path d="M42.0217391,46.7391304 C42.4565217,46.7391304 42.7826087,46.4130435 42.7826087,45.9782609 L42.7826087,28.8043478 C42.7826087,28.3695652 42.4565217,28.0434783 42.0217391,28.0434783 L39.4130435,28.0434783 C38.9782609,28.0434783 38.6521739,28.3695652 38.6521739,28.6956522 C36.9130435,28.3695652 35.2826087,28.4782609 33.8695652,29.0217391 C32.673913,28.1521739 31.2608696,27.6086957 29.8478261,27.173913 C28.2173913,26.7391304 25.9347826,26.5217391 23.5434783,27.3913043 C24.4130435,22.173913 23.1086957,14.2391304 22.8913043,12.826087 C23,12.5 23.2173913,12.0652174 23.4347826,11.9565217 C23.4347826,11.9565217 23.5434783,11.8478261 23.7608696,11.9565217 C23.8695652,12.0652174 23.9782609,12.0652174 24.1956522,12.173913 C25.6086957,12.826087 27.7826087,13.9130435 30.6086957,12.2826087 C32.0217391,11.5217391 32.7826087,10.6521739 33,9.7826087 C33,9.56521739 33,9.34782609 33,9.23913043 C33.4347826,8.80434783 33.6521739,8.26086957 33.7608696,7.7173913 C33.9782609,6.19565217 33,4.34782609 30.826087,2.2826087 C29.1956522,0.760869565 26.5869565,0.652173913 23.1086957,1.95652174 C21.4782609,2.60869565 19.9565217,3.36956522 18.5434783,4.34782609 C16.9130435,5 16.3695652,6.52173913 16.2608696,7.06521739 C15.9347826,7.60869565 14.0869565,10.7608696 12.3478261,15.326087 C10.6086957,19.8913043 8.65217391,26.7391304 9.08695652,33.5869565 C8.43478261,34.673913 8,36.1956522 8.65217391,37.9347826 C9.63043478,40.7608696 12.673913,40.9782609 14.5217391,40.7608696 C15.9347826,43.0434783 18.326087,44.5652174 21.5869565,45.2173913 C22.0217391,45.326087 22.3478261,45.326087 22.7826087,45.4347826 C23,45.4347826 23.9782609,45.6521739 25.2826087,45.6521739 C25.6086957,45.6521739 25.826087,45.6521739 26.1521739,45.6521739 C27.2391304,46.7391304 28.6521739,47.5 30.173913,48.1521739 C29.9565217,48.2608696 29.9565217,48.4782609 29.9565217,48.6956522 C29.9565217,49.1304348 30.2826087,49.4565217 30.7173913,49.4565217 L41.9130435,49.4565217 C42.3478261,49.4565217 42.673913,49.1304348 42.673913,48.6956522 C42.673913,48.2608696 42.3478261,47.9347826 41.9130435,47.9347826 L32.5652174,47.9347826 C35.0652174,45.2173913 37.1304348,41.4130435 38.5434783,36.5217391 C39.1956522,34.2391304 39.7391304,31.8478261 40.0652174,29.4565217 L41.1521739,29.4565217 L41.1521739,45.8695652 C41.2608696,46.4130435 41.5869565,46.7391304 42.0217391,46.7391304 Z M31.4782609,46.9565217 C30.2826087,46.5217391 29.1956522,45.9782609 28.326087,45.326087 C29.3043478,45.1086957 30.2826087,44.673913 31.2608696,44.0217391 C31.5869565,43.8043478 31.6956522,43.2608696 31.3695652,42.9347826 C31.1521739,42.6086957 30.6086957,42.5 30.2826087,42.826087 C29.1956522,43.5869565 27.8913043,44.0217391 26.6956522,44.1304348 C26.5869565,44.1304348 26.4782609,44.1304348 26.4782609,44.1304348 C26.3695652,44.1304348 18.326087,44.7826087 15.7173913,39.5652174 C15.5,39.2391304 15.173913,39.1304348 14.8478261,39.1304348 C14.7391304,39.1304348 11.0434783,40 10.173913,37.3913043 C9.19565217,34.673913 11.5869565,33.0434783 11.5869565,33.0434783 C11.9130435,32.826087 12.0217391,32.2826087 11.8043478,31.9565217 C11.5869565,31.6304348 11.0434783,31.5217391 10.7173913,31.7391304 L10.6086957,31.8478261 C10.3913043,19.673913 17.673913,7.82608696 17.673913,7.7173913 C17.7826087,7.60869565 17.7826087,7.5 17.7826087,7.39130435 C17.7826087,7.39130435 18,6.19565217 19.1956522,5.65217391 C19.1956522,5.65217391 19.3043478,5.65217391 19.3043478,5.54347826 C21.3695652,4.13043478 27.2391304,1.08695652 29.6304348,3.36956522 C32.0217391,5.65217391 32.2391304,6.95652174 32.1304348,7.5 C32.0217391,8.04347826 31.6956522,8.36956522 31.6956522,8.36956522 C31.3695652,8.58695652 31.2608696,9.02173913 31.4782609,9.45652174 C31.4782609,9.56521739 31.3695652,10.2173913 29.8478261,11.0869565 C27.673913,12.2826087 26.1521739,11.6304348 24.8478261,10.9782609 C24.7391304,10.8695652 24.5217391,10.8695652 24.4130435,10.7608696 C23.7608696,10.4347826 23.1086957,10.5434783 22.7826087,10.7608696 C21.8043478,11.1956522 21.3695652,12.6086957 21.3695652,12.7173913 C21.3695652,12.826087 21.3695652,12.9347826 21.3695652,13.0434783 C21.3695652,13.1521739 23.2173913,23.0434783 21.8043478,28.2608696 C21.1521739,28.5869565 20.5,29.0217391 19.9565217,29.4565217 C19.6304348,29.673913 19.5217391,30.2173913 19.8478261,30.5434783 C20.0652174,30.8695652 20.6086957,30.9782609 20.9347826,30.6521739 C21.5869565,30.2173913 22.1304348,29.7826087 22.8913043,29.4565217 C24.9565217,28.4782609 27.1304348,28.2608696 29.4130435,28.8043478 C31.6956522,29.3478261 33.326087,30.6521739 33.326087,30.6521739 C33.5434783,30.8695652 33.8695652,30.8695652 34.0869565,30.7608696 C35.5,30.1086957 37.1304348,30.1086957 38.4347826,30.4347826 C37.8913043,33.5869565 36.1521739,41.9565217 31.4782609,46.9565217 Z M18.2173913,14.8913043 C17.7826087,14.7826087 17.3478261,14.8913043 17.2391304,15.326087 C17.1304348,15.5434783 14.8478261,21.5217391 16.1521739,28.6956522 C16.2608696,29.1304348 16.5869565,29.3478261 17.0217391,29.2391304 C17.4565217,29.1304348 17.7826087,28.8043478 17.673913,28.3695652 C16.4782609,21.7391304 18.6521739,15.9782609 18.7608696,15.8695652 C18.8695652,15.4347826 18.6521739,15 18.2173913,14.8913043 Z M33.326087,36.7391304 C33.2173913,36.7391304 26.0434783,38.2608696 21.9130435,34.2391304 C21.5869565,33.9130435 21.1521739,33.9130435 20.826087,34.2391304 C20.5,34.5652174 20.5,35 20.826087,35.326087 C23.5434783,38.0434783 27.2391304,38.5869565 29.9565217,38.5869565 C32.0217391,38.5869565 33.4347826,38.2608696 33.6521739,38.2608696 C34.0869565,38.1521739 34.3043478,37.7173913 34.1956522,37.3913043 C34.1956522,36.8478261 33.7608696,36.6304348 33.326087,36.7391304 Z"></path>
        </g>
    </g>
</svg>
