<?xml version="1.0" encoding="UTF-8"?>
<svg viewBox="0 0 50 50" version="1.1" xmlns="http://www.w3.org/2000/svg" xmlns:xlink="http://www.w3.org/1999/xlink">
    <g>
        <path d="M16.9954476,16.0849772 C16.9954476,16.0849772 7.58725341,17.2989378 1.21396055,17.9059181 C0.91047041,17.9059181 0.303490137,18.2094082 0,18.8163885 C0,19.4233687 0,20.3338392 0.606980273,20.6373293 C5.15933232,25.1896813 12.1396055,31.8664643 12.1396055,31.8664643 C12.1396055,31.8664643 10.3186646,41.5781487 8.80121396,48.2549317 C8.80121396,48.861912 8.80121396,49.4688923 9.40819423,49.7723824 C10.0151745,50.0758725 10.6221548,50.0758725 10.9256449,49.7723824 C16.3884674,46.4339909 24.5827011,41.5781487 24.5827011,41.5781487 C24.5827011,41.5781487 32.7769347,46.4339909 38.2397572,49.7723824 C38.8467375,50.0758725 39.4537178,50.0758725 39.7572079,49.7723824 C40.3641882,49.4688923 40.3641882,48.861912 40.3641882,48.2549317 C39.1502276,41.8816388 37.0257967,31.8664643 37.0257967,31.8664643 C37.0257967,31.8664643 44.0060698,25.1896813 48.861912,20.6373293 C49.1654021,20.3338392 49.4688923,19.7268589 49.1654021,19.1198786 C49.7723824,18.2094082 49.1654021,17.9059181 48.5584219,17.9059181 C42.185129,17.2989378 32.7769347,16.0849772 32.7769347,16.0849772 C32.7769347,16.0849772 28.831563,6.98027314 26.4036419,0.91047041 C26.1001517,0.303490137 25.4931715,0 24.8861912,0 C24.2792109,0 23.6722307,0.303490137 23.6722307,0.91047041 C20.9408194,6.98027314 16.9954476,16.0849772 16.9954476,16.0849772 Z"></path>
    </g>
</svg>
