<?xml version="1.0" encoding="UTF-8"?>
<svg width="50px" height="50px" viewBox="0 0 50 50" version="1.1" xmlns="http://www.w3.org/2000/svg" xmlns:xlink="http://www.w3.org/1999/xlink">

    <g id="Page-1" stroke="none" stroke-width="1" fill="none" fill-rule="evenodd">
        <g id="Artboard-Copy-5" fill="#000000" fill-rule="nonzero">
            <g transform="translate(5.000000, 0.000000)">
                <path d="M0.606060606,50 C0.227272727,49.7727273 -0.0757575758,49.5454545 0.0757575758,49.0151515 C0.227272727,48.5606061 0.606060606,48.4090909 1.06060606,48.4090909 C1.21212121,48.4090909 1.36363636,48.4090909 1.51515152,48.4090909 C2.5,48.4090909 3.40909091,48.4090909 4.46969697,48.4090909 C4.46969697,47.7272727 4.46969697,47.1212121 4.46969697,46.5151515 C4.46969697,45.4545455 4.62121212,45.3030303 5.68181818,45.3030303 C5.75757576,45.3030303 5.90909091,45.3030303 6.06060606,45.3030303 C6.06060606,45.0757576 6.06060606,44.9242424 6.06060606,44.6969697 C6.06060606,40.0757576 6.06060606,35.4545455 6.06060606,30.8333333 C6.06060606,29.9242424 6.28787879,29.6212121 7.1969697,29.6969697 C8.18181818,29.7727273 8.78787879,29.469697 9.31818182,28.5606061 C10.8333333,26.0606061 13.1060606,24.6212121 15.9090909,24.0909091 C16.2121212,24.0151515 16.5151515,24.0909091 16.7424242,24.2424242 C19.0151515,25.2272727 21.2878788,25.2272727 23.5606061,24.2424242 C23.8636364,24.0909091 24.3181818,24.0909091 24.6212121,24.1666667 C27.6515152,24.8484848 29.9242424,26.5151515 31.4393939,29.2424242 C31.6666667,29.6212121 31.8181818,29.7727273 32.2727273,29.6969697 C32.6515152,29.6212121 33.030303,29.6969697 33.4848485,29.6969697 C34.0151515,29.6969697 34.3181818,30 34.3181818,30.530303 C34.3181818,30.6818182 34.3181818,30.7575758 34.3181818,30.9090909 C34.3181818,35.530303 34.3181818,40.0757576 34.3181818,44.6969697 C34.3181818,44.9242424 34.3181818,45.0757576 34.3181818,45.3030303 C34.5454545,45.3030303 34.6969697,45.3030303 34.9242424,45.3030303 C35.6818182,45.3030303 35.9090909,45.6060606 35.9090909,46.2878788 C35.9090909,46.969697 35.9090909,47.6515152 35.9090909,48.4090909 C36.5151515,48.4090909 37.1212121,48.4090909 37.6515152,48.4090909 C38.1060606,48.4090909 38.6363636,48.4090909 39.0909091,48.4090909 C39.6212121,48.4090909 40,48.5606061 40.2272727,49.0151515 C40.2272727,49.3181818 40.2272727,49.6969697 40.2272727,50 C27.0454545,50 13.8636364,50 0.606060606,50 Z M7.65151515,45.3030303 C16.0606061,45.3030303 24.3939394,45.3030303 32.8030303,45.3030303 C32.8030303,40.6060606 32.8030303,35.9848485 32.8030303,31.2878788 C24.3939394,31.2878788 16.0606061,31.2878788 7.65151515,31.2878788 C7.65151515,35.9848485 7.65151515,40.6060606 7.65151515,45.3030303 Z M10.3787879,29.5454545 C10.3787879,29.5454545 10.4545455,29.6212121 10.4545455,29.6212121 C16.8939394,29.6212121 23.4090909,29.6212121 29.9242424,29.6212121 C29.8484848,29.5454545 29.8484848,29.469697 29.7727273,29.3939394 C28.4848485,27.4242424 26.7424242,26.2121212 24.469697,25.6818182 C24.3181818,25.6060606 24.0151515,25.6818182 23.8636364,25.7575758 C21.3636364,26.7424242 18.9393939,26.7424242 16.4393939,25.7575758 C16.2121212,25.6818182 15.9090909,25.6818182 15.6818182,25.6818182 C14.0909091,26.0606061 12.7272727,26.8181818 11.6666667,27.9545455 C11.2121212,28.4848485 10.8333333,29.0151515 10.3787879,29.5454545 Z M20.9848485,1.42108547e-14 C21.5151515,0.0757575758 22.1212121,0.151515152 22.6515152,0.303030303 C27.1212121,1.28787879 30.6818182,5.22727273 31.0606061,9.77272727 C31.2121212,11.2121212 31.1363636,12.7272727 31.1363636,14.2424242 C31.1363636,15.4545455 31.1363636,16.6666667 31.1363636,17.8787879 C31.1363636,18.4848485 30.8333333,18.7878788 30.3030303,18.7878788 C29.2424242,18.7878788 28.2575758,18.7878788 27.1969697,18.7878788 C27.0454545,18.7878788 26.8181818,18.7121212 26.5909091,18.6363636 C26.0606061,20 25.3030303,21.1363636 24.1666667,21.969697 C21.3636364,24.0909091 17.8787879,23.8636364 15.3787879,21.4393939 C15.2272727,21.2878788 14.9242424,21.1363636 14.6969697,21.1363636 C13.7121212,21.1363636 12.7272727,21.1363636 11.7424242,21.1363636 C10.8333333,21.1363636 10.6060606,20.9090909 10.6060606,20.0757576 C10.6060606,19.6969697 10.6060606,19.2424242 10.6060606,18.7878788 C10.3030303,18.7878788 10.0757576,18.7878788 9.84848485,18.7878788 C9.39393939,18.7878788 9.09090909,18.4848485 9.09090909,18.030303 C9.09090909,15.3030303 9.01515152,12.5757576 9.16666667,9.84848485 C9.54545455,5.22727273 13.030303,1.36363636 17.5757576,0.378787879 C18.1060606,0.227272727 18.7121212,0.151515152 19.2424242,0.0757575758 C19.9242424,1.42108547e-14 20.4545455,1.42108547e-14 20.9848485,1.42108547e-14 Z M13.8636364,14.0909091 C13.8636364,14.1666667 13.8636364,14.3181818 13.8636364,14.3939394 C13.7878788,15.3030303 13.8636364,16.0606061 14.6212121,16.6666667 C14.7727273,16.7424242 14.7727273,17.0454545 14.8484848,17.1969697 C15.1515152,17.8787879 15.3787879,18.5606061 15.7575758,19.1666667 C15.8333333,19.3181818 16.1363636,19.469697 16.2878788,19.469697 C16.969697,19.469697 17.7272727,19.469697 18.4090909,19.469697 C19.0151515,19.469697 19.3939394,19.6969697 19.3939394,20.1515152 C19.3939394,20.6060606 19.0151515,20.9848485 18.4090909,20.9848485 C18.1818182,20.9848485 17.9545455,20.9848485 17.7272727,20.9848485 C18.5606061,21.5909091 19.469697,21.8939394 20.530303,21.7424242 C23.030303,21.4393939 25,19.6212121 25.530303,17.1212121 C25.6060606,16.969697 25.6060606,16.6666667 25.7575758,16.5909091 C26.5909091,15.9090909 26.5151515,14.9242424 26.5151515,13.9393939 C25.9848485,13.9393939 25.6818182,13.6363636 25.6060606,13.1060606 C25.3787879,12.1212121 24.9242424,11.2121212 24.2424242,10.3787879 C21.7424242,12.5 18.9393939,13.030303 15.8333333,11.969697 C15,13.4848485 14.5454545,13.9393939 13.8636364,14.0909091 Z M19.3939394,4.16666667 C19.5454545,3.33333333 19.7727273,3.03030303 20.3787879,3.10606061 C21.3636364,3.33333333 22.3484848,3.48484848 23.2575758,3.78787879 C25.6818182,4.62121212 27.1969697,6.36363636 27.6515152,8.93939394 C27.8030303,9.77272727 27.6515152,10.6818182 27.6515152,11.6666667 C28.2575758,11.6666667 28.7121212,11.6666667 29.2424242,11.6666667 C29.3181818,11.6666667 29.469697,11.6666667 29.5454545,11.6666667 C29.9242424,8.71212121 28.5606061,5.07575758 25.2272727,2.95454545 C21.969697,0.909090909 17.8787879,0.984848485 14.7727273,3.18181818 C11.8939394,5.3030303 10.6060606,8.18181818 10.7575758,11.7424242 C11.4393939,11.7424242 12.0454545,11.7424242 12.6515152,11.7424242 C12.1212121,8.33333333 13.7121212,6.21212121 16.7424242,5 C16.6666667,4.77272727 16.5909091,4.62121212 16.4393939,4.39393939 C16.2121212,4.01515152 16.2121212,3.71212121 16.5151515,3.40909091 C16.8181818,3.10606061 17.1969697,3.10606061 17.5757576,3.33333333 C18.1060606,3.63636364 18.7121212,3.86363636 19.3939394,4.16666667 Z M14.3181818,11.6666667 C14.469697,11.3636364 14.6212121,11.0606061 14.6969697,10.8333333 C14.9242424,10.2272727 15.3030303,10.1515152 15.8333333,10.3030303 C16.3636364,10.530303 16.8939394,10.6818182 17.4242424,10.8333333 C19.6212121,11.2878788 21.5909091,10.9848485 23.1818182,9.24242424 C23.7878788,8.56060606 24.0151515,8.40909091 25,9.09090909 C25.3787879,9.31818182 25.6060606,9.6969697 25.9090909,10.0757576 C25.9848485,10.1515152 26.0606061,10.3030303 26.1363636,10.3787879 C26.4393939,7.8030303 23.5606061,4.77272727 20.9090909,4.92424242 C20.9090909,5.07575758 20.9090909,5.22727273 20.9090909,5.37878788 C20.9090909,6.13636364 20.3787879,6.51515152 19.6969697,6.13636364 C19.3181818,5.98484848 19.0151515,5.83333333 18.6363636,5.60606061 C18.6363636,5.68181818 18.6363636,5.68181818 18.7121212,5.75757576 C18.3333333,5.98484848 18.030303,6.13636364 17.6515152,6.36363636 C17.3484848,6.51515152 17.0454545,6.59090909 16.8181818,6.66666667 C14.6969697,7.65151515 13.6363636,9.54545455 14.3181818,11.6666667 Z M12.2727273,17.1969697 C12.2727273,15.8333333 12.2727273,14.6212121 12.2727273,13.3333333 C11.7424242,13.3333333 11.2121212,13.3333333 10.7575758,13.3333333 C10.7575758,14.6212121 10.7575758,15.9090909 10.7575758,17.1969697 C11.2878788,17.1969697 11.8181818,17.1969697 12.2727273,17.1969697 Z M28.030303,13.2575758 C28.030303,14.5454545 28.030303,15.8333333 28.030303,17.1212121 C28.5606061,17.1212121 29.0909091,17.1212121 29.5454545,17.1212121 C29.5454545,15.8333333 29.5454545,14.5454545 29.5454545,13.2575758 C29.0909091,13.2575758 28.5606061,13.2575758 28.030303,13.2575758 Z M12.3484848,19.5454545 C12.9545455,19.5454545 13.4848485,19.5454545 14.0909091,19.5454545 C13.9393939,19.1666667 13.7878788,18.8636364 13.7121212,18.6363636 C13.2575758,18.7121212 12.8030303,18.7121212 12.3484848,18.7878788 C12.3484848,19.0151515 12.3484848,19.2424242 12.3484848,19.5454545 Z M22.5,37.5 C22.5,38.7878788 21.4393939,39.8484848 20.1515152,39.8484848 C18.8636364,39.8484848 17.8030303,38.7878788 17.8030303,37.5 C17.8030303,36.2121212 18.8636364,35.2272727 20.1515152,35.2272727 C21.4393939,35.1515152 22.5,36.2121212 22.5,37.5 Z M20.1515152,36.6666667 C19.6969697,36.6666667 19.3939394,37.0454545 19.3939394,37.5 C19.3939394,37.9545455 19.7727273,38.2575758 20.2272727,38.2575758 C20.6818182,38.2575758 20.9848485,37.8787879 20.9848485,37.4242424 C20.9848485,37.0454545 20.6060606,36.6666667 20.1515152,36.6666667 Z M17.8030303,15.6060606 C17.5757576,15.6060606 17.2727273,15.6060606 17.0454545,15.6060606 C16.5909091,15.530303 16.2878788,15.2272727 16.3636364,14.8484848 C16.3636364,14.3939394 16.6666667,14.1666667 17.0454545,14.0909091 C17.5757576,14.0909091 18.1818182,14.0909091 18.7121212,14.0909091 C19.1666667,14.0909091 19.3939394,14.3939394 19.3939394,14.8484848 C19.3939394,15.2272727 19.0909091,15.6060606 18.7121212,15.6060606 C18.3333333,15.6060606 18.1060606,15.6060606 17.8030303,15.6060606 Z M22.5757576,14.0909091 C22.8030303,14.0909091 23.030303,14.0909091 23.3333333,14.0909091 C23.7878788,14.0909091 24.0909091,14.469697 24.0909091,14.8484848 C24.0909091,15.2272727 23.7878788,15.6060606 23.3333333,15.6060606 C22.8030303,15.6060606 22.2727273,15.6060606 21.7424242,15.6060606 C21.2878788,15.6060606 20.9848485,15.2272727 20.9848485,14.8484848 C20.9848485,14.469697 21.2878788,14.0909091 21.7424242,14.0909091 C22.0454545,14.0909091 22.2727273,14.0909091 22.5757576,14.0909091 Z M6.06060606,48.4090909 C15.530303,48.4090909 24.9242424,48.4090909 34.3181818,48.4090909 C34.3181818,47.8787879 34.3181818,47.3484848 34.3181818,46.8939394 C24.8484848,46.8939394 15.4545455,46.8939394 6.06060606,46.8939394 C6.06060606,47.4242424 6.06060606,47.8787879 6.06060606,48.4090909 Z"></path>
            </g>
        </g>
    </g>
</svg>
