<?xml version="1.0" encoding="UTF-8"?>
<svg viewBox="0 0 50 50" version="1.1" xmlns="http://www.w3.org/2000/svg" xmlns:xlink="http://www.w3.org/1999/xlink">
    <g transform="translate(0.000000, 12.000000)">
        <path d="M49.7727273,26.5909091 C49.7727273,26.3636364 49.5454545,26.3636364 49.5454545,26.3636364 C48.6363636,24.7727273 47.0454545,22.7272727 44.5454545,20.4545455 C43.4090909,19.3181818 42.7272727,18.6363636 42.5,18.1818182 C42.0454545,17.5 41.8181818,16.8181818 42.0454545,15.9090909 C42.2727273,15.4545455 42.9545455,14.0909091 44.3181818,12.2727273 C45,11.3636364 45.6818182,10.4545455 45.9090909,10 C48.8636364,5.90909091 50.2272727,3.18181818 49.7727273,2.04545455 L49.5454545,1.81818182 C49.5454545,1.59090909 49.0909091,1.59090909 48.6363636,1.36363636 C48.1818182,1.13636364 47.7272727,1.13636364 47.0454545,1.36363636 L39.5454545,1.36363636 C39.3181818,1.36363636 39.3181818,1.36363636 39.0909091,1.36363636 C38.8636364,1.36363636 38.8636364,1.36363636 38.8636364,1.36363636 L38.6363636,1.36363636 C38.6363636,1.36363636 38.4090909,1.59090909 38.4090909,1.59090909 C38.4090909,1.81818182 38.1818182,1.81818182 38.1818182,2.04545455 C37.2727273,4.31818182 36.3636364,6.13636364 35.4545455,8.18181818 C34.7727273,9.54545455 34.0909091,10.4545455 33.6363636,11.3636364 C33.1818182,12.2727273 32.7272727,12.7272727 32.2727273,13.1818182 C31.8181818,13.6363636 31.5909091,13.8636364 31.3636364,14.0909091 C31.1363636,14.3181818 30.9090909,14.3181818 30.6818182,14.3181818 C30.4545455,14.3181818 30.4545455,14.3181818 30.2272727,14.3181818 C30,14.0909091 29.7727273,13.8636364 29.5454545,13.6363636 C29.3181818,13.4090909 29.3181818,12.9545455 29.3181818,12.5 C29.3181818,12.0454545 29.3181818,11.8181818 29.3181818,11.3636364 C29.3181818,11.1363636 29.3181818,10.6818182 29.3181818,10 C29.3181818,9.54545455 29.3181818,9.09090909 29.3181818,8.86363636 C29.3181818,8.18181818 29.3181818,7.5 29.3181818,6.59090909 C29.3181818,5.68181818 29.3181818,5.22727273 29.3181818,4.77272727 C29.3181818,4.31818182 29.3181818,3.86363636 29.3181818,3.18181818 C29.3181818,2.5 29.3181818,2.27272727 29.3181818,2.04545455 C29.3181818,1.81818182 29.0909091,1.36363636 29.0909091,1.13636364 C28.8636364,0.909090909 28.8636364,0.681818182 28.6363636,0.454545455 C28.4090909,0.227272727 28.1818182,0.227272727 27.7272727,1.26161707e-15 C26.5909091,0.227272727 25.4545455,0 24.0909091,0 C20.9090909,0 18.8636364,0.227272727 17.7272727,0.681818182 C17.5,0.909090909 17.0454545,1.13636364 16.8181818,1.36363636 C16.5909091,1.81818182 16.5909091,2.04545455 16.8181818,2.04545455 C17.9545455,2.27272727 18.6363636,2.5 19.0909091,3.18181818 L19.3181818,3.40909091 C19.5454545,3.63636364 19.5454545,4.09090909 19.7727273,4.54545455 C19.5454545,5.45454545 19.5454545,6.13636364 19.7727273,6.81818182 C19.7727273,8.18181818 19.7727273,9.31818182 19.7727273,10.2272727 C19.7727273,11.1363636 19.5454545,11.8181818 19.5454545,12.5 C19.5454545,13.1818182 19.3181818,13.4090909 19.0909091,13.6363636 C18.8636364,13.8636364 18.8636364,14.0909091 18.8636364,14.3181818 C18.8636364,14.3181818 18.8636364,14.5454545 18.6363636,14.5454545 C18.4090909,14.5454545 18.1818182,14.5454545 17.9545455,14.5454545 C17.7272727,14.5454545 17.5,14.3181818 17.0454545,14.0909091 C16.8181818,13.8636364 16.3636364,13.4090909 15.9090909,12.9545455 C15.6818182,12.7272727 15.2272727,12.0454545 14.7727273,11.1363636 C14.3181818,10.4545455 13.8636364,9.54545455 13.1818182,8.40909091 L12.7272727,7.72727273 C12.5,7.27272727 12.0454545,6.59090909 11.5909091,5.45454545 C11.3636364,4.54545455 10.9090909,3.63636364 10.6818182,2.72727273 C10.4545455,2.27272727 10.2272727,2.04545455 10,1.81818182 L9.77272727,1.81818182 C9.77272727,1.81818182 9.54545455,1.59090909 9.31818182,1.59090909 C9.31818182,1.36363636 9.09090909,1.36363636 8.86363636,1.36363636 L1.81818182,1.36363636 C1.13636364,1.36363636 0.681818182,1.59090909 0.227272727,1.81818182 L0.227272727,2.04545455 C0.227272727,2.04545455 0.227272727,2.27272727 0.227272727,2.5 C0.227272727,2.72727273 0.227272727,2.95454545 0.454545455,3.18181818 C1.59090909,5.68181818 2.72727273,8.18181818 3.86363636,10.4545455 C5,12.7272727 6.13636364,14.7727273 7.04545455,16.1363636 C7.95454545,17.5 8.86363636,18.8636364 9.77272727,20.2272727 C10.4545455,21.5909091 11.1363636,22.2727273 11.3636364,22.7272727 C11.5909091,23.1818182 11.8181818,23.4090909 12.0454545,23.6363636 L12.7272727,24.3181818 C13.1818182,24.7727273 13.8636364,25.2272727 14.5454545,25.9090909 C15.4545455,26.5909091 16.1363636,27.0454545 17.2727273,27.7272727 C18.1818182,28.4090909 19.3181818,28.8636364 20.6818182,29.0909091 C22.0454545,29.5454545 23.1818182,29.5454545 24.5454545,29.5454545 L27.5,29.5454545 C28.1818182,29.5454545 28.6363636,29.3181818 28.8636364,28.8636364 L28.8636364,28.6363636 C28.8636364,28.6363636 29.0909091,28.4090909 29.0909091,28.1818182 C29.0909091,27.9545455 29.0909091,27.7272727 29.0909091,27.5 C29.0909091,26.8181818 29.0909091,26.1363636 29.3181818,25.4545455 C29.5454545,24.7727273 29.5454545,24.3181818 29.7727273,24.0909091 C30,23.8636364 30.2272727,23.4090909 30.2272727,23.4090909 C30.4545455,23.1818182 30.6818182,22.9545455 30.6818182,22.9545455 C30.6818182,22.9545455 30.9090909,22.9545455 30.9090909,22.9545455 C31.3636364,22.7272727 31.8181818,22.9545455 32.2727273,23.4090909 C32.7272727,23.8636364 33.4090909,24.3181818 33.8636364,25 C34.3181818,25.6818182 35,26.3636364 35.6818182,27.0454545 C36.3636364,27.7272727 37.0454545,28.4090909 37.5,28.8636364 L37.9545455,29.0909091 C38.4090909,29.3181818 38.8636364,29.5454545 39.3181818,29.7727273 C39.7727273,30 40.4545455,30 40.6818182,30 L47.2727273,30 C47.9545455,30 48.4090909,30 48.8636364,29.7727273 C49.3181818,29.5454545 49.5454545,29.3181818 49.5454545,29.0909091 C49.5454545,28.8636364 49.5454545,28.4090909 49.5454545,28.1818182 C49.7727273,27.0454545 49.7727273,26.8181818 49.7727273,26.5909091 Z"></path>
    </g>
</svg>
