<svg class="svg-icon" viewBox="0 0 18 16" fill="none" xmlns="http://www.w3.org/2000/svg">
<path d="M0.317934 7.49529L4.4655 9.03929L6.07086 14.1888C6.17358 14.5186 6.57792 14.6405 6.8463 14.4217L9.15823 12.5418C9.40057 12.3448 9.74575 12.335 9.99901 12.5184L14.1689 15.538C14.456 15.7461 14.8627 15.5892 14.9347 15.2432L17.9894 0.587648C18.068 0.209666 17.6956 -0.105659 17.3348 0.0335411L0.313074 6.58306C-0.106987 6.74465 -0.103327 7.33783 0.317934 7.49529ZM5.81214 8.21738L13.918 3.23783C14.0637 3.14861 14.2136 3.34508 14.0885 3.46082L7.39878 9.66318C7.16364 9.88149 7.01196 10.1737 6.969 10.4908L6.74112 12.1752C6.71094 12.4001 6.3942 12.4224 6.33198 12.2047L5.45556 9.13319C5.35518 8.78286 5.50146 8.40864 5.81214 8.21738Z"/>
</svg>
