<svg width="19" height="13" viewBox="0 0 19 13" fill="none" xmlns="http://www.w3.org/2000/svg">
<path d="M18.1925 1.25273C17.6771 0.340364 17.1178 0.172545 15.979 0.108727C14.8414 0.0319091 11.9807 0 9.50237 0C7.01931 0 4.15744 0.0319092 3.021 0.107546C1.88456 0.172546 1.32406 0.339182 0.803937 1.25273C0.273125 2.16391 0 3.73336 0 6.49645C0 6.49882 0 6.5 0 6.5C0 6.50236 0 6.50355 0 6.50355V6.50591C0 9.25718 0.273125 10.8385 0.803937 11.7402C1.32406 12.6525 1.88338 12.818 3.01981 12.8948C4.15744 12.961 7.01931 13 9.50237 13C11.9807 13 14.8414 12.961 15.9802 12.896C17.119 12.8192 17.6783 12.6537 18.1937 11.7414C18.7292 10.8396 19 9.25836 19 6.50709C19 6.50709 19 6.50355 19 6.50118C19 6.50118 19 6.49882 19 6.49764C19 3.73336 18.7292 2.16391 18.1925 1.25273ZM7.125 10.0455V2.95455L13.0625 6.5L7.125 10.0455Z" fill="white"/>
</svg>
