<svg viewBox="0 0 18 10" fill="none" xmlns="http://www.w3.org/2000/svg">
<path fill-rule="evenodd" clip-rule="evenodd" d="M15.4916 6.27641C16.0886 6.84131 16.7188 7.3728 17.2544 7.99466C17.4909 8.27101 17.7149 8.55618 17.8862 8.87688C18.129 9.33278 17.9091 9.83447 17.4873 9.86169L14.865 9.86054C14.1886 9.91493 13.6491 9.65108 13.1954 9.20297C12.8324 8.84462 12.4962 8.46322 12.1471 8.09278C12.0039 7.94136 11.8541 7.79889 11.6752 7.68628C11.3172 7.46111 11.0065 7.53005 10.8019 7.89185C10.5935 8.25983 10.5463 8.6673 10.5258 9.07741C10.4977 9.67578 10.3111 9.83309 9.69083 9.86048C8.36525 9.92106 7.10722 9.72672 5.93854 9.07873C4.9082 8.50747 4.10921 7.70101 3.41377 6.78801C2.05975 5.01022 1.02284 3.05671 0.0909061 1.04848C-0.118865 0.596018 0.0345452 0.353141 0.549718 0.344544C1.40519 0.32844 2.26053 0.329587 3.11701 0.343398C3.46469 0.348327 3.69487 0.541574 3.82912 0.85987C4.29195 1.96267 4.85828 3.0119 5.56915 3.98444C5.75846 4.24336 5.95149 4.50228 6.22638 4.68453C6.53048 4.88631 6.76201 4.81943 6.90507 4.49117C6.99586 4.28302 7.0356 4.05882 7.05606 3.83589C7.12384 3.06892 7.13277 2.30327 7.01389 1.53899C6.94091 1.062 6.66366 0.753218 6.1725 0.662955C5.92186 0.616936 5.95918 0.526559 6.08054 0.387928C6.29131 0.148833 6.48955 0 6.88473 0H9.84832C10.3149 0.0892307 10.4185 0.292335 10.4824 0.747257L10.4849 3.93727C10.4798 4.11338 10.5757 4.63599 10.903 4.75255C11.165 4.83554 11.3377 4.63243 11.4949 4.47145C12.2045 3.74167 12.7109 2.87922 13.1633 1.98617C13.3641 1.59349 13.5367 1.18567 13.704 0.778205C13.828 0.47584 14.0225 0.327065 14.374 0.333655L17.2263 0.33612C17.3108 0.33612 17.3964 0.337323 17.4783 0.350906C17.959 0.430279 18.0907 0.630633 17.9422 1.08544C17.7083 1.799 17.2532 2.39364 16.8083 2.99103C16.3326 3.62883 15.8239 4.24479 15.3522 4.88637C14.9188 5.47225 14.9532 5.76756 15.4916 6.27641Z"/>
</svg>
