<svg viewBox="0 0 16 10" version="1.1" xmlns="http://www.w3.org/2000/svg" xmlns:xlink="http://www.w3.org/1999/xlink">
    <path d="M12.9663979,3.90854779 C12.7650538,3.90854779 12.5641129,3.92868727 12.3668011,3.96883111 C12.2180108,3.22204803 11.7369624,2.58501837 11.0615591,2.24021412 C10.3862903,1.89540983 9.59099462,1.88094723 8.90362904,2.20088128 C8.28158603,0.477806021 6.38830644,-0.411845813 4.67486558,0.213694844 C2.96142472,0.839235502 2.07674732,2.74329585 2.69879033,4.46623595 C1.19784946,4.51394896 0.0122311914,5.76327315 0.0346774194,7.27319419 C0.0572580473,8.78325045 1.27970429,9.99608024 2.78145163,9.99851318 L12.9663979,9.99851318 C14.6385753,9.99851318 15.9943549,8.63524547 15.9943549,6.95353048 C15.9943549,5.27181554 14.6385753,3.90854779 12.9663979,3.90854779 Z" id="Shape" transform="translate(8.014359, 5.006031) scale(-1, 1) translate(-8.014359, -5.006031) "></path>
</svg>