<?xml version="1.0" encoding="UTF-8"?>
<svg class="svg-icon" viewBox="0 0 183 150" version="1.1" xmlns="http://www.w3.org/2000/svg" xmlns:xlink="http://www.w3.org/1999/xlink">
    <path d="M28.8353909,122.5525 L28.8353909,97.2225 L53.5514403,97.2225 L53.5514403,73.3825 L79.0164609,73.3825 L79.0164609,49.5425 L53.5514403,49.5425 L53.5514403,24.2125 L28.8353909,24.2125 L28.8353909,49.5425 L18.3116522,49.5425 L28.8353909,49.5425 L28.8353909,24.2125 L18.3116522,24.2125 L28.8353909,24.2125 L28.8353909,13.0000419 L28.8353909,24.2125 L53.5514403,24.2125 L53.5514403,49.5425 L28.8353909,49.5425 L28.8353909,73.3825 L18.3116522,73.3825 L28.8353909,73.3825 L28.8353909,49.5425 L53.5514403,49.5425 L53.5514403,73.3825 L28.8353909,73.3825 L28.8353909,97.2225 L18.3116522,97.2225 L28.8353909,97.2225 L28.8353909,73.3825 L53.5514403,73.3825 L53.5514403,49.5425 L79.0164609,49.5425 L79.0164609,73.3825 L103.73251,73.3825 L103.73251,97.2225 L79.0164609,97.2225 L79.0164609,122.5525 L53.5514403,122.5525 L53.5514403,132.274958 L53.5514403,122.5525 L79.0164609,122.5525 L79.0164609,97.2225 L103.73251,97.2225 L103.73251,122.5525 L79.0164609,122.5525 L79.0164609,132.274958 L79.0164609,122.5525 L103.73251,122.5525 L103.73251,97.2225 L128.44856,97.2225 L128.44856,122.5525 L153.164609,122.5525 L153.164609,97.2225 L128.44856,97.2225 L128.44856,73.3825 L103.73251,73.3825 L103.73251,49.5425 L79.0164609,49.5425 L79.0164609,24.2125 L53.5514403,24.2125 L53.5514403,13.0000419 L53.5514403,24.2125 L79.0164609,24.2125 L79.0164609,49.5425 L103.73251,49.5425 L103.73251,73.3825 L128.44856,73.3825 L128.44856,97.2225 L153.164609,97.2225 L153.164609,73.3825 L128.44856,73.3825 L128.44856,49.5425 L103.73251,49.5425 L103.73251,24.2125 L79.0164609,24.2125 L79.0164609,13.0000419 L79.0164609,24.2125 L103.73251,24.2125 L103.73251,49.5425 L128.44856,49.5425 L128.44856,73.3825 L153.164609,73.3825 L153.164609,49.5425 L128.44856,49.5425 L128.44856,24.2125 L103.73251,24.2125 L103.73251,13.0000419 L103.73251,24.2125 L128.44856,24.2125 L128.44856,49.5425 L153.164609,49.5425 L153.164609,24.2125 L128.44856,24.2125 L128.44856,13.0000419 L128.44856,24.2125 L153.164609,24.2125 L153.164609,13.0000419 L153.164609,24.2125 L162.939377,24.2125 L153.164609,24.2125 L153.164609,49.5425 L162.939377,49.5425 L153.164609,49.5425 L153.164609,73.3825 L162.939377,73.3825 L153.164609,73.3825 L153.164609,97.2225 L162.939377,97.2225 L153.164609,97.2225 L153.164609,122.5525 L162.939377,122.5525 L153.164609,122.5525 L153.164609,132.274958 L153.164609,122.5525 L128.44856,122.5525 L128.44856,132.274958 L128.44856,122.5525 L103.73251,122.5525 L103.73251,132.274958 L103.73251,122.5525 L128.44856,122.5525 L128.44856,97.2225 L103.73251,97.2225 L103.73251,73.3825 L79.0164609,73.3825 L79.0164609,97.2225 L53.5514403,97.2225 L53.5514403,122.5525 L28.8353909,122.5525 L28.8353909,132.274958 L28.8353909,122.5525 L53.5514403,122.5525 L53.5514403,97.2225 L79.0164609,97.2225 L79.0164609,73.3825 L53.5514403,73.3825 L53.5514403,97.2225 L28.8353909,97.2225 L28.8353909,122.5525 L18.3116522,122.5525 L28.8353909,122.5525 Z" id="Combined-Shape" stroke-opacity="0.42297894" stroke="#214694" stroke-width="0.673596" stroke-linecap="square"></path>
    <path d="M40.9801565,64.9769473 L40.7352215,64.5270241 L41.2522989,64.4214881 L41.3065708,64.3107157 L41.4455994,64.0269499 L41.6956032,64.3310093 L43.1853528,64.0269499 L43.593708,64.7770612 L74.5856898,121.706504 L74.994045,122.456615 L72.5439137,122.956689 L72.1355585,122.206578 L41.2827132,65.5327164 L1.62269569,146.481234 L1.48366714,146.765 L1.12345679,146.326905 L1.26248534,146.04314 L40.9801565,64.9769473 Z M75.6509383,122.075666 L75.468006,122.286429 L74.994045,121.961041 L75.1769773,121.750279 L127.866563,61.0448552 L128.049496,60.8340928 L128.523457,61.1594803 L128.340524,61.3702427 L75.6509383,122.075666 Z M128.765918,61.0373007 L128.523457,60.915376 L129.978222,60.8340928 L130.220683,60.9560175 L148.622172,70.2094563 L148.864633,70.331381 L147.409868,70.4126642 L147.167407,70.2907395 L128.765918,61.0373007 Z" id="Combined-Shape" stroke="#3566CC" stroke-width="3.2076" stroke-linecap="round" stroke-linejoin="round"></path>
    <path d="M76.3329146,88.9024957 L67.6488748,62.9885096 L2.16886716,147.365117 L1.94003692,147.659984 L1.34715857,147.20475 L1.57598881,146.909883 L67.3635249,62.1369989 L67.308202,61.9719103 L67.5551947,61.890016 L67.7142841,61.6850157 L67.8527699,61.7913502 L68.0187385,61.7363206 L68.1010694,61.9820037 L68.3071624,62.1402495 L68.2002611,62.2780011 L76.952456,88.395368 L148.432824,29.8848695 L148.721988,29.6481736 L149.197903,30.2234346 L148.90874,30.4601305 L77.20618,89.1525043 L77.2432383,89.2630897 L76.9538683,89.3590349 L76.7183413,89.5518264 L76.6438767,89.4618176 L76.5327018,89.4986794 L76.4362452,89.2108437 L76.242426,88.9765654 L76.3329146,88.9024957 Z" id="Combined-Shape" stroke="#A3D4F7" stroke-width="3.7422" stroke-linecap="round" stroke-linejoin="round"></path>
    <polygon id="Triangle" fill="#A3D4F7" transform="translate(149.347059, 29.800000) rotate(-313.000000) translate(-149.347059, -29.800000) " points="149.347059 25.5428571 157.376471 34.0571429 141.317647 34.0571429"></polygon>
    <polygon id="Triangle" fill="#3566CC" transform="translate(151.388064, 71.498150) rotate(-241.000000) translate(-151.388064, -71.498150) " points="151.388064 67.2410068 159.417475 75.7552926 143.358652 75.7552926"></polygon>
    <path d="M1.12345679,0.3725 L1.12345679,147.1375 L1.12345679,0.3725 Z M1.12345679,147.8825 L181.625514,147.8825 L1.12345679,147.8825 Z" id="Combined-Shape" stroke="#214694" stroke-width="3.2076" stroke-linecap="round"></path>
</svg>