<?xml version="1.0" encoding="UTF-8"?>
<svg class="svg-icon" viewBox="0 0 13 24" version="1.1" xmlns="http://www.w3.org/2000/svg" xmlns:xlink="http://www.w3.org/1999/xlink">
    <path d="M12.5104582,0.00499360195 L9.39234929,0 C5.88926091,0 3.6254113,2.3182797 3.6254113,5.90643238 L3.6254113,8.62969321 L0.49029229,8.62969321 C0.219380785,8.62969321 0,8.84891233 0,9.11931588 L0,13.0650105 C0,13.335414 0.219630934,13.5543834 0.49029229,13.5543834 L3.6254113,13.5543834 L3.6254113,23.510627 C3.6254113,23.7810306 3.84479209,24 4.11570359,24 L8.20614212,24 C8.47705363,24 8.69643441,23.7807809 8.69643441,23.510627 L8.69643441,13.5543834 L12.3621197,13.5543834 C12.6330312,13.5543834 12.852412,13.335414 12.852412,13.0650105 L12.8539129,9.11931588 C12.8539129,8.98948223 12.802132,8.86514154 12.7103273,8.77325926 C12.6185226,8.68137699 12.493448,8.62969321 12.3633705,8.62969321 L8.69643441,8.62969321 L8.69643441,6.32115103 C8.69643441,5.21157267 8.96134234,4.64829437 10.4094556,4.64829437 L12.5099579,4.64754533 C12.7806192,4.64754533 13,4.42832621 13,4.15817234 L13,0.494366593 C13,0.224462408 12.7808694,0.00549296214 12.5104582,0.00499360195 Z" id="Shape"></path>
</svg>