<?xml version="1.0" encoding="UTF-8"?>
<svg class="svg-icon" viewBox="0 0 31 30" version="1.1" xmlns="http://www.w3.org/2000/svg" xmlns:xlink="http://www.w3.org/1999/xlink">
     <path d="M15.4980625,0.0196613546 C6.940125,0.0196613546 0,6.8964741 0,15.3796614 C0,22.1646813 4.44075,27.9208566 10.602,29.9536853 C11.377,30.0951992 11.659875,29.6209363 11.659875,29.2136056 C11.659875,28.8483466 11.6463125,27.8826096 11.6385625,26.6013347 C7.327625,27.5288247 6.417,24.5417331 6.417,24.5417331 C5.7136875,22.7670717 4.6965,22.2947211 4.6965,22.2947211 C3.2879375,21.3423705 4.801125,21.361494 4.801125,21.361494 C6.3569375,21.470498 7.1745625,22.9449203 7.1745625,22.9449203 C8.5579375,25.2913745 10.8035,24.6144024 11.687,24.2204582 C11.8265,23.2279482 12.2275625,22.5509761 12.67125,22.1665936 C9.23025,21.7783865 5.611,20.4607769 5.611,14.5764741 C5.611,12.8993426 6.2155,11.5281873 7.2075,10.4534462 C7.0466875,10.065239 6.5158125,8.50284861 7.358625,6.3897012 C7.358625,6.3897012 8.660625,5.97663347 11.621125,7.96356574 C12.85725,7.62316733 14.1825,7.45296813 15.5019375,7.44723108 C16.8175,7.45488048 18.1446875,7.62316733 19.38275,7.96547809 C22.3413125,5.97854582 23.641375,6.39161355 23.641375,6.39161355 C24.486125,8.50667331 23.95525,10.0671514 23.796375,10.4553586 C24.7903125,11.5300996 25.389,12.901255 25.389,14.5783865 C25.389,20.477988 21.765875,21.7764741 18.31325,22.1570319 C18.8693125,22.6312948 19.3653125,23.5683466 19.3653125,25.0006972 C19.3653125,27.0545618 19.3459375,28.7106574 19.3459375,29.2136056 C19.3459375,29.624761 19.6249375,30.1028486 20.4115625,29.9517729 C26.563125,27.9170319 31,22.1627689 31,15.3796614 C31,6.8964741 24.059875,0.0196613546 15.4980625,0.0196613546 Z" id="Shape"></path>
</svg>