<svg class="svg-icon" viewBox="0 0 20 22" width="20" xmlns="http://www.w3.org/2000/svg"><path d="m19.9077037 12.575062c-.0002032 2.7011814-.0001219 5.4023495-.0002844 8.1035309-.0000271.4380075-.0249619.4622845-.4664745.46251-1.0711671.0005572-2.1423342.0010879-3.2135013.0015256-.2026071.0000796-.2338941-.0256964-.252409-.2267578-.0105238-.1142876-.0158737-.2294243-.0159144-.3441895-.0019368-5.0296245-.0030609-10.0592357-.0040226-15.08884699-.0000271-.1842797-.0026546-.36737871-.0578742-.54661728-.1137168-.36911657-.3557238-.56878497-.7474752-.57813758-.6993392-.01670205-1.3990983-.03286018-2.0985052-.00187052-.5585748.02474131-1.0757857.53743712-1.1165807 1.10160547-.0066366.09169544-.0072868.18393478-.0073139.27592207-.0007313 2.13977236-.0010022 4.27954473-.0012867 6.41930383-.0000406.2643009-.0714183.3379014-.3416514.3381534-1.0570676.000995-2.11414881.0001725-3.17121644-.0000132-.01408592 0-.02819894-.0000398-.04227132-.0006103-.29547943-.0120191-.33791329-.0533033-.33803519-.3469887-.000921-2.17658581-.00142213-4.35317166-.00018961-6.52975751.00010835-.16706027-.01986929-.32967639-.06270947-.49089956-.10315234-.38816672-.36482553-.59838169-.7632135-.65465657-.09745024-.01377024-.19582148-.02541789-.29409792-.02864156-.65714917-.02157072-1.31433897-.02387902-1.97162358-.00220218-.53308465.01759088-.93067351.37874778-.98904884.89830217-.01495276.13308573-.02026207.26574694-.02023498.39924393.00036569 2.02931863-.01075406 4.05873013.00423932 6.08796918.00952155 1.2883129.00304744 2.5765727.01069989 3.8648325.00115125.1936323.01149899.3853012.06940028.5730566.07377505.2393341.22985797.3965642.4703481.473972.14757718.047506.29843205.0848634.45469104.0854073 1.17448196.0040993 2.34896392.0057177 3.52343233.0098567 1.00052075.0035288 2.00101439.009021 3.00150809.0144336.2322011.001247.2713031.0390687.2713979.2650438.0005824 1.2286419.000623 2.4572837-.0002844 3.6859256-.0002032.2866013-.0609352.3442691-.3588526.3450253-.4698063.0011674-.9396533-.0029185-1.40941898.0013929-.84072673.0077209-1.68160245.0120855-2.52204475.0329-.70409324.0174317-1.40802394.0398117-2.1122797.054086-1.30477679.0264527-2.43456302-.413505-3.44186939-1.2006238-.67600264-.528257-1.22636964-1.1512473-1.55245887-1.9461003-.22123034-.5392545-.33966048-1.1002523-.33975529-1.6812952-.00056886-3.5984885-.00262757-7.19700362.00851927-10.79547893.00167948-.54067405-.01954422-1.08486363.08232142-1.62329571.18258884-.96503075.64195262-1.78853852 1.30504767-2.51304122.19164989-.20939247.39436535-.40598313.61414646-.58741061.44357129-.36615822.97763111-.50789346 1.52779495-.63022037.93200084-.20723009 1.87410562-.27865489 2.8255965-.24120463.61892755.0243566 1.23534942.08417355 1.84785704.17876099.52184299.08059169.94474589.32089422 1.25612616.74115169.15593393.21046702.37338544.29680294.62811051.31858591.2750413.0235341.4817658-.06497746.6516502-.29330068.3903563-.52460878.9589537-.75290547 1.5929966-.8390026.9801909-.133099 1.9637679-.14895202 2.950135-.06338553.5763041.05000001 1.1462153.13528791 1.7080949.26664904.9478339.22161057 1.6349157.78524828 2.1556751 1.57605506.5319876.80788027.7545046 1.69346023.7539087 2.64484014-.001693 2.67817791-.0005959 5.35634256-.0007991 8.03450715" /></svg>