<?xml version="1.0" encoding="UTF-8"?>
<svg class="svg-icon" viewBox="0 0 171 141" version="1.1" xmlns="http://www.w3.org/2000/svg" xmlns:xlink="http://www.w3.org/1999/xlink">
    <g id="Page-1" stroke="none" stroke-width="1" fill="none" fill-rule="evenodd">
        <g id="losswise.com" transform="translate(-874.000000, -381.000000)">
            <g id="Group" transform="translate(875.000000, 381.000000)">
                <path d="M73.8065844,115.15 L73.8065844,91.35 L96.8930041,91.35 L96.8930041,68.95 L73.8065844,68.95 L73.8065844,46.55 L50.0205761,46.55 L50.0205761,22.75 L26.9341564,22.75 L26.9341564,46.55 L17.1042905,46.55 L26.9341564,46.55 L26.9341564,22.75 L17.1042905,22.75 L26.9341564,22.75 L26.9341564,12.2148045 L26.9341564,22.75 L50.0205761,22.75 L50.0205761,46.55 L26.9341564,46.55 L26.9341564,68.95 L17.1042905,68.95 L26.9341564,68.95 L26.9341564,46.55 L50.0205761,46.55 L50.0205761,68.95 L26.9341564,68.95 L26.9341564,91.35 L17.1042905,91.35 L26.9341564,91.35 L26.9341564,68.95 L50.0205761,68.95 L50.0205761,46.55 L73.8065844,46.55 L73.8065844,68.95 L50.0205761,68.95 L50.0205761,91.35 L26.9341564,91.35 L26.9341564,115.15 L17.1042905,115.15 L26.9341564,115.15 L26.9341564,91.35 L50.0205761,91.35 L50.0205761,68.95 L73.8065844,68.95 L73.8065844,91.35 L50.0205761,91.35 L50.0205761,115.15 L26.9341564,115.15 L26.9341564,124.285196 L26.9341564,115.15 L50.0205761,115.15 L50.0205761,91.35 L73.8065844,91.35 L73.8065844,68.95 L96.8930041,68.95 L96.8930041,46.55 L73.8065844,46.55 L73.8065844,22.75 L50.0205761,22.75 L50.0205761,12.2148045 L50.0205761,22.75 L73.8065844,22.75 L73.8065844,46.55 L96.8930041,46.55 L96.8930041,68.95 L119.979424,68.95 L119.979424,91.35 L96.8930041,91.35 L96.8930041,115.15 L73.8065844,115.15 L73.8065844,124.285196 L73.8065844,115.15 L96.8930041,115.15 L96.8930041,91.35 L119.979424,91.35 L119.979424,115.15 L96.8930041,115.15 L96.8930041,124.285196 L96.8930041,115.15 L119.979424,115.15 L119.979424,91.35 L143.065844,91.35 L143.065844,115.15 L119.979424,115.15 L119.979424,124.285196 L119.979424,115.15 L143.065844,115.15 L143.065844,91.35 L152.196121,91.35 L143.065844,91.35 L143.065844,68.95 L152.196121,68.95 L143.065844,68.95 L143.065844,46.55 L152.196121,46.55 L143.065844,46.55 L143.065844,22.75 L152.196121,22.75 L143.065844,22.75 L143.065844,12.2148045 L143.065844,22.75 L119.979424,22.75 L119.979424,12.2148045 L119.979424,22.75 L143.065844,22.75 L143.065844,46.55 L119.979424,46.55 L119.979424,22.75 L96.8930041,22.75 L96.8930041,12.2148045 L96.8930041,22.75 L119.979424,22.75 L119.979424,46.55 L143.065844,46.55 L143.065844,68.95 L119.979424,68.95 L119.979424,46.55 L96.8930041,46.55 L96.8930041,22.75 L73.8065844,22.75 L73.8065844,12.2148045 L73.8065844,22.75 L96.8930041,22.75 L96.8930041,46.55 L119.979424,46.55 L119.979424,68.95 L143.065844,68.95 L143.065844,91.35 L119.979424,91.35 L119.979424,68.95 L96.8930041,68.95 L96.8930041,91.35 L73.8065844,91.35 L73.8065844,115.15 L50.0205761,115.15 L50.0205761,124.285196 L50.0205761,115.15 L73.8065844,115.15 Z M143.065844,115.15 L143.065844,124.285196 L143.065844,115.15 L152.196121,115.15 L143.065844,115.15 Z" id="Combined-Shape" stroke-opacity="0.149966033" stroke="#214694" stroke-width="0.63" stroke-linecap="square"></path>
                <path d="M71.2999752,83.5325463 L63.1885094,59.1838346 L2.02586493,138.463868 L1.8121224,138.740925 L1.25833493,138.313188 L1.47207746,138.036132 L62.9219738,58.3837574 L62.8702986,58.2286406 L63.101006,58.1516928 L63.249606,57.9590751 L63.3789609,58.0589867 L63.5339865,58.0072811 L63.610889,58.2381243 L63.8033935,58.3868116 L63.7035406,58.5162426 L71.8786677,83.0560505 L138.646045,28.0797432 L138.916143,27.8573443 L139.360679,28.397858 L139.090581,28.6202568 L72.1156627,83.7674537 L72.1502775,83.8713594 L71.8799869,83.9615093 L71.6599891,84.1426557 L71.5904343,84.0580836 L71.4865896,84.0927189 L71.3964928,83.8222692 L71.2154529,83.602142 L71.2999752,83.5325463 Z" id="Combined-Shape" stroke="#A3D4F7" stroke-width="3" stroke-linecap="round" stroke-linejoin="round"></path>
                <polygon id="Triangle" fill="#A3D4F7" transform="translate(140.000000, 27.500000) rotate(-313.000000) translate(-140.000000, -27.500000) " points="140 24 147 31 133 31"></polygon>
                <path d="M1.04938272,0.35 L1.04938272,138.25 L1.04938272,0.35 Z M1.04938272,138.95 L169.650206,138.95 L1.04938272,138.95 Z" id="Combined-Shape" stroke="#214694" stroke-width="2" stroke-linecap="round"></path>
            </g>
        </g>
    </g>
</svg>