<?xml version="1.0" encoding="UTF-8"?>
<svg class="svg-icon" viewBox="0 0 141 139" version="1.1" xmlns="http://www.w3.org/2000/svg" xmlns:xlink="http://www.w3.org/1999/xlink">
    <g id="Group" transform="translate(38.000000, 0.000000)" stroke="#214694">
        <path d="M0.373239437,13.1497175 L18.2887324,1.12711864 L0.373239437,13.1497175 Z M33.9647887,13.1497175 L51.8802817,1.12711864 L33.9647887,13.1497175 Z M33.9647887,25.9237288 L51.8802817,13.9011299 L33.9647887,25.9237288 Z M33.9647887,38.6977401 L51.8802817,26.6751412 L33.9647887,38.6977401 Z M33.9647887,51.4717514 L51.8802817,39.4491525 L33.9647887,51.4717514 Z M33.9647887,64.2457627 L51.8802817,52.2231638 L33.9647887,64.2457627 Z M33.9647887,77.019774 L51.8802817,64.9971751 L33.9647887,77.019774 Z M33.9647887,90.5451977 L51.8802817,78.5225989 L33.9647887,90.5451977 Z M33.9647887,104.070621 L51.8802817,92.0480226 L33.9647887,104.070621 Z M33.9647887,116.844633 L51.8802817,104.822034 L33.9647887,116.844633 Z M33.9647887,131.872881 L51.8802817,119.850282 L33.9647887,131.872881 Z M33.9647887,117.596045 L0.373239437,117.596045 L33.9647887,117.596045 Z M33.9647887,104.070621 L0.373239437,104.070621 L33.9647887,104.070621 Z M33.9647887,90.5451977 L0.373239437,90.5451977 L33.9647887,90.5451977 Z M33.9647887,77.019774 L0.373239437,77.019774 L33.9647887,77.019774 Z M33.9647887,64.2457627 L0.373239437,64.2457627 L33.9647887,64.2457627 Z M33.9647887,51.4717514 L0.373239437,51.4717514 L33.9647887,51.4717514 Z M33.9647887,37.9463277 L0.373239437,37.9463277 L33.9647887,37.9463277 Z M33.9647887,25.9237288 L0.373239437,25.9237288 L33.9647887,25.9237288 Z M18.2887324,1.12711864 L51.8802817,1.12711864 L18.2887324,1.12711864 Z M51.8802817,1.12711864 L51.8802817,119.850282 L51.8802817,1.12711864 Z" id="Combined-Shape" stroke-width="0.75" stroke-linecap="square"></path>
        <rect id="Rectangle-5" stroke-width="1.5" fill-opacity="0.89990942" fill="#214694" x="0.75" y="13.5240113" width="32.8380282" height="117.974576"></rect>
        <path d="M17.4660318,1.87782486 L1.19949808,13.1504237 L33.4779779,13.1504237 L50.3814182,1.87782486 L17.4660318,1.87782486 Z" id="Rectangle-7" stroke-width="0.75" fill-opacity="0.937669837" fill="#214694"></path>
        <path d="M33.9665493,131.628565 L51.1320423,120.1301 L51.1320423,2.15423942 L33.9665493,13.7248882 L33.9665493,131.628565 Z" id="Combined-Shape" stroke-width="0.75" fill-opacity="0.95872962" fill="#214694"></path>
    </g>
    <g id="Group" transform="translate(88.000000, 0.000000)" stroke="#214694">
        <path d="M0.373239437,13.1497175 L18.2887324,1.12711864 L0.373239437,13.1497175 Z M33.9647887,13.1497175 L51.8802817,1.12711864 L33.9647887,13.1497175 Z M33.9647887,25.9237288 L51.8802817,13.9011299 L33.9647887,25.9237288 Z M33.9647887,38.6977401 L51.8802817,26.6751412 L33.9647887,38.6977401 Z M33.9647887,51.4717514 L51.8802817,39.4491525 L33.9647887,51.4717514 Z M33.9647887,64.2457627 L51.8802817,52.2231638 L33.9647887,64.2457627 Z M33.9647887,77.019774 L51.8802817,64.9971751 L33.9647887,77.019774 Z M33.9647887,90.5451977 L51.8802817,78.5225989 L33.9647887,90.5451977 Z M33.9647887,104.070621 L51.8802817,92.0480226 L33.9647887,104.070621 Z M33.9647887,116.844633 L51.8802817,104.822034 L33.9647887,116.844633 Z M33.9647887,131.872881 L51.8802817,119.850282 L33.9647887,131.872881 Z M33.9647887,117.596045 L0.373239437,117.596045 L33.9647887,117.596045 Z M33.9647887,104.070621 L0.373239437,104.070621 L33.9647887,104.070621 Z M33.9647887,90.5451977 L0.373239437,90.5451977 L33.9647887,90.5451977 Z M33.9647887,77.019774 L0.373239437,77.019774 L33.9647887,77.019774 Z M33.9647887,64.2457627 L0.373239437,64.2457627 L33.9647887,64.2457627 Z M33.9647887,51.4717514 L0.373239437,51.4717514 L33.9647887,51.4717514 Z M33.9647887,37.9463277 L0.373239437,37.9463277 L33.9647887,37.9463277 Z M33.9647887,25.9237288 L0.373239437,25.9237288 L33.9647887,25.9237288 Z M18.2887324,1.12711864 L51.8802817,1.12711864 L18.2887324,1.12711864 Z M51.8802817,1.12711864 L51.8802817,119.850282 L51.8802817,1.12711864 Z" id="Combined-Shape" stroke-width="0.75" stroke-linecap="square"></path>
        <rect id="Rectangle-5" stroke-width="1.5" fill-opacity="0.89990942" fill="#214694" x="0.75" y="13.5240113" width="32.8380282" height="117.974576"></rect>
        <path d="M17.4660318,1.87782486 L1.19949808,13.1504237 L33.4779779,13.1504237 L50.3814182,1.87782486 L17.4660318,1.87782486 Z" id="Rectangle-7" stroke-width="0.75" fill-opacity="0.937669837" fill="#214694"></path>
        <path d="M33.9665493,131.628565 L51.1320423,120.1301 L51.1320423,2.15423942 L33.9665493,13.7248882 L33.9665493,131.628565 Z" id="Combined-Shape" stroke-width="0.75" fill-opacity="0.95872962" fill="#214694"></path>
    </g>
    <path d="M85.091986,99.4055606 C83.7706653,99.4055606 82.4519909,99.5364672 81.157132,99.7974022 C80.1806957,94.9433122 77.0238156,90.8026194 72.5914817,88.5613918 C68.1600301,86.3201639 62.9409022,86.226157 58.4300656,88.3057283 C54.3479083,77.1057391 41.923261,71.3230022 30.6788054,75.3890165 C19.4343497,79.4550308 13.6286543,91.831423 17.7108115,103.030534 C7.8608871,103.340668 0.0802671935,111.461275 0.227570565,121.275762 C0.375755935,131.091128 8.39805942,138.974522 18.2532763,138.990336 L85.091986,138.990336 C96.0656503,138.990336 104.962954,130.129096 104.962954,119.197948 C104.962954,108.266801 96.0656503,99.4055606 85.091986,99.4055606 Z" id="Shape" fill="#A3D4F7" fill-rule="nonzero"></path>
</svg>