<?xml version="1.0" encoding="UTF-8"?>
<svg width="898px" height="215px" viewBox="0 0 898 215" version="1.1" xmlns="http://www.w3.org/2000/svg" xmlns:xlink="http://www.w3.org/1999/xlink">
    <!-- Generator: Sketch 52.2 (67145) - http://www.bohemiancoding.com/sketch -->
    <title>Group 4</title>
    <desc>Created with Sketch.</desc>
    <defs>
        <rect id="path-1" x="0" y="0" width="271.8" height="92"></rect>
        <filter x="-3.7%" y="-10.9%" width="107.4%" height="121.7%" filterUnits="objectBoundingBox" id="filter-2">
            <feGaussianBlur stdDeviation="10" in="SourceAlpha" result="shadowBlurInner1"></feGaussianBlur>
            <feOffset dx="0" dy="0" in="shadowBlurInner1" result="shadowOffsetInner1"></feOffset>
            <feComposite in="shadowOffsetInner1" in2="SourceAlpha" operator="arithmetic" k2="-1" k3="1" result="shadowInnerInner1"></feComposite>
            <feColorMatrix values="0 0 0 0 0.0350159484   0 0 0 0 0.0680127533   0 0 0 0 0.144159226  0 0 0 1 0" type="matrix" in="shadowInnerInner1"></feColorMatrix>
        </filter>
    </defs>
    <g id="Page-1" stroke="none" stroke-width="1" fill="none" fill-rule="evenodd">
        <g id="losswise.com" transform="translate(-254.000000, -937.000000)">
            <g id="Group-4" transform="translate(254.000000, 937.000000)">
                <g id="Group-6">
                    <g id="Rectangle">
                        <use fill="#1A2745" fill-rule="evenodd" xlink:href="#path-1"></use>
                        <use fill="black" fill-opacity="1" filter="url(#filter-2)" xlink:href="#path-1"></use>
                    </g>
                    <text id="~-(zsh)-&gt;-git-push-o" font-family="PTMono-Regular, PT Mono" font-size="13.5" font-weight="normal" line-spacing="21.6" letter-spacing="-1.15051768">
                        <tspan x="9" y="18.3578431" fill="#A3D4F7">~ (zsh)</tspan>
                        <tspan x="57.6463763" y="18.3578431" fill="#FFFFFF"></tspan>
                        <tspan x="9" y="39.9578431" fill="#FFFFFF">&gt;</tspan>
                        <tspan x="15.9494823" y="39.9578431" fill="#CBCBCB"> git push origin train/lenet-1</tspan>
                    </text>
                </g>
                <path id="Line-8" d="M350.113065,96.6679381 L342.671012,87.329718 C342.206336,86.7466466 342.302315,85.8972795 342.885386,85.4326033 C343.468457,84.9679272 344.317824,85.0639056 344.782501,85.6469769 L355.474349,99.0630119 L356.990332,100.965254 L354.574086,101.245399 L337.532905,103.221196 C336.792282,103.307065 336.122277,102.776283 336.036407,102.03566 C335.950538,101.295037 336.48132,100.625032 337.221943,100.539162 L349.083443,99.1639108 L340.148482,95.4781219 L284.933241,72.7011113 C284.243997,72.4167892 283.915743,71.6275581 284.200066,70.9383143 C284.484388,70.2490704 285.273619,69.9208165 285.962863,70.2051387 L341.178103,92.9821492 L350.113065,96.6679381 Z" fill="#1A2745" fill-rule="nonzero"></path>
                <path id="Line-8" d="M691.386385,54.8747824 L681.409524,48.3136284 C680.786576,47.9039549 680.613683,47.0668501 681.023357,46.4439025 C681.43303,45.8209548 682.270135,45.648062 682.893082,46.0577354 L697.22664,55.4840149 L699.258976,56.8205544 L697.049627,57.8381504 L681.467636,65.0150006 C680.79043,65.3269122 679.988592,65.0307829 679.676681,64.3535773 C679.364769,63.6763718 679.660899,62.874534 680.338104,62.5626225 L691.183936,57.5671818 L681.52412,56.8408347 L561.348776,47.804533 C560.60529,47.7486284 560.047896,47.1005946 560.1038,46.357109 C560.159705,45.6136235 560.807739,45.056229 561.551224,45.1121336 L681.726569,54.1484353 L691.386385,54.8747824 Z" fill="#1A2745" fill-rule="nonzero"></path>
                <path id="Line-8" d="M695.119061,80.1463411 L683.190049,79.6123151 C682.445211,79.5789709 681.868431,78.9481293 681.901775,78.2032908 C681.935119,77.4584524 682.565961,76.8816724 683.310799,76.9150165 L700.448973,77.6822411 L702.878971,77.7910249 L701.501132,79.7955913 L691.783576,93.9332968 C691.361243,94.5477326 690.520776,94.703463 689.90634,94.2811303 C689.291905,93.8587977 689.136174,93.0183309 689.558507,92.4038952 L696.322404,82.5633568 L687.640126,86.885944 L491.052315,184.75979 C490.384875,185.092084 489.57443,184.820394 489.242136,184.152954 C488.909842,183.485513 489.181532,182.675068 489.848972,182.342774 L686.436783,84.4689283 L695.119061,80.1463411 Z" fill="#1A2745" fill-rule="nonzero"></path>
                <path id="Line-8" d="M443.171842,30.4673469 L432.267713,25.6004705 C431.586868,25.2965865 431.28128,24.4983054 431.585164,23.8174599 C431.889048,23.1366144 432.687329,22.8310268 433.368175,23.1349109 L449.033919,30.1270553 L451.255144,31.1184621 L449.23875,32.4789338 L435.017628,42.0740003 C434.399567,42.4910094 433.560476,42.3280246 433.143467,41.7099635 C432.726458,41.0919024 432.889443,40.2528122 433.507504,39.8358031 L443.406105,33.1571649 L433.763767,33.9969402 L285.567408,46.9037325 C284.824635,46.9684225 284.170057,46.4187278 284.105367,45.675955 C284.040677,44.9331823 284.590372,44.2786045 285.333145,44.2139145 L433.529504,31.3071222 L443.171842,30.4673469 Z" fill="#1A2745" fill-rule="nonzero"></path>
                <g id="Group-2" transform="translate(423.500000, 153.000000) scale(-1, 1) translate(-423.500000, -153.000000) translate(360.000000, 91.000000)">
                    <g id="Group" transform="translate(34.000000, 0.000000)" stroke="#214694">
                        <path d="M0.330985915,11.7655367 L16.2183099,1.00847458 L0.330985915,11.7655367 Z M30.1197183,11.7655367 L46.0070423,1.00847458 L30.1197183,11.7655367 Z M30.1197183,23.1949153 L46.0070423,12.4378531 L30.1197183,23.1949153 Z M30.1197183,34.6242938 L46.0070423,23.8672316 L30.1197183,34.6242938 Z M30.1197183,46.0536723 L46.0070423,35.2966102 L30.1197183,46.0536723 Z M30.1197183,57.4830508 L46.0070423,46.7259887 L30.1197183,57.4830508 Z M30.1197183,68.9124294 L46.0070423,58.1553672 L30.1197183,68.9124294 Z M30.1197183,81.0141243 L46.0070423,70.2570621 L30.1197183,81.0141243 Z M30.1197183,93.1158192 L46.0070423,82.3587571 L30.1197183,93.1158192 Z M30.1197183,104.545198 L46.0070423,93.7881356 L30.1197183,104.545198 Z M30.1197183,117.991525 L46.0070423,107.234463 L30.1197183,117.991525 Z M30.1197183,105.217514 L0.330985915,105.217514 L30.1197183,105.217514 Z M30.1197183,93.1158192 L0.330985915,93.1158192 L30.1197183,93.1158192 Z M30.1197183,81.0141243 L0.330985915,81.0141243 L30.1197183,81.0141243 Z M30.1197183,68.9124294 L0.330985915,68.9124294 L30.1197183,68.9124294 Z M30.1197183,57.4830508 L0.330985915,57.4830508 L30.1197183,57.4830508 Z M30.1197183,46.0536723 L0.330985915,46.0536723 L30.1197183,46.0536723 Z M30.1197183,33.9519774 L0.330985915,33.9519774 L30.1197183,33.9519774 Z M30.1197183,23.1949153 L0.330985915,23.1949153 L30.1197183,23.1949153 Z M16.2183099,1.00847458 L46.0070423,1.00847458 L16.2183099,1.00847458 Z M46.0070423,1.00847458 L46.0070423,107.234463 L46.0070423,1.00847458 Z" id="Combined-Shape" stroke-width="0.75" stroke-linecap="square"></path>
                        <rect id="Rectangle-5" stroke-width="1.5" fill-opacity="0.89990942" fill="#214694" x="0.75" y="12.1793785" width="28.9507042" height="105.398305"></rect>
                        <path d="M15.5028785,1.71963277 L1.19074996,11.7266949 L29.6743164,11.7266949 L44.5468279,1.71963277 L15.5028785,1.71963277 Z" id="Rectangle-7" stroke-width="0.75" fill-opacity="0.937669837" fill="#214694"></path>
                        <path d="M30.1637324,117.695467 L45.3010563,107.464751 L45.3010563,2.00522335 L30.1637324,12.3001645 L30.1637324,117.695467 Z" id="Combined-Shape" stroke-width="0.75" fill-opacity="0.95872962" fill="#214694"></path>
                    </g>
                    <g id="Group" transform="translate(80.000000, 0.000000)" stroke="#214694">
                        <path d="M0.330985915,11.7655367 L16.2183099,1.00847458 L0.330985915,11.7655367 Z M30.1197183,11.7655367 L46.0070423,1.00847458 L30.1197183,11.7655367 Z M30.1197183,23.1949153 L46.0070423,12.4378531 L30.1197183,23.1949153 Z M30.1197183,34.6242938 L46.0070423,23.8672316 L30.1197183,34.6242938 Z M30.1197183,46.0536723 L46.0070423,35.2966102 L30.1197183,46.0536723 Z M30.1197183,57.4830508 L46.0070423,46.7259887 L30.1197183,57.4830508 Z M30.1197183,68.9124294 L46.0070423,58.1553672 L30.1197183,68.9124294 Z M30.1197183,81.0141243 L46.0070423,70.2570621 L30.1197183,81.0141243 Z M30.1197183,93.1158192 L46.0070423,82.3587571 L30.1197183,93.1158192 Z M30.1197183,104.545198 L46.0070423,93.7881356 L30.1197183,104.545198 Z M30.1197183,117.991525 L46.0070423,107.234463 L30.1197183,117.991525 Z M30.1197183,105.217514 L0.330985915,105.217514 L30.1197183,105.217514 Z M30.1197183,93.1158192 L0.330985915,93.1158192 L30.1197183,93.1158192 Z M30.1197183,81.0141243 L0.330985915,81.0141243 L30.1197183,81.0141243 Z M30.1197183,68.9124294 L0.330985915,68.9124294 L30.1197183,68.9124294 Z M30.1197183,57.4830508 L0.330985915,57.4830508 L30.1197183,57.4830508 Z M30.1197183,46.0536723 L0.330985915,46.0536723 L30.1197183,46.0536723 Z M30.1197183,33.9519774 L0.330985915,33.9519774 L30.1197183,33.9519774 Z M30.1197183,23.1949153 L0.330985915,23.1949153 L30.1197183,23.1949153 Z M16.2183099,1.00847458 L46.0070423,1.00847458 L16.2183099,1.00847458 Z M46.0070423,1.00847458 L46.0070423,107.234463 L46.0070423,1.00847458 Z" id="Combined-Shape" stroke-width="0.75" stroke-linecap="square"></path>
                        <rect id="Rectangle-5" stroke-width="1.5" fill-opacity="0.89990942" fill="#214694" x="0.75" y="12.1793785" width="28.9507042" height="105.398305"></rect>
                        <path d="M15.5028785,1.71963277 L1.19074996,11.7266949 L29.6743164,11.7266949 L44.5468279,1.71963277 L15.5028785,1.71963277 Z" id="Rectangle-7" stroke-width="0.75" fill-opacity="0.937669837" fill="#214694"></path>
                        <path d="M30.1637324,117.695467 L45.3010563,107.464751 L45.3010563,2.00522335 L30.1637324,12.3001645 L30.1637324,117.695467 Z" id="Combined-Shape" stroke-width="0.75" fill-opacity="0.95872962" fill="#214694"></path>
                    </g>
                    <path d="M76.166158,89.2349284 C74.9802961,89.2349284 73.7968091,89.3498963 72.6346961,89.5790608 C71.7583618,85.3159877 68.9251178,81.6794512 64.9471766,79.7111076 C60.9700272,77.7427638 56.2859521,77.6602028 52.2375561,79.4865728 C48.5738922,69.6502551 37.422991,64.571604 27.331291,68.1425546 C17.239591,71.7135052 12.0290821,82.5829913 15.692746,92.4185375 C6.85261305,92.6909112 -0.130355662,99.8227817 0.00184650697,108.442291 C0.134840256,117.062572 7.33471571,123.986111 16.1795985,124 L76.166158,124 C86.0148275,124 94,116.217673 94,106.617464 C94,97.0172552 86.0148275,89.2349284 76.166158,89.2349284 Z" id="Shape" fill="#A3D4F7" fill-rule="nonzero"></path>
                </g>
                <g id="Group-2" transform="translate(464.000000, 15.000000)" stroke="#214694">
                    <g id="Group">
                        <path d="M0.295774648,10.3813559 L14.4929577,0.889830508 L0.295774648,10.3813559 Z M26.915493,10.3813559 L41.1126761,0.889830508 L26.915493,10.3813559 Z M26.915493,20.4661017 L41.1126761,10.9745763 L26.915493,20.4661017 Z M26.915493,30.5508475 L41.1126761,21.059322 L26.915493,30.5508475 Z M26.915493,40.6355932 L41.1126761,31.1440678 L26.915493,40.6355932 Z M26.915493,50.720339 L41.1126761,41.2288136 L26.915493,50.720339 Z M26.915493,60.8050847 L41.1126761,51.3135593 L26.915493,60.8050847 Z M26.915493,71.4830508 L41.1126761,61.9915254 L26.915493,71.4830508 Z M26.915493,82.1610169 L41.1126761,72.6694915 L26.915493,82.1610169 Z M26.915493,92.2457627 L41.1126761,82.7542373 L26.915493,92.2457627 Z M26.915493,104.110169 L41.1126761,94.6186441 L26.915493,104.110169 Z M26.915493,92.8389831 L0.295774648,92.8389831 L26.915493,92.8389831 Z M26.915493,82.1610169 L0.295774648,82.1610169 L26.915493,82.1610169 Z M26.915493,71.4830508 L0.295774648,71.4830508 L26.915493,71.4830508 Z M26.915493,60.8050847 L0.295774648,60.8050847 L26.915493,60.8050847 Z M26.915493,50.720339 L0.295774648,50.720339 L26.915493,50.720339 Z M26.915493,40.6355932 L0.295774648,40.6355932 L26.915493,40.6355932 Z M26.915493,29.9576271 L0.295774648,29.9576271 L26.915493,29.9576271 Z M26.915493,20.4661017 L0.295774648,20.4661017 L26.915493,20.4661017 Z M14.4929577,0.889830508 L41.1126761,0.889830508 L14.4929577,0.889830508 Z M41.1126761,0.889830508 L41.1126761,94.6186441 L41.1126761,0.889830508 Z" id="Combined-Shape" stroke-width="0.75" stroke-linecap="square"></path>
                        <rect id="Rectangle-5" stroke-width="1.5" fill-opacity="0.89990942" fill="#214694" x="0.75" y="10.8347458" width="25.7112676" height="92.8220339"></rect>
                        <path d="M13.8649758,1.56144068 L1.20321949,10.3029661 L26.5065025,10.3029661 L39.6640225,1.56144068 L13.8649758,1.56144068 Z" id="Rectangle-7" stroke-width="0.75" fill-opacity="0.937669837" fill="#214694"></path>
                        <path d="M26.9947183,103.770851 L40.4419014,94.7969936 L40.4419014,1.84765834 L26.9947183,10.8778504 L26.9947183,103.770851 Z" id="Combined-Shape" stroke-width="0.75" fill-opacity="0.95872962" fill="#214694"></path>
                    </g>
                    <g id="Group" transform="translate(41.000000, 0.000000)">
                        <path d="M0.295774648,10.3813559 L14.4929577,0.889830508 L0.295774648,10.3813559 Z M26.915493,10.3813559 L41.1126761,0.889830508 L26.915493,10.3813559 Z M26.915493,20.4661017 L41.1126761,10.9745763 L26.915493,20.4661017 Z M26.915493,30.5508475 L41.1126761,21.059322 L26.915493,30.5508475 Z M26.915493,40.6355932 L41.1126761,31.1440678 L26.915493,40.6355932 Z M26.915493,50.720339 L41.1126761,41.2288136 L26.915493,50.720339 Z M26.915493,60.8050847 L41.1126761,51.3135593 L26.915493,60.8050847 Z M26.915493,71.4830508 L41.1126761,61.9915254 L26.915493,71.4830508 Z M26.915493,82.1610169 L41.1126761,72.6694915 L26.915493,82.1610169 Z M26.915493,92.2457627 L41.1126761,82.7542373 L26.915493,92.2457627 Z M26.915493,104.110169 L41.1126761,94.6186441 L26.915493,104.110169 Z M26.915493,92.8389831 L0.295774648,92.8389831 L26.915493,92.8389831 Z M26.915493,82.1610169 L0.295774648,82.1610169 L26.915493,82.1610169 Z M26.915493,71.4830508 L0.295774648,71.4830508 L26.915493,71.4830508 Z M26.915493,60.8050847 L0.295774648,60.8050847 L26.915493,60.8050847 Z M26.915493,50.720339 L0.295774648,50.720339 L26.915493,50.720339 Z M26.915493,40.6355932 L0.295774648,40.6355932 L26.915493,40.6355932 Z M26.915493,29.9576271 L0.295774648,29.9576271 L26.915493,29.9576271 Z M26.915493,20.4661017 L0.295774648,20.4661017 L26.915493,20.4661017 Z M14.4929577,0.889830508 L41.1126761,0.889830508 L14.4929577,0.889830508 Z M41.1126761,0.889830508 L41.1126761,94.6186441 L41.1126761,0.889830508 Z" id="Combined-Shape" stroke-width="0.75" stroke-linecap="square"></path>
                        <rect id="Rectangle-5" stroke-width="1.5" fill-opacity="0.89990942" fill="#214694" x="0.75" y="10.8347458" width="25.7112676" height="92.8220339"></rect>
                        <path d="M13.8649758,1.56144068 L1.20321949,10.3029661 L26.5065025,10.3029661 L39.6640225,1.56144068 L13.8649758,1.56144068 Z" id="Rectangle-7" stroke-width="0.75" fill-opacity="0.937669837" fill="#214694"></path>
                        <path d="M26.9947183,103.770851 L40.4419014,94.7969936 L40.4419014,1.84765834 L26.9947183,10.8778504 L26.9947183,103.770851 Z" id="Combined-Shape" stroke-width="0.75" fill-opacity="0.95872962" fill="#214694"></path>
                    </g>
                </g>
                <g id="Group" transform="translate(716.000000, 11.000000)">
                    <path d="M28.8353909,122.5525 L28.8353909,97.2225 L53.5514403,97.2225 L53.5514403,73.3825 L79.0164609,73.3825 L79.0164609,49.5425 L53.5514403,49.5425 L53.5514403,24.2125 L28.8353909,24.2125 L28.8353909,49.5425 L18.3116522,49.5425 L28.8353909,49.5425 L28.8353909,24.2125 L18.3116522,24.2125 L28.8353909,24.2125 L28.8353909,13.0000419 L28.8353909,24.2125 L53.5514403,24.2125 L53.5514403,49.5425 L28.8353909,49.5425 L28.8353909,73.3825 L18.3116522,73.3825 L28.8353909,73.3825 L28.8353909,49.5425 L53.5514403,49.5425 L53.5514403,73.3825 L28.8353909,73.3825 L28.8353909,97.2225 L18.3116522,97.2225 L28.8353909,97.2225 L28.8353909,73.3825 L53.5514403,73.3825 L53.5514403,49.5425 L79.0164609,49.5425 L79.0164609,73.3825 L103.73251,73.3825 L103.73251,97.2225 L79.0164609,97.2225 L79.0164609,122.5525 L53.5514403,122.5525 L53.5514403,132.274958 L53.5514403,122.5525 L79.0164609,122.5525 L79.0164609,97.2225 L103.73251,97.2225 L103.73251,122.5525 L79.0164609,122.5525 L79.0164609,132.274958 L79.0164609,122.5525 L103.73251,122.5525 L103.73251,97.2225 L128.44856,97.2225 L128.44856,122.5525 L153.164609,122.5525 L153.164609,97.2225 L128.44856,97.2225 L128.44856,73.3825 L103.73251,73.3825 L103.73251,49.5425 L79.0164609,49.5425 L79.0164609,24.2125 L53.5514403,24.2125 L53.5514403,13.0000419 L53.5514403,24.2125 L79.0164609,24.2125 L79.0164609,49.5425 L103.73251,49.5425 L103.73251,73.3825 L128.44856,73.3825 L128.44856,97.2225 L153.164609,97.2225 L153.164609,73.3825 L128.44856,73.3825 L128.44856,49.5425 L103.73251,49.5425 L103.73251,24.2125 L79.0164609,24.2125 L79.0164609,13.0000419 L79.0164609,24.2125 L103.73251,24.2125 L103.73251,49.5425 L128.44856,49.5425 L128.44856,73.3825 L153.164609,73.3825 L153.164609,49.5425 L128.44856,49.5425 L128.44856,24.2125 L103.73251,24.2125 L103.73251,13.0000419 L103.73251,24.2125 L128.44856,24.2125 L128.44856,49.5425 L153.164609,49.5425 L153.164609,24.2125 L128.44856,24.2125 L128.44856,13.0000419 L128.44856,24.2125 L153.164609,24.2125 L153.164609,13.0000419 L153.164609,24.2125 L162.939377,24.2125 L153.164609,24.2125 L153.164609,49.5425 L162.939377,49.5425 L153.164609,49.5425 L153.164609,73.3825 L162.939377,73.3825 L153.164609,73.3825 L153.164609,97.2225 L162.939377,97.2225 L153.164609,97.2225 L153.164609,122.5525 L162.939377,122.5525 L153.164609,122.5525 L153.164609,132.274958 L153.164609,122.5525 L128.44856,122.5525 L128.44856,132.274958 L128.44856,122.5525 L103.73251,122.5525 L103.73251,132.274958 L103.73251,122.5525 L128.44856,122.5525 L128.44856,97.2225 L103.73251,97.2225 L103.73251,73.3825 L79.0164609,73.3825 L79.0164609,97.2225 L53.5514403,97.2225 L53.5514403,122.5525 L28.8353909,122.5525 L28.8353909,132.274958 L28.8353909,122.5525 L53.5514403,122.5525 L53.5514403,97.2225 L79.0164609,97.2225 L79.0164609,73.3825 L53.5514403,73.3825 L53.5514403,97.2225 L28.8353909,97.2225 L28.8353909,122.5525 L18.3116522,122.5525 L28.8353909,122.5525 Z" id="Combined-Shape" stroke-opacity="0.42297894" stroke="#214694" stroke-width="0.673596" stroke-linecap="square"></path>
                    <path d="M40.9801565,64.9769473 L40.7352215,64.5270241 L41.2522989,64.4214881 L41.3065708,64.3107157 L41.4455994,64.0269499 L41.6956032,64.3310093 L43.1853528,64.0269499 L43.593708,64.7770612 L74.5856898,121.706504 L74.994045,122.456615 L72.5439137,122.956689 L72.1355585,122.206578 L41.2827132,65.5327164 L1.62269569,146.481234 L1.48366714,146.765 L1.12345679,146.326905 L1.26248534,146.04314 L40.9801565,64.9769473 Z M75.6509383,122.075666 L75.468006,122.286429 L74.994045,121.961041 L75.1769773,121.750279 L127.866563,61.0448552 L128.049496,60.8340928 L128.523457,61.1594803 L128.340524,61.3702427 L75.6509383,122.075666 Z M128.765918,61.0373007 L128.523457,60.915376 L129.978222,60.8340928 L130.220683,60.9560175 L148.622172,70.2094563 L148.864633,70.331381 L147.409868,70.4126642 L147.167407,70.2907395 L128.765918,61.0373007 Z" id="Combined-Shape" stroke="#3566CC" stroke-width="3.2076" stroke-linecap="round" stroke-linejoin="round"></path>
                    <path d="M76.3329146,88.9024957 L67.6488748,62.9885096 L2.16886716,147.365117 L1.94003692,147.659984 L1.34715857,147.20475 L1.57598881,146.909883 L67.3635249,62.1369989 L67.308202,61.9719103 L67.5551947,61.890016 L67.7142841,61.6850157 L67.8527699,61.7913502 L68.0187385,61.7363206 L68.1010694,61.9820037 L68.3071624,62.1402495 L68.2002611,62.2780011 L76.952456,88.395368 L148.432824,29.8848695 L148.721988,29.6481736 L149.197903,30.2234346 L148.90874,30.4601305 L77.20618,89.1525043 L77.2432383,89.2630897 L76.9538683,89.3590349 L76.7183413,89.5518264 L76.6438767,89.4618176 L76.5327018,89.4986794 L76.4362452,89.2108437 L76.242426,88.9765654 L76.3329146,88.9024957 Z" id="Combined-Shape" stroke="#A3D4F7" stroke-width="3.7422" stroke-linecap="round" stroke-linejoin="round"></path>
                    <polygon id="Triangle" fill="#A3D4F7" transform="translate(149.347059, 29.800000) rotate(-313.000000) translate(-149.347059, -29.800000) " points="149.347059 25.5428571 157.376471 34.0571429 141.317647 34.0571429"></polygon>
                    <polygon id="Triangle" fill="#3566CC" transform="translate(151.388064, 71.498150) rotate(-241.000000) translate(-151.388064, -71.498150) " points="151.388064 67.2410068 159.417475 75.7552926 143.358652 75.7552926"></polygon>
                    <path d="M1.12345679,0.3725 L1.12345679,147.1375 L1.12345679,0.3725 Z M1.12345679,147.8825 L181.625514,147.8825 L1.12345679,147.8825 Z" id="Combined-Shape" stroke="#214694" stroke-width="3.2076" stroke-linecap="round"></path>
                </g>
            </g>
        </g>
    </g>
</svg>