<?xml version="1.0" encoding="UTF-8"?>
<svg class="svg-icon" viewBox="0 0 171 81" version="1.1" xmlns="http://www.w3.org/2000/svg" xmlns:xlink="http://www.w3.org/1999/xlink">
    <g id="Page-1" stroke="none" stroke-width="1" fill="none" fill-rule="evenodd">
        <g id="losswise.com" transform="translate(-640.000000, -953.000000)">
            <g id="Group-4" transform="translate(640.000000, 953.000000)">
                <g id="Group-2" transform="translate(41.500000, 40.500000) scale(-1, 1) translate(-41.500000, -40.500000) ">
                    <g id="Group" transform="translate(22.000000, 0.000000)" stroke="#214694">
                        <path d="M0.218309859,7.71186441 L10.6971831,0.661016949 L0.218309859,7.71186441 Z M19.8661972,7.71186441 L30.3450704,0.661016949 L19.8661972,7.71186441 Z M19.8661972,15.2033898 L30.3450704,8.15254237 L19.8661972,15.2033898 Z M19.8661972,22.6949153 L30.3450704,15.6440678 L19.8661972,22.6949153 Z M19.8661972,30.1864407 L30.3450704,23.1355932 L19.8661972,30.1864407 Z M19.8661972,37.6779661 L30.3450704,30.6271186 L19.8661972,37.6779661 Z M19.8661972,45.1694915 L30.3450704,38.1186441 L19.8661972,45.1694915 Z M19.8661972,53.1016949 L30.3450704,46.0508475 L19.8661972,53.1016949 Z M19.8661972,61.0338983 L30.3450704,53.9830508 L19.8661972,61.0338983 Z M19.8661972,68.5254237 L30.3450704,61.4745763 L19.8661972,68.5254237 Z M19.8661972,77.3389831 L30.3450704,70.2881356 L19.8661972,77.3389831 Z M19.8661972,68.9661017 L0.218309859,68.9661017 L19.8661972,68.9661017 Z M19.8661972,61.0338983 L0.218309859,61.0338983 L19.8661972,61.0338983 Z M19.8661972,53.1016949 L0.218309859,53.1016949 L19.8661972,53.1016949 Z M19.8661972,45.1694915 L0.218309859,45.1694915 L19.8661972,45.1694915 Z M19.8661972,37.6779661 L0.218309859,37.6779661 L19.8661972,37.6779661 Z M19.8661972,30.1864407 L0.218309859,30.1864407 L19.8661972,30.1864407 Z M19.8661972,22.2542373 L0.218309859,22.2542373 L19.8661972,22.2542373 Z M19.8661972,15.2033898 L0.218309859,15.2033898 L19.8661972,15.2033898 Z M10.6971831,0.661016949 L30.3450704,0.661016949 L10.6971831,0.661016949 Z M30.3450704,0.661016949 L30.3450704,70.2881356 L30.3450704,0.661016949 Z" id="Combined-Shape" stroke-width="0.75" stroke-linecap="square"></path>
                        <rect id="Rectangle-5" stroke-width="1.5" fill-opacity="0.89990942" fill="#214694" x="0.75" y="8.24152542" width="18.584507" height="68.5677966"></rect>
                        <path d="M10.264902,1.25635593 L1.19687524,7.55720339 L19.534064,7.55720339 L28.957144,1.25635593 L10.264902,1.25635593 Z" id="Rectangle-7" stroke-width="0.75" fill-opacity="0.937669837" fill="#214694"></path>
                        <path d="M20.0228873,76.9041257 L29.7517606,70.3697621 L29.7517606,1.55598686 L20.0228873,8.13137075 L20.0228873,76.9041257 Z" id="Combined-Shape" stroke-width="0.75" fill-opacity="0.95872962" fill="#214694"></path>
                    </g>
                    <g id="Group" transform="translate(52.000000, 0.000000)" stroke="#214694">
                        <path d="M0.218309859,7.71186441 L10.6971831,0.661016949 L0.218309859,7.71186441 Z M19.8661972,7.71186441 L30.3450704,0.661016949 L19.8661972,7.71186441 Z M19.8661972,15.2033898 L30.3450704,8.15254237 L19.8661972,15.2033898 Z M19.8661972,22.6949153 L30.3450704,15.6440678 L19.8661972,22.6949153 Z M19.8661972,30.1864407 L30.3450704,23.1355932 L19.8661972,30.1864407 Z M19.8661972,37.6779661 L30.3450704,30.6271186 L19.8661972,37.6779661 Z M19.8661972,45.1694915 L30.3450704,38.1186441 L19.8661972,45.1694915 Z M19.8661972,53.1016949 L30.3450704,46.0508475 L19.8661972,53.1016949 Z M19.8661972,61.0338983 L30.3450704,53.9830508 L19.8661972,61.0338983 Z M19.8661972,68.5254237 L30.3450704,61.4745763 L19.8661972,68.5254237 Z M19.8661972,77.3389831 L30.3450704,70.2881356 L19.8661972,77.3389831 Z M19.8661972,68.9661017 L0.218309859,68.9661017 L19.8661972,68.9661017 Z M19.8661972,61.0338983 L0.218309859,61.0338983 L19.8661972,61.0338983 Z M19.8661972,53.1016949 L0.218309859,53.1016949 L19.8661972,53.1016949 Z M19.8661972,45.1694915 L0.218309859,45.1694915 L19.8661972,45.1694915 Z M19.8661972,37.6779661 L0.218309859,37.6779661 L19.8661972,37.6779661 Z M19.8661972,30.1864407 L0.218309859,30.1864407 L19.8661972,30.1864407 Z M19.8661972,22.2542373 L0.218309859,22.2542373 L19.8661972,22.2542373 Z M19.8661972,15.2033898 L0.218309859,15.2033898 L19.8661972,15.2033898 Z M10.6971831,0.661016949 L30.3450704,0.661016949 L10.6971831,0.661016949 Z M30.3450704,0.661016949 L30.3450704,70.2881356 L30.3450704,0.661016949 Z" id="Combined-Shape" stroke-width="0.75" stroke-linecap="square"></path>
                        <rect id="Rectangle-5" stroke-width="1.5" fill-opacity="0.89990942" fill="#214694" x="0.75" y="8.24152542" width="18.584507" height="68.5677966"></rect>
                        <path d="M10.264902,1.25635593 L1.19687524,7.55720339 L19.534064,7.55720339 L28.957144,1.25635593 L10.264902,1.25635593 Z" id="Rectangle-7" stroke-width="0.75" fill-opacity="0.937669837" fill="#214694"></path>
                        <path d="M20.0228873,76.9041257 L29.7517606,70.3697621 L29.7517606,1.55598686 L20.0228873,8.13137075 L20.0228873,76.9041257 Z" id="Combined-Shape" stroke-width="0.75" fill-opacity="0.95872962" fill="#214694"></path>
                    </g>
                    <path d="M49.4269749,58.4331992 C48.6574262,58.4331992 47.8894187,58.5078274 47.1352815,58.6565833 C46.5665965,55.8893254 44.728002,53.5287666 42.146572,52.2510698 C39.5656559,50.973373 36.5259902,50.9197808 33.8988396,52.1053192 C31.5213556,45.720341 24.2851325,42.4236727 17.7362633,44.7416582 C11.1873942,47.0596437 7.80610645,54.1152751 10.1835905,60.4997524 C4.44690847,60.6765564 -0.0845925044,65.3060162 0.00119826516,70.9011362 C0.0875027192,76.4967573 4.75976232,80.9909846 10.4995267,81 L49.4269749,81 C55.8181328,81 61,75.9483143 61,69.7165996 C61,63.484885 55.8181328,58.4331992 49.4269749,58.4331992 Z" id="Shape" fill="#A3D4F7" fill-rule="nonzero"></path>
                </g>
                <g id="Group-2-Copy" transform="translate(110.000000, 0.000000)" stroke="#214694">
                    <g id="Group">
                        <path d="M0.218309859,7.71186441 L10.6971831,0.661016949 L0.218309859,7.71186441 Z M19.8661972,7.71186441 L30.3450704,0.661016949 L19.8661972,7.71186441 Z M19.8661972,15.2033898 L30.3450704,8.15254237 L19.8661972,15.2033898 Z M19.8661972,22.6949153 L30.3450704,15.6440678 L19.8661972,22.6949153 Z M19.8661972,30.1864407 L30.3450704,23.1355932 L19.8661972,30.1864407 Z M19.8661972,37.6779661 L30.3450704,30.6271186 L19.8661972,37.6779661 Z M19.8661972,45.1694915 L30.3450704,38.1186441 L19.8661972,45.1694915 Z M19.8661972,53.1016949 L30.3450704,46.0508475 L19.8661972,53.1016949 Z M19.8661972,61.0338983 L30.3450704,53.9830508 L19.8661972,61.0338983 Z M19.8661972,68.5254237 L30.3450704,61.4745763 L19.8661972,68.5254237 Z M19.8661972,77.3389831 L30.3450704,70.2881356 L19.8661972,77.3389831 Z M19.8661972,68.9661017 L0.218309859,68.9661017 L19.8661972,68.9661017 Z M19.8661972,61.0338983 L0.218309859,61.0338983 L19.8661972,61.0338983 Z M19.8661972,53.1016949 L0.218309859,53.1016949 L19.8661972,53.1016949 Z M19.8661972,45.1694915 L0.218309859,45.1694915 L19.8661972,45.1694915 Z M19.8661972,37.6779661 L0.218309859,37.6779661 L19.8661972,37.6779661 Z M19.8661972,30.1864407 L0.218309859,30.1864407 L19.8661972,30.1864407 Z M19.8661972,22.2542373 L0.218309859,22.2542373 L19.8661972,22.2542373 Z M19.8661972,15.2033898 L0.218309859,15.2033898 L19.8661972,15.2033898 Z M10.6971831,0.661016949 L30.3450704,0.661016949 L10.6971831,0.661016949 Z M30.3450704,0.661016949 L30.3450704,70.2881356 L30.3450704,0.661016949 Z" id="Combined-Shape" stroke-width="0.75" stroke-linecap="square"></path>
                        <rect id="Rectangle-5" stroke-width="1.5" fill-opacity="0.89990942" fill="#214694" x="0.75" y="8.24152542" width="18.584507" height="68.5677966"></rect>
                        <path d="M10.264902,1.25635593 L1.19687524,7.55720339 L19.534064,7.55720339 L28.957144,1.25635593 L10.264902,1.25635593 Z" id="Rectangle-7" stroke-width="0.75" fill-opacity="0.937669837" fill="#214694"></path>
                        <path d="M20.0228873,76.9041257 L29.7517606,70.3697621 L29.7517606,1.55598686 L20.0228873,8.13137075 L20.0228873,76.9041257 Z" id="Combined-Shape" stroke-width="0.75" fill-opacity="0.95872962" fill="#214694"></path>
                    </g>
                    <g id="Group" transform="translate(30.000000, 0.000000)">
                        <path d="M0.218309859,7.71186441 L10.6971831,0.661016949 L0.218309859,7.71186441 Z M19.8661972,7.71186441 L30.3450704,0.661016949 L19.8661972,7.71186441 Z M19.8661972,15.2033898 L30.3450704,8.15254237 L19.8661972,15.2033898 Z M19.8661972,22.6949153 L30.3450704,15.6440678 L19.8661972,22.6949153 Z M19.8661972,30.1864407 L30.3450704,23.1355932 L19.8661972,30.1864407 Z M19.8661972,37.6779661 L30.3450704,30.6271186 L19.8661972,37.6779661 Z M19.8661972,45.1694915 L30.3450704,38.1186441 L19.8661972,45.1694915 Z M19.8661972,53.1016949 L30.3450704,46.0508475 L19.8661972,53.1016949 Z M19.8661972,61.0338983 L30.3450704,53.9830508 L19.8661972,61.0338983 Z M19.8661972,68.5254237 L30.3450704,61.4745763 L19.8661972,68.5254237 Z M19.8661972,77.3389831 L30.3450704,70.2881356 L19.8661972,77.3389831 Z M19.8661972,68.9661017 L0.218309859,68.9661017 L19.8661972,68.9661017 Z M19.8661972,61.0338983 L0.218309859,61.0338983 L19.8661972,61.0338983 Z M19.8661972,53.1016949 L0.218309859,53.1016949 L19.8661972,53.1016949 Z M19.8661972,45.1694915 L0.218309859,45.1694915 L19.8661972,45.1694915 Z M19.8661972,37.6779661 L0.218309859,37.6779661 L19.8661972,37.6779661 Z M19.8661972,30.1864407 L0.218309859,30.1864407 L19.8661972,30.1864407 Z M19.8661972,22.2542373 L0.218309859,22.2542373 L19.8661972,22.2542373 Z M19.8661972,15.2033898 L0.218309859,15.2033898 L19.8661972,15.2033898 Z M10.6971831,0.661016949 L30.3450704,0.661016949 L10.6971831,0.661016949 Z M30.3450704,0.661016949 L30.3450704,70.2881356 L30.3450704,0.661016949 Z" id="Combined-Shape" stroke-width="0.75" stroke-linecap="square"></path>
                        <rect id="Rectangle-5" stroke-width="1.5" fill-opacity="0.89990942" fill="#214694" x="0.75" y="8.24152542" width="18.584507" height="68.5677966"></rect>
                        <path d="M10.264902,1.25635593 L1.19687524,7.55720339 L19.534064,7.55720339 L28.957144,1.25635593 L10.264902,1.25635593 Z" id="Rectangle-7" stroke-width="0.75" fill-opacity="0.937669837" fill="#214694"></path>
                        <path d="M20.0228873,76.9041257 L29.7517606,70.3697621 L29.7517606,1.55598686 L20.0228873,8.13137075 L20.0228873,76.9041257 Z" id="Combined-Shape" stroke-width="0.75" fill-opacity="0.95872962" fill="#214694"></path>
                    </g>
                </g>
            </g>
        </g>
    </g>
</svg>