<?xml version="1.0" encoding="UTF-8"?>
<svg class="svg-icon" viewBox="0 0 226 108" version="1.1" xmlns="http://www.w3.org/2000/svg" xmlns:xlink="http://www.w3.org/1999/xlink">
    <g id="Page-1" stroke="none" stroke-width="1" fill="none" fill-rule="evenodd">
        <g id="losswise.com" transform="translate(-339.000000, -401.000000)">
            <g id="Group-10" transform="translate(325.000000, 396.000000)">
                <g id="gitlab" transform="translate(65.704282, 63.209214) rotate(-14.000000) translate(-65.704282, -63.209214) translate(10.704282, 12.209214)">
                    <g id="Group-9">
                        <path d="M34.7922143,39.2932392 L6.42635714,39.2932392 L18.6164524,1.63473402 C19.2434524,-0.302740206 21.9745952,-0.303265979 22.6015952,1.63473402 L34.7921802,39.293134 L75.2721619,39.293134 L55.0321619,101.818608 L34.7921619,39.293134 Z M103.638019,39.2932392 L75.2721619,39.2932392 L87.462781,1.63473402 C88.089781,-0.303265979 90.8209238,-0.302740206 91.4479238,1.63473402 L103.638019,39.2932392 Z" id="Combined-Shape" fill="#E24329"></path>
                        <path d="M55.0321619,101.818503 L6.42630476,39.2930289 L34.7921619,39.2930289 L55.0321619,101.818503 Z M55.0321619,101.818503 L75.2721619,39.2930289 L103.638019,39.2930289 L55.0321619,101.818503 Z" id="Combined-Shape" fill="#FC6D26"></path>
                        <path d="M6.42635714,39.2931866 L55.0322143,101.818661 L1.79797619,62.9966196 C0.329214286,61.9256196 -0.285214286,60.0270526 0.275785714,58.2941041 L6.42635714,39.2931866 Z M103.638019,39.2931866 L109.78859,58.2941041 C110.34959,60.0270526 109.735162,61.9256196 108.2664,62.9966196 L55.0321619,101.818661 L103.638019,39.2931866 Z" id="Combined-Shape" fill="#FCA326"></path>
                    </g>
                </g>
                <path d="M109.75,74.4229414 L109.75,89.5737705 L89.6770833,89.5737705 L84.2916667,67.9344262 L102.813784,67.9344262 C101.003519,65.0774461 99.9583333,61.707371 99.9583333,58.0983607 C99.9583333,47.7769735 108.506896,39.4098361 119.052083,39.4098361 C129.59727,39.4098361 138.145833,47.7769735 138.145833,58.0983607 C138.145833,68.4197478 129.59727,76.7868852 119.052083,76.7868852 C115.674857,76.7868852 112.502421,75.928685 109.749996,74.4229392 Z M117.583333,34.4918033 C101.900748,34.4918033 89.1875,31.6293615 89.1875,28.0983607 C89.1875,24.5673598 101.900748,21.704918 117.583333,21.704918 C133.265919,21.704918 145.979167,24.5673598 145.979167,28.0983607 C145.979167,31.6293615 133.265919,34.4918033 117.583333,34.4918033 Z" id="Combined-Shape" fill="#FFFFFF"></path>
                <path d="M145.592916,79.9206705 C146.379546,80.1444516 146.829443,80.5737578 146.941622,81.210356 C147.05321,81.8453838 146.959138,82.6863294 146.660584,83.7322114 C146.362424,84.7775044 146.211475,85.4694589 146.211475,85.8059157 C145.910953,86.7774003 145.621453,88.2062619 145.339234,90.0925005 C145.058393,91.9795244 144.795658,93.5493288 144.551816,94.8009322 C144.308762,96.0517505 143.774632,97.3602807 142.951593,98.723971 C142.126586,100.086287 141.040418,101.142377 139.691908,101.890669 C136.471191,103.683666 132.921809,105.019678 129.04455,105.897135 C125.16729,106.7742 121.384891,107.186035 117.694006,107.129697 C114.004302,107.073948 110.230759,106.728658 106.372589,106.093238 C104.649166,105.7929 103.122942,105.457621 101.793129,105.083475 C100.463513,104.710114 99.0303773,104.206018 97.4945095,103.571383 C95.9586416,102.935962 94.5918294,102.122302 93.3932857,101.133543 C92.1943483,100.14341 91.2205561,98.9932935 90.4709251,97.6861373 C89.5343291,94.0989664 88.4668576,88.6442053 87.2681171,81.321265 L87.6054412,80.4243742 L88.61702,79.9206705 C96.9702204,85.4494364 106.457216,88.2150953 117.076628,88.2150953 C127.695844,88.2150953 137.202519,85.4494364 145.592916,79.9206705 Z M155.764006,26.0614803 C156.362097,26.8083986 156.673246,27.76202 156.690565,28.9205776 C156.706703,30.078939 156.604364,31.0879167 156.379416,31.9471181 C155.405624,38.1866833 153.327164,50.4229916 150.142855,68.6572209 C149.955694,69.7776965 149.449904,70.8235784 148.626078,71.7948667 C147.803038,72.7661549 146.986887,73.5132695 146.181363,74.0373883 C145.37584,74.5605256 144.355995,75.1398044 143.120255,75.7738507 C133.681084,80.4822824 122.254376,82.1249138 108.844463,80.7060635 C99.5548632,79.6968895 92.175455,77.1004404 86.7062382,72.9153423 C86.1441625,72.4687617 85.6669099,71.9723211 85.2732995,71.430928 C84.8800827,70.8887497 84.561455,70.2358587 84.318007,69.4687216 C84.0747557,68.7029586 83.9062905,68.0673419 83.8126112,67.5622641 C83.7187351,67.0583642 83.6065561,66.320083 83.4752871,65.3482059 C83.3442148,64.3761324 83.2414825,63.7232414 83.1664997,63.3865883 C82.8291756,61.5189981 82.3334232,58.716435 81.6774715,54.9796841 C81.0217165,51.2431295 80.4974274,48.2262077 80.1044074,45.9287223 C79.7111906,43.6310406 79.2715278,40.875393 78.7838444,37.6623683 C78.2961611,34.448951 77.8842478,31.497593 77.5479077,28.8071167 C77.6602835,27.8356322 77.9875706,26.9299078 78.5311466,26.0891585 C79.0747225,25.2484092 79.664351,24.5478175 80.300819,23.987776 C80.9376807,23.4273419 81.780991,22.8669078 82.8299628,22.3064737 C83.8793282,21.7458432 84.740351,21.3255667 85.4148024,21.0454478 C86.0894507,20.7651326 86.9880633,20.4198424 88.1122146,20.0089883 C92.7949978,18.2898002 98.6570378,17.0945346 105.698531,16.4224062 C119.894682,15.0394786 132.556539,15.9736664 143.682724,19.2245768 C149.488281,20.9435686 153.515703,23.2226018 155.764006,26.0614803 Z M126.767907,67.589746 C129.05439,64.7502786 129.989805,61.6124365 129.577301,58.1750419 C129.053406,54.1770168 126.935782,51.1131795 123.227578,48.9835299 C119.519177,46.853684 115.830457,46.6108619 112.15945,48.2550637 C109.799558,49.3013382 107.91751,50.9543735 106.512518,53.2147583 C105.107525,55.4751432 104.461217,57.8943341 104.57379,60.4725273 C104.723362,63.8728214 106.174997,66.7688229 108.928302,69.1597467 C111.681607,71.5510631 114.780698,72.5969451 118.226167,72.2981777 C121.63503,71.9980363 124.482014,70.4294097 126.767907,67.589746 Z M138.792509,30.4053845 C140.516129,29.7522972 141.921515,28.8824956 143.007879,27.7987279 C142.259823,26.7903391 141.209867,25.9588159 139.861358,25.3051397 C138.513045,24.651856 137.427271,24.2402167 136.603051,24.0723809 C135.77883,23.9041525 134.449214,23.6707528 132.613219,23.3717892 C121.712571,21.6155006 111.111856,21.6527974 100.810284,23.4836797 C99.1998266,23.7453465 97.9632995,23.9693239 97.1018831,24.156397 C96.2404667,24.3434701 95.2099946,24.7543242 94.0116476,25.3891557 C92.8129071,26.0241835 91.8763111,26.827636 91.2018596,27.7987279 C92.3252238,28.8453951 93.7487159,29.6947815 95.4721391,30.3488503 C97.1955623,31.0031155 98.5722148,31.4139696 99.6018997,31.5816091 C100.631978,31.7502301 102.270972,31.9655703 104.518487,32.227237 C113.058456,33.3104158 121.449246,33.3288679 129.691645,32.2835749 C132.051536,31.9834335 133.727136,31.7592598 134.720018,31.6098762 C135.711326,31.4606888 137.069085,31.0590607 138.792509,30.4053845 Z M121.795426,55.5685816 C122.824521,56.671194 123.340347,57.9322198 123.340544,59.3520516 C123.640869,61.7058749 122.694826,63.5934877 120.503794,65.012338 C118.31099,66.4319735 116.223871,66.5448456 114.238697,65.3484022 C112.777615,64.7133744 111.776073,63.6299993 111.232497,62.0982769 C110.688921,60.5655731 110.680065,59.0334581 111.204157,57.5015394 C111.729234,55.9696208 112.703026,54.886442 114.126518,54.2512179 C115.475421,53.5785007 116.832589,53.3545233 118.199402,53.5785007 C119.566214,53.8028706 120.765742,54.4659692 121.795426,55.5685816 Z" id="Combined-Shape" fill="#214694" fill-rule="nonzero"></path>
                <path d="M233.491073,36.4318329 C229.331982,29.3256355 223.690442,23.699649 216.564966,19.5526045 C209.43843,15.4053485 201.658377,13.3322493 193.219292,13.3322493 C184.781268,13.3322493 176.998669,15.4059831 169.873618,19.5526045 C162.747506,23.6994375 157.106177,29.3256355 152.947087,36.4318329 C148.788633,43.5378188 146.709299,51.2976105 146.709299,59.7109963 C146.709299,69.8173814 149.66614,78.9053018 155.581305,86.9770841 C161.495833,95.0495011 169.136529,100.635299 178.502755,103.735112 C179.59301,103.936901 180.400096,103.794972 180.924861,103.31292 C181.449838,102.830233 181.712008,102.225711 181.712008,101.501893 C181.712008,101.381115 181.701615,100.294542 181.681464,98.2409021 C181.660677,96.1872626 181.65092,94.3956954 181.65092,92.8670465 L180.257981,93.1073322 C179.369868,93.2695674 178.249493,93.3383111 176.896856,93.3188514 C175.544854,93.3000262 174.14131,93.1587314 172.688131,92.8960246 C171.234316,92.6356445 169.882102,92.0317573 168.63043,91.0856322 C167.379394,90.139507 166.491281,88.9010624 165.966304,87.3722019 L165.360725,85.9825211 C164.957076,85.0573363 164.321588,84.0295648 163.453414,82.9030137 C162.58524,81.7754051 161.707309,81.0109749 160.819196,80.608454 L160.395185,80.3057701 C160.112652,80.1046154 159.850481,79.8620029 159.608037,79.5804709 C159.365805,79.2989389 159.18445,79.0171954 159.063334,78.7350288 C158.942006,78.4526508 159.042547,78.2210373 159.366018,78.0393424 C159.689488,77.8576474 160.274069,77.7694439 161.122304,77.7694439 L162.333039,77.9498698 C163.140549,78.1112589 164.139384,78.593311 165.330817,79.3989875 C166.521613,80.2040294 167.50051,81.2506261 168.267718,82.5383547 C169.196769,84.1894732 170.316083,85.4475892 171.628844,86.313337 C172.940544,87.1790849 174.263062,87.6112186 175.595125,87.6112186 C176.927188,87.6112186 178.077683,87.5105354 179.047034,87.3102268 C180.015325,87.1088606 180.9238,86.8061767 181.772036,86.4038672 C182.135384,83.7053059 183.124674,81.6322067 184.739057,80.183089 C182.438067,79.9419571 180.36934,79.5787787 178.531814,79.0958805 C176.695349,78.6123477 174.797584,77.8276117 172.839791,76.7395572 C170.880937,75.6529833 169.255948,74.3037026 167.964398,72.6940419 C166.672637,71.083535 165.612501,68.9691896 164.785477,66.3529092 C163.958029,63.7355712 163.544198,60.7163468 163.544198,57.29439 C163.544198,52.4220463 165.13928,48.2758478 168.328807,44.853468 C166.83469,41.1903793 166.975745,37.0839464 168.752394,32.5345925 C169.923252,32.1718372 171.6596,32.4440623 173.96059,33.3495758 C176.262005,34.2555123 177.947022,35.0315761 179.017338,35.6750174 C180.087655,36.3182471 180.945224,36.863332 181.591317,37.305407 C185.346758,36.2590218 189.222255,35.7357234 193.218868,35.7357234 C197.21548,35.7357234 201.091826,36.2590218 204.847479,37.305407 L207.148682,35.8567123 C208.72234,34.8900698 210.580652,34.0042276 212.719165,33.1989742 C214.85895,32.3941438 216.495181,32.1724717 217.626162,32.5352271 C219.442264,37.0847925 219.604106,41.1910138 218.109565,44.8541025 C221.29888,48.2764824 222.894598,52.4237384 222.894598,57.2950245 C222.894598,60.7169814 222.479283,63.7457241 221.653107,66.3831564 C220.82587,69.0210118 219.756614,71.133242 218.444914,72.7242891 C217.131729,74.3151246 215.496346,75.6538294 213.538553,76.7401917 C211.580336,77.8274002 209.681934,78.6121362 207.845469,79.095669 C206.008156,79.5792018 203.939428,79.9425917 201.638438,80.1841466 C203.737073,81.9951735 204.786603,84.8538549 204.786603,88.7589215 L204.786603,101.500201 C204.786603,102.224019 205.039016,102.828329 205.544267,103.311228 C206.048881,103.79328 206.845786,103.935209 207.936041,103.733208 C217.30354,100.633818 224.944235,95.0478089 230.858552,86.975392 C236.772232,78.9036096 239.730133,69.8156892 239.730133,59.7093041 C239.728012,51.2969759 237.647618,43.5378188 233.491073,36.4318329 Z" id="Shape" fill="#1A2745" fill-rule="nonzero"></path>
            </g>
        </g>
    </g>
</svg>