<svg class="svg-icon" viewBox="0 0 23 20"  xmlns="http://www.w3.org/2000/svg">
<path d="M22.5877 2.3498C22.0777 2.58612 21.5483 2.77255 21.0051 2.90752C21.6036 2.31314 22.0537 1.56969 22.3076 0.739861C22.38 0.502961 22.1338 0.298107 21.9291 0.424949C21.1734 0.89337 20.3594 1.24477 19.5096 1.46951C19.4603 1.48255 19.4095 1.48916 19.3584 1.48916C19.2036 1.48916 19.0532 1.4291 18.9348 1.3201C18.0307 0.487405 16.8679 0.0288086 15.6606 0.0288086C15.1382 0.0288086 14.6108 0.113896 14.0929 0.281733C12.4884 0.801791 11.2504 2.18489 10.862 3.89132C10.7162 4.53138 10.6768 5.17203 10.7446 5.79542C10.7524 5.86705 10.72 5.91705 10.7 5.9405C10.6649 5.98162 10.6152 6.00518 10.5635 6.00518C10.5578 6.00518 10.5518 6.00489 10.546 6.00431C7.03373 5.66331 3.86655 3.89507 1.62783 1.02536C1.51367 0.878984 1.29475 0.896937 1.20376 1.06004C0.76536 1.846 0.533681 2.74495 0.533681 3.65969C0.533681 5.06156 1.07264 6.38267 2.00882 7.34577C1.61513 7.24822 1.23409 7.0946 0.880136 6.88916C0.708895 6.78974 0.498202 6.91752 0.495796 7.1222C0.471285 9.20477 1.63807 11.0579 3.38596 11.8923C3.35076 11.8932 3.31556 11.8936 3.28031 11.8936C3.00324 11.8936 2.72271 11.8657 2.4466 11.8105C2.25376 11.772 2.09175 11.9632 2.15163 12.1586C2.71896 14.0095 4.24401 15.3738 6.06901 15.6836C4.55437 16.7461 2.79054 17.3066 0.954732 17.3066L0.382418 17.3062C0.206085 17.3062 0.0569488 17.4264 0.012012 17.6048C-0.0322532 17.7806 0.0492821 17.9661 0.199649 18.0575C2.26831 19.3155 4.62791 19.9804 7.02438 19.9804C9.12208 19.9804 11.0843 19.5454 12.8566 18.6875C14.4813 17.901 15.917 16.7768 17.1239 15.3459C18.2482 14.0131 19.1273 12.4744 19.7368 10.7728C20.3179 9.15074 20.625 7.41998 20.625 5.76758V5.68887C20.6249 5.42355 20.7398 5.1739 20.9401 5.00395C21.7003 4.35893 22.3624 3.59963 22.9077 2.74717C23.0517 2.52208 22.8246 2.23998 22.5877 2.3498Z" fill="#0093FF"/>
</svg>
