<svg xmlns="http://www.w3.org/2000/svg" class="svg-icon" viewbox="0 0 36 36">
    <path fill="#00B9F1" fill-rule="evenodd" d="M29.555 14.487a1.5 1.5 0 1 1-2.114-2.114l3.434-3.441H1.508a1.499 1.499 0 1 1 0-2.997h2.249v-.002h27.118l-3.434-3.441A1.499 1.499 0 0 1 29.555.378l5.998 5.998a1.498 1.498 0 0 1 0 2.114l-5.998 5.997zM6.443 21.372a1.5 1.5 0 0 1 2.114 2.113l-3.434 3.441H34.49a1.5 1.5 0 0 1 0 3H5.123l3.434 3.44a1.499 1.499 0 1 1-2.114 2.113L.445 29.484a1.501 1.501 0 0 1 0-2.115l5.998-5.997z"/>
</svg>
