<svg xmlns="http://www.w3.org/2000/svg" class="svg-icon" viewbox="0 0 36 36">
    <path fill="#00B9F1" fill-rule="evenodd" d="M25.871 23.707l9.651 9.656a1.532 1.532 0 1 1-2.165 2.166l-9.652-9.656a14.484 14.484 0 0 1-9.146 3.237C6.527 29.11.013 22.594.013 14.557S6.527.005 14.559.005c8.034 0 14.546 6.515 14.546 14.552a14.497 14.497 0 0 1-3.234 9.15zm-11.312 2.339c6.343 0 11.484-5.143 11.484-11.489 0-6.344-5.141-11.489-11.484-11.489S3.074 8.213 3.074 14.557c0 6.346 5.142 11.489 11.485 11.489z"/>
</svg>
