<svg class="svg-icon" viewBox="0 0 68 48" fill="none" xmlns="http://www.w3.org/2000/svg">
<path fill-rule="evenodd" clip-rule="evenodd" d="M60.2982 3.6557C59.8762 3.23575 59.305 3 58.7097 3C58.1143 3 57.5432 3.23575 57.1212 3.6557L24.1592 39.5567L10.7192 23.1547C10.2649 22.7667 9.67538 22.5748 9.0798 22.6209C8.48423 22.667 7.93125 22.9474 7.54216 23.4007C7.19234 23.8079 7 24.3269 7 24.8637C7 25.4005 7.19234 25.9195 7.54216 26.3267L22.5702 44.3247C22.9932 44.743 23.5642 44.9776 24.1592 44.9776C24.7541 44.9776 25.3251 44.743 25.7482 44.3247L60.2982 6.8267C60.718 6.40584 60.9538 5.83565 60.9538 5.2412C60.9538 4.64675 60.718 4.07656 60.2982 3.6557V3.6557Z"/>
</svg>
