<svg xmlns="http://www.w3.org/2000/svg" class="svg-icon" viewbox="0 0 36 36">
    <path fill="#00B9F1" fill-rule="evenodd" d="M31.5 35.999h-27A4.5 4.5 0 0 1 0 31.5V4.499A4.5 4.5 0 0 1 4.5 0h27A4.5 4.5 0 0 1 36 4.499V31.5a4.5 4.5 0 0 1-4.5 4.499zM33 15V4.499a1.5 1.5 0 0 0-1.5-1.5h-27a1.5 1.5 0 0 0-1.5 1.5V31.5a1.5 1.5 0 0 0 1.5 1.499h27A1.5 1.5 0 0 0 33 31.5V15zM19.125 9.749a1.874 1.874 0 1 1-.002-3.748 1.874 1.874 0 0 1 .002 3.748zm-5.625 0a1.876 1.876 0 1 1 .002-3.748 1.876 1.876 0 0 1-.002 3.748zm-5.625 0a1.876 1.876 0 1 1 .002-3.748 1.876 1.876 0 0 1-.002 3.748z"/>
</svg>
