<?xml version="1.0" encoding="UTF-8"?>
<svg width="50px" height="50px" viewBox="0 0 50 50" version="1.1" xmlns="http://www.w3.org/2000/svg" xmlns:xlink="http://www.w3.org/1999/xlink">

    <g id="Page-1" stroke="none" stroke-width="1" fill="none" fill-rule="evenodd">
        <g id="Artboard" fill="#000000" fill-rule="nonzero">
            <g transform="translate(0.000000, 2.000000)">
                <path d="M0,22.6428571 C1.78571429,20.0714286 3.64285714,17.5 5.42857143,14.9285714 C5.85714286,14.3571429 6.42857143,14.2857143 6.85714286,14.8571429 C8.57142857,17.2857143 10.3571429,19.7857143 12.0714286,22.2142857 C12.1428571,22.3571429 12.2857143,22.5714286 12.2857143,22.7142857 C12.3571429,23.1428571 12,23.5 11.5,23.5 C11,23.5 10.5714286,23.5 10.0714286,23.5 C10.1428571,28.0714286 13.0714286,33.9285714 19.3571429,36.3571429 C25.7142857,38.7857143 34,36.6428571 37.7857143,29.3571429 C38.2142857,29.5714286 38.6428571,29.7857143 39.1428571,30 C38.7142857,30.6428571 38.4285714,31.2857143 38,31.8571429 C35.1428571,35.7857143 31.3571429,38.1428571 26.5714286,38.6428571 C19.7857143,39.2857143 14.5714286,36.5714286 10.9285714,30.9285714 C9.42857143,28.5714286 8.71428571,25.9285714 8.64285714,23.1428571 C8.64285714,22.2857143 8.85714286,22.0714286 9.71428571,22.0714286 C9.85714286,22.0714286 10,22.0714286 10.2142857,22.0714286 C8.85714286,20.2142857 7.57142857,18.3571429 6.28571429,16.5 C4.85714286,18.3571429 3.57142857,20.2142857 2.21428571,22.1428571 C2.5,22.1428571 2.71428571,22.1428571 2.92857143,22.1428571 C3.57142857,22.1428571 3.85714286,22.4285714 3.85714286,23.0714286 C3.85714286,25.7142857 4.35714286,28.3571429 5.42857143,30.7857143 C8.35714286,37.5 13.5,41.7857143 20.7857143,43.1428571 C27.5714286,44.4285714 33.6428571,42.7142857 38.7857143,38.0714286 C39.8571429,37.0714286 40.7857143,35.9285714 41.8571429,34.7857143 C42.1428571,35 42.5714286,35.2857143 43,35.5714286 C42.0714286,36.8571429 41.0714286,38 39.9285714,39.0714286 C36.5,42.2142857 32.4285714,44.1428571 27.7857143,44.8571429 C27.1428571,44.9285714 26.5,45 25.8571429,45.0714286 C25.0714286,45.0714286 24.2857143,45.0714286 23.5714286,45.0714286 C22.9285714,45 22.2857143,44.9285714 21.6428571,44.8571429 C17.5714286,44.2857143 13.9285714,42.7142857 10.7857143,40.1428571 C6.92857143,37 4.28571429,33 3.07142857,28.2142857 C2.71428571,26.7857143 2.57142857,25.2857143 2.28571429,23.7142857 C2,23.7142857 1.57142857,23.7142857 1.21428571,23.7142857 C0.714285714,23.7857143 0.357142857,23.5714286 0.0714285714,23.1428571 C0,22.9285714 0,22.7857143 0,22.6428571 Z M49.2857143,23.0714286 C47.4285714,25.6428571 45.6428571,28.2857143 43.7857143,30.8571429 C43.4285714,31.3571429 42.8571429,31.3571429 42.5,30.8571429 C40.7142857,28.3571429 38.9285714,25.8571429 37.2142857,23.3571429 C37.0714286,23.1428571 37,22.7142857 37.1428571,22.5714286 C37.2857143,22.3571429 37.6428571,22.2142857 37.8571429,22.1428571 C38.2857143,22.0714286 38.7857143,22.1428571 39.2142857,22.1428571 C39.1428571,17.5 36.2142857,11.7142857 29.9285714,9.28571429 C23.6428571,6.92857143 15.2857143,9 11.5,16.2857143 C11.0714286,16.0714286 10.6428571,15.8571429 10.1428571,15.6428571 C10.6428571,14.9285714 11.0714286,14.1428571 11.5714286,13.5 C14.3571429,9.78571429 18.0714286,7.57142857 22.7142857,7 C31.0714286,5.92857143 39.0714286,11.8571429 40.5,20.0714286 C40.6428571,20.9285714 40.7142857,21.7142857 40.7857143,22.5714286 C40.8571429,23.3571429 40.5714286,23.6428571 39.7142857,23.6428571 C39.5714286,23.6428571 39.4285714,23.6428571 39.1428571,23.6428571 C40.5,25.5 41.7857143,27.3571429 43.0714286,29.2142857 C44.3571429,27.3571429 45.6428571,25.5714286 47,23.6428571 C46.7142857,23.6428571 46.5,23.6428571 46.3571429,23.6428571 C45.6428571,23.6428571 45.3571429,23.3571429 45.3571429,22.6428571 C45.2857143,18.5714286 44.2142857,14.7857143 41.8571429,11.3571429 C38.6428571,6.42857143 34,3.42857143 28.0714286,2.5 C21.9285714,1.5 16.3571429,3 11.4285714,6.85714286 C10.0714286,7.92857143 8.92857143,9.21428571 7.92857143,10.5714286 C7.85714286,10.7142857 7.71428571,10.8571429 7.57142857,11 C7.14285714,10.7142857 6.78571429,10.4285714 6.35714286,10.1428571 C7.35714286,8.64285714 8.57142857,7.35714286 9.92857143,6.14285714 C13.5,3.07142857 17.7142857,1.28571429 22.4285714,0.785714286 C22.7857143,0.714285714 23.1428571,0.714285714 23.5,0.642857143 C24.2857143,0.642857143 25.0714286,0.642857143 25.9285714,0.642857143 C26.2857143,0.714285714 26.5714286,0.714285714 26.9285714,0.785714286 C29.7857143,1.14285714 32.5,1.85714286 35.0714286,3.28571429 C40.8571429,6.42857143 44.6428571,11.1428571 46.3571429,17.5 C46.7142857,19 46.8571429,20.5 47.1428571,22.0714286 C47.4285714,22.0714286 47.8571429,22.0714286 48.2142857,22.0714286 C48.7142857,22 49.0714286,22.2142857 49.3571429,22.6428571 C49.2857143,22.7857143 49.2857143,22.9285714 49.2857143,23.0714286 Z M23.8571429,27.7857143 L17.2857143,27.7857143 L17.2857143,26.5714286 L19.7857143,24.0714286 C20.5,23.2857143 21,22.7857143 21.2857143,22.5 C21.5,22.2142857 21.7142857,21.8571429 21.7857143,21.6428571 C21.9285714,21.3571429 21.9285714,21.0714286 21.9285714,20.7142857 C21.9285714,20.2857143 21.7857143,19.9285714 21.5,19.7142857 C21.2142857,19.4285714 20.8571429,19.3571429 20.4285714,19.3571429 C20.0714286,19.3571429 19.7142857,19.4285714 19.3571429,19.5714286 C19,19.7142857 18.6428571,19.9285714 18.1428571,20.2857143 L17.2857143,19.2857143 C17.8571429,18.8571429 18.3571429,18.5 18.8571429,18.2857143 C19.3571429,18.0714286 19.9285714,18 20.5,18 C21.4285714,18 22.1428571,18.2142857 22.6428571,18.7142857 C23.2142857,19.2142857 23.4285714,19.7857143 23.4285714,20.6428571 C23.4285714,21.0714286 23.3571429,21.5 23.2142857,21.8571429 C23.0714286,22.2857143 22.7857143,22.6428571 22.5,23.0714286 C22.1428571,23.5 21.6428571,24.0714286 20.8571429,24.7857143 L19.2857143,26.3571429 L19.2857143,26.4285714 L23.8571429,26.4285714 L23.8571429,27.7857143 Z M32,25.6428571 L30.7142857,25.6428571 L30.7142857,27.7857143 L29.2142857,27.7857143 L29.2142857,25.6428571 L24.7857143,25.6428571 L24.7857143,24.4285714 L29.2142857,18 L30.7142857,18 L30.7142857,24.2857143 L32,24.2857143 L32,25.6428571 Z M29.1428571,24.3571429 L29.1428571,21.9285714 C29.1428571,21.0714286 29.1428571,20.3571429 29.2142857,19.7857143 L29.1428571,19.7857143 C29,20.0714286 28.8571429,20.4285714 28.5714286,20.8571429 L26.1428571,24.3571429 L29.1428571,24.3571429 Z"></path>
            </g>
        </g>
    </g>
</svg>
