<?xm version="1.0" encoding="UTF-8"?>
<svg  viewBox="0 0 27 27" version="1.1" xmlns="http://www.w3.org/2000/svg" xmlns:xlink="http://www.w3.org/1999/xlink">
    <g fill="#D8D8D8">
        <path d="M14,14.4608429 L18.6973384,16.958462 C19.0727353,17.1580641 19.1668651,17.7151827 18.9075831,18.2028212 C18.6483011,18.6904596 18.1337922,18.9239593 17.7583952,18.7243572 L12.3685364,15.8585184 C12.1162472,15.7243739 11.9909964,15.4287519 12.014683,15.1012653 C12.0050306,15.0454815 12,14.988114 12,14.9295716 L12,7 C12,6.44771525 12.4477153,6 13,6 C13.5522847,6 14,6.44771525 14,7 L14,14.4608429 Z M13.5,27 C6.04415588,27 0,20.9558441 0,13.5 C0,6.04415588 6.04415588,0 13.5,0 C20.9558441,0 27,6.04415588 27,13.5 C27,20.9558441 20.9558441,27 13.5,27 Z M13.5,25 C19.8512746,25 25,19.8512746 25,13.5 C25,7.14872538 19.8512746,2 13.5,2 C7.14872538,2 2,7.14872538 2,13.5 C2,19.8512746 7.14872538,25 13.5,25 Z" id="Combined-Shape"></path>
    </g>
</svg>
