<?xml version="1.0" encoding="UTF-8"?>
<svg viewBox="0 0 25 25" version="1.1" xmlns="http://www.w3.org/2000/svg" xmlns:xlink="http://www.w3.org/1999/xlink">
    <g id="Page-1" stroke="none" stroke-width="1" fill="none" fill-rule="evenodd">
        <g id="Artboard-Copy" fill="#999999" fill-rule="nonzero">
            <path d="M1.14181205,4.95994191 C0.895421024,4.81183186 0.480762966,4.55087606 0.39061991,4.24055025 C0.234371946,3.71158578 0.402638984,3.5 1.0696976,3.5 L12.5599325,3.5 L24.0501675,3.5 C24.717226,3.5 24.8854931,3.70453293 24.7292451,4.24055025 C24.639102,4.5438232 24.2244439,4.81183186 23.978053,4.95994191 C23.3170038,5.36900777 14.1344312,11.2440397 13.7918876,11.4556255 C13.449344,11.6672113 13.1007908,11.7659513 12.5599325,11.7659513 C12.0190742,11.7659513 11.670521,11.6672113 11.3279774,11.4556255 C10.9854338,11.2440397 1.80286112,5.36900777 1.14181205,4.95994191 Z M24.5008827,5.27732059 C25.0357314,4.95994192 24.9996742,5.32669061 24.9996742,5.62291071 L24.9996742,20.0812727 C24.9996742,20.7301358 24.2965584,21.5553203 23.7076237,21.5553203 L12.5599325,21.5553203 L1.41224121,21.5553203 C0.82330658,21.5553203 0,20.7371886 0,20.0812727 L0,5.62291071 C0,5.33374347 0.0300476854,4.95994192 0.558886948,5.27732059 C1.05166899,5.57354069 5.52276458,9.26923906 8.44940914,11.4908898 L3.51557919,18.0147849 C3.39538845,18.1558421 3.34130261,18.3321635 3.41341706,18.409745 C3.4855315,18.4943793 3.64778901,18.4520621 3.76797975,18.3110049 L9.6933833,12.4430258 C10.5888043,13.1201003 11.2137962,13.5855891 11.3279774,13.6561177 C11.7907118,13.9311792 12.1152267,13.9664435 12.5599325,13.9664435 C13.0046382,13.9664435 13.3291532,13.9311792 13.7918876,13.6561177 C13.9000593,13.5855891 14.5310607,13.1201003 15.4264816,12.4430258 L21.3518853,18.3110049 C21.4780856,18.4450093 21.6343335,18.4873264 21.706448,18.409745 C21.7725528,18.3251107 21.718467,18.1558421 21.5982762,18.0147849 L16.6584368,11.4908898 C19.5850813,9.26923906 24.0081006,5.57354069 24.5008827,5.27732059 Z" id="Combined-Shape"></path>
        </g>
    </g>
</svg>
