<?xml version="1.0" encoding="UTF-8"?>
<svg  viewBox="0 0 100 77" version="1.1" xmlns="http://www.w3.org/2000/svg" xmlns:xlink="http://www.w3.org/1999/xlink">
<g>
        <path d="M60.4,76.8 L60.4,75.5 C60.4,65.3 53.2,56.3 41.5,56.3 L31.5,56.3 C20,56.3 12.4,65 12.2,76.8 L60.4,76.8 Z" id="Shape" fill="#777777"></path>
        <path d="M30.7,55.3841847 L30.7,40.8 L42,40.8 L42,55.4573155 C45.1111269,56.1055634 46.9,57 46.9,57 C46.9,57 45.5,65.9 36.4,65.7 C27.6,65.5 25.7,57.1 25.7,57.1 C25.7,57.1 27.7688126,56.0655937 30.7,55.3841847 Z" id="Combined-Shape" fill="#FFF5EE"></path>
        <path d="M27.9,47.7 C27.9,47.7 32.8,54.8 36.7,54.4 C40.6,54 44.9,47.4 44.9,47.4 L41.5,46 L28.8,45.5 L27.9,47.7 Z" id="Shape" fill="#D99959" opacity="0.5"></path>
        <path d="M50.2,37.7 C50.2,45.7 44.5,52.2 37.4,52.2 L35.3,52.2 C28.2,52.2 22.5,45.7 22.5,37.7 L22.5,24.4 C22.5,16.4 28.2,9.9 35.3,9.9 L37.4,9.9 C44.5,9.9 50.2,16.4 50.2,24.4 L50.2,37.7 Z" id="Shape" fill="#FFF5EE"></path>
        <g id="Group-2" transform="translate(18.000000, 8.000000)">
            <path d="M4.6,29 C4.6,29 0.7,24.4 0.3,20 C-0.9,7.3 7.1,2 16.3,2 C22.3,2 27.6,4.9 30.6,9.6 C24.4,17.3 18.3,12.6 6.9,14.3 C5.3,14.6 4.6,21.8 4.6,29 Z" id="Shape" fill="#DD3E31"></path>
            <path d="M32,32 C32,32 37.7,24.6 36.3,14.9 C35.2,6.8 26.9,-0.1 16,0.4 C9.9,0.7 3.9,4.7 1.3,11.3 C7.9,20.3 13.5,24.1 27.1,24.3 C29,24.3 32.9,28.2 32,32 Z" id="Shape" fill="#F3513E"></path>
        </g>
        <path d="M36.3,65.7 C36.4,65.7 36.5,65.7 36.7,65.7 C44.6,65.7 47.6,60.2 48.5,57.4 C47.8,57.2 47.2,56.9 46.5,56.7 C45.6,59.2 43.2,63.5 36.6,63.5 C36.5,63.5 36.4,63.5 36.3,63.5 C30.2,63.5 27.3,59.3 26.1,56.7 C25.4,56.9 24.8,57.1 24.2,57.5 C25.5,60.3 28.7,65.6 36.3,65.7 Z" id="Shape" fill="#777777"></path>
        <g id="Group" transform="translate(60.000000, 14.000000)">
            <path d="M34.6,0.3 L12.7,0.3 C9.8,0.3 7.4,2.7 7.4,5.6 L7.4,24.1 L0.3,32.7 L7.4,32.8 L7.4,34.7 C7.4,37.6 9.8,40 12.7,40 L34.6,40 C37.5,40 39.9,37.6 39.9,34.7 L39.9,5.7 C39.9,2.7 37.5,0.3 34.6,0.3 Z" id="Shape" fill="#FFFFFF"></path>
            <path d="M31.3,13.5 L16.8,13.5 C15.8,13.5 15,12.7 15,11.7 C15,10.7 15.8,9.9 16.8,9.9 L31.3,9.9 C32.3,9.9 33.1,10.7 33.1,11.7 C33.1,12.6 32.3,13.5 31.3,13.5 Z M31.3,21.6 L16.8,21.6 C15.8,21.6 15,20.8 15,19.8 C15,18.8 15.8,18 16.8,18 L31.3,18 C32.3,18 33.1,18.8 33.1,19.8 C33.1,20.8 32.3,21.6 31.3,21.6 Z M31.3,29.7 L16.8,29.7 C15.8,29.7 15,28.9 15,27.9 C15,26.9 15.8,26.1 16.8,26.1 L31.3,26.1 C32.3,26.1 33.1,26.9 33.1,27.9 C33.1,28.9 32.3,29.7 31.3,29.7 Z" id="Combined-Shape" fill="#CCCCCC"></path>
        </g>
        <path d="M4.1,45.2 C3.6,45.2 3.2,44.9 3,44.5 C1.8,41.8 1.1,38.8 1,35.8 C0.9,32.1 1.6,28.6 3.1,25.3 C3.4,24.7 4.1,24.4 4.7,24.7 C5.3,25 5.6,25.7 5.3,26.3 C3.9,29.3 3.3,32.4 3.4,35.7 C3.5,38.4 4.1,41 5.2,43.5 C5.5,44.1 5.2,44.8 4.6,45.1 C4.4,45.2 4.2,45.2 4.1,45.2 Z M9.4,42 C8.9,42 8.4,41.7 8.3,41.2 C7.6,39.3 7.2,37.2 7.2,35.1 C7.2,33.2 7.5,31.2 8.1,29.4 C8.3,28.8 9,28.4 9.6,28.6 C10.2,28.8 10.6,29.5 10.4,30.1 C9.9,31.7 9.6,33.3 9.6,35 C9.6,36.8 9.9,38.6 10.5,40.2 C10.7,40.8 10.4,41.5 9.8,41.8 C9.7,42 9.5,42 9.4,42 Z" id="Combined-Shape" fill="#FFFFFF"></path>
        <path d="M21.0918965,42.3419494 C20.9351441,42.3797877 20.7706039,42.4 20.6,42.4 L20.2,42.4 C19.1,42.4 18.1,41.5 18.1,40.3 L18.1,39.4620249 C16.1133194,38.9562401 14.6,37.1222457 14.6,35 C14.6,34.6467178 14.6419356,34.3014234 14.7210095,33.9689139 C13.4081019,31.0147106 12.7,27.7895417 12.7,24.5 C12.7,11.5 23.3,1 36.4,1 C49.4,0.9 60,11.5 60,24.4 C60,27.9766562 59.2389964,31.4772121 57.7169893,34.6361214 C57.8359802,35.0391875 57.9,35.4634966 57.9,35.9 C57.9,38.0222457 56.3866806,39.8562401 54.4,40.3620249 L54.4,41.3 C54.4,42.5 53.4,43.4 52.3,43.4 L51.9,43.4 C50.7,43.4 49.8,42.4 49.8,41.3 L49.8,30.9 C49.8,29.7 50.8,28.8 51.9,28.8 L52.3,28.8 C53.5,28.8 54.4,29.8 54.4,30.9 L54.4,31.4379751 C55.0322376,31.5989351 55.6165353,31.8944103 56.1193756,32.2908831 C57.1456059,29.7989868 57.7,27.1549328 57.7,24.4 C57.7,12.8 48.2,3.3 36.5,3.3 C24.8,3.3 15.3,12.8 15.3,24.4 C15.3,26.779778 15.7136847,29.1181876 16.4878391,31.3087986 C16.9658306,30.9535426 17.5121962,30.6876228 18.1,30.5379751 L18.1,30 C18.1,28.9 19,27.9 20.2,27.9 L20.6,27.9 C21.7,27.9 22.7,28.8 22.7,30 L22.7,40.3 C22.7,40.5802297 22.6415903,40.8539693 22.5346908,41.1063389 C22.8694917,41.1611626 23.1800856,41.3701284 23.4,41.7 C23.4976268,41.8952536 25.5014525,44.6638758 31.5515825,45.3534634 C31.9798658,44.4326658 32.9108497,43.8 34,43.8 L34.9,43.8 C36.4,43.7 37.6,45 37.6,46.5 C37.6,48 36.4,49.2 34.9,49.2 L34,49.2 C33.0093615,49.2 32.1495717,48.6766056 31.6798777,47.889064 C23.8746315,47.1594094 21.3994914,43.1989828 21.3,43 C21.158185,42.7872776 21.0917881,42.5619855 21.0918965,42.3419494 Z" id="Combined-Shape" fill="#000000"></path>
    </g>
</svg>
