<svg class="svg-icon" viewBox="0 0 21 19" fill="none" xmlns="http://www.w3.org/2000/svg">
<path fill-rule="evenodd" clip-rule="evenodd" d="M0 1C0 0.447715 0.447715 0 1 0H20C20.5523 0 21 0.447715 21 1C21 1.55228 20.5523 2 20 2H1C0.447715 2 0 1.55228 0 1ZM0 9.07692C0 8.52464 0.447715 8.07692 1 8.07692H20C20.5523 8.07692 21 8.52464 21 9.07692C21 9.62921 20.5523 10.0769 20 10.0769H1C0.447715 10.0769 0 9.62921 0 9.07692ZM0 17.1538C0 16.6016 0.447715 16.1538 1 16.1538H20C20.5523 16.1538 21 16.6016 21 17.1538C21 17.7061 20.5523 18.1538 20 18.1538H1C0.447715 18.1538 0 17.7061 0 17.1538Z"/>
</svg>
