<svg class="svg-icon" viewBox="0 0 15 17" fill="none" xmlns="http://www.w3.org/2000/svg">
<path d="M11.6339 8.89285C11.7411 8.77678 11.7411 8.59821 11.6339 8.49106L11.2232 8.08035C11.1161 7.97321 10.9375 7.97321 10.8214 8.08035L6.85714 12.0446L4.89286 10.0803C4.77679 9.97321 4.59821 9.97321 4.49107 10.0803L4.08036 10.4911C3.97321 10.5982 3.97321 10.7768 4.08036 10.8928L6.65179 13.4643C6.76786 13.5714 6.94643 13.5714 7.0625 13.4643L11.6339 8.89285ZM1.14286 15.1428V5.99999H13.7143V15.1428H1.14286ZM4.57143 4.28571C4.57143 4.44642 4.44643 4.57142 4.28571 4.57142H3.71429C3.55357 4.57142 3.42857 4.44642 3.42857 4.28571V1.71428C3.42857 1.55356 3.55357 1.42856 3.71429 1.42856H4.28571C4.44643 1.42856 4.57143 1.55356 4.57143 1.71428V4.28571ZM11.4286 4.28571C11.4286 4.44642 11.3036 4.57142 11.1429 4.57142H10.5714C10.4107 4.57142 10.2857 4.44642 10.2857 4.28571V1.71428C10.2857 1.55356 10.4107 1.42856 10.5714 1.42856H11.1429C11.3036 1.42856 11.4286 1.55356 11.4286 1.71428V4.28571ZM14.8571 3.71428C14.8571 3.08928 14.3393 2.57142 13.7143 2.57142H12.5714V1.71428C12.5714 0.928563 11.9286 0.285706 11.1429 0.285706H10.5714C9.78572 0.285706 9.14286 0.928563 9.14286 1.71428V2.57142H5.71429V1.71428C5.71429 0.928563 5.07143 0.285706 4.28571 0.285706H3.71429C2.92857 0.285706 2.28571 0.928563 2.28571 1.71428V2.57142H1.14286C0.517857 2.57142 0 3.08928 0 3.71428V15.1428C0 15.7678 0.517857 16.2857 1.14286 16.2857H13.7143C14.3393 16.2857 14.8571 15.7678 14.8571 15.1428V3.71428Z"/>
</svg>
