<svg class="svg-icon" viewBox="0 0 16 14" fill="none" xmlns="http://www.w3.org/2000/svg">
<path d="M16 4.62498C15.7321 4.91963 15.4286 5.17855 15.1071 5.40177C13.6161 6.4107 12.1161 7.42855 10.6607 8.48213C9.91072 9.0357 8.98214 9.71427 8.00893 9.71427H8H7.99107C7.01786 9.71427 6.08929 9.0357 5.33929 8.48213C3.88393 7.41963 2.38393 6.4107 0.901786 5.40177C0.571429 5.17855 0.267857 4.91963 0 4.62498V11.7143C0 12.5 0.642857 13.1428 1.42857 13.1428H14.5714C15.3571 13.1428 16 12.5 16 11.7143V4.62498ZM16 1.99998C16 1.21427 15.3482 0.571411 14.5714 0.571411H1.42857C0.473214 0.571411 0 1.32141 0 2.19641C0 3.00891 0.901786 4.01784 1.53571 4.44641C2.91964 5.4107 4.32143 6.37498 5.70536 7.3482C6.28571 7.74998 7.26786 8.57141 7.99107 8.57141H8H8.00893C8.73214 8.57141 9.71429 7.74998 10.2946 7.3482C11.6786 6.37498 13.0804 5.4107 14.4732 4.44641C15.2589 3.90177 16 2.99998 16 1.99998Z"/>
</svg>
