<svg  class="svg-icon" viewBox="0 0 14 13" fill="none" xmlns="http://www.w3.org/2000/svg">
<path d="M9.72693 5.5C9.72693 7.42969 8.15662 9 6.22693 9C4.29724 9 2.72693 7.42969 2.72693 5.5C2.72693 3.57031 4.29724 2 6.22693 2C8.15662 2 9.72693 3.57031 9.72693 5.5ZM13.7269 12C13.7269 11.7344 13.6176 11.4766 13.4379 11.2969L10.7582 8.61719C11.391 7.70313 11.7269 6.60938 11.7269 5.5C11.7269 2.46094 9.26599 0 6.22693 0C3.18787 0 0.726929 2.46094 0.726929 5.5C0.726929 8.53906 3.18787 11 6.22693 11C7.3363 11 8.43005 10.6641 9.34412 10.0313L12.0238 12.7031C12.2035 12.8906 12.4613 13 12.7269 13C13.2738 13 13.7269 12.5469 13.7269 12Z"/>
</svg>
