<svg xmlns="http://www.w3.org/2000/svg" class="svg-icon" viewbox="0 0 37 35">
    <path fill="#00B9F1" fill-rule="evenodd" d="M34.897 18.996h-23.23c-1.048 0-1.897-.671-1.897-1.498 0-.829-.152-1.5.896-1.5h23.231c1.048 0 2.898.671 2.898 1.5 0 .827-.85 1.498-1.898 1.498zm-11.218-16H2.347c-1.289 0-2.333-.671-2.333-1.499 0-.828 1.044-1.499 2.333-1.499h21.332c1.289 0 2.333.671 2.333 1.499 0 .828-1.044 1.499-2.333 1.499zM1.923 7.998h15.166c1.056 0 1.912.671 1.912 1.5 0 .827-.856 1.498-1.912 1.498H1.923c-1.056 0-1.912-.671-1.912-1.498 0-.829.856-1.5 1.912-1.5zm19.753 16h12.971c1.048 0 1.898.671 1.898 1.5 0 .826-.85 1.497-1.898 1.497H21.676c-1.048 0-1.898-.671-1.898-1.497 0-.829.85-1.5 1.898-1.5zm.404 8h5.904c1.132 0 2.051.671 2.051 1.499 0 .827-.919 1.498-2.051 1.498H22.08c-1.132 0-2.05-.671-2.05-1.498 0-.828.918-1.499 2.05-1.499z"/>
</svg>
