<svg xmlns="http://www.w3.org/2000/svg" class="svg-icon" viewbox="0 0 33 36">
    <path fill="#00B9F1" fill-rule="evenodd" d="M27 26.997h-9.795l-7.05 8.459a1.499 1.499 0 0 1-2.655-.96v-7.499H6a6 6 0 0 1-6-6V5.999A6 6 0 0 1 6 0h21a6 6 0 0 1 6 5.999v14.998a6 6 0 0 1-6 6zm3-20.998a2.999 2.999 0 0 0-3-2.998H6c-1.657 0-3 1.342-3 2.998v14.998a3 3 0 0 0 3 3h3a1.5 1.5 0 0 1 1.5 1.501v4.859l4.845-5.82c.286-.342.709-.54 1.155-.54H27a3 3 0 0 0 3-3V5.999zm-7.5 8.999a1.5 1.5 0 1 1 0-3 1.5 1.5 0 0 1 0 3zm-6 0a1.5 1.5 0 1 1 0-3 1.5 1.5 0 0 1 0 3zm-6 0A1.5 1.5 0 1 1 10.498 12a1.5 1.5 0 0 1 .002 2.998z"/>
</svg>
