<svg xmlns="http://www.w3.org/2000/svg" class="svg-icon" viewbox="0 0 36 36">
    <path fill="#00B9F1" fill-rule="evenodd" d="M33 24.001h-1.5V21a4.5 4.5 0 0 0-4.5-4.5h-7.5v-4.499H21c1.657 0 3-1.345 3-3.002V3.001a3 3 0 0 0-3-3h-6a3 3 0 0 0-3 3v5.998a3.002 3.002 0 0 0 3 3.002h1.5V16.5H9A4.5 4.5 0 0 0 4.5 21v3.001H3a3 3 0 0 0-3 3v5.998a3 3 0 0 0 3 3.002h6a3 3 0 0 0 3-3.002v-5.998a3 3 0 0 0-3-3H7.5V21A1.5 1.5 0 0 1 9 19.5h18a1.5 1.5 0 0 1 1.5 1.5v3.001H27a3 3 0 0 0-3 3v5.998a3 3 0 0 0 3 3.002h6a3 3 0 0 0 3-3.002v-5.998a3 3 0 0 0-3-3zm-18-21h6v5.998h-6V3.001zM9 32.999H3v-5.998h6v5.998zm24 0h-6v-5.998h6v5.998z"/>
</svg>
