<svg xmlns="http://www.w3.org/2000/svg" class="svg-icon" viewbox="0 0 30 36">
    <path fill="#00B9F1" fill-rule="evenodd" d="M29.917 11.52l-.045-.143a1.386 1.386 0 0 0-.299-.434L19.072.442a1.42 1.42 0 0 0-.449-.3L18.48.096a1.78 1.78 0 0 0-.39-.081L18 0H4.5A4.5 4.5 0 0 0 0 4.499V31.5a4.5 4.5 0 0 0 4.5 4.499h21A4.5 4.5 0 0 0 30 31.5V11.999v-.097a1.713 1.713 0 0 0-.083-.382zM19.5 5.122l2.693 2.685 2.684 2.693H21a1.5 1.5 0 0 1-1.5-1.501V5.122zM27 24.876l-.012-.01v4.245l.012.01V31.5a1.5 1.5 0 0 1-1.5 1.499h-21A1.5 1.5 0 0 1 3 31.5V4.499a1.5 1.5 0 0 1 1.5-1.5h12v6a4.5 4.5 0 0 0 4.5 4.5h6v11.377z"/>
</svg>
