<svg xmlns="http://www.w3.org/2000/svg" class="svg-icon" viewbox="0 0 36 36">
    <path fill="#00B9F1" fill-rule="evenodd" d="M18 0C8.059 0 0 8.059 0 18s8.059 18 18 18 18-8.059 18-18S27.941 0 18 0zm14.25 13.23a24.853 24.853 0 0 0-7.253-2.19 24.826 24.826 0 0 0-2.19-7.252 15.076 15.076 0 0 1 9.443 9.442zm-6.915 8.61c.105-1.267.165-2.55.165-3.84s-.06-2.573-.165-3.84C30.112 15.075 33 16.755 33 18c0 1.245-2.888 2.925-7.665 3.84zM18 33c-1.245 0-2.925-2.887-3.84-7.666 1.267.106 2.55.166 3.84.166s2.572-.06 3.84-.166C20.925 30.113 19.245 33 18 33zm0-10.501c-1.43 0-2.86-.071-4.283-.216a42.28 42.28 0 0 1 0-8.566 42.415 42.415 0 0 1 8.565 0 42.258 42.258 0 0 1 0 8.566 42.236 42.236 0 0 1-4.282.216zM3 18c0-1.245 2.887-2.925 7.665-3.84A46.523 46.523 0 0 0 10.5 18c0 1.29.06 2.573.165 3.84C5.887 20.925 3 19.245 3 18zM18 3c1.245 0 2.925 2.888 3.84 7.665A46.542 46.542 0 0 0 18 10.5c-1.29 0-2.573.06-3.84.165C15.075 5.888 16.755 3 18 3zm-4.77.788a24.826 24.826 0 0 0-2.19 7.252 24.856 24.856 0 0 0-7.252 2.19 15.07 15.07 0 0 1 9.442-9.442zM3.788 22.77a24.856 24.856 0 0 0 7.252 2.19 24.842 24.842 0 0 0 2.19 7.29 15.07 15.07 0 0 1-9.442-9.48zm18.982 9.48a24.853 24.853 0 0 0 2.19-7.253 24.845 24.845 0 0 0 7.29-2.227 15.08 15.08 0 0 1-9.48 9.48z"/>
</svg>
