<svg class="svg-icon" viewBox="0 0 69 48" fill="none" xmlns="http://www.w3.org/2000/svg">
<path d="M68.014 42.745L63.345 47.989L57.574 43.061C53.295 46.093 48.497 47.61 43.115 47.61C39.892 47.6136 36.6989 46.9914 33.713 45.778C30.73 44.641 28.136 42.998 25.997 40.976C23.857 38.891 22.172 36.427 20.875 33.458C19.643 30.615 18.994 27.455 18.994 24.107C18.994 20.822 19.643 17.664 20.939 14.757C22.172 11.789 23.922 9.261 26.126 7.176C28.266 5.029 30.86 3.385 33.908 2.186C36.825 0.922 40.002 0.29 43.309 0.29C46.616 0.29 49.794 0.922 52.711 2.123C55.694 3.323 58.288 4.965 60.427 7.049C62.567 9.134 64.317 11.662 65.614 14.568C66.847 17.537 67.494 20.633 67.494 23.918C67.494 29.288 65.874 34.09 62.631 38.26L68.014 42.745ZM57.574 15.453C56.083 12.862 54.074 10.841 51.544 9.324C49.015 7.808 46.228 7.049 43.245 7.049C34.102 6.861 26.58 14.757 26.775 23.982C26.775 27.014 27.489 29.857 28.915 32.447C30.342 35.038 32.352 37.06 34.88 38.576C37.409 40.092 40.198 40.849 43.245 40.849C46.422 40.849 49.339 40.028 51.998 38.386L43.245 31.058L47.978 25.75L56.925 33.458C58.807 30.615 59.714 27.455 59.714 23.982C59.714 20.886 59.001 18.043 57.574 15.453V15.453ZM8.658 9.181C5.856 9.181 3.883 7.32 3.883 4.653C3.883 1.924 5.856 0 8.658 0C11.395 0 13.369 1.924 13.369 4.653C13.369 7.32 11.395 9.181 8.658 9.181ZM12.414 46.77H4.838V21.151H0V14.578H12.414V46.77V46.77Z"/>
</svg>
