<svg class="svg-icon" viewBox="0 0 68 48" fill="none" xmlns="http://www.w3.org/2000/svg">
<path fill-rule="evenodd" clip-rule="evenodd" d="M68.002 42.755L63.333 47.998L57.562 43.07C53.283 46.102 48.485 47.619 43.103 47.619C39.88 47.6226 36.6869 47.0004 33.701 45.787C30.718 44.65 28.124 43.006 25.985 40.985C23.845 38.901 22.16 36.436 20.863 33.467C19.631 30.624 18.982 27.464 18.982 24.117C18.982 20.831 19.631 17.673 20.928 14.766C22.16 11.798 23.91 9.27101 26.114 7.18501C28.254 5.03701 30.848 3.39401 33.896 2.19501C36.813 0.93101 39.99 0.29901 43.297 0.29901C46.604 0.29901 49.782 0.93101 52.699 2.13101C55.682 3.33201 58.276 4.97401 60.415 7.05801C62.555 9.14301 64.306 11.671 65.602 14.578C66.835 17.546 67.483 20.642 67.483 23.927C67.483 29.297 65.862 34.099 62.619 38.269L68.002 42.755V42.755ZM57.562 15.462C56.071 12.871 54.062 10.85 51.532 9.33301C49.003 7.81701 46.216 7.05801 43.233 7.05801C34.09 6.87001 26.568 14.766 26.763 23.991C26.763 27.023 27.477 29.866 28.903 32.457C30.33 35.047 32.34 37.069 34.868 38.585C37.397 40.101 40.186 40.858 43.233 40.858C46.41 40.858 49.327 40.037 51.986 38.395L43.233 31.066L47.966 25.76L56.913 33.467C58.795 30.624 59.702 27.464 59.702 23.991C59.702 20.895 58.989 18.052 57.562 15.462V15.462ZM8.64604 9.19001C5.84404 9.19001 3.87104 7.32901 3.87104 4.66301C3.87104 1.93301 5.84404 0.0100098 8.64604 0.0100098C11.383 0.0100098 13.357 1.93301 13.357 4.66301C13.357 7.32901 11.383 9.19001 8.64604 9.19001ZM12.402 46.779H4.82604V21.161H-0.0119629V14.587H12.402V46.779V46.779Z"/>
</svg>
