<svg xmlns="http://www.w3.org/2000/svg" class="svg-icon" viewbox="0 0 29 36">
    <path fill="#00B9F1" fill-rule="evenodd" d="M14.5 36.001c-3.587 0-14.5 0-14.5-6.702 0-4.892 6.496-12.387 14.5-12.387S29 24.407 29 29.299c0 6.702-10.913 6.702-14.5 6.702zm0-16.089c-6.452 0-11.365 6.254-11.365 9.387 0 3.059 6.18 3.7 11.365 3.7 5.185 0 11.365-.641 11.365-3.7 0-3.133-4.913-9.387-11.365-9.387zm0-7.012c-3.726-.048-6.74-2.942-6.74-6.451 0-3.556 3.023-6.448 6.74-6.448s6.74 2.892 6.74 6.448c0 3.557-3.023 6.451-6.74 6.451zm0-9.899c-1.989 0-3.605 1.547-3.605 3.448 0 1.878 1.627 3.425 3.626 3.451 1.966 0 3.584-1.548 3.584-3.451 0-1.901-1.618-3.448-3.605-3.448z"/>
</svg>
