<svg class="svg-icon" viewBox="0 0 48 42" fill="none" xmlns="http://www.w3.org/2000/svg">
<path d="M32.3826 6.73883L27.811 0.38981C27.6348 0.145123 27.3517 9.15527e-05 27.0502 9.15527e-05C26.7487 9.15527e-05 26.4656 0.145123 26.2894 0.38981L21.7178 6.73883C21.6029 6.89839 21.5411 7.09002 21.5411 7.28661V37.8595C21.5411 39.7939 23.1149 41.3677 25.0493 41.3677H29.051C30.9855 41.3677 32.5593 39.7939 32.5593 37.8595V7.28661C32.5593 7.09002 32.4975 6.8983 32.3826 6.73883ZM27.0502 2.54202L29.8994 6.49883H24.2012L27.0502 2.54202ZM23.4161 8.37383H27.8673V32.6565H26.2328V14.7494C26.2329 14.2315 25.8132 13.8118 25.2954 13.8118C24.7777 13.8118 24.3579 14.2315 24.3579 14.7493V32.6564H23.4161V8.37383ZM30.6843 37.8594C30.6843 38.7599 29.9517 39.4926 29.051 39.4926H25.0493C24.1488 39.4926 23.4161 38.7599 23.4161 37.8594V34.5314H30.6843V37.8594ZM30.6843 32.6565H29.7424V8.37383H30.6843V32.6565Z" fill="white"/>
<path d="M26.2143 10.8012C26.2021 10.7421 26.1843 10.6831 26.1608 10.6259C26.1374 10.5696 26.1083 10.5153 26.0746 10.4646C26.0408 10.4131 26.0015 10.3653 25.9583 10.3221C25.9152 10.279 25.8674 10.2396 25.8158 10.2049C25.7652 10.1712 25.7108 10.1431 25.6537 10.1196C25.5974 10.0962 25.5384 10.0774 25.4783 10.0653C25.3574 10.0418 25.2327 10.0418 25.1118 10.0653C25.0527 10.0774 24.9937 10.0962 24.9366 10.1196C24.8802 10.1431 24.8258 10.1712 24.7752 10.2049C24.7237 10.2396 24.6759 10.279 24.6327 10.3221C24.5896 10.3653 24.5502 10.4131 24.5155 10.4646C24.4818 10.5153 24.4527 10.5696 24.4293 10.6259C24.4058 10.6831 24.388 10.7421 24.3759 10.8012C24.3637 10.8621 24.358 10.924 24.358 10.9849C24.358 11.2315 24.4584 11.4734 24.6328 11.6478C24.8071 11.8221 25.049 11.9224 25.2955 11.9224C25.3565 11.9224 25.4184 11.9159 25.4783 11.9037C25.5384 11.8915 25.5975 11.8737 25.6537 11.8503C25.7108 11.8268 25.7652 11.7978 25.8158 11.764C25.8674 11.7303 25.9152 11.6909 25.9583 11.6478C26.0015 11.6046 26.0408 11.5568 26.0746 11.5053C26.1083 11.4546 26.1374 11.4003 26.1608 11.3431C26.1843 11.2868 26.2021 11.2278 26.2143 11.1678C26.2265 11.1078 26.2329 11.0459 26.2329 10.9849C26.2329 10.924 26.2265 10.8621 26.2143 10.8012Z" fill="white"/>
<path d="M9.11858 17.558L9.11829 17.4152C9.11839 16.6763 9.71951 16.0752 10.4584 16.0752C10.4716 16.0752 10.4848 16.0749 10.498 16.0743L13.3536 15.9535C15.0212 15.9418 16.3742 14.5816 16.3742 12.9112C16.3742 11.2337 15.0094 9.86895 13.332 9.86895H6.95164C6.30805 9.86895 5.78436 9.34526 5.78436 8.70158C5.78436 8.39014 5.90718 8.09774 6.13011 7.87827C6.34396 7.66761 6.62352 7.5523 6.91883 7.5523C6.92971 7.5523 6.94077 7.55258 6.95164 7.55258L12.5342 7.55239C14.6163 7.55239 16.3102 5.85833 16.3102 3.77615C16.3102 1.69397 14.6163 0 12.5341 0H6.18364C5.66596 0 5.24615 0.419718 5.24615 0.937498C5.24615 1.45528 5.66596 1.875 6.18364 1.875H12.5341C13.5824 1.875 14.4352 2.72784 14.4352 3.77615C14.4352 4.82446 13.5824 5.6773 12.5342 5.6774L6.9583 5.67758C6.15524 5.66652 5.39193 5.97374 4.8148 6.54196C4.23093 7.11683 3.90937 7.8837 3.90937 8.70167C3.90937 10.3792 5.27418 11.744 6.95164 11.744H13.3319C13.9755 11.744 14.4992 12.2676 14.4992 12.9113C14.4992 13.555 13.9755 14.0787 13.3319 14.0787C13.3187 14.0787 13.3054 14.079 13.2922 14.0795L10.4369 14.2004C8.67392 14.2119 7.24339 15.6497 7.24339 17.4171L7.24367 17.5586C3.1724 18.0259 0 21.4927 0 25.6872V33.2007C0 37.7127 3.67087 41.3836 8.18295 41.3836C12.695 41.3836 16.3659 37.7127 16.3659 33.2007V25.6872C16.3659 21.4915 13.1916 18.0238 9.11858 17.558ZM1.875 25.6872C1.875 22.5273 4.21012 19.9028 7.24545 19.4487V27.0951H1.875V25.6872ZM14.4909 33.2007C14.4909 36.6789 11.6612 39.5086 8.18295 39.5086C4.70474 39.5086 1.875 36.6789 1.875 33.2007V28.9702H14.4909V33.2007ZM14.4909 27.0951H9.12045V19.4487C12.1558 19.9028 14.4909 22.5273 14.4909 25.6872V27.0951Z" fill="white"/>
<path d="M3.493 0.754019C3.48081 0.694957 3.463 0.635894 3.43956 0.578707C3.41612 0.522457 3.38706 0.468083 3.35331 0.417458C3.31965 0.365895 3.28028 0.318083 3.23715 0.274958C3.06278 0.100583 2.82091 0.000270844 2.57434 0.000270844C2.32778 0.000270844 2.08591 0.100583 1.91153 0.274958C1.86841 0.318083 1.82903 0.365895 1.79528 0.417458C1.76069 0.468083 1.73247 0.522457 1.70903 0.578707C1.68466 0.635894 1.66694 0.694957 1.65466 0.754019C1.64247 0.814957 1.63694 0.876832 1.63694 0.937769C1.63694 0.998706 1.64257 1.06058 1.65466 1.12058C1.66685 1.18058 1.68466 1.23964 1.70894 1.29589C1.73238 1.35308 1.7606 1.40746 1.79519 1.45808C1.82894 1.50964 1.86831 1.55746 1.91144 1.60058C1.95456 1.64371 2.00238 1.68308 2.05403 1.71683C2.10466 1.75058 2.15903 1.77964 2.21528 1.80308C2.27247 1.82652 2.33153 1.84433 2.39153 1.85652C2.45153 1.8687 2.51341 1.87527 2.57434 1.87527C2.82091 1.87527 3.06278 1.77495 3.23715 1.60058C3.28028 1.55746 3.31965 1.50964 3.35331 1.45808C3.38706 1.40746 3.41612 1.35308 3.43956 1.29589C3.463 1.23964 3.48081 1.18058 3.493 1.12058C3.50519 1.06058 3.51175 0.998706 3.51175 0.937769C3.51175 0.876832 3.50519 0.814957 3.493 0.754019Z" fill="white"/>
<path d="M47.9929 9.35445C47.8893 7.14224 46.7749 6.04733 45.8794 5.16758C44.9105 4.21565 44.3257 3.64106 44.8779 1.7579C45.1279 0.905343 44.7836 0.457688 44.556 0.26672C44.2728 0.0291578 43.7674 -0.170904 42.9667 0.225376C41.9294 0.738938 40.3549 2.24878 39.1378 3.89681C38.0204 5.41002 36.71 7.67595 36.8132 9.87795C36.8903 11.5246 37.5885 13.0344 38.7282 14.0964C38.165 14.8565 37.8311 15.7964 37.8311 16.8129C37.8311 17.4578 37.9625 18.0725 38.2016 18.6305V36.9514C38.2016 39.1812 40.0158 40.9953 42.2455 40.9953C44.4753 40.9953 46.2894 39.1812 46.2894 36.9514V19.236C46.7265 18.532 46.9761 17.7012 46.9761 16.8129C46.9762 15.8086 46.65 14.8795 46.099 14.1243C47.3704 12.9443 48.0794 11.2035 47.9929 9.35445ZM44.4144 36.9513C44.4145 38.1473 43.4416 39.1202 42.2456 39.1202C41.0496 39.1202 40.0767 38.1473 40.0767 36.9513V20.7552C40.5635 21.0404 41.111 21.2402 41.7017 21.3315C41.749 21.3388 41.7968 21.3424 41.8446 21.3424H42.9627C43.0106 21.3424 43.0584 21.3388 43.1057 21.3315C43.1675 21.3219 43.229 21.3108 43.2902 21.2987C43.3293 21.2911 43.3678 21.2823 43.4065 21.2738C43.4232 21.2701 43.44 21.2665 43.4567 21.2626C43.7932 21.184 44.1137 21.0697 44.4144 20.9241V36.9513ZM43.6709 19.1927C43.6669 19.1946 43.663 19.1967 43.6592 19.1987C43.6322 19.2131 43.6049 19.2268 43.5773 19.2403C43.5643 19.2467 43.5512 19.2528 43.538 19.259C43.517 19.2689 43.4959 19.2784 43.4747 19.2877C43.4547 19.2964 43.4345 19.3048 43.4144 19.313C43.398 19.3197 43.3817 19.3264 43.3652 19.3328C43.3401 19.3425 43.3148 19.3515 43.2895 19.3604C43.2764 19.365 43.2634 19.3697 43.2501 19.3742C43.2215 19.3836 43.1928 19.3924 43.1639 19.401C43.1529 19.4042 43.142 19.4077 43.131 19.4109C43.0995 19.4198 43.0677 19.4278 43.0358 19.4355C43.0268 19.4376 43.018 19.4402 43.009 19.4422C42.968 19.4517 42.9269 19.4602 42.8855 19.4677H41.9224C41.9214 19.4675 41.9205 19.4673 41.9195 19.4671C41.8743 19.459 41.8295 19.4492 41.785 19.4387C41.7672 19.4345 41.7496 19.4299 41.7319 19.4253C41.7053 19.4185 41.6789 19.4113 41.6526 19.4036C41.6305 19.3971 41.6083 19.3907 41.5864 19.3837C41.5698 19.3785 41.5534 19.3726 41.5369 19.3669C40.4672 19.0009 39.7064 17.9743 39.7064 16.813C39.7064 15.9436 40.1203 15.1694 40.7609 14.6757C40.7855 14.6567 40.8106 14.6382 40.8358 14.6201C40.8789 14.5892 40.923 14.5594 40.968 14.531C40.9877 14.5186 41.0075 14.5062 41.0274 14.4943C41.0896 14.4573 41.1532 14.4226 41.2185 14.3905C41.2249 14.3873 41.2312 14.3839 41.2376 14.3808C41.2754 14.3627 41.3137 14.3453 41.3525 14.3288C41.3588 14.3261 41.3653 14.3238 41.3717 14.3211C41.439 14.2931 41.5077 14.268 41.5776 14.2454C41.5993 14.2384 41.621 14.2319 41.6428 14.2255C41.6901 14.2115 41.738 14.199 41.7865 14.1875C41.8235 14.1789 41.8606 14.1708 41.898 14.1637C41.9234 14.1588 41.9488 14.1542 41.9744 14.15C42.0331 14.1408 42.0922 14.1331 42.152 14.1276C42.1681 14.1261 42.1844 14.1251 42.2006 14.1239C42.268 14.1189 42.3357 14.1154 42.404 14.1154C42.4734 14.1154 42.542 14.1191 42.6102 14.1242C42.6263 14.1254 42.6425 14.1263 42.6586 14.1278C42.7184 14.1333 42.7776 14.1412 42.8364 14.1506C42.863 14.1549 42.8893 14.1597 42.9156 14.1648C42.9533 14.1719 42.9907 14.1803 43.028 14.1891C43.0769 14.2008 43.1254 14.2136 43.1732 14.2278C43.193 14.2338 43.2129 14.2399 43.2327 14.2463C43.2999 14.2681 43.366 14.2923 43.4308 14.3191C43.4404 14.323 43.45 14.3268 43.4595 14.3308C43.5731 14.3793 43.6826 14.4355 43.7876 14.4985C43.8109 14.5125 43.8337 14.5271 43.8566 14.5418C43.899 14.569 43.9405 14.5972 43.9812 14.6267C44.0096 14.6473 44.0377 14.6685 44.0655 14.6903C44.6955 15.1846 45.1014 15.952 45.1014 16.813C45.1014 17.8236 44.5254 18.7326 43.6709 19.1927ZM44.7013 12.8597C44.681 12.8479 44.6597 12.8378 44.6392 12.8263C44.5903 12.7987 44.5406 12.7722 44.4905 12.7464C44.465 12.7333 44.4395 12.7197 44.4137 12.707C44.2467 12.625 44.0739 12.5534 43.8964 12.4919C43.8865 12.4885 43.8768 12.4852 43.8669 12.4819C43.778 12.4518 43.688 12.4239 43.5968 12.3993C43.5965 12.3992 43.5961 12.3991 43.5956 12.3989C43.4108 12.3489 43.2215 12.3106 43.0283 12.284C43.0107 12.2816 42.993 12.2795 42.9754 12.2773C42.9007 12.2679 42.8256 12.2604 42.75 12.2548C42.7274 12.2531 42.7049 12.251 42.6823 12.2496C42.59 12.2441 42.4973 12.2404 42.4038 12.2404C42.3111 12.2404 42.2194 12.244 42.128 12.2494C42.1062 12.2508 42.0844 12.2528 42.0626 12.2544C41.9877 12.2599 41.9133 12.2673 41.8394 12.2764C41.822 12.2786 41.8048 12.2807 41.7875 12.2831C41.5013 12.3218 41.2236 12.3872 40.9566 12.4765C40.949 12.479 40.9415 12.4816 40.934 12.4842C40.8495 12.513 40.7659 12.5439 40.6835 12.5775C40.6767 12.5803 40.6698 12.5828 40.6629 12.5856C40.577 12.6212 40.4923 12.6588 40.409 12.6993C40.391 12.7081 40.3733 12.7178 40.3553 12.7268C40.2984 12.7554 40.2421 12.7849 40.1866 12.8159C40.1704 12.8249 40.1535 12.8327 40.1374 12.8419C39.2752 12.1083 38.7431 11.0058 38.6862 9.79029C38.6232 8.4463 39.4111 6.60683 40.8477 4.74356C41.5678 3.80962 42.2615 3.10453 42.8106 2.62537C42.6551 4.62815 43.6979 5.65274 44.5654 6.50502C45.3624 7.28811 46.0507 7.96433 46.1199 9.44211C46.1832 10.793 45.6493 12.0532 44.7013 12.8597Z" fill="white"/>
</svg>
