<svg class="svg-icon" viewBox="0 0 48 48" fill="none" xmlns="http://www.w3.org/2000/svg">
<path d="M44.25 10.3125C44.25 10.8303 43.8303 11.25 43.3125 11.25C42.7947 11.25 42.375 10.8303 42.375 10.3125C42.375 9.79468 42.7947 9.375 43.3125 9.375C43.8303 9.375 44.25 9.79468 44.25 10.3125Z" fill="white"/>
<path d="M24.9375 4.6875C24.9375 5.20532 24.5178 5.625 24 5.625C23.4822 5.625 23.0625 5.20532 23.0625 4.6875C23.0625 4.16968 23.4822 3.75 24 3.75C24.5178 3.75 24.9375 4.16968 24.9375 4.6875Z" fill="white"/>
<path d="M29.625 18.75C29.625 15.6482 27.1018 13.125 24 13.125C20.8982 13.125 18.375 15.6482 18.375 18.75C18.375 21.8518 20.8982 24.375 24 24.375C27.1018 24.375 29.625 21.8518 29.625 18.75ZM24 22.5C21.9324 22.5 20.25 20.8176 20.25 18.75C20.25 16.6824 21.9324 15 24 15C26.0676 15 27.75 16.6824 27.75 18.75C27.75 20.8176 26.0676 22.5 24 22.5Z" fill="white"/>
<path d="M45.1875 3.75H28.593C28.1576 1.61279 26.2635 0 24 0C21.7365 0 19.8424 1.61279 19.407 3.75H2.8125C1.2616 3.75 0 5.0116 0 6.5625V35.25C0 36.8009 1.2616 38.0625 2.8125 38.0625H19.3125V42.375H16.5C14.2365 42.375 12.3424 43.9878 11.907 46.125H9C8.48218 46.125 8.0625 46.5447 8.0625 47.0625C8.0625 47.5803 8.48218 48 9 48H39C39.5178 48 39.9375 47.5803 39.9375 47.0625C39.9375 46.5447 39.5178 46.125 39 46.125H36.093C35.6576 43.9878 33.7639 42.375 31.5 42.375H28.6875V38.0625H45.1875C46.7384 38.0625 48 36.8009 48 35.25V6.5625C48 5.0116 46.7384 3.75 45.1875 3.75ZM24 1.875C25.5509 1.875 26.8125 3.1366 26.8125 4.6875C26.8125 6.2384 25.5509 7.5 24 7.5C22.4491 7.5 21.1875 6.2384 21.1875 4.6875C21.1875 3.1366 22.4491 1.875 24 1.875ZM2.8125 5.625H19.407C19.8424 7.76221 21.7361 9.375 24 9.375C26.2639 9.375 28.1576 7.76221 28.593 5.625H45.1875C45.7046 5.625 46.125 6.04541 46.125 6.5625V30H31.9574C30.7782 26.6539 27.6046 24.375 24 24.375C20.3954 24.375 17.2218 26.6539 16.0426 30H1.875V6.5625C1.875 6.04541 2.29541 5.625 2.8125 5.625ZM29.9312 30H18.0688C19.1371 27.7434 21.427 26.25 24 26.25C26.573 26.25 28.8629 27.7434 29.9312 30ZM34.1514 46.125H13.8486C14.2357 45.0337 15.278 44.25 16.5 44.25H31.5C32.722 44.25 33.7643 45.0337 34.1514 46.125ZM26.8125 42.375H21.1875V38.0625H26.8125V42.375ZM45.1875 36.1875H2.8125C2.29541 36.1875 1.875 35.7671 1.875 35.25V31.875H46.125V35.25C46.125 35.7671 45.7046 36.1875 45.1875 36.1875Z" fill="white"/>
<path d="M33.375 11.25H39.5625C40.0803 11.25 40.5 10.8303 40.5 10.3125C40.5 9.79468 40.0803 9.375 39.5625 9.375H33.375C32.8572 9.375 32.4375 9.79468 32.4375 10.3125C32.4375 10.8303 32.8572 11.25 33.375 11.25Z" fill="white"/>
</svg>
