<svg class="svg-icon" viewBox="0 0 44 44" fill="none" xmlns="http://www.w3.org/2000/svg">
<path d="M14.5807 28.4151C14.9074 28.4151 15.0793 28.4151 15.2341 28.4151C19.2231 28.4151 23.2294 28.4323 27.2184 28.4151C28.3877 28.4151 29.4021 28.7246 30.193 29.6013C31.2247 30.753 31.4654 32.0938 30.8636 33.5034C30.2274 34.9989 29.0066 35.7209 27.3904 35.7381C24.8628 35.7553 22.3181 35.7381 19.7905 35.7381C19.6358 35.7381 19.481 35.7381 19.2575 35.7381C19.2575 35.91 19.2575 36.0647 19.2575 36.2194C19.2575 38.4026 19.2575 40.5685 19.2575 42.7516C19.2575 43.6799 18.948 43.9893 18.0195 43.9893C12.4142 43.9893 6.80891 43.9893 1.22079 43.9893C0.32669 43.9893 0 43.6627 0 42.7688C0 40.1731 0 37.5774 0 34.9989C0.0171942 31.6125 2.20086 29.034 5.53654 28.4839C6.10395 28.398 6.70574 28.4151 7.4279 28.3808C7.29035 28.1057 7.22157 27.8823 7.10121 27.6932C6.70575 27.0743 6.31028 26.4727 5.91481 25.871C5.81165 25.7335 5.69129 25.5616 5.55373 25.51C3.69676 24.8052 3.11215 22.6393 4.36733 21.1094C4.50488 20.9375 4.59086 20.6796 4.59086 20.4562C4.60805 19.2872 4.59086 18.1355 5.00352 17.0181C6.05236 14.1818 8.9238 12.4628 11.9672 12.8925C14.8902 13.3051 17.177 15.7461 17.4005 18.7028C17.4521 19.3216 17.4177 19.9405 17.4521 20.5421C17.4693 20.7312 17.5381 20.9375 17.6585 21.075C18.948 22.6393 18.3806 24.8052 16.5064 25.51C16.3517 25.5616 16.2313 25.7335 16.1454 25.871C15.7327 26.4727 15.3372 27.0743 14.959 27.6932C14.8042 27.8994 14.7354 28.1229 14.5807 28.4151ZM6.44783 42.15C6.58539 42.1672 6.67136 42.1844 6.75733 42.1844C10.1962 42.1844 13.635 42.1844 17.0739 42.1844C17.4349 42.1844 17.4521 42.0297 17.4521 41.7374C17.4521 39.5371 17.4521 37.3196 17.4521 35.1193C17.4521 34.2254 17.7616 33.916 18.6729 33.916C20.2376 33.916 21.8023 33.916 23.3497 33.916C23.5045 33.916 23.6592 33.916 23.8312 33.916C23.8312 32.6783 23.8312 31.475 23.8312 30.2717C20.7362 30.2717 17.6585 30.2717 14.5807 30.2717C13.9961 31.9563 12.8441 32.9705 11.0559 32.9705C9.23329 32.9877 8.04689 31.9735 7.4451 30.2373C7.20438 30.2373 6.96366 30.2373 6.72294 30.2373C3.78273 30.2545 1.85698 32.1626 1.85698 35.1193C1.85698 37.3024 1.85698 39.5027 1.85698 41.6859C1.85698 41.8406 1.87417 41.9781 1.89136 42.1328C2.81985 42.1328 3.67956 42.1328 4.62524 42.1328C4.62524 40.6029 4.62524 39.0902 4.62524 37.5603C5.10668 37.5603 5.51934 37.5946 5.932 37.5603C6.37905 37.5259 6.48222 37.6634 6.48222 38.1103C6.43064 39.4512 6.44783 40.7748 6.44783 42.15ZM9.31927 20.4218C8.68308 20.9031 8.09848 21.3157 7.54826 21.7454C7.4451 21.8314 7.35913 21.9861 7.35913 22.1236C7.35913 22.8284 7.35912 23.5332 7.41071 24.2208C7.54826 25.9398 8.9066 27.2634 10.7464 27.4697C12.3111 27.6416 14.0477 26.5758 14.4431 25.0115C14.6667 24.152 14.6151 23.2238 14.6839 22.3471C14.7183 22.0548 14.5979 21.9517 14.3056 21.9173C12.5002 21.7798 10.7292 21.4704 9.31927 20.4218ZM6.46503 20.1295C6.94646 20.1295 7.25596 19.8545 7.47948 19.5279C7.80617 19.0294 8.08128 18.4965 8.35639 17.9636C8.56272 17.5854 8.88941 17.3963 9.30207 17.4651C9.73193 17.5338 10.007 17.7917 10.0586 18.2214C10.1274 18.7543 10.4197 19.0638 10.8839 19.2872C11.7608 19.7342 12.7237 19.9233 13.6866 20.0436C14.3056 20.1295 14.9246 20.1467 15.5608 20.1983C15.7671 18.1527 15.1825 16.5196 13.4803 15.4195C11.9156 14.4053 10.2478 14.3881 8.64869 15.3679C6.91208 16.4165 6.27589 18.0667 6.46503 20.1295ZM25.7397 30.2545C25.7397 31.4922 25.7397 32.6955 25.7397 33.8988C26.4275 33.8988 27.0981 33.9503 27.7343 33.8816C28.7315 33.7956 29.3849 32.9877 29.3505 32.0079C29.3161 31.0796 28.5768 30.3061 27.6139 30.2717C26.9949 30.2373 26.3759 30.2545 25.7397 30.2545ZM12.8441 29.1199C12.2079 29.1887 11.6233 29.3262 11.0215 29.3262C10.4369 29.3262 9.83509 29.2059 9.2161 29.1199C9.14732 29.8075 9.37085 30.4092 9.97265 30.8389C10.6088 31.2859 11.2966 31.3203 11.95 30.9249C12.6206 30.5123 12.8957 29.8763 12.8441 29.1199Z" fill="white"/>
<path d="M37.6038 33.0049C36.0563 33.0049 34.5604 33.0049 33.0473 33.0049C33.0473 32.4032 33.0473 31.8188 33.0473 31.1827C33.2192 31.1827 33.374 31.1827 33.5459 31.1827C35.9875 31.1827 38.4463 31.1827 40.8878 31.1827C41.9023 31.1827 42.1946 30.8905 42.1946 29.8763C42.1946 20.9719 42.1946 12.0674 42.1946 3.14578C42.1946 2.13157 41.8851 1.83934 40.8878 1.83934C31.6546 1.83934 22.4385 1.83934 13.2052 1.83934C12.2251 1.83934 11.9328 2.13157 11.9328 3.12859C11.9328 5.56958 11.9328 8.02775 11.9328 10.4687C11.9328 10.6406 11.9328 10.8125 11.9328 10.9844C11.2966 10.9844 10.712 10.9844 10.0758 10.9844C10.0758 10.8125 10.0758 10.6578 10.0758 10.5031C10.0758 8.02775 10.0758 5.55239 10.0758 3.07702C10.0758 1.13454 11.2106 0 13.1364 0C22.4041 0 31.6717 0 40.9394 0C42.8824 0 44 1.11735 44 3.05983C44 12.033 44 20.989 44 29.9623C44 31.8875 42.8824 33.0049 40.9566 33.0049C40.458 33.0049 39.9594 33.0049 39.4435 33.0049C39.4435 33.194 39.4263 33.3315 39.4263 33.469C39.4263 35.0505 39.4263 36.6492 39.4263 38.2307C39.4263 38.5229 39.4951 38.6948 39.7702 38.8323C40.7847 39.3652 41.2833 40.2247 41.2489 41.3421C41.2145 42.4766 40.6299 43.3017 39.5983 43.7487C38.5494 44.2128 37.5522 44.0237 36.6753 43.2673C35.2825 42.064 35.5233 39.7434 37.1567 38.8495C37.4834 38.6776 37.5866 38.4885 37.5866 38.1275C37.5694 36.5804 37.5866 35.0333 37.5866 33.4862C37.6038 33.3659 37.6038 33.2112 37.6038 33.0049ZM39.4435 41.2561C39.4435 40.7748 39.0309 40.3622 38.5494 40.3622C38.0508 40.3622 37.6209 40.792 37.6381 41.2905C37.6553 41.7718 38.068 42.1844 38.5666 42.1672C39.0309 42.15 39.4435 41.7374 39.4435 41.2561Z" fill="white"/>
<path d="M30.279 11.8955C34.3025 11.9987 36.83 15.3335 36.6925 18.4793C36.5549 21.8485 34.0789 24.4271 30.812 24.7365C27.7343 25.0287 23.9344 22.6565 23.814 18.3246C23.6592 18.3246 23.5045 18.3246 23.3669 18.3246C22.3525 18.3246 21.338 18.3418 20.3236 18.3246C19.6358 18.3074 19.2919 17.9636 19.2919 17.276C19.2919 14.3193 19.2919 11.3454 19.2919 8.38874C19.2919 7.66676 19.6702 7.32296 20.4439 7.32296C22.1634 7.32296 23.8828 7.32296 25.6022 7.32296C26.737 7.32296 27.8718 7.32296 28.9895 7.32296C29.9695 7.32296 30.279 7.63238 30.279 8.59502C30.279 9.69519 30.279 10.7782 30.279 11.8955ZM25.7569 18.3246C25.5334 20.2327 27.3044 22.7596 30.0727 22.9143C32.6346 23.0519 34.8871 20.8859 34.8527 18.2558C34.8183 15.7805 32.583 13.5801 30.2962 13.7864C30.2962 13.8896 30.279 14.0099 30.279 14.113C30.279 15.1616 30.279 16.2102 30.279 17.2416C30.279 17.9464 29.9351 18.2902 29.2302 18.3074C28.8519 18.3246 28.4908 18.3074 28.1126 18.3074C27.3216 18.3246 26.5307 18.3246 25.7569 18.3246ZM21.1317 9.19668C21.1317 11.6549 21.1317 14.0615 21.1317 16.5024C22.0774 16.5024 22.9887 16.5024 23.9 16.4853C24.0031 16.4853 24.1407 16.3649 24.1923 16.2618C24.9144 14.3193 26.2212 12.9785 28.1813 12.2737C28.2845 12.2393 28.4392 12.1018 28.4392 11.9987C28.4564 11.0704 28.4564 10.1421 28.4564 9.19668C25.9805 9.19668 23.5733 9.19668 21.1317 9.19668ZM28.422 14.1474C27.356 14.6803 26.5995 15.4195 26.0836 16.4853C26.8918 16.4853 27.6483 16.4853 28.422 16.4853C28.422 15.7117 28.422 14.9725 28.422 14.1474Z" fill="white"/>
<path d="M35.8156 3.69586C36.5549 3.69586 37.2427 3.66148 37.9477 3.69586C39.1512 3.78181 40.2517 4.86478 40.3204 6.06809C40.372 6.77288 40.3204 7.46048 40.3204 8.19965C39.7358 8.19965 39.1512 8.19965 38.5151 8.19965C38.5151 7.66676 38.5151 7.13387 38.5151 6.61817C38.5151 5.84462 38.154 5.50082 37.3802 5.48362C36.8816 5.48362 36.383 5.48362 35.8843 5.48362C35.8671 5.48362 35.8328 5.46643 35.7984 5.44924C35.8156 4.86478 35.8156 4.28032 35.8156 3.69586Z" fill="white"/>
<path d="M33.9242 5.48362C33.3052 5.48362 32.7378 5.48362 32.136 5.48362C32.136 4.89916 32.136 4.3147 32.136 3.69586C32.7206 3.69586 33.3052 3.69586 33.9242 3.69586C33.9242 4.29751 33.9242 4.86478 33.9242 5.48362Z" fill="white"/>
</svg>
