<svg width="50" height="43" viewBox="0 0 50 43" fill="none" xmlns="http://www.w3.org/2000/svg">
<path d="M48.6529 6.35994H39.1919C38.448 6.35994 37.8447 6.96326 37.8447 7.70713V16.8666H31.0779V1.34719C31.0779 0.603317 30.4746 0 29.7307 0H20.2694C19.5255 0 18.9222 0.603317 18.9222 1.34719V26.8389H12.1554V15.3874C12.1554 14.6433 11.5521 14.0402 10.8082 14.0402H1.34719C0.603094 14.0402 0 14.6433 0 15.3874V41.1777C0 41.9218 0.603317 42.5249 1.34719 42.5249H10.8082H20.2693H29.7306H39.1918H48.6528C49.3969 42.5249 50 41.9216 50 41.1777V7.70713C50.0001 6.96326 49.397 6.35994 48.6529 6.35994ZM9.46117 39.8305H2.69438V16.7346H9.46117V39.8305ZM18.9225 39.8305H12.1557V29.5332H18.9225V39.8305ZM28.3836 18.2138V39.8305H21.6167V2.69438H28.3836V18.2138ZM37.8449 39.8305H31.0781V19.561H37.8449V39.8305ZM47.306 39.8305H40.5393V18.2138V9.05432H47.3061V39.8305H47.306Z" fill="#613C9E"/>
</svg>
