<svg width="50" height="38" viewBox="0 0 50 38" fill="none" xmlns="http://www.w3.org/2000/svg">
<path d="M31.1751 0.506034L29.4806 0.0415089C29.2625 -0.0312227 29.0477 -0.0083501 28.8388 0.109934C28.6292 0.228315 28.4877 0.406029 28.4149 0.642789L18.2235 35.9165C18.1507 36.1533 18.1735 36.3767 18.2919 36.5859C18.4103 36.7955 18.5876 36.9366 18.8248 37.0093L20.5187 37.4741C20.7373 37.5474 20.9514 37.5244 21.1609 37.4059C21.3705 37.287 21.5117 37.1098 21.5844 36.8735L31.7761 1.59921C31.8487 1.36245 31.8261 1.13909 31.7076 0.929408C31.5891 0.719827 31.4119 0.57867 31.1751 0.506034Z" fill="#613C9E"/>
<path d="M15.9021 7.39175C15.9021 7.15499 15.8109 6.94532 15.6288 6.76329L14.2625 5.39709C14.0804 5.21497 13.8708 5.12368 13.634 5.12368C13.3973 5.12368 13.1876 5.21507 13.0056 5.39709L0.273318 18.1293C0.0909145 18.3114 0 18.521 0 18.7578C0 18.9945 0.0912016 19.2041 0.273318 19.3862L13.0055 32.1184C13.1875 32.3008 13.3968 32.3915 13.6339 32.3915C13.8711 32.3915 14.0804 32.3005 14.2624 32.1184L15.6287 30.7529C15.8108 30.5709 15.902 30.3613 15.902 30.1242C15.902 29.8877 15.8108 29.6781 15.6287 29.4961L4.89091 18.7578L15.6288 8.02021C15.8112 7.83819 15.9021 7.62851 15.9021 7.39175Z" fill="#613C9E"/>
<path d="M49.7268 18.129L36.9942 5.39674C36.8122 5.21472 36.6026 5.12333 36.3662 5.12333C36.129 5.12333 35.9201 5.21472 35.7374 5.39674L34.3717 6.76285C34.1897 6.94497 34.0989 7.15426 34.0989 7.39131C34.0989 7.62836 34.1896 7.83775 34.3717 8.01977L45.1098 18.7576L34.3717 29.4961C34.1897 29.6781 34.0989 29.8878 34.0989 30.1241C34.0989 30.3613 34.1896 30.5709 34.3717 30.7529L35.7374 32.1183C35.9201 32.3007 36.1291 32.3914 36.3662 32.3914C36.6026 32.3914 36.8122 32.3004 36.9942 32.1183L49.7268 19.3862C49.9089 19.2042 49.9999 18.9942 49.9999 18.7574C49.9999 18.5206 49.9089 18.311 49.7268 18.129Z" fill="#613C9E"/>
</svg>
