<svg width="38" height="50" viewBox="0 0 38 50" fill="none" xmlns="http://www.w3.org/2000/svg">
<path fill-rule="evenodd" clip-rule="evenodd" d="M32.7073 15.8537C32.7073 16.4059 32.2596 16.8537 31.7073 16.8537H17.0732C16.5209 16.8537 16.0732 16.4059 16.0732 15.8537C16.0732 15.3014 16.5209 14.8537 17.0732 14.8537H31.7073C32.2596 14.8537 32.7073 15.3014 32.7073 15.8537ZM32.7073 21.9512C32.7073 22.5035 32.2596 22.9512 31.7073 22.9512H17.0732C16.5209 22.9512 16.0732 22.5035 16.0732 21.9512C16.0732 21.3989 16.5209 20.9512 17.0732 20.9512H31.7073C32.2596 20.9512 32.7073 21.3989 32.7073 21.9512ZM32.7073 28.0488C32.7073 28.6011 32.2596 29.0488 31.7073 29.0488H17.0732C16.5209 29.0488 16.0732 28.6011 16.0732 28.0488C16.0732 27.4965 16.5209 27.0488 17.0732 27.0488H31.7073C32.2596 27.0488 32.7073 27.4965 32.7073 28.0488ZM24.3902 50H4.87805C2.18398 50 0 47.816 0 45.122V4.87805C0 2.18398 2.18398 0 4.87805 0H32.9268C35.6209 0 37.8049 2.18398 37.8049 4.87805V37.1951L24.3902 50ZM35.8049 36.1951V4.87805C35.8049 3.28855 34.5163 2 32.9268 2H4.87805C3.28855 2 2 3.28855 2 4.87805V45.122C2 46.7115 3.28855 48 4.87805 48H23.3902V39.6341C23.3902 37.7348 24.93 36.1951 26.8293 36.1951H35.8049ZM25.3902 46.2806V39.6341C25.3902 38.8394 26.0345 38.1951 26.8293 38.1951H33.8607L25.3902 46.2806Z" fill="#613C9E"/>
</svg>
