<svg width="50" height="50" viewBox="0 0 50 50" fill="none" xmlns="http://www.w3.org/2000/svg">
<path d="M0.432228 47.4501L12.583 35.2993C9.32358 31.5521 7.35019 26.663 7.35019 21.3193C7.35019 9.55654 16.9178 0 28.6695 0C40.4322 0 49.9888 9.56763 49.9888 21.3193C49.9888 33.071 40.4211 42.6386 28.6695 42.6386C23.3258 42.6386 18.4367 40.6652 14.6894 37.4058L2.53866 49.5565C2.25041 49.8448 1.86238 50 1.48544 50C1.10851 50 0.720478 49.8559 0.432228 49.5565C-0.144268 48.98 -0.144268 48.0266 0.432228 47.4501ZM47.0065 21.3193C47.0065 11.2084 38.7803 2.99335 28.6806 2.99335C18.5697 2.99335 10.3546 11.2195 10.3546 21.3193C10.3546 31.4191 18.5697 39.6563 28.6806 39.6563C38.7803 39.6563 47.0065 31.4302 47.0065 21.3193Z" fill="#613C9E"/>
</svg>
