<svg class="svg-icon" viewBox="0 0 20 20" xmlns="http://www.w3.org/2000/svg">
<path d="M18.7331 7.65232C18.7331 6.98012 18.1809 6.42795 17.5087 6.42795C16.8365 6.42795 16.2843 6.98012 16.2843 7.65232V12.7539C16.2843 13.4261 16.8365 13.9782 17.5087 13.9782C18.1809 13.9782 18.7331 13.4261 18.7331 12.7539V7.65232ZM4.44874 7.65232C4.44874 6.98012 3.89657 6.42795 3.22437 6.42795C2.55217 6.42795 2 6.98012 2 7.65232V12.7539C2 13.4261 2.55217 13.9782 3.22437 13.9782C3.89657 13.9782 4.44874 13.4261 4.44874 12.7539V7.65232ZM13.0433 1.81855L13.9076 0.258078C13.9556 0.174052 13.9256 0.0660195 13.8416 0.0240068C13.8176 0.0120031 13.7876 0 13.7576 0C13.6975 0 13.6375 0.0300087 13.6075 0.0900269L12.7313 1.66851C12.017 1.35041 11.2128 1.17035 10.3665 1.17035C9.52028 1.17035 8.71604 1.35041 8.00182 1.66851L7.13156 0.0900269C7.08354 0.00600135 6.98151 -0.0240078 6.89748 0.0240068C6.81346 0.0720213 6.78345 0.174052 6.83146 0.258078L7.69573 1.81855C6.02722 2.68281 4.90488 4.32131 4.90488 6.20588H15.8282C15.8282 4.32131 14.7059 2.68281 13.0433 1.81855ZM7.84577 4.20728C7.5937 4.20728 7.38963 4.00321 7.38963 3.75114C7.38963 3.49906 7.5937 3.295 7.84577 3.295C8.09785 3.295 8.30191 3.49906 8.30191 3.75114C8.30191 4.00321 8.09785 4.20728 7.84577 4.20728ZM12.8873 4.20728C12.6352 4.20728 12.4312 4.00321 12.4312 3.75114C12.4312 3.49906 12.6352 3.295 12.8873 3.295C13.1394 3.295 13.3434 3.49906 13.3434 3.75114C13.3434 4.00321 13.1394 4.20728 12.8873 4.20728ZM4.90488 6.63801V14.5544C4.90488 15.2866 5.49306 15.8748 6.22528 15.8748H7.10155V18.5756C7.10155 19.2478 7.65371 19.8 8.32592 19.8C8.99812 19.8 9.55029 19.2478 9.55029 18.5756V15.8748H11.1828V18.5756C11.1828 19.2478 11.735 19.8 12.4072 19.8C13.0794 19.8 13.6315 19.2478 13.6315 18.5756V15.8748H14.5078C15.24 15.8748 15.8282 15.2866 15.8282 14.5544V6.63801H4.90488Z"/>
</svg>
