<svg class="svg-icon" viewBox="0 0 17 20" xmlns="http://www.w3.org/2000/svg">
<path d="M11.9765 4.78064C10.3423 4.66793 8.96159 5.69169 8.19143 5.69169C7.41188 5.69169 6.20028 4.80882 4.92294 4.8276C3.24173 4.85578 1.69201 5.80439 0.827926 7.30715C-0.919028 10.3408 0.38649 14.8303 2.08648 17.2911C2.92239 18.4933 3.90857 19.8458 5.21409 19.7988C6.47265 19.7518 6.94226 18.9911 8.4638 18.9911C9.97595 18.9911 10.408 19.7988 11.7323 19.78C13.0848 19.7518 13.9395 18.5496 14.766 17.3474C15.724 15.9574 16.1185 14.6049 16.1373 14.5298C16.1091 14.5204 13.5074 13.5248 13.4793 10.5193C13.4511 8.01157 15.5268 6.80936 15.6207 6.75301C14.4279 5.02484 12.6152 4.8276 11.9765 4.78064ZM10.9715 3.16518C11.6666 2.32927 12.1268 1.16464 12.0047 0C11.0091 0.0375689 9.80689 0.666847 9.08369 1.50276C8.44502 2.24474 7.88149 3.42816 8.03176 4.56462C9.14944 4.64915 10.2765 4.00109 10.9715 3.16518Z"/>
</svg>
