<svg class="svg-icon" viewBox="0 0 20 20" xmlns="http://www.w3.org/2000/svg">
<path fill-rule="evenodd" clip-rule="evenodd" d="M9.84685 19.6932C15.2852 19.6932 19.6933 15.2847 19.6933 9.84637C19.6933 4.40831 15.2852 0 9.84685 0C4.40859 0 0 4.40838 0 9.84637C0 15.2847 4.40852 19.6932 9.84685 19.6932ZM3.46977 11.1126C4.16944 11.1126 4.73628 10.5456 4.73628 9.84645C4.73628 9.14755 4.16944 8.58071 3.46977 8.58071C2.77094 8.58071 2.2041 9.14755 2.2041 9.84645C2.2041 10.5457 2.77094 11.1126 3.46977 11.1126ZM13.668 16.4656C13.0625 16.8148 12.2886 16.6073 11.9389 16.0022C11.5893 15.3968 11.7968 14.6228 12.4023 14.2732C13.0077 13.9236 13.7818 14.1306 14.1313 14.7361C14.4809 15.3416 14.2735 16.116 13.668 16.4656ZM13.668 3.22818C14.2738 3.57743 14.4809 4.35157 14.1313 4.95717C13.7821 5.56264 13.0077 5.77008 12.4022 5.42049C11.7967 5.0709 11.5892 4.29682 11.9388 3.69136C12.2886 3.08604 13.0628 2.87859 13.668 3.22818ZM13.4427 9.52694C13.2811 7.68242 11.7331 6.23639 9.84669 6.23639C9.30355 6.23639 8.78757 6.35693 8.32557 6.5716L7.43408 4.97072C8.16133 4.61036 8.98029 4.40777 9.84669 4.40777C10.3407 4.40777 10.8196 4.47398 11.2749 4.59765C11.3552 5.11203 11.6586 5.58681 12.1443 5.86728C12.6297 6.14774 13.1924 6.17317 13.6773 5.98608C14.5934 6.89493 15.1879 8.12753 15.2749 9.49804L13.4427 9.52694ZM7.77138 6.89243C6.843 7.54541 6.23622 8.62531 6.23622 9.84645C6.23622 11.0684 6.843 12.1479 7.77138 12.8014L6.8307 14.3738C5.74108 13.6458 4.92942 12.5358 4.58698 11.2345C4.99215 10.9081 5.25184 10.4079 5.25184 9.84652C5.25184 9.28552 4.99222 8.78531 4.58698 8.45899C4.92942 7.15761 5.74108 6.04763 6.8307 5.31996L7.77138 6.89243ZM8.32557 13.1217C8.78764 13.3367 9.30362 13.4572 9.84669 13.4572C11.7331 13.4572 13.281 12.0108 13.4427 10.1668L15.2749 10.1952C15.1879 11.5657 14.5935 12.7983 13.6773 13.7076C13.1924 13.5205 12.6297 13.546 12.1443 13.8265C11.6585 14.1064 11.3551 14.5812 11.2749 15.096C10.8196 15.2198 10.3406 15.2855 9.84669 15.2855C8.98022 15.2855 8.16133 15.0832 7.43408 14.7225L8.32557 13.1217Z"/>
</svg>
