<?xml version="1.0" encoding="UTF-8"?>
<svg class="svg-icon" viewBox="0 0 50 50" version="1.1" xmlns="http://www.w3.org/2000/svg" xmlns:xlink="http://www.w3.org/1999/xlink">
    <g transform="translate(14.000000, 0.000000)">
        <path d="M7.5,2.5 C9.5,0.75 12,0 14.5,0 C17.25,0 19.75,0 22.5,0 C22.5,3 22.5,5.75 22.5,8.75 C20.75,8.75 19,8.75 17.25,8.75 C16.25,8.75 15,9.5 15,10.75 C15,12.75 15,14.75 15,16.5 C17.5,16.5 20,16.5 22.5,16.5 C22.25,19.25 22,22.25 21.5,25 C19.25,25 17,25 14.75,25 C14.75,33.25 14.75,41.75 14.75,50 C11.5,50 8,50 4.75,50 C4.75,41.75 4.75,33.25 4.75,25 C3.25,25 1.5,25 0,25 C0,22.25 0,19.5 0,16.5 C1.5,16.5 3.25,16.5 4.75,16.5 C4.75,13.75 4.75,11 4.75,8.25 C5,6.25 5.75,4 7.5,2.5 Z"></path>
    </g>
</svg>
