<?xml version="1.0" encoding="UTF-8"?>
<svg class="svg-icon" viewBox="0 0 50 50" version="1.1" xmlns="http://www.w3.org/2000/svg" xmlns:xlink="http://www.w3.org/1999/xlink">
    <g>
        <path d="M46.9393939,30 C46.9393939,27.4242424 45.1212121,25.3030303 42.6969697,24.8484848 L42.6969697,9.09090909 C42.6969697,6.96969697 41.6363636,5.15151515 39.969697,4.09090909 C38.4545455,3.03030303 36.4848485,2.72727273 34.6666667,3.48484848 L28.7575758,1.51515152 C24.2121212,7.10542736e-15 19.5151515,-0.151515152 15.1212121,1.06060606 C9.36363636,2.42424242 6.03030303,5.90909091 5.42424242,10.7575758 C4.96969697,11.3636364 4.66666667,12.1212121 4.36363636,12.8787879 L3.90909091,14.2424242 C3.60606061,15 3.90909091,15.7575758 4.51515152,16.2121212 C5.12121212,16.6666667 6.03030303,16.5151515 6.48484848,16.0606061 C6.63636364,15.9090909 6.93939394,15.7575758 7.09090909,15.6060606 L7.09090909,25 C4.81818182,25.3030303 3,27.4242424 3,30 C3,32.7272727 4.96969697,34.8484848 7.54545455,35.1515152 C8.15151515,38.7878788 9.81818182,42.1212121 12.3939394,44.6969697 C15.7272727,48.1818182 20.2727273,50 24.969697,50 C29.6666667,50 34.2121212,48.1818182 37.5454545,44.6969697 C40.1212121,42.1212121 41.7878788,38.7878788 42.5454545,35.1515152 C44.969697,34.8484848 46.9393939,32.5757576 46.9393939,30 Z M39.0606061,5.60606061 C40.1212121,6.36363636 40.8787879,7.57575758 40.8787879,9.09090909 L40.8787879,21.3636364 C38,20.9090909 35.7272727,18.3333333 35.7272727,15.3030303 L35.5757576,5 C36.7878788,4.6969697 38,4.84848485 39.0606061,5.60606061 Z M6.03030303,13.9393939 L6.18181818,13.3333333 C6.63636364,11.969697 7.6969697,10.7575758 9.06060606,10.1515152 C10.4242424,9.54545455 11.9393939,9.54545455 13.3030303,10.1515152 C16.1818182,11.5151515 19.5151515,10.7575758 21.6363636,8.33333333 L21.9393939,8.03030303 C22.2424242,7.57575758 22.2424242,7.12121212 21.7878788,6.66666667 C21.3333333,6.36363636 20.8787879,6.36363636 20.4242424,6.66666667 L20.1212121,6.96969697 C18.6060606,8.63636364 16.030303,9.24242424 14.0606061,8.33333333 C12.2424242,7.72727273 10.1212121,7.72727273 8.3030303,8.48484848 C8.15151515,8.48484848 8,8.63636364 7.84848485,8.78787879 C8.90909091,5.90909091 11.4848485,3.78787879 15.7272727,2.72727273 C19.8181818,1.51515152 24.0606061,1.66666667 28.3030303,3.03030303 L33.9090909,5 L33.9090909,9.84848485 C31.4848485,13.1818182 27.8484848,15.6060606 23.7575758,16.3636364 C19.5151515,17.1212121 15.2727273,16.3636364 11.6363636,13.9393939 C9.81818182,12.7272727 7.6969697,12.8787879 6.03030303,13.9393939 Z M4.81818182,30 C4.81818182,28.4848485 5.72727273,27.2727273 7.24242424,26.8181818 L7.24242424,31.8181818 C7.24242424,32.2727273 7.24242424,32.7272727 7.24242424,33.1818182 C5.87878788,32.7272727 4.81818182,31.5151515 4.81818182,30 Z M36.1818182,43.3333333 C33.1515152,46.3636364 29.2121212,48.030303 24.969697,48.030303 C20.7272727,48.030303 16.7878788,46.3636364 13.7575758,43.1818182 C10.7272727,40.1515152 9.06060606,36.0606061 9.06060606,31.6666667 L9.06060606,15 C9.66666667,15 10.1212121,15.1515152 10.5757576,15.4545455 C14.5151515,18.030303 19.3636364,19.0909091 24.0606061,18.1818182 C27.8484848,17.4242424 31.3333333,15.6060606 33.9090909,12.7272727 L33.9090909,15.3030303 C33.9090909,19.3939394 36.9393939,22.7272727 40.8787879,23.1818182 L40.8787879,31.969697 C40.8787879,36.3636364 39.2121212,40.3030303 36.1818182,43.3333333 Z M42.6969697,33.1818182 C42.6969697,32.8787879 42.6969697,32.4242424 42.6969697,32.1212121 L42.6969697,26.8181818 C44.0606061,27.2727273 45.1212121,28.4848485 45.1212121,30 C45.1212121,31.5151515 44.0606061,32.7272727 42.6969697,33.1818182 Z M15.7272727,29.0909091 C15.2727273,29.0909091 14.8181818,29.2424242 14.3636364,29.5454545 C14.0606061,29.8484848 13.4545455,29.8484848 13,29.5454545 C12.5454545,29.0909091 12.6969697,28.4848485 13,28.1818182 C13.7575758,27.5757576 14.6666667,27.1212121 15.7272727,27.1212121 C16.7878788,27.1212121 17.6969697,27.4242424 18.4545455,28.1818182 C18.9090909,28.6363636 18.9090909,29.2424242 18.4545455,29.5454545 C18.1515152,29.6969697 18,29.8484848 17.6969697,29.8484848 C17.3939394,29.8484848 17.0909091,29.6969697 16.9393939,29.5454545 C16.6363636,29.2424242 16.1818182,29.0909091 15.7272727,29.0909091 Z M32.0909091,28.1818182 C33.4545455,26.8181818 35.8787879,26.8181818 37.5454545,28.1818182 C38,28.6363636 38,29.2424242 37.5454545,29.5454545 C37.2424242,29.6969697 37.0909091,29.8484848 36.7878788,29.8484848 C36.4848485,29.8484848 36.1818182,29.6969697 36.030303,29.5454545 C35.2727273,28.7878788 34.2121212,28.7878788 33.4545455,29.5454545 C33.1515152,29.8484848 32.5454545,29.8484848 32.0909091,29.5454545 C31.6363636,29.0909091 31.7878788,28.4848485 32.0909091,28.1818182 Z M34.969697,37.2727273 C34.969697,37.2727273 35.1212121,37.2727273 34.969697,37.2727273 C35.4242424,36.8181818 36.030303,36.8181818 36.1818182,37.2727273 C36.4848485,37.5757576 36.4848485,38.1818182 36.1818182,38.6363636 C33.1515152,41.8181818 29.0606061,43.4848485 25.1212121,43.4848485 C21.1818182,43.4848485 17.0909091,41.8181818 14.0606061,38.6363636 C13.7575758,38.3333333 13.7575758,37.7272727 14.0606061,37.2727273 C14.5151515,36.8181818 15.1212121,36.969697 15.4242424,37.2727273 C20.8787879,42.8787879 29.5151515,42.8787879 34.969697,37.2727273 Z"></path>
    </g>
</svg>
