<?xml version="1.0" encoding="UTF-8"?>
<svg viewBox="0 0 50 50" version="1.1" xmlns="http://www.w3.org/2000/svg" xmlns:xlink="http://www.w3.org/1999/xlink">
    <g transform="translate(10.000000, 0.000000)">
        <path d="M14.3478261,24.7826087 C21.3043478,24.7826087 26.9565217,19.1304348 26.9565217,12.3913043 C26.9565217,5.65217391 21.3043478,0 14.3478261,0 C7.39130435,0 1.73913043,5.65217391 1.73913043,12.3913043 C1.73913043,19.1304348 7.39130435,24.7826087 14.3478261,24.7826087 Z M14.3478261,7.17391304 C17.173913,7.17391304 19.5652174,9.56521739 19.5652174,12.3913043 C19.5652174,15.2173913 17.173913,17.6086957 14.3478261,17.6086957 C11.5217391,17.6086957 9.13043478,15.2173913 9.13043478,12.3913043 C9.13043478,9.56521739 11.5217391,7.17391304 14.3478261,7.17391304 Z M27.6086957,26.5217391 C28.6956522,27.826087 28.4782609,30 26.9565217,31.3043478 C26.7391304,31.5217391 23.6956522,33.6956522 18.6956522,34.7826087 L26.3043478,42.173913 C27.6086957,43.4782609 27.6086957,45.6521739 26.3043478,46.9565217 C25,48.2608696 22.826087,48.2608696 21.5217391,46.9565217 L14.1304348,39.7826087 L7.39130435,46.7391304 C6.73913043,47.3913043 5.86956522,47.826087 5,47.826087 C4.13043478,47.826087 3.26086957,47.6086957 2.60869565,46.9565217 C1.30434783,45.6521739 1.30434783,43.4782609 2.60869565,42.173913 L9.7826087,34.7826087 C4.56521739,33.9130435 1.52173913,31.5217391 1.30434783,31.3043478 C-1.85962357e-15,30 -0.217391304,28.0434783 0.869565217,26.5217391 C1.95652174,25.2173913 4.13043478,25 5.65217391,26.0869565 C5.86956522,26.0869565 9.13043478,28.4782609 14.3478261,28.4782609 C19.5652174,28.4782609 22.826087,26.0869565 22.826087,26.0869565 C24.3478261,24.7826087 26.5217391,25 27.6086957,26.5217391 Z"></path>
    </g>
</svg>
