<?xml version="1.0" encoding="UTF-8"?>
<svg viewBox="0 0 50 50" version="1.1" xmlns="http://www.w3.org/2000/svg" xmlns:xlink="http://www.w3.org/1999/xlink">
    <g transform="translate(1.000000, 0.000000)">
        <path d="M47.7319227,26.1873593 C47.429741,24.0720871 46.8253775,21.9568148 45.6166505,19.5393608 C44.4079235,17.7262703 43.1991965,15.6109981 41.9904695,14.1000893 C40.7817425,12.5891806 38.968652,11.3804536 38.0621067,9.86954483 C37.759925,9.26518133 37.4577432,8.96299958 37.1555615,8.66081783 C37.1555615,8.66081783 36.8533797,8.66081783 36.8533797,8.35863608 C36.551198,8.05645433 36.2490162,7.75427258 35.9468345,7.45209083 C35.342471,6.84772733 34.7381075,6.54554558 34.133744,5.94118208 C32.3206535,4.43027333 29.6010177,2.61718283 26.5792002,2.31500108 C26.2770185,2.31500108 26.2770185,2.31500108 25.9748367,2.31500108 C23.255201,2.01281933 20.2333835,1.40845583 17.5137477,1.71063758 C15.0962937,2.01281933 12.6788397,2.61718283 10.5635675,3.52372808 C7.84393175,4.73245508 6.03084125,5.94118208 4.21775075,7.75427258 C1.80029675,10.1717266 0.59156975,12.5891806 0.289388,15.6109981 C0.289388,17.1219068 0.8937515,19.2371791 1.80029675,20.4459061 C1.80029675,20.4459061 1.80029675,20.7480878 1.80029675,20.7480878 C1.80029675,21.0502696 1.498115,21.6546331 1.498115,22.2589966 C1.498115,22.8633601 1.498115,23.4677236 1.498115,23.7699053 C1.498115,24.3742688 1.498115,24.9786323 1.498115,25.5829958 C1.498115,27.6982681 1.498115,29.2091768 1.498115,31.0222673 C1.498115,33.1375396 1.498115,34.9506301 2.706842,37.0659023 C3.61338725,38.8789928 4.82211425,40.6920833 6.333023,42.2029921 C10.5635675,46.7357183 16.9093842,49.7575358 22.9530192,49.7575358 C23.5573828,49.7575358 24.1617462,49.7575358 24.7661098,49.7575358 C27.4857455,49.4553541 29.9031995,48.5488088 31.71629,47.3400818 C33.5293805,46.1313548 34.7381075,44.6204461 35.6446527,43.1095373 C35.9468345,42.8073556 35.9468345,42.5051738 36.2490162,42.5051738 C37.1555615,41.5986286 37.759925,40.6920833 38.6664702,39.4833563 C38.968652,39.1811746 39.2708337,38.8789928 39.2708337,38.8789928 C39.5730155,38.5768111 39.8751973,38.2746293 40.177379,37.9724476 C40.177379,37.9724476 40.4795607,37.6702658 40.7817425,37.3680841 C41.0839242,37.0659023 41.386106,36.7637206 41.386106,36.4615388 C41.386106,36.4615388 41.6882878,36.4615388 41.6882878,36.1593571 C41.9904695,35.8571753 42.594833,35.5549936 42.8970148,35.2528118 C44.1057417,34.3462666 45.3144687,33.4397213 46.221014,31.9288126 C47.1275592,30.4179038 48.0341045,28.6048133 47.7319227,26.1873593 Z M22.9530192,4.43027333 C23.255201,4.43027333 23.255201,4.43027333 23.5573828,4.43027333 C24.463928,4.43027333 25.0682915,4.43027333 25.9748367,4.43027333 C26.2770185,4.43027333 26.2770185,4.43027333 26.5792003,4.43027333 C28.9966542,4.43027333 31.4141083,6.24336383 33.2271988,7.45209083 C33.8315623,8.05645433 34.4359258,8.35863608 35.0402893,8.96299958 C35.342471,9.26518133 35.6446528,9.56736308 35.9468345,9.86954483 C35.9468345,9.86954483 36.2490163,10.1717266 36.2490163,10.1717266 C36.551198,10.4739083 36.8533798,10.4739083 36.8533798,10.7760901 C36.8533798,10.7760901 36.8533798,11.0782718 36.8533798,11.3804536 C36.8533798,11.3804536 36.8533798,11.3804536 36.8533798,11.3804536 C36.8533798,11.3804536 36.8533798,11.6826353 36.8533798,11.9848171 C36.8533798,12.2869988 36.8533798,12.2869988 36.8533798,12.5891806 C36.8533798,13.1935441 36.8533798,13.4957258 36.8533798,14.1000893 C36.2490163,15.9131798 34.7381075,16.5175433 33.5293805,16.5175433 C33.2271988,16.5175433 33.2271988,16.5175433 32.925017,16.5175433 C33.5293805,16.5175433 34.133744,16.2153616 34.4359258,16.2153616 C36.551198,15.3088163 37.1555615,13.1935441 35.6446528,11.0782718 C35.342471,11.0782718 35.0402892,11.0782718 35.0402892,11.3804536 C35.0402892,12.5891806 34.133744,13.1935441 33.2271987,13.4957258 C32.0184717,14.1000893 30.8097448,13.7979076 29.298836,13.1935441 C28.090109,12.8913623 26.5792003,12.5891806 25.3704733,11.9848171 C24.7661098,11.6826353 23.8595645,11.0782718 23.255201,10.7760901 C22.3486558,10.1717266 21.1399287,9.86954483 20.5355653,8.96299958 C20.5355653,8.96299958 20.5355653,9.86954483 20.5355653,10.1717266 C20.837747,10.7760901 21.1399288,11.0782718 21.4421105,11.3804536 C20.2333835,11.3804536 17.8159295,9.86954483 17.5137478,8.96299958 C17.211566,8.05645433 17.5137478,6.54554558 18.420293,5.94118208 C19.0246565,5.63900033 19.62902,5.63900033 20.2333835,5.63900033 C21.1399287,5.33681858 22.046474,5.03463683 22.9530192,4.43027333 Z M6.03084125,32.2309943 C6.03084125,32.5331761 6.03084125,32.8353578 6.03084125,32.8353578 C6.03084125,33.7419031 6.03084125,34.6484483 5.42647775,34.9506301 C4.5199325,33.7419031 5.124296,31.9288126 5.42647775,30.7200856 C5.7286595,28.9069951 5.7286595,27.3960863 5.7286595,25.5829958 C5.7286595,25.5829958 6.63520475,26.4895411 6.63520475,26.4895411 C6.9373865,27.0939046 6.9373865,27.3960863 6.9373865,28.0004498 C6.9373865,29.8135403 6.333023,31.0222673 6.03084125,32.2309943 Z M13.8875667,32.2309943 C12.6788398,34.0440848 12.376658,36.1593571 11.7722945,38.2746293 C11.4701127,39.1811746 11.167931,39.7855381 10.8657492,40.3899016 C10.5635675,40.6920833 10.5635675,40.6920833 10.2613857,40.9942651 C9.65702225,40.9942651 9.65702225,40.9942651 9.65702225,39.7855381 C10.5635675,36.7637206 11.7722945,34.0440848 12.6788397,31.0222673 C12.6788397,30.7200856 12.9810215,30.4179038 13.2832032,30.1157221 C13.585385,30.1157221 13.585385,30.4179038 13.8875667,30.4179038 C14.4919302,31.0222673 14.1897485,31.6266308 13.8875667,32.2309943 Z M24.463928,35.2528118 C23.5573828,36.1593571 22.9530192,37.0659023 22.6508375,38.2746293 C22.046474,40.6920833 20.5355652,43.1095373 19.3268382,45.2248096 C19.0246565,45.8291731 18.420293,46.7357183 17.8159295,45.8291731 C17.211566,44.6204461 18.7224747,44.0160826 19.3268382,43.4117191 C20.2333835,42.5051738 20.837747,40.6920833 21.4421105,39.1811746 C22.046474,37.9724476 22.3486557,36.7637206 22.3486557,35.2528118 C22.3486557,34.9506301 22.3486557,34.3462666 22.9530192,34.0440848 C23.8595645,34.3462666 24.463928,34.0440848 24.463928,35.2528118 C24.7661098,34.9506301 24.463928,35.2528118 24.463928,35.2528118 Z M31.71629,38.2746293 C30.2053812,39.7855381 29.298836,42.2029921 28.090109,44.0160826 C27.4857455,44.9226278 26.881382,47.0379001 25.672655,47.0379001 C23.8595645,47.0379001 25.672655,45.8291731 25.9748367,45.5269913 C26.881382,44.0160826 27.7879273,39.7855381 28.9966542,38.5768111 C29.9031995,37.6702658 31.4141082,37.0659023 32.925017,36.7637206 C32.925017,36.7637206 32.0184717,37.9724476 31.71629,38.2746293 Z M36.2748484,17.4182718 C36.1740774,17.5419019 36.0656464,17.6470624 35.9468345,17.7262703 C34.133744,18.9349973 32.3206535,18.6328156 30.507563,17.7262703 C27.4857455,16.2153616 24.1617463,15.3088163 21.1399288,13.4957258 C20.837747,13.1935441 18.420293,12.2869988 19.3268383,13.4957258 C20.2333835,14.4022711 21.1399288,14.7044528 21.4421105,15.0066346 C22.3486558,15.6109981 23.255201,16.2153616 24.463928,16.8197251 C26.881382,18.0284521 28.9966543,20.1437243 31.4141083,20.7480878 C33.8315622,21.6546331 36.8533797,21.6546331 38.0621068,18.9349973 C38.3642885,18.3306338 38.3642885,17.4240886 38.6664703,16.5175433 C38.6664703,16.2153616 38.6664703,15.9131798 38.6664703,15.6109981 C38.6664703,15.0420928 38.6664703,14.7409513 38.1623625,14.7075734 C38.2779657,14.1360598 38.0621067,13.448943 38.0621067,13.1935441 C38.3642885,13.4957258 38.968652,14.1000893 39.2708337,14.7044528 C39.5730155,15.0066346 39.8751972,15.3088163 39.8751972,15.6109981 C40.177379,15.9131798 40.4795607,16.2153616 40.4795607,16.5175433 C40.7817425,16.8197251 41.0839242,17.1219068 41.0839242,17.1219068 C42.2926512,18.6328156 43.1991965,20.1437243 43.80356,21.3524513 C45.012287,23.1655418 45.6166505,25.2808141 45.6166505,27.0939046 C45.9188323,28.0004498 45.3144687,29.5113586 44.4079235,31.0222673 C43.5013783,32.8353578 41.9904695,33.7419031 40.4795608,34.3462666 C36.551198,35.8571753 32.6228353,34.0440848 28.9966543,33.1375396 C26.5792003,32.5331761 24.1617463,32.5331761 21.7442923,31.6266308 L21.1399288,31.3244491 C19.9312018,30.7200856 18.7224748,30.4179038 17.5137478,29.8135403 L17.211566,29.8135403 C16.3050208,29.5113586 15.3984755,29.2091768 14.4919303,28.6048133 L13.585385,28.0004498 C12.6788398,27.3960863 12.0744763,26.7917228 11.167931,26.1873593 C9.05265875,24.6764506 6.9373865,22.8633601 5.124296,20.7480878 C4.82211425,20.4459061 4.5199325,20.4459061 4.5199325,20.1437243 C4.21775075,20.1437243 4.21775075,19.8415426 4.21775075,19.8415426 C3.61338725,19.2371791 2.706842,16.8197251 2.706842,15.9131798 C3.00902375,13.4957258 3.915569,11.3804536 6.03084125,9.56736308 C7.54175,8.05645433 9.3548405,6.84772733 11.7722945,5.63900033 C12.0744763,5.63900033 12.376658,5.33681858 12.6788398,5.33681858 C12.9810215,5.33681858 13.2832033,5.03463683 13.585385,5.03463683 C15.3984755,4.43027333 17.5137477,3.82590983 19.3268382,4.12809158 C19.3268382,4.12809158 19.0246565,4.43027333 19.0246565,4.43027333 C18.7224747,4.73245508 18.7224747,4.73245508 18.420293,5.03463683 C18.1181112,5.33681858 18.1181112,5.33681858 17.8159295,5.63900033 C16.9093842,6.24336383 16.6072025,6.84772733 16.3050207,7.75427258 C16.3050207,8.66081783 16.3050207,9.26518133 16.9093842,10.1717266 C17.211566,10.4739083 18.420293,11.6826353 19.9312017,12.5891806 C21.7442922,13.4957258 23.8595645,14.4022711 25.672655,15.0066346 C27.4857455,15.6109981 29.6010177,16.5175433 31.4141082,17.4240886 C32.0184717,17.7262703 32.925017,18.0284521 33.8315622,18.0284521 C34.7317775,18.0284521 35.5772623,17.8095306 36.2748484,17.4182718 Z M44.4079235,25.5829958 C44.4079235,25.2808141 44.1057418,24.3742688 43.5013783,24.3742688 C42.8970148,24.3742688 42.8970148,25.5829958 42.594833,25.8851776 C41.9904695,26.7917228 41.0839243,26.7917228 40.177379,27.3960863 C39.2708338,28.0004498 38.6664703,28.9069951 37.759925,29.5113586 C33.8315623,31.9288126 28.9966543,30.1157221 25.0682915,28.9069951 C20.2333835,27.6982681 15.3984755,26.4895411 11.167931,23.7699053 C10.5635675,23.4677236 9.3548405,22.8633601 9.05265875,21.9568148 C9.05265875,22.5611783 9.05265875,22.8633601 9.3548405,23.1655418 C9.65702225,23.4677236 9.959204,24.0720871 10.5635675,24.3742688 C12.376658,25.8851776 14.4919303,27.3960863 16.9093843,28.3026316 C18.1181113,28.9069951 19.3268383,30.1157221 20.5355653,30.4179038 C25.3704733,31.9288126 29.9031995,33.4397213 34.7381075,34.0440848 C39.2708338,34.6484483 45.3144688,30.7200856 44.4079235,25.5829958 Z"></path>
    </g>
</svg>
