<?xml version="1.0" encoding="UTF-8"?>
<svg width="129px" height="38px" viewBox="0 0 129 38" version="1.1" xmlns="http://www.w3.org/2000/svg" xmlns:xlink="http://www.w3.org/1999/xlink">
    <!-- Generator: Sketch 49.3 (51167) - http://www.bohemiancoding.com/sketch -->
    <title>Artboard Copy 2</title>
    <desc>Created with Sketch.</desc>
    <defs></defs>
    <g id="Page-1" stroke="none" stroke-width="1" fill="none" fill-rule="evenodd">
        <g id="Artboard-Copy" fill="#FFFFFF" fill-rule="nonzero">
            <g id="skyeng">
                <path d="M2.5,23.9 C2.5,23.9 4.7,26.9 8.6,26.9 C10.8,26.9 12.8,25.8 12.8,23.7 C12.8,19.3 1.6,20.1 1.6,13.7 C1.6,10.1 4.7,8.3 8.7,8.3 C10.7,8.3 14.8,9.1 14.8,11.9 L14.8,13.6 L12.3,13.6 L12.3,12.6 C12.3,11.1 10.2,10.6 8.8,10.6 C6,10.6 4.4,11.6 4.4,13.5 C4.4,18 15.6,17 15.6,23.6 C15.6,26.9 12.6,29.2 8.6,29.2 C3.4,29.2 0.9,25.7 0.9,25.7 L2.5,23.9 Z" id="Shape"></path>
                <path d="M20.6,4.1 C20.6,3.5 20.3,3.2 19.7,3.2 L18,3.2 L18,0.9 L20.8,0.9 C22.5,0.9 23.2,1.5 23.2,3.2 L23.2,16.4 L25.3,16.4 C26.1,16.4 27,16.2 27.6,15.4 L32.7,8.7 L36,8.7 L30.2,16 C29.2,17.2 28.7,17.4 28.7,17.4 L28.7,17.5 C28.7,17.5 29.3,17.8 29.9,19 L33.5,25.5 C33.9,26.2 34.3,26.4 35.3,26.4 L36.4,26.4 L36.4,28.7 L34.5,28.7 C32.5,28.7 32,28.4 31,26.7 L27,19.6 C26.6,18.8 25.6,18.7 24.9,18.7 L23.1,18.7 L23.1,28.7 L20.4,28.7 L20.6,4.1 Z" id="Shape"></path>
                <path d="M41.2,34.7 C42.9,34.7 44.1,33.3 44.9,31.4 L46.1,28.7 L39.1,12.1 C38.8,11.4 38.4,11.2 37.7,11.2 L37.3,11.2 L37.3,8.9 L38.5,8.9 C40.3,8.9 40.8,9.3 41.6,11.1 L46.7,23.6 C47.1,24.6 47.4,25.7 47.4,25.7 L47.5,25.7 C47.5,25.7 47.8,24.5 48.2,23.6 L53,11 C53.7,9.2 54.3,8.8 56.1,8.8 L57.3,8.8 L57.3,11.1 L57,11.1 C56.3,11.1 55.9,11.3 55.6,12 L47,32.9 C46,35.4 43.9,37.1 41.3,37.1 C38.5,37.1 37,35.2 37,35.2 L38.3,33.2 C38.2,33.2 39.5,34.7 41.2,34.7 Z" id="Shape"></path>
                <path d="M69.5,8.1 C75.3,8.1 78.5,12.3 78.5,17.7 C78.5,18.3 78.4,19.6 78.4,19.6 L64.4,19.6 C64.8,23.2 67.4,25 70.5,25 C73.8,25 76.2,22.7 76.2,22.7 L78.3,26.2 C78.3,26.2 75.2,29.3 70.2,29.3 C63.5,29.3 59.3,24.5 59.3,18.7 C59.2,12.4 63.5,8.1 69.5,8.1 Z M73.3,16 C73.2,13.6 71.6,11.9 69.5,11.9 C66.9,11.9 65.1,13.4 64.5,16 L73.3,16 Z" id="Shape"></path>
                <path d="M83.4,13.7 C83.4,13.1 83.1,12.8 82.5,12.8 L80.9,12.8 L80.9,8.5 L85.5,8.5 C87.3,8.5 88.2,9.3 88.2,10.8 L88.2,11.4 C88.2,11.8 88.1,12.3 88.1,12.3 L88.2,12.3 C89.1,10.6 91.3,8.1 95.3,8.1 C99.8,8.1 102.4,10.4 102.4,15.8 L102.4,23.7 C102.4,24.3 102.7,24.6 103.3,24.6 L104.9,24.6 L104.9,28.8 L100.1,28.8 C98.2,28.8 97.4,28 97.4,26.1 L97.4,16.8 C97.4,14.3 96.8,12.7 94.2,12.7 C91.5,12.7 89.5,14.4 88.8,16.8 C88.5,17.6 88.4,18.5 88.4,19.5 L88.4,28.8 L83.4,28.8 L83.4,13.7 Z" id="Shape"></path>
                <path d="M115.8,8.1 C120.5,8.1 122,11 122,11 L122.1,11 C122.1,11 122.1,10.8 122.1,10.5 C122.1,9.6 122.7,8.6 124.3,8.6 L129,8.6 L129,12.9 L127.5,12.9 C127,12.9 126.6,13.2 126.6,13.7 L126.6,27.6 C126.6,34.5 121.2,37.2 115.9,37.2 C113.4,37.2 110.7,36.5 108.7,35.5 L110.2,31.5 C110.2,31.5 112.7,32.8 115.8,32.8 C118.9,32.8 121.5,31.5 121.5,27.8 L121.5,26.8 C121.5,26.3 121.5,25.7 121.5,25.7 L121.4,25.7 C120.2,27.4 118.5,28.3 115.8,28.3 C110,28.3 106.7,23.6 106.7,18.1 C106.8,12.6 110,8.1 115.8,8.1 Z M121.7,18.2 C121.7,13.6 119.4,12.4 116.7,12.4 C113.6,12.4 112,14.6 112,18 C112,21.5 113.8,24.1 117,24.1 C119.4,24.1 121.7,22.7 121.7,18.2 Z" id="Shape"></path>
            </g>
        </g>
    </g>
</svg>