<?xml version="1.0" encoding="UTF-8"?>
<svg width="141px" height="30px" viewBox="0 0 141 30" version="1.1" xmlns="http://www.w3.org/2000/svg" xmlns:xlink="http://www.w3.org/1999/xlink">
    <g id="Page-1" stroke="none" stroke-width="1" fill="none" fill-rule="evenodd">
        <g id="Artboard" fill="#FFFFFF" fill-rule="nonzero">
            <g id="logo-yandex">
                <path d="M9.9,2.4 L8.5,2.4 C7.9,2.4 7.4,2.5 6.9,2.7 C6.4,2.9 5.9,3.2 5.5,3.7 C5.1,4.1 4.8,4.7 4.5,5.5 C4.2,6.2 4.1,7.1 4.1,8.2 C4.1,9.2 4.2,10.1 4.4,10.8 C4.6,11.5 4.9,12.1 5.3,12.5 C5.7,12.9 6.2,13.2 6.7,13.4 C7.2,13.6 7.8,13.7 8.4,13.7 L9.9,13.7 L9.9,2.4 Z M7.6,16 L3.2,26 L0,26 L4.8,15.3 C3.7,14.7 2.7,13.9 2.1,12.7 C1.4,11.6 1.1,10 1.1,8.1 C1.1,6.7 1.3,5.5 1.7,4.5 C2,3.6 2.6,2.7 3.3,2 C4,1.4 4.8,0.8 5.7,0.5 C6.6,0.2 7.6,0 8.6,0 L12.8,0 L12.8,26 L9.9,26 L9.9,16 L7.6,16 Z" id="Fill-1"></path>
                <path d="M73.1,26.3 C71.1,26.3 69.6,25.5 68.5,24 C67.4,22.4 66.8,20.1 66.8,16.9 C66.8,15.5 66.9,14.2 67.2,13 C67.5,11.8 67.9,10.8 68.4,10 C68.9,9.2 69.6,8.6 70.4,8.1 C71.2,7.7 72.1,7.4 73.2,7.4 C74,7.4 74.7,7.5 75.2,7.7 C75.7,7.9 76.2,8.1 76.6,8.4 L76.2,11.1 C75.8,10.8 75.4,10.5 74.8,10.2 C74.3,9.9 73.7,9.8 73.2,9.8 C72.2,9.8 71.4,10.4 70.7,11.5 C70,12.6 69.7,14.4 69.7,16.7 C69.7,19 70,20.8 70.5,22 C71,23.2 71.9,23.9 73.1,23.9 C73.8,23.9 74.4,23.8 74.9,23.6 C75.4,23.4 75.8,23.1 76.2,22.8 L76.9,24.9 C76.4,25.3 75.9,25.6 75.3,25.9 C74.7,26.1 74,26.3 73.1,26.3 Z M58.6,16.9 L58.6,26 L55.8,26 L55.8,7.7 L58.6,7.7 L58.6,16.2 L63,7.7 L65.9,7.7 L61.4,16.3 L66.6,26 L63.5,26 L58.6,16.9 Z M47.9,9.7 C47,9.7 46.4,10.2 46.1,11.2 C45.7,12.2 45.5,13.5 45.4,15.1 L50,15.1 C50,14.3 50,13.6 49.9,12.9 C49.8,12.2 49.7,11.7 49.6,11.2 C49.4,10.7 49.2,10.3 48.9,10.1 C48.6,9.9 48.3,9.7 47.9,9.7 Z M52.9,24.8 C52.3,25.3 51.7,25.6 50.9,25.9 C50.2,26.2 49.3,26.3 48.4,26.3 C46.5,26.3 45,25.6 44,24.1 C42.9,22.6 42.4,20.5 42.4,17.6 C42.4,16.1 42.5,14.8 42.7,13.5 C42.9,12.3 43.2,11.2 43.7,10.3 C44.1,9.4 44.7,8.7 45.4,8.2 C46.1,7.7 46.9,7.4 47.9,7.4 C48.6,7.4 49.3,7.6 50,7.9 C50.6,8.2 51.2,8.7 51.6,9.4 C52,10.1 52.4,11 52.6,12 C52.8,13.1 53,14.4 53,15.9 L53,17.5 L45.4,17.5 C45.4,19.6 45.7,21.2 46.3,22.2 C46.9,23.3 47.7,23.8 48.9,23.8 C49.7,23.8 50.4,23.7 51,23.4 C51.6,23.1 52.1,22.8 52.5,22.6 L52.9,24.8 Z M36.4,10 L33.3,10 L33.3,10.3 C33.3,11.3 33.3,12.3 33.2,13.5 C33.2,14.7 33.1,15.8 33,17 C32.9,18.2 32.7,19.4 32.5,20.5 C32.3,21.7 32,22.7 31.6,23.7 L36.4,23.7 L36.4,10 Z M40.7,29.6 L38.2,29.6 L38.2,26 L30.4,26 L30.4,29.6 L27.9,29.6 L27.9,23.7 L29,23.7 C29.4,22.7 29.7,21.7 30,20.5 C30.2,19.3 30.4,18.1 30.6,16.9 C30.7,15.7 30.8,14.4 30.9,13.1 C30.9,11.8 31,10.5 31,9.3 L31,7.7 L39.5,7.7 L39.5,23.7 L40.9,23.7 L40.9,29.6 L40.7,29.6 Z M26.2,7.7 L26.2,26 L23.4,26 L23.4,17.8 L19.2,17.8 L19.2,26 L16.4,26 L16.4,7.7 L19.2,7.7 L19.2,15.5 L23.4,15.5 L23.4,7.7 L26.2,7.7 Z" id="Fill-3"></path>
                <polygon id="Fill-6" points="89.5 1.5 89.5 26 87.7 26 87.7 1.5 82.6 1.5 82.6 0 94.6 0 94.6 1.5"></polygon>
                <path d="M98.2,25 C99,25 99.8,24.6 100.4,23.9 C101,23.2 101.5,22.3 101.8,21.4 L101.8,16.3 L99.8,16.3 C98.3,16.3 97.2,16.7 96.4,17.4 C95.6,18.1 95.3,19.3 95.3,20.9 C95.3,22.2 95.6,23.2 96.1,23.9 C96.7,24.6 97.4,25 98.2,25 Z M102.3,26 C102.2,25.8 102.1,25.4 102.1,25.1 C102,24.7 101.9,24.2 101.9,23.6 C101.5,24.5 100.9,25.2 100.3,25.7 C99.6,26.2 98.9,26.5 97.9,26.5 C96.7,26.5 95.7,26 94.9,25.1 C94.1,24.2 93.7,22.9 93.7,21.2 C93.7,19.2 94.2,17.8 95.3,16.7 C96.3,15.7 97.8,15.2 99.8,15.2 L101.8,15.2 L101.8,12.9 C101.8,11.5 101.5,10.5 101,9.8 C100.5,9.2 99.7,8.9 98.7,8.9 C97.9,8.9 97.2,9.1 96.5,9.4 C95.8,9.8 95.3,10.2 94.8,10.9 L94.3,9.3 C94.7,8.8 95.2,8.4 95.9,8 C96.6,7.6 97.5,7.4 98.6,7.4 C100.1,7.4 101.3,7.8 102.1,8.7 C102.9,9.6 103.3,10.9 103.3,12.7 L103.3,22.7 C103.3,23.3 103.3,24 103.4,24.6 C103.5,25.2 103.6,25.7 103.7,26.1 L102.3,26.1 L102.3,26 Z" id="Fill-8"></path>
                <polygon id="Fill-10" points="109 26 107.3 26 107.3 7.7 109 7.7 109 16.3 115.2 7.7 116.8 7.7 110.8 16.2 117.3 26 115.4 26 109 16.5"></polygon>
                <path d="M124.1,24.9 C124.7,24.9 125.2,24.8 125.6,24.6 C126,24.4 126.4,24.2 126.7,23.9 C127.1,23.6 127.4,23.3 127.6,22.9 L128.1,24.3 C127.8,24.7 127.5,25 127.1,25.3 C126.8,25.6 126.3,25.8 125.8,26 C125.3,26.2 124.6,26.3 123.9,26.3 C122.1,26.3 120.6,25.5 119.6,23.8 C118.6,22.1 118.1,19.8 118.1,16.8 C118.1,13.8 118.6,11.4 119.6,9.7 C120.6,8 122,7.2 123.9,7.2 C124.8,7.2 125.6,7.4 126.3,7.7 C127,8 127.5,8.4 127.9,8.9 L127.4,10.7 C127,10.1 126.5,9.7 125.9,9.2 C125.3,8.8 124.6,8.6 123.9,8.6 C122.5,8.6 121.5,9.3 120.8,10.7 C120.1,12.1 119.8,14.1 119.8,16.7 C119.8,19.2 120.1,21.2 120.8,22.6 C121.6,24.2 122.6,24.9 124.1,24.9" id="Fill-12"></path>
                <path d="M139.3,13.2 C139.3,12.7 139.3,12.3 139.3,11.9 C139.3,11.5 139.4,11.1 139.4,10.7 L139.3,10.7 C139.2,11.1 139,11.5 138.9,11.9 C138.7,12.3 138.6,12.7 138.4,13.1 L132.5,26 L131,26 L131,7.7 L132.6,7.7 L132.6,20.4 C132.6,20.9 132.6,21.3 132.6,21.7 C132.6,22.1 132.5,22.5 132.5,22.9 L132.6,22.9 C132.7,22.5 132.9,22.1 133,21.7 C133.2,21.3 133.3,20.9 133.5,20.5 L139.4,7.6 L140.9,7.6 L140.9,26 L139.3,26 L139.3,13.2 Z" id="Fill-14"></path>
            </g>
        </g>
    </g>
</svg>
