<svg width="15" height="15" viewBox="0 0 15 15" fill="none" xmlns="http://www.w3.org/2000/svg">
    <rect width="15" height="14.9999" fill="black" fill-opacity="0"/>
    <rect width="15" height="14.9999" fill="black" fill-opacity="0"/>
    <rect width="15" height="14.9999" fill="black" fill-opacity="0"/>
    <rect width="15" height="14.9999" fill="black" fill-opacity="0"/>
    <path d="M5.83693 9.1532C5.69572 9.28446 5.49802 9.35008 5.24384 9.35008C5.1246 9.35008 5.01475 9.33447 4.91434 9.29697C4.81705 9.2626 4.73232 9.21259 4.6633 9.1501C4.59426 9.08761 4.54092 9.00947 4.50326 8.92196C4.46561 8.83134 4.44678 8.73445 4.44678 8.62819H3.63086C3.63086 8.85319 3.67478 9.05007 3.76266 9.22196C3.85053 9.39385 3.96662 9.53759 4.11413 9.65009C4.26161 9.76573 4.43107 9.8501 4.62565 9.90946C4.8202 9.97195 5.02104 10.0001 5.23442 10.0001C5.46663 10.0001 5.68316 9.96882 5.884 9.90633C6.08485 9.84384 6.25742 9.75008 6.40493 9.62821C6.55241 9.50633 6.66538 9.35632 6.75011 9.17819C6.83169 9.00006 6.87564 8.79694 6.87564 8.5688C6.87564 8.44692 6.85996 8.33129 6.83172 8.21878C6.80033 8.10628 6.75326 8.00002 6.69051 7.90003C6.62461 7.80003 6.53988 7.71252 6.43632 7.63128C6.33277 7.55314 6.20412 7.48751 6.05661 7.4344C6.18214 7.37815 6.29196 7.30939 6.3861 7.22814C6.48025 7.1469 6.55871 7.05939 6.62146 6.96877C6.68421 6.87502 6.73128 6.78127 6.76267 6.68127C6.79406 6.58128 6.80974 6.48126 6.80974 6.3844C6.80974 6.15626 6.77209 5.95627 6.69677 5.78439C6.62146 5.6125 6.51476 5.46876 6.37669 5.35312C6.23862 5.23749 6.07544 5.15 5.88088 5.09062C5.68004 5.02813 5.46666 5 5.23445 5C5.00851 5 4.79825 5.03437 4.60685 5.09999C4.41545 5.16562 4.25226 5.25937 4.11416 5.37812C3.9761 5.49686 3.86939 5.63749 3.79093 5.8C3.71247 5.96251 3.67481 6.14064 3.67481 6.33125H4.4907C4.4907 6.22499 4.50953 6.13124 4.54719 6.05C4.58484 5.96562 4.63818 5.89375 4.70408 5.8375C4.76998 5.77812 4.85156 5.73124 4.94258 5.70001C5.03358 5.66875 5.13401 5.65 5.24069 5.65C5.49172 5.65 5.67689 5.71562 5.79928 5.84374C5.92166 5.97186 5.98129 6.15313 5.98129 6.38437C5.98129 6.49687 5.96561 6.59687 5.93107 6.68751C5.89657 6.77813 5.84635 6.85627 5.7773 6.9219C5.70825 6.98752 5.62041 7.03753 5.51997 7.07503C5.41641 7.11253 5.29403 7.13129 5.15596 7.13129H4.67269V7.77194H5.15596C5.29403 7.77194 5.41956 7.78755 5.52938 7.81881C5.6392 7.85007 5.73335 7.89695 5.81181 7.96568C5.89027 8.03131 5.94987 8.11569 5.99383 8.21568C6.03463 8.31567 6.05658 8.43444 6.05658 8.57194C6.05658 8.82507 5.98441 9.01881 5.83693 9.1532Z" fill="#4F4F4F"/>
    <path d="M4.68513 13.4283C2.63598 12.4595 1.16421 10.4751 0.941421 8.125H0C0.320083 11.9751 3.55228 15.0002 7.49998 15.0002C7.64119 15.0002 7.77614 14.9877 7.9142 14.9783L5.52299 12.5939L4.68513 13.4283Z" fill="#4F4F4F"/>
    <path d="M7.50016 0C7.35895 0 7.224 0.0125101 7.08594 0.0218853L9.47715 2.40633L10.3119 1.57507C12.3642 2.54072 13.8359 4.52514 14.0587 6.87521H15.0001C14.6801 3.02507 11.4479 0 7.50016 0Z" fill="#4F4F4F"/>
    <path d="M10.6161 5.64689C10.4184 5.44064 10.1799 5.28126 9.90377 5.16875C9.62449 5.05625 9.32009 5 8.98433 5H7.5V10.0001H8.94037C9.2887 10.0001 9.60252 9.94389 9.88806 9.83138C10.1736 9.71888 10.4153 9.5595 10.6161 9.35325C10.817 9.14699 10.9738 8.89699 11.0805 8.60636C11.1904 8.31573 11.2437 7.9876 11.2437 7.6251V7.37821C11.2437 7.01571 11.1873 6.69068 11.0774 6.39694C10.9676 6.10314 10.8138 5.85315 10.6161 5.64689ZM10.3713 7.62817H10.3682C10.3682 7.88754 10.3399 8.12506 10.2772 8.33131C10.2176 8.5407 10.1297 8.7157 10.0104 8.85946C9.89118 9.00323 9.7437 9.11259 9.56483 9.19073C9.38596 9.26573 9.17885 9.30637 8.94035 9.30637H8.37234V5.70001H8.98427C9.43615 5.70001 9.77821 5.84377 10.0167 6.12813C10.252 6.41563 10.3713 6.82814 10.3713 7.37191V7.62817H10.3713Z" fill="#4F4F4F"/>
</svg>
