<svg width="18" height="12" viewBox="0 0 18 12" fill="none" xmlns="http://www.w3.org/2000/svg">
    <path d="M12 5.25C13.245 5.25 14.2425 4.245 14.2425 3C14.2425 1.755 13.245 0.75 12 0.75C10.755 0.75 9.75 1.755 9.75 3C9.75 4.245 10.755 5.25 12 5.25ZM6 5.25C7.245 5.25 8.2425 4.245 8.2425 3C8.2425 1.755 7.245 0.75 6 0.75C4.755 0.75 3.75 1.755 3.75 3C3.75 4.245 4.755 5.25 6 5.25ZM6 6.75C4.2525 6.75 0.75 7.6275 0.75 9.375V11.25H11.25V9.375C11.25 7.6275 7.7475 6.75 6 6.75ZM12 6.75C11.7825 6.75 11.535 6.765 11.2725 6.7875C12.1425 7.4175 12.75 8.265 12.75 9.375V11.25H17.25V9.375C17.25 7.6275 13.7475 6.75 12 6.75Z" fill="#fff"/>
</svg>
