<svg width="18" height="14" viewBox="0 0 18 14" fill="none" xmlns="http://www.w3.org/2000/svg">
    <path d="M15.75 4V3.25L13.5 4.75L11.25 3.25V4L13.5 5.5L15.75 4ZM16.5 0.25H1.5C0.675 0.25 0 0.925 0 1.75V12.25C0 13.075 0.675 13.75 1.5 13.75H16.5C17.325 13.75 17.9925 13.075 17.9925 12.25L18 1.75C18 0.925 17.325 0.25 16.5 0.25ZM6 2.5C7.245 2.5 8.25 3.505 8.25 4.75C8.25 5.995 7.245 7 6 7C4.755 7 3.75 5.995 3.75 4.75C3.75 3.505 4.755 2.5 6 2.5ZM10.5 11.5H1.5V10.75C1.5 9.25 4.5 8.425 6 8.425C7.5 8.425 10.5 9.25 10.5 10.75V11.5ZM16.5 7H10.5V2.5H16.5V7Z" fill="#fff"/>
</svg>
