<svg width="20" height="17" viewBox="0 0 20 17" fill="none" xmlns="http://www.w3.org/2000/svg">
    <path d="M18 2.9008H10L8 0.962891H2C0.9 0.962891 0.00999999 1.83495 0.00999999 2.9008L0 14.5283C0 15.5941 0.9 16.4662 2 16.4662H18C19.1 16.4662 20 15.5941 20 14.5283V4.83871C20 3.77286 19.1 2.9008 18 2.9008ZM13 5.80766C14.1 5.80766 15 6.67972 15 7.74557C15 8.81142 14.1 9.68348 13 9.68348C11.9 9.68348 11 8.81142 11 7.74557C11 6.67972 11.9 5.80766 13 5.80766ZM17 13.5593H9V12.5903C9 11.3016 11.67 10.6524 13 10.6524C14.33 10.6524 17 11.3016 17 12.5903V13.5593Z" fill="white"/>
</svg>
