<svg width="17" height="20" viewBox="0 0 17 20" fill="none" xmlns="http://www.w3.org/2000/svg">
    <path d="M8.5 0.0644531C3.81 0.0644531 0 3.75617 0 8.30057C0 12.845 3.81 16.5367 8.5 16.5367H9V19.4436C13.86 17.1762 17 12.6609 17 8.30057C17 3.75617 13.19 0.0644531 8.5 0.0644531ZM9.5 14.1143H7.5V12.1764H9.5V14.1143ZM9.5 10.723H7.5C7.5 7.57385 10.5 7.81609 10.5 5.87818C10.5 4.81233 9.6 3.94027 8.5 3.94027C7.4 3.94027 6.5 4.81233 6.5 5.87818H4.5C4.5 3.73679 6.29 2.00236 8.5 2.00236C10.71 2.00236 12.5 3.73679 12.5 5.87818C12.5 8.30057 9.5 8.54281 9.5 10.723Z" fill="white"/>
</svg>
