<svg width="18" height="18" viewBox="0 0 18 18" fill="none" xmlns="http://www.w3.org/2000/svg">
    <path d="M12.615 11H11.8215L11.5402 10.73C12.5246 9.59 13.1173 8.11 13.1173 6.5C13.1173 2.91 10.1941 0 6.58794 0C2.98173 0 0.0585938 2.91 0.0585938 6.5C0.0585938 10.09 2.98173 13 6.58794 13C8.20521 13 9.69189 12.41 10.837 11.43L11.1083 11.71V12.5L16.1308 17.49L17.6276 16L12.615 11ZM6.58794 11C4.0867 11 2.06762 8.99 2.06762 6.5C2.06762 4.01 4.0867 2 6.58794 2C9.08918 2 11.1083 4.01 11.1083 6.5C11.1083 8.99 9.08918 11 6.58794 11Z" fill="#6A7FEC"/>
</svg>
