<svg width="8" height="8" viewBox="0 0 8 8" fill="none" xmlns="http://www.w3.org/2000/svg">
    <rect width="8" height="8.00046" fill="black" fill-opacity="0" transform="translate(0 0.000488281)"/>
    <path fill-rule="evenodd" clip-rule="evenodd" d="M5.71847 5.03197H5.35529L5.22905 4.90664C5.67501 4.38657 5.94625 3.71235 5.94625 2.97365C5.94625 1.33156 4.61521 0.000516891 2.97313 0.000516891C1.33105 0.000516891 0 1.33156 0 2.97365C0 4.61573 1.33105 5.94677 2.97313 5.94677C3.71184 5.94677 4.38559 5.67599 4.90566 5.23048L5.0319 5.35581V5.71807L7.31801 8.00098L8 7.31899L5.71847 5.03197ZM2.97238 5.03122C1.83527 5.03122 0.914062 4.11001 0.914062 2.9729C0.914062 1.83625 1.83527 0.914579 2.97238 0.914579C4.10903 0.914579 5.0307 1.83625 5.0307 2.9729C5.0307 4.11001 4.10903 5.03122 2.97238 5.03122Z" fill="#395DC4"/>
</svg>
