<?xml version="1.0" encoding="UTF-8"?>
<svg width="37px" height="32px" viewBox="0 0 37 32" version="1.1" xmlns="http://www.w3.org/2000/svg" xmlns:xlink="http://www.w3.org/1999/xlink">
    <g id="States" stroke="none" stroke-width="1" fill="none" fill-rule="evenodd">
        <g id="Artboard-4-Copy" fill="#CACED1" fill-rule="nonzero">
            <g id="icon_2">
                <path d="M8.58575361,2 L0.414246394,2 C0.185416686,2 0,2.18511833 0,2.4133951 L0,31.5866049 C0,31.8148817 0.185416686,32 0.414246394,32 L8.58575361,32 C8.81458331,32 9,31.8148817 9,31.5866049 L9,2.4133951 C9,2.18503565 8.81458331,2 8.58575361,2 Z M8.17150721,2.82679021 L8.17150721,5.59951385 L0.828492788,5.59951385 L0.828492788,2.82679021 L8.17150721,2.82679021 Z M8.17150721,6.42630405 L8.17150721,18.5801201 L0.828492788,18.5801201 L0.828492788,6.42630405 L8.17150721,6.42630405 Z M0.828492788,31.1732098 L0.828492788,19.4069103 L8.17150721,19.4069103 L8.17150721,31.1732098 L0.828492788,31.1732098 Z" id="Shape"></path>
                <path d="M8,26 C8,24.3457647 6.65423529,23 5,23 C3.34576471,23 2,24.3457647 2,26 C2,27.6542353 3.34576471,29 5,29 C6.65423529,29 8,27.6542353 8,26 Z M2.88235294,26 C2.88235294,24.8322941 3.83238235,23.8823529 5,23.8823529 C6.16761765,23.8823529 7.11764706,24.8322941 7.11764706,26 C7.11764706,27.1677059 6.16761765,28.1176471 5,28.1176471 C3.83238235,28.1176471 2.88235294,27.1677059 2.88235294,26 Z" id="Shape"></path>
                <path d="M6,25.5 C6,24.6728684 5.32713158,24 4.5,24 C3.67286842,24 3,24.6728684 3,25.5 C3,26.3271316 3.67286842,27 4.5,27 C5.32713158,27 6,26.3271316 6,25.5 Z M3.78947368,25.5 C3.78947368,25.1081842 4.10818421,24.7894737 4.5,24.7894737 C4.89181579,24.7894737 5.21052632,25.1081842 5.21052632,25.5 C5.21052632,25.8918158 4.89181579,26.2105263 4.5,26.2105263 C4.10818421,26.2105263 3.78947368,25.8918158 3.78947368,25.5 Z" id="Shape"></path>
                <path d="M7.58333333,11 C7.8135,11 8,11.2239 8,11.5 C8,11.7761 7.8135,12 7.58333333,12 L2.41666667,12 C2.1865,12 2,11.7761 2,11.5 C2,11.2239 2.1865,11 2.41666667,11 C2.18658333,11 2,10.7761 2,10.5 C2,10.2239 2.1865,10 2.41666667,10 L7.58333333,10 C7.8135,10 8,10.2239 8,10.5 C8,10.7761 7.8135,11 7.58333333,11 Z M2.41666667,9 C2.18658333,9 2,8.7761 2,8.5 C2,8.2239 2.1865,8 2.41666667,8 L7.58333333,8 C7.8135,8 8,8.2239 8,8.5 C8,8.7761 7.8135,9 7.58333333,9 L2.41666667,9 Z" id="Combined-Shape"></path>
                <path d="M16,23 C14.3457647,23 13,24.3457647 13,26 C13,27.6542353 14.3457647,29 16,29 C17.6542353,29 19,27.6542353 19,26 C19,24.3457647 17.6542353,23 16,23 Z M16,28.1176471 C14.8323824,28.1176471 13.8823529,27.1677059 13.8823529,26 C13.8823529,24.8322941 14.8323824,23.8823529 16,23.8823529 C17.1676176,23.8823529 18.1176471,24.8322941 18.1176471,26 C18.1176471,27.1677059 17.1676176,28.1176471 16,28.1176471 Z" id="Shape"></path>
                <path d="M15.5,24 C14.6728684,24 14,24.6728684 14,25.5 C14,26.3271316 14.6728684,27 15.5,27 C16.3271316,27 17,26.3271316 17,25.5 C17,24.6728684 16.3270526,24 15.5,24 Z M15.5,26.2105263 C15.1081842,26.2105263 14.7894737,25.8918158 14.7894737,25.5 C14.7894737,25.1081842 15.1081842,24.7894737 15.5,24.7894737 C15.8918158,24.7894737 16.2105263,25.1081842 16.2105263,25.5 C16.2105263,25.8918158 15.8917368,26.2105263 15.5,26.2105263 Z" id="Shape"></path>
                <path d="M17.5833333,11 C17.8134167,11 18,11.2239 18,11.5 C18,11.7761 17.8135,12 17.5833333,12 L12.4166667,12 C12.1865,12 12,11.7761 12,11.5 C12,11.2239 12.1865,11 12.4166667,11 C12.1865,11 12,10.7761 12,10.5 C12,10.2239 12.1865,10 12.4166667,10 L17.5833333,10 C17.8135,10 18,10.2239 18,10.5 C18,10.7761 17.8135,11 17.5833333,11 Z M12.4166667,9 C12.1865,9 12,8.7761 12,8.5 C12,8.2239 12.1865,8 12.4166667,8 L17.5833333,8 C17.8135,8 18,8.2239 18,8.5 C18,8.7761 17.8135,9 17.5833333,9 L12.4166667,9 Z" id="Combined-Shape"></path>
                <path d="M36.9826005,29.1303463 L28.3007115,0.307122996 C28.2680731,0.198802092 28.1918874,0.107315991 28.088917,0.0529004658 C27.9860352,-0.001515059 27.8645283,-0.0146087947 27.7516245,0.0166801321 L19.6346095,2.26361618 L19.6346095,1.57398443 C19.6346095,1.33923246 19.4361187,1.14886314 19.1911537,1.14886314 L10.4434558,1.14886314 C10.1984908,1.14886314 10,1.33923246 10,1.57398443 L10,31.5747087 C10,31.8094606 10.1984908,31.99983 10.4434558,31.99983 L19.1911537,31.99983 C19.4361187,31.99983 19.6346095,31.8094606 19.6346095,31.5747087 L19.6346095,4.82947823 L27.7260814,31.6927223 C27.7821343,31.8789255 27.9594279,32 28.1519764,32 C28.1926856,32 28.2341044,31.9945584 28.2751684,31.9831652 L36.6795428,29.6566464 C36.7925353,29.6253575 36.8880557,29.5523217 36.9448181,29.4536085 C37.0015804,29.3549804 37.0152388,29.2386672 36.9826005,29.1303463 Z M18.7476979,1.99910572 L18.7476979,4.85047922 L10.8869116,4.85047922 L10.8869116,1.99910572 L18.7476979,1.99910572 Z M18.7476979,5.70072179 L18.7476979,18.1992876 L10.8869116,18.1992876 L10.8869116,5.70072179 L18.7476979,5.70072179 Z M10.8869116,31.1495874 L10.8869116,19.0495302 L18.7476979,19.0495302 L18.7476979,31.1495874 L10.8869116,31.1495874 Z M32.2597962,16.5157223 L24.7075665,18.6063838 L21.0905636,6.5984079 L28.6427933,4.50774644 L32.2597962,16.5157223 Z M27.5715814,0.951436819 L28.396764,3.6909184 L20.8445343,5.78157986 L20.0193517,3.04209829 L27.5715814,0.951436819 Z M28.4552115,31.0483235 L24.9535958,19.4232118 L32.5058255,17.3325504 L36.0074412,28.957747 L28.4552115,31.0483235 Z" id="Shape"></path>
                <path d="M29.978263,19.3567555 C29.8941397,19.0948748 29.5896047,18.9439455 29.2984679,19.0194595 L25.396949,20.0321372 C25.1055926,20.1077499 24.9375657,20.3813772 25.0216889,20.6432579 C25.0910961,20.8594353 25.3106293,21 25.5490518,21 C25.5994599,21 25.6507465,20.9936825 25.7015939,20.9804552 L29.6031127,19.9677775 C29.8944692,19.8922635 30.0624961,19.6186362 29.978263,19.3567555 Z" id="Shape"></path>
                <path d="M30.1681154,22.1180672 C29.3985395,22.3403082 28.7616948,22.849107 28.3746138,23.5505912 C27.987621,24.2520754 27.8968699,25.0623421 28.1191174,25.8322013 C28.4979082,27.1443852 29.6995437,28 31.0012788,28 C31.2759132,28 31.5550454,27.9618864 31.8318846,27.8819537 C32.6014605,27.6597127 33.2383052,27.1509139 33.6253862,26.4494297 C34.012379,25.7479456 34.1031301,24.9376789 33.8808826,24.1678196 C33.4221004,22.5786946 31.7567438,21.6592042 30.1681154,22.1180672 Z M32.8530763,26.0231222 C32.5799413,26.5183342 32.1303311,26.8774136 31.5871478,27.0342793 C30.4657683,27.3579801 29.2900616,26.7091668 28.9663035,25.5873744 C28.8094956,25.0439911 28.873524,24.4720225 29.1467473,23.9768105 C29.4198823,23.4815985 29.8694925,23.1225191 30.4126758,22.9656534 C30.6082007,22.9091889 30.8050484,22.88228 30.999074,22.88228 C31.917785,22.88228 32.7661176,23.4862745 33.0334319,24.41247 C33.190328,24.9559416 33.1262996,25.5279102 32.8530763,26.0231222 Z" id="Shape"></path>
                <path d="M31.9409587,25.0839127 C31.7114825,24.2893913 30.8781216,23.8295714 30.0839146,24.0590472 C29.2893918,24.288444 28.8295711,25.1214877 29.0590473,25.916167 C29.2485013,26.5722293 29.8496231,27 30.5006345,27 C30.6379886,27 30.777632,26.9809757 30.9160914,26.9409536 C31.7105352,26.7115568 32.1704349,25.8785131 31.9409587,25.0839127 C31.9409587,25.0839916 31.9409587,25.0839127 31.9409587,25.0839127 Z M30.6970352,26.1825862 C30.3207321,26.2912853 29.9261152,26.0734925 29.8174159,25.6971901 C29.7087956,25.3208088 29.9265099,24.9261925 30.3028129,24.8174934 C30.3684114,24.7985481 30.4345624,24.789549 30.4996083,24.789549 C30.8080236,24.789549 31.0927572,24.9921855 31.1825111,25.3029685 C31.2912103,25.6792709 31.0734171,26.0738872 30.6970352,26.1825862 Z" id="Shape"></path>
                <path d="M13,30 L12.5291005,30 C12.2369312,30 12,29.7761 12,29.5 C12,29.2239 12.2368254,29 12.5291005,29 L13.4708995,29 C13.7631746,29 14,29.2239 14,29.5 C14,29.7761 13.7631746,30 13.4708995,30 L13,30 L14.5833333,30 C14.8135,30 15,30.2239 15,30.5 C15,30.7761 14.8135,31 14.5833333,31 L12.4166667,31 C12.1865,31 12,30.7761 12,30.5 C12,30.2239 12.1865,30 12.4166667,30 L13,30 Z M28.4490224,8.01452057 C28.6780037,7.95820221 28.9169033,8.07069188 28.9829672,8.26567398 C29.0490311,8.46072959 28.9170758,8.66453441 28.6882669,8.72085276 L23.5509776,9.98544251 C23.5110461,9.99529455 23.4707695,10 23.4311829,10 C23.2439443,10 23.0715399,9.89530373 23.0170328,9.73428911 C22.9509689,9.53923349 23.0829242,9.33542868 23.3117331,9.27911032 L28.4490224,8.01452057 Z M28.4490224,10.0145466 C28.6780037,9.95815548 28.9169033,10.0707172 28.9829672,10.2656967 C29.0490311,10.4607498 28.9170758,10.6645519 28.6882669,10.7208695 L23.5509776,11.9854427 C23.5110461,11.9952946 23.4707695,12 23.4311829,12 C23.2439443,12 23.0715399,11.8953051 23.0170328,11.7342926 C22.9509689,11.5392395 23.0829242,11.3354374 23.3117331,11.2791198 L28.4490224,10.0145466 Z M1.54347826,20 C1.24326087,20 1,19.7761 1,19.5 C1,19.2239 1.24326087,19 1.54347826,19 L5.45652174,19 C5.75673913,19 6,19.2239 6,19.5 C6,19.7761 5.75673913,20 5.45652174,20 L1.54347826,20 Z M9.45652174,30 C9.75663043,30 10,30.2239 10,30.5 C10,30.7761 9.75673913,31 9.45652174,31 L5.54347826,31 C5.24326087,31 5,30.7761 5,30.5 C5,30.2239 5.24326087,30 5.54347826,30 L9.45652174,30 Z M3,21.5 C3,21.7762 2.82776923,22 2.61538462,22 L1.38461538,22 C1.17215385,22 1,21.7761 1,21.5 C1,21.2239 1.17215385,21 1.38461538,21 L2.61538462,21 C2.82784615,21 3,21.2239 3,21.5 Z M12.5434783,3 C12.2432609,3 12,2.7761 12,2.5 C12,2.2239 12.2432609,2 12.5434783,2 L16.4565217,2 C16.7567391,2 17,2.2239 17,2.5 C17,2.7761 16.7567391,3 16.4565217,3 L12.5434783,3 Z M12.3846154,5 C12.1721538,5 12,4.7761 12,4.5 C12,4.2239 12.1721538,4 12.3846154,4 L13.6153846,4 C13.8278462,4 14,4.2239 14,4.5 C14,4.7761 13.8278462,5 13.6153846,5 L12.3846154,5 Z M1.38461538,5 C1.17215385,5 1,4.7761 1,4.5 C1,4.2239 1.17215385,4 1.38461538,4 L2.61538462,4 C2.82784615,4 3,4.2239 3,4.5 C3,4.7761 2.82784615,5 2.61538462,5 L1.38461538,5 Z" id="Combined-Shape"></path>
                <path d="M32.0135127,29.5357864 C32.0567464,29.817089 32.1932093,30 32.341488,30 C32.3728376,30 32.4047335,29.9917793 32.4363563,29.9745672 L33.7531068,29.2594932 C33.9343059,29.1611015 34.0388728,28.8050416 33.9864869,28.4642672 C33.934101,28.1236212 33.7449791,27.9269663 33.5637116,28.025358 L32.2469612,28.7404319 C32.0656937,28.8389521 31.9611268,29.1950119 32.0135127,29.5357864 Z" id="Shape"></path>
            </g>
        </g>
    </g>
</svg>
