<?xml version="1.0" encoding="UTF-8"?>
<svg width="45px" height="39px" viewBox="0 0 45 39" version="1.1" xmlns="http://www.w3.org/2000/svg" xmlns:xlink="http://www.w3.org/1999/xlink">
    <g id="States" stroke="none" stroke-width="1" fill="none" fill-rule="evenodd">
        <g id="Artboard-4" fill="#CACED1" fill-rule="nonzero">
            <g id="icon_1">
                <path d="M44.5028399,8.85565815 L43.3343495,8.85565815 L43.3343495,6.50853294 C43.3343495,6.26512954 43.1527236,6.0587211 42.9079709,6.02417289 L31.5052987,4.41156418 C30.8101096,4.31320454 30.1092539,4.26563958 29.4090942,4.26652042 L29.4090942,0.489412448 C29.4090942,0.305318439 29.304115,0.136883676 29.1375997,0.0533024517 C28.9709849,-0.030278773 28.7708683,-0.0146195271 28.6197618,0.0936250097 L27.2717332,1.0587239 L25.9237045,0.0936250097 C25.7726974,-0.0146195271 25.5724814,-0.0301809027 25.4058666,0.0533024517 C25.2392519,0.136785806 25.1343721,0.305318439 25.1343721,0.489412448 L25.1343721,4.88966053 C24.2253474,5.15909743 23.3417723,5.51387722 22.4999503,5.95214036 C19.7555787,4.52362566 16.5690219,3.97682437 13.4946019,4.41156418 L2.09192972,6.02417289 C1.84727644,6.05881897 1.66555104,6.26512954 1.66555104,6.50853294 L1.66555104,8.85565815 L0.497060714,8.85565815 C0.222583788,8.85565815 0,9.07478972 0,9.34500958 L0,38.5106486 C0,38.6465904 0.0574602186,38.7764643 0.15866178,38.8690496 C0.250916249,38.9535116 0.372000239,39 0.497060714,39 C0.509188996,39 0.521217865,38.9996085 0.533346146,38.9987277 L20.4633931,37.5646344 L24.5366069,37.5646344 L44.4667533,38.9987277 C44.4788815,38.9996085 44.4909104,39 44.5029393,39 C44.6280992,39 44.7491832,38.9535116 44.8413382,38.8690496 C44.9425398,38.7764643 45,38.6465904 45,38.5106486 L45,9.34500958 C44.9999006,9.07469185 44.7774162,8.85565815 44.5028399,8.85565815 Z M31.3012344,5.57945532 L42.244898,7.15329754 L42.244898,34.4651163 L31.4421782,32.9115177 C28.5602635,32.4970196 25.5794305,32.9625237 22.9591837,34.2235821 L22.9591837,7.0196301 C25.5038045,5.68136805 28.4541096,5.17001818 31.3012344,5.57945532 Z M3.67346939,34.9911625 L13.4750193,33.6886617 C16.3984064,33.3002841 19.4278432,33.7852618 22.0408163,35.0550918 L22.0408163,35.5816848 C20.4503773,34.9119806 18.6536402,34.5839545 16.5744773,34.5839545 C15.5658864,34.5839545 14.504983,34.659747 13.3209319,34.8170752 L3.67346939,36.2790698 L3.67346939,34.9911625 Z M21.122449,36.2819125 C21.5273628,36.502099 21.9153979,36.7618259 22.2871697,37.0643237 C22.4196502,37.1719618 22.5802619,37.1719618 22.7128303,37.0643237 C23.0852174,36.7614382 23.4727251,36.4999023 23.877551,36.2790698 L23.877551,37.1860465 L21.122449,37.1860465 L21.122449,36.2819125 Z M22.9591837,35.5805889 L22.9591837,35.0550572 C25.5722586,33.7852889 28.6018989,33.3002407 31.5249807,33.6886935 L41.3265306,34.991131 L41.3265306,36.2790698 L31.6701119,34.8156399 C28.1102235,34.3433016 25.3151748,34.586014 22.9591837,35.5805889 Z M25.7142857,1.81395349 L26.3978407,2.50870895 C26.5377459,2.65100826 26.7275602,2.65100826 26.8674654,2.50870895 L27.5510204,1.81395349 L27.5510204,5.06440457 C26.9328663,5.12366805 26.3183854,5.25000751 25.7143656,5.44186047 L25.7143656,1.81395349 L25.7142857,1.81395349 Z M2.75510204,7.15330852 L13.6987656,5.57946694 C16.5457912,5.17002997 19.4960964,5.6812804 22.0408163,7.01964114 L22.0408163,34.2246738 C20.0447068,33.2639953 17.840056,32.7639583 15.6283679,32.7639583 C14.9368313,32.7639583 14.2444026,32.8127811 13.5578218,32.9115183 L2.75510204,34.4651163 L2.75510204,7.15330852 Z M0.918367347,38.0930233 L0.918367347,9.97674419 L1.60155416,9.97674419 L1.60155416,34.546914 C1.60155416,34.6886567 1.66517934,34.8234589 1.7761441,34.9163248 C1.88690654,35.0090929 2.03418519,35.0508337 2.17923848,35.0307942 L3.02841723,34.9129034 L3.02841723,36.6850783 C3.02841723,36.8284828 3.09366086,36.9647513 3.20674982,37.0576172 C3.31983878,37.1504831 3.4693428,37.1906599 3.61591338,37.1674922 L13.781984,35.5579794 C14.9007353,35.4027467 15.9082183,35.3273786 16.8619892,35.3273786 C18.0787577,35.3273786 19.1864833,35.4532853 20.2040816,35.7072491 L20.2040816,36.7310225 L0.918367347,38.0930233 Z M44.0816327,38.0930233 L24.7959184,36.730827 L24.7959184,35.7048053 C26.6018836,35.2528904 28.6970421,35.208217 31.2090473,35.5563176 L41.3839126,37.1672967 C41.4112236,37.1715979 41.4385346,37.1737485 41.4657445,37.1737485 C41.5848002,37.1737485 41.7011248,37.133083 41.793173,37.0575195 C41.9062608,36.9646535 41.9715038,36.8284828 41.9715038,36.6849805 L41.9715038,34.9128057 L42.8207748,35.0306965 C42.8447477,35.0340201 42.8688219,35.0356819 42.8926937,35.0356819 C43.0135702,35.0356819 43.131311,34.9937456 43.2238649,34.9163248 C43.3347273,34.8234589 43.398453,34.6887544 43.398453,34.546914 L43.398453,9.97674419 L44.0816327,9.97674419 L44.0816327,38.0930233 Z M5.52590826,11 C5.26819476,11 5.04302458,10.7697332 5.005426,10.4504589 C4.96403597,10.1004482 5.1639298,9.77592316 5.45176429,9.72559232 L14.2266612,8.19338314 C14.9576744,8.0650587 15.7061705,8 16.451191,8 C17.8580307,8 19.2584461,8.23090715 20.6135746,8.68657417 C20.8939315,8.78083244 21.0583331,9.13353255 20.9808189,9.47445037 C20.9033048,9.8153682 20.6129427,10.0151547 20.3329017,9.92102455 C19.0691894,9.49609392 17.7632444,9.28068303 16.451191,9.28068303 C15.7564072,9.28068303 15.0584639,9.34125934 14.3767396,9.4610032 L5.60142136,10.9933404 C5.57603969,10.9978228 5.55076334,11 5.52590826,11 Z M25.6669929,9.92180017 C25.386952,10.0159907 25.0966952,9.81634774 25.0191811,9.47567499 C24.9416669,9.13500224 25.1060685,8.78255567 25.3864254,8.68836515 C27.4770958,7.98590356 29.6263232,7.82004636 31.7734441,8.19552865 L40.5482357,9.7266364 C40.8360702,9.77693106 41.035964,10.1012229 40.994574,10.4509819 C40.9569754,10.7698987 40.7316999,11 40.4739864,11 C40.449026,11 40.423855,10.9978244 40.3984733,10.9933452 L31.6235764,9.46223748 C29.6208466,9.11209449 27.6169583,9.26668979 25.6669929,9.92180017 Z M5.52590826,14 C5.26819476,14 5.04302458,13.7697332 5.005426,13.4504589 C4.96403597,13.1004482 5.1639298,12.7759232 5.45176429,12.7255923 L14.2266612,11.1933831 C14.9576744,11.0650587 15.7061705,11 16.451191,11 C17.8580307,11 19.2584461,11.2309072 20.6135746,11.6865742 C20.8939315,11.7808324 21.0583331,12.1335326 20.9808189,12.4744504 C20.9033048,12.8153682 20.6129427,13.0152828 20.3329017,12.9210245 C19.0691894,12.4960939 17.7632444,12.280683 16.451191,12.280683 C15.7564072,12.280683 15.0584639,12.3412593 14.3767396,12.4610032 L5.60142136,13.9933404 C5.57603969,13.9978228 5.55076334,14 5.52590826,14 Z M25.6669929,12.921811 C25.386952,13.0160006 25.0966952,12.8163597 25.0191811,12.4756904 C24.9416669,12.135021 25.1060685,11.782578 25.3864254,11.6883884 C27.4773065,10.985806 29.6263232,10.8200784 31.7734441,11.1955569 L40.5482357,12.7266492 C40.8360702,12.7769434 41.035964,13.1012319 40.994574,13.4509875 C40.9569754,13.769901 40.7316999,14 40.4739864,14 C40.449026,14 40.423855,13.9978244 40.3984733,13.9933453 L31.6235764,12.462253 C29.6210573,12.1122415 27.6169583,12.2667073 25.6669929,12.921811 Z M5.52590826,18 C5.26819476,18 5.04302458,17.7697332 5.005426,17.4504589 C4.96403597,17.1004482 5.1639298,16.7759232 5.45176429,16.7255923 L14.2266612,15.1933831 C14.9576744,15.0650587 15.7062758,15 16.451191,15 C17.858136,15 19.2585514,15.2309072 20.6135746,15.6865742 C20.8939315,15.7808324 21.0583331,16.1335326 20.9808189,16.4744504 C20.9033048,16.8153682 20.6129427,17.0152828 20.3329017,16.9210245 C19.0692947,16.4960939 17.7632444,16.280683 16.451191,16.280683 C15.7564072,16.280683 15.0584639,16.3413874 14.3767396,16.4610032 L5.60142136,17.9933404 C5.57603969,17.9978228 5.55076334,18 5.52590826,18 Z M25.6669929,16.9218002 C25.386952,17.0159907 25.0966952,16.8163477 25.0191811,16.475675 C24.9416669,16.1350022 25.1060685,15.7825557 25.3864254,15.6883652 C27.4770958,14.9859036 29.6260072,14.8200464 31.7734441,15.1955286 L40.5482357,16.7266364 C40.8360702,16.7769311 41.035964,17.1012229 40.994574,17.4509819 C40.9569754,17.7698987 40.7316999,18 40.4739864,18 C40.449026,18 40.423855,17.9978244 40.3984733,17.9933452 L31.6235764,16.4622375 C29.6213732,16.1122225 27.6170637,16.2666898 25.6669929,16.9218002 Z M5.52590826,20 C5.26819476,20 5.04302458,19.7697332 5.005426,19.4504589 C4.96403597,19.1004482 5.1639298,18.7759232 5.45176429,18.7255923 L14.2266612,17.1933831 C14.9576744,17.0650587 15.7061705,17 16.451191,17 C17.8580307,17 19.2584461,17.2309072 20.6135746,17.6865742 C20.8939315,17.7808324 21.0583331,18.1335326 20.9808189,18.4744504 C20.9033048,18.8153682 20.6129427,19.0151547 20.3329017,18.9210245 C19.0691894,18.4960939 17.7632444,18.280683 16.451191,18.280683 C15.7564072,18.280683 15.0584639,18.3412593 14.3767396,18.4610032 L5.60142136,19.9933404 C5.57603969,19.9978228 5.55076334,20 5.52590826,20 Z M25.6669929,18.9218002 C25.386952,19.0158627 25.0966952,18.8162198 25.0191811,18.475675 C24.9416669,18.1350022 25.1060685,17.7825557 25.3864254,17.6883652 C27.4770958,16.9859036 29.6263232,16.8200464 31.7734441,17.1955286 L40.5482357,18.7266364 C40.8360702,18.7769311 41.035964,19.1012229 40.994574,19.4509819 C40.9569754,19.7698987 40.7316999,20 40.4739864,20 C40.449026,20 40.423855,19.9978244 40.3984733,19.9933452 L31.6235764,18.4622375 C29.6208466,18.1120945 27.6169583,18.2666898 25.6669929,18.9218002 Z M5.52601358,24 C5.26830008,24 5.0431299,23.7697332 5.005426,23.450587 C4.96403597,23.1005763 5.1639298,22.7760512 5.45176429,22.7257204 L14.2266612,21.1933831 C14.9576744,21.0650587 15.7062758,21 16.451191,21 C17.8580307,21 19.2584461,21.2309072 20.6135746,21.6865742 C20.8939315,21.7808324 21.0583331,22.1335326 20.9808189,22.4744504 C20.9033048,22.8153682 20.6129427,23.0151547 20.3329017,22.9210245 C19.0691894,22.4960939 17.7632444,22.280683 16.451191,22.280683 C15.7564072,22.280683 15.0584639,22.3413874 14.3767396,22.4610032 L5.60152668,23.9933404 C5.57614501,23.9978228 5.55097397,24 5.52601358,24 Z M25.6669929,22.9218002 C25.386952,23.0158627 25.0966952,22.8162198 25.0191811,22.475675 C24.9416669,22.1350022 25.1060685,21.7825557 25.3864254,21.6883652 C27.4770958,20.9859036 29.6260072,20.8200464 31.7734441,21.1955286 L40.5482357,22.7266364 C40.8360702,22.7769311 41.035964,23.1012229 40.994574,23.4509819 C40.9569754,23.7698987 40.7316999,24 40.4739864,24 C40.449026,24 40.423855,23.9978244 40.3984733,23.9933452 L31.6235764,22.4622375 C29.6213732,22.1122225 27.6170637,22.2666898 25.6669929,22.9218002 Z M5.52590826,27 C5.26819476,27 5.04302458,26.769743 5.005426,26.4503543 C4.96403597,26.1003586 5.1639298,25.7758473 5.45176429,25.7255187 L14.2266612,24.1933749 C14.9578851,24.0650559 15.7063811,24 16.451191,24 C17.8580307,24 19.2584461,24.2310254 20.6135746,24.6866729 C20.8939315,24.7809272 21.0583331,25.1336122 20.9808189,25.4745155 C20.9033048,25.8154188 20.6129427,26.0153249 20.3329017,25.9210706 C19.0691894,25.4961581 17.7632444,25.2807564 16.451191,25.2807564 C15.7566178,25.2807564 15.0586745,25.3413301 14.3767396,25.4610689 L5.60142136,26.9933407 C5.57603969,26.9978229 5.55076334,27 5.52590826,27 Z M25.6670987,25.921811 C25.3866365,26.0158726 25.0966957,25.8162317 25.0191815,25.4756904 C24.9416674,25.135021 25.106069,24.782578 25.3863206,24.6883884 C27.4772016,23.985806 29.6263235,23.8200784 31.7734444,24.1955569 L40.5482357,25.7266492 C40.8360702,25.7769434 41.035964,26.1012319 40.994574,26.4509875 C40.9569754,26.769901 40.7316999,27 40.4739864,27 C40.449026,27 40.423855,26.9978244 40.3984733,26.9933453 L31.6235767,25.462253 C29.620847,25.1121135 27.6168534,25.2667073 25.6670987,25.921811 Z M16.451191,29.2807377 C15.7564072,29.2807377 15.0585692,29.3414447 14.3768449,29.4609375 L5.60152668,30.9933402 C5.57614501,30.9978227 5.55086866,31 5.52601358,31 C5.26830008,31 5.0431299,30.7697234 5.005426,30.4505635 C4.96403597,30.1005379 5.1639298,29.775999 5.45176429,29.725666 L14.2266612,28.1933914 C14.9576744,28.0650615 15.7061705,28 16.451191,28 C17.8580307,28 19.2584461,28.230917 20.6135746,28.6866035 C20.8939315,28.7808658 21.0583331,29.1335809 20.9808189,29.4745133 C20.9033048,29.8154457 20.6129427,30.0153689 20.3329017,29.9211066 C19.0691894,29.4961578 17.7632444,29.2807377 16.451191,29.2807377 Z M40.5482335,29.7265756 C40.8361733,29.7767396 41.0359618,30.1010143 40.9945718,30.4510109 C40.9569732,30.7699109 40.7316977,31 40.4739843,31 C40.4490239,31 40.4238528,30.9978245 40.3984712,30.9933456 L31.6235755,29.4623186 C29.620846,29.112322 27.616958,29.2667812 25.6669929,29.921857 C25.3870573,30.0159146 25.0966952,29.8162822 25.0191811,29.4756274 C24.9416669,29.1349726 25.1060685,28.7825446 25.3864254,28.6883591 C27.4770955,27.9858066 29.6263225,27.8200861 31.7734432,28.1955486 L40.5482335,29.7265756 Z" id="Combined-Shape"></path>
            </g>
        </g>
    </g>
</svg>
