<?xml version="1.0" encoding="UTF-8"?>
<svg width="186px" height="40px" viewBox="0 0 186 40" version="1.1" xmlns="http://www.w3.org/2000/svg" xmlns:xlink="http://www.w3.org/1999/xlink">
    <g id="states" stroke="none" stroke-width="1" fill="none" fill-rule="evenodd">
        <g id="welcome_page" transform="translate(-82.000000, -79.000000)">
            <g id="logotype" transform="translate(81.000000, 79.000000)">
                <path d="M126.2625,26 L124.5625,26 L124.5625,15.45 C124.5625,15.075 124.3875,14.9 124.0125,14.9 L122.9625,14.9 L122.9625,13.425 L124.7125,13.425 C125.7125,13.425 126.2125,13.9 126.2125,14.825 L126.2125,15.4 L126.1875,16.3 L126.2375,16.3 C126.5375,15.425 127.1375,14.7 128.0125,14.075 C128.8875,13.45 129.8125,13.125 130.7875,13.125 C133.0125,13.125 134.3125,14.175 134.6625,16.275 L134.7125,16.275 C135.0875,15.4 135.6875,14.65 136.5375,14.05 C137.3875,13.425 138.3125,13.125 139.3375,13.125 C142.3125,13.125 143.5125,14.775 143.5125,18 L143.5125,23.975 C143.5125,24.35 143.6875,24.525 144.0625,24.525 L145.1125,24.525 L145.1125,26 L143.3375,26 C142.2625,26 141.8125,25.55 141.8125,24.475 L141.8125,18.425 C141.8125,16.05 141.2125,14.675 139.1125,14.675 C138.1875,14.675 137.3625,15.025 136.6125,15.725 C135.8875,16.425 135.3875,17.25 135.1125,18.225 C134.9625,18.775 134.8875,19.375 134.8875,20.05 L134.8875,26 L133.1875,26 L133.1875,18.425 C133.1875,17.325 133.0875,16.65 132.7625,15.875 C132.4375,15.075 131.6875,14.675 130.5625,14.675 C129.5875,14.675 128.7125,15.025 127.9625,15.75 C127.2375,16.475 126.7125,17.35 126.4375,18.375 C126.3125,18.85 126.2625,19.425 126.2625,20.05 L126.2625,26 Z M146.5625,22.625 C146.5625,19.7 149.1375,18.25 154.2625,18.25 L154.9625,18.25 L154.9625,18.075 C154.9625,15.5 154.0625,14.55 151.7375,14.55 C151.2125,14.55 150.6625,14.625 150.1125,14.8 C149.5625,14.975 149.2875,15.25 149.2875,15.65 L149.2875,16.45 L147.6375,16.45 L147.6375,15.25 C147.6375,14.45 148.3625,13.8 149.2875,13.525 C150.2125,13.225 151.0375,13.125 151.7125,13.125 C153.5875,13.125 154.8625,13.55 155.5875,14.4 C156.3125,15.225 156.6625,16.425 156.6625,17.95 L156.6625,23.975 C156.6625,24.35 156.8375,24.525 157.2125,24.525 L158.2625,24.525 L158.2625,26 L156.5375,26 C155.4625,26 155.0375,25.525 155.0375,24.525 L155.0625,23.575 L155.0125,23.575 C155.0625,23.575 153.9125,26.3 150.8125,26.3 C149.6625,26.3 148.6625,25.975 147.8125,25.325 C146.9875,24.675 146.5625,23.775 146.5625,22.625 Z M148.2875,22.475 C148.2875,23.75 149.3375,24.875 151.1125,24.875 C152.2625,24.875 153.1875,24.4 153.8875,23.425 C154.6125,22.45 154.9625,21.375 154.9625,20.175 L154.9625,19.6 L154.2375,19.6 C152.8375,19.6 152.0375,19.65 150.5625,19.975 C149.1375,20.3 148.2875,21.175 148.2875,22.475 Z M162.7375,31 L161.0375,31 L161.0375,15.45 C161.0375,15.075 160.8625,14.9 160.4875,14.9 L159.4375,14.9 L159.4375,13.425 L161.1375,13.425 C162.1375,13.425 162.6375,13.875 162.6375,14.75 L162.6125,15.6 L162.6625,15.6 C162.7375,15.475 162.7625,15.325 163.2375,14.75 C163.8375,13.975 165.0375,13.125 167.0125,13.125 C168.6875,13.125 170.0125,13.725 170.9875,14.95 C171.9875,16.175 172.4875,17.75 172.4875,19.725 C172.4875,21.7 171.9625,23.275 170.8875,24.5 C169.8375,25.7 168.4875,26.3 166.8375,26.3 C164.4625,26.3 163.1875,24.8 162.8625,24.175 L162.7375,23.925 L162.6875,23.925 C162.7125,24.225 162.7375,24.6 162.7375,25.025 L162.7375,31 Z M162.6875,19.75 C162.6875,21.125 163.0375,22.3 163.7375,23.3 C164.4375,24.3 165.4125,24.8 166.6625,24.8 C167.8375,24.8 168.7875,24.35 169.5625,23.425 C170.3375,22.5 170.7375,21.275 170.7375,19.725 C170.7375,16.7 169.0875,14.675 166.7625,14.675 C164.4375,14.675 162.6875,16.375 162.6875,19.75 Z" id="map" fill="#373737"></path>
                <path d="M109.7,39.3 L177,39.3 C182.136248,39.3 186.3,35.1362482 186.3,30 L186.3,0.7 L119,0.7 C113.863752,0.7 109.7,4.86375183 109.7,10 L109.7,39.3 Z M119,0 L187,0 L187,30 C187,35.5228475 182.522847,40 177,40 L109,40 L109,10 C109,4.4771525 113.477153,1.01453063e-15 119,0 Z" id="Rectangle-3" fill="#2F2F2F" fill-rule="nonzero"></path>
                <path d="M1.19999999,24.99 L0.989999991,24.72 L2.18999999,23.34 L2.72999999,23.97 C2.96999999,24.21 3.47999999,24.54 4.28999999,24.96 C5.09999999,25.38 5.93999999,25.59 6.80999999,25.59 C8.60999999,25.59 9.98999999,24.72 9.98999999,23.19 C9.98999999,21.99 8.66999999,21.12 6.98999999,20.49 C4.61999999,19.62 1.46999999,18.48 1.52999999,15.63 C1.52999999,12.99 3.74999999,11.55 6.89999999,11.55 C7.52999999,11.55 8.15999999,11.64 8.78999999,11.79 C10.11,12.06 11.49,12.96 11.49,14.28 L11.49,15.57 L9.59999999,15.57 L9.59999999,14.85 C9.59999999,13.86 8.18999999,13.29 6.98999999,13.29 C4.85999999,13.29 3.59999999,14.07 3.59999999,15.51 C3.59999999,18.9 12.09,18.12 12.09,23.13 C12.09,24.36 11.58,25.38 10.56,26.19 C9.56999999,26.97 8.30999999,27.36 6.77999999,27.36 C3.68999999,27.36 1.82999999,25.68 1.19999999,24.99 Z M17.57,27 L15.53,27 L15.53,8.34 C15.53,7.89 15.32,7.68 14.87,7.68 L13.61,7.68 L13.61,5.91 L15.74,5.91 C17.06,5.91 17.57,6.36 17.57,7.65 L17.57,17.67 L19.1,17.67 C19.88,17.67 20.45,17.43 20.84,16.95 L24.71,11.91 L27.17,11.91 L22.82,17.43 C22.37,18 21.95,18.36 21.8,18.45 L21.68,18.51 L21.68,18.57 C22.01,18.72 22.31,19.08 22.64,19.68 L25.37,24.57 C25.64,25.08 25.94,25.23 26.75,25.23 L27.56,25.23 L27.56,27 L26.15,27 C24.62,27 24.23,26.73 23.54,25.5 L20.54,20.1 C20.3,19.65 19.76,19.44 18.95,19.44 L17.57,19.44 L17.57,27 Z M31.57,33.3 C30.34,33.3 29.11,32.7 28.66,32.22 L28.3,31.83 L29.26,30.36 C29.29,30.45 30.25,31.47 31.51,31.47 C32.68,31.47 33.61,30.66 34.3,29.01 L35.2,26.94 L29.89,14.37 C29.68,13.92 29.35,13.68 28.84,13.68 L28.54,13.68 L28.54,11.91 L29.47,11.91 C30.82,11.91 31.27,12.21 31.78,13.56 L35.65,22.98 L36.19,24.6 L36.25,24.6 C36.4,24.03 36.55,23.49 36.76,22.98 L40.48,13.56 C40.99,12.21 41.41,11.91 42.82,11.91 L43.75,11.91 L43.75,13.68 L43.45,13.68 C42.94,13.68 42.58,13.92 42.4,14.37 L35.89,30.15 C35.08,32.1 33.52,33.3 31.57,33.3 Z M45.24,19.35 C45.24,16.98 45.96,15.06 47.4,13.59 C48.87,12.09 50.73,11.34 53.04,11.34 C55.17,11.34 56.82,12.03 58.02,13.41 C59.22,14.76 59.82,16.5 59.82,18.6 C59.82,19.11 59.79,19.59 59.7,20.07 L49.14,20.07 C49.38,22.62 51.33,24.12 53.76,24.12 C55.08,24.12 56.55,23.55 58.14,22.44 L59.64,25.17 C58.29,26.28 55.92,27.36 53.49,27.36 C51.03,27.36 49.05,26.58 47.52,25.05 C45.99,23.49 45.24,21.6 45.24,19.35 Z M49.26,17.46 L56.01,17.46 C55.98,15.45 54.72,14.22 52.95,14.22 C51.03,14.22 49.62,15.51 49.26,17.46 Z M67.22,27 L63.41,27 L63.41,15.6 C63.41,15.15 63.2,14.94 62.75,14.94 L61.55,14.94 L61.55,11.7 L65.06,11.7 C66.41,11.7 67.07,12.27 67.07,13.41 L67.07,13.86 L67.04,14.52 L67.1,14.52 C67.94,12.84 69.74,11.34 72.5,11.34 C76.07,11.34 77.84,13.29 77.84,17.16 L77.84,23.13 C77.84,23.58 78.05,23.79 78.5,23.79 L79.67,23.79 L79.67,27 L76.07,27 C74.63,27 74.03,26.4 74.03,24.96 L74.03,17.94 C74.03,15.9 73.43,14.82 71.63,14.82 C69.59,14.82 68.09,16.05 67.49,17.94 C67.31,18.57 67.22,19.26 67.22,19.98 L67.22,27 Z M82.72,31.98 L83.89,28.98 C85.15,29.67 86.56,30 88.09,30 C90.64,30 92.44,28.86 92.44,26.25 L92.44,25.53 L92.47,24.72 L92.41,24.72 C91.48,26.04 90.07,26.7 88.15,26.7 C86.02,26.7 84.34,25.95 83.11,24.48 C81.88,22.98 81.28,21.15 81.28,18.96 C81.28,16.77 81.88,14.94 83.08,13.5 C84.28,12.06 85.93,11.34 88.06,11.34 C90.85,11.34 92.26,12.72 92.65,13.26 L92.77,13.5 L92.83,13.5 C92.8,13.38 92.8,13.26 92.8,13.11 C92.8,12.36 93.4,11.7 94.51,11.7 L98.05,11.7 L98.05,14.94 L96.88,14.94 C96.43,14.94 96.22,15.15 96.22,15.54 L96.22,26.07 C96.22,31.32 92.14,33.3 88.15,33.3 C86.2,33.3 84.37,32.85 82.72,31.98 Z M88.96,23.49 C91.03,23.49 92.5,22.2 92.5,18.99 C92.5,16.05 91.24,14.58 88.72,14.58 C86.44,14.58 85.12,16.23 85.12,18.84 C85.12,21.6 86.56,23.49 88.96,23.49 Z" id="skyeng" fill="#3A3A3A"></path>
            </g>
        </g>
    </g>
</svg>
