<svg xmlns="http://www.w3.org/2000/svg" xmlns:xlink="http://www.w3.org/1999/xlink" viewBox="0 0 386.01 301"><defs><style>.Graphic-Style,.cls-5,.cls-6{fill-rule:evenodd;}.Graphic-Style{fill:url(#linear-gradient);}.cls-1{fill:#e67e22;}.cls-2{fill:#85888a;}.cls-3,.cls-6,.cls-8{fill:#fff;}.cls-4{fill:#3499db;}.cls-5{fill:#97cbec;}.cls-7{fill:#6ec22e;}.cls-8{font-size:20px;font-family:OpenSans-Bold, Open Sans;font-weight:700;}.cls-9{fill:#f8e189;}</style><linearGradient id="linear-gradient" x1="123.46" y1="372.28" x2="290.57" y2="82.83" gradientUnits="userSpaceOnUse"><stop offset="0" stop-opacity="0"/><stop offset="1" stop-opacity="0.05"/></linearGradient></defs><title>247</title><g id="Слой_2" data-name="Слой 2"><g id="Layer_2" data-name="Layer 2"><polygon class="Graphic-Style" points="159.07 6.91 0 301 337.54 301 370.21 248.59 159.07 6.91"/><rect class="cls-1" x="349.04" y="185.06" width="21.56" height="12.3"/><rect class="cls-1" x="349.04" y="210.88" width="21.56" height="12.3"/><rect class="cls-1" x="349.04" y="236.7" width="21.56" height="12.3"/><rect class="cls-1" x="305.29" y="185.06" width="43.13" height="12.3"/><rect class="cls-1" x="305.29" y="210.88" width="43.13" height="12.3"/><rect class="cls-1" x="305.29" y="236.7" width="43.13" height="12.3"/><rect class="cls-1" x="261.53" y="185.06" width="43.14" height="12.3"/><rect class="cls-1" x="261.53" y="210.88" width="43.14" height="12.3"/><rect class="cls-1" x="261.53" y="236.7" width="43.14" height="12.3"/><rect class="cls-1" x="217.78" y="185.06" width="43.14" height="12.3"/><rect class="cls-1" x="217.78" y="210.88" width="43.14" height="12.3"/><rect class="cls-1" x="217.78" y="236.7" width="43.14" height="12.3"/><rect class="cls-1" x="174.03" y="185.06" width="43.14" height="12.3"/><rect class="cls-1" x="174.03" y="210.88" width="43.14" height="12.3"/><rect class="cls-1" x="174.03" y="236.7" width="43.14" height="12.3"/><rect class="cls-1" x="327.47" y="172.15" width="43.13" height="12.3"/><rect class="cls-1" x="327.47" y="197.97" width="43.13" height="12.3"/><rect class="cls-1" x="327.47" y="223.79" width="43.13" height="12.3"/><rect class="cls-1" x="283.72" y="172.15" width="43.13" height="12.3"/><rect class="cls-1" x="283.72" y="197.97" width="43.13" height="12.3"/><rect class="cls-1" x="283.72" y="223.79" width="43.13" height="12.3"/><rect class="cls-1" x="239.97" y="172.15" width="43.13" height="12.3"/><rect class="cls-1" x="239.97" y="197.97" width="43.13" height="12.3"/><rect class="cls-1" x="239.97" y="223.79" width="43.13" height="12.3"/><rect class="cls-1" x="196.22" y="172.15" width="43.13" height="12.3"/><rect class="cls-1" x="196.22" y="197.97" width="43.13" height="12.3"/><rect class="cls-1" x="196.22" y="223.79" width="43.13" height="12.3"/><rect class="cls-1" x="174.03" y="172.15" width="21.57" height="12.3"/><rect class="cls-1" x="174.03" y="197.97" width="21.57" height="12.3"/><rect class="cls-1" x="174.03" y="223.79" width="21.57" height="12.3"/><rect class="cls-1" x="349.04" y="107.59" width="21.56" height="12.3"/><rect class="cls-1" x="349.04" y="30.13" width="21.56" height="12.29"/><rect class="cls-1" x="349.04" y="133.42" width="21.56" height="12.29"/><rect class="cls-1" x="349.04" y="55.95" width="21.56" height="12.3"/><rect class="cls-1" x="349.04" y="159.24" width="21.56" height="12.29"/><rect class="cls-1" x="349.04" y="81.77" width="21.56" height="12.3"/><rect class="cls-1" x="305.29" y="107.59" width="43.13" height="12.3"/><rect class="cls-1" x="305.29" y="30.13" width="43.13" height="12.29"/><rect class="cls-1" x="305.29" y="133.42" width="43.13" height="12.29"/><rect class="cls-1" x="305.29" y="55.95" width="43.13" height="12.3"/><rect class="cls-1" x="305.29" y="159.24" width="43.13" height="12.29"/><rect class="cls-1" x="305.29" y="81.77" width="43.13" height="12.3"/><rect class="cls-1" x="261.53" y="107.59" width="43.14" height="12.3"/><rect class="cls-1" x="261.53" y="30.13" width="43.14" height="12.29"/><rect class="cls-1" x="261.53" y="133.42" width="43.14" height="12.29"/><rect class="cls-1" x="261.53" y="55.95" width="43.14" height="12.3"/><rect class="cls-1" x="261.53" y="159.24" width="43.14" height="12.29"/><rect class="cls-1" x="261.53" y="81.77" width="43.14" height="12.3"/><rect class="cls-1" x="217.78" y="107.59" width="43.14" height="12.3"/><rect class="cls-1" x="217.78" y="30.13" width="43.14" height="12.29"/><rect class="cls-1" x="217.78" y="133.42" width="43.14" height="12.29"/><rect class="cls-1" x="217.78" y="55.95" width="43.14" height="12.3"/><rect class="cls-1" x="217.78" y="159.24" width="43.14" height="12.29"/><rect class="cls-1" x="217.78" y="81.77" width="43.14" height="12.3"/><rect class="cls-1" x="174.03" y="107.59" width="43.14" height="12.3"/><rect class="cls-1" x="174.03" y="30.13" width="43.14" height="12.29"/><rect class="cls-1" x="174.03" y="133.42" width="43.14" height="12.29"/><rect class="cls-1" x="174.03" y="55.95" width="43.14" height="12.3"/><rect class="cls-1" x="174.03" y="159.24" width="43.14" height="12.29"/><rect class="cls-1" x="174.03" y="81.77" width="43.14" height="12.3"/><rect class="cls-1" x="327.47" y="94.68" width="43.13" height="12.3"/><rect class="cls-1" x="327.47" y="17.22" width="43.13" height="12.29"/><rect class="cls-1" x="327.47" y="120.5" width="43.13" height="12.3"/><rect class="cls-1" x="327.47" y="43.04" width="43.13" height="12.29"/><rect class="cls-1" x="327.47" y="146.33" width="43.13" height="12.29"/><rect class="cls-1" x="327.47" y="68.86" width="43.13" height="12.3"/><rect class="cls-1" x="283.72" y="94.68" width="43.13" height="12.3"/><rect class="cls-1" x="283.72" y="17.22" width="43.13" height="12.29"/><rect class="cls-1" x="283.72" y="120.5" width="43.13" height="12.3"/><rect class="cls-1" x="283.72" y="43.04" width="43.13" height="12.29"/><rect class="cls-1" x="283.72" y="146.33" width="43.13" height="12.29"/><rect class="cls-1" x="283.72" y="68.86" width="43.13" height="12.3"/><rect class="cls-1" x="239.97" y="94.68" width="43.13" height="12.3"/><rect class="cls-1" x="239.97" y="17.22" width="43.13" height="12.29"/><rect class="cls-1" x="239.97" y="120.5" width="43.13" height="12.3"/><rect class="cls-1" x="239.97" y="43.04" width="43.13" height="12.29"/><rect class="cls-1" x="239.97" y="146.33" width="43.13" height="12.29"/><rect class="cls-1" x="239.97" y="68.86" width="43.13" height="12.3"/><rect class="cls-1" x="196.22" y="94.68" width="43.13" height="12.3"/><rect class="cls-1" x="196.22" y="17.22" width="43.13" height="12.29"/><rect class="cls-1" x="196.22" y="120.5" width="43.13" height="12.3"/><rect class="cls-1" x="196.22" y="43.04" width="43.13" height="12.29"/><rect class="cls-1" x="196.22" y="146.33" width="43.13" height="12.29"/><rect class="cls-1" x="196.22" y="68.86" width="43.13" height="12.3"/><rect class="cls-1" x="174.03" y="94.68" width="21.57" height="12.3"/><rect class="cls-1" x="174.03" y="17.22" width="21.57" height="12.29"/><rect class="cls-1" x="174.03" y="120.5" width="21.57" height="12.3"/><rect class="cls-1" x="174.03" y="43.04" width="21.57" height="12.29"/><rect class="cls-1" x="174.03" y="146.33" width="21.57" height="12.29"/><rect class="cls-1" x="174.03" y="68.86" width="21.57" height="12.3"/><rect class="cls-2" x="204.84" y="39.96" width="135.57" height="209.04"/><rect class="cls-3" x="207.92" y="43.04" width="129.41" height="205.96"/><rect class="cls-4" x="214.09" y="49.19" width="117.08" height="196.74"/><polygon class="cls-5" points="274.43 49.19 214.7 168.5 214.7 184.34 282.36 49.19 274.43 49.19"/><polygon class="cls-5" points="225.07 49.19 214.7 69.9 214.7 149.06 264.7 49.19 225.07 49.19"/><polygon class="cls-5" points="294.25 49.19 214.7 208.09 214.7 245.93 216.9 245.93 315.39 49.19 294.25 49.19"/><polygon class="cls-5" points="331.17 128.61 272.44 245.93 280.37 245.93 331.17 144.45 331.17 128.61"/><polygon class="cls-5" points="331.17 168.21 292.26 245.93 313.4 245.93 331.17 210.44 331.17 168.21"/><rect class="cls-3" x="214.09" y="153.7" width="117.08" height="12.3"/><rect class="cls-3" x="210.39" y="148.17" width="36.97" height="24.59"/><path class="cls-6" d="M296.12,121.81H251.6V100.47h44.52Zm-22.3-51.1,21.27,21.23H252.55ZM298.7,91.94l0,0L274.73,68a1.27,1.27,0,0,0-1.68-.08.64.64,0,0,0-.14.08l-24,24h-4a1.85,1.85,0,0,0-1.85,1.84V128.5a1.85,1.85,0,0,0,1.85,1.84h57.92a1.85,1.85,0,0,0,1.85-1.84V93.78a1.85,1.85,0,0,0-1.85-1.84Z"/><rect class="cls-7" x="246.74" y="96.22" width="54.23" height="29.51"/><text class="cls-8" transform="translate(252.3 118.36)">24/7</text><rect class="cls-9" x="173.42" y="262.85" width="197.18" height="6.15"/><rect class="cls-9" x="173.42" y="250.56" width="197.18" height="12.29"/><rect class="cls-9" x="173.42" y="259.78" width="197.18" height="3.07"/><rect class="cls-9" x="170.33" width="203.36" height="24.59"/><rect class="cls-9" x="158.01" y="6.15" width="228" height="24.59"/></g></g></svg>