<?xml version="1.0" encoding="UTF-8"?>
<svg viewBox="0 0 120 120" version="1.1" xmlns="http://www.w3.org/2000/svg" xmlns:xlink="http://www.w3.org/1999/xlink">
    <path d="M0,60 C0,26.86 26.86,0 60,0 C93.14,0 120,26.86 120,60 C120,93.14 93.14,120 60,120 C26.86,120 0,93.14 0,60" id="Fill-118" fill="#FFFFFF"></path>
    <path d="M5,60 C5,29.62 29.62,5 60,5 C90.38,5 115,29.62 115,60 C115,90.38 90.38,115 60,115 C29.62,115 5,90.38 5,60" id="Fill-119" fill="#00AF5A"></path>
    <path d="M87.7998,46.5801 L87.7598,46.5191 L60.9798,19.7201 C60.4598,19.2001 59.6598,19.1801 59.0898,19.6201 C59.0398,19.6601 58.9898,19.6701 58.9398,19.7201 L32.0998,46.5801 L27.5898,46.5801 C26.4398,46.5801 25.5198,47.5101 25.5198,48.6501 L25.5198,87.5901 C25.5198,88.7301 26.4398,89.6601 27.5898,89.6601 L92.4098,89.6601 C93.5598,89.6601 94.4798,88.7301 94.4798,87.5901 L94.4798,48.6501 C94.4798,47.5101 93.5598,46.5801 92.4098,46.5801 L87.7998,46.5801 Z M59.9598,22.7691 L83.7598,46.5801 L36.1498,46.5801 L59.9598,22.7691 Z M35.0798,80.0801 L84.9198,80.0801 L84.9198,56.1501 L35.0798,56.1501 L35.0798,80.0801 Z" id="Fill-120" fill="#FFFFFF"></path>
    <polygon id="Fill-121" fill="#FF7F0B" points="29.66 84.481 90.34 84.481 90.34 51.38 29.66 51.38"></polygon>
    <path d="M46.729225,75.8627734 L33.7546156,75.8627734 L33.7546156,73.1332812 L38.4137953,68.4233203 C39.7933595,67.0099018 40.6947177,66.0302566 41.1178969,65.4843555 C41.5410761,64.9384543 41.8457605,64.4327627 42.0319594,63.9672656 C42.2181582,63.5017685 42.3112563,63.0193515 42.3112563,62.52 C42.3112563,61.7752046 42.1060174,61.2208482 41.6955336,60.8569141 C41.2850498,60.49298 40.7370409,60.3110156 40.0514906,60.3110156 C39.332086,60.3110156 38.6338508,60.476053 37.9567641,60.8061328 C37.2796773,61.1362126 36.5729787,61.6059345 35.8366469,62.2153125 L33.7038344,59.6889453 C34.6179014,58.9102956 35.3753808,58.3601709 35.9762953,58.0385547 C36.5772098,57.7169385 37.2331277,57.4693824 37.9440688,57.2958789 C38.6550098,57.1223754 39.4505748,57.035625 40.3307875,57.035625 C41.4902985,57.035625 42.5143768,57.2472114 43.4030531,57.6703906 C44.2917294,58.0935698 44.9815012,58.6860118 45.4723891,59.4477344 C45.9632769,60.2094569 46.2087172,61.081193 46.2087172,62.0629687 C46.2087172,62.9177907 46.0584908,63.7197033 45.7580336,64.4687305 C45.4575764,65.2177577 44.9920862,65.9858164 44.3615492,66.7729297 C43.7310122,67.560043 42.6201835,68.6814511 41.0290297,70.1371875 L38.6423109,72.3842578 L38.6423109,72.5619922 L46.729225,72.5619922 L46.729225,75.8627734 Z M61.9889906,72.0160937 L59.7546156,72.0160937 L59.7546156,75.8627734 L55.9206313,75.8627734 L55.9206313,72.0160937 L47.9987563,72.0160937 L47.9987563,69.2866016 L56.1364516,57.3022266 L59.7546156,57.3022266 L59.7546156,68.9692187 L61.9889906,68.9692187 L61.9889906,72.0160937 Z M55.9206313,68.9692187 L55.9206313,65.8207812 C55.9206313,65.296039 55.9417899,64.5343279 55.9841078,63.535625 C56.0264257,62.5369221 56.0602796,61.9571753 56.0856703,61.7963672 L55.9841078,61.7963672 C55.6709552,62.4903811 55.2943314,63.1674576 54.854225,63.8276172 L51.4518813,68.9692187 L55.9206313,68.9692187 Z M73.0085219,57.3022266 L66.0895766,75.8627734 L62.572975,75.8627734 L69.4919203,57.3022266 L73.0085219,57.3022266 Z M76.0173109,75.8627734 L82.9870375,60.6283984 L73.8337172,60.6283984 L73.8337172,57.3276172 L87.1511,57.3276172 L87.1511,59.7905078 L80.1305922,75.8627734 L76.0173109,75.8627734 Z" id="24/7" fill="#FFFFFF"></path>
</svg>
