<svg xmlns="http://www.w3.org/2000/svg" xmlns:xlink="http://www.w3.org/1999/xlink" viewBox="0 0 392.3 314.9"><defs><style>.Graphic-Style,.cls-1,.cls-10,.cls-2,.cls-3,.cls-9{fill-rule:evenodd;}.Graphic-Style{fill:url(#linear-gradient);}.cls-1{fill:#16a085;}.cls-12,.cls-13,.cls-2{fill:#f1c40f;}.cls-3,.cls-4{fill:#fff;}.cls-4{font-size:24px;}.cls-13,.cls-4{font-family:OpenSans-Bold, Open Sans;font-weight:700;}.cls-13,.cls-5{font-size:14px;}.cls-6,.cls-7,.cls-8,.cls-9{fill:none;stroke-linecap:round;stroke-linejoin:round;}.cls-6,.cls-7,.cls-8{stroke:#f1c40f;}.cls-7{stroke-dasharray:11.94 11.94;}.cls-8{stroke-dasharray:12.07 12.07;}.cls-9{stroke:#16a085;}.cls-10{fill:#fcfcf7;}.cls-11{fill:#34495e;}</style><linearGradient id="linear-gradient" x1="91.69" y1="367.83" x2="236.28" y2="117.39" gradientUnits="userSpaceOnUse"><stop offset="0" stop-opacity="0"/><stop offset="1" stop-opacity="0.05"/></linearGradient></defs><title>30mins</title><g id="Слой_2" data-name="Слой 2"><g id="Layer_2" data-name="Layer 2"><polygon class="Graphic-Style" points="197.95 95.25 323.2 178.59 210.22 306.11 0 314.89 197.95 95.25"/><path class="cls-1" d="M178.68,144.46a76.2,76.2,0,1,1,76.2,76.43A76.32,76.32,0,0,1,178.68,144.46Z"/><path class="cls-2" d="M254.72,193.59a50,50,0,0,0,0-100Z"/><path class="cls-3" d="M254.25,112.14l-3.72,30.94a3.27,3.27,0,0,0-.08.7v.13a3.92,3.92,0,1,0,7.84,0v-.11a4.06,4.06,0,0,0-.1-.79Z"/><path class="cls-3" d="M254.25,189.86l-3.72-46.48a1.75,1.75,0,0,1-.08-.51v-.1c0-1.62,1.76-2.93,3.92-2.93s3.92,1.31,3.92,2.93v.08a2.35,2.35,0,0,1-.1.59Z"/><path class="cls-3" d="M200.58,143.58A53.43,53.43,0,1,0,254,90,53.51,53.51,0,0,0,200.58,143.58Zm3.61-2.15a49.93,49.93,0,0,1,47.68-47.82v10h5V93.64a49.94,49.94,0,0,1,47,47.79l0,5a50,50,0,0,1-46.94,47.08V185h-5v8.53a50,50,0,0,1-47.65-47.11h9.89v-5Z"/><text class="cls-4" transform="translate(264.83 142.87)">30<tspan class="cls-5"><tspan x="-0.91" y="16.8">MIN</tspan></tspan></text><polygon class="Graphic-Style" points="121.16 117.56 150.56 147.94 96.86 208.53 64.82 180.47 121.16 117.56"/><polygon class="Graphic-Style" points="150.94 42.88 189.1 74.14 135.4 134.72 94.6 105.8 150.94 42.88"/><polygon class="Graphic-Style" points="233.27 3.35 271.43 34.6 217.73 95.19 176.93 66.25 233.27 3.35"/><polygon class="Graphic-Style" points="314.73 38.49 352.89 69.75 299.19 130.34 258.39 101.41 314.73 38.49"/><polygon class="Graphic-Style" points="354.14 125.47 392.3 156.72 338.6 217.31 297.8 188.38 354.14 125.47"/><polygon class="Graphic-Style" points="299.84 221.24 338 252.49 284.3 313.07 243.5 284.14 299.84 221.24"/><path class="cls-6" d="M224.17,22.32Q227.1,21.59,230,21"/><path class="cls-7" d="M241.83,19.26C301,13.46,357,51.56,371.92,110.73a121.16,121.16,0,0,1-77,143.71"/><path class="cls-6" d="M289.21,256.3q-2.86.86-5.79,1.59"/><path class="cls-6" d="M351.94,167q.79-2.92,1.39-5.84"/><path class="cls-8" d="M355.05,149.17a100,100,0,0,0-192.29-45.5"/><path class="cls-6" d="M160.68,109.34q-.94,2.83-1.73,5.75"/><path class="cls-9" d="M144,140.57A110.75,110.75,0,1,1,254.82,251.25"/><path class="cls-10" d="M159.79,121.59a3.1,3.1,0,1,0-4.24-1.14A3.1,3.1,0,0,0,159.79,121.59Z"/><path class="cls-11" d="M353.41,71.91a24.36,24.36,0,1,1,0-34.46A24.39,24.39,0,0,1,353.41,71.91Z"/><path class="cls-11" d="M384.76,162.11a24.37,24.37,0,1,1,0-34.46A24.38,24.38,0,0,1,384.76,162.11Z"/><path class="cls-11" d="M264.1,41.59a24.36,24.36,0,1,1,0-34.46A24.38,24.38,0,0,1,264.1,41.59Z"/><path class="cls-12" d="M256.87,20.66c0-.15,0-.3,0-.46a7.58,7.58,0,0,0-14.42-3.26,3.49,3.49,0,0,0-5.63,2.77,3.59,3.59,0,0,0,.16,1,5.13,5.13,0,0,0,2.53,9.55h15.14l.27,0a5,5,0,0,0,1.93-9.66Z"/><path class="cls-11" d="M188.9,76.1a24.36,24.36,0,1,1,0-34.46A24.38,24.38,0,0,1,188.9,76.1Z"/><path class="cls-11" d="M159.14,149.73a24.36,24.36,0,1,0-34.46,0A24.35,24.35,0,0,0,159.14,149.73Z"/><path class="cls-2" d="M138.63,127.12a2.73,2.73,0,0,1,2.7-2.75h.2a2.73,2.73,0,0,1,2.7,2.75v3.32h-5.6Zm8.31,3.32v-3.32a5.45,5.45,0,0,0-5.41-5.5h-.2a5.45,5.45,0,0,0-5.41,5.5v3.32H134v11.38H148.9V130.44Z"/><path class="cls-11" d="M339.21,250a24.36,24.36,0,1,1,0-34.45A24.39,24.39,0,0,1,339.21,250Z"/><path class="cls-2" d="M323.25,235.54a7,7,0,0,1-.56.86,5.87,5.87,0,0,1-.64.74,3.45,3.45,0,0,1-.68.51,1.42,1.42,0,0,1-.66.2,1.14,1.14,0,0,1-1-.48,2.35,2.35,0,0,1-.3-1.24,5.67,5.67,0,0,1,.22-1.5,5.12,5.12,0,0,1,.63-1.38,3.56,3.56,0,0,1,1-1,2.14,2.14,0,0,1,1.23-.39,1.94,1.94,0,0,1,.77.13,2.8,2.8,0,0,1,.6.39Zm8-6a7.84,7.84,0,0,0-2-2.76,9.09,9.09,0,0,0-3-1.74,11.51,11.51,0,0,0-3.77-.6,10.85,10.85,0,0,0-4.06.76,10.15,10.15,0,0,0-3.38,2.19,10.32,10.32,0,0,0-2.31,3.42,11.23,11.23,0,0,0-.86,4.51,11.43,11.43,0,0,0,.75,4.3c.08.21.26.61.26.61h3a6.72,6.72,0,0,1-1-1.81,9.38,9.38,0,0,1-.51-3.2,8.9,8.9,0,0,1,.61-3.34,8.38,8.38,0,0,1,1.71-2.67,8.15,8.15,0,0,1,2.58-1.76,8,8,0,0,1,3.19-.64,10.54,10.54,0,0,1,2.81.37,6.2,6.2,0,0,1,2.26,1.15,5.61,5.61,0,0,1,1.51,2,8,8,0,0,1,.28,5,5.1,5.1,0,0,1-.72,1.44,3,3,0,0,1-1,.84,2.58,2.58,0,0,1-1.13.28.71.71,0,0,1-.74-.48,3.49,3.49,0,0,1,0-1.56l1.06-6.19h-1.54l-.69.73a3.85,3.85,0,0,0-1-.63,3.14,3.14,0,0,0-1.3-.24,3.94,3.94,0,0,0-2.13.63,6.29,6.29,0,0,0-1.76,1.66,8.34,8.34,0,0,0-1.21,2.36,8.84,8.84,0,0,0-.44,2.75,4.25,4.25,0,0,0,.21,1.38,3.49,3.49,0,0,0,.56,1,2.57,2.57,0,0,0,.84.67,2.28,2.28,0,0,0,1,.24,3.61,3.61,0,0,0,1.21-.2,4.21,4.21,0,0,0,1-.56,6,6,0,0,0,.85-.82c.25-.3.49-.61.71-.93h.09a3.15,3.15,0,0,0,.09,1.19,1.71,1.71,0,0,0,.47.77,1.93,1.93,0,0,0,.8.43,4.13,4.13,0,0,0,1,.12,5.7,5.7,0,0,0,2.49-.55,6.59,6.59,0,0,0,2-1.48,7,7,0,0,0,1.36-2.22,7.53,7.53,0,0,0,.5-2.74A9,9,0,0,0,331.23,229.51Z"/><path class="cls-2" d="M342.8,50.67c0-.29.14-.44.26-.69.19,0,.26,0,.26.2.13,0,0,.17.21.09a.14.14,0,0,1,.18,0c.12,0,.15.07.24.07.09.17.36.12.35.43.19,0-.17.2-.17.16-.22.06-.27-.16-.37-.16,0,.2-.11,0-.13,0s-.67.11-.78.1S342.88,50.69,342.8,50.67Zm2.14,9.47c0-.18,0-.5.06-.5s.08-.32.09-.5h.09s0-.16.05-.19.24-.13.1-.26-.1-.27-.1-.36c-.08.08,0,.3-.14.3,0-.21-.23.12,0,.12,0,.19-.25.1-.33,0s-.07.15,0,.17c0,.15-.1,0-.17,0-.07.21-.23,1.41.23,1.31a10.59,10.59,0,0,1-18.07-10.85h0a1.18,1.18,0,0,1,.31,1,2.78,2.78,0,0,0,.06.58.88.88,0,0,1,.24.4l.2.3c.23,0,.35.1.35.31a1.59,1.59,0,0,0,.19.36,1,1,0,0,0,.22.47c0,.28.68.73.29.07a1.84,1.84,0,0,0-.25-.4c0-.11-.23-.24-.2-.33s.3.19.3.26.14.22.14.24.31.19.31.3c.18,0,.28.45.29.57s.06.39.21.39.35.09.41.21.39.14.59.14.21.21.36.21.1,0,.1.07c.15,0,.57.23.5.41.08,0,.28.25.26.35s.36.19.49.26c.12-.37.27,0,.27.15s0,.3,0,.42c.16,0,0,.26-.08.09a.16.16,0,0,0-.11.13c-.08,0-.28.53-.08.59,0,.21-.26.38,0,.5,0,0,.42.61.36.61a1.23,1.23,0,0,0,.09.29c0,.18.18.59.43.59,0,0,.26.28.22.28a6.71,6.71,0,0,1,0,1.26c-.15,0,0,1-.21,1.11,0,.16-.15.29-.1.39a3.68,3.68,0,0,1,0,.47s-.09.23-.09.28-.12.86-.1,1.16c.27.1.55.19.83.27a.31.31,0,0,1-.05-.17c-.12,0,0-.31.12-.31s.12-.15.19-.26-.05-.14-.05,0,0,0-.07.07,0-.09,0-.09.05-.19.05-.29.08-.13.12-.16.19-.12.19-.28c0,0,0-.17-.07-.17s.23.07.23-.1c0,0,.05-.11.05-.14s.12-.12.34-.12a.4.4,0,0,1,.26-.12,1.12,1.12,0,0,0,0-.26c0-.13.23-.14.23-.19a.38.38,0,0,0,.16-.34.36.36,0,0,1,.28-.25c.15,0,.05-.07.14-.07s0-.08.08-.13.05-.37.06-.49.14-.17.15-.19.15-.07.23-.07.33-.22.43-.3.17-.22.17-.41c0,0,.11-.38.11-.45s0-.35,0-.38a2,2,0,0,0,.26-.31.65.65,0,0,0,0-.88,1,1,0,0,0-.4-.25c0,.09-.11,0-.19,0s-.16.09-.29.09.06-.32-.11-.34c0,.16-.16.08-.12,0s-.15-.12-.25-.14c0,.18-.27,0-.19,0s0-.26,0-.26,0-.28-.12-.33,0-.09-.12-.23,0,0-.07-.06-.16-.15-.19,0a1.52,1.52,0,0,1-.28-.09c-.17,0,0-.06-.13-.12s-.16-.06-.16-.14-.09-.09-.1-.12,0,0,0,0,0-.06-.11-.06-.08-.09-.1-.07a.85.85,0,0,1-.39,0c-.23,0-.19-.29-.32-.3a.46.46,0,0,1-.27.11s0,0-.07-.05l-.1,0c-.05,0-.11.15-.18.11s-.05,0-.07,0,.07.35-.27.35c0-.13,0-.25-.18-.25,0,.15-.24.12-.36.11a.23.23,0,0,0-.12-.26,3.56,3.56,0,0,1-.07-.35c-.12,0,.06-.38-.14-.38a.1.1,0,0,1,0,.07,1.87,1.87,0,0,1-.41,0c0-.12-.08-.14,0-.27s.07-.21.09-.32,0-.15.14-.15,0-.21,0-.07l-.19.07s-.17.17-.17,0-.22.21-.09.24-.12.13-.12.14c-.19,0-.12,0-.13-.1s-.25-.26-.37-.26-.12-.22-.12-.37a1.51,1.51,0,0,1,0-.52.51.51,0,0,1,.45-.51c.17,0,.15.11.3.13s.13,0,.22-.06-.05-.1-.07-.16.39,0,.43.1.23-.07.29,0a.94.94,0,0,1,.14.37s.09.17.11.19.12-.13.09-.25,0-.4-.11-.47c0-.3.2-.27.31-.49.18,0,.22-.29.33-.36a1.58,1.58,0,0,1,.08-.28c0-.14.09-.13.14-.22s.22-.19.22-.16a.73.73,0,0,0,.21-.36s.15-.1.17-.14.2-.07.35-.07c0,0,0,0,0,.12h0s-.1,0-.11,0-.15.08.12.05a.34.34,0,0,1,.16-.08c0-.09.13,0,.15-.11a.28.28,0,0,1-.25-.15c-.07-.12-.22-.28,0-.28,0,0,0,0,0,0s-.16.12-.3.12-.25.23-.45.22a1.06,1.06,0,0,1,.49-.57c.3-.1.79.17.88-.2.06,0,.32.1.32,0s0-.12.07-.12-.16-.19-.2-.19c0-.19-.11,0-.16,0s0-.11-.09-.15-.19-.23-.26-.33-.2-.43-.27-.38-.08.24-.19.24-.17,0-.21,0,0,0,0-.07-.05-.08-.05-.09a1,1,0,0,1-.3-.31c-.23.08-.05,0-.27-.12-.08.2-.3,0-.43,0s-.12,0-.16,0,.1.38,0,.42c0,.09.09,0,.14.09a.4.4,0,0,1,0,.38c.2.07-.15.23-.15.13s-.13.17,0,.25,0,.19.07.19-.2.12-.31.08,0,0,0,0S332,49,332,49s-.25-.42-.25-.23c-.12,0-.25,0-.25-.12a.27.27,0,0,1-.14-.08l-.57-.11c0-.1-.22-.29-.33-.36,0-.26-.07-.5.21-.54,0,0,.25-.07.27-.08s.21.07.27-.14a.25.25,0,0,1,.32-.16c0,.16-.07.33-.21.33.1.09.37,0,.49,0a1,1,0,0,0,.22,0c-.08-.1-.57-.19-.35-.36,0,0,.2,0,.23-.16s0-.32,0-.33-.14,0-.24,0,0-.07,0-.07-.09,0-.17,0,.07.11,0,.11c0,.16,0,.31-.23.34,0-.11-.06-.32-.17-.36,0,.33-.32-.14-.38-.19a.23.23,0,0,0-.17-.17c-.05.13-.15,0-.23.15s0,.1-.06.23-.34-.07-.35,0,.15,0,.12.12c.17,0-.07.11-.07.12a1.14,1.14,0,0,1-.27,0,2,2,0,0,1-.42-.09c-.11,0-.09-.1-.13-.1-.16-.26.22-.1.22-.09s.27.17.24-.1l.14,0c0-.12-.17-.06-.26-.06a.49.49,0,0,0-.12-.24.51.51,0,0,1,0-.24s-.2.13-.22.09a10.55,10.55,0,0,1,15.31.92c-.06.18-.22,0-.29.17s-.07.15,0,.15c0,.14-.18.12-.18,0s-.15.11-.29.11c0-.09-.16-.35-.26-.35s0,0,0-.07c.29,0,.59-.05.81-.05,0-.16-.47-.36-.58-.3s-.27-.06-.36-.06-.59-.07-.68-.07-.92.14-1,.14-.28.14-.44.27c0,0-.47.4-.24.4,0,.27-.74.24-.74.41,0,0-.24,0-.14.14,0,0,.16.2.18.23s.27.07.46.07a.2.2,0,0,1,.16-.07c0,.1.09.33.15.33s.05.25-.14.15a1,1,0,0,1,0-.21c0-.13-.16.06-.28,0s0,.36.08.4-.24,0-.33.17-.18.21-.18.07c-.12.07,0,.27-.21.15,0,.05,0,.12,0,.19.14,0,0,.11-.07.11s-.15,0-.19,0v0c.12.22-.2.12-.29.07s0,.1.11.12.36.3.16.52c0,.06,0,.07.07.07s-.19.12-.3.1c.05-.09,0-.13-.1-.14s-.28.06-.4.11,0-.06-.07-.07a3.05,3.05,0,0,0-.06.62.46.46,0,0,0,.36.42c0-.06.45,0,.47-.1s.16-.15.18-.3.24-.62.24-.62.41.11.49,0,.13,0,.15-.07.17.26.24.26.32.11.4.26.12.29.12.4c.13-.1.15-.18.12-.28s.13,0,.19,0-.06-.16-.22-.12a.68.68,0,0,1,0-.14c-.22,0-.2-.29-.38-.26,0-.08-.12-.1-.07-.21s.38.32.5.32.23.07.23.12.05.2.05.29.06,0,.1.12.06.33.29.38c0-.08.23-.26.09-.26,0-.07-.15-.38.07-.34s.22,0,.24.12,0,.3.16.43.42,0,.46.07.24.09.24,0a.6.6,0,0,1,.24,0,2,2,0,0,1-.06.37c0,.08-.1.16-.07.27s-.07.1,0,.1c0,.16-.18.13-.31.12a1.33,1.33,0,0,0,.33.43.82.82,0,0,0,.21.35.67.67,0,0,0,.15.33c0,.12.41.88.31.88s.08.09.07.15c.16,0,.1.38.42.38a.86.86,0,0,1,.34-.13c.06-.12.38-.21.47-.21s.48-.32.48-.36a.33.33,0,0,0,.12-.24c0-.11.09-.12.09-.21s.17-.33,0-.38c0,.19-.14.09-.11,0s0-.12-.08-.18,0-.11-.05-.16a.46.46,0,0,1-.43.31c-.05-.14.1,0,0-.15a.26.26,0,0,1,0-.19s0,0,0,0c0,.18,0,.21-.14.21s.1-.1,0-.2a.31.31,0,0,1-.07-.18c-.05,0-.19-.26-.15-.32.12-.22.41.28.38.37s0,0,0,0c.35-.11.64.22,1,.22a1,1,0,0,0,.39.06,8.64,8.64,0,0,1,0,.88A10.54,10.54,0,0,1,344.94,60.14Zm.1-10c.14,0,.21-.14.33-.18s.16.08.27.19-.12.07-.14.07-.09,0-.17,0,.05.22.07.22.11,0,.1.2.11,0,.16,0,.13.16.14.26-.19,0-.21,0,.07.1.07.19-.08.28.1.28c0,.17-.34.11-.38,0-.29-.07-.13-.27-.14-.44s-.2-.28-.2-.45C344.89,50.44,345,50.14,345,50.12Zm-8.7-9.33A13.18,13.18,0,1,0,349.48,54,13.16,13.16,0,0,0,336.34,40.79Z"/><path class="cls-12" d="M338.16,47.28c-.08,0-.06.11-.17.07,0-.22-.06-.09-.27-.06,0,0-.3.1-.3.06a.47.47,0,0,0,0-.12h0a0,0,0,0,0,0,0,1.65,1.65,0,0,0-.22.09c.17,0,0,.14,0,.19s.22.07.33.07.29,0,.33,0a.47.47,0,0,0,.31-.09C338.24,47.36,338.16,47.37,338.16,47.28Z"/><path class="cls-12" d="M339.21,48.77c.17,0,.22.05.23.24.2.07-.14,0-.16,0s-.13.26,0,.21.14,0,.14.1c.15,0,.37,0,.45-.15.08,0,.09-.08,0-.11s0,.09-.09.09c0-.19,0-.35-.15-.35,0-.08,0-.14-.11-.19s0-.12,0-.24-.09.1-.22.1,0-.11,0-.12.16-.1,0-.1c-.06.22-.25,0-.22.21S339.21,48.64,339.21,48.77Z"/><path class="cls-12" d="M338.71,49.25c.26,0,.32-.15.4-.36s-.07-.1-.14-.09-.1-.1-.13,0a.08.08,0,0,0,.08.11s-.36.09-.19.14C338.71,49.11,338.62,49.16,338.71,49.25Z"/><path class="cls-12" d="M339.21,49.44c0,.06.1,0,.1,0h-.08S339.23,49.45,339.21,49.44Z"/><path class="cls-12" d="M334.22,50.12c.1,0,.14,0,.14-.13C334.27,50,334.24,50,334.22,50.12Z"/><path class="cls-12" d="M340.68,50.51c0,.06,0,.07-.11,0s0,.1.07.15S340.78,50.55,340.68,50.51Z"/><path class="cls-12" d="M340.66,50.76c0,.1,0,.15-.05,0s-.05.15-.05.22C340.75,51.07,340.73,50.76,340.66,50.76Z"/><path class="cls-12" d="M341.35,51.22c-.1,0-.05.09-.18,0s-.12-.1-.15,0C341.19,51.29,341.35,51.5,341.35,51.22Z"/><path class="cls-12" d="M344.75,55.15c-.19,0-.05,0-.06-.11s-.39-.49-.39-.62-.1-.21-.09-.21-.2-.22-.14-.34a1.29,1.29,0,0,1-.36-.56.51.51,0,0,1-.15-.36c-.11,0-.25-.31-.23-.43s-.12-.17-.22-.17-.64-.16-.76-.18a.16.16,0,0,0-.17-.19c0,.19-.39.21-.53.2s-.3,0-.3-.14a1.12,1.12,0,0,0-.26,0c0-.12-.21-.65-.34-.68v0c-.1,0-.71-.13-.71,0a.85.85,0,0,0-.43.2s-.31.14-.31,0a.21.21,0,0,0-.19.1c-.08,0-.16.14-.21.19s0-.1-.17.09a1,1,0,0,1-.12.33s0,.06,0,.12-.15.23-.24.27-.12,0-.19.17a2,2,0,0,1-.14.26,1.09,1.09,0,0,0-.14.61c0,.09-.09.17-.07.24a1.09,1.09,0,0,1,.07.37c-.07,0-.1.23,0,.29a1.42,1.42,0,0,0,.36.71c0,.13.25.4.38.4s.57.24.57.12c.21,0,1-.14,1.07.09.19,0,.25,0,.43,0a1.18,1.18,0,0,1-.1.62.55.55,0,0,0,.18.45s.11.21.14.21A1.57,1.57,0,0,1,341,58a5.12,5.12,0,0,0-.13.71s.05.48.1.48c0,.22.18.42.18.66a1.11,1.11,0,0,1,.07.29c-.06,0,.27.66.27.71s.07.23.12.23.07.28.07.39.36,0,.47,0a2.24,2.24,0,0,1,.58-.14L343,61c0-.16.32-.47.45-.56s.16-.41.14-.41c0-.27.07-.45.07-.69.05,0,.1-.23.2-.23s.12-.08.18-.12.12-.26.12-.45c.08,0-.05-.58-.05-.64-.16,0,0-.69,0-.78s.32-.46.31-.43c0-.13.26-.29.33-.39s.29-.25.29-.35.11-.14.19-.19,0-.17.07-.17c0-.23.16-.35.16-.58a1.73,1.73,0,0,1-.5.07S344.77,55.15,344.75,55.15Z"/><path class="cls-12" d="M331.7,53.38h-.05c-.06.16.18.13.18,0S331.73,53.47,331.7,53.38Z"/><path class="cls-12" d="M332.22,53.37c-.05.09-.14,0-.22,0a.46.46,0,0,0,.31.15.4.4,0,0,0,.37.18c.18,0,0-.15,0-.21S332.44,53.39,332.22,53.37Z"/><path class="cls-12" d="M333.27,53.82c0,.1,0,0,0,.08s-.23-.07-.32-.07.07.09.07.14-.16,0-.25,0,.27.07.3,0a2.48,2.48,0,0,1,.39,0C333.46,53.95,333.33,53.83,333.27,53.82Z"/><path class="cls-12" d="M332.33,53.95c-.05.14.05.11.12.11S332.41,54,332.33,53.95Z"/><path class="cls-12" d="M332.46,54.06l.11,0C332.55,53.89,332.47,54,332.46,54.06Z"/><path class="cls-12" d="M333.72,53.95c0,.11,0,.06.09.06S333.76,53.95,333.72,53.95Z"/><path class="cls-12" d="M333.64,54v0h.05S333.66,54,333.64,54Z"/><path class="cls-12" d="M333.14,54.85c.05,0,.05,0,.06,0l-.05,0Z"/><path class="cls-12" d="M345.11,58.49c.08,0,.07,0,.05-.09S345.11,58.42,345.11,58.49Z"/><text class="cls-13" transform="translate(160.76 62.99)">css</text><text class="cls-13" transform="translate(356.97 150.37)">div</text></g></g></svg>