<?xml version="1.0" encoding="UTF-8"?>
<svg viewBox="0 0 120 120" version="1.1" xmlns="http://www.w3.org/2000/svg" xmlns:xlink="http://www.w3.org/1999/xlink">
    <g id="Group">
        <path d="M0,60 C0,26.86 26.86,0 60,0 C93.14,0 120,26.86 120,60 C120,93.14 93.14,120 60,120 C26.86,120 0,93.14 0,60" id="Fill-195" fill="#FFFFFF"></path>
        <path d="M5,60 C5,29.62 29.62,5 60,5 C90.38,5 115,29.62 115,60 C115,90.38 90.38,115 60,115 C29.62,115 5,90.38 5,60" id="Fill-197" fill="#00A185"></path>
        <path d="M59.8701,98.5703 C81.3001,98.2693 98.5701,80.8093 98.5701,59.3093 C98.5701,37.8093 81.3001,20.3493 59.8701,20.0493 L59.8701,98.5703 Z" id="Fill-199" fill="#FFC500"></path>
        <path d="M59.5,34.6299 L56.57,58.9199 C56.54,59.0999 56.51,59.2799 56.51,59.4699 L56.51,59.4809 L56.51,59.5699 C56.51,61.2899 57.89,62.6799 59.59,62.6799 C61.29,62.6799 62.68,61.2899 62.68,59.5699 L62.68,59.4809 C62.67,59.2699 62.64,59.0599 62.6,58.8599 L59.5,34.6299 Z" id="Fill-201" fill="#FFFFFF"></path>
        <path d="M59.5,95.6396 L56.57,59.1606 C56.54,59.0306 56.51,58.8896 56.51,58.7496 L56.51,58.7406 L56.51,58.6796 C56.51,57.4106 57.89,56.3796 59.59,56.3796 C61.29,56.3796 62.68,57.4106 62.68,58.6796 L62.68,58.7406 C62.67,58.9006 62.64,59.0496 62.6,59.2006 L59.5,95.6396 Z" id="Fill-203" fill="#FFFFFF"></path>
        <path d="M20.0801,57.6299 C20.9401,37.2799 37.2801,20.9409 57.6301,20.0799 L57.6301,27.9009 L61.5501,27.9009 L61.5501,20.1099 C81.6401,21.2399 97.6901,37.4699 98.5401,57.6299 L98.5101,61.5499 C97.3901,81.4499 81.4501,97.3899 61.5501,98.5099 L61.5501,91.8399 L57.6301,91.8399 L57.6301,98.5399 C37.4701,97.6909 21.2401,81.6399 20.1101,61.5499 L27.9001,61.5499 L27.9001,57.6299 L20.0801,57.6299 Z M17.2401,59.3099 C17.2401,82.5399 36.0801,101.3799 59.3101,101.3799 C82.5401,101.3799 101.3801,82.5399 101.3801,59.3099 C101.3801,36.0799 82.5401,17.2399 59.3101,17.2399 C36.0801,17.2399 17.2401,36.0799 17.2401,59.3099 Z" id="Fill-205" fill="#FFFFFF"></path>
        <path d="M77.5636094,43.4364875 C77.5636094,44.328419 77.2934298,45.086875 76.7530625,45.7118781 C76.2126952,46.3368813 75.4542393,46.7665645 74.4776719,47.0009406 L74.4776719,47.0595344 C75.6300214,47.2027643 76.5024085,47.5526957 77.0948594,48.1093391 C77.6873103,48.6659825 77.9835312,49.4163005 77.9835312,50.3603156 C77.9835312,51.7340204 77.4854894,52.8033457 76.4893906,53.5683234 C75.4932919,54.3333012 74.0707801,54.7157844 72.2218125,54.7157844 C70.6723256,54.7157844 69.2986414,54.4586255 68.1007187,53.9443 L68.1007187,51.3759406 C68.6541069,51.6558899 69.2628248,51.8837522 69.9268906,52.0595344 C70.5909564,52.2353165 71.248502,52.3232063 71.8995469,52.3232063 C72.8956456,52.3232063 73.6313153,52.1539371 74.1065781,51.8153938 C74.5818409,51.4768504 74.8194687,50.933236 74.8194687,50.1845344 C74.8194687,49.5139581 74.546034,49.0387024 73.9991562,48.7587531 C73.4522785,48.4788038 72.5798914,48.3388313 71.3819687,48.3388313 L70.2979844,48.3388313 L70.2979844,46.0243781 L71.4015,46.0243781 C72.5082764,46.0243781 73.3171875,45.8795228 73.8282578,45.5898078 C74.3393281,45.3000928 74.5948594,44.8036785 74.5948594,44.10055 C74.5948594,43.0198154 73.9177828,42.4794563 72.5636094,42.4794563 C72.094857,42.4794563 71.6179738,42.5575805 71.1329453,42.7138313 C70.6479168,42.870082 70.1091853,43.1402616 69.5167344,43.5243781 L68.12025,41.4443 C69.4223398,40.5067953 70.9750587,40.03805 72.7784531,40.03805 C74.2563251,40.03805 75.4233056,40.3375262 76.2794297,40.9364875 C77.1355538,41.5354488 77.5636094,42.3687738 77.5636094,43.4364875 Z M89.4581406,47.3818 C89.4581406,49.8753021 89.0496161,51.7209867 88.2325547,52.9189094 C87.4154933,54.116832 86.1573679,54.7157844 84.4581406,54.7157844 C82.810997,54.7157844 81.5691474,54.097301 80.7325547,52.8603156 C79.895962,51.6233303 79.4776719,49.7971767 79.4776719,47.3818 C79.4776719,44.8622562 79.8845688,43.0051784 80.698375,41.8105109 C81.5121812,40.6158435 82.7654238,40.0185188 84.4581406,40.0185188 C86.1052843,40.0185188 87.350389,40.6435125 88.1934922,41.8935188 C89.0365954,43.143525 89.4581406,44.9729338 89.4581406,47.3818 Z M82.4757187,47.3818 C82.4757187,49.1331108 82.6270844,50.3879811 82.9298203,51.1464484 C83.2325562,51.9049158 83.7419912,52.2841438 84.4581406,52.2841438 C85.1612691,52.2841438 85.6690766,51.900033 85.9815781,51.1318 C86.2940797,50.363567 86.4503281,49.1135795 86.4503281,47.3818 C86.4503281,45.6304892 86.2924521,44.3723637 85.9766953,43.6073859 C85.6609385,42.8424082 85.1547587,42.459925 84.4581406,42.459925 C83.7485017,42.459925 83.2406942,42.8424082 82.9347031,43.6073859 C82.628712,44.3723637 82.4757187,45.6304892 82.4757187,47.3818 Z" id="30" fill="#FFFFFF"></path>
        <path d="M72.2412984,70.1386359 L70.5225484,64.53805 L70.4786031,64.53805 C70.5404524,65.6773786 70.5713766,66.4374622 70.5713766,66.8183234 L70.5713766,70.1386359 L69.2188375,70.1386359 L69.2188375,62.9999641 L71.2793844,62.9999641 L72.9688375,68.4589484 L72.9981344,68.4589484 L74.7901266,62.9999641 L76.8506734,62.9999641 L76.8506734,70.1386359 L75.4395406,70.1386359 L75.4395406,66.7597297 C75.4395406,66.6002237 75.441982,66.4163063 75.4468648,66.2079719 C75.4517477,65.9996375 75.4737201,65.4462576 75.5127828,64.5478156 L75.4688375,64.5478156 L73.6280172,70.1386359 L72.2412984,70.1386359 Z M78.6475484,70.1386359 L78.6475484,62.9999641 L80.1612203,62.9999641 L80.1612203,70.1386359 L78.6475484,70.1386359 Z M88.2911031,70.1386359 L86.367275,70.1386359 L83.2618063,64.7382453 L83.2178609,64.7382453 C83.2797102,65.6920261 83.3106344,66.3723579 83.3106344,66.7792609 L83.3106344,70.1386359 L81.9580953,70.1386359 L81.9580953,62.9999641 L83.867275,62.9999641 L86.9678609,68.3466438 L87.0020406,68.3466438 C86.9532123,67.4189047 86.9287984,66.7629868 86.9287984,66.3788703 L86.9287984,62.9999641 L88.2911031,62.9999641 L88.2911031,70.1386359 Z" id="MIN" fill="#FFFFFF"></path>
    </g>
</svg>
