<?xml version="1.0" encoding="UTF-8"?>
<svg width="840px" height="840px" viewBox="0 0 840 840" version="1.1" xmlns="http://www.w3.org/2000/svg" xmlns:xlink="http://www.w3.org/1999/xlink">
    <!-- Generator: Sketch 49.3 (51167) - http://www.bohemiancoding.com/sketch -->
    <title>Artboard 4</title>
    <desc>Created with Sketch.</desc>
    <defs></defs>
    <g id="Page-1" stroke="none" stroke-width="1" fill="none" fill-rule="evenodd">
        <g id="Artboard-4">
            <g id="Group-10">
                <path d="M0,420 C0,188.04 188.04,0 420,0 C651.96,0 840,188.04 840,420 C840,651.96 651.96,840 420,840 C188.04,840 0,651.96 0,420" id="Fill-1" fill-opacity="0.1" fill="#0077BC"></path>
                <path d="M100,420 C100,243.27 243.27,100 420,100 C596.73,100 740,243.27 740,420 C740,596.73 596.73,740 420,740 C243.27,740 100,596.73 100,420" id="Fill-3" fill="#0077BC" opacity="0.0969769022"></path>
                <path d="M200,420 C200,298.5 298.5,200 420,200 C541.5,200 640,298.5 640,420 C640,541.5 541.5,640 420,640 C298.5,640 200,541.5 200,420" id="Fill-5" fill="#0077BC"></path>
                <path d="M587,424 L593,424" id="Stroke-8" stroke="#FFFFFF" stroke-linecap="square" stroke-linejoin="round"></path>
                <path d="M605,424 L671,424" id="Stroke-9" stroke="#FFFFFF" stroke-linecap="square" stroke-linejoin="round" stroke-dasharray="12,12"></path>
                <path d="M677,424 L683,424" id="Stroke-10" stroke="#FFFFFF" stroke-linecap="square" stroke-linejoin="round"></path>
                <path d="M690,412.5 C696.35,412.5 701.5,417.65 701.5,424 C701.5,430.35 696.35,435.5 690,435.5 C683.65,435.5 678.5,430.35 678.5,424 C678.5,417.65 683.65,412.5 690,412.5" id="Fill-11" fill="#FFFFFF"></path>
                <path d="M690,411 C697.18,411 703,416.82 703,424 C703,431.18 697.18,437 690,437 C682.82,437 677,431.18 677,424 C677,416.82 682.82,411 690,411 M690,409 C681.72,409 675,415.72 675,424 C675,432.28 681.72,439 690,439 C698.28,439 705,432.28 705,424 C705,415.72 698.28,409 690,409" id="Fill-13" fill="#FFFFFF"></path>
                <path d="M660,268.5 C666.35,268.5 671.5,273.65 671.5,280 C671.5,286.35 666.35,291.5 660,291.5 C653.65,291.5 648.5,286.35 648.5,280 C648.5,273.65 653.65,268.5 660,268.5" id="Fill-15" fill="#FFFFFF"></path>
                <path d="M660,267 C667.18,267 673,272.82 673,280 C673,287.18 667.18,293 660,293 C652.82,293 647,287.18 647,280 C647,272.82 652.82,267 660,267 M660,265 C651.72,265 645,271.72 645,280 C645,288.28 651.72,295 660,295 C668.28,295 675,288.28 675,280 C675,271.72 668.28,265 660,265" id="Fill-17" fill="#FFFFFF"></path>
                <path d="M181,268.5 C187.35,268.5 192.5,273.65 192.5,280 C192.5,286.35 187.35,291.5 181,291.5 C174.65,291.5 169.5,286.35 169.5,280 C169.5,273.65 174.65,268.5 181,268.5" id="Fill-19" fill="#FFFFFF"></path>
                <path d="M181,267 C188.18,267 194,272.82 194,280 C194,287.18 188.18,293 181,293 C173.82,293 168,287.18 168,280 C168,272.82 173.82,267 181,267 M181,265 C172.72,265 166,271.72 166,280 C166,288.28 172.72,295 181,295 C189.28,295 196,288.28 196,280 C196,271.72 189.28,265 181,265" id="Fill-21" fill="#FFFFFF"></path>
                <path d="M253,424 L247,424" id="Stroke-23" stroke="#FFFFFF" stroke-linecap="square" stroke-linejoin="round"></path>
                <path d="M235,424 L169,424" id="Stroke-25" stroke="#FFFFFF" stroke-linecap="square" stroke-linejoin="round" stroke-dasharray="12,12"></path>
                <path d="M163,424 L157,424" id="Stroke-27" stroke="#FFFFFF" stroke-linecap="square" stroke-linejoin="round"></path>
                <path d="M150,412.5 C143.65,412.5 138.5,417.65 138.5,424 C138.5,430.35 143.65,435.5 150,435.5 C156.35,435.5 161.5,430.35 161.5,424 C161.5,417.65 156.35,412.5 150,412.5" id="Fill-29" fill="#FFFFFF"></path>
                <path d="M150,411 C142.82,411 137,416.82 137,424 C137,431.18 142.82,437 150,437 C157.18,437 163,431.18 163,424 C163,416.82 157.18,411 150,411 M150,409 C158.28,409 165,415.72 165,424 C165,432.28 158.28,439 150,439 C141.72,439 135,432.28 135,424 C135,415.72 141.72,409 150,409" id="Fill-31" fill="#FFFFFF"></path>
                <path d="M265,490 L265,484" id="Stroke-33" stroke="#FFFFFF" stroke-linecap="square" stroke-linejoin="round"></path>
                <path d="M265,472.46 L265,300 C265,288.95 256.05,280 245,280 L200.77,280" id="Stroke-35" stroke="#FFFFFF" stroke-linecap="square" stroke-linejoin="round" stroke-dasharray="11.54,11.54"></path>
                <path d="M195,280 L189,280" id="Stroke-37" stroke="#FFFFFF" stroke-linecap="square" stroke-linejoin="round"></path>
                <path d="M576,490 L576,484" id="Stroke-39" stroke="#FFFFFF" stroke-linecap="square" stroke-linejoin="round"></path>
                <path d="M576,472.46 L576,300 C576,288.95 584.95,280 596,280 L640.23,280" id="Stroke-41" stroke="#FFFFFF" stroke-linecap="square" stroke-linejoin="round" stroke-dasharray="11.54,11.54"></path>
                <path d="M646,280 L652,280" id="Stroke-43" stroke="#FFFFFF" stroke-linecap="square" stroke-linejoin="round"></path>
                <path d="M199.4199,351 L310.5799,351 C313.0199,351 314.9999,352.99 314.9999,355.44 L314.9999,558.56 C314.9999,561.01 313.0199,563 310.5799,563 L199.4199,563 C196.9799,563 194.9999,561.01 194.9999,558.56 L194.9999,355.44 C194.9999,352.99 196.9799,351 199.4199,351" id="Fill-45" fill="#9FBDCB"></path>
                <path d="M207.54,508 C206.14,508 205,509.13 205,510.53 L205,547.47 C205,548.87 206.14,550 207.54,550 L207.72,550 C209.13,550 210.26,548.87 210.26,547.47 L210.26,510.53 C210.26,509.13 209.13,508 207.72,508 L207.54,508 Z M218.07,508 C216.66,508 215.53,509.13 215.53,510.53 L215.53,547.47 C215.53,548.87 216.66,550 218.07,550 L218.25,550 C219.65,550 220.79,548.87 220.79,547.47 L220.79,510.53 C220.79,509.13 219.65,508 218.25,508 L218.07,508 Z M228.59,508 C227.19,508 226.05,509.13 226.05,510.53 L226.05,547.47 C226.05,548.87 227.19,550 228.59,550 L228.77,550 C230.18,550 231.32,548.87 231.32,547.47 L231.32,510.53 C231.32,509.13 230.18,508 228.77,508 L228.59,508 Z M239.12,508 C237.72,508 236.58,509.13 236.58,510.53 L236.58,547.47 C236.58,548.87 237.72,550 239.12,550 L239.3,550 C240.7,550 241.84,548.87 241.84,547.47 L241.84,510.53 C241.84,509.13 240.7,508 239.3,508 L239.12,508 Z M249.65,508 C248.24,508 247.11,509.13 247.11,510.53 L247.11,547.47 C247.11,548.87 248.24,550 249.65,550 L249.83,550 C251.23,550 252.37,548.87 252.37,547.47 L252.37,510.53 C252.37,509.13 251.23,508 249.83,508 L249.65,508 Z M260.17,508 C258.77,508 257.63,509.13 257.63,510.53 L257.63,547.47 C257.63,548.87 258.77,550 260.17,550 L260.35,550 C261.76,550 262.89,548.87 262.89,547.47 L262.89,510.53 C262.89,509.13 261.76,508 260.35,508 L260.17,508 Z M270.7,508 C269.3,508 268.16,509.13 268.16,510.53 L268.16,547.47 C268.16,548.87 269.3,550 270.7,550 L270.88,550 C272.28,550 273.42,548.87 273.42,547.47 L273.42,510.53 C273.42,509.13 272.28,508 270.88,508 L270.7,508 Z M281.23,508 C279.82,508 278.68,509.13 278.68,510.53 L278.68,547.47 C278.68,548.87 279.82,550 281.23,550 L281.41,550 C282.81,550 283.95,548.87 283.95,547.47 L283.95,510.53 C283.95,509.13 282.81,508 281.41,508 L281.23,508 Z M291.75,508 C290.35,508 289.21,509.13 289.21,510.53 L289.21,547.47 C289.21,548.87 290.35,550 291.75,550 L291.93,550 C293.34,550 294.47,548.87 294.47,547.47 L294.47,510.53 C294.47,509.13 293.34,508 291.93,508 L291.75,508 Z M302.28,508 C300.88,508 299.74,509.13 299.74,510.53 L299.74,547.47 C299.74,548.87 300.88,550 302.28,550 L302.46,550 C303.86,550 305,548.87 305,547.47 L305,510.53 C305,509.13 303.86,508 302.46,508 L302.28,508 Z" id="Fill-47" fill="#B3CAD5"></path>
                <path d="M267.22,418.54 L297.22,418.54 L297.22,408.16 L267.22,408.16 L267.22,418.54 Z M253.89,418.54 L257.22,418.54 L257.22,408.16 L253.89,408.16 L253.89,418.54 Z M247.22,418.54 L250.56,418.54 L250.56,408.16 L247.22,408.16 L247.22,418.54 Z M240.56,418.54 L243.89,418.54 L243.89,408.16 L240.56,408.16 L240.56,418.54 Z M225,418.54 L228.33,418.54 L228.33,415.08 L225,415.08 L225,418.54 Z M225,411.62 L228.33,411.62 L228.33,408.16 L225,408.16 L225,411.62 Z M218.33,418.54 L221.67,418.54 L221.67,415.08 L218.33,415.08 L218.33,418.54 Z M218.33,411.62 L221.67,411.62 L221.67,408.16 L218.33,408.16 L218.33,411.62 Z M211.67,418.54 L215,418.54 L215,415.08 L211.67,415.08 L211.67,418.54 Z M211.67,411.62 L215,411.62 L215,408.16 L211.67,408.16 L211.67,411.62 Z M205,404.7 L205,408.16 L208.33,408.16 L208.33,418.54 L205,418.54 L205,422 L305,422 L305,418.54 L301.67,418.54 L301.67,408.16 L305,408.16 L305,404.7 L205,404.7 Z M270.56,415.08 L293.89,415.08 L293.89,411.62 L270.56,411.62 L270.56,415.08 Z M267.22,396.691 L297.22,396.691 L297.22,386.31 L267.22,386.31 L267.22,396.691 Z M253.89,396.691 L257.22,396.691 L257.22,386.31 L253.89,386.31 L253.89,396.691 Z M247.22,396.691 L250.56,396.691 L250.56,386.31 L247.22,386.31 L247.22,396.691 Z M240.56,396.691 L243.89,396.691 L243.89,386.31 L240.56,386.31 L240.56,396.691 Z M225,396.69 L228.33,396.69 L228.33,393.23 L225,393.23 L225,396.69 Z M225,389.77 L228.33,389.77 L228.33,386.31 L225,386.31 L225,389.77 Z M218.33,396.69 L221.67,396.69 L221.67,393.23 L218.33,393.23 L218.33,396.69 Z M218.33,389.77 L221.67,389.77 L221.67,386.31 L218.33,386.31 L218.33,389.77 Z M211.67,396.69 L215,396.69 L215,393.23 L211.67,393.23 L211.67,396.69 Z M211.67,389.77 L215,389.77 L215,386.31 L211.67,386.31 L211.67,389.77 Z M205,382.85 L205,386.31 L208.33,386.31 L208.33,396.69 L205,396.69 L205,400.15 L305,400.15 L305,396.69 L301.67,396.69 L301.67,386.31 L305,386.31 L305,382.85 L205,382.85 Z M270.56,393.23 L293.89,393.23 L293.89,389.769 L270.56,389.769 L270.56,393.23 Z M267.22,374.84 L297.22,374.84 L297.22,364.46 L267.22,364.46 L267.22,374.84 Z M253.89,374.84 L257.22,374.84 L257.22,364.46 L253.89,364.46 L253.89,374.84 Z M247.22,374.84 L250.56,374.84 L250.56,364.46 L247.22,364.46 L247.22,374.84 Z M240.56,374.84 L243.89,374.84 L243.89,364.46 L240.56,364.46 L240.56,374.84 Z M225,374.84 L228.33,374.84 L228.33,371.38 L225,371.38 L225,374.84 Z M225,367.92 L228.33,367.92 L228.33,364.46 L225,364.46 L225,367.92 Z M218.33,374.84 L221.67,374.84 L221.67,371.38 L218.33,371.38 L218.33,374.84 Z M218.33,367.92 L221.67,367.92 L221.67,364.46 L218.33,364.46 L218.33,367.92 Z M211.67,374.84 L215,374.84 L215,371.38 L211.67,371.38 L211.67,374.84 Z M211.67,367.92 L215,367.92 L215,364.46 L211.67,364.46 L211.67,367.92 Z M205,361 L205,364.46 L208.33,364.46 L208.33,374.84 L205,374.84 L205,378.3 L305,378.3 L305,374.84 L301.67,374.84 L301.67,364.46 L305,364.46 L305,361 L205,361 Z M270.56,371.38 L293.89,371.38 L293.89,367.92 L270.56,367.92 L270.56,371.38 Z" id="Fill-49" fill="#B3CAD5"></path>
                <path d="M529.4199,351 L640.5799,351 C643.0199,351 644.9999,352.99 644.9999,355.44 L644.9999,558.56 C644.9999,561.01 643.0199,563 640.5799,563 L529.4199,563 C526.9799,563 524.9999,561.01 524.9999,558.56 L524.9999,355.44 C524.9999,352.99 526.9799,351 529.4199,351" id="Fill-51" fill="#9FBDCB"></path>
                <path d="M537.54,508 C536.14,508 535,509.13 535,510.53 L535,547.47 C535,548.87 536.14,550 537.54,550 L537.72,550 C539.13,550 540.26,548.87 540.26,547.47 L540.26,510.53 C540.26,509.13 539.13,508 537.72,508 L537.54,508 Z M548.07,508 C546.66,508 545.53,509.13 545.53,510.53 L545.53,547.47 C545.53,548.87 546.66,550 548.07,550 L548.25,550 C549.65,550 550.79,548.87 550.79,547.47 L550.79,510.53 C550.79,509.13 549.65,508 548.25,508 L548.07,508 Z M558.59,508 C557.19,508 556.05,509.13 556.05,510.53 L556.05,547.47 C556.05,548.87 557.19,550 558.59,550 L558.77,550 C560.18,550 561.32,548.87 561.32,547.47 L561.32,510.53 C561.32,509.13 560.18,508 558.77,508 L558.59,508 Z M569.12,508 C567.72,508 566.58,509.13 566.58,510.53 L566.58,547.47 C566.58,548.87 567.72,550 569.12,550 L569.3,550 C570.7,550 571.84,548.87 571.84,547.47 L571.84,510.53 C571.84,509.13 570.7,508 569.3,508 L569.12,508 Z M579.65,508 C578.24,508 577.11,509.13 577.11,510.53 L577.11,547.47 C577.11,548.87 578.24,550 579.65,550 L579.83,550 C581.23,550 582.37,548.87 582.37,547.47 L582.37,510.53 C582.37,509.13 581.23,508 579.83,508 L579.65,508 Z M590.17,508 C588.77,508 587.63,509.13 587.63,510.53 L587.63,547.47 C587.63,548.87 588.77,550 590.17,550 L590.35,550 C591.76,550 592.89,548.87 592.89,547.47 L592.89,510.53 C592.89,509.13 591.76,508 590.35,508 L590.17,508 Z M600.7,508 C599.3,508 598.16,509.13 598.16,510.53 L598.16,547.47 C598.16,548.87 599.3,550 600.7,550 L600.88,550 C602.28,550 603.42,548.87 603.42,547.47 L603.42,510.53 C603.42,509.13 602.28,508 600.88,508 L600.7,508 Z M611.23,508 C609.82,508 608.68,509.13 608.68,510.53 L608.68,547.47 C608.68,548.87 609.82,550 611.23,550 L611.41,550 C612.81,550 613.95,548.87 613.95,547.47 L613.95,510.53 C613.95,509.13 612.81,508 611.41,508 L611.23,508 Z M621.75,508 C620.35,508 619.21,509.13 619.21,510.53 L619.21,547.47 C619.21,548.87 620.35,550 621.75,550 L621.93,550 C623.34,550 624.47,548.87 624.47,547.47 L624.47,510.53 C624.47,509.13 623.34,508 621.93,508 L621.75,508 Z M632.28,508 C630.88,508 629.74,509.13 629.74,510.53 L629.74,547.47 C629.74,548.87 630.88,550 632.28,550 L632.46,550 C633.86,550 635,548.87 635,547.47 L635,510.53 C635,509.13 633.86,508 632.46,508 L632.28,508 Z" id="Fill-52" fill="#B3CAD5"></path>
                <path d="M597.22,418.54 L627.22,418.54 L627.22,408.16 L597.22,408.16 L597.22,418.54 Z M583.89,418.54 L587.22,418.54 L587.22,408.16 L583.89,408.16 L583.89,418.54 Z M577.22,418.54 L580.56,418.54 L580.56,408.16 L577.22,408.16 L577.22,418.54 Z M570.56,418.54 L573.89,418.54 L573.89,408.16 L570.56,408.16 L570.56,418.54 Z M555,418.54 L558.33,418.54 L558.33,415.08 L555,415.08 L555,418.54 Z M555,411.62 L558.33,411.62 L558.33,408.16 L555,408.16 L555,411.62 Z M548.33,418.54 L551.67,418.54 L551.67,415.08 L548.33,415.08 L548.33,418.54 Z M548.33,411.62 L551.67,411.62 L551.67,408.16 L548.33,408.16 L548.33,411.62 Z M541.67,418.54 L545,418.54 L545,415.08 L541.67,415.08 L541.67,418.54 Z M541.67,411.62 L545,411.62 L545,408.16 L541.67,408.16 L541.67,411.62 Z M535,404.7 L535,408.16 L538.33,408.16 L538.33,418.54 L535,418.54 L535,422 L635,422 L635,418.54 L631.67,418.54 L631.67,408.16 L635,408.16 L635,404.7 L535,404.7 Z M600.56,415.08 L623.89,415.08 L623.89,411.62 L600.56,411.62 L600.56,415.08 Z M597.22,396.691 L627.22,396.691 L627.22,386.31 L597.22,386.31 L597.22,396.691 Z M583.89,396.691 L587.22,396.691 L587.22,386.31 L583.89,386.31 L583.89,396.691 Z M577.22,396.691 L580.56,396.691 L580.56,386.31 L577.22,386.31 L577.22,396.691 Z M570.56,396.691 L573.89,396.691 L573.89,386.31 L570.56,386.31 L570.56,396.691 Z M555,396.69 L558.33,396.69 L558.33,393.23 L555,393.23 L555,396.69 Z M555,389.77 L558.33,389.77 L558.33,386.31 L555,386.31 L555,389.77 Z M548.33,396.69 L551.67,396.69 L551.67,393.23 L548.33,393.23 L548.33,396.69 Z M548.33,389.77 L551.67,389.77 L551.67,386.31 L548.33,386.31 L548.33,389.77 Z M541.67,396.69 L545,396.69 L545,393.23 L541.67,393.23 L541.67,396.69 Z M541.67,389.77 L545,389.77 L545,386.31 L541.67,386.31 L541.67,389.77 Z M535,382.85 L535,386.31 L538.33,386.31 L538.33,396.69 L535,396.69 L535,400.15 L635,400.15 L635,396.69 L631.67,396.69 L631.67,386.31 L635,386.31 L635,382.85 L535,382.85 Z M600.56,393.23 L623.89,393.23 L623.89,389.769 L600.56,389.769 L600.56,393.23 Z M597.22,374.84 L627.22,374.84 L627.22,364.46 L597.22,364.46 L597.22,374.84 Z M583.89,374.84 L587.22,374.84 L587.22,364.46 L583.89,364.46 L583.89,374.84 Z M577.22,374.84 L580.56,374.84 L580.56,364.46 L577.22,364.46 L577.22,374.84 Z M570.56,374.84 L573.89,374.84 L573.89,364.46 L570.56,364.46 L570.56,374.84 Z M555,374.84 L558.33,374.84 L558.33,371.38 L555,371.38 L555,374.84 Z M555,367.92 L558.33,367.92 L558.33,364.46 L555,364.46 L555,367.92 Z M548.33,374.84 L551.67,374.84 L551.67,371.38 L548.33,371.38 L548.33,374.84 Z M548.33,367.92 L551.67,367.92 L551.67,364.46 L548.33,364.46 L548.33,367.92 Z M541.67,374.84 L545,374.84 L545,371.38 L541.67,371.38 L541.67,374.84 Z M541.67,367.92 L545,367.92 L545,364.46 L541.67,364.46 L541.67,367.92 Z M535,361 L535,364.46 L538.33,364.46 L538.33,374.84 L535,374.84 L535,378.3 L635,378.3 L635,374.84 L631.67,374.84 L631.67,364.46 L635,364.46 L635,361 L535,361 Z M600.56,371.38 L623.89,371.38 L623.89,367.92 L600.56,367.92 L600.56,371.38 Z" id="Fill-53" fill="#B3CAD5"></path>
                <path d="M648.7402,514.1602 C648.7402,514.1602 669.0302,512.5102 676.6202,525.0002 C683.3102,536.0102 679.5102,552.2202 667.1302,556.0502 C653.8002,560.1702 651.6202,573.0002 651.6202,573.0002" id="Stroke-54" stroke="#9FBDCB" stroke-width="2" stroke-linecap="round" stroke-linejoin="round"></path>
                <path d="M650,514 C650,511.24 647.78,509 645.04,509 L645,509 L645,519 L645.04,519 C647.78,519 650,516.76 650,514" id="Fill-55" fill="#FFFFFF"></path>
                <path d="M191.1499,514.1602 C191.1499,514.1602 170.8499,512.5102 163.2599,525.0002 C156.5699,536.0102 160.3799,552.2202 172.7499,556.0502 C186.0799,560.1702 188.2599,573.0002 188.2599,573.0002" id="Stroke-56" stroke="#9FBDCB" stroke-width="2" stroke-linecap="round" stroke-linejoin="round"></path>
                <path d="M189.8799,514 C189.8799,511.24 192.1099,509 194.8499,509 L194.8799,509 L194.8799,519 L194.8499,519 C192.1099,519 189.8799,516.76 189.8799,514" id="Fill-57" fill="#FFFFFF"></path>
                <path d="M204.9302,565.29 C204.9302,528.13 234.8402,498 271.7402,498 C308.6502,498 338.5602,528.13 338.5602,565.29 C338.5602,602.46 308.6502,632.59 271.7402,632.59 C234.8402,632.59 204.9302,602.46 204.9302,565.29" id="Fill-58" fill="#F7FCFF"></path>
                <path d="M272.3198,575.6504 C272.3198,541.6604 299.6698,514.0994 333.4198,514.0994 C367.1698,514.0994 394.5298,541.6604 394.5298,575.6504 C394.5298,609.6394 367.1698,637.1904 333.4198,637.1904 C299.6698,637.1904 272.3198,609.6394 272.3198,575.6504" id="Fill-59" fill="#F7FCFF"></path>
                <path d="M344.5898,581.6904 C344.5898,552.0094 368.5398,527.9504 398.0898,527.9504 C427.6398,527.9504 451.5998,552.0094 451.5998,581.6904 C451.5998,611.3704 427.6398,635.4294 398.0898,635.4294 C368.5398,635.4294 344.5898,611.3704 344.5898,581.6904" id="Fill-60" fill="#FFFFFF"></path>
                <path d="M162.6699,577.9502 C162.6699,549.6792 185.4299,526.7602 213.4999,526.7602 C241.5699,526.7602 264.3199,549.6792 264.3199,577.9502 C264.3199,606.2202 241.5699,629.1392 213.4999,629.1392 C185.4299,629.1392 162.6699,606.2202 162.6699,577.9502" id="Fill-61" fill="#F7FCFF"></path>
                <path d="M127,579.9297 C127,559.9807 142.97,543.8097 162.67,543.8097 C182.37,543.8097 198.34,559.9807 198.34,579.9297 C198.34,599.8797 182.37,616.0497 162.67,616.0497 C142.97,616.0497 127,599.8797 127,579.9297" id="Fill-62" fill="#FFFFFF"></path>
                <path d="M401.6602,579.9297 C401.6602,559.9807 417.6302,543.8097 437.3302,543.8097 C457.0302,543.8097 473.0002,559.9807 473.0002,579.9297 C473.0002,599.8797 457.0302,616.0497 437.3302,616.0497 C417.6302,616.0497 401.6602,599.8797 401.6602,579.9297" id="Fill-63" fill="#FFFFFF"></path>
                <path d="M205.7002,584.3301 C210.5902,616.6401 238.3002,641.4001 271.7402,641.4001 C305.1902,641.4001 332.9002,616.6401 337.7902,584.3301 L205.7002,584.3301 Z" id="Fill-64" fill="#FFFFFF"></path>
                <path d="M272.3198,584.46 C272.3198,618.45 299.6698,646 333.4198,646 C367.1698,646 394.5298,618.45 394.5298,584.46 L394.5298,584.33 L272.3198,584.33 L272.3198,584.46 Z" id="Fill-65" fill="#FFFFFF"></path>
                <path d="M344.5898,590.5 C344.5898,620.18 368.5398,644.24 398.0898,644.24 C427.6398,644.24 451.5998,620.18 451.5998,590.5 C451.5998,588.41 451.4798,586.36 451.2498,584.33 L344.9398,584.33 C344.7098,586.36 344.5898,588.41 344.5898,590.5" id="Fill-66" fill="#FFFFFF"></path>
                <path d="M162.6699,586.7598 C162.6699,615.0308 185.4299,637.9498 213.4999,637.9498 C241.5699,637.9498 264.3199,615.0308 264.3199,586.7598 C264.3199,585.9498 264.2999,585.1398 264.2699,584.3298 L162.7199,584.3298 C162.6899,585.1398 162.6699,585.9498 162.6699,586.7598" id="Fill-67" fill="#FFFFFF"></path>
                <path d="M127,588.7402 C127,608.6902 142.97,624.8602 162.67,624.8602 C182.37,624.8602 198.34,608.6902 198.34,588.7402 C198.34,587.2502 198.25,585.7802 198.08,584.3302 L127.26,584.3302 C127.09,585.7802 127,587.2502 127,588.7402" id="Fill-68" fill="#FFFFFF"></path>
                <path d="M401.6602,588.7402 C401.6602,608.6902 417.6302,624.8602 437.3302,624.8602 C457.0302,624.8602 473.0002,608.6902 473.0002,588.7402 C473.0002,587.2502 472.9102,585.7802 472.7402,584.3302 L401.9202,584.3302 C401.7402,585.7802 401.6602,587.2502 401.6602,588.7402" id="Fill-69" fill="#FFFFFF"></path>
                <path d="M465.73,563 C465.73,529.72 492.43,502.75 525.36,502.75 C558.3,502.75 585,529.72 585,563 C585,596.27 558.3,623.24 525.36,623.24 C492.43,623.24 465.73,596.27 465.73,563" id="Fill-70" fill="#F7FCFF"></path>
                <path d="M515.4302,559.3203 C515.4302,523.2503 544.3802,494.0003 580.0902,494.0003 C615.7902,494.0003 644.7402,523.2503 644.7402,559.3203 C644.7402,595.4003 615.7902,624.6503 580.0902,624.6503 C544.3802,624.6503 515.4302,595.4003 515.4302,559.3203" id="Fill-71" fill="#F7FCFF"></path>
                <path d="M590.3799,577.6797 C590.3799,551.1107 611.7599,529.5707 638.1399,529.5707 C664.5199,529.5707 685.8999,551.1107 685.8999,577.6797 C685.8999,604.2497 664.5199,625.7897 638.1399,625.7897 C611.7599,625.7897 590.3799,604.2497 590.3799,577.6797" id="Fill-72" fill="#F7FCFF"></path>
                <path d="M428.0098,574.3301 C428.0098,549.0101 448.3198,528.5001 473.3698,528.5001 C498.4298,528.5001 518.7398,549.0101 518.7398,574.3301 C518.7398,599.6401 498.4298,620.1501 473.3698,620.1501 C448.3198,620.1501 428.0098,599.6401 428.0098,574.3301" id="Fill-73" fill="#FFFFFF"></path>
                <path d="M415,576.0996 C415,558.2406 429.25,543.7596 446.84,543.7596 C464.42,543.7596 478.68,558.2406 478.68,576.0996 C478.68,593.9596 464.42,608.4296 446.84,608.4296 C429.25,608.4296 415,593.9596 415,576.0996" id="Fill-74" fill="#FFFFFF"></path>
                <path d="M641.3198,576.0996 C641.3198,558.2406 655.5798,543.7596 673.1598,543.7596 C690.7498,543.7596 704.9998,558.2406 704.9998,576.0996 C704.9998,593.9596 690.7498,608.4296 673.1598,608.4296 C655.5798,608.4296 641.3198,593.9596 641.3198,576.0996" id="Fill-75" fill="#FFFFFF"></path>
                <path d="M466.4102,580.04 C470.7802,608.97 495.5102,631.13 525.3602,631.13 C555.2202,631.13 579.9502,608.97 584.3202,580.04 L466.4102,580.04 Z" id="Fill-76" fill="#FFFFFF"></path>
                <path d="M515.4302,568.6797 C515.4302,604.7497 544.3802,633.9997 580.0902,633.9997 C615.7902,633.9997 644.7402,604.7497 644.7402,568.6797 L644.7402,568.5397 L515.4402,568.5397 L515.4302,568.6797 Z" id="Fill-77" fill="#FFFFFF"></path>
                <path d="M590.3799,585.5596 C590.3799,612.1296 611.7599,633.6696 638.1399,633.6696 C664.5199,633.6696 685.8999,612.1296 685.8999,585.5596 C685.8999,583.7006 685.7899,581.8496 685.5899,580.0396 L590.6899,580.0396 C590.4899,581.8496 590.3799,583.7006 590.3799,585.5596" id="Fill-78" fill="#FFFFFF"></path>
                <path d="M428.0098,582.21 C428.0098,607.52 448.3198,628.04 473.3698,628.04 C498.4298,628.04 518.7398,607.52 518.7398,582.21 C518.7398,581.481 518.7198,580.76 518.6898,580.04 L428.0498,580.04 C428.0198,580.76 428.0098,581.481 428.0098,582.21" id="Fill-79" fill="#FFFFFF"></path>
                <path d="M415,583.9902 C415,601.8402 429.25,616.3202 446.84,616.3202 C464.42,616.3202 478.68,601.8402 478.68,583.9902 C478.68,582.6502 478.6,581.3302 478.45,580.0402 L415.23,580.0402 C415.08,581.3302 415,582.6502 415,583.9902" id="Fill-80" fill="#FFFFFF"></path>
                <path d="M641.3198,583.9902 C641.3198,601.8402 655.5798,616.3202 673.1598,616.3202 C690.7498,616.3202 704.9998,601.8402 704.9998,583.9902 C704.9998,582.6502 704.9198,581.3302 704.7698,580.0402 L641.5498,580.0402 C641.3998,581.3302 641.3198,582.6502 641.3198,583.9902" id="Fill-81" fill="#FFFFFF"></path>
                <path d="M336.8599,260 L503.7699,260 C506.2099,260 508.1899,261.99 508.1899,264.44 L508.1899,566.19 C508.1899,568.64 506.2099,570.62 503.7699,570.62 L336.8599,570.62 C334.4199,570.62 332.4399,568.64 332.4399,566.19 L332.4399,264.44 C332.4399,261.99 334.4199,260 336.8599,260" id="Fill-82" fill="#0081BC"></path>
                <path d="M344.1499,495 C342.6899,495 341.4999,496.19 341.4999,497.66 L341.4999,559.34 C341.4999,560.81 342.6899,562 344.1499,562 L347.8499,562 C349.3099,562 350.4999,560.81 350.4999,559.34 L350.4999,497.66 C350.4999,496.19 349.3099,495 347.8499,495 L344.1499,495 Z M361.1499,495 C359.6899,495 358.4999,496.19 358.4999,497.66 L358.4999,559.34 C358.4999,560.81 359.6899,562 361.1499,562 L363.8499,562 C365.3099,562 366.4999,560.81 366.4999,559.34 L366.4999,497.66 C366.4999,496.19 365.3099,495 363.8499,495 L361.1499,495 Z M378.1499,495 C376.6899,495 375.4999,496.19 375.4999,497.66 L375.4999,559.34 C375.4999,560.81 376.6899,562 378.1499,562 L380.8499,562 C382.3099,562 383.4999,560.81 383.4999,559.34 L383.4999,497.66 C383.4999,496.19 382.3099,495 380.8499,495 L378.1499,495 Z M395.1499,495 C393.6899,495 392.4999,496.19 392.4999,497.66 L392.4999,559.34 C392.4999,560.81 393.6899,562 395.1499,562 L397.8499,562 C399.3099,562 400.4999,560.81 400.4999,559.34 L400.4999,497.66 C400.4999,496.19 399.3099,495 397.8499,495 L395.1499,495 Z M411.1499,495 C409.6899,495 408.4999,496.19 408.4999,497.66 L408.4999,559.34 C408.4999,560.81 409.6899,562 411.1499,562 L413.8499,562 C415.3099,562 416.4999,560.81 416.4999,559.34 L416.4999,497.66 C416.4999,496.19 415.3099,495 413.8499,495 L411.1499,495 Z M428.1499,495 C426.6899,495 425.4999,496.19 425.4999,497.66 L425.4999,559.34 C425.4999,560.81 426.6899,562 428.1499,562 L430.8499,562 C432.3099,562 433.4999,560.81 433.4999,559.34 L433.4999,497.66 C433.4999,496.19 432.3099,495 430.8499,495 L428.1499,495 Z M445.1499,495 C443.6899,495 442.4999,496.19 442.4999,497.66 L442.4999,559.34 C442.4999,560.81 443.6899,562 445.1499,562 L447.8499,562 C449.3099,562 450.4999,560.81 450.4999,559.34 L450.4999,497.66 C450.4999,496.19 449.3099,495 447.8499,495 L445.1499,495 Z M462.1499,495 C460.6899,495 459.4999,496.19 459.4999,497.66 L459.4999,559.34 C459.4999,560.81 460.6899,562 462.1499,562 L464.8499,562 C466.3099,562 467.4999,560.81 467.4999,559.34 L467.4999,497.66 C467.4999,496.19 466.3099,495 464.8499,495 L462.1499,495 Z M478.1499,495 C476.6899,495 475.4999,496.19 475.4999,497.66 L475.4999,559.34 C475.4999,560.81 476.6899,562 478.1499,562 L480.8499,562 C482.3099,562 483.4999,560.81 483.4999,559.34 L483.4999,497.66 C483.4999,496.19 482.3099,495 480.8499,495 L478.1499,495 Z M495.1499,495 C493.6899,495 492.4999,496.19 492.4999,497.66 L492.4999,559.34 C492.4999,560.81 493.6899,562 495.1499,562 L497.8499,562 C499.3099,562 500.4999,560.81 500.4999,559.34 L500.4999,497.66 C500.4999,496.19 499.3099,495 497.8499,495 L495.1499,495 Z" id="Fill-83" fill="#FFFFFF"></path>
                <path d="M439.06,422.231 L487.06,422.231 L487.06,405.56 L439.06,405.56 L439.06,422.231 Z M417.72,422.231 L423.06,422.231 L423.06,405.56 L417.72,405.56 L417.72,422.231 Z M407.06,422.231 L412.39,422.231 L412.39,405.56 L407.06,405.56 L407.06,422.231 Z M396.39,422.231 L401.72,422.231 L401.72,405.56 L396.39,405.56 L396.39,422.231 Z M371.5,422.231 L376.83,422.231 L376.83,416.67 L371.5,416.67 L371.5,422.231 Z M371.5,411.121 L376.83,411.121 L376.83,405.56 L371.5,405.56 L371.5,411.121 Z M360.83,422.231 L366.17,422.231 L366.17,416.67 L360.83,416.67 L360.83,422.231 Z M360.83,411.121 L366.17,411.121 L366.17,405.56 L360.83,405.56 L360.83,411.121 Z M350.17,422.231 L355.5,422.231 L355.5,416.67 L350.17,416.67 L350.17,422.231 Z M350.17,411.121 L355.5,411.121 L355.5,405.56 L350.17,405.56 L350.17,411.121 Z M339.5,400 L339.5,405.56 L344.83,405.56 L344.83,422.23 L339.5,422.23 L339.5,427.79 L499.5,427.79 L499.5,422.23 L494.17,422.23 L494.17,405.56 L499.5,405.56 L499.5,400 L339.5,400 Z" id="Fill-84" fill="#FFFFFF"></path>
                <polygon id="Fill-85" fill="#00DA00" points="444.5 417 481.5 417 481.5 411 444.5 411"></polygon>
                <path d="M439.06,389.231 L487.06,389.231 L487.06,372.56 L439.06,372.56 L439.06,389.231 Z M417.72,389.231 L423.06,389.231 L423.06,372.56 L417.72,372.56 L417.72,389.231 Z M407.06,389.231 L412.39,389.231 L412.39,372.56 L407.06,372.56 L407.06,389.231 Z M396.39,389.231 L401.72,389.231 L401.72,372.56 L396.39,372.56 L396.39,389.231 Z M371.5,389.231 L376.83,389.231 L376.83,383.67 L371.5,383.67 L371.5,389.231 Z M371.5,378.121 L376.83,378.121 L376.83,372.56 L371.5,372.56 L371.5,378.121 Z M360.83,389.231 L366.17,389.231 L366.17,383.67 L360.83,383.67 L360.83,389.231 Z M360.83,378.121 L366.17,378.121 L366.17,372.56 L360.83,372.56 L360.83,378.121 Z M350.17,389.231 L355.5,389.231 L355.5,383.67 L350.17,383.67 L350.17,389.231 Z M350.17,378.121 L355.5,378.121 L355.5,372.56 L350.17,372.56 L350.17,378.121 Z M339.5,367 L339.5,372.56 L344.83,372.56 L344.83,389.23 L339.5,389.23 L339.5,394.79 L499.5,394.79 L499.5,389.23 L494.17,389.23 L494.17,372.56 L499.5,372.56 L499.5,367 L339.5,367 Z" id="Fill-86" fill="#FFFFFF"></path>
                <polygon id="Fill-87" fill="#FFC500" points="444.5 384 481.5 384 481.5 378 444.5 378"></polygon>
                <path d="M439.06,357.231 L487.06,357.231 L487.06,340.56 L439.06,340.56 L439.06,357.231 Z M417.72,357.231 L423.06,357.231 L423.06,340.56 L417.72,340.56 L417.72,357.231 Z M407.06,357.231 L412.39,357.231 L412.39,340.56 L407.06,340.56 L407.06,357.231 Z M396.39,357.231 L401.72,357.231 L401.72,340.56 L396.39,340.56 L396.39,357.231 Z M371.5,357.231 L376.83,357.231 L376.83,351.67 L371.5,351.67 L371.5,357.231 Z M371.5,346.121 L376.83,346.121 L376.83,340.56 L371.5,340.56 L371.5,346.121 Z M360.83,357.231 L366.17,357.231 L366.17,351.67 L360.83,351.67 L360.83,357.231 Z M360.83,346.121 L366.17,346.121 L366.17,340.56 L360.83,340.56 L360.83,346.121 Z M350.17,357.231 L355.5,357.231 L355.5,351.67 L350.17,351.67 L350.17,357.231 Z M350.17,346.121 L355.5,346.121 L355.5,340.56 L350.17,340.56 L350.17,346.121 Z M339.5,335 L339.5,340.56 L344.83,340.56 L344.83,357.23 L339.5,357.23 L339.5,362.79 L499.5,362.79 L499.5,357.23 L494.17,357.23 L494.17,340.56 L499.5,340.56 L499.5,335 L339.5,335 Z" id="Fill-88" fill="#FFFFFF"></path>
                <polygon id="Fill-89" fill="#FF4B38" points="444.5 352 481.5 352 481.5 346 444.5 346"></polygon>
                <path d="M439.06,324.231 L487.06,324.231 L487.06,307.56 L439.06,307.56 L439.06,324.231 Z M417.72,324.231 L423.06,324.231 L423.06,307.56 L417.72,307.56 L417.72,324.231 Z M407.06,324.231 L412.39,324.231 L412.39,307.56 L407.06,307.56 L407.06,324.231 Z M396.39,324.231 L401.72,324.231 L401.72,307.56 L396.39,307.56 L396.39,324.231 Z M371.5,324.231 L376.83,324.231 L376.83,318.67 L371.5,318.67 L371.5,324.231 Z M371.5,313.121 L376.83,313.121 L376.83,307.56 L371.5,307.56 L371.5,313.121 Z M360.83,324.231 L366.17,324.231 L366.17,318.67 L360.83,318.67 L360.83,324.231 Z M360.83,313.121 L366.17,313.121 L366.17,307.56 L360.83,307.56 L360.83,313.121 Z M350.17,324.231 L355.5,324.231 L355.5,318.67 L350.17,318.67 L350.17,324.231 Z M350.17,313.121 L355.5,313.121 L355.5,307.56 L350.17,307.56 L350.17,313.121 Z M339.5,302 L339.5,307.56 L344.83,307.56 L344.83,324.23 L339.5,324.23 L339.5,329.79 L499.5,329.79 L499.5,324.23 L494.17,324.23 L494.17,307.56 L499.5,307.56 L499.5,302 L339.5,302 Z" id="Fill-90" fill="#FFFFFF"></path>
                <polygon id="Fill-91" fill="#FFC500" points="444.5 319 481.5 319 481.5 313 444.5 313"></polygon>
                <path d="M439.06,291.23 L487.06,291.23 L487.06,274.56 L439.06,274.56 L439.06,291.23 Z M417.72,291.23 L423.06,291.23 L423.06,274.56 L417.72,274.56 L417.72,291.23 Z M407.06,291.23 L412.39,291.23 L412.39,274.56 L407.06,274.56 L407.06,291.23 Z M396.39,291.23 L401.72,291.23 L401.72,274.56 L396.39,274.56 L396.39,291.23 Z M371.5,291.23 L376.83,291.23 L376.83,285.67 L371.5,285.67 L371.5,291.23 Z M371.5,280.12 L376.83,280.12 L376.83,274.56 L371.5,274.56 L371.5,280.12 Z M360.83,291.23 L366.17,291.23 L366.17,285.67 L360.83,285.67 L360.83,291.23 Z M360.83,280.12 L366.17,280.12 L366.17,274.56 L360.83,274.56 L360.83,280.12 Z M350.17,291.23 L355.5,291.23 L355.5,285.67 L350.17,285.67 L350.17,291.23 Z M350.17,280.12 L355.5,280.12 L355.5,274.56 L350.17,274.56 L350.17,280.12 Z M339.5,269 L339.5,274.56 L344.83,274.56 L344.83,291.23 L339.5,291.23 L339.5,296.79 L499.5,296.79 L499.5,291.23 L494.17,291.23 L494.17,274.56 L499.5,274.56 L499.5,269 L339.5,269 Z" id="Fill-92" fill="#FFFFFF"></path>
                <polygon id="Fill-93" fill="#00DA00" points="444.5 286 481.5 286 481.5 280 444.5 280"></polygon>
                <path d="M366.48,449.0801 C366.79,448.7601 367.16,448.6001 367.59,448.6001 L369.96,448.6001 C370.41,448.6001 370.65,448.7501 370.95,449.0591 C371.26,449.3701 371.41,449.6801 371.41,450.1201 L371.41,464.4001 C371.41,465.3801 371.67,466.3501 372.2,466.8801 C372.82,467.4901 373.75,467.8001 374.75,467.8001 L381.85,467.8001 C382.29,467.8001 382.66,467.9601 382.97,468.2601 C383.28,468.5701 383.43,468.7201 383.43,469.1601 C383.43,469.6101 383.28,470.0301 382.97,470.3401 C382.66,470.6501 382.29,470.8001 381.85,470.8001 L374.72,470.8001 C372.16,470.8001 370.14,470.2601 368.66,469.1801 C367.59,468.4001 366.81,467.3201 366.35,466.0501 L366.16,465.2301 C366.1,464.9501 366.04,464.6801 366,464.4001 L366,450.1201 C366,449.7001 366.16,449.3901 366.48,449.0801" id="Fill-94" fill="#FFFFFF"></path>
                <path d="M401.4702,468.6504 C401.4702,469.0994 401.3102,469.4294 401.0102,469.7404 C400.7002,470.0494 400.3202,470.2004 399.8802,470.2004 L392.7502,470.2004 C390.6602,470.2004 388.8302,469.7804 387.2702,468.9294 C385.1102,467.7904 384.0302,466.1394 384.0302,463.8894 C384.0302,461.6704 385.1102,460.0404 387.2702,458.9004 C388.8902,458.0304 390.7202,457.5994 392.7502,457.5994 L399.8802,457.5994 C400.3202,457.5994 400.7002,457.7504 401.0102,458.0594 C401.3102,458.3704 401.4702,458.6904 401.4702,459.1294 L401.4702,468.6504 Z M392.8902,467.2004 L396.0602,467.2004 L396.0602,460.5994 L392.9202,460.5994 C391.9102,460.5994 390.9802,460.8794 390.4202,461.4504 C389.8602,462.0304 389.5802,462.9204 389.5802,463.8894 C389.5802,464.8704 389.8402,465.7504 390.3702,466.2804 C390.9802,466.8894 391.9102,467.2004 392.8902,467.2004 Z" id="Fill-95" fill="#FFFFFF"></path>
                <path d="M420.7002,468.6504 C420.7002,470.8704 419.6402,472.5594 417.5002,473.7004 C415.8802,474.5704 414.1302,475.0004 412.0802,475.0004 L404.9502,475.0004 C404.5002,475.0004 404.1302,474.8494 403.8202,474.5404 C403.5202,474.2304 403.3602,473.8604 403.3602,473.4104 C403.3602,472.9904 403.5202,472.7904 403.8402,472.4804 C404.1502,472.1604 404.5202,472.0004 404.9502,472.0004 L412.0802,472.0004 C413.4902,472.0004 414.4402,471.2594 414.9302,470.2004 L412.0802,470.2004 C409.5202,470.2004 407.5002,469.6604 406.0202,468.5804 C404.9502,467.7994 404.1802,466.8094 403.7102,465.5404 C403.6502,465.2694 403.4902,465.0004 403.4302,464.7194 C403.3602,464.4404 403.3102,464.1704 403.2702,463.8894 L403.2702,459.1294 C403.2702,458.7104 403.4302,458.3894 403.7502,458.0804 C404.0602,457.7594 404.5202,457.5994 404.9502,457.5994 L407.3202,457.5994 C407.7702,457.5994 407.9202,457.7504 408.2202,458.0594 C408.5302,458.3704 408.6802,458.6904 408.6802,459.1294 L408.6802,463.8894 C408.6802,464.8704 408.9502,465.7504 409.4702,466.2804 C410.0802,466.8894 411.1202,467.2004 412.1102,467.2004 L415.2902,467.2004 L415.2902,459.2694 C415.2902,458.8394 415.4502,458.3894 415.7702,458.0804 C416.0802,457.7594 416.4102,457.5994 416.8302,457.5994 L419.2102,457.5994 C419.6502,457.5994 419.9402,457.7504 420.2402,458.0594 C420.5502,458.3704 420.7002,458.6904 420.7002,459.1294 L420.7002,468.6504 Z" id="Fill-96" fill="#FFFFFF"></path>
                <path d="M439.6602,464.9404 C439.3502,465.2504 438.9802,465.4004 438.5402,465.4004 L428.5602,465.4004 C428.6802,465.6504 428.8402,466.0094 429.0302,466.2004 C429.6402,466.8094 430.4402,467.2004 431.4102,467.2004 L438.5402,467.2004 C438.9802,467.2004 439.3502,467.3604 439.6602,467.6604 C439.9702,467.9694 440.1202,468.2104 440.1202,468.6504 C440.1202,469.0994 439.9702,469.4294 439.6602,469.7404 C439.3502,470.0494 438.9802,470.2004 438.5402,470.2004 L431.4102,470.2004 C429.3202,470.2004 427.4902,469.7804 425.9302,468.9294 C423.7702,467.7904 422.6902,466.1394 422.6902,463.8894 C422.6902,461.6694 423.7702,460.0404 425.9302,458.9004 C427.5502,458.0304 429.3802,457.5994 431.4102,457.5994 L438.5402,457.5994 C438.9802,457.5994 439.3502,457.7504 439.6602,458.0594 C439.9702,458.3704 440.1202,458.6904 440.1202,459.1294 C440.1202,459.5804 439.9702,459.8304 439.6602,460.1394 C439.3502,460.4504 438.9802,460.5994 438.5402,460.5994 L431.4402,460.5994 C430.7402,460.5994 430.1502,460.8304 429.6602,461.1204 C429.1802,461.4104 428.8102,461.9104 428.5602,462.4004 L438.5402,462.4004 C438.9802,462.4004 439.3502,462.5494 439.6602,462.8604 C439.9702,463.1694 440.1202,463.4504 440.1202,463.8894 C440.1202,464.3394 439.9702,464.6294 439.6602,464.9404" id="Fill-97" fill="#FFFFFF"></path>
                <path d="M447.29,469.7402 C446.99,470.0502 446.43,470.2002 445.98,470.2002 L443.61,470.2002 C443.16,470.2002 442.51,470.0502 442.2,469.7402 C441.89,469.4292 441.74,469.0992 441.74,468.6502 L441.74,463.8892 C441.78,463.6202 441.84,463.3492 441.9,463.0902 C441.96,462.8202 442.31,462.5502 442.37,462.2802 C442.86,460.9602 443.61,459.9902 444.62,459.2502 C446.12,458.1502 448.16,457.5992 450.74,457.5992 L457.87,457.5992 C458.31,457.5992 458.69,457.7502 458.99,458.0592 C459.3,458.3702 459.45,458.6902 459.45,459.1302 C459.45,459.5802 459.3,459.8302 458.99,460.1392 C458.69,460.4502 458.31,460.5992 457.87,460.5992 L450.77,460.5992 C449.75,460.5992 449.15,460.8802 448.59,461.4502 C448.03,462.0302 447.75,462.9202 447.75,463.8892 L447.75,468.6502 C447.75,469.0992 447.6,469.4292 447.29,469.7402" id="Fill-98" fill="#FFFFFF"></path>
                <path d="M472.4702,453.4697 C472.1202,453.8207 471.6902,453.9997 471.1702,453.9997 L468.4302,453.9997 C467.9202,453.9997 467.4902,453.8207 467.1302,453.4697 C466.7802,453.1197 466.6002,452.8397 466.6002,452.3207 C466.6002,451.1997 466.3002,450.2697 465.6902,449.6597 C464.9802,448.9497 464.0702,448.5997 462.9402,448.5997 L454.7202,448.5997 C454.2102,448.5997 453.7702,448.4197 453.4202,448.0707 C453.0702,447.7197 452.8902,447.3497 452.8902,446.8297 C452.8902,446.3397 453.0702,445.9197 453.4402,445.5497 C453.8002,445.1797 454.2302,444.9997 454.7202,444.9997 L462.9402,444.9997 C465.8902,444.9997 468.2402,445.6197 469.9702,446.8697 C471.1802,447.7997 472.0602,448.9807 472.6002,450.4197 C472.6502,450.7407 472.7102,451.0597 472.7802,451.3697 L473.0002,452.3207 C473.0002,452.8397 472.8202,453.1197 472.4702,453.4697" id="Fill-99" fill="#FFFFFF"></path>
                <path d="M472.4702,458.8701 C472.1202,459.2201 471.6902,459.4001 471.1702,459.4001 L468.4302,459.4001 C467.9202,459.4001 467.4902,459.2201 467.1302,458.8701 C466.7802,458.5191 466.6002,458.3301 466.6002,457.8201 C466.6002,457.3301 466.7802,456.7201 467.1502,456.3491 C467.5202,455.9901 467.9402,455.8001 468.4302,455.8001 L471.1702,455.8001 C471.6902,455.8001 472.1202,455.9801 472.4702,456.3301 C472.8202,456.6901 473.0002,457.3001 473.0002,457.8201 C473.0002,458.3301 472.8202,458.5191 472.4702,458.8701" id="Fill-100" fill="#FFFFFF"></path>
                <path d="M472.4702,464.8701 C472.1202,465.2201 471.6902,465.4001 471.1702,465.4001 L468.4302,465.4001 C467.9202,465.4001 467.4902,465.2201 467.1302,464.8701 C466.7802,464.5191 466.6002,464.1301 466.6002,463.6101 C466.6002,463.1301 466.7802,462.7201 467.1502,462.3491 C467.5202,461.9801 467.9402,461.8001 468.4302,461.8001 L471.1702,461.8001 C471.6902,461.8001 472.1202,461.9801 472.4702,462.3301 C472.8202,462.6801 473.0002,463.0991 473.0002,463.6101 C473.0002,464.1301 472.8202,464.5191 472.4702,464.8701" id="Fill-101" fill="#FFFFFF"></path>
                <path d="M472.4702,470.2695 C472.1202,470.6205 471.6902,470.7995 471.1702,470.7995 L468.4302,470.7995 C467.9202,470.7995 467.4902,470.6205 467.1302,470.2695 C466.7802,469.9195 466.6002,469.4995 466.6002,468.9905 C466.6002,468.4995 466.7802,468.1205 467.1502,467.7495 C467.5202,467.3795 467.9402,467.2005 468.4302,467.2005 L471.1702,467.2005 C471.6902,467.2005 472.1202,467.3795 472.4702,467.7305 C472.8202,468.0895 473.0002,468.4695 473.0002,468.9905 C473.0002,469.4995 472.8202,469.9195 472.4702,470.2695" id="Fill-102" fill="#FFFFFF"></path>
                <path d="M327.8799,484.1602 C327.8799,484.1602 307.5899,482.5102 299.9999,495.0002 C293.3099,506.0102 297.1099,522.2202 309.4899,526.0502 C322.8199,530.1702 324.9999,543.0002 324.9999,543.0002" id="Stroke-103" stroke="#FF4B38" stroke-width="2" stroke-linecap="round" stroke-linejoin="round"></path>
                <path d="M511.7402,484.1602 C511.7402,484.1602 532.0302,482.5102 539.6202,495.0002 C546.3102,506.0102 542.5102,522.2202 530.1302,526.0502 C516.8002,530.1702 514.6202,543.0002 514.6202,543.0002" id="Stroke-104" stroke="#FFC500" stroke-width="2" stroke-linecap="round" stroke-linejoin="round"></path>
                <path d="M327,484 C327,481.24 329.22,479 331.96,479 L332,479 L332,489 L331.96,489 C329.22,489 327,486.76 327,484" id="Fill-105" fill="#23475F"></path>
                <path d="M513,484 C513,481.24 510.78,479 508.04,479 L508,479 L508,489 L508.04,489 C510.78,489 513,486.76 513,484" id="Fill-106" fill="#23475F"></path>
                <path d="M247.9702,591.7002 C247.9702,557.0702 275.6002,529.0002 309.6802,529.0002 C343.7602,529.0002 371.3902,557.0702 371.3902,591.7002 C371.3902,626.3302 343.7602,654.4002 309.6802,654.4002 C275.6002,654.4002 247.9702,626.3302 247.9702,591.7002" id="Fill-107" fill="#FFFFFF"></path>
                <path d="M310.21,601.3398 C310.21,569.6798 335.47,543.9998 366.64,543.9998 C397.81,543.9998 423.07,569.6798 423.07,601.3398 C423.07,633.0098 397.81,658.6798 366.64,658.6798 C335.47,658.6798 310.21,633.0098 310.21,601.3398" id="Fill-108" fill="#FFFFFF"></path>
                <path d="M384.75,580.96 C384.75,553.31 406.87,530.89 434.16,530.89 C461.45,530.89 483.57,553.31 483.57,580.96 C483.57,608.61 461.45,631.03 434.16,631.03 C406.87,631.03 384.75,608.61 384.75,580.96" id="Fill-109" fill="#FFFFFF"></path>
                <path d="M208.9399,603.4902 C208.9399,577.1502 229.9599,555.7902 255.8799,555.7902 C281.8099,555.7902 302.8199,577.1502 302.8199,603.4902 C302.8199,629.8302 281.8099,651.1792 255.8799,651.1792 C229.9599,651.1792 208.9399,629.8302 208.9399,603.4902" id="Fill-110" fill="#FFFFFF"></path>
                <path d="M176,605.3301 C176,586.7501 190.75,571.6801 208.94,571.6801 C227.14,571.6801 241.89,586.7501 241.89,605.3301 C241.89,623.9201 227.14,638.9901 208.94,638.9901 C190.75,638.9901 176,623.9201 176,605.3301" id="Fill-111" fill="#FFFFFF"></path>
                <path d="M384.75,589.1699 C384.75,616.8199 406.87,639.2309 434.16,639.2309 C461.45,639.2309 483.57,616.8199 483.57,589.1699 C483.57,587.2199 483.47,585.2999 483.25,583.4199 L385.07,583.4199 C384.85,585.2999 384.75,587.2199 384.75,589.1699" id="Fill-112" fill="#FFFFFF"></path>
                <path d="M433.7202,600.7998 C433.7202,566.1798 461.3502,538.1108 495.4302,538.1108 C529.5102,538.1108 557.1402,566.1798 557.1402,600.7998 C557.1402,635.4298 529.5102,663.4998 495.4302,663.4998 C461.3502,663.4998 433.7202,635.4298 433.7202,600.7998" id="Fill-113" fill="#FFFFFF"></path>
                <path d="M485.1499,596.9805 C485.1499,559.4405 515.1099,529.0005 552.0499,529.0005 C588.9999,529.0005 618.9499,559.4405 618.9499,596.9805 C618.9499,634.5305 588.9999,664.9695 552.0499,664.9695 C515.1099,664.9695 485.1499,634.5305 485.1499,596.9805" id="Fill-114" fill="#FFFFFF"></path>
                <path d="M562.7002,616.0801 C562.7002,588.4301 584.8302,566.0101 612.1202,566.0101 C639.4102,566.0101 661.5302,588.4301 661.5302,616.0801 C661.5302,643.7301 639.4102,666.1501 612.1202,666.1501 C584.8302,666.1501 562.7002,643.7301 562.7002,616.0801" id="Fill-115" fill="#FFFFFF"></path>
                <path d="M614.1099,614.4404 C614.1099,595.8494 628.8599,580.7904 647.0599,580.7904 C665.2499,580.7904 679.9999,595.8494 679.9999,614.4404 C679.9999,633.0304 665.2499,648.0894 647.0599,648.0894 C628.8599,648.0894 614.1099,633.0304 614.1099,614.4404" id="Fill-116" fill="#FFFFFF"></path>
            </g>
        </g>
    </g>
</svg>