<?xml version="1.0" encoding="UTF-8"?>
<svg width="184px" height="184px" viewBox="0 0 184 184" version="1.1" xmlns="http://www.w3.org/2000/svg" xmlns:xlink="http://www.w3.org/1999/xlink">
    <g id="g">
        <path d="M53.88,127.84 C53.88,127.84 33.59,129.49 26,117 C19.31,106 23.11,89.78 35.49,86 C48.82,81.83 51,69 51,69" id="Shape" stroke="#34495E" stroke-width="2" stroke-linecap="round" stroke-linejoin="round"></path>
        <path d="M129.74,127.84 C129.74,127.84 150,129.49 157.62,117 C164.31,106 160.51,89.78 148.13,86 C134.8,81.88 132.62,69 132.62,69" id="Shape" stroke="#F1C40F" stroke-width="2" stroke-linecap="round" stroke-linejoin="round"></path>
        <path d="M57.3967441,50.383333 C64.1675045,40.4806847 75.4228319,34 88.16,34 C98.0772713,34 107.093906,37.9287964 113.794769,44.3426198 C116.646383,43.5583545 119.645273,43.14 122.74,43.14 C141.661276,43.14 157,58.7786937 157,78.07 C157,97.3613063 141.661276,113 122.74,113 C115.63555,113 109.036171,110.795244 103.564173,107.020211 C98.8656603,109.184931 93.6508743,110.39 88.16,110.39 C81.140539,110.39 74.5711307,108.421739 68.9543587,104.996783 C64.9469965,107.187606 60.3658958,108.43 55.5,108.43 C39.76,108.43 27,95.42 27,79.38 C27,63.38 39.76,50.32 55.5,50.32 C56.1373506,50.32 56.769815,50.3413317 57.3967441,50.383333 Z" id="Combined-Shape" fill="#FFFFFF"></path>
        <rect id="Rectangle-path" fill="#1B7A44" fill-rule="nonzero" x="58" y="83" width="68" height="66" rx="3"></rect>
        <path d="M53,128 C53,130.761424 55.2385763,133 58,133 L58,123 C55.2385763,123 53,125.238576 53,128 Z" id="Shape" fill="#ECF0F1"></path>
        <path d="M131,128 C131,130.761424 128.761424,133 126,133 L126,123 C128.761424,123 131,125.238576 131,128 Z" id="Shape" fill="#ECF0F1"></path>
        <path d="M62,135 L62,137 L64,137 L64,143 L62,143 L62,145 L122,145 L122,143 L120,143 L120,137 L122,137 L122,135 L62,135 Z M66,137 L68,137 L68,139 L66,139 L66,137 Z M66,141 L68,141 L68,143 L66,143 L66,141 Z M70,137 L72,137 L72,139 L70,139 L70,137 Z M70,141 L72,141 L72,143 L70,143 L70,141 Z M74,137 L76,137 L76,139 L74,139 L74,137 Z M74,141 L76,141 L76,143 L74,143 L74,141 Z M83,137 L85,137 L85,143 L83,143 L83,137 Z M87,137 L89,137 L89,143 L87,143 L87,137 Z M91,137 L93,137 L93,143 L91,143 L91,137 Z" id="Shape" fill="#FFFFFF"></path>
        <rect id="Rectangle-path" fill="#555555" fill-rule="nonzero" x="100" y="137" width="18" height="6"></rect>
        <rect id="Rectangle-path" fill="#6DD900" fill-rule="nonzero" x="102" y="139" width="14" height="2"></rect>
        <path d="M62,123 L62,125 L64,125 L64,131 L62,131 L62,133 L122,133 L122,131 L120,131 L120,125 L122,125 L122,123 L62,123 Z M66,125 L68,125 L68,127 L66,127 L66,125 Z M66,129 L68,129 L68,131 L66,131 L66,129 Z M70,125 L72,125 L72,127 L70,127 L70,125 Z M70,129 L72,129 L72,131 L70,131 L70,129 Z M74,125 L76,125 L76,127 L74,127 L74,125 Z M74,129 L76,129 L76,131 L74,131 L74,129 Z M83,125 L85,125 L85,131 L83,131 L83,125 Z M87,125 L89,125 L89,131 L87,131 L87,125 Z M91,125 L93,125 L93,131 L91,131 L91,125 Z" id="Shape" fill="#FFFFFF"></path>
        <rect id="Rectangle-path" fill="#555555" fill-rule="nonzero" x="100" y="125" width="18" height="6"></rect>
        <rect id="Rectangle-path" fill="#6DD900" fill-rule="nonzero" x="102" y="127" width="14" height="2"></rect>
        <path d="M62,111 L62,113 L64,113 L64,119 L62,119 L62,121 L122,121 L122,119 L120,119 L120,113 L122,113 L122,111 L62,111 Z M66,113 L68,113 L68,115 L66,115 L66,113 Z M66,117 L68,117 L68,119 L66,119 L66,117 Z M70,113 L72,113 L72,115 L70,115 L70,113 Z M70,117 L72,117 L72,119 L70,119 L70,117 Z M74,113 L76,113 L76,115 L74,115 L74,113 Z M74,117 L76,117 L76,119 L74,119 L74,117 Z M83,113 L85,113 L85,119 L83,119 L83,113 Z M87,113 L89,113 L89,119 L87,119 L87,113 Z M91,113 L93,113 L93,119 L91,119 L91,113 Z" id="Shape" fill="#FFFFFF"></path>
        <rect id="Rectangle-path" fill="#555555" fill-rule="nonzero" x="100" y="113" width="18" height="6"></rect>
        <rect id="Rectangle-path" fill="#6DD900" fill-rule="nonzero" x="102" y="115" width="14" height="2"></rect>
        <path d="M62,99 L62,101 L64,101 L64,107 L62,107 L62,109 L122,109 L122,107 L120,107 L120,101 L122,101 L122,99 L62,99 Z M66,101 L68,101 L68,103 L66,103 L66,101 Z M66,105 L68,105 L68,107 L66,107 L66,105 Z M70,101 L72,101 L72,103 L70,103 L70,101 Z M70,105 L72,105 L72,107 L70,107 L70,105 Z M74,101 L76,101 L76,103 L74,103 L74,101 Z M74,105 L76,105 L76,107 L74,107 L74,105 Z M83,101 L85,101 L85,107 L83,107 L83,101 Z M87,101 L89,101 L89,107 L87,107 L87,101 Z M91,101 L93,101 L93,107 L91,107 L91,101 Z" id="Shape" fill="#FFFFFF"></path>
        <rect id="Rectangle-path" fill="#555555" fill-rule="nonzero" x="100" y="101" width="18" height="6"></rect>
        <rect id="Rectangle-path" fill="#6DD900" fill-rule="nonzero" x="102" y="103" width="14" height="2"></rect>
        <path d="M62,87 L62,89 L64,89 L64,95 L62,95 L62,97 L122,97 L122,95 L120,95 L120,89 L122,89 L122,87 L62,87 Z M66,89 L68,89 L68,91 L66,91 L66,89 Z M66,93 L68,93 L68,95 L66,95 L66,93 Z M70,89 L72,89 L72,91 L70,91 L70,89 Z M70,93 L72,93 L72,95 L70,95 L70,93 Z M74,89 L76,89 L76,91 L74,91 L74,89 Z M74,93 L76,93 L76,95 L74,95 L74,93 Z M83,89 L85,89 L85,95 L83,95 L83,89 Z M87,89 L89,89 L89,95 L87,95 L87,89 Z M91,89 L93,89 L93,95 L91,95 L91,89 Z" id="Shape" fill="#FFFFFF"></path>
        <rect id="Rectangle-path" fill="#555555" fill-rule="nonzero" x="100" y="89" width="18" height="6"></rect>
        <rect id="Rectangle-path" fill="#6DD900" fill-rule="nonzero" x="102" y="91" width="14" height="2"></rect>
    </g>
</svg>
