<?xml version="1.0" encoding="UTF-8"?>
<svg width="853px" height="242px" viewBox="0 0 853 242" version="1.1" xmlns="http://www.w3.org/2000/svg" xmlns:xlink="http://www.w3.org/1999/xlink">
    <!-- Generator: Sketch 49.3 (51167) - http://www.bohemiancoding.com/sketch -->
    <title>Combined Shape</title>
    <desc>Created with Sketch.</desc>
    <defs></defs>
    <g id="Page-1" stroke="none" stroke-width="1" fill="none" fill-rule="evenodd">
        <path d="M675.540167,102 L732.42905,102 C735.978417,102 738.971767,103.226077 741.424333,105.670615 C743.861667,108.107538 745.08795,111.108 745.08795,114.641538 C745.08795,118.182692 743.861667,121.183154 741.424333,123.604846 C738.971767,126.064615 735.978417,127.298308 732.42905,127.298308 L675.791517,127.298308 C667.702617,127.298308 661.426483,129.560077 656.9555,134.106462 C652.49975,138.668077 650.252833,144.821308 650.252833,152.581385 L650.252833,190.498385 C650.252833,194.039538 649.018933,197.024769 646.589217,199.461692 C644.13665,201.906231 641.158533,203.132308 637.609167,203.132308 L618.643667,203.132308 C615.0943,203.132308 612.108567,201.906231 609.671233,199.461692 C607.218667,197.024769 606,194.039538 606,190.498385 L606,152.581385 C606.327517,150.380538 606.761667,148.225385 607.264367,146.131154 C607.767067,144.029308 608.269767,141.866538 608.780083,139.680923 C612.64935,129.232615 618.643667,121.053692 626.72495,115.144154 C638.69835,106.378846 654.982783,102 675.540167,102 Z M520.53255,102 L577.42905,102 C580.99365,102 583.96415,103.226077 586.416717,105.670615 C588.861667,108.107538 590.08795,111.108 590.08795,114.641538 C590.08795,118.182692 588.861667,121.183154 586.416717,123.604846 C583.96415,126.064615 580.99365,127.298308 577.42905,127.298308 L520.7839,127.298308 C515.238967,127.298308 510.5014,128.433 506.624517,130.687154 C502.75525,132.987 499.792367,136.056 497.781567,139.924615 L577.42905,139.924615 C580.99365,139.924615 583.96415,141.150692 586.416717,143.587615 C588.861667,146.039769 590.08795,149.032615 590.08795,152.581385 C590.08795,156.130154 588.861667,159.107769 586.416717,161.544692 C583.96415,163.989231 580.99365,165.207692 577.42905,165.207692 L497.781567,165.207692 C498.786967,167.241 500.05895,169.015385 501.574667,170.538462 C506.472183,175.412308 512.794017,177.856846 520.53255,177.856846 L577.42905,177.856846 C580.99365,177.856846 583.96415,179.105769 586.416717,181.512231 C588.861667,183.956769 590.08795,186.964846 590.08795,190.498385 C590.08795,194.039538 588.861667,197.024769 586.416717,199.461692 C583.96415,201.906231 580.99365,203.132308 577.42905,203.132308 L520.53255,203.132308 C503.85205,203.132308 489.258517,199.766308 476.790033,193.026692 C459.5916,183.918692 451,170.431846 451,152.581385 C451,134.883231 459.5916,121.472538 476.790033,112.356923 C489.761217,105.457385 504.35475,102 520.53255,102 Z M404.478783,102 L423.444283,102 C426.9708,102 429.956533,103.226077 432.4091,105.670615 C434.861667,108.107538 436.072717,111.108 436.072717,114.641538 L436.072717,190.498385 C436.072717,208.181308 427.5649,221.599615 410.54165,230.677154 C397.56285,237.599538 382.885533,241.056923 366.547783,241.056923 L309.643667,241.056923 C306.101917,241.056923 303.108567,239.830846 300.671233,237.401538 C298.218667,234.949385 297,231.964154 297,228.407769 C297,225.049385 298.264367,222.087 300.7931,219.558692 C303.314217,217.030385 306.269483,215.766231 309.643667,215.766231 L366.547783,215.766231 C377.828067,215.766231 385.40665,211.562538 389.29115,203.132308 L366.547783,203.132308 C346.135117,203.132308 330.01825,198.837231 318.220033,190.247077 C309.643667,184.017692 303.481783,175.838769 299.780083,165.717923 C299.277383,163.547538 298.774683,161.346692 298.264367,159.161077 C297.738817,156.960231 297.3199,154.767 297,152.581385 L297,114.641538 C297,111.275538 298.264367,108.328385 300.7931,105.800077 C303.314217,103.264154 306.269483,102 309.643667,102 L328.593933,102 C332.150917,102 335.144267,103.226077 337.589217,105.670615 C340.018933,108.107538 341.245217,111.108 341.245217,114.641538 L341.245217,152.581385 C341.245217,160.333846 343.36265,166.311923 347.574667,170.538462 C352.441717,175.412308 358.870183,177.856846 366.791517,177.856846 L391.8275,177.856846 L391.8275,114.641538 C391.8275,111.275538 393.08425,108.328385 395.628217,105.800077 C398.141717,103.264154 401.089367,102 404.478783,102 Z M12.6512833,27 L31.6167833,27 C35.16615,27 38.1518833,28.2260769 40.5892167,30.6706154 C43.0341667,33.0999231 44.2528333,36.108 44.2528333,39.6567692 L44.2528333,153.430615 C44.2528333,161.183077 46.36265,167.161154 50.5746667,171.387692 C55.4645667,176.261538 61.8701833,178.706077 69.7991333,178.706077 L126.444283,178.706077 C129.986033,178.706077 132.979383,179.955 135.43195,182.361462 C137.869283,184.806 139.08795,187.814077 139.08795,191.347615 C139.08795,194.888769 137.869283,197.874 135.43195,200.310923 C132.979383,202.755462 129.986033,203.981538 126.444283,203.981538 L69.5401667,203.981538 C49.1427333,203.981538 33.0487167,199.686462 21.2505,191.096308 C12.6512833,184.866923 6.49701667,176.688 2.79531667,166.567154 C2.285,164.396769 1.77468333,162.195923 1.26436667,160.010308 C0.769283333,157.809462 0.335133333,155.616231 1.13686838e-13,153.430615 L1.13686838e-13,39.6567692 C1.13686838e-13,36.2679231 1.26436667,33.336 3.78548333,30.7848462 C6.32183333,28.2641538 9.2771,27 12.6512833,27 Z M212.547783,102 L269.4519,102 C272.986033,102 275.979383,103.226077 278.43195,105.670615 C280.869283,108.107538 282.08795,111.108 282.08795,114.641538 L282.08795,190.498385 C282.08795,194.039538 280.869283,197.024769 278.43195,199.461692 C275.979383,201.906231 272.986033,203.132308 269.4519,203.132308 L212.547783,203.132308 C195.859667,203.132308 181.266133,199.766308 168.812883,193.026692 C151.606833,183.918692 143,170.431846 143,152.581385 C143,134.883231 151.606833,121.472538 168.812883,112.356923 C181.77645,105.457385 196.369983,102 212.547783,102 Z M193.5899,170.538462 C198.472183,175.412308 204.7864,177.856846 212.547783,177.856846 L237.842733,177.856846 L237.842733,127.298308 L212.814367,127.298308 C204.71785,127.298308 198.4341,129.560077 193.970733,134.106462 C189.492133,138.668077 187.268067,144.821308 187.268067,152.581385 C187.268067,160.333846 189.370267,166.311923 193.5899,170.538462 Z M706.593533,5.68434189e-14 L772.241583,5.68434189e-14 C795.777083,5.68434189e-14 814.45315,4.97284615 828.269783,14.8880769 C837.996267,22.275 844.995983,31.7256923 849.284167,43.2020769 C849.657383,45.7075385 850.160083,48.2510769 850.746567,50.7641538 C851.317817,53.3000769 851.896683,55.8283846 852.483167,58.3566923 C852.483167,62.4385385 851.074083,65.9035385 848.263533,68.7136154 C845.430133,71.5313077 841.995017,72.9477692 837.889633,72.9477692 L816.014567,72.9477692 C811.924417,72.9477692 808.474067,71.5313077 805.663517,68.7136154 C802.8225,65.9035385 801.421033,62.4385385 801.421033,58.3566923 C801.421033,49.4162308 798.976083,42.5166923 794.131883,37.6352308 C788.480317,32.0074615 781.191167,29.1745385 772.241583,29.1745385 L706.593533,29.1745385 C702.511,29.1745385 699.06065,27.7733077 696.22725,24.9403846 C693.409083,22.1379231 692,18.6881538 692,14.5910769 C692,10.692 693.470017,7.30315385 696.3872,4.37884615 C699.296767,1.46215385 702.6938,0 706.593533,0 Z M816.014567,131.74261 L837.889633,131.74261 C841.995017,131.74261 845.430133,133.166686 848.263533,135.984379 C851.074083,138.809686 852.483167,142.25184 852.483167,146.341302 C852.483167,150.415533 851.074083,153.872917 848.263533,156.682994 C845.430133,159.508302 841.995017,160.917148 837.889633,160.917148 L816.014567,160.917148 C811.924417,160.917148 808.474067,159.508302 805.663517,156.682994 C802.8225,153.872917 801.421033,150.415533 801.421033,146.341302 C801.421033,142.465071 802.883433,139.038148 805.800617,136.129071 C808.7178,133.212379 812.12245,131.74261 816.014567,131.74261 Z M816.014567,176.501769 L837.889633,176.501769 C841.995017,176.501769 845.430133,177.925846 848.263533,180.743538 C851.074083,183.568846 852.483167,187.011 852.483167,191.100462 C852.483167,195.174692 851.074083,198.632077 848.263533,201.442154 C845.430133,204.267462 841.995017,205.676308 837.889633,205.676308 L816.014567,205.676308 C811.924417,205.676308 808.474067,204.267462 805.663517,201.442154 C802.8225,198.632077 801.421033,195.174692 801.421033,191.100462 C801.421033,187.224231 802.883433,183.797308 805.800617,180.888231 C808.7178,177.971538 812.12245,176.501769 816.014567,176.501769 Z M816.239379,86.9834498 L838.114445,86.9834498 C842.219829,86.9834498 845.654945,88.4075268 848.488345,91.2252191 C851.298895,94.0505268 852.707979,97.4926806 852.707979,101.582142 C852.707979,105.656373 851.298895,109.113758 848.488345,111.923834 C845.654945,114.749142 842.219829,116.157988 838.114445,116.157988 L816.239379,116.157988 C812.149229,116.157988 808.698879,114.749142 805.888329,111.923834 C803.047312,109.113758 801.645845,105.656373 801.645845,101.582142 C801.645845,97.7059114 803.108245,94.2789883 806.025429,91.3699114 C808.942612,88.4532191 812.347262,86.9834498 816.239379,86.9834498 Z" id="Combined-Shape" fill="#FFFFFF" fill-rule="nonzero"></path>
    </g>
</svg>