<svg xmlns="http://www.w3.org/2000/svg" xmlns:xlink="http://www.w3.org/1999/xlink" viewBox="0 0 537.69 296.72"><defs><style>.Graphic-Style,.cls-10,.cls-11,.cls-13,.cls-15,.cls-3,.cls-6,.cls-7,.cls-8,.cls-9{fill-rule:evenodd;}.Graphic-Style{fill:url(#linear-gradient);}.cls-1{fill:#474e5d;}.cls-15,.cls-2{fill:#8e44ad;}.cls-3{fill:#d8dbe1;}.cls-4{fill:none;stroke:#95a5a6;stroke-linecap:round;stroke-linejoin:round;stroke-width:2px;}.cls-5{fill:#95a5a6;}.cls-6{fill:#85c1e9;}.cls-7{fill:#576978;}.cls-8{fill:#f1c40f;}.cls-14,.cls-9{fill:#fff;}.cls-10{fill:#d9b00d;}.cls-11{fill:#e74c3c;}.cls-12,.cls-13{fill:#2c3e50;}.cls-16{fill:#ecf0f1;}</style><linearGradient id="linear-gradient" x1="182.98" y1="402.36" x2="355.81" y2="103.01" gradientUnits="userSpaceOnUse"><stop offset="0" stop-opacity="0"/><stop offset="1" stop-opacity="0.05"/></linearGradient></defs><title>mail-alerting</title><g id="Слой_2" data-name="Слой 2"><g id="Layer_2" data-name="Layer 2"><polygon class="Graphic-Style" points="240.52 36.45 0 296.72 454.35 296.72 533.21 218.32 480.12 217.73 240.52 36.45"/><rect class="cls-1" x="237.49" y="29.5" width="267.38" height="187.6" rx="5" ry="5"/><rect class="cls-2" x="246.85" y="38.88" width="248.66" height="162.14"/><path class="cls-3" d="M204.27,209.64a20.08,20.08,0,0,0,19.66,16.08H518a20.08,20.08,0,0,0,19.65-16.08Z"/><polygon class="Graphic-Style" points="195.01 1.12 228.57 21.69 162.92 81.17 128.34 51.24 195.01 1.12"/><line class="cls-4" x1="207.16" y1="18.6" x2="214.12" y2="76.8"/><polygon class="cls-5" points="207.05 80.58 222.11 78.66 216.09 91.74 207.05 80.58"/><path class="cls-6" d="M191.68,24.18a7,7,0,0,1-1.32-13.71,8.77,8.77,0,0,1-.07-1.15,9.29,9.29,0,0,1,17.07-5.1,5.43,5.43,0,0,1,2.24.8A8.32,8.32,0,0,1,225,9.46a8,8,0,0,1-.08,1.09,6.95,6.95,0,0,1-1.59,13.63H191.68Z"/><polygon class="cls-7" points="336.9 114.23 372.19 136.33 407.68 114.23 336.9 114.23"/><polygon class="Graphic-Style" points="206.74 104.72 34.19 296.72 211.95 296.72 276.77 222.91 274.05 168.69 272.88 134.76 270.55 114.08 241.95 118.88 220.32 121.14 206.74 104.72"/><polygon class="Graphic-Style" points="334.63 77.25 428.13 167.75 338.78 257.72 173.68 228.88 334.63 77.25"/><polygon class="cls-8" points="330.39 106.45 330.39 168.62 428.68 168.62 428.68 106.45 379.54 56.72 330.39 106.45"/><polygon class="cls-9" points="334.26 75.78 334.26 153.49 424.81 153.49 424.81 82.78 417.85 75.78 334.26 75.78"/><polygon class="cls-8" points="330.39 106.45 330.39 168.62 428.68 168.62 330.39 106.45"/><polygon class="cls-10" points="428.68 106.45 428.68 168.62 330.39 168.62 428.68 106.45"/><path class="cls-11" d="M380.71,106.51h-2.94l-1-11.7h4.92Zm-1.47,5.34a2,2,0,1,1,2.07-2A2,2,0,0,1,379.24,111.85Zm15.3-2.17-12-20.26c-1.87-3.16-4.93-3.16-6.8,0l-12.06,20.28c-1.87,3.15-.35,5.72,3.38,5.72h24.11C394.89,115.41,396.41,112.83,394.54,109.68Z"/><line class="cls-12" x1="268.66" y1="104.05" x2="272.04" y2="104.05"/><path class="cls-13" d="M270.91,202.28H210V127.67h60.91Zm-30.44,17.64a5.77,5.77,0,1,1,5.78-5.77A5.78,5.78,0,0,1,240.47,219.92Zm28.19-115.87h-56.4a9,9,0,0,0-9,9V216.91a9,9,0,0,0,9,9h56.4a9,9,0,0,0,9-9V113A9,9,0,0,0,268.66,104.05Z"/><rect class="cls-14" x="208.55" y="126.13" width="63.81" height="77.69"/><path class="cls-15" d="M242.36,170.3h-3.08l-1-12.37h5.15ZM240.82,176A2.15,2.15,0,1,1,243,173.8,2.14,2.14,0,0,1,240.82,176Zm16-2.29-12.57-21.44c-2-3.33-5.17-3.33-7.13,0l-12.62,21.44c-2,3.33-.37,6.06,3.53,6.06H253.3C257.21,179.72,258.8,177,256.84,173.66Z"/><circle class="cls-16" cx="240.18" cy="214.22" r="6.5"/></g></g></svg>