<?xml version="1.0" encoding="UTF-8"?>
<svg  viewBox="0 0 120 120" version="1.1" xmlns="http://www.w3.org/2000/svg" xmlns:xlink="http://www.w3.org/1999/xlink">
    <g>
        <path d="M0,60 C0,26.86 26.86,0 60,0 C93.14,0 120,26.86 120,60 C120,93.14 93.14,120 60,120 C26.86,120 0,93.14 0,60" id="Fill-175" fill="#FFFFFF"></path>
        <path d="M5,60 C5,29.62 29.62,5 60,5 C90.38,5 115,29.62 115,60 C115,90.38 90.38,115 60,115 C29.62,115 5,90.38 5,60" id="Fill-177" fill="#AF58BA"></path>
        <path d="M68.23,73.04 L51.79,73.04 L50.14,74.25 L30.59,88.64 C29.32,89.58 29.57,90.34 31.15,90.34 L88.85,90.34 C90.44,90.34 90.69,89.58 89.41,88.64 L69.88,74.25 L68.23,73.04 Z" id="Fill-179" fill="#1C3C50"></path>
        <path d="M73.1201,71.8799 L92.1701,85.9099 C93.4501,86.8599 94.4801,86.3299 94.4801,84.7499 L94.4801,59.0199 C94.4801,57.4299 93.4501,56.9099 92.1701,57.8499 L85.4101,62.8199 L73.1201,71.8799 Z" id="Fill-181" fill="#1C3C50"></path>
        <path d="M94.48,52.0898 C94.48,52.0698 94.47,52.0598 94.46,52.0598 L94.45,52.0598 L85.41,45.4098 L85.41,58.7698 L94.48,52.0898 Z" id="Fill-183" fill="#1C3C50"></path>
        <path d="M46.9102,72.5596 L34.6602,63.5396 L25.5202,56.8096 L25.5202,85.4406 C25.5202,87.0306 26.5502,87.5496 27.8302,86.6106 L46.9102,72.5596 Z" id="Fill-185" fill="#1C3C50"></path>
        <path d="M34.6099,45.4004 L27.9299,50.3204 C26.6499,51.2594 26.6499,52.7904 27.9199,53.7304 L34.6099,58.6904 L34.6099,45.4004 Z" id="Fill-187" fill="#1C3C50"></path>
        <path d="M50.8999,30.71 L50.8999,34.54 L47.0699,34.54 L41.3199,34.54 C39.7299,34.54 38.4399,35.82 38.4399,37.41 L38.4399,61.52 L50.1499,70.19 L69.8899,70.19 L81.5799,61.59 L81.5799,24.94 C81.5799,23.35 80.2999,22.07 78.7099,22.07 L50.8999,22.07 L50.8999,22.11 L50.8999,30.71 Z" id="Fill-189" fill="#FFFFFF"></path>
        <path d="M40.4702,28.6797 C39.3502,29.7997 39.7302,30.7097 41.3102,30.7097 L47.0702,30.7097 L47.0702,24.9807 C47.0702,23.3897 46.1602,23.0097 45.0402,24.1297 L40.4702,28.6797 Z" id="Fill-191" fill="#FFFFFF"></path>
        <path d="M69.6001,47.1904 C69.1001,46.0994 68.4101,45.1694 67.5301,44.4194 C66.6601,43.6604 65.6201,43.0804 64.4301,42.6794 C63.2401,42.2694 61.9501,42.0704 60.5601,42.0704 C59.0901,42.0704 57.7001,42.3204 56.3901,42.8394 C55.0701,43.3494 53.9201,44.0804 52.9201,45.0304 C51.9201,45.9694 51.1301,47.1204 50.5401,48.4604 C49.9501,49.8094 49.6601,51.3094 49.6601,52.9804 C49.6601,54.6104 49.9101,56.0594 50.4301,57.2994 C50.5101,57.5094 50.7001,57.9104 50.7001,57.9104 L53.7401,57.9104 C53.3201,57.3704 52.9801,56.7694 52.7301,56.0994 C52.3701,55.1504 52.1901,54.0804 52.1901,52.8894 C52.1901,51.6794 52.4001,50.5594 52.8301,49.5304 C53.2501,48.5004 53.8401,47.6104 54.5801,46.8604 C55.3301,46.1104 56.2101,45.5194 57.2201,45.0894 C58.2401,44.6694 59.3301,44.4504 60.5101,44.4504 C61.5401,44.4504 62.5001,44.5804 63.3901,44.8204 C64.2801,45.0594 65.0501,45.4504 65.7101,45.9804 C66.3701,46.5004 66.8901,47.1694 67.2601,47.9804 C67.6401,48.7904 67.8301,49.7694 67.8301,50.9194 C67.8301,51.7104 67.7301,52.4004 67.5501,52.9804 C67.3601,53.5594 67.1101,54.0404 66.8101,54.4194 C66.5101,54.8094 66.1701,55.0894 65.7901,55.2694 C65.4101,55.4604 65.0301,55.5494 64.6301,55.5494 C64.2401,55.5494 63.9901,55.3894 63.8801,55.0704 C63.7601,54.7404 63.7701,54.2304 63.8901,53.5094 L64.9701,47.2994 L63.3901,47.2994 L62.6901,48.0304 C62.3801,47.7694 62.0501,47.5594 61.6901,47.4004 C61.3301,47.2404 60.8801,47.1604 60.3501,47.1604 C59.5801,47.1604 58.8501,47.3704 58.1601,47.7904 C57.4801,48.2104 56.8701,48.7594 56.3501,49.4504 C55.8301,50.1394 55.4201,50.9294 55.1201,51.8204 C54.8101,52.7194 54.6601,53.6394 54.6601,54.5804 C54.6601,55.0894 54.7301,55.5494 54.8801,55.9604 C55.0201,56.3704 55.2101,56.7194 55.4601,57.0094 C55.7001,57.2994 55.9801,57.5304 56.3201,57.6904 C56.6501,57.8494 57.0001,57.9294 57.3601,57.9294 C57.8101,57.9294 58.2301,57.8604 58.6101,57.7194 C58.9801,57.5894 59.3301,57.4004 59.6501,57.1604 C59.9701,56.9294 60.2601,56.6604 60.5201,56.3494 C60.7901,56.0404 61.0301,55.7304 61.2601,55.4104 L61.3501,55.4104 C61.3001,55.8794 61.3301,56.2804 61.4401,56.5994 C61.5401,56.9194 61.7101,57.1794 61.9301,57.3794 C62.1501,57.5804 62.4201,57.7194 62.7401,57.8094 C63.0701,57.8894 63.4201,57.9294 63.8001,57.9294 C64.7001,57.9294 65.5501,57.7504 66.3401,57.3794 C67.1401,57.0094 67.8301,56.5194 68.4301,55.8894 C69.0301,55.2594 69.4901,54.5194 69.8301,53.6694 C70.1701,52.8094 70.3401,51.9004 70.3401,50.9194 C70.3401,49.5304 70.1001,48.2804 69.6001,47.1904 Z M61.3901,53.2304 C61.2301,53.5404 61.0401,53.8304 60.8301,54.0994 C60.6201,54.3794 60.4001,54.6204 60.1701,54.8394 C59.9401,55.0494 59.7101,55.2194 59.4701,55.3494 C59.2301,55.4804 59.0001,55.5494 58.7901,55.5494 C58.2901,55.5494 57.9401,55.3894 57.7301,55.0704 C57.5301,54.7404 57.4301,54.3304 57.4301,53.8304 C57.4301,53.3394 57.5001,52.8394 57.6501,52.3304 C57.8101,51.8094 58.0201,51.3494 58.3001,50.9404 C58.5801,50.5304 58.9101,50.1904 59.3001,49.9294 C59.6801,49.6694 60.1001,49.5404 60.5601,49.5404 C60.8701,49.5404 61.1401,49.5894 61.3501,49.6794 C61.5601,49.7694 61.7601,49.9004 61.9601,50.0704 L61.3901,53.2304 Z" id="Fill-193" fill="#496371"></path>
    </g>
</svg>
