<?xml version="1.0" encoding="UTF-8"?>
<svg width="184px" height="184px" viewBox="0 0 184 184" version="1.1" xmlns="http://www.w3.org/2000/svg" xmlns:xlink="http://www.w3.org/1999/xlink">
    <!-- Generator: Sketch 49.3 (51167) - http://www.bohemiancoding.com/sketch -->
    <title>Artboard 2 Copy</title>
    <desc>Created with Sketch.</desc>
    <defs></defs>
    <g id="Artboard-2-Copy" stroke="none" stroke-width="1" fill="none" fill-rule="evenodd">
        <g id="g">
            <path d="M117,48.9999998 C117,40.06836 112.235027,31.8151844 104.5,27.3493644 C96.7649732,22.8835445 87.2350268,22.8835445 79.4999998,27.3493644 C71.7649729,31.8151844 66.9999998,40.06836 67,48.9999998 L67,104.999999 L75.33,104.999999 L75.33,48.9999998 C75.33,39.7934131 82.7934132,32.3299999 92,32.3299999 C101.206587,32.3299999 108.67,39.7934131 108.67,48.9999998 L108.67,101.419999 L117,101.419999 L117,48.9999998 Z" id="Shape" fill="#BDC3C7"></path>
            <path d="M56.88,123.84 C56.88,123.84 33.59,129.49 26,117 C19.31,106 23.11,89.78 35.49,86 C48.82,81.83 51,69 51,69" id="Shape" stroke="#2ECC71" stroke-width="2" stroke-linecap="round" stroke-linejoin="round"></path>
            <path d="M128.74,123.84 C128.74,123.84 150,129.49 157.62,117 C164.31,106 160.51,89.78 148.13,86 C134.8,81.88 132.62,69 132.62,69" id="Shape" stroke="#F1C40F" stroke-width="2" stroke-linecap="round" stroke-linejoin="round"></path>
            <path d="M59,81.36 C59,62.94 73.66,48 91.76,48 C109.86,48 124.54,62.94 124.54,81.36 C124.54,99.78 109.87,114.72 91.76,114.72 C73.65,114.72 59,99.78 59,81.36 Z" id="Shape" fill="#FFFFFF"></path>
            <path d="M97.13,89.67 C97.3446122,75.9475356 108.60589,64.9770277 122.329274,65.1213806 C136.052657,65.2657335 147.080677,76.4706971 147.006587,90.1946396 C146.932497,103.918582 135.784142,115.003825 122.06,115 C115.395043,114.947167 109.024078,112.248746 104.34875,107.498403 C99.673423,102.748061 97.0767451,96.3349534 97.13,89.67 Z" id="Shape" fill="#FFFFFF"></path>
            <path d="M35,89.13 C35.2365097,75.4144841 46.5050754,64.4646359 60.2217319,64.6216338 C73.9383884,64.7786316 84.9533757,75.9835325 84.875895,89.7008686 C84.7984143,103.418205 73.6575548,114.497961 59.94,114.5 C46.0482298,114.379014 34.88352,103.021809 35,89.13 Z" id="Shape" fill="#FFFFFF"></path>
            <rect id="Rectangle-path" fill="#2980B9" fill-rule="nonzero" x="58" y="82" width="68" height="66" rx="4"></rect>
            <path d="M56,124 C56,126.761424 58.2385763,129 61,129 L61,119 C58.2385763,119 56,121.238576 56,124 Z" id="Shape" fill="#ECF0F1"></path>
            <path d="M129,124 C129,126.761424 126.761424,129 124,129 L124,119 C126.761424,119 129,121.238576 129,124 Z" id="Shape" fill="#ECF0F1"></path>
            <path d="M66,85 L119,85 C121.814496,85.0601518 124.050224,87.385309 124,90.2 L124,132.8 C124.050224,135.614691 121.814496,137.939848 119,138 L66,138 C63.1855037,137.939848 60.9497756,135.614691 61,132.8 L61,90.2 C60.9497756,87.385309 63.1855037,85.0601518 66,85 Z" id="Shape" fill="#34495E"></path>
            <path d="M61.5,142 L122.5,142 C124.985281,142 127,144.014719 127,146.5 C127,148.985281 124.985281,151 122.5,151 L61.5,151 C59.0147186,151 57,148.985281 57,146.5 C57,144.014719 59.0147186,142 61.5,142 Z" id="Shape" fill="#34495E"></path>
            <path d="M84.31,145.4 L99.69,145.4 C100.275422,145.4 100.75,145.874578 100.75,146.46 C100.75,147.045422 100.275422,147.52 99.69,147.52 L84.31,147.52 C83.7245782,147.52 83.25,147.045422 83.25,146.46 C83.25,145.874578 83.7245782,145.4 84.31,145.4 Z" id="Shape" fill="#FFFFFF"></path>
            <path d="M68,88 L117,88 C118.076645,87.9997274 119.107941,88.4334867 119.860729,89.2032116 C120.613516,89.9729365 121.024225,91.0136274 121,92.09 L121,130.91 C121.024225,131.986373 120.613516,133.027063 119.860729,133.796788 C119.107941,134.566513 118.076645,135.000273 117,135 L68,135 C66.9233548,135.000273 65.8920586,134.566513 65.1392714,133.796788 C64.3864842,133.027063 63.9757754,131.986373 64,130.91 L64,92.09 C63.9757754,91.0136274 64.3864842,89.9729365 65.1392714,89.2032116 C65.8920586,88.4334867 66.9233548,87.9997274 68,88 Z" id="Shape" fill="#E74C3C"></path>
            <path d="M80,111.5 C80,118.403559 85.5964406,124 92.5,124 C99.4035594,124 105,118.403559 105,111.5 C105,104.596441 99.4035594,99 92.5,99 C85.5964406,99 80,104.596441 80,111.5 Z M93.78,111.5 L94.25,116.23 L91.25,116.23 L91.72,111.5 C90.6469072,111.014791 90.057963,109.846454 90.3061404,108.69521 C90.5543179,107.543965 91.5723092,106.72204 92.75,106.72204 C93.9276908,106.72204 94.9456821,107.543965 95.1938596,108.69521 C95.442037,109.846454 94.8530928,111.014791 93.78,111.5 Z" id="Shape" fill="#FFFFFF"></path>
        </g>
    </g>
</svg>