<?xml version="1.0" encoding="UTF-8"?>
<svg width="184px" height="184px" viewBox="0 0 184 184" version="1.1" xmlns="http://www.w3.org/2000/svg" xmlns:xlink="http://www.w3.org/1999/xlink">
    <!-- Generator: Sketch 49.3 (51167) - http://www.bohemiancoding.com/sketch -->
    <title>Artboard 2 Copy 2</title>
    <desc>Created with Sketch.</desc>
    <defs></defs>
    <g id="Artboard-2-Copy-2" stroke="none" stroke-width="1" fill="none" fill-rule="evenodd">
        <g id="g">
            <path d="M47,64.5 L47,67.5 L50,67.5 L50,76.5 L47,76.5 L47,79.5 L137,79.5 L137,76.5 L134,76.5 L134,67.5 L137,67.5 L137,64.5 L47,64.5 Z M53,67.5 L56,67.5 L56,70.5 L53,70.5 L53,67.5 Z M53,73.5 L56,73.5 L56,76.5 L53,76.5 L53,73.5 Z M59,67.5 L62,67.5 L62,70.5 L59,70.5 L59,67.5 Z M59,73.5 L62,73.5 L62,76.5 L59,76.5 L59,73.5 Z M65,67.5 L68,67.5 L68,70.5 L65,70.5 L65,67.5 Z M65,73.5 L68,73.5 L68,76.5 L65,76.5 L65,73.5 Z M78.5,67.5 L81.5,67.5 L81.5,76.5 L78.5,76.5 L78.5,67.5 Z M84.5,67.5 L87.5,67.5 L87.5,76.5 L84.5,76.5 L84.5,67.5 Z M90.5,67.5 L93.5,67.5 L93.5,76.5 L90.5,76.5 L90.5,67.5 Z" id="Shape" fill="#FFFFFF"></path>
            <rect id="Rectangle-path" fill="#555555" fill-rule="nonzero" x="103.25" y="66.75" width="27" height="9"></rect>
            <rect id="Rectangle-path" fill="#FFFFFF" fill-rule="nonzero" x="106.25" y="69.75" width="21" height="3"></rect>
            <path d="M47,104.5 L47,107.5 L50,107.5 L50,116.5 L47,116.5 L47,119.5 L137,119.5 L137,116.5 L134,116.5 L134,107.5 L137,107.5 L137,104.5 L47,104.5 Z M53,107.5 L56,107.5 L56,110.5 L53,110.5 L53,107.5 Z M53,113.5 L56,113.5 L56,116.5 L53,116.5 L53,113.5 Z M59,107.5 L62,107.5 L62,110.5 L59,110.5 L59,107.5 Z M59,113.5 L62,113.5 L62,116.5 L59,116.5 L59,113.5 Z M65,107.5 L68,107.5 L68,110.5 L65,110.5 L65,107.5 Z M65,113.5 L68,113.5 L68,116.5 L65,116.5 L65,113.5 Z M78.5,107.5 L81.5,107.5 L81.5,116.5 L78.5,116.5 L78.5,107.5 Z M84.5,107.5 L87.5,107.5 L87.5,116.5 L84.5,116.5 L84.5,107.5 Z M90.5,107.5 L93.5,107.5 L93.5,116.5 L90.5,116.5 L90.5,107.5 Z" id="Shape" fill="#FFFFFF"></path>
            <rect id="Rectangle-path" fill="#555555" fill-rule="nonzero" x="103.25" y="106.75" width="27" height="9"></rect>
            <rect id="Rectangle-path" fill="#FFFFFF" fill-rule="nonzero" x="106.25" y="109.75" width="21" height="3"></rect>
            <path d="M47,84.5 L47,87.5 L50,87.5 L50,96.5 L47,96.5 L47,99.5 L137,99.5 L137,96.5 L134,96.5 L134,87.5 L137,87.5 L137,84.5 L47,84.5 Z M53,87.5 L56,87.5 L56,90.5 L53,90.5 L53,87.5 Z M53,93.5 L56,93.5 L56,96.5 L53,96.5 L53,93.5 Z M59,87.5 L62,87.5 L62,90.5 L59,90.5 L59,87.5 Z M59,93.5 L62,93.5 L62,96.5 L59,96.5 L59,93.5 Z M65,87.5 L68,87.5 L68,90.5 L65,90.5 L65,87.5 Z M65,93.5 L68,93.5 L68,96.5 L65,96.5 L65,93.5 Z M78.5,87.5 L81.5,87.5 L81.5,96.5 L78.5,96.5 L78.5,87.5 Z M84.5,87.5 L87.5,87.5 L87.5,96.5 L84.5,96.5 L84.5,87.5 Z M90.5,87.5 L93.5,87.5 L93.5,96.5 L90.5,96.5 L90.5,87.5 Z" id="Shape" fill="#FFFFFF"></path>
            <rect id="Rectangle-path" fill="#555555" fill-rule="nonzero" x="103.25" y="86.75" width="27" height="9"></rect>
            <rect id="Rectangle-path" fill="#FFFFFF" fill-rule="nonzero" x="106.25" y="89.75" width="21" height="3"></rect>
            <path d="M70.66,60.7 C70.6235646,51.878669 75.9093645,43.9056643 84.0487773,40.5046107 C92.1881902,37.103557 101.575181,38.9455363 107.825752,45.1702906 C114.076324,51.395045 115.957139,60.7743317 112.589802,68.9277514 C109.222465,77.081171 101.271406,82.3999248 92.45,82.4 C80.4416953,82.422116 70.687585,72.7082934 70.66,60.7 Z" id="Shape" stroke="#F1C40F" stroke-width="3" fill="#526370" stroke-linecap="round" stroke-linejoin="round"></path>
            <path d="M99.32,57.49 C99.2023631,58.9839422 98.9309264,60.461764 98.51,61.9 C98.0519587,63.1256773 97.3742012,64.2575322 96.51,65.24 L96.43,65.33 C95.2710659,66.6313731 93.9225832,67.7506138 92.43,68.65 C90.9397701,67.7473043 89.5917535,66.6284505 88.43,65.33 L88.36,65.25 C87.4990414,64.2614293 86.8217227,63.1269205 86.36,61.9 C85.9288609,60.4642085 85.6572222,58.9852865 85.55,57.49 L85.55,55.49 C86.3,55.37 87.63,55.56 88.88,55.33 C90.56,55.03 92.23,53.48 92.43,53.48 C92.63,53.48 94.28,55.02 95.99,55.33 C97.24,55.56 98.6,55.33 99.32,55.49 L99.32,57.49 Z M96.77,52.67 C94.62,52.28 92.58,49.85 92.48,49.85 L92.41,49.85 C92.32,49.85 90.28,52.28 88.14,52.67 C86,53.06 83.14,52.07 83.01,52.12 L83.01,57.24 C83.142947,59.0910568 83.4782807,60.9219784 84.01,62.7 C84.6046937,64.3394289 85.5075952,65.849922 86.67,67.15 C88.2339234,68.8213509 90.0490961,70.2384002 92.05,71.35 L92.44,71.55 L92.83,71.35 C94.8309039,70.2384002 96.6460766,68.8213509 98.21,67.15 C99.3765776,65.8512022 100.28298,64.3405322 100.88,62.7 C101.413932,60.9225109 101.749311,59.091343 101.88,57.24 L101.88,52.12 C101.79,52.07 99,53.07 96.77,52.67 Z" id="Shape" fill="#FFFFFF"></path>
            <path d="M91.32,58.75 C91.3199493,58.4653707 91.4343688,58.1926798 91.6375042,57.9933062 C91.8406396,57.7939326 92.1154214,57.6846296 92.4,57.69 L92.48,57.69 C92.7637959,57.6846458 93.0380902,57.7922741 93.2425158,57.9891978 C93.4469414,58.1861216 93.564745,58.4562022 93.57,58.74 L93.57,60 L91.32,60 L91.32,58.75 Z M94.65,60 L94.65,58.74 C94.642099,58.1724188 94.4090222,57.6312295 94.002056,57.2355158 C93.5950898,56.8398022 93.0475796,56.6219875 92.48,56.63 L92.4,56.63 C91.8307075,56.6219941 91.2816929,56.8411763 90.874438,57.2390474 C90.4671831,57.6369186 90.2352647,58.1806756 90.23,58.75 L90.23,60 L89.47,60 L89.47,64.36 L95.47,64.36 L95.47,60 L94.65,60 Z" id="Shape" fill="#FFFFFF"></path>
            <path d="M107.42,115.3 C107.383565,106.478669 112.669364,98.5056643 120.808777,95.1046107 C128.94819,91.703557 138.335181,93.5455363 144.585752,99.7702906 C150.836324,105.995045 152.717139,115.374332 149.349802,123.527751 C145.982465,131.681171 138.031406,136.999925 129.21,137 C123.44246,137.013275 117.906016,134.734168 113.819307,130.664339 C109.732599,126.594509 107.430597,121.067546 107.42,115.3 Z" id="Shape" stroke="#F1C40F" stroke-width="3" fill="#526370" stroke-linecap="round" stroke-linejoin="round"></path>
            <path d="M122.51,110.66 L122.51,114.85 L119.06,114.85 L119.06,110.66 L122.51,110.66 Z M121.89,105.53 L119.72,105.53 L119.72,109.91 L118.32,109.91 L118.32,115.61 L119.72,115.61 L119.72,125.06 L121.89,125.06 L121.89,115.61 L123.26,115.61 L123.26,109.91 L121.89,109.91 L121.89,105.53 Z" id="Shape" fill="#FFFFFF"></path>
            <path d="M128.1,117.55 L128.1,121.74 L124.66,121.74 L124.66,117.55 L128.1,117.55 Z M127.51,105.55 L125.34,105.55 L125.34,116.8 L123.91,116.8 L123.91,122.5 L125.34,122.5 L125.34,125.06 L127.51,125.06 L127.51,122.5 L128.85,122.5 L128.85,116.8 L127.51,116.8 L127.51,105.55 Z" id="Shape" fill="#FFFFFF"></path>
            <path d="M133.72,108.57 L133.72,112.76 L130.28,112.76 L130.28,108.57 L133.72,108.57 Z M133.1,105.57 L130.93,105.57 L130.93,107.86 L129.53,107.86 L129.53,113.56 L130.93,113.56 L130.93,125.1 L133.1,125.1 L133.1,113.52 L134.47,113.52 L134.47,107.82 L133.1,107.82 L133.1,105.57 Z" id="Shape" fill="#FFFFFF"></path>
            <path d="M139.36,119.48 L135.91,119.48 L135.91,115.29 L139.36,115.29 L139.36,119.48 Z M138.69,114.54 L138.69,105.54 L136.52,105.54 L136.52,114.54 L135.17,114.54 L135.17,120.24 L136.52,120.24 L136.52,125.06 L138.69,125.06 L138.69,120.24 L140.11,120.24 L140.11,114.54 L138.69,114.54 Z" id="Shape" fill="#FFFFFF"></path>
            <path d="M32,115.3 C31.9635646,106.478669 37.2493645,98.5056643 45.3887773,95.1046107 C53.5281902,91.703557 62.915181,93.5455363 69.1657523,99.7702906 C75.4163236,105.995045 77.2971386,115.374332 73.929802,123.527751 C70.5624655,131.681171 62.6114062,136.999925 53.79,137 C48.0224598,137.013275 42.4860158,134.734168 38.3993072,130.664339 C34.3125986,126.594509 32.0105966,121.067546 32,115.3 Z" id="Shape" stroke="#F1C40F" stroke-width="3" fill="#526370" stroke-linecap="round" stroke-linejoin="round"></path>
            <path d="M51.06,121.08 C49.4113592,121.047021 48.0983869,119.689624 48.1202641,118.040799 C48.1421413,116.391973 49.4906658,115.06989 51.1396012,115.080664 C52.7885366,115.091438 54.1196702,116.431029 54.12,118.08 C54.087317,119.746514 52.7268345,121.08032 51.06,121.08 Z M57.73,115.98 L57.5,115.98 C56.67,115.98 56.5,115.49 57.06,114.91 L57.36,114.6 C57.6445704,114.316638 57.8045424,113.93159 57.8045424,113.53 C57.8045424,113.12841 57.6445704,112.743362 57.36,112.46 L56.64,111.74 C56.044104,111.151604 55.085896,111.151604 54.49,111.74 L54.18,112.04 C53.59,112.63 53.11,112.43 53.11,111.6 L53.11,111.37 C53.1045457,110.532797 52.4272032,109.855454 51.59,109.85 L50.59,109.85 C50.1756564,109.833732 49.7724544,109.986339 49.4727198,110.272878 C49.1729852,110.559417 49.002391,110.955344 49,111.37 L49,111.6 C49,112.43 48.52,112.6 47.92,112.04 L47.62,111.74 C47.024104,111.151604 46.065896,111.151604 45.47,111.74 L44.75,112.46 C44.4629374,112.742029 44.3012374,113.127576 44.3012374,113.53 C44.3012374,113.932424 44.4629374,114.317971 44.75,114.6 L45.05,114.91 C45.64,115.49 45.44,115.98 44.6,115.98 L44.37,115.98 C43.534417,115.979982 42.8554973,116.654435 42.85,117.49 L42.85,118.49 C42.8552489,118.897554 43.0228978,119.286168 43.315761,119.569644 C43.6086241,119.853121 44.0024913,120.008026 44.41,120 L44.64,120 C45.48,120 45.64,120.48 45.09,121.07 L44.78,121.37 C44.4954296,121.653362 44.3354576,122.03841 44.3354576,122.44 C44.3354576,122.84159 44.4954296,123.226638 44.78,123.51 L45.51,124.24 C46.1080804,124.82305 47.0619196,124.82305 47.66,124.24 L47.96,123.94 C48.56,123.35 49.04,123.55 49.04,124.39 L49.04,124.62 C49.0454973,125.455565 49.724417,126.130018 50.56,126.13 L51.56,126.13 C52.395583,126.130018 53.0745027,125.455565 53.08,124.62 L53.08,124.39 C53.08,123.55 53.56,123.39 54.15,123.94 L54.46,124.24 C55.055896,124.828396 56.014104,124.828396 56.61,124.24 L57.33,123.52 C57.6145704,123.236638 57.7745424,122.85159 57.7745424,122.45 C57.7745424,122.04841 57.6145704,121.663362 57.33,121.38 L57.03,121.08 C56.44,120.49 56.64,120.01 57.47,120.01 L57.7,120.01 C58.5394728,120.01 59.22,119.329473 59.22,118.49 L59.22,117.49 C59.2040436,116.673796 58.5462036,116.015956 57.73,116 L57.73,115.98 Z" id="Shape" fill="#FFFFFF"></path>
            <path d="M60.6,110 C59.7605272,110 59.08,109.319473 59.08,108.48 C59.08,107.640527 59.7605272,106.96 60.6,106.96 C61.4394728,106.96 62.12,107.640527 62.12,108.48 C62.12,109.319473 61.4394728,110 60.6,110 Z M63.92,107.46 L63.81,107.46 C63.39,107.46 63.29,107.22 63.59,106.92 L63.74,106.77 C64.0324534,106.477182 64.0324534,106.002818 63.74,105.71 L63.38,105.35 C63.2389855,105.206469 63.0462121,105.125619 62.845,105.125619 C62.6437879,105.125619 62.4510145,105.206469 62.31,105.35 L62.16,105.5 C61.86,105.79 61.62,105.69 61.62,105.28 L61.62,105.16 C61.6145281,104.744174 61.275862,104.409964 60.86,104.41 L60.35,104.41 C59.934138,104.409964 59.5954719,104.744174 59.59,105.16 L59.59,105.28 C59.59,105.69 59.35,105.79 59.06,105.5 L58.91,105.35 C58.7689855,105.206469 58.5762121,105.125619 58.375,105.125619 C58.1737879,105.125619 57.9810145,105.206469 57.84,105.35 L57.47,105.71 C57.1775466,106.002818 57.1775466,106.477182 57.47,106.77 L57.63,106.92 C57.92,107.22 57.82,107.46 57.4,107.46 L57.29,107.46 C56.874138,107.459964 56.5354719,107.794174 56.53,108.21 L56.53,108.72 C56.53,109.139736 56.8702636,109.48 57.29,109.48 L57.4,109.48 C57.82,109.48 57.92,109.72 57.62,110.01 L57.47,110.16 C57.1817099,110.458411 57.1817099,110.931589 57.47,111.23 L57.84,111.59 C58.1384112,111.87829 58.6115888,111.87829 58.91,111.59 L59.06,111.44 C59.35,111.14 59.59,111.24 59.59,111.66 L59.59,111.77 C59.5899822,111.970657 59.670371,112.162954 59.8131936,112.303897 C59.9560161,112.44484 60.1493607,112.522675 60.35,112.52 L60.86,112.52 C61.0606393,112.522675 61.2539839,112.44484 61.3968064,112.303897 C61.539629,112.162954 61.6200178,111.970657 61.62,111.77 L61.62,111.66 C61.62,111.24 61.86,111.14 62.16,111.44 L62.31,111.59 C62.6084112,111.87829 63.0815888,111.87829 63.38,111.59 L63.74,111.23 C64.0282901,110.931589 64.0282901,110.458411 63.74,110.16 L63.59,110.01 C63.29,109.72 63.39,109.48 63.81,109.48 L63.92,109.48 C64.3397364,109.48 64.68,109.139736 64.68,108.72 L64.68,108.21 C64.6536219,107.809907 64.320961,107.499131 63.92,107.5 L63.92,107.46 Z" id="Shape" fill="#FFFFFF"></path>
        </g>
    </g>
</svg>