<svg xmlns="http://www.w3.org/2000/svg" xmlns:xlink="http://www.w3.org/1999/xlink" viewBox="0 0 369 283"><defs><style>.Graphic-Style,.cls-1,.cls-11,.cls-2,.cls-3,.cls-6,.cls-7,.cls-8,.cls-9{fill-rule:evenodd;}.Graphic-Style{fill:url(#linear-gradient);}.cls-1{fill:#e8eaef;}.cls-2,.cls-4{fill:#474d5d;}.cls-3{fill:#e7ebef;}.cls-13,.cls-5{fill:#2980b9;}.cls-6{fill:#a5adbd;}.cls-7{fill:none;}.cls-11,.cls-12,.cls-7{stroke:#fff;stroke-linecap:round;stroke-linejoin:round;stroke-width:3px;}.cls-11,.cls-12,.cls-8{fill:#2ecc71;}.cls-10,.cls-9{fill:#fff;}.cls-13{font-size:40px;font-family:OpenSans-Bold, Open Sans;font-weight:700;}</style><linearGradient id="linear-gradient" x1="77.72" y1="327.87" x2="222.02" y2="77.94" gradientUnits="userSpaceOnUse"><stop offset="0" stop-opacity="0"/><stop offset="1" stop-opacity="0.05"/></linearGradient></defs><title>monitoring</title><g id="Слой_2" data-name="Слой 2"><g id="Layer_2" data-name="Layer 2"><polygon class="Graphic-Style" points="87.02 0 0 94.12 0 283 278.85 283 366.71 195.69 308.42 167.44 87.02 0"/><polygon class="cls-1" points="179.33 229.58 179.33 226.88 189.61 225.52 198.04 196.3 225.94 196.3 226.75 196.3 254.65 196.3 263.07 225.52 273.35 226.88 273.35 229.58 179.33 229.58"/><polygon class="cls-2" points="196.21 202.62 198.04 196.3 225.94 196.3 226.75 196.3 254.65 196.3 256.47 202.62 196.21 202.62"/><path class="cls-2" d="M83.7,170.21V6.57A6.32,6.32,0,0,1,90,.25H362.68A6.32,6.32,0,0,1,369,6.57V170.21Z"/><path class="cls-3" d="M362.68,196.3H90A6.32,6.32,0,0,1,83.7,190V170.21H369V190A6.32,6.32,0,0,1,362.68,196.3Z"/><ellipse class="cls-4" cx="226.35" cy="182.06" rx="5.64" ry="5.64"/><rect class="cls-5" x="94.63" y="11.17" width="263.03" height="147.84"/><path class="cls-6" d="M226.75,4.41a1.35,1.35,0,1,1-1.35,1.35A1.35,1.35,0,0,1,226.75,4.41Z"/><polyline class="cls-7" points="104.3 119.4 138.91 75.98 166.63 94.46 194.35 57.51 222.08 85.22 259.39 42.5 285.84 77.83 314.48 56.59 347.75 87.07"/><path class="cls-8" d="M200.36,85.22H187.42A2.77,2.77,0,0,0,184.65,88V147.1a2.77,2.77,0,0,0,2.77,2.78h12.94a2.77,2.77,0,0,0,2.77-2.78V88A2.77,2.77,0,0,0,200.36,85.22Z"/><path class="cls-8" d="M323.72,77.83A2.77,2.77,0,0,0,321,75.06H308a2.77,2.77,0,0,0-2.77,2.77V147.1a2.78,2.78,0,0,0,2.77,2.78H321a2.78,2.78,0,0,0,2.77-2.78Z"/><path class="cls-9" d="M159.7,112.93h12.94a2.77,2.77,0,0,1,2.77,2.77v31.4a2.77,2.77,0,0,1-2.77,2.78H159.7a2.77,2.77,0,0,1-2.77-2.78V115.7A2.77,2.77,0,0,1,159.7,112.93Z"/><rect class="cls-10" x="277.52" y="95.07" width="18.48" height="54.81" rx="2.77" ry="2.77"/><path class="cls-8" d="M144.92,94.46H132a2.77,2.77,0,0,0-2.77,2.77V147.1a2.77,2.77,0,0,0,2.77,2.78h12.94a2.77,2.77,0,0,0,2.77-2.78V97.23A2.77,2.77,0,0,0,144.92,94.46Z"/><path class="cls-8" d="M268.28,69.52a2.77,2.77,0,0,0-2.77-2.77H252.57a2.77,2.77,0,0,0-2.77,2.77V147.1a2.78,2.78,0,0,0,2.77,2.78h12.94a2.78,2.78,0,0,0,2.77-2.78Z"/><path class="cls-9" d="M215.15,103.69h12.93a2.77,2.77,0,0,1,2.77,2.77V147.1a2.77,2.77,0,0,1-2.77,2.78H215.15a2.77,2.77,0,0,1-2.78-2.78V106.46A2.77,2.77,0,0,1,215.15,103.69Z"/><path class="cls-11" d="M129.67,76a9.24,9.24,0,1,1,9.24,9.24A9.24,9.24,0,0,1,129.67,76Z"/><path class="cls-11" d="M157.39,94.46a9.24,9.24,0,1,1,9.24,9.23A9.24,9.24,0,0,1,157.39,94.46Z"/><path class="cls-11" d="M185.11,57.51a9.24,9.24,0,1,1,9.24,9.24A9.24,9.24,0,0,1,185.11,57.51Z"/><path class="cls-11" d="M212.84,85.22a9.24,9.24,0,1,1,9.24,9.24A9.24,9.24,0,0,1,212.84,85.22Z"/><path class="cls-11" d="M249.8,41.81A9.24,9.24,0,1,1,259,51.05,9.24,9.24,0,0,1,249.8,41.81Z"/><path class="cls-11" d="M277.52,76a9.24,9.24,0,1,1,9.24,9.24A9.24,9.24,0,0,1,277.52,76Z"/><ellipse class="cls-12" cx="314.48" cy="57.51" rx="9.24" ry="9.24"/><rect class="cls-4" x="69.75" y="128.18" width="70.72" height="104.9" rx="7.6" ry="7.6"/><polygon class="cls-9" points="136.77 222.26 73.55 222.26 72.82 222.26 72.82 137.84 73.58 137.84 136.67 137.84 137.53 137.84 137.53 222.26 136.77 222.26"/><circle class="cls-10" cx="103.97" cy="227.74" r="3.15"/><path class="cls-6" d="M99.36,133.56a.76.76,0,1,1,0-1.52.76.76,0,1,1,0,1.52Zm11.41,0h-7.6a.76.76,0,1,1,0-1.52h7.6a.76.76,0,1,1,0,1.52Z"/><text class="cls-13" transform="translate(88.33 193.98)">%</text></g></g></svg>