<?xml version="1.0" encoding="UTF-8"?>
<svg viewBox="0 0 120 120" version="1.1" xmlns="http://www.w3.org/2000/svg" xmlns:xlink="http://www.w3.org/1999/xlink">
    <g id="Group-8">
        <path d="M0,60 C0,26.86 26.86,0 60,0 C93.14,0 120,26.86 120,60 C120,93.14 93.14,120 60,120 C26.86,120 0,93.14 0,60" id="Fill-208" fill="#FFFFFF"></path>
        <path d="M5,60 C5,29.62 29.62,5 60,5 C90.38,5 115,29.62 115,60 C115,90.38 90.38,115 60,115 C29.62,115 5,90.38 5,60" id="Fill-210" fill="#F95600"></path>
        <path d="M82.46,90.96 L82.36,90.96 C81.97,91.35 81.57,91.69 81.15,91.99 L86.16,100.69 L88.46,95.04 L94.48,95.87 L89.14,86.59 C88.8,87.5 88.3,88.31 87.63,88.981 C86.34,90.27 84.56,90.96 82.46,90.96" id="Fill-212" fill="#FFFFFF"></path>
        <path d="M68.3198,100.6904 L73.3298,92.0004 C72.9098,91.7004 72.4998,91.3494 72.1098,90.9604 L72.0098,90.9604 C69.9098,90.9604 68.1198,90.2694 66.8298,88.9804 C66.1698,88.3094 65.6698,87.5094 65.3398,86.6104 L59.9998,95.8704 L66.0298,95.0404 L68.3198,100.6904 Z" id="Fill-214" fill="#FFFFFF"></path>
        <path d="M72.0098,88.5498 C72.3698,88.5498 72.7498,88.5198 73.1398,88.4698 C74.2798,89.9898 75.6998,90.8898 77.2298,90.8898 C78.7698,90.8898 80.1898,89.9898 81.3298,88.4698 C81.7198,88.5198 82.0998,88.5498 82.4598,88.5498 C83.8698,88.5498 85.0798,88.1398 85.9398,87.2798 C87.0198,86.1908 87.3898,84.5498 87.1298,82.6598 C88.6498,81.5098 89.5398,80.0898 89.5398,78.5498 C89.5398,77.0098 88.6498,75.5898 87.1298,74.4408 C87.3898,72.5498 87.0198,70.9098 85.9398,69.8208 C85.0798,68.9598 83.8698,68.5498 82.4598,68.5498 C82.0998,68.5498 81.7198,68.5798 81.3298,68.6298 C80.1898,67.1108 78.7698,66.2098 77.2298,66.2098 C75.6998,66.2098 74.2798,67.1108 73.1398,68.6298 C72.7498,68.5798 72.3698,68.5498 72.0098,68.5498 C70.5998,68.5498 69.3898,68.9598 68.5298,69.8208 C67.4398,70.9098 67.0798,72.5498 67.3398,74.4408 C65.8198,75.5898 64.9198,77.0098 64.9198,78.5498 C64.9198,80.0898 65.8198,81.5098 67.3398,82.6598 C67.0798,84.5498 67.4398,86.1908 68.5298,87.2798 C69.3898,88.1398 70.5998,88.5498 72.0098,88.5498 M71.7098,76.2498 C71.8298,75.4098 72.1898,74.6598 72.7698,74.0798 C73.3498,73.4998 74.0998,73.1298 74.9398,73.0098 C75.6198,72.4998 76.4098,72.2198 77.2298,72.2198 C78.0598,72.2198 78.8498,72.4998 79.5298,73.0098 C80.3698,73.1298 81.1198,73.4998 81.6998,74.0708 C82.2798,74.6598 82.6398,75.4098 82.7598,76.2498 C83.2698,76.9408 83.5498,77.7198 83.5498,78.5498 C83.5498,79.3798 83.2698,80.1598 82.7598,80.8398 C82.6398,81.6908 82.2798,82.4408 81.6998,83.0198 C81.1198,83.5998 80.3698,83.9698 79.5298,84.0898 C78.8498,84.5998 78.0598,84.8798 77.2298,84.8798 C76.4098,84.8798 75.6198,84.5998 74.9398,84.0898 C74.0998,83.9698 73.3498,83.5998 72.7698,83.0198 C72.1898,82.4408 71.8298,81.6908 71.7098,80.8398 C71.1998,80.1598 70.9198,79.3798 70.9198,78.5498 C70.9198,77.7198 71.1998,76.9408 71.7098,76.2498" id="Fill-216" fill="#FFFFFF"></path>
        <path d="M36.5698,41.4805 C36.8098,37.3205 37.9298,35.2595 38.9298,34.2505 C39.4198,34.6295 39.9398,35.6205 39.9398,37.7405 L39.9398,41.4805 L36.5698,41.4805 Z M57.0398,81.4005 L48.9798,81.4005 C49.6098,80.1205 50.0898,78.3605 50.2398,75.9595 L58.6898,75.9405 C59.1998,74.7505 59.7798,73.5995 60.4398,72.5095 L46.8698,72.5405 L46.8698,74.2505 C46.8698,79.6505 45.2798,81.2695 44.2798,81.3895 C43.8398,81.3095 43.3598,80.6605 43.3598,79.0495 L43.3598,37.7405 C43.3598,35.6695 42.9398,34.1605 42.3198,33.0805 L75.4198,33.0995 C77.6698,33.0995 77.8798,35.3205 77.8898,35.9905 L77.8898,59.9505 C79.0098,59.7095 80.1498,59.5305 81.3098,59.4195 L81.3098,35.9905 C81.3098,33.4505 79.7398,29.6695 75.4198,29.6695 L41.8198,29.6695 C41.2198,29.6205 38.9898,29.5995 36.8798,31.4695 C34.3798,33.7005 33.0998,37.6395 33.0998,43.2005 L33.0998,44.9105 L39.9398,44.9105 L39.9398,79.0495 C39.9398,81.0895 40.4898,82.6395 41.5698,83.6795 C42.4198,84.5005 43.3498,84.7305 43.8998,84.7995 L43.8998,84.8305 L56.6098,84.8305 C56.6798,83.6605 56.8198,82.5195 57.0398,81.4005 Z" id="Fill-218" fill="#FFFFFF"></path>
        <path d="M68.3901,78.5195 C68.3901,73.6105 72.3701,69.6205 77.2701,69.6205 C82.1801,69.6205 86.1501,73.6105 86.1501,78.5195 C86.1501,83.4405 82.1801,87.4295 77.2701,87.4295 C72.3701,87.4295 68.3901,83.4405 68.3901,78.5195" id="Fill-225" fill="#FFC500"></path>
        <polygon id="Fill-220" fill="#EBF0F1" points="49.72 44.36 72.32 44.36 72.32 40.929 49.72 40.929"></polygon>
        <polygon id="Fill-222" fill="#EBF0F1" points="49.72 51.98 72.32 51.98 72.32 48.549 49.72 48.549"></polygon>
        <polygon id="Fill-223" fill="#EBF0F1" points="49.72 58.91 72.32 58.91 72.32 55.48 49.72 55.48"></polygon>
        <path d="M49.7202,67.2305 L65.3102,67.2195 C66.7202,65.9295 68.2602,64.7805 69.9102,63.7995 L49.7202,63.7995 L49.7202,67.2305 Z" id="Fill-224" fill="#EBF0F1"></path>
    </g>
</svg>
