<?xml version="1.0" encoding="UTF-8"?>
<svg width="120px" height="120px" viewBox="0 0 120 120" version="1.1" xmlns="http://www.w3.org/2000/svg" xmlns:xlink="http://www.w3.org/1999/xlink">
    <g id="Page-1" stroke="none" stroke-width="1" fill="none" fill-rule="evenodd">
        <g id="Group-4">
            <path d="M0,60 C0,26.86 26.86,0 60,0 C93.14,0 120,26.86 120,60 C120,93.14 93.14,120 60,120 C26.86,120 0,93.14 0,60" id="Fill-143" fill="#FFFFFF"></path>
            <path d="M5,60 C5,29.62 29.62,5 60,5 C90.38,5 115,29.62 115,60 C115,90.38 90.38,115 60,115 C29.62,115 5,90.38 5,60" id="Fill-145" fill="#0081BC"></path>
            <path d="M73.5498,47.2402 L65.7598,47.2402 C64.0998,47.2402 62.7598,48.5802 62.7598,50.2402 L62.7598,92.5202 C62.7598,94.1702 64.0998,95.5202 65.7598,95.5202 L73.5498,95.5202 C75.2098,95.5202 76.5498,94.1702 76.5498,92.5202 L76.5498,50.2402 C76.5498,48.5802 75.2098,47.2402 73.5498,47.2402" id="Fill-147" fill="#03C301"></path>
            <path d="M45.0698,67.9302 L52.8598,67.9302 C54.5198,67.9302 55.8598,69.2702 55.8598,70.9302 L55.8598,92.5202 C55.8598,94.1702 54.5198,95.5202 52.8598,95.5202 L45.0698,95.5202 C43.4098,95.5202 42.0698,94.1702 42.0698,92.5202 L42.0698,70.9302 C42.0698,69.2702 43.4098,67.9302 45.0698,67.9302" id="Fill-149" fill="#FFFFFF"></path>
            <path d="M32.1699,54.1401 L24.3799,54.1401 C22.7199,54.1401 21.3799,55.4801 21.3799,57.1401 L21.3799,92.5201 C21.3799,94.1701 22.7199,95.5201 24.3799,95.5201 L32.1699,95.5201 C33.8299,95.5201 35.1699,94.1701 35.1699,92.5201 L35.1699,57.1401 C35.1699,55.4801 33.8299,54.1401 32.1699,54.1401" id="Fill-151" fill="#03C301"></path>
            <path d="M86.4502,61.0298 L94.2402,61.0298 C95.9002,61.0298 97.2402,62.3798 97.2402,64.0298 L97.2402,92.5198 C97.2402,94.1698 95.9002,95.5198 94.2402,95.5198 L86.4502,95.5198 C84.7902,95.5198 83.4502,94.1698 83.4502,92.5198 L83.4502,64.0298 C83.4502,62.3798 84.7902,61.0298 86.4502,61.0298" id="Fill-153" fill="#FFFFFF"></path>
            <path d="M28.4684808,42.0173178 L6.83429708,67.6744272 C6.47827931,68.0966473 5.84739289,68.1503148 5.42517281,67.7942971 C5.00295273,67.4382793 4.94928515,66.8073929 5.30530292,66.3851728 L27.5153029,40.0451728 C27.8432829,39.6562042 28.4110369,39.575509 28.8344074,39.8576878 L48.7374199,53.1231563 L68.8598696,26.2997072 C69.2250861,25.8128696 69.9368365,25.762415 70.3670777,26.1928642 L90.2632089,46.0986163 L104.503815,28.5790484 C104.85217,28.1504839 105.481987,28.0854607 105.910552,28.4338152 C106.339116,28.7821696 106.404139,29.411987 106.055785,29.8405516 L91.1157848,48.2205516 C90.7417499,48.6807096 90.0517344,48.7161507 89.6325223,48.2967358 L69.7677297,28.4223374 L49.7697304,55.0798928 C49.4512936,55.5043725 48.8567495,55.6062123 48.4151926,55.3119122 L28.4684808,42.0173178 Z" id="Stroke-155" fill="#FFFFFF" fill-rule="nonzero"></path>
            <path d="M21.3799,40.6899 C21.3799,36.8799 24.4699,33.7899 28.2799,33.7899 C32.0799,33.7899 35.1699,36.8799 35.1699,40.6899 C35.1699,44.4999 32.0799,47.5899 28.2799,47.5899 C24.4699,47.5899 21.3799,44.4999 21.3799,40.6899" id="Fill-157" fill="#03C301"></path>
            <path d="M22.3799,40.6899 C22.3799,43.9476153 25.0221847,46.5899 28.2799,46.5899 C31.5289375,46.5899 34.1699,43.9462912 34.1699,40.6899 C34.1699,37.4335088 31.5289375,34.7899 28.2799,34.7899 C25.0221847,34.7899 22.3799,37.4321847 22.3799,40.6899 Z M20.3799,40.6899 C20.3799,36.3276153 23.9176153,32.7899 28.2799,32.7899 C32.6339556,32.7899 36.1699,36.3293874 36.1699,40.6899 C36.1699,45.0504126 32.6339556,48.5899 28.2799,48.5899 C23.9176153,48.5899 20.3799,45.0521847 20.3799,40.6899 Z" id="Stroke-159" fill="#FFFFFF" fill-rule="nonzero"></path>
            <path d="M42.0698,54.48 C42.0698,50.67 45.1598,47.59 48.9698,47.59 C52.7698,47.59 55.8598,50.67 55.8598,54.48 C55.8598,58.29 52.7698,61.38 48.9698,61.38 C45.1598,61.38 42.0698,58.29 42.0698,54.48" id="Fill-161" fill="#03C301"></path>
            <path d="M43.0698,54.48 C43.0698,57.7377153 45.7120847,60.38 48.9698,60.38 C52.2188375,60.38 54.8598,57.7363912 54.8598,54.48 C54.8598,51.2259612 52.2211949,48.59 48.9698,48.59 C45.7097259,48.59 43.0698,51.2246408 43.0698,54.48 Z M41.0698,54.48 C41.0698,50.119173 44.6060526,46.59 48.9698,46.59 C53.3253158,46.59 56.8598,50.1209426 56.8598,54.48 C56.8598,58.8405126 53.3238556,62.38 48.9698,62.38 C44.6075153,62.38 41.0698,58.8422847 41.0698,54.48 Z" id="Stroke-163" fill="#FFFFFF" fill-rule="nonzero"></path>
            <path d="M62.7598,26.8999 C62.7598,23.0899 65.8498,19.9999 69.6598,19.9999 C73.4598,19.9999 76.5498,23.0899 76.5498,26.8999 C76.5498,30.7099 73.4598,33.7899 69.6598,33.7899 C65.8498,33.7899 62.7598,30.7099 62.7598,26.8999" id="Fill-165" fill="#03C301"></path>
            <path d="M63.7598,26.8999 C63.7598,30.1552592 66.3997259,32.7899 69.6598,32.7899 C72.9111949,32.7899 75.5498,30.1539388 75.5498,26.8999 C75.5498,23.6435088 72.9088375,20.9999 69.6598,20.9999 C66.4020847,20.9999 63.7598,23.6421847 63.7598,26.8999 Z M61.7598,26.8999 C61.7598,22.5376153 65.2975153,18.9999 69.6598,18.9999 C74.0138556,18.9999 77.5498,22.5393874 77.5498,26.8999 C77.5498,31.2589574 74.0153158,34.7899 69.6598,34.7899 C65.2960526,34.7899 61.7598,31.260727 61.7598,26.8999 Z" id="Stroke-167" fill="#FFFFFF" fill-rule="nonzero"></path>
            <path d="M83.4502,47.5898 C83.4502,43.7798 86.5402,40.6898 90.3402,40.6898 C94.1502,40.6898 97.2402,43.7798 97.2402,47.5898 C97.2402,51.3998 94.1502,54.4798 90.3402,54.4798 C86.5402,54.4798 83.4502,51.3998 83.4502,47.5898" id="Fill-169" fill="#03C301"></path>
            <path d="M84.4502,47.5898 C84.4502,50.8438388 87.0888051,53.4798 90.3402,53.4798 C93.6002741,53.4798 96.2402,50.8451592 96.2402,47.5898 C96.2402,44.3320847 93.5979153,41.6898 90.3402,41.6898 C87.0911625,41.6898 84.4502,44.3334088 84.4502,47.5898 Z M82.4502,47.5898 C82.4502,43.2292874 85.9861444,39.6898 90.3402,39.6898 C94.7024847,39.6898 98.2402,43.2275153 98.2402,47.5898 C98.2402,51.950627 94.7039474,55.4798 90.3402,55.4798 C85.9846842,55.4798 82.4502,51.9488574 82.4502,47.5898 Z" id="Stroke-171" fill="#FFFFFF" fill-rule="nonzero"></path>
        </g>
    </g>
</svg>
