<?xml version="1.0" encoding="UTF-8"?>
<svg width="120px" height="120px" viewBox="0 0 120 120" version="1.1" xmlns="http://www.w3.org/2000/svg" xmlns:xlink="http://www.w3.org/1999/xlink">
    <g id="Page-1" stroke="none" stroke-width="1" fill="none" fill-rule="evenodd">
        <g id="Group-6">
            <path d="M0,60 C0,26.86 26.86,0 60,0 C93.14,0 120,26.86 120,60 C120,93.14 93.14,120 60,120 C26.86,120 0,93.14 0,60" id="Fill-123" fill="#FFFFFF"></path>
            <path d="M5,60 C5,29.62 29.62,5 60,5 C90.38,5 115,29.62 115,60 C115,90.38 90.38,115 60,115 C29.62,115 5,90.38 5,60" id="Fill-125" fill="#23475F"></path>
            <path d="M60.04,39.0498 C60.04,39.0498 65.77,41.3798 71.26,41.3798 C76.74,41.3798 83.59,39.5898 83.59,39.5898 C83.59,39.5898 84.83,43.5598 84.83,49.4598 C84.83,64.7898 79.89,74.4298 73.24,79.8998 C69.23,83.1998 62.71,87.7798 60.04,87.7798 C57.36,87.7798 50.89,83.2098 46.91,79.9398 C40.27,74.4798 35.36,64.7898 35.36,49.4598 C35.36,43.4598 36.6,39.5898 36.6,39.5898 C36.6,39.5898 43.33,41.3798 48.94,41.3798 C54.55,41.3798 60.04,39.0498 60.04,39.0498" id="Fill-127" fill="#FF4B38"></path>
            <path d="M59.4354518,40.3539546 C58.6602232,40.6350881 57.7963251,40.9157074 56.8641763,41.1775407 C54.1908786,41.9284489 51.4973005,42.3798 48.94,42.3798 C48.1416252,42.3798 47.299094,42.344926 46.4175013,42.278017 C44.5303395,42.1347898 42.5231079,41.8508554 40.4817436,41.4676313 C39.4237214,41.2690094 38.423663,41.056231 37.5118084,40.8432865 C37.4431705,40.8272576 37.3760775,40.8114694 37.3105671,40.7959391 C37.1925668,41.2836575 37.0751425,41.8372042 36.9640983,42.4524247 C36.586809,44.5427293 36.36,46.8967869 36.36,49.4598 C36.36,63.3612158 40.4440933,73.3282893 47.5448222,79.1671418 C52.5629479,83.2900742 58.0745213,86.7798 60.04,86.7798 C62.005565,86.7798 67.6059449,83.2412232 72.6047406,79.1275011 C79.7378774,73.2600939 83.83,63.3379962 83.83,49.4598 C83.83,46.9405008 83.6031613,44.595281 83.2256781,42.4886814 C83.1131949,41.8609524 82.9941333,41.2943063 82.874502,40.7937914 C82.8043527,40.8102164 82.7324159,40.8269331 82.6587387,40.843921 C81.7359176,41.0566968 80.7269411,41.2693255 79.6634839,41.4678227 C77.7689542,41.8214419 75.9110467,42.0911625 74.1628872,42.2434353 C73.1364963,42.3328386 72.166049,42.3798 71.26,42.3798 C71.0304997,42.3798 70.7986169,42.3759283 70.5644372,42.3682721 C68.2501604,42.2926091 65.7923966,41.8570569 63.3261596,41.1790236 C62.3759428,40.917784 61.4897123,40.6378712 60.6902057,40.3575325 C60.4537034,40.2746055 60.2387454,40.1964793 60.0470425,40.1245096 C59.86453,40.1955496 59.6601855,40.2724558 59.4354518,40.3539546 Z M60.4166806,38.1234568 C60.5811681,38.1903426 60.9008107,38.311994 61.3519818,38.4701925 C62.1098971,38.7359476 62.9526509,39.0021285 63.8563404,39.2505764 C66.1827714,39.8901734 68.4923059,40.2994572 70.6297903,40.3693401 C70.8424235,40.3762919 71.0525295,40.3798 71.26,40.3798 C72.1045065,40.3798 73.0178093,40.3356039 73.9893351,40.2509796 C75.6661755,40.104919 77.4616014,39.8442692 79.2965161,39.5017773 C80.3308714,39.308712 81.3126761,39.1018094 82.2093863,38.895054 C82.5225807,38.8228405 82.8024649,38.7558835 83.0449947,38.6959328 C83.1891167,38.6603075 83.2878555,38.6351758 83.3371756,38.6222878 C83.8537912,38.487289 84.3853281,38.7819823 84.5445228,39.2916619 C84.5888694,39.4336426 84.6618779,39.6922006 84.7538157,40.0594572 C84.9045193,40.6614617 85.0546102,41.3562369 85.1943219,42.1359186 C85.5918387,44.354319 85.83,46.8165992 85.83,49.4598 C85.83,63.9036728 81.5013905,74.3991759 73.8754372,80.6719525 C68.4449875,85.1409012 62.6858314,88.7798 60.04,88.7798 C57.3932063,88.7798 51.7293726,85.1936685 46.2748638,80.7122001 C38.6790819,74.466271 34.36,63.9257171 34.36,49.4598 C34.36,46.7728131 34.598191,44.3006207 34.9959017,42.0971753 C35.1357995,41.3220961 35.2861452,40.6346285 35.4371701,40.0414903 C35.5294526,39.6790582 35.602872,39.4245432 35.6476902,39.2846671 C35.8102682,38.7772664 36.342128,38.4864464 36.857037,38.6233984 C36.9051877,38.6362052 37.0019969,38.6612578 37.1436095,38.6968063 C37.3821013,38.7566742 37.657729,38.8235513 37.9666291,38.8956885 C38.8512589,39.1022752 39.8229974,39.3090281 40.8507564,39.5019687 C42.8252038,39.8726306 44.7622825,40.1466414 46.5688571,40.2837524 C47.4021762,40.3469976 48.1946587,40.3798 48.94,40.3798 C51.2914495,40.3798 53.8122464,39.9574011 56.3233237,39.2520593 C57.2057061,39.0042051 58.02298,38.7387306 58.7536107,38.4737704 C59.1879328,38.3162652 59.4935976,38.1953633 59.649321,38.129273 C59.8941558,38.0253632 60.1702988,38.0232701 60.4166806,38.1234568 Z" id="Stroke-129" fill="#FFFFFF" fill-rule="nonzero"></path>
            <path d="M65.8398,58 L65.8398,54.6 C65.8398,51.49 63.2598,48.97 60.0798,48.97 L59.9698,48.97 L59.8698,48.97 C56.6898,48.97 54.1098,51.49 54.1098,54.6 L54.1098,58 L52.0698,58 L52.0698,69.66 L67.9298,69.66 L67.9298,58 L65.8398,58 Z M56.9898,54.6 C56.9898,53.05 58.2798,51.79 59.8698,51.79 L60.0098,51.79 L60.0798,51.79 C61.6698,51.79 62.9598,53.05 62.9598,54.6 L62.9598,58 L56.9898,58 L56.9898,54.6 Z" id="Fill-131" fill="#FFFFFF"></path>
            <path d="M14.441913,62.3398 L8.2798,62.3398 L14.5232754,54.1214862 C14.563529,53.7212763 14.609154,53.320719 14.6602,52.9199 L15.3056423,53.0916533 L17.4798,50.2298 L27.0298,62.3398 L20.5081644,62.3398 C22.0018992,78.3181025 33.1758935,92.400158 49.5102,96.7399 C68.4702,101.7899 87.8902,91.9699 95.5302,74.4399 L101.4302,75.9999 C92.8802,96.7799 70.1502,108.5199 47.9502,102.6099 C28.9150591,97.5487314 15.9507967,81.0154423 14.441913,62.3398 Z" id="Combined-Shape" fill="#FFFFFF"></path>
            <path d="M105.064696,56.7998 L111.7202,56.7998 L102.1802,68.9098 L92.9702,56.7998 L99.0229673,56.7998 C98.2700988,40.0481708 86.8597784,25.0108803 69.8899,20.4999 C50.9199,15.4499 31.5099,25.2699 23.8599,42.8099 L17.9699,41.2399 C26.5199,20.4599 49.2499,8.7199 71.4399,14.6299 C91.1269956,19.8620561 104.31822,37.3545791 105.064696,56.7998 Z" id="Combined-Shape" fill="#FFFFFF"></path>
        </g>
    </g>
</svg>
