<?xml version="1.0" encoding="UTF-8"?>
<svg width="29px" height="20px" viewBox="0 0 29 20" version="1.1" xmlns="http://www.w3.org/2000/svg" xmlns:xlink="http://www.w3.org/1999/xlink">
    <!-- Generator: Sketch 49.3 (51167) - http://www.bohemiancoding.com/sketch -->
    <title>Combined Shape</title>
    <desc>Created with Sketch.</desc>
    <defs></defs>
    <g id="Page-1" stroke="none" stroke-width="1" fill="none" fill-rule="evenodd">
        <path d="M16,14.8812032 C14.4915877,3.8910205 21.8272739,-0.554440061 27.0972315,0.0738770332 C28.1940331,0.20464453 29.5724624,2.63882703 26.9105509,3.63275312 C24.7263591,4.44830439 21.9571959,4.25634087 22.0883834,10 C24.3264447,10.4968216 26,12.4935725 26,14.8812032 C26,17.6426269 23.7614237,19.8812032 21,19.8812032 C18.2385763,19.8812032 16,17.6426269 16,14.8812032 Z M1,15 C-0.508412333,4.00981732 6.82727392,-0.43564324 12.0972315,0.192673854 C13.1940331,0.323441351 14.5724624,2.75762385 11.9105509,3.75154994 C9.72635908,4.56710121 6.95719593,4.37513769 7.08838343,10.1187968 C9.32644466,10.6156185 11,12.6123693 11,15 C11,17.7614237 8.76142375,20 6,20 C3.23857625,20 1,17.7614237 1,15 Z" id="Combined-Shape" fill="#CADAE5"></path>
    </g>
</svg>