<?xml version="1.0" encoding="UTF-8"?>
<svg width="266px" height="122px" viewBox="0 0 266 122" version="1.1" xmlns="http://www.w3.org/2000/svg" xmlns:xlink="http://www.w3.org/1999/xlink">
    <!-- Generator: Sketch 49.3 (51167) - http://www.bohemiancoding.com/sketch -->
    <title>Artboard 3</title>
    <desc>Created with Sketch.</desc>
    <defs>
        <polygon id="path-1" points="0.26392251 0.308 63.4791373 0.308 63.4791373 62.6550975 0.26392251 62.6550975"></polygon>
        <polygon id="path-3" points="0 0.9199 265.6398 0.9199 265.6398 29.9999 0 29.9999"></polygon>
    </defs>
    <g id="Page-1" stroke="none" stroke-width="1" fill="none" fill-rule="evenodd">
        <g id="Artboard-3">
            <g id="Page-1">
                <path d="M258.2199,121.6918 C256.5499,111.6318 248.0999,103.8318 237.6699,103.0318 C233.5499,98.7418 227.7199,96.0718 221.2699,96.0718 C218.9999,96.0718 216.7999,96.4018 214.7299,97.0118 C212.5199,94.7318 209.3999,93.3118 205.9499,93.3118 C202.8099,93.3118 199.9499,94.4818 197.7899,96.4118 C191.2899,96.4618 185.5699,99.7118 182.1499,104.6418 C180.9299,104.0118 179.5499,103.6518 178.0899,103.6518 C177.8599,103.6518 177.6399,103.6618 177.4099,103.6818 C175.5099,101.1518 172.4599,99.5118 169.0299,99.5118 C167.6899,99.5118 166.4099,99.7618 165.2299,100.2218 C163.9099,99.2418 162.4299,98.4518 160.8399,97.9218 C160.1699,95.1318 157.7899,92.9918 154.8499,92.6618 C152.6399,87.9518 147.8099,84.6918 142.2199,84.6918 C138.2899,84.6918 134.7299,86.3118 132.1999,88.9018 C131.7199,88.8518 131.2299,88.8318 130.7299,88.8318 C128.1599,88.8318 125.7499,89.5218 123.6799,90.7218 C122.4099,89.3418 120.5699,88.4818 118.5399,88.4818 C117.1899,88.4818 115.9399,88.8618 114.8699,89.5218 C112.5699,88.2018 109.8999,87.4518 107.0499,87.4518 C100.5899,87.4518 95.0499,91.3218 92.6499,96.8418 C91.1099,96.5618 89.5199,96.4118 87.8999,96.4118 L87.3599,96.4218 C85.9499,93.5518 82.9699,91.5818 79.5399,91.5818 C78.7699,91.5818 78.0199,91.6818 77.3099,91.8718 C75.0999,88.7818 71.4699,86.7618 67.3499,86.7618 C62.1599,86.7618 57.7299,89.9718 55.9699,94.5018 C49.3599,95.2718 43.6099,98.8618 40.0099,104.0318 C29.6899,104.5718 21.1999,111.9618 19.0999,121.6918 L258.2199,121.6918 Z" id="Fill-1" fill="#007BB2"></path>
                <g id="Group-5" transform="translate(135.000000, 0.692000)">
                    <mask id="mask-2" fill="white">
                        <use xlink:href="#path-1"></use>
                    </mask>
                    <g id="Clip-4"></g>
                    <path d="M30.5002,13.78 C46.7102,-2.2 58.7402,-0.77 61.6602,2.13 C64.5802,5.03 65.9802,16.94 49.7702,32.92 C33.5602,48.9 3.5202,65.21 0.6002,62.32 C-2.3198,59.42 14.2902,29.76 30.5002,13.78" id="Fill-3" fill="#FFFFFF" mask="url(#mask-2)"></path>
                </g>
                <path d="M127.82,48.6522 C134.12,47.8822 140.69,49.8922 145.5,54.6722 C150.32,59.4622 152.32,65.9622 151.52,72.1922 L161.06,62.7922 C161.86,56.5622 159.86,50.0522 155.05,45.2722 C150.23,40.4922 143.66,38.4822 137.37,39.2522 L127.82,48.6522 Z" id="Fill-6" fill="#DCDDDF"></path>
                <path d="M128.78,47.2718 C135.08,46.5018 141.64,48.5118 146.46,53.2918 C151.27,58.0718 153.28,64.5818 152.47,70.8118 L162.02,61.4018 C162.82,55.1818 160.82,48.6718 156,43.8818 C151.18,39.1018 144.62,37.0918 138.32,37.8618 L128.78,47.2718 Z" id="Fill-8" fill="#EEEEEE"></path>
                <path d="M167.1398,15.9818 C182.3298,1.0018 192.3698,1.7018 195.0698,4.3918 C197.7698,7.0718 198.4398,17.0118 183.2498,31.9818 C168.0598,46.9618 140.8498,63.1918 138.1498,60.5018 C135.4398,57.8118 151.9498,30.9518 167.1398,15.9818" id="Fill-10" fill="#EEEEEE"></path>
                <path d="M191.1598,23.2518 C198.0498,13.4118 197.1798,6.9218 195.0698,4.8318 C192.9598,2.7418 186.4098,1.8518 176.4498,8.6318 C177.2598,12.0618 179.0198,15.3218 181.7098,18.0018 C184.4098,20.6818 187.6898,22.4318 191.1598,23.2518" id="Fill-12" fill="#FFC500"></path>
                <path d="M190.84,23.5619 C191.24,22.9919 191.62,22.4319 191.97,21.8819 C188.67,21.0119 185.56,19.3019 182.98,16.7419 C180.41,14.1919 178.69,11.1019 177.83,7.8419 C177.28,8.1819 176.71,8.5519 176.13,8.9419 C176.94,12.3819 178.7,15.6319 181.39,18.3119 C184.09,20.9919 187.38,22.7419 190.84,23.5619" id="Fill-14" fill="#FF4B38"></path>
                <path d="M169.9699,21.0018 C172.2599,18.7518 175.9499,18.7518 178.2199,21.0018 C180.4799,23.2518 180.4699,26.9118 178.1899,29.1618 C175.8999,31.4118 172.2199,31.4018 169.9499,29.1518 C167.6799,26.9018 167.6899,23.2518 169.9699,21.0018" id="Fill-16" fill="#BCBCBC"></path>
                <path d="M170.9201,22.3822 C172.6801,20.6522 175.5201,20.6522 177.2601,22.3922 C179.0101,24.1222 179.0001,26.9322 177.2401,28.6622 C175.4801,30.3922 172.6501,30.3922 170.9001,28.6622 C169.1601,26.9222 169.1601,24.1122 170.9201,22.3822" id="Fill-18" fill="#0081BC"></path>
                <path d="M162.05,34.7919 C162.93,33.9319 164.35,33.9319 165.22,34.7919 C166.09,35.6619 166.09,37.0619 165.21,37.9319 C164.33,38.8019 162.91,38.8019 162.04,37.9319 C161.17,37.0619 161.17,35.6619 162.05,34.7919" id="Fill-20" fill="#BCBCBC"></path>
                <path d="M155.6901,41.5121 C156.5701,40.6421 157.9901,40.6421 158.8601,41.5121 C159.7301,42.3721 159.7301,43.7821 158.8501,44.6421 C157.9701,45.5121 156.5501,45.5121 155.6801,44.6421 C154.8101,43.7821 154.8101,42.3721 155.6901,41.5121" id="Fill-22" fill="#BCBCBC"></path>
                <path d="M148.3298,47.7718 C149.2098,46.9118 150.6298,46.9118 151.4998,47.7818 C152.3698,48.6418 152.3698,50.0518 151.4898,50.9118 C150.6098,51.7818 149.1898,51.7818 148.3198,50.9118 C147.4498,50.0418 147.4498,48.6418 148.3298,47.7718" id="Fill-24" fill="#BCBCBC"></path>
                <path d="M124.1398,64.7821 C144.4598,50.7321 149.3498,55.5921 135.0798,75.6521 L103.8198,117.8221 L53.5298,117.6921 L124.1398,64.7821 Z" id="Fill-26" fill="#CBE1EC"></path>
                <g id="Group-30" transform="translate(0.000000, 91.692000)">
                    <mask id="mask-4" fill="white">
                        <use xlink:href="#path-3"></use>
                    </mask>
                    <g id="Clip-29"></g>
                    <path d="M232.1598,18.1399 C229.4098,17.0699 226.4098,16.4799 223.2798,16.4799 C221.2098,16.4799 219.1898,16.7399 217.2698,17.2199 C214.1998,13.1699 209.2998,10.5499 203.7798,10.5499 C199.7298,10.5499 195.9998,11.9699 193.0898,14.3199 C190.8098,12.4299 187.8698,11.2899 184.6598,11.2899 C183.6498,11.2899 182.6598,11.4099 181.7098,11.6199 C180.0798,10.2599 177.9698,9.4399 175.6698,9.4399 C175.2798,9.4399 174.8898,9.4599 174.5098,9.5099 C174.1698,4.7099 170.1198,0.9199 165.1698,0.9199 C160.9798,0.9199 157.4398,3.6299 156.2298,7.3699 C151.1598,8.1099 146.9098,11.3499 144.8198,15.7899 C142.1398,16.0899 139.8798,17.7899 138.8198,20.1399 C137.6798,20.5899 136.5798,21.1299 135.5498,21.7699 C134.3298,19.2999 131.7698,17.5999 128.7998,17.5999 L128.7298,17.5899 C128.2598,10.8599 122.5798,5.5399 115.6498,5.5399 C111.8098,5.5399 108.3598,7.1699 105.9598,9.7599 C100.3198,10.3499 95.2598,12.8499 91.4398,16.5799 C90.9098,16.5199 90.3598,16.4799 89.8198,16.4799 C88.3698,16.4799 86.9798,16.7099 85.6898,17.1399 C85.1298,14.6499 82.8798,12.7799 80.1898,12.7799 C79.7498,12.7799 79.3198,12.8299 78.8998,12.9299 C75.8098,8.9999 70.9898,6.4799 65.5698,6.4799 C60.2198,6.4799 55.4498,8.9399 52.3498,12.7899 C52.0998,12.7799 51.8398,12.7799 51.5798,12.7799 C49.4698,12.7799 47.4398,13.0899 45.5298,13.6699 C40.6698,9.7099 34.4398,7.3199 27.6498,7.3199 C13.8898,7.3199 2.4398,17.0899 -0.0002,29.9999 L265.6398,29.9999 C261.8998,21.4599 253.2898,15.4799 243.2798,15.4799 C239.2698,15.4799 235.4898,16.4399 232.1598,18.1399" id="Fill-28" fill="#23475F" mask="url(#mask-4)"></path>
                </g>
            </g>
        </g>
    </g>
</svg>