<svg xmlns="http://www.w3.org/2000/svg" xmlns:xlink="http://www.w3.org/1999/xlink" viewBox="0 0 578 263.38"><defs><style>.cls-1{fill:#a7bcc9;}.cls-1,.cls-10,.cls-11,.cls-18,.cls-19,.cls-2,.cls-3,.cls-4,.cls-8,.cls-9{fill-rule:evenodd;}.cls-2{fill:#b9c9d4;}.cls-3{fill:#2980b9;}.cls-13,.cls-14,.cls-4{fill:#fff;}.cls-5{fill:#6dd900;}.cls-6{fill:#f1c40f;}.cls-7{fill:#e74c3c;}.cls-10,.cls-8,.cls-9{fill:none;stroke-linecap:round;stroke-linejoin:round;stroke-width:2px;}.cls-8{stroke:#a7bcc9;}.cls-9{stroke:#e74c3c;}.cls-10{stroke:#f1c40f;}.cls-11{fill:#34495e;}.cls-12{fill:#f5fdff;}.cls-14{font-size:10px;font-family:OpenSans-Bold, Open Sans;font-weight:700;}.cls-15{fill:url(#linear-gradient);}.cls-16,.cls-19{fill:#2875a8;}.cls-17{fill:#3498db;}.cls-18{fill:#eee;}</style><linearGradient id="linear-gradient" x1="173.1" y1="158.89" x2="417.83" y2="158.89" gradientUnits="userSpaceOnUse"><stop offset="0" stop-color="#6bbd44"/><stop offset="0.36" stop-color="#fff100"/><stop offset="0.71" stop-color="#f8a774"/><stop offset="1" stop-color="#cb455f"/></linearGradient></defs><title>Ресурс 1</title><g id="Слой_2" data-name="Слой 2"><g id="Speedometer"><path class="cls-1" d="M475,263.38V65.44A4.43,4.43,0,0,0,470.58,61H359.42A4.43,4.43,0,0,0,355,65.44V263.38Z"/><path class="cls-1" d="M225,263.38V65.44A4.43,4.43,0,0,0,220.58,61H109.42A4.43,4.43,0,0,0,105,65.44V263.38Z"/><path class="cls-2" d="M180.56,77.92v3.46h23.33V77.92ZM115,71v3.46h3.33V84.84H115V88.3H215V84.84h-3.33V74.46H215V71Zm6.67,3.46H125v3.46h-3.33Zm0,6.92H125v3.46h-3.33Zm6.66-6.92h3.34v3.46h-3.34Zm0,6.92h3.34v3.46h-3.34ZM135,74.46h3.33v3.46H135Zm0,6.92h3.33v3.46H135Zm15.56-6.92h3.33V84.84h-3.33Zm6.66,0h3.34V84.84h-3.34Zm6.67,0h3.33V84.84h-3.33Zm13.33,0h30V84.84h-30Zm3.34,25.31v3.46h23.33V99.77ZM115,92.85v3.46h3.33v10.38H115v3.46H215v-3.46h-3.33V96.31H215V92.85Zm6.67,3.46H125v3.46h-3.33Zm0,6.92H125v3.46h-3.33Zm6.66-6.92h3.34v3.46h-3.34Zm0,6.92h3.34v3.46h-3.34ZM135,96.31h3.33v3.46H135Zm0,6.92h3.33v3.46H135Zm15.56-6.92h3.33v10.38h-3.33Zm6.66,0h3.34v10.38h-3.34Zm6.67,0h3.33v10.38h-3.33Zm13.33,0h30v10.38h-30Zm3.34,25.31v3.46h23.33v-3.46ZM115,114.7v3.46h3.33v10.38H115V132H215v-3.46h-3.33V118.16H215V114.7Zm6.67,3.46H125v3.46h-3.33Zm0,6.92H125v3.46h-3.33Zm6.66-6.92h3.34v3.46h-3.34Zm0,6.92h3.34v3.46h-3.34Zm6.67-6.92h3.33v3.46H135Zm0,6.92h3.33v3.46H135Zm15.56-6.92h3.33v10.38h-3.33Zm6.66,0h3.34v10.38h-3.34Zm6.67,0h3.33v10.38h-3.33Zm13.33,0h30v10.38h-30Z"/><path class="cls-2" d="M430.56,77.92v3.46h23.33V77.92ZM365,71v3.46h3.33V84.84H365V88.3H465V84.84h-3.33V74.46H465V71Zm6.67,3.46H375v3.46h-3.33Zm0,6.92H375v3.46h-3.33Zm6.66-6.92h3.34v3.46h-3.34Zm0,6.92h3.34v3.46h-3.34ZM385,74.46h3.33v3.46H385Zm0,6.92h3.33v3.46H385Zm15.56-6.92h3.33V84.84h-3.33Zm6.66,0h3.34V84.84h-3.34Zm6.67,0h3.33V84.84h-3.33Zm13.33,0h30V84.84h-30Zm3.34,25.31v3.46h23.33V99.77ZM365,92.85v3.46h3.33v10.38H365v3.46H465v-3.46h-3.33V96.31H465V92.85Zm6.67,3.46H375v3.46h-3.33Zm0,6.92H375v3.46h-3.33Zm6.66-6.92h3.34v3.46h-3.34Zm0,6.92h3.34v3.46h-3.34ZM385,96.31h3.33v3.46H385Zm0,6.92h3.33v3.46H385Zm15.56-6.92h3.33v10.38h-3.33Zm6.66,0h3.34v10.38h-3.34Zm6.67,0h3.33v10.38h-3.33Zm13.33,0h30v10.38h-30Zm3.34,25.31v3.46h23.33v-3.46ZM365,114.7v3.46h3.33v10.38H365V132H465v-3.46h-3.33V118.16H465V114.7Zm6.67,3.46H375v3.46h-3.33Zm0,6.92H375v3.46h-3.33Zm6.66-6.92h3.34v3.46h-3.34Zm0,6.92h3.34v3.46h-3.34Zm6.67-6.92h3.33v3.46H385Zm0,6.92h3.33v3.46H385Zm15.56-6.92h3.33v10.38h-3.33Zm6.66,0h3.34v10.38h-3.34Zm6.67,0h3.33v10.38h-3.33Zm13.33,0h30v10.38h-30Z"/><path class="cls-3" d="M378.19,263.38V4.44A4.43,4.43,0,0,0,373.77,0H206.86a4.43,4.43,0,0,0-4.42,4.44V263.38Z"/><path class="cls-4" d="M209.5,140v5.56h5.33v16.67H209.5v5.56h160v-5.56h-5.33V145.56h5.33V140Zm10.67,5.56h5.33v5.56h-5.33Zm0,11.11h5.33v5.56h-5.33Zm10.66-11.11h5.34v5.56h-5.34Zm0,11.11h5.34v5.56h-5.34Zm10.67-11.11h5.33v5.56H241.5Zm0,11.11h5.33v5.56H241.5Zm24.89-11.11h5.33v16.67h-5.33Zm10.67,0h5.33v16.67h-5.33Zm10.66,0h5.34v16.67h-5.34Zm21.34,0h48v16.67h-48Z"/><rect class="cls-5" x="314.5" y="151" width="37" height="6"/><path class="cls-4" d="M209.5,107v5.56h5.33v16.67H209.5v5.56h160v-5.56h-5.33V112.56h5.33V107Zm10.67,5.56h5.33v5.56h-5.33Zm0,11.11h5.33v5.56h-5.33Zm10.66-11.11h5.34v5.56h-5.34Zm0,11.11h5.34v5.56h-5.34Zm10.67-11.11h5.33v5.56H241.5Zm0,11.11h5.33v5.56H241.5Zm24.89-11.11h5.33v16.67h-5.33Zm10.67,0h5.33v16.67h-5.33Zm10.66,0h5.34v16.67h-5.34Zm21.34,0h48v16.67h-48Z"/><rect class="cls-6" x="314.5" y="118" width="37" height="6"/><path class="cls-4" d="M209.5,75v5.56h5.33V97.23H209.5v5.56h160V97.23h-5.33V80.56h5.33V75Zm10.67,5.56h5.33v5.56h-5.33Zm0,11.11h5.33v5.56h-5.33Zm10.66-11.11h5.34v5.56h-5.34Zm0,11.11h5.34v5.56h-5.34ZM241.5,80.56h5.33v5.56H241.5Zm0,11.11h5.33v5.56H241.5Zm24.89-11.11h5.33V97.23h-5.33Zm10.67,0h5.33V97.23h-5.33Zm10.66,0h5.34V97.23h-5.34Zm21.34,0h48V97.23h-48Z"/><rect class="cls-7" x="314.5" y="86" width="37" height="6"/><path class="cls-4" d="M209.5,42v5.56h5.33V64.23H209.5v5.56h160V64.23h-5.33V47.56h5.33V42Zm10.67,5.56h5.33v5.56h-5.33Zm0,11.11h5.33v5.56h-5.33Zm10.66-11.11h5.34v5.56h-5.34Zm0,11.11h5.34v5.56h-5.34ZM241.5,47.56h5.33v5.56H241.5Zm0,11.11h5.33v5.56H241.5Zm24.89-11.11h5.33V64.23h-5.33Zm10.67,0h5.33V64.23h-5.33Zm10.66,0h5.34V64.23h-5.34Zm21.34,0h48V64.23h-48Z"/><rect class="cls-6" x="314.5" y="53" width="37" height="6"/><path class="cls-4" d="M209.5,9v5.56h5.33V31.23H209.5v5.56h160V31.23h-5.33V14.56h5.33V9Zm10.67,5.56h5.33v5.56h-5.33Zm0,11.11h5.33v5.56h-5.33Zm10.66-11.11h5.34v5.56h-5.34Zm0,11.11h5.34v5.56h-5.34ZM241.5,14.56h5.33v5.56H241.5Zm0,11.11h5.33v5.56H241.5Zm24.89-11.11h5.33V31.23h-5.33Zm10.67,0h5.33V31.23h-5.33Zm10.66,0h5.34V31.23h-5.34Zm21.34,0h48V31.23h-48Z"/><rect class="cls-5" x="314.5" y="20" width="37" height="6"/><path class="cls-8" d="M478.74,144.16S499,142.51,506.62,155c6.69,11,2.89,27.22-9.49,31.05C483.8,190.17,481.62,203,481.62,203"/><path class="cls-4" d="M480,144a5,5,0,0,0-5-5h0v10h0A5,5,0,0,0,480,144Z"/><path class="cls-8" d="M101.15,144.16S80.85,142.51,73.26,155c-6.69,11-2.88,27.22,9.49,31.05C96.08,190.17,98.26,203,98.26,203"/><path class="cls-4" d="M99.88,144a5,5,0,0,1,5-5h0v10h0A5,5,0,0,1,99.88,144Z"/><path class="cls-9" d="M197.88,34.16S177.59,32.51,170,45c-6.69,11-2.89,27.22,9.49,31.05C192.82,80.17,195,93,195,93"/><path class="cls-10" d="M381.74,34.16S402,32.51,409.62,45c6.69,11,2.89,27.22-9.49,31.05-13.33,4.12-15.51,17-15.51,17"/><path class="cls-11" d="M197,34a5,5,0,0,1,5-5h0V39h0A5,5,0,0,1,197,34Z"/><path class="cls-11" d="M383,34a5,5,0,0,0-5-5h0V39h0A5,5,0,0,0,383,34Z"/><path class="cls-12" d="M575.62,263.38A32.67,32.67,0,0,0,578,251.1c0-17.86-14.25-32.34-31.84-32.34l-1.13,0a47.43,47.43,0,0,0-33.89-14.22h-.5A64.57,64.57,0,0,0,453.09,169a63.89,63.89,0,0,0-36.71,11.56,59.26,59.26,0,0,0-67,23.06c-1-.07-2-.11-3-.11a45,45,0,0,0-33.89,15.38c-.71,0-1.43-.07-2.15-.07a35.9,35.9,0,0,0-35.67,36.12,36.62,36.62,0,0,0,1,8.45Z"/><path class="cls-12" d="M349.3,263.38a32.66,32.66,0,0,0,2.38-12.28c0-17.86-14.26-32.34-31.84-32.34a31.38,31.38,0,0,0-9.47,1.45,53.33,53.33,0,0,0-60.52-12.85,60.77,60.77,0,0,0-59.39-16.13A66.48,66.48,0,0,0,89.89,201.89c-1.12-.07-2.25-.13-3.39-.13A50.59,50.59,0,0,0,47,220.69a35.21,35.21,0,0,0-11.37-1.88A35.9,35.9,0,0,0,0,254.93a36.62,36.62,0,0,0,1,8.45Z"/><path class="cls-13" d="M537.89,263.38a32.38,32.38,0,0,0-20.72-7.58,48.93,48.93,0,0,0-35-14.78h-.52a66.77,66.77,0,0,0-59.55-37,65.84,65.84,0,0,0-38,12,61,61,0,0,0-42.92,2.13,66,66,0,0,0-81.95,5.62A55.62,55.62,0,0,0,221.9,221,61.05,61.05,0,0,0,129,230.91c-1-.07-2.09-.12-3.14-.12a46.57,46.57,0,0,0-36.44,17.65,32.26,32.26,0,0,0-10.5-1.76,32.8,32.8,0,0,0-28.45,16.7Z"/><path class="cls-11" d="M220.92,263.38H370.08a114.5,114.5,0,1,0-149.17,0Z"/><text class="cls-14" transform="translate(203 202.69)">MIN</text><text class="cls-14" transform="translate(363 202.69)">MAX</text><polygon class="cls-4" points="388.04 252.1 373.98 240.63 375.38 238.92 389.43 250.39 388.04 252.1"/><polygon class="cls-4" points="411.38 207.54 393.9 202.66 394.5 200.54 411.97 205.41 411.38 207.54"/><polygon class="cls-4" points="415.27 159.26 397.3 161.76 396.99 159.57 414.97 157.07 415.27 159.26"/><polygon class="cls-4" points="399.11 112.55 383.67 122.07 382.51 120.19 397.96 110.67 399.11 112.55"/><polygon class="cls-4" points="365.61 75.25 355.23 90.13 353.42 88.87 363.79 73.99 365.61 75.25"/><polygon class="cls-4" points="320.28 55.34 316.78 73.14 314.62 72.71 318.11 54.91 320.28 55.34"/><polygon class="cls-4" points="270.84 56.26 274.73 73.97 272.57 74.45 268.68 56.73 270.84 56.26"/><polygon class="cls-4" points="224.52 74.97 235.2 89.63 233.42 90.93 222.73 76.27 224.52 74.97"/><rect class="cls-13" x="197" y="107.65" width="2.21" height="18.14" transform="translate(-2.81 228.54) rotate(-59.6)"/><polygon class="cls-4" points="175.52 158.81 193.54 160.92 193.29 163.12 175.26 161 175.52 158.81"/><rect class="cls-13" x="178.15" y="205.42" width="18.15" height="2.2" transform="translate(-51.74 63) rotate(-16.82)"/><rect class="cls-13" x="200.96" y="245.6" width="18.14" height="2.21" transform="translate(-109.87 195.29) rotate(-40.46)"/><path class="cls-15" d="M295.47,54.51a122.26,122.26,0,0,0-86.52,208.75l7.55-7.55a111.68,111.68,0,1,1,157.95,0l7.55,7.55A122.26,122.26,0,0,0,295.47,54.51Z"/><circle class="cls-16" cx="295.5" cy="176.5" r="20"/><path class="cls-4" d="M392,159.7l-49.33,4.22-42.35,3.62A9.86,9.86,0,0,0,295,166a10,10,0,1,0,8.14,15.8l40.58-10.09Z"/><circle class="cls-17" cx="295" cy="176" r="7"/><path class="cls-4" d="M243.48,116.08a1.49,1.49,0,0,1,1.11-.48H247a1.22,1.22,0,0,1,1,.46,1.39,1.39,0,0,1,.46,1.06V131.4a3,3,0,0,0,3.34,3.4h7.1a1.56,1.56,0,0,1,1.12.46,1.08,1.08,0,0,1,.46.9,1.64,1.64,0,0,1-.46,1.18,1.52,1.52,0,0,1-1.12.46h-7.13a10.09,10.09,0,0,1-6.06-1.62,6.6,6.6,0,0,1-2.31-3.13l-.19-.82c-.06-.28-.12-.55-.16-.83V117.12A1.36,1.36,0,0,1,243.48,116.08Z"/><path class="cls-4" d="M269.89,134.2h3.17v-6.6h-3.14a3,3,0,0,0-3.34,3.29,3.38,3.38,0,0,0,.79,2.39A3.55,3.55,0,0,0,269.89,134.2Zm8.58,1.45a1.47,1.47,0,0,1-.46,1.09,1.54,1.54,0,0,1-1.13.46h-7.13a11.29,11.29,0,0,1-5.48-1.27,5.5,5.5,0,0,1,0-10,11.4,11.4,0,0,1,5.48-1.3h7.13a1.54,1.54,0,0,1,1.13.46,1.44,1.44,0,0,1,.46,1.07Z"/><path class="cls-4" d="M297.7,135.65a5.44,5.44,0,0,1-3.2,5,11.11,11.11,0,0,1-5.42,1.3H282a1.52,1.52,0,0,1-1.13-.46,1.56,1.56,0,0,1-.46-1.13,1.15,1.15,0,0,1,.48-.93A1.49,1.49,0,0,1,282,139h7.13a3,3,0,0,0,2.85-1.8h-2.85a10.09,10.09,0,0,1-6.06-1.62,6.42,6.42,0,0,1-2.31-3c-.06-.27-.22-.54-.28-.82a8.09,8.09,0,0,1-.16-.83v-4.76a1.38,1.38,0,0,1,.48-1,1.69,1.69,0,0,1,1.2-.48h2.37a1.05,1.05,0,0,1,.9.46,1.41,1.41,0,0,1,.46,1.07v4.76a3.43,3.43,0,0,0,.79,2.39,3.84,3.84,0,0,0,2.64.92h3.18v-7.93a1.67,1.67,0,0,1,.48-1.19,1.4,1.4,0,0,1,1.06-.48h2.38a1.31,1.31,0,0,1,1,.46,1.41,1.41,0,0,1,.46,1.07Z"/><path class="cls-4" d="M316.66,131.94a1.52,1.52,0,0,1-1.12.46h-10a3.18,3.18,0,0,0,.47.8,3.29,3.29,0,0,0,2.38,1h7.13a1.56,1.56,0,0,1,1.12.46,1.25,1.25,0,0,1,.46,1,1.44,1.44,0,0,1-.46,1.09,1.52,1.52,0,0,1-1.12.46h-7.13a11.29,11.29,0,0,1-5.48-1.27,5.5,5.5,0,0,1,0-10,11.4,11.4,0,0,1,5.48-1.3h7.13a1.52,1.52,0,0,1,1.12.46,1.41,1.41,0,0,1,.46,1.07,1.27,1.27,0,0,1-.46,1,1.52,1.52,0,0,1-1.12.46h-7.1a3.45,3.45,0,0,0-1.78.52,3.17,3.17,0,0,0-1.1,1.28h10a1.52,1.52,0,0,1,1.12.46,1.33,1.33,0,0,1,.46,1A1.35,1.35,0,0,1,316.66,131.94Z"/><path class="cls-4" d="M324.29,136.74a1.94,1.94,0,0,1-1.31.46h-2.37a2.23,2.23,0,0,1-1.41-.46,1.44,1.44,0,0,1-.46-1.09v-4.76c0-.27.1-.54.16-.8s.41-.54.47-.81a6.36,6.36,0,0,1,2.25-3,10.15,10.15,0,0,1,6.12-1.65h7.13a1.5,1.5,0,0,1,1.12.46,1.41,1.41,0,0,1,.46,1.07,1.27,1.27,0,0,1-.46,1,1.5,1.5,0,0,1-1.12.46h-7.1a2.73,2.73,0,0,0-2.18.85,3.5,3.5,0,0,0-.84,2.44v4.76A1.44,1.44,0,0,1,324.29,136.74Z"/><path class="cls-13" d="M349.47,120.47a1.76,1.76,0,0,1-1.3.53h-2.74a1.8,1.8,0,0,1-1.3-.53,1.45,1.45,0,0,1-.53-1.15,3.67,3.67,0,0,0-.91-2.66,3.71,3.71,0,0,0-2.75-1.06h-8.22a1.78,1.78,0,0,1-1.3-.53,1.63,1.63,0,0,1-.53-1.24,1.88,1.88,0,0,1,1.83-1.83h8.22a11.79,11.79,0,0,1,7,1.87,7.89,7.89,0,0,1,2.63,3.55c0,.32.11.64.18,1l.22.95A1.45,1.45,0,0,1,349.47,120.47Z"/><path class="cls-13" d="M349.47,125.87a1.76,1.76,0,0,1-1.3.53h-2.74a1.8,1.8,0,0,1-1.3-.53,1.27,1.27,0,0,1-.53-1.05,2.19,2.19,0,0,1,.55-1.47,1.78,1.78,0,0,1,1.28-.55h2.74a1.76,1.76,0,0,1,1.3.53,2.26,2.26,0,0,1,.53,1.49A1.27,1.27,0,0,1,349.47,125.87Z"/><path class="cls-13" d="M349.47,131.87a1.76,1.76,0,0,1-1.3.53h-2.74a1.8,1.8,0,0,1-1.3-.53,1.68,1.68,0,0,1-.53-1.26,1.72,1.72,0,0,1,.55-1.26,1.74,1.74,0,0,1,1.28-.55h2.74a1.76,1.76,0,0,1,1.3.53,1.74,1.74,0,0,1,.53,1.28A1.68,1.68,0,0,1,349.47,131.87Z"/><path class="cls-13" d="M349.47,137.27a1.76,1.76,0,0,1-1.3.53h-2.74a1.8,1.8,0,0,1-1.3-.53,1.74,1.74,0,0,1-.53-1.28,1.66,1.66,0,0,1,.55-1.24,1.74,1.74,0,0,1,1.28-.55h2.74a1.76,1.76,0,0,1,1.3.53A1.69,1.69,0,0,1,350,136,1.74,1.74,0,0,1,349.47,137.27Z"/><path class="cls-18" d="M205.06,263.38a125.4,125.4,0,1,1,179.87,0h9a132,132,0,1,0-197.86,0Z"/><path class="cls-19" d="M200.08,263.38h8.83a121.2,121.2,0,1,1,171.19,0h8.82a127.59,127.59,0,1,0-188.83,0Z"/></g></g></svg>