<svg xmlns="http://www.w3.org/2000/svg" xmlns:xlink="http://www.w3.org/1999/xlink" viewBox="0 0 441.01 290"><defs><style>.Graphic-Style,.cls-1,.cls-12,.cls-2,.cls-3,.cls-4,.cls-6{fill-rule:evenodd;}.Graphic-Style{fill:url(#linear-gradient);}.cls-1{fill:#b7babd;}.cls-2{fill:#cd5d5d;}.cls-3{fill:#e9ba7f;}.cls-4{fill:#7cb857;}.cls-5,.cls-6{fill:#fff;}.cls-7{fill:#95a5a6;}.cls-8{fill:#edf1f2;}.cls-9{fill:#d4d8d9;}.cls-10{fill:#34495e;}.cls-11,.cls-12{fill:#d95700;}.cls-13{fill:#e67e22;}</style><linearGradient id="linear-gradient" x1="149.52" y1="376.32" x2="316.1" y2="87.8" gradientUnits="userSpaceOnUse"><stop offset="0" stop-opacity="0"/><stop offset="1" stop-opacity="0.05"/></linearGradient></defs><title>support</title><g id="Слой_2" data-name="Слой 2"><g id="Layer_2" data-name="Layer 2"><polygon class="Graphic-Style" points="169.07 2.91 0 290 395.54 290 438.21 221.59 169.07 2.91"/><path class="cls-1" d="M169.92,0h267.8A3.29,3.29,0,0,1,441,3.29V217.41a3.28,3.28,0,0,1-3.29,3.28H169.92a3.28,3.28,0,0,1-3.29-3.28V3.29A3.29,3.29,0,0,1,169.92,0Z"/><path class="cls-2" d="M174.5,12.18a3.81,3.81,0,1,1,3.81,3.8A3.81,3.81,0,0,1,174.5,12.18Z"/><path class="cls-3" d="M186.69,12.18A3.82,3.82,0,1,1,190.5,16,3.81,3.81,0,0,1,186.69,12.18Z"/><path class="cls-4" d="M198.89,12.18A3.81,3.81,0,1,1,202.7,16,3.8,3.8,0,0,1,198.89,12.18Z"/><rect class="cls-5" x="242.85" y="7.61" width="121.94" height="7.61"/><rect class="cls-5" x="372.42" y="7.61" width="60.97" height="7.61"/><path class="cls-6" d="M433.63,20.55H174.5v187.2a6.09,6.09,0,0,0,6.1,6.09H427.54a6.09,6.09,0,0,0,6.09-6.09Z"/><rect class="cls-7" x="297.72" y="35.01" width="121.95" height="7.61"/><rect class="cls-8" x="191.02" y="60.88" width="228.65" height="136.98"/><circle class="cls-9" cx="309.01" cy="163" r="87"/><circle class="cls-10" cx="309.01" cy="163" r="79.75"/><path class="cls-5" d="M341.58,207.89h-.15a13.42,13.42,0,0,1-1.75,1.49L347,222l3.32-8.19L359,215l-7.75-13.47a9.34,9.34,0,0,1-2.18,3.47A10.28,10.28,0,0,1,341.58,207.89Z"/><path class="cls-5" d="M321.08,222l7.26-12.61a12.35,12.35,0,0,1-1.77-1.5h-.15a10.28,10.28,0,0,1-7.5-2.87,9.41,9.41,0,0,1-2.17-3.44L309,215l8.74-1.21Z"/><path class="cls-6" d="M326,186.57a5.44,5.44,0,0,1,1.54-3.16,5.5,5.5,0,0,1,3.15-1.54,5.37,5.37,0,0,1,6.64,0,5.5,5.5,0,0,1,3.15,1.54,5.44,5.44,0,0,1,1.54,3.16,5.43,5.43,0,0,1,0,6.66,5.41,5.41,0,0,1-1.54,3.15,7.48,7.48,0,0,1-9.79,1.55,5.52,5.52,0,0,1-3.15-1.55,5.41,5.41,0,0,1-1.54-3.16,5.42,5.42,0,0,1,0-6.65Zm.43,17.83a11.74,11.74,0,0,0,1.64-.12c1.66,2.21,3.71,3.51,5.94,3.51s4.28-1.3,5.94-3.51a11.74,11.74,0,0,0,1.64.12,6.91,6.91,0,0,0,5-1.85c1.58-1.58,2.11-4,1.73-6.7,2.2-1.66,3.5-3.72,3.5-5.95s-1.3-4.3-3.5-6c.38-2.74-.15-5.12-1.73-6.7a6.91,6.91,0,0,0-5-1.85,11.74,11.74,0,0,0-1.64.12c-1.66-2.2-3.71-3.51-5.94-3.51s-4.28,1.31-5.94,3.51a11.74,11.74,0,0,0-1.64-.12,6.91,6.91,0,0,0-5,1.85c-1.58,1.58-2.11,4-1.73,6.7-2.2,1.66-3.5,3.73-3.5,6s1.3,4.29,3.5,5.95c-.38,2.74.15,5.12,1.73,6.7A6.91,6.91,0,0,0,326.42,204.4Z"/><path class="cls-6" d="M304.72,194H293a21,21,0,0,0,1.83-7.88l12.25,0a41,41,0,0,1,2.55-5l-19.68.06v2.48c0,7.83-2.31,10.17-3.77,10.35-.63-.12-1.33-1.07-1.33-3.4v-59.9a13.52,13.52,0,0,0-1.5-6.75l48,0c3.27,0,3.57,3.22,3.58,4.19v34.75a38.79,38.79,0,0,1,5-.77v-34c0-3.68-2.27-9.16-8.54-9.16H282.65a9.89,9.89,0,0,0-7.16,2.61c-3.64,3.23-5.48,9-5.48,17v2.49h9.91v49.5c0,3,.8,5.21,2.37,6.71a5.92,5.92,0,0,0,3.37,1.63v0h18.43A39,39,0,0,1,304.72,194ZM275,136.15c.35-6,2-9,3.43-10.49.7.55,1.45,2,1.45,5.06v5.43Z"/><rect class="cls-11" x="294.11" y="135.35" width="32.77" height="4.97"/><rect class="cls-11" x="294.11" y="146.4" width="32.77" height="4.97"/><rect class="cls-11" x="294.11" y="156.45" width="32.77" height="4.98"/><path class="cls-12" d="M294.11,173.48h22.6a39.66,39.66,0,0,1,6.67-5H294.11Z"/><ellipse class="cls-11" cx="334.06" cy="189.86" rx="12.88" ry="12.91"/><rect class="cls-13" x="191.02" y="35.01" width="60.98" height="7.61"/></g></g></svg>