<svg xmlns="http://www.w3.org/2000/svg" xmlns:xlink="http://www.w3.org/1999/xlink" viewBox="0 0 370 300"><defs><style>.Graphic-Style,.cls-1,.cls-10,.cls-3,.cls-6,.cls-7,.cls-8,.cls-9{fill-rule:evenodd;}.Graphic-Style{fill:url(#linear-gradient);}.cls-1{fill:none;stroke:#e64c3c;}.cls-1,.cls-6{stroke-linecap:round;stroke-linejoin:round;}.cls-2{fill:#f1c40f;}.cls-3,.cls-4{fill:#fff;}.cls-5{fill:#e74c3c;}.cls-13,.cls-6{fill:#34495e;}.cls-6{stroke:#e74c3c;stroke-width:6px;}.cls-7{fill:#bdc3c7;}.cls-8{fill:#ecf0f1;}.cls-11,.cls-9{fill:#6ec22e;}.cls-10{fill:#518f22;}.cls-12{fill:#2980b9;}.cls-13{font-size:14px;font-family:OpenSans-Bold, Open Sans;font-weight:700;}</style><linearGradient id="linear-gradient" x1="39.97" y1="187.7" x2="79.03" y2="120.05" gradientUnits="userSpaceOnUse"><stop offset="0" stop-opacity="0"/><stop offset="1" stop-opacity="0.05"/></linearGradient></defs><title>updates</title><g id="Слой_2" data-name="Слой 2"><g id="Layer_2" data-name="Layer 2"><polygon class="Graphic-Style" points="66.93 113.06 101.21 141.01 52.96 195.2 16.3 169.32 66.93 113.06"/><polygon class="Graphic-Style" points="132.59 20.28 166.87 48.23 118.62 102.41 81.96 76.54 132.59 20.28"/><polygon class="Graphic-Style" points="235.68 6.14 269.97 34.08 221.72 88.27 185.06 62.4 235.68 6.14"/><polygon class="Graphic-Style" points="331.7 175.06 365.98 203.01 317.73 257.2 281.07 231.32 331.7 175.06"/><polygon class="Graphic-Style" points="152.05 93.04 0 261.96 0 298.51 9.98 300 237.13 300 302.39 225.19 205.02 143.3 204.11 116.64 202.27 100.4 179.76 104.16 162.74 105.94 152.05 93.04"/><path class="cls-1" d="M347.13,190.46C369.71,119.68,330.32,43.69,259,20.65,187.38-2.46,110.78,36.43,88.05,107.59"/><path class="cls-2" d="M98.6,142.88a22,22,0,0,1-31,0,21.72,21.72,0,0,1,0-30.82,22,22,0,0,1,31,0A21.71,21.71,0,0,1,98.6,142.88Z"/><path class="cls-3" d="M76.06,129.57c.06.21.13.42.2.62a3.57,3.57,0,0,1,1-.15,3.7,3.7,0,0,1,3.7,3.7,3.59,3.59,0,0,1-.12.93l.28.09a7.63,7.63,0,0,0,2,.29,7.31,7.31,0,0,0,1.93-.26l.3-.09a3.74,3.74,0,0,1-.11-.89,3.7,3.7,0,0,1,3.7-3.69,3.79,3.79,0,0,1,1.07.16,3.84,3.84,0,0,0,.2-.6,7.27,7.27,0,0,0,.28-2,7.38,7.38,0,1,0-14.51,1.89Zm7.14-11.71a9.82,9.82,0,1,1,0,19.64,9.93,9.93,0,0,1-4.7-1.18,9.83,9.83,0,0,1-4-4.15,9.67,9.67,0,0,1-1.09-4.49A9.83,9.83,0,0,1,83.2,117.86Z"/><path class="cls-4" d="M82.25,126.5l3.17-5,.5.21-1.32,5.75a1.62,1.62,0,0,1,0,.22A1.46,1.46,0,0,1,83.7,129a1.42,1.42,0,0,1-.57.12,1.5,1.5,0,0,1-1.48-1.48A1.49,1.49,0,0,1,82.25,126.5Z"/><rect class="cls-4" x="82.73" y="121.05" width="0.91" height="2.25"/><rect class="cls-4" x="79.12" y="122.8" width="0.91" height="2.25" transform="translate(-64.32 92.57) rotate(-45)"/><rect class="cls-4" x="76.91" y="126.38" width="2.25" height="0.91"/><rect class="cls-4" x="87.21" y="126.38" width="2.25" height="0.91"/><polygon class="cls-4" points="88.22 123.45 86.63 125.04 85.98 124.4 87.57 122.81 88.22 123.45"/><ellipse class="cls-5" cx="347.96" cy="190.47" rx="22.03" ry="22"/><path class="cls-3" d="M351.88,198.88v-2.46h3v2.46Zm-10.8-2.46h3v2.46h-3Zm3-9.29v2.44h-3v-2.44Zm-1.46-4.82c0-.52.23-.72.79-.72s.8.2.8.72v2.82c0,.52-.23.73-.8.73s-.79-.21-.79-.73Zm5.14,4.82v2.44H344.5v-2.44Zm-.55-4.82c0-.52.23-.72.79-.72s.8.2.8.72v2.82c0,.52-.23.73-.8.73s-.79-.21-.79-.73Zm4.24,4.82v2.44h-3.23v-2.44Zm.35-4.82c0-.52.23-.72.8-.72s.79.2.79.72v2.82c0,.52-.23.73-.79.73s-.8-.21-.8-.73Zm3.08,4.82v2.44h-3v-2.44Zm-3,6.22h3v2.6h-3Zm-3.69,2.6v-2.6h3.23v2.6Zm0,.47h3.23v2.46h-3.23Zm-.46,0v2.46H344.5v-2.46Zm-3.23-3.07h3.23v2.6H344.5Zm-.45-.47h-3V190h3Zm3.68,0H344.5V190h3.23Zm3.69,0h-3.23V190h3.23Zm3.43,0h-3V190h3Zm-13.77.47h3v2.6h-3Zm13.2-10v-1.05a1.72,1.72,0,0,0-3.43,0v1.05h-1.16v-1.05a1.72,1.72,0,0,0-3.43,0v1.05H345.1v-1.05a1.72,1.72,0,0,0-3.43,0v1.05h-2v16.93h16.53V183.36Z"/><path class="cls-6" d="M217.94,93.43S234.17,100,249.72,100s34.93-5,34.93-5,3.5,11.18,3.5,27.84c0,43.25-14,70.45-32.8,85.89C244,218,225.52,230.93,217.94,230.93s-25.89-12.87-37.16-22.12c-18.8-15.41-32.71-42.75-32.71-86,0-16.92,3.5-27.84,3.5-27.84s19.05,5,34.94,5S217.94,93.43,217.94,93.43Z"/><polygon class="Graphic-Style" points="204.99 130.28 226.59 132.54 240.39 184.21 204.73 228.18 158.3 182.61 204.99 130.28"/><path class="cls-3" d="M209.31,141.25a8.06,8.06,0,0,1,8.15-7.94h.61a8.06,8.06,0,0,1,8.15,7.94v9.58H209.31Zm25.07,9.58v-9.58a16.11,16.11,0,0,0-16.31-15.9h-.61a16.11,16.11,0,0,0-16.31,15.9v9.58h-5.77v32.89H240.3V150.83Z"/><path class="cls-7" d="M284.22,77.33a23.59,23.59,0,0,1,23.61,23.57v110a23.61,23.61,0,0,1-47.22,0v-110A23.59,23.59,0,0,1,284.22,77.33Z"/><path class="cls-8" d="M284.22,81.25a19.66,19.66,0,0,1,19.67,19.65v69.92a19.68,19.68,0,0,1-39.35,0V100.9A19.67,19.67,0,0,1,284.22,81.25Z"/><path class="cls-9" d="M264.54,149.61V210.9a19.68,19.68,0,0,0,39.35,0V149.61Z"/><path class="cls-10" d="M271,141.19c5.3-2.08,8-2.91,12.67-2.08s10.69,1.56,12.77,1a66.58,66.58,0,0,0,7.47-3.11V188.9H264.54V141.19S265.69,143.26,271,141.19Z"/><path class="cls-9" d="M271,145.9c5.3-2.07,8-2.9,12.67-2.07s10.69,1.55,12.77,1a64.7,64.7,0,0,0,7.47-3.11v51.86H264.54V145.9S265.69,148,271,145.9Z"/><path class="cls-11" d="M163.47,50.88a22,22,0,0,1-31,0,21.72,21.72,0,0,1,0-30.82,22,22,0,0,1,31,0A21.71,21.71,0,0,1,163.47,50.88Z"/><path class="cls-12" d="M266.53,37.19a22,22,0,0,1-31,0,21.71,21.71,0,0,1,0-30.82,22,22,0,0,1,31,0A21.72,21.72,0,0,1,266.53,37.19Z"/><path class="cls-4" d="M259.25,19.25c0-.13,0-.27,0-.4a6.81,6.81,0,0,0-13-2.92,3.15,3.15,0,0,0-5.06,2.47,3.24,3.24,0,0,0,.14.94,4.59,4.59,0,0,0,2.28,8.54h13.85a4.49,4.49,0,0,0,1.73-8.64Z"/><path class="cls-3" d="M154.75,41.37a1,1,0,1,1-1,1A1,1,0,0,1,154.75,41.37Zm-3.91-4.48.26.53-.56.55-.51.52a2.89,2.89,0,0,1-1.06.67l3.49,3.49,1.65,2.21.88.24,2.43-2.45-.24-.89L155,40.12l-3.3-3.3-.33.33Z"/><path class="cls-4" d="M145,32.44l.57-.56.51.27-.26-.52.56-.56.06-.06a2.84,2.84,0,0,0,.2-.95,4.81,4.81,0,0,0-4.57-4.57l-.42.41c1.87,1.88,1.72,1.57,1.72,2.72A3.2,3.2,0,0,1,141,31a3.44,3.44,0,0,1-.85,0c-.35-.1-.64-.46-1.87-1.69l-.41.42a4.86,4.86,0,0,0,4.57,4.57,3.09,3.09,0,0,0,1.32-.36l.09.09A2.85,2.85,0,0,1,144.5,33Z"/><path class="cls-4" d="M157,27.37,155.61,26A1.86,1.86,0,0,0,153,26l-5.83,5.83a1.08,1.08,0,0,1-.23,1.15,1.16,1.16,0,0,1-.78.31.83.83,0,0,1-.36-.08l-.52.51a1.86,1.86,0,0,0,0,2.62l.1.1L140.82,41l-1.21.46L137.84,44,139,45.11l2.52-1.76.46-1.23,4.54-4.54.14.13a1.81,1.81,0,0,0,1.31.55,1.87,1.87,0,0,0,1.31-.55l.51-.51a1.08,1.08,0,0,1,.24-1.14,1.16,1.16,0,0,1,.78-.31.67.67,0,0,1,.35.08L157,30A1.85,1.85,0,0,0,157,27.37Z"/><text class="cls-13" transform="translate(269.24 130.07)">%60</text></g></g></svg>