<svg width="689" height="729" viewBox="0 0 689 729" fill="none" xmlns="http://www.w3.org/2000/svg">
<mask id="mask0" mask-type="alpha" maskUnits="userSpaceOnUse" x="27" y="36" width="635" height="656">
<path d="M259.722 178.794C344.548 122.277 436.565 103.333 516.495 166.586C596.424 229.84 618.537 333.394 555.284 413.323C537.045 436.371 519.579 438.315 499.998 463.22C480.616 487.871 478.615 511.863 451.016 546.737C387.762 626.667 271.69 640.185 191.761 576.932C111.832 513.679 98.0949 413.284 123.197 344.574C143.948 287.772 174.104 266.315 194.9 241.267C214.005 218.255 248.306 186.399 259.722 178.794Z" fill="url(#paint0_linear)"/>
</mask>
<g mask="url(#mask0)">
<path d="M259.722 178.794C344.548 122.277 436.565 103.333 516.495 166.586C596.424 229.84 618.537 333.394 555.284 413.323C537.045 436.371 519.579 438.315 499.998 463.22C480.616 487.871 478.615 511.863 451.016 546.737C387.762 626.667 271.69 640.185 191.761 576.932C111.832 513.679 98.0949 413.284 123.197 344.574C143.948 287.772 174.104 266.315 194.9 241.267C214.005 218.255 248.306 186.399 259.722 178.794Z" fill="url(#paint1_linear)"/>
<path fill-rule="evenodd" clip-rule="evenodd" d="M565.61 208.794C525.608 194.571 464.095 168.052 428.749 137.097C362.237 78.8461 259.546 90.8825 223.24 181.777C203.897 230.203 183.332 262.551 164.102 292.407C152.463 348.724 152.332 426.234 219.997 470.996C313.896 533.111 345.45 593.267 346.574 606.816L344.455 609.243C415.997 604.054 458.462 557.941 473.087 527.709C503.127 465.613 533.719 442.875 559.653 423.599C578.307 409.734 594.551 397.661 606.447 374.019C634.878 317.508 640.55 235.441 565.61 208.794Z" fill="url(#paint2_linear)" fill-opacity="0.4"/>
<path fill-rule="evenodd" clip-rule="evenodd" d="M820.985 -14.6526C768.007 -35.9741 685.932 -74.0216 636.721 -113.676C544.116 -188.298 414.448 -188.073 379.911 -89.9158C361.51 -37.6205 339.45 -3.68626 318.77 27.6019C311.245 89.836 321.192 177.563 413.51 237.066C541.618 319.636 589.795 391.852 593 407.337L590.608 409.807C681.361 413.269 729.614 366.609 744.359 334.295C774.647 267.92 810.776 246.172 841.404 227.736C863.435 214.475 882.62 202.927 894.738 177.717C923.697 117.454 920.236 25.2917 820.985 -14.6526Z" fill="url(#paint3_linear)" fill-opacity="0.4"/>
</g>
<path d="M536.377 326.02C557.17 333.556 588.683 334.674 608.659 334.076C646.083 332.955 657.622 369.92 654.811 399.566C651.997 429.211 626.991 434.115 622.585 489.769C620.977 510.081 603.593 549.869 548.486 556.24C465.271 558.053 442.357 501.683 441.301 473.271C443.78 444.193 453.523 422.254 453.874 380.741C454.263 334.669 497.247 311.838 536.377 326.02Z" fill="url(#paint4_linear)"/>
<path fill-rule="evenodd" clip-rule="evenodd" d="M608.659 334.076C588.683 334.674 557.17 333.556 536.377 326.02C497.247 311.838 454.263 334.669 453.874 380.741C453.732 397.589 452.042 411.213 449.919 423.399C452.573 447.716 464.157 503.076 514.243 509.777C561.211 516.061 586.746 531.917 593.955 539.141C613.963 524.031 621.549 502.857 622.585 489.769C625.148 457.399 634.679 442.197 642.76 429.31C648.572 420.04 653.633 411.968 654.811 399.566C657.622 369.92 646.083 332.955 608.659 334.076Z" fill="url(#paint5_linear)" fill-opacity="0.4"/>
<defs>
<linearGradient id="paint0_linear" x1="162.109" y1="515.836" x2="643.962" y2="374.864" gradientUnits="userSpaceOnUse">
<stop stop-color="#533698"/>
<stop offset="1" stop-color="#7447A9"/>
</linearGradient>
<linearGradient id="paint1_linear" x1="162.109" y1="515.836" x2="643.962" y2="374.864" gradientUnits="userSpaceOnUse">
<stop stop-color="#533698"/>
<stop offset="1" stop-color="#7447A9"/>
</linearGradient>
<linearGradient id="paint2_linear" x1="357.894" y1="594.837" x2="341.531" y2="293.074" gradientUnits="userSpaceOnUse">
<stop stop-color="#151071"/>
<stop offset="0.0001" stop-color="#151071"/>
<stop offset="1" stop-color="#151071" stop-opacity="0"/>
</linearGradient>
<linearGradient id="paint3_linear" x1="440.626" y1="255.415" x2="593.524" y2="124.386" gradientUnits="userSpaceOnUse">
<stop stop-color="#C5A6FF" stop-opacity="0.3"/>
<stop offset="1" stop-color="#966CE5" stop-opacity="0"/>
</linearGradient>
<linearGradient id="paint4_linear" x1="573.796" y1="545.993" x2="474.235" y2="329.851" gradientUnits="userSpaceOnUse">
<stop stop-color="#533698"/>
<stop offset="1" stop-color="#7447A9"/>
</linearGradient>
<linearGradient id="paint5_linear" x1="598.087" y1="533.916" x2="529.186" y2="409.455" gradientUnits="userSpaceOnUse">
<stop stop-color="#151071"/>
<stop offset="0.0001" stop-color="#151071"/>
<stop offset="1" stop-color="#151071" stop-opacity="0"/>
</linearGradient>
</defs>
</svg>
