<svg width="547" height="492" viewBox="0 0 547 492" fill="none" xmlns="http://www.w3.org/2000/svg">
<g clip-path="url(#clip0)">
<mask id="mask0" mask-type="alpha" maskUnits="userSpaceOnUse" x="-82" y="-90" width="635" height="656">
<path d="M150.722 52.7935C235.548 -3.72307 327.565 -22.6668 407.495 40.5864C487.424 103.84 509.537 207.394 446.284 287.323C428.045 310.371 410.579 312.315 390.998 337.22C371.616 361.871 369.615 385.863 342.016 420.737C278.762 500.667 162.69 514.185 82.761 450.932C2.83184 387.679 -10.9051 287.284 14.1965 218.574C34.9477 161.772 65.1043 140.315 85.9001 115.267C105.005 92.2554 139.306 60.3995 150.722 52.7935Z" fill="url(#paint0_linear)"/>
</mask>
<g mask="url(#mask0)">
<path d="M150.722 52.7935C235.548 -3.72307 327.565 -22.6668 407.495 40.5864C487.424 103.84 509.537 207.394 446.284 287.323C428.045 310.371 410.579 312.315 390.998 337.22C371.616 361.871 369.615 385.863 342.016 420.737C278.762 500.667 162.69 514.185 82.761 450.932C2.83184 387.679 -10.9051 287.284 14.1965 218.574C34.9477 161.772 65.1043 140.315 85.9001 115.267C105.005 92.2554 139.306 60.3995 150.722 52.7935Z" fill="url(#paint1_linear)"/>
<path fill-rule="evenodd" clip-rule="evenodd" d="M456.61 82.7941C416.608 68.5707 355.095 42.052 319.749 11.0972C253.237 -47.1539 150.546 -35.1175 114.24 55.7769C94.8968 104.203 74.3319 136.551 55.102 166.407C43.4632 222.724 43.3319 300.234 110.997 344.996C204.896 407.111 236.45 467.267 237.574 480.816L235.455 483.243C306.997 478.054 349.462 431.941 364.087 401.709C394.127 339.613 424.719 316.875 450.653 297.599C469.307 283.734 485.551 271.661 497.447 248.019C525.878 191.508 531.55 109.441 456.61 82.7941Z" fill="url(#paint2_linear)" fill-opacity="0.4"/>
<path fill-rule="evenodd" clip-rule="evenodd" d="M711.985 -140.653C659.007 -161.974 576.932 -200.022 527.721 -239.676C435.116 -314.298 305.448 -314.073 270.911 -215.916C252.51 -163.62 230.45 -129.686 209.77 -98.3981C202.245 -36.164 212.192 51.563 304.51 111.066C432.618 193.636 480.795 265.852 484 281.337L481.608 283.807C572.361 287.269 620.614 240.609 635.359 208.295C665.647 141.92 701.776 120.172 732.404 101.736C754.435 88.4748 773.62 76.9268 785.738 51.7166C814.697 -8.54551 811.236 -100.708 711.985 -140.653Z" fill="url(#paint3_linear)" fill-opacity="0.4"/>
</g>
<path d="M427.377 200.02C448.17 207.556 479.683 208.674 499.659 208.076C537.083 206.955 548.622 243.92 545.811 273.566C542.997 303.211 517.991 308.115 513.585 363.769C511.977 384.081 494.593 423.869 439.486 430.24C356.271 432.053 333.357 375.683 332.301 347.271C334.78 318.193 344.523 296.254 344.874 254.741C345.263 208.669 388.247 185.838 427.377 200.02Z" fill="url(#paint4_linear)"/>
<path fill-rule="evenodd" clip-rule="evenodd" d="M499.659 208.076C479.683 208.674 448.17 207.556 427.377 200.02C388.247 185.838 345.263 208.669 344.874 254.741C344.732 271.589 343.042 285.213 340.919 297.399C343.573 321.716 355.157 377.076 405.243 383.777C452.211 390.061 477.746 405.917 484.955 413.141C504.963 398.031 512.549 376.857 513.585 363.769C516.148 331.399 525.679 316.197 533.76 303.31C539.572 294.04 544.633 285.968 545.811 273.566C548.622 243.92 537.083 206.955 499.659 208.076Z" fill="url(#paint5_linear)" fill-opacity="0.4"/>
</g>
<defs>
<linearGradient id="paint0_linear" x1="53.1086" y1="389.836" x2="534.962" y2="248.864" gradientUnits="userSpaceOnUse">
<stop stop-color="#533698"/>
<stop offset="1" stop-color="#7447A9"/>
</linearGradient>
<linearGradient id="paint1_linear" x1="53.1086" y1="389.836" x2="534.962" y2="248.864" gradientUnits="userSpaceOnUse">
<stop stop-color="#533698"/>
<stop offset="1" stop-color="#7447A9"/>
</linearGradient>
<linearGradient id="paint2_linear" x1="248.894" y1="468.837" x2="232.531" y2="167.074" gradientUnits="userSpaceOnUse">
<stop stop-color="#151071"/>
<stop offset="0.0001" stop-color="#151071"/>
<stop offset="1" stop-color="#151071" stop-opacity="0"/>
</linearGradient>
<linearGradient id="paint3_linear" x1="331.626" y1="129.415" x2="484.524" y2="-1.61382" gradientUnits="userSpaceOnUse">
<stop stop-color="#C5A6FF" stop-opacity="0.3"/>
<stop offset="1" stop-color="#966CE5" stop-opacity="0"/>
</linearGradient>
<linearGradient id="paint4_linear" x1="464.796" y1="419.993" x2="365.235" y2="203.851" gradientUnits="userSpaceOnUse">
<stop stop-color="#533698"/>
<stop offset="1" stop-color="#7447A9"/>
</linearGradient>
<linearGradient id="paint5_linear" x1="489.087" y1="407.916" x2="420.186" y2="283.455" gradientUnits="userSpaceOnUse">
<stop stop-color="#151071"/>
<stop offset="0.0001" stop-color="#151071"/>
<stop offset="1" stop-color="#151071" stop-opacity="0"/>
</linearGradient>
<clipPath id="clip0">
<rect width="547" height="498" fill="white" transform="translate(0 -6)"/>
</clipPath>
</defs>
</svg>
