<svg width="62" height="62" viewBox="0 0 62 62" fill="none" xmlns="http://www.w3.org/2000/svg">
<path d="M20.3899 34.0392V32.9972C20.9503 32.9972 21.4048 32.5306 21.4048 31.9552C21.4048 27.3511 17.7699 23.619 13.2857 23.619C8.80151 23.619 5.16667 27.3511 5.16667 31.9552C5.16667 32.5306 5.62108 32.9972 6.18155 32.9972V34.0392C6.18155 38.0679 9.36197 41.3333 13.2857 41.3333C17.2095 41.3333 20.3899 38.0679 20.3899 34.0392ZM13.2857 25.7031C16.256 25.7071 18.7917 27.9067 19.2908 30.9131H13.7089L10.9616 28.0924C10.7128 27.837 10.3531 27.7321 10.0106 27.8151C9.66822 27.898 9.3922 28.157 9.2812 28.4999L8.49427 30.9131H7.27671C7.77622 27.9051 10.3139 25.7051 13.2857 25.7031ZM13.2857 39.2493C10.4844 39.2457 8.21478 36.9154 8.21131 34.0392V32.9972H9.22619C9.66326 32.9972 10.0513 32.7102 10.1895 32.2844L10.6846 30.759L12.5682 32.6919C12.7585 32.8873 13.0166 32.9972 13.2857 32.9972H18.3601V34.0392C18.3567 36.9154 16.087 39.2457 13.2857 39.2493Z" fill="#613C9E"/>
<path d="M15.3297 41.3333H11.2418C5.03604 41.3409 0.0074852 46.4253 0 52.7V60.9667C0 61.5373 0.457595 62 1.02198 62H25.5494C26.1138 62 26.5714 61.5373 26.5714 60.9667V52.7C26.5639 46.4253 21.5354 41.3409 15.3297 41.3333ZM15.3297 43.4C15.6974 43.402 16.0647 43.4262 16.4295 43.4732L13.2857 47.8431L10.1419 43.4732C10.5067 43.4262 10.874 43.402 11.2418 43.4H15.3297ZM2.04396 52.7C2.05044 48.8326 4.42125 45.3723 8.00017 44.0075L12.2637 49.936V59.9333H6.13187V50.6333H4.08791V59.9333H2.04396V52.7ZM24.5275 59.9333H22.4835V50.6333H20.4396V59.9333H14.3077V49.936L18.5713 44.0075C22.1502 45.3723 24.521 48.8326 24.5275 52.7V59.9333Z" fill="#613C9E"/>
<path d="M17.7143 48.3453C17.7143 47.7338 18.21 47.2381 18.8214 47.2381C19.4329 47.2381 19.9286 47.7338 19.9286 48.3453C19.9286 48.9567 19.4329 49.4524 18.8214 49.4524C18.21 49.4524 17.7143 48.9567 17.7143 48.3453Z" fill="#613C9E"/>
<path d="M55.8185 10.4202V9.37815C56.3789 9.37815 56.8333 8.91158 56.8333 8.33613C56.8333 3.73203 53.1985 0 48.7143 0C44.2301 0 40.5952 3.73203 40.5952 8.33613C40.5952 8.91158 41.0497 9.37815 41.6101 9.37815V10.4202C41.6101 14.4488 44.7905 17.7143 48.7143 17.7143C52.638 17.7143 55.8185 14.4488 55.8185 10.4202ZM48.7143 2.08403C51.6846 2.0881 54.2203 4.28763 54.7193 7.29412H49.1375L46.3872 4.47335C46.1384 4.21844 45.7787 4.11363 45.4367 4.19656C45.0948 4.27949 44.8188 4.53847 44.7073 4.88089L43.9228 7.29412H42.7053C43.2048 4.28611 45.7425 2.08607 48.7143 2.08403ZM48.7143 15.6303C45.913 15.6267 43.6434 13.2964 43.6399 10.4202V9.37815H44.6548C45.0913 9.37764 45.4789 9.09068 45.6171 8.66533L46.1142 7.13995L47.9967 9.07287C48.187 9.26825 48.4452 9.37815 48.7143 9.37815H53.7887V10.4202C53.7852 13.2964 51.5156 15.6267 48.7143 15.6303Z" fill="#613C9E"/>
<path d="M50.7582 17.7143H46.6703C40.4646 17.7219 35.4361 22.8063 35.4286 29.081V37.3476C35.4286 37.9183 35.8862 38.381 36.4506 38.381H60.978C61.5424 38.381 62 37.9183 62 37.3476V29.081C61.9925 22.8063 56.964 17.7219 50.7582 17.7143ZM50.7582 19.781C51.126 19.783 51.4933 19.8072 51.8581 19.8541L48.7143 24.2241L45.5705 19.8541C45.9353 19.8072 46.3026 19.783 46.6703 19.781H50.7582ZM37.4725 29.081C37.479 25.2135 39.8498 21.7533 43.4287 20.3885L47.6923 26.317V36.3143H41.5604V27.0143H39.5165V36.3143H37.4725V29.081ZM59.9561 36.3143H57.9121V27.0143H55.8681V36.3143H49.7363V26.317L53.9998 20.3885C57.5788 21.7533 59.9496 25.2135 59.9561 29.081V36.3143Z" fill="#613C9E"/>
<path d="M52.4048 24.7262C52.4048 24.1147 52.9004 23.619 53.5119 23.619C54.1234 23.619 54.619 24.1147 54.619 24.7262C54.619 25.3376 54.1234 25.8333 53.5119 25.8333C52.9004 25.8333 52.4048 25.3376 52.4048 24.7262Z" fill="#613C9E"/>
<path d="M48.7624 40.8922L44.3699 45.1976L45.834 46.6327L48.459 44.0598V51.7588C48.459 53.4402 47.0682 54.8035 45.3527 54.8035H28.7857V56.8333H45.3527C48.2108 56.8298 50.5264 54.5602 50.5299 51.7588V44.0598L53.1549 46.6327L54.6191 45.1976L50.2265 40.8922C49.8221 40.4962 49.1668 40.4962 48.7624 40.8922Z" fill="#613C9E"/>
<path d="M13.2708 21.4048C13.5468 21.4048 13.8115 21.2977 14.0067 21.1074L18.4226 16.8021L16.951 15.367L14.3116 17.9399V10.2411C14.3116 8.55968 15.7095 7.19643 17.4337 7.19643H36.1667V5.16667H17.4337C14.5611 5.17014 12.2337 7.43974 12.2301 10.2411V17.9399L9.59071 15.367L8.11906 16.8021L12.535 21.1074C12.7301 21.2977 12.9949 21.4048 13.2708 21.4048Z" fill="#613C9E"/>
</svg>
