<svg width="62" height="62" viewBox="0 0 62 62" fill="none" xmlns="http://www.w3.org/2000/svg">
<path d="M1.03333 0C0.462675 0 0 0.462675 0 1.03333V12.4H2.06667V2.06667H12.4V0H1.03333Z" fill="#613C9E"/>
<path d="M60.9667 0H49.6V2.06667H59.9333V12.4H62V1.03333C62 0.462675 61.5373 0 60.9667 0Z" fill="#613C9E"/>
<path d="M2.06667 59.9333V49.6H0V60.9667C0 61.5373 0.462675 62 1.03333 62H12.4V59.9333H2.06667Z" fill="#613C9E"/>
<path d="M59.9333 49.6V59.9333H49.6V62H60.9667C61.5373 62 62 61.5373 62 60.9667V49.6H59.9333Z" fill="#613C9E"/>
<path d="M59.9075 29.9667C59.349 14.8096 47.1904 2.65102 32.0333 2.0925V0H29.9667V2.0925C14.8096 2.65102 2.65102 14.8096 2.0925 29.9667H0V32.0333H2.0925C2.65102 47.1904 14.8096 59.349 29.9667 59.9075V62H32.0333V59.9075C47.1904 59.349 59.349 47.1904 59.9075 32.0333H62V29.9667H59.9075ZM9.07577 46.5C8.39687 45.5424 7.78152 44.5413 7.23333 43.5033V39.5767C7.23333 37.6934 8.76008 36.1667 10.6433 36.1667H12.9404L11.4411 39.9156C11.2875 40.2996 11.3778 40.7383 11.6705 41.0306L13.7371 43.0972C14.1406 43.5006 14.7947 43.5006 15.1983 43.0972L17.2649 41.0306C17.5576 40.7383 17.6479 40.2996 17.4943 39.9156L15.9929 36.1667H18.29C20.1733 36.1667 21.7 37.6934 21.7 39.5767V46.5H9.07577ZM15.8916 27.2738L19.5848 29.4903C19.1704 32.0199 16.0528 34.1 14.4667 34.1C12.1619 33.7075 10.2447 32.1093 9.44363 29.9129C11.2127 29.7672 14.4067 29.2309 15.8916 27.2738ZM9.35696 27.8401C9.63415 24.3771 11.2637 22.7333 14.4667 22.7333C17.3993 22.7333 19.0133 24.1201 19.4752 27.0134L16.0322 24.9467C15.5428 24.6531 14.908 24.8119 14.6144 25.3013C14.5757 25.3659 14.5442 25.4343 14.5204 25.5058C13.9975 27.0733 11.1746 27.6675 9.35696 27.8401ZM15.3202 40.051L14.4667 40.9055L13.6131 40.051L14.4667 37.9151L15.3202 40.051ZM32.0333 57.8408V55.8H29.9667V57.8408C22.5354 57.5558 15.5567 54.1968 10.6981 48.5667H22.7333C23.304 48.5667 23.7667 48.104 23.7667 47.5333V42.3667H38.2333V47.5333C38.2333 48.104 38.696 48.5667 39.2667 48.5667H51.3019C46.4433 54.1968 39.4646 57.5558 32.0333 57.8408ZM32.425 21.0738L36.1181 23.2903C35.7037 25.8199 32.5862 27.9 31 27.9C28.6953 27.5075 26.7781 25.9093 25.977 23.7129C27.746 23.5672 30.9401 23.0309 32.425 21.0738ZM25.8903 21.6401C26.1675 18.1771 27.7971 16.5333 31 16.5333C33.9326 16.5333 35.5467 17.9201 36.0086 20.8134L32.5655 18.7467C32.0761 18.4531 31.4414 18.6119 31.1478 19.1013C31.109 19.1659 31.0775 19.2343 31.0537 19.3058C30.5309 20.8733 27.7079 21.4675 25.8903 21.6401ZM31.8535 33.851L31 34.7055L30.1465 33.851L31 31.7151L31.8535 33.851ZM29.4738 29.9667L27.9744 33.7156C27.8208 34.0996 27.9111 34.5383 28.2038 34.8306L30.2705 36.8972C30.674 37.3006 31.3281 37.3006 31.7316 36.8972L33.7983 34.8306C34.091 34.5383 34.1812 34.0996 34.0277 33.7156L32.5262 29.9667H34.8233C36.7066 29.9667 38.2333 31.4934 38.2333 33.3767V40.3H23.7667V33.3767C23.7667 31.4934 25.2934 29.9667 27.1767 29.9667H29.4738ZM54.7667 43.5033C54.2185 44.5413 53.6031 45.5424 52.9242 46.5H40.3V39.5767C40.3 37.6934 41.8267 36.1667 43.71 36.1667H46.0071L44.5077 39.9156C44.3542 40.2996 44.4444 40.7383 44.7371 41.0306L46.8038 43.0972C47.2073 43.5006 47.8614 43.5006 48.2649 43.0972L50.3316 41.0306C50.6243 40.7383 50.7146 40.2996 50.561 39.9156L49.0596 36.1667H51.3567C53.2399 36.1667 54.7667 37.6934 54.7667 39.5767V43.5033ZM48.9583 27.2738L52.6514 29.4903C52.2371 32.0199 49.1195 34.1 47.5333 34.1C45.2286 33.7075 43.3114 32.1093 42.5103 29.9129C44.2794 29.7672 47.4734 29.2309 48.9583 27.2738ZM42.4236 27.8401C42.7008 24.3771 44.3304 22.7333 47.5333 22.7333C50.4659 22.7333 52.08 24.1201 52.5419 27.0134L49.0988 24.9467C48.6094 24.6531 47.9747 24.8119 47.6811 25.3013C47.6423 25.3659 47.6108 25.4343 47.5871 25.5058C47.0642 27.0733 44.2413 27.6675 42.4236 27.8401ZM48.3869 40.051L47.5333 40.9055L46.6798 40.051L47.5333 37.9151L48.3869 40.051ZM57.8408 32.0333C57.7567 34.2804 57.3894 36.5081 56.7476 38.6632C56.3548 36.2811 54.4382 34.4433 52.0418 34.1506C53.6545 32.8814 54.6465 30.9822 54.7667 28.9333C54.7667 22.1009 50.8328 20.6667 47.5333 20.6667C44.2339 20.6667 40.3 22.1009 40.3 28.9333C40.4201 30.9822 41.4121 32.8814 43.0249 34.1506C42.184 34.2542 41.3788 34.5521 40.673 35.0207C40.5418 35.1085 40.4219 35.2067 40.3 35.3049V33.3767C40.3056 30.6156 38.2487 28.2852 35.5084 27.9475C37.1204 26.679 38.1123 24.781 38.2333 22.7333C38.2333 15.9009 34.2994 14.4667 31 14.4667C27.7006 14.4667 23.7667 15.9009 23.7667 22.7333C23.8868 24.7822 24.8788 26.6814 26.4916 27.9506C23.7525 28.2881 21.696 30.6168 21.7 33.3767V35.3007C21.5781 35.2036 21.4582 35.1044 21.327 35.0166C20.6212 34.548 19.816 34.25 18.9751 34.1465C20.5868 32.8782 21.5787 30.9808 21.7 28.9333C21.7 22.1009 17.7661 20.6667 14.4667 20.6667C11.1672 20.6667 7.23333 22.1009 7.23333 28.9333C7.35346 30.9822 8.34546 32.8814 9.95823 34.1506C7.5618 34.4433 5.64523 36.2811 5.25243 38.6632C4.6106 36.5081 4.24325 34.2804 4.15917 32.0333H6.2V29.9667H4.15917C4.71458 15.9501 15.9501 4.71458 29.9667 4.15917V6.2H32.0333V4.15917C46.0499 4.71458 57.2854 15.9501 57.8408 29.9667H55.8V32.0333H57.8408Z" fill="#613C9E"/>
</svg>
