<svg width="62" height="60" viewBox="0 0 62 60" fill="none" xmlns="http://www.w3.org/2000/svg">
<path fill-rule="evenodd" clip-rule="evenodd" d="M57 8.87502H41.637C41.0847 8.87502 40.637 9.32274 40.637 9.87502C40.637 10.4273 41.0847 10.875 41.637 10.875H57C58.654 10.875 60 12.221 60 13.875V43.875H2V13.875C2 12.221 3.346 10.875 5 10.875H20.362C20.9143 10.875 21.362 10.4273 21.362 9.87502C21.362 9.32274 20.9143 8.87502 20.362 8.87502H5C2.243 8.87502 0 11.118 0 13.875V48.875C0 51.632 2.243 53.875 5 53.875H17V57.875H14C13.4477 57.875 13 58.3227 13 58.875C13 59.4273 13.4477 59.875 14 59.875H48C48.5523 59.875 49 59.4273 49 58.875C49 58.3227 48.5523 57.875 48 57.875H45V53.875H57C59.757 53.875 62 51.632 62 48.875V13.875C62 11.118 59.757 8.87502 57 8.87502ZM19 57.875H43V53.875H19V57.875ZM57 51.875C58.654 51.875 60 50.529 60 48.875V45.875H2V48.875C2 50.529 3.346 51.875 5 51.875H57Z" fill="#613C9E"/>
<path d="M38 47.875H24C23.4477 47.875 23 48.3227 23 48.875C23 49.4273 23.4477 49.875 24 49.875H38C38.5523 49.875 39 49.4273 39 48.875C39 48.3227 38.5523 47.875 38 47.875Z" fill="#613C9E"/>
<path fill-rule="evenodd" clip-rule="evenodd" d="M18.0469 25.5C19.0208 25.5 19.9103 25.9006 20.5515 26.6282C21.1631 27.3222 21.5 28.2517 21.5 29.2455C21.5 30.3272 21.0777 31.3333 20.1709 32.4117C19.3605 33.3755 18.1947 34.369 16.8447 35.5194L16.8402 35.5232C16.3384 35.9508 15.8197 36.3929 15.2675 36.876L15.2509 36.8906C15.1791 36.9534 15.0895 36.9849 15 36.9849C14.9105 36.9849 14.8209 36.9535 14.7491 36.8906L14.7325 36.876C14.1787 36.3915 13.6586 35.9482 13.1555 35.5196C11.8055 34.3691 10.6395 33.3755 9.82908 32.4117C8.92233 31.3333 8.5 30.3272 8.5 29.2455C8.5 28.2517 8.83686 27.3222 9.44847 26.6282C10.0897 25.9007 10.9792 25.5 11.9531 25.5C13.3229 25.5 14.1901 26.3181 14.6764 27.0044C14.8026 27.1825 14.9099 27.361 15 27.5291C15.0901 27.361 15.1974 27.1825 15.3236 27.0044C15.8099 26.3181 16.6771 25.5 18.0469 25.5ZM16.0297 34.1016C15.6991 34.3881 15.3588 34.6829 15 35C14.6412 34.6829 14.3009 34.3881 13.9702 34.1016C11.9558 32.3564 10.625 31.2035 10.625 29.6879C10.625 29.0614 10.8303 28.4795 11.2031 28.0495C11.5801 27.6146 12.1036 27.375 12.677 27.375C13.4732 27.375 13.8785 27.8737 14.17 28.292C14.4315 28.6672 14.6774 29.0455 14.7239 29.1907C14.7628 29.3122 14.8743 29.3944 15 29.3944C15.1257 29.3944 15.2372 29.3122 15.2761 29.1907C15.3226 29.0455 15.5685 28.6672 15.83 28.292C16.1215 27.8737 16.5268 27.375 17.323 27.375C17.8964 27.375 18.4199 27.6146 18.7969 28.0495C19.1697 28.4795 19.375 29.0614 19.375 29.6879C19.375 31.2035 18.0442 32.3564 16.0297 34.1016Z" fill="#613C9E"/>
<path fill-rule="evenodd" clip-rule="evenodd" d="M20.5 4.25C20.5 1.90279 22.4028 0 24.75 0H37.25C39.5972 0 41.5 1.90279 41.5 4.25V16.75C41.5 19.0972 39.5972 21 37.25 21H24.75C22.4028 21 20.5 19.0972 20.5 16.75V4.25ZM24.75 2C23.5073 2 22.5 3.00736 22.5 4.25V16.75C22.5 17.9926 23.5073 19 24.75 19H37.25C38.4926 19 39.5 17.9926 39.5 16.75V4.25C39.5 3.00736 38.4926 2 37.25 2H24.75ZM30.904 6.98989C29.0184 6.98989 27.4899 8.51845 27.4899 10.404C27.4899 12.2896 29.0184 13.8182 30.904 13.8182C32.7896 13.8182 34.3182 12.2896 34.3182 10.404C34.3182 8.51845 32.7896 6.98989 30.904 6.98989ZM25.4899 10.404C25.4899 7.41388 27.9139 4.98989 30.904 4.98989C33.8942 4.98989 36.3182 7.41388 36.3182 10.404C36.3182 13.3942 33.8942 15.8182 30.904 15.8182C27.9139 15.8182 25.4899 13.3942 25.4899 10.404Z" fill="#613C9E"/>
<path d="M37.2374 4.64653C37.2374 5.38849 36.6359 5.98997 35.8939 5.98997C35.152 5.98997 34.5505 5.38849 34.5505 4.64653C34.5505 3.90457 35.152 3.3031 35.8939 3.3031C36.6359 3.3031 37.2374 3.90457 37.2374 4.64653Z" fill="#613C9E"/>
<path fill-rule="evenodd" clip-rule="evenodd" d="M33.0871 26.3371C33.4532 25.971 34.0468 25.971 34.4129 26.3371L37.9129 29.8371C38.279 30.2033 38.279 30.7969 37.9129 31.163L34.4129 34.663C34.0468 35.0291 33.4532 35.0291 33.0871 34.663C32.721 34.2969 32.721 33.7033 33.0871 33.3371L34.9867 31.4376H27.875C27.3572 31.4376 26.9375 31.0178 26.9375 30.5001C26.9375 29.9823 27.3572 29.5626 27.875 29.5626H34.9867L33.0871 27.663C32.721 27.2969 32.721 26.7033 33.0871 26.3371Z" fill="#613C9E"/>
<path d="M50.3848 32.5806C50.3848 32.2334 50.2991 31.961 50.1277 31.7632C49.9563 31.5654 49.6553 31.3787 49.2246 31.2029C48.7939 31.0271 48.3962 30.8491 48.0315 30.669C47.6667 30.4888 47.3525 30.28 47.0889 30.0427C46.8252 29.8054 46.623 29.5308 46.4824 29.2188C46.3418 28.9068 46.2715 28.5288 46.2715 28.085C46.2715 27.3423 46.522 26.7315 47.0229 26.2525C47.5239 25.7691 48.1919 25.4878 49.0268 25.4087V24.0178H50.0749V25.4351C50.8791 25.5537 51.5098 25.8855 51.9668 26.4304C52.4282 26.971 52.6589 27.6587 52.6589 28.4937H50.4309C50.4309 28.0366 50.343 27.6851 50.1672 27.439C49.9914 27.1929 49.741 27.0698 49.4158 27.0698C49.1257 27.0698 48.8994 27.1621 48.7368 27.3467C48.5786 27.5269 48.4995 27.7774 48.4995 28.0982C48.4995 28.4234 48.5918 28.6826 48.7764 28.876C48.9609 29.065 49.2576 29.2473 49.6662 29.4231C50.0749 29.5945 50.4595 29.7747 50.8198 29.9636C51.1846 30.1482 51.4988 30.3591 51.7624 30.5965C52.0261 30.8338 52.2327 31.1106 52.3821 31.427C52.5315 31.7434 52.6062 32.1236 52.6062 32.5674C52.6062 33.3189 52.3667 33.9319 51.8877 34.4065C51.4131 34.8811 50.7649 35.158 49.9431 35.2371V36.562H48.895V35.2305C47.937 35.1294 47.2009 34.802 46.6868 34.2483C46.177 33.6902 45.9221 32.9563 45.9221 32.0466H48.1435C48.1435 32.5476 48.2534 32.9299 48.4731 33.1936C48.6973 33.4529 49.0137 33.5825 49.4224 33.5825C49.7212 33.5825 49.9563 33.4946 50.1277 33.3189C50.2991 33.1387 50.3848 32.8926 50.3848 32.5806Z" fill="#613C9E"/>
</svg>
