<svg class="svg-icon" viewBox="0 0 62 62" fill="none" xmlns="http://www.w3.org/2000/svg">
<path d="M52.7347 24.2985C51.9308 23.9154 50.965 24.2516 50.5784 25.0501L48.4606 29.4274L46.1553 25.0071C45.8738 24.4668 45.311 24.1296 44.6961 24.1406C44.0835 24.1497 43.5289 24.5018 43.2637 25.05L41.1459 29.4272L38.8406 25.0069C38.4304 24.2199 37.4546 23.9125 36.6626 24.3197C35.87 24.727 35.5601 25.6949 35.9703 26.4817L39.7647 33.7575C40.0464 34.2978 40.6134 34.6333 41.2239 34.624C41.8365 34.6148 42.3912 34.2627 42.6564 33.7146L44.7742 29.3372L47.0794 33.7575C47.3574 34.2905 47.9111 34.6242 48.5143 34.6242C48.5224 34.6242 48.5307 34.6242 48.5386 34.624C49.1512 34.6148 49.7059 34.2627 49.9711 33.7146L53.4915 26.4388C53.8782 25.6404 53.5393 24.6823 52.7347 24.2985Z"/>
<path d="M24.6147 25.1994C23.972 24.8908 23.1998 25.1616 22.8907 25.8047L21.1976 29.3303L19.3545 25.77C19.1294 25.3349 18.6795 25.0633 18.1879 25.0721C17.6981 25.0795 17.2547 25.3631 17.0427 25.8046L15.3495 29.3302L13.5065 25.7699C13.1785 25.1361 12.3984 24.8884 11.7652 25.2164C11.1314 25.5444 10.8837 26.324 11.2117 26.9577L14.2453 32.818C14.4705 33.2532 14.9238 33.5234 15.4119 33.5159C15.9017 33.5085 16.3451 33.2249 16.5571 32.7834L18.2503 29.2577L20.0933 32.818C20.3156 33.2473 20.7583 33.516 21.2405 33.516C21.247 33.516 21.2536 33.516 21.26 33.5159C21.7497 33.5085 22.1932 33.2249 22.4052 32.7834L25.2198 26.9232C25.5289 26.2802 25.258 25.5084 24.6147 25.1994Z"/>
<path d="M28.6505 25.7699L30.4936 29.3302L31.7012 32.7834C31.4892 33.2249 31.0457 33.5085 30.5559 33.5159C30.0678 33.5234 29.6145 33.2532 29.3893 32.818L26.3557 26.9577C26.0277 26.324 26.2755 25.5444 26.9092 25.2164C27.5424 24.8884 28.3225 25.1361 28.6505 25.7699Z"/>
<path d="M10.5539 50.005C10.3138 49.7635 9.98032 49.6265 9.64055 49.6265C9.30078 49.6265 8.96749 49.7635 8.72712 50.005C8.48676 50.2454 8.34865 50.5787 8.34865 50.9184C8.34865 51.2582 8.48676 51.5915 8.72712 51.8317C8.96749 52.0721 9.30078 52.2103 9.64055 52.2103C9.98032 52.2103 10.3136 52.0721 10.5539 51.8317C10.7942 51.5916 10.9325 51.2582 10.9325 50.9184C10.9325 50.5787 10.7942 50.2454 10.5539 50.005Z"/>
<path d="M39.2344 49.6279H14.0761C13.3626 49.6279 12.7842 50.2063 12.7842 50.9198C12.7842 51.6332 13.3628 52.2117 14.0761 52.2117H39.2342C39.9477 52.2117 40.5261 51.6331 40.5261 50.9198C40.5263 50.2063 39.9478 49.6279 39.2344 49.6279Z"/>
<path d="M34.4455 43.4259H26.8231C26.1096 43.4259 25.5312 44.0045 25.5312 44.7178C25.5312 45.4313 26.1098 46.0097 26.8231 46.0097H34.4455C35.1589 46.0097 35.7374 45.4312 35.7374 44.7178C35.7374 44.0045 35.1589 43.4259 34.4455 43.4259Z"/>
<path d="M21.0212 43.4259H9.64055C8.9271 43.4259 8.34865 44.0045 8.34865 44.7178C8.34865 45.4313 8.92723 46.0097 9.64055 46.0097H21.0212C21.7347 46.0097 22.3131 45.4312 22.3131 44.7178C22.3131 44.0045 21.7347 43.4259 21.0212 43.4259Z"/>
<path d="M53.5434 4.79026H26.7276C26.0141 4.79026 25.4357 5.36884 25.4357 6.08216C25.4357 6.79562 26.0142 7.37407 26.7276 7.37407H53.5434C54.2569 7.37407 54.8353 6.79549 54.8353 6.08216C54.8353 5.36884 54.2567 4.79026 53.5434 4.79026Z"/>
<path d="M13.6281 5.16886C13.3877 4.9285 13.0546 4.79039 12.7147 4.79039C12.3749 4.79039 12.0416 4.9285 11.8014 5.16886C11.561 5.40922 11.4228 5.74123 11.4228 6.08229C11.4228 6.42206 11.561 6.75536 11.8014 6.99559C12.0415 7.23596 12.3749 7.37419 12.7147 7.37419C13.0546 7.37419 13.3877 7.23596 13.6281 6.99559C13.8685 6.75549 14.0066 6.42206 14.0066 6.08229C14.0066 5.74239 13.8685 5.40909 13.6281 5.16886Z"/>
<path d="M8.88024 5.16886C8.63988 4.9285 8.30671 4.79039 7.96681 4.79039C7.62704 4.79039 7.29374 4.9285 7.05351 5.16886C6.81314 5.40922 6.6749 5.74252 6.6749 6.08229C6.6749 6.42206 6.81314 6.75536 7.05351 6.99559C7.29361 7.23596 7.62704 7.37419 7.96681 7.37419C8.30671 7.37419 8.63988 7.23596 8.88024 6.99559C9.1206 6.75549 9.25871 6.42206 9.25871 6.08229C9.25884 5.74239 9.12073 5.40909 8.88024 5.16886Z"/>
<path d="M18.3759 5.16886C18.1344 4.9285 17.8024 4.79039 17.4612 4.79039C17.1215 4.79039 16.7894 4.9285 16.5479 5.16886C16.3077 5.40922 16.1693 5.74252 16.1693 6.08229C16.1693 6.42206 16.3076 6.75536 16.5479 6.99559C16.7893 7.23596 17.1215 7.37419 17.4612 7.37419C17.8024 7.37419 18.1343 7.23596 18.3759 6.99559C18.6163 6.75549 18.7531 6.42206 18.7531 6.08229C18.7533 5.74239 18.6163 5.40909 18.3759 5.16886Z"/>
<path fill-rule="evenodd" clip-rule="evenodd" d="M9.70772 22.0042H33.524V19.286H9.64301C8.17755 19.286 6.98956 20.474 6.98956 21.9395V36.1775C6.98956 37.6429 8.17755 38.8309 9.64301 38.8309H33.524V36.1127H9.70772V22.0042Z"/>
<path fill-rule="evenodd" clip-rule="evenodd" d="M44.5261 41.3549C51.353 41.3549 56.8873 35.8206 56.8873 28.9937C56.8873 22.1669 51.353 16.6326 44.5261 16.6326C37.6992 16.6326 32.1649 22.1669 32.1649 28.9937C32.1649 35.8206 37.6992 41.3549 44.5261 41.3549ZM44.5261 44.0731C51.763 44.0731 57.8092 38.9751 59.2694 32.1744C59.4895 31.149 59.6054 30.0849 59.6054 28.9937C59.6054 27.9127 59.4917 26.8582 59.2755 25.8416C57.8261 19.0267 51.7731 13.9144 44.5261 13.9144C36.198 13.9144 29.4468 20.6657 29.4468 28.9937C29.4468 37.3218 36.198 44.0731 44.5261 44.0731Z"/>
<path fill-rule="evenodd" clip-rule="evenodd" d="M55.8323 44.5637L59.2818 41.1141L61.1865 39.2094L59.2645 37.2874L53.4068 43.145C52.6234 43.9285 52.6234 45.1988 53.4068 45.9823L59.2645 51.8399L59.2818 51.8226L61.1865 49.9179L59.2818 48.0132L55.8323 44.5637Z"/>
<path fill-rule="evenodd" clip-rule="evenodd" d="M6.53653 0C2.92651 0 0 2.92651 0 6.53653V55.2046C0 58.8146 2.92651 61.7411 6.53653 61.7411H55.4635C59.0735 61.7411 62 58.8146 62 55.2046V6.53653C62 2.92651 59.0735 0 55.4635 0H6.53653ZM2.71816 12.3288H59.2818L59.2755 25.8416C59.4917 26.8582 59.6054 27.9127 59.6054 28.9937C59.6054 30.0849 59.4895 31.149 59.2694 32.1744L59.2645 37.2874L61.1865 39.2094L59.2818 41.1141V48.0132L61.1865 49.9179L59.2818 51.8226V55.2046C59.2818 57.3134 57.5723 59.023 55.4635 59.023H6.53653C4.42771 59.023 2.71816 57.3134 2.71816 55.2046V12.3288ZM2.71816 9.61065H59.2818V6.53653C59.2818 4.42771 57.5723 2.71816 55.4635 2.71816H6.53653C4.42771 2.71816 2.71816 4.42771 2.71816 6.53653V9.61065Z"/>
<path fill-rule="evenodd" clip-rule="evenodd" d="M54.8712 37.3521L58.8838 41.3646L56.9617 43.2867L52.9492 39.2741L54.8712 37.3521Z"/>
</svg>
