<svg width="62" height="62" viewBox="0 0 62 62" fill="none" xmlns="http://www.w3.org/2000/svg">
<path d="M57 11H49.387L45.721 0H16.279L12.612 11H5C2.243 11 0 13.243 0 16V51C0 53.757 2.243 56 5 56H17V60H14C13.4477 60 13 60.4477 13 61C13 61.5523 13.4477 62 14 62H48C48.5523 62 49 61.5523 49 61C49 60.4477 48.5523 60 48 60H45V56H57C59.757 56 62 53.757 62 51V16C62 13.243 59.757 11 57 11ZM44.279 2L47.995 13.146C47.92 14.181 47.054 15 46 15C44.897 15 44 14.103 44 13L42.179 2H44.279ZM40.153 2L41.995 13.052C41.967 14.13 41.085 15 40 15C38.897 15 38 14.103 38 13H37.996V12.917L37.086 2H40.153ZM32 2H35.081L36 13C36 14.103 35.103 15 34 15C32.897 15 32 14.103 32 13V2ZM26.92 2H30V13C30 14.103 29.103 15 28 15C26.903 15 26.011 14.111 26.002 13.016L26.92 2ZM28 17C29.193 17 30.267 16.475 31 15.643C31.733 16.475 32.807 17 34 17C35.193 17 36.267 16.475 37 15.643C37.733 16.475 38.807 17 40 17C41.193 17 42.267 16.475 43 15.643C43.733 16.475 44.807 17 46 17V31H41.661L39.861 19H21.095L19.895 31H16V17C17.193 17 18.267 16.475 19 15.643C19.733 16.475 20.807 17 22 17C23.193 17 24.267 16.475 25 15.643C25.733 16.475 26.807 17 28 17ZM40.839 39H38.052L38.748 25.064L40.839 39ZM36.948 21L36.048 39H21.105L22.905 21H36.948ZM21.847 2H24.914L24 13C24 14.103 23.103 15 22 15C20.915 15 20.033 14.13 20.005 13.052L21.847 2ZM17.721 2H19.82L18.014 12.836L18.012 13H18C18 14.103 17.103 15 16 15C14.946 15 14.08 14.181 14.005 13.146L17.721 2ZM43 60H19V56H43V60ZM60 51C60 52.654 58.654 54 57 54H5C3.346 54 2 52.654 2 51V48H60V51ZM60 46H2V16C2 14.346 3.346 13 5 13H12C12 14.474 12.81 15.75 14 16.444V33H19.695L18.895 41H43.162L41.962 33H48V16.444C49.19 15.75 50 14.474 50 13H57C58.654 13 60 14.346 60 16V46Z" fill="#613C9E"/>
<path d="M38 49.9999H24C23.4477 49.9999 23 50.4477 23 50.9999C23 51.5522 23.4477 51.9999 24 51.9999H38C38.5523 51.9999 39 51.5522 39 50.9999C39 50.4477 38.5523 49.9999 38 49.9999Z" fill="#613C9E"/>
<path d="M34 24C33.4477 24 33 24.4477 33 25C33 26.654 31.654 28 30 28C28.346 28 27 26.654 27 25C27 24.4477 26.5523 24 26 24C25.4477 24 25 24.4477 25 25C25 27.757 27.243 30 30 30C32.757 30 35 27.757 35 25C35 24.4477 34.5523 24 34 24Z" fill="#613C9E"/>
</svg>
