<?xml version="1.0" encoding="UTF-8"?>
<svg width="32px" height="32px" viewBox="0 0 32 32" version="1.1" xmlns="http://www.w3.org/2000/svg" xmlns:xlink="http://www.w3.org/1999/xlink">
    <g id="States" stroke="none" stroke-width="1" fill="none" fill-rule="evenodd">
        <g id="Artboard-4-Copy-5" fill="#CACED1" fill-rule="nonzero">
            <g id="icon_4">
                <path d="M30.8532711,24.2813052 L31.4165055,23.2947986 C31.7633292,22.6874866 31.9091458,22.001458 31.8455971,21.3171756 C31.8549913,21.2712867 31.8599646,21.2237913 31.8599646,21.1750387 L31.8599646,15.9623529 C31.8599646,11.698387 30.2143999,7.6897086 27.2264388,4.67473098 C24.2387541,1.66024228 20.266756,0 16.0418066,0 C11.8168572,0 7.84485909,1.66024228 4.85731252,4.67473098 C1.8693515,7.6897086 0.223786724,11.6984568 0.223786724,15.9623529 L0.223786724,21.5582844 C0.211215143,22.1615453 0.361176152,22.7587995 0.667245812,23.2947288 L1.21127755,24.2474997 C0.657299066,24.6027371 0.260879797,25.1467685 0.0900582516,25.7914482 C-0.0903646669,26.472378 0.00219532959,27.1836211 0.350745884,27.794146 L1.08259153,29.0758922 C1.56549223,29.921589 2.44460497,30.395006 3.34727216,30.3949361 C3.75488152,30.3949361 4.16698072,30.2970817 4.54986137,30.0948074 L4.68220835,30.3266266 C5.12387149,31.1001026 5.83699791,31.6534235 6.69020767,31.884684 C6.97507142,31.9617941 7.2642178,32 7.55149916,32 C8.12447317,32 8.68998712,31.8480148 9.19955062,31.5505402 L10.1566486,30.9917712 C10.921581,30.5451751 11.4687902,29.8240838 11.6974963,28.9613445 C11.9261333,28.0986052 11.8087755,27.1974506 11.3671123,26.4239747 L7.3521498,19.3921467 C6.91048665,18.6186707 6.19736023,18.0653498 5.34415047,17.8340893 C5.1126814,17.7714373 4.87838028,17.7353967 4.64456268,17.7237324 L4.64456268,15.9947615 C4.64456268,10.91632 8.00587204,6.3692677 12.8186465,4.93728255 C13.1846038,4.8283226 13.393969,4.44011786 13.2863508,4.07000327 C13.1785944,3.69995853 12.7947467,3.48839463 12.4286512,3.59707519 C9.83572791,4.36866528 7.50273248,5.99845465 5.85937809,8.18631452 C4.16083308,10.4477922 3.26300112,13.1478337 3.26300112,15.9947615 L3.26300112,17.836045 C3.26300112,17.8760668 3.26707652,17.9151108 3.27350046,17.9533166 C3.12360852,18.0135239 2.9769631,18.0851162 2.83473845,18.1681633 L1.87764045,18.7269322 C1.78342267,18.7819011 1.69265861,18.8411306 1.60527921,18.9042017 L1.60527921,15.9623529 C1.60527921,7.9309571 8.08150875,1.3969224 16.0418757,1.3969224 C24.0022426,1.3969224 30.4784721,7.9309571 30.4784721,15.9623529 L30.4784721,18.9042017 C30.3910927,18.8411306 30.3002596,18.7819011 30.2061109,18.7269322 L29.2490129,18.1681633 C29.1067883,18.0851162 28.9601428,18.0135239 28.8102509,17.9533166 C28.8166748,17.9151108 28.8207502,17.8761366 28.8207502,17.836045 L28.8207502,15.9947615 C28.8207502,13.1174506 27.9055115,10.3942202 26.1740179,8.11961147 C24.4975077,5.91722361 22.1241036,4.29420932 19.4911861,3.54950998 C19.1242617,3.44578849 18.7426935,3.66252101 18.6399795,4.03410237 C18.5371965,4.40554403 18.7516732,4.79095492 19.1191502,4.89488595 C24.0177844,6.28035359 27.4391196,10.8448674 27.4391196,15.9947615 L27.4391196,17.7236625 C27.205302,17.7353268 26.9710699,17.7713674 26.7395318,17.8340893 C25.886253,18.0653498 25.1731266,18.6186009 24.7315325,19.3921467 L20.7165699,26.4239747 C20.2748377,27.1974506 20.157549,28.0986751 20.386186,28.9613445 C20.6148921,29.8241536 21.1620322,30.545245 21.9270337,30.9917712 L22.8841317,31.5505402 C23.3936952,31.8480847 23.95914,32.0000698 24.5321831,32 C24.8193954,32 25.1086109,31.9617941 25.3934746,31.884684 C26.2467534,31.6534235 26.9598799,31.1001724 27.4014739,30.3266266 L27.5184863,30.1216283 C27.8636522,30.2918433 28.2360335,30.3808272 28.6133882,30.3869038 L29.9948807,30.0156019 C30.3744458,29.787694 30.6923272,29.4646557 30.9190992,29.0675106 L31.6510139,27.7857645 C32.3392734,26.5803601 31.9764935,25.0490538 30.8532711,24.2813052 Z M2.56838669,19.9367369 L3.52548469,19.3779679 C3.82796247,19.2013969 4.15848455,19.1175117 4.48500029,19.1175117 C5.15094875,19.1175117 5.79949039,19.4668122 6.15577731,20.0906777 L10.1707398,27.1225057 C10.7016474,28.0522274 10.3854238,29.2453388 9.46597145,29.7821063 L8.50887345,30.3408752 C7.58935206,30.8776427 6.4094884,30.5578871 5.87864991,29.6282353 L1.8636183,22.5963374 C1.33271074,21.6666157 1.6488653,20.4735043 2.56838669,19.9367369 Z M1.90326714,25.4596791 L3.85821715,28.8835359 C3.5975986,29.0059063 3.30562016,29.0324479 3.02490089,28.9561759 C2.70791744,28.870335 2.44294718,28.6647779 2.27889494,28.377431 L1.5470493,27.0956848 C1.38299707,26.8083379 1.33941098,26.4735654 1.42437277,26.1530416 C1.49966411,25.8689774 1.66813712,25.6266812 1.90326714,25.4596791 Z M26.2051705,29.6280956 C25.674332,30.5578173 24.4942611,30.8774331 23.5748779,30.3408054 L22.6177799,29.7820364 C21.6982585,29.2451991 21.382104,28.0520877 21.9130115,27.1224359 L25.927974,20.0906079 C26.2841919,19.4666725 26.9327335,19.1174419 27.5987511,19.1174419 C27.9251977,19.1174419 28.255858,19.2013969 28.5582667,19.3778981 L29.5153647,19.936667 C30.4348861,20.4735043 30.7510406,21.6666157 30.220133,22.5962676 L26.2051705,29.6280956 Z M30.4547105,27.0873033 L29.7227958,28.3691193 C29.5587435,28.6563964 29.2938423,28.8620233 28.9768589,28.9478642 C28.7207993,29.0171516 28.4558981,29.0003187 28.2135843,28.9043501 L30.1583803,25.4982342 C30.6234598,25.8751238 30.76154,26.5496977 30.4547105,27.0873033 Z M15.9999953,3 C16.5414422,3 16.997532,3.44479984 16.9999905,3.99505223 C17.0022522,4.51741716 16.6018215,4.94842321 16.0981362,4.9951022 C16.0659798,4.99830076 16.0333317,5 16.0001919,5 C15.9968485,5 15.993505,5 15.9900632,4.99990004 C15.3701429,4.99360288 14.9998034,4.48633115 15.0000001,3.99965016 C15.0002951,3.55005248 15.3191056,3.08316258 15.8602575,3.01009546 C15.9058862,3.00339847 15.9525965,3 15.9999953,3 Z M13.0375361,22 C13.5690087,22 14,22.4478 14,23 C14,23.5522 13.5690087,24 13.0375361,24 L12.9624639,24 C12.4309913,24 12,23.5522 12,23 C12,22.4478 12.4309913,22 12.9624639,22 L13.0375361,22 Z M16.0374898,22 C16.5688917,22 17,22.4478 17,23 C17,23.5522 16.5689879,24 16.0374898,24 L15.9625102,24 C15.4309158,24 15,23.5522 15,23 C15,22.4478 15.4310121,22 15.9625102,22 L16.0374898,22 Z M20.0375361,22 C20.5689124,22 21,22.4478 21,23 C21,23.5522 20.5690087,24 20.0375361,24 L19.9624639,24 C19.4309913,24 19,23.5522 19,23 C19,22.4478 19.4309913,22 19.9624639,22 L20.0375361,22 Z" id="Combined-Shape"></path>
            </g>
        </g>
    </g>
</svg>
