<?xml version="1.0" encoding="UTF-8"?>
<svg width="192px" height="40px" viewBox="0 0 192 40" version="1.1" xmlns="http://www.w3.org/2000/svg" xmlns:xlink="http://www.w3.org/1999/xlink">
    <!-- Generator: Sketch 49.3 (51167) - http://www.bohemiancoding.com/sketch -->
    <title>Artboard 2</title>
    <desc>Created with Sketch.</desc>
    <defs></defs>
    <g id="States" stroke="none" stroke-width="1" fill="none" fill-rule="evenodd">
        <g id="Artboard-3"></g>
        <g id="Artboard-2">
            <g id="logotype" transform="translate(3.000000, 0.000000)">
                <path d="M1.02451171,21.9697266 C1.02451171,20.6611263 1.54452604,19.5893596 2.5845703,18.7543945 C3.62461457,17.9194294 4.96981596,17.5019531 6.62021483,17.5019531 C8.29014506,17.5019531 9.64022921,17.9414019 10.6705078,18.8203125 C11.7007864,19.6992231 12.2403318,20.8124933 12.2891601,22.1601562 L9.85751952,22.1601562 C9.75986278,21.359371 9.43027624,20.7294945 8.86874999,20.2705078 C8.30722375,19.8115211 7.55771952,19.5820312 6.62021483,19.5820312 C5.69247582,19.5820312 4.94541298,19.7919901 4.3790039,20.2119141 C3.81259482,20.631838 3.52939452,21.1738248 3.52939452,21.8378906 C3.52939452,22.365237 3.72958783,22.8095685 4.12998046,23.1708984 C4.53037309,23.5322284 5.15536684,23.8154287 6.00498046,24.0205078 L8.42197265,24.6064453 C9.96494911,24.9775409 11.0489226,25.4853483 11.6739258,26.1298828 C12.2989289,26.7744173 12.6114258,27.6435492 12.6114258,28.7373047 C12.6114258,30.0654363 12.0523493,31.1518512 10.9341797,31.996582 C9.81601003,32.8413128 8.40733271,33.2636719 6.70810546,33.2636719 C4.92098715,33.2636719 3.49522016,32.8437542 2.43076171,32.0039062 C1.36630326,31.1640583 0.760840567,30.0312571 0.61435546,28.6054688 L3.16318358,28.6054688 C3.31943437,29.4746137 3.69052441,30.1215799 4.27646483,30.5463867 C4.86240526,30.9711935 5.67294403,31.1835938 6.70810546,31.1835938 C7.74326689,31.1835938 8.55868842,30.9785177 9.15439452,30.5683594 C9.75010063,30.1582011 10.0479492,29.6113315 10.0479492,28.9277344 C10.0479492,28.3808566 9.8746111,27.9389665 9.52792968,27.6020508 C9.18124826,27.265135 8.57334418,26.9892589 7.70419921,26.7744141 L5.28720702,26.1884766 C2.44539594,25.5048794 1.02451171,24.0986435 1.02451171,21.9697266 Z M18.4950195,24.5332031 L19.1761719,23.8520508 C19.6302757,23.3979469 20.1917935,22.8339877 20.8607422,22.1601562 L22.8675781,20.1386719 C23.5365268,19.4648404 24.0980446,18.9008812 24.5521484,18.4467773 L25.2333008,17.765625 L28.3241211,17.765625 L21.7176758,24.3427734 L28.5291992,33 L25.5702148,33 L19.915918,25.9101562 L18.4950195,27.2578125 L18.4950195,33 L15.9461914,33 L15.9461914,11.8623047 L18.4950195,11.8623047 L18.4950195,24.5332031 Z M32.2008789,38.6982422 C32.1032222,38.6982422 31.9860358,38.6958008 31.8493164,38.690918 C31.712597,38.6860351 31.578321,38.6762696 31.4464844,38.6616211 C31.3146478,38.6469726 31.1999028,38.6298829 31.1022461,38.6103516 L31.1022461,36.4716797 C31.2389655,36.5009767 31.4000967,36.5205078 31.5856445,36.5302734 C31.7711923,36.5400391 31.9420891,36.5449219 32.0983398,36.5449219 C32.811234,36.5449219 33.3825174,36.3569355 33.812207,35.980957 C34.2418967,35.6049786 34.6032212,34.9726607 34.8961914,34.0839844 L35.2477539,33.0146484 L29.6227539,17.765625 L32.3473633,17.765625 L36.5661133,30.4511719 L36.6100586,30.4511719 L40.8288086,17.765625 L43.5094727,17.765625 L37.5182617,34.0693359 C36.8639616,35.8466886 36.1584022,37.0624967 35.4015625,37.7167969 C34.6447228,38.371097 33.5778389,38.6982422 32.2008789,38.6982422 Z M51.7514648,19.7138672 C50.5600526,19.7138672 49.5786171,20.1240193 48.8071289,20.9443359 C48.0356407,21.7646525 47.6108402,22.809564 47.5327148,24.0791016 L55.809082,24.0791016 C55.779785,22.7997983 55.3964881,21.7524455 54.6591797,20.9370117 C53.9218713,20.121578 52.9526427,19.7138672 51.7514648,19.7138672 Z M55.7504883,28.6347656 L58.2553711,28.6347656 C58.0405263,29.9628973 57.3447324,31.0664019 56.1679688,31.9453125 C54.9912051,32.8242231 53.5727622,33.2636719 51.9125977,33.2636719 C49.7348524,33.2636719 48.0210023,32.5581125 46.7709961,31.1469727 C45.5209898,29.7358328 44.8959961,27.8339963 44.8959961,25.4414062 C44.8959961,23.0781132 45.5209898,21.1640698 46.7709961,19.6992188 C48.0210023,18.2343677 49.6957903,17.5019531 51.7954102,17.5019531 C53.8559673,17.5019531 55.4794863,18.1928642 56.6660156,19.574707 C57.852545,20.9565499 58.4458008,22.7997932 58.4458008,25.1044922 L58.4458008,26.0712891 L47.5180664,26.0712891 L47.5180664,26.2177734 C47.5180664,27.6728588 47.918453,28.8422807 48.7192383,29.7260742 C49.5200235,30.6098677 50.6039971,31.0517578 51.9711914,31.0517578 C52.9379931,31.0517578 53.755856,30.8271507 54.4248047,30.3779297 C55.0937533,29.9287087 55.5356435,29.3476598 55.7504883,28.6347656 Z M61.5754883,33 L61.5754883,17.765625 L63.977832,17.765625 L63.977832,20.1972656 L64.0364258,20.1972656 C64.4661154,19.376949 65.083785,18.7226587 65.8894531,18.234375 C66.6951212,17.7460913 67.6887636,17.5019531 68.8704102,17.5019531 C70.5403404,17.5019531 71.8367141,18.0048778 72.7595703,19.0107422 C73.6824265,20.0166066 74.1438477,21.3837804 74.1438477,23.1123047 L74.1438477,33 L71.5950195,33 L71.5950195,23.5664062 C71.5950195,22.3359313 71.3044951,21.393558 70.7234375,20.7392578 C70.1423799,20.0849577 69.2659238,19.7578125 68.094043,19.7578125 C66.8928651,19.7578125 65.9309606,20.1484336 65.2083008,20.9296875 C64.4856409,21.7109414 64.1243164,22.7460873 64.1243164,24.0351562 L64.1243164,33 L61.5754883,33 Z M84.1436523,30.8759766 C85.471784,30.8759766 86.5411092,30.3706105 87.3516602,29.3598633 C88.1622111,28.349116 88.5674805,27.0039146 88.5674805,25.3242188 C88.5674805,23.6445229 88.1622111,22.2944387 87.3516602,21.2739258 C86.5411092,20.2534129 85.471784,19.7431641 84.1436523,19.7431641 C82.8350521,19.7431641 81.7852579,20.2460887 80.9942383,21.2519531 C80.2032187,22.2578175 79.8077148,23.6152258 79.8077148,25.3242188 C79.8077148,27.0332117 80.2032187,28.3857372 80.9942383,29.3818359 C81.7852579,30.3779347 82.8350521,30.8759766 84.1436523,30.8759766 Z M84.231543,38.7421875 C82.5518471,38.7421875 81.1138732,38.3198284 79.9175781,37.4750977 C78.7212831,36.6303669 78.0157237,35.5586002 77.8008789,34.2597656 L80.4229492,34.2597656 C80.6768567,34.9531285 81.1553676,35.5122049 81.8584961,35.9370117 C82.5616246,36.3618185 83.3868117,36.5742188 84.334082,36.5742188 C85.652448,36.5742188 86.6875939,36.2251011 87.4395508,35.5268555 C88.1915077,34.8286098 88.5674805,33.9130916 88.5674805,32.7802734 L88.5674805,30.3779297 L88.5088867,30.3779297 C88.0401344,31.208012 87.3785199,31.8720678 86.5240234,32.3701172 C85.669527,32.8681666 84.7051812,33.1171875 83.630957,33.1171875 C81.6875879,33.1171875 80.1299863,32.4091868 78.9581055,30.9931641 C77.7862246,29.5771414 77.200293,27.6875118 77.200293,25.3242188 C77.200293,22.9316287 77.788666,21.0297922 78.9654297,19.6186523 C80.1421934,18.2075125 81.7168847,17.5019531 83.6895508,17.5019531 C84.7637749,17.5019531 85.7305621,17.7509741 86.5899414,18.2490234 C87.4493207,18.7470728 88.1329076,19.4404252 88.6407227,20.3291016 L88.684668,20.3291016 L88.684668,17.765625 L91.1163086,17.765625 L91.1163086,32.6923828 C91.1163086,34.5087981 90.4937562,35.9711859 89.2486328,37.0795898 C88.0035094,38.1879938 86.3311628,38.7421875 84.231543,38.7421875 Z" id="skyeng" fill="#FFFFFF"></path>
                <path d="M127.355029,31 L127.355029,18.3046875 L129.356982,18.3046875 L129.356982,20.3310547 L129.405811,20.3310547 C129.706919,19.6555956 130.168747,19.1123881 130.791309,18.701416 C131.41387,18.2904439 132.152388,18.0849609 133.006885,18.0849609 C133.877657,18.0849609 134.620244,18.2945129 135.234668,18.713623 C135.849092,19.1327332 136.294644,19.7288373 136.571338,20.5019531 L136.620166,20.5019531 C136.978241,19.7451134 137.509241,19.1530783 138.213184,18.7258301 C138.917126,18.2985818 139.712609,18.0849609 140.599658,18.0849609 C141.861058,18.0849609 142.866093,18.4613406 143.614795,19.2141113 C144.363497,19.966882 144.737842,20.973952 144.737842,22.2353516 L144.737842,31 L142.613818,31 L142.613818,22.7236328 C142.613818,21.8528602 142.383922,21.1753768 141.924121,20.6911621 C141.464321,20.2069474 140.81532,19.9648438 139.9771,19.9648438 C139.138879,19.9648438 138.451223,20.2435682 137.914111,20.8010254 C137.376999,21.3584826 137.108447,22.0685178 137.108447,22.9311523 L137.108447,31 L134.984424,31 L134.984424,22.4916992 C134.984424,21.7267214 134.748424,21.1143415 134.276416,20.654541 C133.804408,20.1947405 133.173718,19.9648438 132.384326,19.9648438 C131.546106,19.9648438 130.852346,20.2578096 130.303027,20.84375 C129.753708,21.4296904 129.479053,22.162105 129.479053,23.0410156 L129.479053,31 L127.355029,31 Z M152.176611,29.4130859 C153.177593,29.4130859 154.017835,29.1018098 154.697363,28.479248 C155.376891,27.8566863 155.71665,27.0896855 155.71665,26.1782227 L155.71665,25.140625 L152.323096,25.3481445 C150.532722,25.4620774 149.637549,26.1497333 149.637549,27.4111328 C149.637549,28.0133494 149.86948,28.4975568 150.33335,28.8637695 C150.797219,29.2299823 151.411634,29.4130859 152.176611,29.4130859 Z M151.700537,31.2197266 C150.439138,31.2197266 149.419861,30.8697952 148.642676,30.1699219 C147.865491,29.4700486 147.476904,28.5504614 147.476904,27.4111328 C147.476904,26.3206326 147.877698,25.449873 148.679297,24.7988281 C149.480896,24.1477832 150.614104,23.7815759 152.078955,23.7001953 L155.71665,23.4926758 L155.71665,22.4306641 C155.71665,21.6575482 155.472512,21.0512717 154.984229,20.6118164 C154.495945,20.1723611 153.812358,19.9526367 152.933447,19.9526367 C152.119641,19.9526367 151.462503,20.1316714 150.962012,20.4897461 C150.461521,20.8478208 150.142107,21.3401661 150.00376,21.9667969 L147.952979,21.9667969 C148.026221,20.8681586 148.508394,19.9465369 149.399512,19.2019043 C150.290629,18.4572717 151.484872,18.0849609 152.982275,18.0849609 C154.471541,18.0849609 155.653576,18.4593062 156.528418,19.2080078 C157.40326,19.9567095 157.840674,20.961745 157.840674,22.2231445 L157.840674,31 L155.826514,31 L155.826514,28.8149414 L155.777686,28.8149414 C155.403335,29.5392289 154.843851,30.1210916 154.099219,30.5605469 C153.354586,31.0000022 152.555034,31.2197266 151.700537,31.2197266 Z M167.256982,18.0849609 C168.876457,18.0849609 170.186665,18.681065 171.187646,19.873291 C172.188628,21.065517 172.689111,22.6585187 172.689111,24.6523438 C172.689111,26.6380308 172.192697,28.2289979 171.199854,29.425293 C170.20701,30.621588 168.909009,31.2197266 167.305811,31.2197266 C166.394348,31.2197266 165.588692,31.0122091 164.888818,30.597168 C164.188945,30.1821268 163.647772,29.6287469 163.265283,28.9370117 L163.216455,28.9370117 L163.216455,35.2358398 L161.092432,35.2358398 L161.092432,18.3046875 L163.106592,18.3046875 L163.106592,20.453125 L163.15542,20.453125 C163.546047,19.7369756 164.097392,19.1632509 164.809473,18.7319336 C165.521553,18.3006163 166.337381,18.0849609 167.256982,18.0849609 Z M166.841943,29.3520508 C167.973134,29.3520508 168.868307,28.9288779 169.52749,28.0825195 C170.186673,27.2361611 170.51626,26.0927806 170.51626,24.6523438 C170.51626,23.2200449 170.186673,22.0786989 169.52749,21.2282715 C168.868307,20.3778441 167.973134,19.9526367 166.841943,19.9526367 C165.759581,19.9526367 164.882718,20.3839475 164.211328,21.246582 C163.539938,22.1092166 163.204248,23.2444591 163.204248,24.6523438 C163.204248,26.0683665 163.539938,27.2056435 164.211328,28.064209 C164.882718,28.9227745 165.759581,29.3520508 166.841943,29.3520508 Z" id="map" fill="#FFFFFF"></path>
                <path d="M111.35,39.65 L179,39.65 C184.329548,39.65 188.65,35.3295478 188.65,30 L188.65,0.35 L121,0.35 C115.670452,0.35 111.35,4.67045216 111.35,10 L111.35,39.65 Z" id="Rectangle-3" stroke="#FFFFFF" stroke-width="0.7"></path>
            </g>
        </g>
    </g>
</svg>