<svg class="svg-icon" viewBox="0 0 32 45" fill="none" xmlns="http://www.w3.org/2000/svg">
<path d="M0.674534 29.8898C0.262062 23.5553 2.07884 17.2611 3.68885 13.0745C5.28869 8.91421 6.95938 6.03108 7.30996 5.44327C7.41956 4.97752 7.86163 3.61153 9.36944 2.96296C9.70696 2.74384 11.4213 1.65938 13.4834 0.865078C16.689 -0.369814 19.067 -0.282322 20.5502 1.12572C22.5384 3.01319 23.457 4.69207 23.2802 6.1157C23.1952 6.80013 22.8807 7.26849 22.6018 7.55848C22.618 7.70404 22.6153 7.87023 22.5792 8.0547C22.4219 8.85936 21.6948 9.64156 20.4181 10.3792C17.8166 11.8823 15.8262 10.9316 14.5091 10.3025C14.3842 10.2429 14.2631 10.185 14.1454 10.1311C13.9487 10.041 13.8616 10.0811 13.8244 10.0982C13.6068 10.1985 13.3989 10.5679 13.292 10.8533C13.5131 12.1145 14.7096 19.3713 13.8897 24.212C16.1229 23.471 18.1796 23.6616 19.7062 24.0564C21.488 24.5174 22.8273 25.3115 23.4328 25.7162C24.6748 25.2098 26.1742 25.1081 27.8201 25.4154C27.821 25.4074 27.8214 25.4023 27.8216 25.4003C27.8548 25.0394 28.1576 24.7633 28.5201 24.7633H30.8965C31.284 24.7633 31.5979 25.0772 31.5979 25.4647V41.3131C31.5979 41.7006 31.284 42.0145 30.8965 42.0145C30.509 42.0145 30.1951 41.7006 30.1951 41.3131V26.1662H29.1456C29.0018 27.2875 28.6195 29.7642 27.7632 32.6707C26.4449 37.1455 24.6081 40.6677 22.2914 43.1699H30.8965C31.284 43.1699 31.5979 43.4839 31.5979 43.8713C31.5979 44.2588 31.284 44.5728 30.8965 44.5728H20.5582C20.2649 44.5728 20.0027 44.3903 19.9006 44.1154C19.7986 43.8404 19.8783 43.531 20.1007 43.3397C20.1074 43.3339 20.1138 43.3279 20.1206 43.322C18.7032 42.7455 17.4712 41.9739 16.4464 41.02C16.1724 41.0376 15.9074 41.0452 15.6555 41.0452C14.4398 41.0452 13.5259 40.8724 13.3361 40.8336C12.9818 40.7855 12.6123 40.724 12.2333 40.6454C9.21039 40.0189 6.96756 38.589 5.7103 36.4957C3.98084 36.7532 1.19191 36.4845 0.287918 33.9154C-0.28169 32.2969 0.0712348 30.9098 0.674534 29.8898ZM1.61108 33.4499C2.44569 35.821 5.77298 35.0627 5.91279 35.0297C6.22802 34.9537 6.55518 35.1041 6.70248 35.3936C9.12795 40.1638 16.53 39.568 16.6042 39.5612C16.681 39.554 16.7576 39.56 16.8311 39.5777C17.9374 39.4549 19.1452 39.1271 20.1372 38.3831C20.447 38.1505 20.8869 38.2133 21.1192 38.5231C21.3517 38.833 21.2889 39.2728 20.9791 39.5051C20.1535 40.1245 19.2257 40.508 18.3079 40.7375C19.1586 41.3542 20.1377 41.8587 21.2336 42.2441C25.5593 37.5768 27.1457 29.9397 27.6339 26.8072C26.4693 26.5812 24.9569 26.5043 23.6693 27.1481C23.4283 27.2686 23.1384 27.2397 22.9251 27.0746C22.9108 27.0634 21.4503 25.9459 19.3063 25.4023C17.1754 24.862 15.1504 25.0555 13.2629 25.9743C13.237 25.9891 13.2103 26.0025 13.1827 26.014C12.6065 26.3013 12.0431 26.6557 11.4937 27.0787C11.3663 27.1769 11.2156 27.2245 11.0663 27.2245C10.8561 27.2245 10.6481 27.1304 10.5101 26.9509C10.2737 26.644 10.331 26.2036 10.6379 25.9672C11.2 25.5344 11.7613 25.178 12.3172 24.8847C13.5383 20.0997 11.8978 11.0228 11.8807 10.9298C11.8616 10.8258 11.8663 10.7188 11.8943 10.6168C11.932 10.4798 12.2901 9.26556 13.2306 8.82715C13.5557 8.67567 14.0797 8.55762 14.7299 8.8557C14.8541 8.91255 14.9819 8.97366 15.1138 9.03669C16.3517 9.62789 17.7546 10.2978 19.7162 9.16458C21.0803 8.37655 21.2376 7.82365 21.2057 7.70055C21.1068 7.54751 21.0709 7.3613 21.1071 7.18118C21.1474 6.98104 21.2729 6.8084 21.4509 6.7082C21.4546 6.7062 21.8227 6.46853 21.8879 5.94298C21.9549 5.40419 21.7445 4.19402 19.5842 2.14332C17.409 0.0776548 11.992 2.90559 10.0884 4.16912C10.0495 4.19506 10.0082 4.21691 9.96499 4.23459C8.86539 4.68284 8.67291 5.76617 8.66612 5.80604C8.65228 5.89954 8.61963 5.98929 8.57035 6.06982C8.5001 6.18438 1.87669 17.1283 2.01825 28.3786C2.05115 28.3545 2.08371 28.3315 2.11549 28.3097C2.43568 28.0917 2.87201 28.1747 3.08999 28.4948C3.30798 28.815 3.22511 29.2513 2.90491 29.4693C2.88324 29.484 0.74148 30.9778 1.61108 33.4499Z" />
<path d="M12.4497 30.4523C16.2726 34.2244 22.8836 32.7906 22.9501 32.7756C23.3274 32.6901 23.7031 32.9269 23.7887 33.3045C23.8746 33.6822 23.6378 34.058 23.26 34.1438C23.1319 34.1729 21.7665 34.4719 19.9031 34.4719C17.3917 34.4719 13.9757 33.9289 11.4644 31.451C11.1886 31.179 11.1857 30.7348 11.4577 30.4591C11.7298 30.1833 12.1738 30.1802 12.4497 30.4523Z" />
<path d="M9.06816 12.6599C9.42779 12.8034 9.60295 13.2113 9.45983 13.571C9.43885 13.6237 7.37709 18.9084 8.49533 25.0573C8.56463 25.4384 8.31182 25.8036 7.93069 25.8729C7.8882 25.8807 7.84607 25.8844 7.80437 25.8844C7.4719 25.8844 7.1766 25.6469 7.11506 25.3083C5.92212 18.7477 8.06527 13.2801 8.15712 13.0506C8.30076 12.6912 8.70871 12.5167 9.06816 12.6599Z" />
</svg>
