<svg class="svg-icon" viewBox="0 0 76 84" fill="none" xmlns="http://www.w3.org/2000/svg">
<path fill-rule="evenodd" clip-rule="evenodd" d="M54 7.5H22V10.5H54V7.5ZM63 10.5H67C70.0376 10.5 72.5 12.9624 72.5 16V27.5H3.5V16C3.5 12.9624 5.96243 10.5 9 10.5H13V7.5H9C4.30558 7.5 0.5 11.3056 0.5 16V75C0.5 79.6944 4.30558 83.5 9 83.5H67C71.6944 83.5 75.5 79.6944 75.5 75V16C75.5 11.3056 71.6944 7.5 67 7.5H63V10.5ZM72.5 30.5H3.5V75C3.5 78.0376 5.96243 80.5 9 80.5H67C70.0376 80.5 72.5 78.0376 72.5 75V30.5Z" fill="url(#paint0_linear)"/>
<path fill-rule="evenodd" clip-rule="evenodd" d="M21 12.5V6.5C21 4.567 19.433 3 17.5 3C15.567 3 14 4.567 14 6.5V12.5C14 14.433 15.567 16 17.5 16C19.433 16 21 14.433 21 12.5ZM62 12.5V6.5C62 4.567 60.433 3 58.5 3C56.567 3 55 4.567 55 6.5V12.5C55 14.433 56.567 16 58.5 16C60.433 16 62 14.433 62 12.5ZM17.5 0C13.9101 0 11 2.91015 11 6.5V12.5C11 16.0899 13.9101 19 17.5 19C21.0899 19 24 16.0899 24 12.5V6.5C24 2.91015 21.0899 0 17.5 0ZM58.5 0C54.9101 0 52 2.91015 52 6.5V12.5C52 16.0899 54.9101 19 58.5 19C62.0899 19 65 16.0899 65 12.5V6.5C65 2.91015 62.0899 0 58.5 0Z" fill="url(#paint1_linear)"/>
<path d="M26.5073 62.8891H16V60.9845L19.9972 56.9293C21.1776 55.7096 21.9587 54.8465 22.3404 54.34C22.7292 53.8264 23.0119 53.3449 23.1886 52.8955C23.3653 52.4462 23.4537 51.9647 23.4537 51.4511C23.4537 50.7449 23.2416 50.1885 22.8175 49.7819C22.4005 49.3753 21.8209 49.172 21.0787 49.172C20.4849 49.172 19.9089 49.2826 19.3504 49.5037C18.7991 49.7249 18.1594 50.1243 17.4314 50.7021L16.0848 49.0436C16.9472 48.3089 17.7848 47.7882 18.5977 47.4815C19.4105 47.1748 20.2764 47.0214 21.1953 47.0214C22.6373 47.0214 23.793 47.403 24.6624 48.1663C25.5318 48.9224 25.9665 49.9424 25.9665 51.2264C25.9665 51.9326 25.8393 52.6031 25.5848 53.2379C25.3374 53.8728 24.9522 54.529 24.4291 55.2067C23.9131 55.8772 23.0508 56.7867 21.8421 57.9351L19.149 60.5673V60.6743H26.5073V62.8891Z" fill="url(#paint2_linear)"/>
<path d="M38.9124 55.0676C38.9124 57.7853 38.4777 59.804 37.6083 61.1236C36.7459 62.4433 35.4241 63.1031 33.6429 63.1031C31.9182 63.1031 30.6105 62.4219 29.7199 61.0594C28.8292 59.697 28.3839 57.6997 28.3839 55.0676C28.3839 52.3071 28.8151 50.2741 29.6775 48.9688C30.5469 47.6562 31.8687 47 33.6429 47C35.3746 47 36.6858 47.6848 37.5765 49.0543C38.4671 50.4239 38.9124 52.4283 38.9124 55.0676ZM30.9074 55.0676C30.9074 57.2004 31.123 58.7233 31.5541 59.6364C31.9924 60.5494 32.6886 61.0059 33.6429 61.0059C34.5971 61.0059 35.2933 60.5423 35.7316 59.615C36.1769 58.6877 36.3996 57.1719 36.3996 55.0676C36.3996 52.9704 36.1769 51.4547 35.7316 50.5202C35.2933 49.5786 34.5971 49.1078 33.6429 49.1078C32.6886 49.1078 31.9924 49.5679 31.5541 50.4881C31.123 51.4083 30.9074 52.9348 30.9074 55.0676Z" fill="url(#paint3_linear)"/>
<path d="M48.1261 62.8891H45.6345V52.7886C45.6345 51.5831 45.6628 50.6272 45.7193 49.921C45.5567 50.0922 45.3553 50.2813 45.115 50.4881C44.8817 50.695 44.09 51.3512 42.74 52.4569L41.4888 50.8626L46.048 47.2461H48.1261V62.8891Z" fill="url(#paint4_linear)"/>
<path d="M60.5312 62.8891H58.0396V52.7886C58.0396 51.5831 58.0679 50.6272 58.1244 49.921C57.9619 50.0922 57.7604 50.2813 57.5201 50.4881C57.2868 50.695 56.4952 51.3512 55.1451 52.4569L53.894 50.8626L58.4531 47.2461H60.5312V62.8891Z" fill="url(#paint5_linear)"/>
<defs>
<linearGradient id="paint0_linear" x1="67.9107" y1="81.231" x2="17.2366" y2="7.57801" gradientUnits="userSpaceOnUse">
<stop stop-color="#613C9E"/>
<stop offset="1" stop-color="#F96031"/>
</linearGradient>
<linearGradient id="paint1_linear" x1="67.9107" y1="81.231" x2="17.2366" y2="7.57801" gradientUnits="userSpaceOnUse">
<stop stop-color="#613C9E"/>
<stop offset="1" stop-color="#F96031"/>
</linearGradient>
<linearGradient id="paint2_linear" x1="67.9107" y1="81.231" x2="17.2366" y2="7.57801" gradientUnits="userSpaceOnUse">
<stop stop-color="#613C9E"/>
<stop offset="1" stop-color="#F96031"/>
</linearGradient>
<linearGradient id="paint3_linear" x1="67.9107" y1="81.231" x2="17.2366" y2="7.57801" gradientUnits="userSpaceOnUse">
<stop stop-color="#613C9E"/>
<stop offset="1" stop-color="#F96031"/>
</linearGradient>
<linearGradient id="paint4_linear" x1="67.9107" y1="81.231" x2="17.2366" y2="7.57801" gradientUnits="userSpaceOnUse">
<stop stop-color="#613C9E"/>
<stop offset="1" stop-color="#F96031"/>
</linearGradient>
<linearGradient id="paint5_linear" x1="67.9107" y1="81.231" x2="17.2366" y2="7.57801" gradientUnits="userSpaceOnUse">
<stop stop-color="#613C9E"/>
<stop offset="1" stop-color="#F96031"/>
</linearGradient>
</defs>
</svg>
