<svg class="svg-icon" viewBox="0 0 20 23" fill="none" xmlns="http://www.w3.org/2000/svg">
<mask id="path-1-inside-1">
<path fill-rule="evenodd" clip-rule="evenodd" d="M2 3C0.895431 3 0 3.89543 0 5V21C0 22.1046 0.895431 23 2 23H18C19.1046 23 20 22.1046 20 21V5C20 3.89543 19.1046 3 18 3H2ZM3 7C2.44772 7 2 7.44772 2 8V20C2 20.5523 2.44772 21 3 21H17C17.5523 21 18 20.5523 18 20V8C18 7.44772 17.5523 7 17 7H3Z"/>
</mask>
<path fill-rule="evenodd" clip-rule="evenodd" d="M2 3C0.895431 3 0 3.89543 0 5V21C0 22.1046 0.895431 23 2 23H18C19.1046 23 20 22.1046 20 21V5C20 3.89543 19.1046 3 18 3H2ZM3 7C2.44772 7 2 7.44772 2 8V20C2 20.5523 2.44772 21 3 21H17C17.5523 21 18 20.5523 18 20V8C18 7.44772 17.5523 7 17 7H3Z"/>
<path d="M1 5C1 4.44772 1.44772 4 2 4V2C0.343146 2 -1 3.34315 -1 5H1ZM1 21V5H-1V21H1ZM2 22C1.44772 22 1 21.5523 1 21H-1C-1 22.6569 0.343147 24 2 24V22ZM18 22H2V24H18V22ZM19 21C19 21.5523 18.5523 22 18 22V24C19.6569 24 21 22.6569 21 21H19ZM19 5V21H21V5H19ZM18 4C18.5523 4 19 4.44772 19 5H21C21 3.34315 19.6569 2 18 2V4ZM2 4H18V2H2V4ZM3 8V8V6C1.89543 6 1 6.89543 1 8H3ZM3 20V8H1V20H3ZM3 20H1C1 21.1046 1.89543 22 3 22V20ZM17 20H3V22H17V20ZM17 20V22C18.1046 22 19 21.1046 19 20H17ZM17 8V20H19V8H17ZM17 8H19C19 6.89543 18.1046 6 17 6V8ZM3 8H17V6H3V8Z" mask="url(#path-1-inside-1)"/>
<path d="M5.70711 13.2929C5.31658 12.9024 4.68342 12.9024 4.29289 13.2929C3.90237 13.6834 3.90237 14.3166 4.29289 14.7071L5.70711 13.2929ZM8.5 17.5L7.79289 18.2071C8.18342 18.5976 8.81658 18.5976 9.20711 18.2071L8.5 17.5ZM15.7071 11.7071C16.0976 11.3166 16.0976 10.6834 15.7071 10.2929C15.3166 9.90237 14.6834 9.90237 14.2929 10.2929L15.7071 11.7071ZM4 4.5C4 5.05228 4.44772 5.5 5 5.5C5.55228 5.5 6 5.05228 6 4.5H4ZM6 1C6 0.447715 5.55228 0 5 0C4.44772 0 4 0.447715 4 1H6ZM14 4.5C14 5.05228 14.4477 5.5 15 5.5C15.5523 5.5 16 5.05228 16 4.5H14ZM16 1C16 0.447715 15.5523 0 15 0C14.4477 0 14 0.447715 14 1H16ZM4.29289 14.7071L7.79289 18.2071L9.20711 16.7929L5.70711 13.2929L4.29289 14.7071ZM9.20711 18.2071L15.7071 11.7071L14.2929 10.2929L7.79289 16.7929L9.20711 18.2071ZM6 4.5V1H4V4.5H6ZM16 4.5V1H14V4.5H16Z"/>
</svg>
