<svg class='svg-icon' viewBox="0 0 91 82" fill="none" xmlns="http://www.w3.org/2000/svg">
<path fill-rule="evenodd" clip-rule="evenodd" d="M34 12.5C34 5.59644 39.5964 0 46.5 0H77.7442C84.7602 0 90.4022 5.77311 90.2409 12.7873L89.7467 34.2873C89.5906 41.0771 84.0416 46.5 77.25 46.5H47.5394L38.0922 54.3042C36.4619 55.651 34 54.4914 34 52.3768V29H13C7.75329 29 3.5 33.2533 3.5 38.5V61C3.5 66.2467 7.75329 70.5 13 70.5H43C43.3284 70.5 43.6478 70.6078 43.9091 70.8069L52 76.9714V54.5C52 53.6716 52.6716 53 53.5 53C54.3284 53 55 53.6716 55 54.5V80C55 80.5702 54.6767 81.0911 54.1657 81.3442C53.6548 81.5972 53.0445 81.5387 52.5909 81.1931L42.4937 73.5H13C6.09644 73.5 0.5 67.9036 0.5 61V38.5C0.5 31.5964 6.09644 26 13 26H34V12.5ZM46.5 3C41.2533 3 37 7.25329 37 12.5V51.3153L46.0447 43.8436C46.3135 43.6215 46.6513 43.5 47 43.5H77.25C82.4116 43.5 86.6288 39.3786 86.7475 34.2183L87.2417 12.7183C87.3643 7.38756 83.0764 3 77.7442 3H46.5Z" fill="url(#paint0_linear)"/>
<path d="M14 49.281C14 48.0211 15.0211 47 16.281 47H16.4711C17.7309 47 18.7521 48.0211 18.7521 49.281C18.7521 50.5409 17.7309 51.562 16.4711 51.562H16.281C15.0211 51.562 14 50.5409 14 49.281Z" fill="url(#paint1_linear)"/>
<path d="M21.9275 49.281C21.9275 48.0211 22.9486 47 24.2085 47H24.3983C25.6581 47 26.6793 48.0211 26.6793 49.281C26.6793 50.5409 25.6581 51.562 24.3983 51.562H24.2085C22.9486 51.562 21.9275 50.5409 21.9275 49.281Z" fill="url(#paint2_linear)"/>
<path d="M65.1403 23.5245C66.6207 22.2817 68.6375 20.5885 68.6375 17.8098C68.6375 14.0499 65.5787 10.9997 61.8186 11C58.0588 11 55 14.0588 55 17.8184C55 19.0783 56.0211 20.0994 57.281 20.0994C58.5409 20.0994 59.562 19.0783 59.562 17.8184C59.562 16.5742 60.5745 15.562 61.8191 15.562C63.0633 15.562 64.0756 16.5742 64.0756 17.8184C64.0756 18.433 63.3302 19.1046 62.1935 20.0591C60.7448 21.2754 58.9421 22.7547 58.9621 25.225C58.9722 26.4783 59.9916 27.4533 61.2426 27.4533H61.2616C62.5214 27.4533 63.5342 26.4474 63.5241 25.1878C63.5213 24.8667 64.5657 24.007 65.1268 23.5358L65.1403 23.5245Z" fill="url(#paint3_linear)"/>
<path d="M59.0751 31.8399C59.0751 30.58 60.0458 29.5589 61.3057 29.5589C62.5655 29.5589 63.5867 30.58 63.5867 31.8399C63.5867 33.0998 62.5653 34.1298 61.3057 34.1298C60.0461 34.1298 59.0751 33.1173 59.0751 31.8574V31.8399Z" fill="url(#paint4_linear)"/>
<defs>
<linearGradient id="paint0_linear" x1="80.9391" y1="79.5785" x2="34.3848" y2="-3.12517" gradientUnits="userSpaceOnUse">
<stop stop-color="#613C9E"/>
<stop offset="1" stop-color="#F96031"/>
</linearGradient>
<linearGradient id="paint1_linear" x1="80.9391" y1="79.5785" x2="34.3848" y2="-3.12517" gradientUnits="userSpaceOnUse">
<stop stop-color="#613C9E"/>
<stop offset="1" stop-color="#F96031"/>
</linearGradient>
<linearGradient id="paint2_linear" x1="80.9391" y1="79.5785" x2="34.3848" y2="-3.12517" gradientUnits="userSpaceOnUse">
<stop stop-color="#613C9E"/>
<stop offset="1" stop-color="#F96031"/>
</linearGradient>
<linearGradient id="paint3_linear" x1="80.9391" y1="79.5785" x2="34.3848" y2="-3.12517" gradientUnits="userSpaceOnUse">
<stop stop-color="#613C9E"/>
<stop offset="1" stop-color="#F96031"/>
</linearGradient>
<linearGradient id="paint4_linear" x1="80.9391" y1="79.5785" x2="34.3848" y2="-3.12517" gradientUnits="userSpaceOnUse">
<stop stop-color="#613C9E"/>
<stop offset="1" stop-color="#F96031"/>
</linearGradient>
</defs>
</svg>
