<svg width="24" height="24" viewBox="0 0 24 24" fill="none" xmlns="http://www.w3.org/2000/svg">
<path d="M12.5 5C12.5 4.44772 12.0523 4 11.5 4C10.9477 4 10.5 4.44772 10.5 5H12.5ZM11.5 12.5H10.5C10.5 12.823 10.656 13.126 10.9188 13.3137L11.5 12.5ZM14.4188 15.8137C14.8682 16.1347 15.4927 16.0307 15.8137 15.5812C16.1347 15.1318 16.0307 14.5073 15.5812 14.1863L14.4188 15.8137ZM22 12C22 17.5228 17.5228 22 12 22V24C18.6274 24 24 18.6274 24 12H22ZM12 22C6.47715 22 2 17.5228 2 12H0C0 18.6274 5.37258 24 12 24V22ZM2 12C2 6.47715 6.47715 2 12 2V0C5.37258 0 0 5.37258 0 12H2ZM12 2C17.5228 2 22 6.47715 22 12H24C24 5.37258 18.6274 0 12 0V2ZM10.5 5V12.5H12.5V5H10.5ZM10.9188 13.3137L14.4188 15.8137L15.5812 14.1863L12.0812 11.6863L10.9188 13.3137Z" fill="#BEBEBE"/>
</svg>
