<svg class="svg-icon" viewBox="0 0 46 44" fill="none" xmlns="http://www.w3.org/2000/svg">
<path d="M23 26.9677C24.1909 26.9677 25.1562 27.9209 25.1562 29.0968C25.1562 30.2726 24.1909 31.2258 23 31.2258C21.8091 31.2258 20.8438 30.2726 20.8438 29.0968C20.8438 27.9209 21.8091 26.9677 23 26.9677ZM23 29.8064C23.3969 29.8064 23.7188 29.4887 23.7188 29.0968C23.7188 28.7049 23.3969 28.3871 23 28.3871C22.6031 28.3871 22.2812 28.7049 22.2812 29.0968C22.2812 29.4887 22.6031 29.8064 23 29.8064Z" />
<path d="M2.15625 0H43.8438C45.0346 0 46 0.953185 46 2.12903V33.3548C46 33.7468 45.6782 34.0645 45.2812 34.0645H28.9081L30.0581 39.7419H31.625C32.0219 39.7419 32.3438 40.0597 32.3438 40.4516V42.5806H33.7812V44H12.2188V42.5806H13.6562V40.4516C13.6562 40.0597 13.9781 39.7419 14.375 39.7419H15.943L17.093 34.0645H0.71875C0.321819 34.0645 0 33.7468 0 33.3548V2.12903C0 0.953185 0.96537 0 2.15625 0ZM15.0938 41.1613V42.5806H30.9062V41.1613H15.0938ZM28.5919 39.7419L27.443 34.0645H18.5581L17.4081 39.7419H28.5919ZM1.4375 32.6452H44.5625V26.2581H1.4375V32.6452ZM11.5 6.3871H17.25C17.6469 6.3871 17.9688 6.70485 17.9688 7.09677V13.4839H16.5312V7.80645H12.2188V10.6452H15.0938V12.0645H12.2188V15.6129H15.0938V17.0323H12.2188V20.5806H15.0938V22H12.2188V24.8387H16.5312V19.1613H17.9688V24.8387H20.8438V21.2903C20.8438 18.3941 17.2816 17.7575 17.1321 17.732C17.0435 17.7174 16.9585 17.6865 16.8815 17.6409C16.5409 17.4395 16.4301 17.0037 16.634 16.6675L23.1028 6.02232C23.1549 5.94727 23.2206 5.88243 23.2966 5.83098C23.6367 5.60077 24.1016 5.68638 24.3347 6.02232L30.8035 16.6675C30.8494 16.7431 30.8806 16.8265 30.8956 16.9134C30.9621 17.2998 30.6989 17.6663 30.3075 17.732C30.1559 17.7575 26.5938 18.3941 26.5938 21.2903V24.8387H29.4688V19.1613H30.9062V24.8387H31.625V12.0645H30.9062V13.4839H29.4688V11.3548C29.4686 11.2587 29.4883 11.1635 29.527 11.0752L31.6832 6.10748C31.7559 5.94018 31.8909 5.80685 32.0604 5.73508C32.4251 5.58055 32.8478 5.74732 33.0043 6.10748L35.1605 11.0752C35.1992 11.1635 35.2189 11.2587 35.2188 11.3548V24.8387H40.9688V4.96774H5.03125V24.8387H10.7812V7.09677C10.7812 6.70485 11.1031 6.3871 11.5 6.3871ZM25.1562 22.7097V22H22.2812V22.7097H25.1562ZM22.2812 24.129V24.8387H25.1562V24.129H22.2812ZM25.2087 20.5806C25.553 18.3239 27.5102 17.1032 29.0756 16.5816L24.4375 8.94948V14.9032H23V8.94948L18.3619 16.5816C19.9288 17.0997 21.8845 18.3239 22.2288 20.5806H25.2087ZM33.4115 10.6452L32.3438 8.18542L31.276 10.6452H33.4115ZM33.0625 12.0645V24.8387H33.7812V12.0645H33.0625ZM1.4375 24.8387H3.59375V4.25806C3.59375 3.86615 3.91557 3.54839 4.3125 3.54839H41.6875C42.0844 3.54839 42.4062 3.86615 42.4062 4.25806V24.8387H44.5625V2.12903C44.5625 1.73711 44.2407 1.41935 43.8438 1.41935H2.15625C1.75932 1.41935 1.4375 1.73711 1.4375 2.12903V24.8387Z" />
</svg>
