<svg width="22" height="22" viewBox="0 0 22 22" fill="none" xmlns="http://www.w3.org/2000/svg">
<path fill-rule="evenodd" clip-rule="evenodd" d="M21.4004 0.923677C22.1815 1.70473 22.1815 2.97106 21.4004 3.7521L14.1526 11L21.4006 18.2479C22.1816 19.029 22.1816 20.2953 21.4006 21.0764C20.6195 21.8574 19.3532 21.8574 18.5721 21.0764L11.3242 13.8284L4.07632 21.0762C3.29527 21.8573 2.02894 21.8573 1.2479 21.0762C0.466847 20.2952 0.466847 19.0288 1.2479 18.2478L8.49574 11L1.24802 3.75224C0.466975 2.97119 0.466974 1.70486 1.24802 0.923811C2.02907 0.142762 3.2954 0.142762 4.07645 0.923811L11.3242 8.17152L18.572 0.923677C19.3531 0.142628 20.6194 0.142628 21.4004 0.923677Z" fill="white"/>
</svg>
