<svg class="svg-icon" viewBox="0 0 9 19" fill="none" xmlns="http://www.w3.org/2000/svg">
<path d="M6.91566 8.6309C6.23406 8.21887 5.50941 7.90494 4.79194 7.57924C4.3758 7.39088 3.97761 7.17113 3.62604 6.86505C2.93368 6.26073 3.06641 5.2797 3.87716 4.89121C4.10675 4.78133 4.34711 4.74602 4.59105 4.73032C5.53094 4.67538 6.42419 4.86374 7.2744 5.31109C7.69771 5.53477 7.83762 5.46413 7.98111 4.98146C8.13178 4.47133 8.25734 3.95334 8.39725 3.43928C8.49052 3.09396 8.37572 2.86636 8.07797 2.72117C7.53269 2.45825 6.97306 2.26989 6.38473 2.16786C5.61704 2.03837 5.61704 2.03444 5.61345 1.19076C5.60986 0.00174408 5.60986 0.00174406 4.5193 0.00174406C4.36146 0.00174406 4.20361 -0.00218007 4.04577 0.00174406C3.53636 0.0174406 3.45026 0.115544 3.43591 0.676694C3.42874 0.927839 3.43591 1.17898 3.43233 1.43405C3.42874 2.17964 3.42515 2.16786 2.77225 2.42686C1.19381 3.05472 0.218041 4.23196 0.114007 6.11554C0.0207356 7.78329 0.817132 8.90952 2.06913 9.72966C2.84041 10.2359 3.6942 10.5341 4.51213 10.9304C4.8314 11.0835 5.13633 11.2601 5.40179 11.5034C6.18743 12.2136 6.04393 13.3948 5.11122 13.8421C4.61257 14.0815 4.08523 14.1404 3.54353 14.0658C2.70768 13.952 1.90769 13.7127 1.15435 13.2849C0.713098 13.0338 0.583953 13.1005 0.433283 13.6224C0.304138 14.0737 0.189342 14.5289 0.0745462 14.9841C-0.0797108 15.5962 -0.0223132 15.7414 0.512205 16.0279C1.19381 16.3889 1.92204 16.5733 2.66463 16.7028C3.24578 16.8049 3.26372 16.8323 3.27089 17.4916C3.27448 17.7898 3.27448 18.092 3.27807 18.3902C3.28166 18.7669 3.44668 18.9867 3.80183 18.9945C4.20361 19.0024 4.60898 19.0024 5.01077 18.9906C5.34081 18.9828 5.50942 18.7866 5.50942 18.4216C5.50942 18.0135 5.52735 17.6015 5.513 17.1934C5.49506 16.7774 5.66008 16.5655 6.026 16.4556C6.86903 16.2045 7.5865 15.71 8.13896 14.9723C9.67435 12.9318 9.08961 9.94549 6.91566 8.6309Z"/>
</svg>
