<svg class="svg-icon" viewBox="0 0 101 75" fill="none" xmlns="http://www.w3.org/2000/svg">
<path fill-rule="evenodd" clip-rule="evenodd" d="M50.7193 3.28667C50.5792 3.2166 50.4143 3.21628 50.2738 3.28581L3.32135 26.5341C2.94888 26.7186 2.95096 27.2505 3.32486 27.432L15.6254 33.4032C15.6448 33.4121 15.6639 33.4214 15.6829 33.431L50.2774 50.2245C50.4159 50.2917 50.5776 50.2914 50.7159 50.2237L85.3123 33.2647C85.3311 33.2549 85.3501 33.2456 85.3694 33.2367L97.2125 27.4312C97.5841 27.2491 97.5862 26.7201 97.216 26.535L50.7193 3.28667ZM84.5001 37.0038L52.0363 52.9174C51.0688 53.3917 49.9367 53.3939 48.9673 52.9233L16.5001 37.1625V49.7376C16.5001 49.9304 16.6109 50.106 16.785 50.189L50.4539 66.2339C50.5906 66.299 50.7494 66.2987 50.8858 66.233L84.2169 50.1935C84.39 50.1101 84.5001 49.935 84.5001 49.7429V37.0038ZM13.5001 35.7062V49.7376C13.5001 51.0872 14.276 52.3166 15.4944 52.8972L49.1633 68.9421C50.12 69.398 51.2318 69.3959 52.1867 68.9363L85.5177 52.8967C86.7295 52.3136 87.5001 51.0877 87.5001 49.7429V35.5333L91.8401 33.4058V55.556L87.3014 62.5505C86.3346 64.0404 86.3346 65.9596 87.3014 67.4495L91.2651 73.5579C92.2363 75.0546 94.4176 75.0815 95.4253 73.6091L99.5781 67.5417C100.627 66.0095 100.627 63.9905 99.5781 62.4583L94.8401 55.5358V31.9352L98.533 30.125C101.134 28.8499 101.149 25.1473 98.5577 23.8518L52.061 0.603392C51.0799 0.112862 49.9256 0.110615 48.9427 0.597325L1.99016 23.8457C-0.617118 25.1366 -0.602545 28.8603 2.01476 30.1308L13.5001 35.7062ZM93.3733 58.7044L89.818 64.1835C89.4957 64.6801 89.4957 65.3199 89.818 65.8165L93.3733 71.2956L97.1025 65.8472C97.452 65.3365 97.452 64.6635 97.1025 64.1528L93.3733 58.7044Z" fill="url(#paint0_linear)"/>
<defs>
<linearGradient id="paint0_linear" x1="90.3279" y1="72.6736" x2="53.6855" y2="-7.31329" gradientUnits="userSpaceOnUse">
<stop stop-color="#613C9E"/>
<stop offset="1" stop-color="#F96031"/>
</linearGradient>
</defs>
</svg>
