<svg class="svg-icon" viewBox="0 0 23 21" fill="none" xmlns="http://www.w3.org/2000/svg">
<path d="M22.6139 9.49008L19.1282 6.0722V2.12399C19.1282 1.4101 18.5382 0.831542 17.809 0.831542C17.0816 0.831542 16.4916 1.4101 16.4916 2.12399V3.48699L13.8961 0.942027C12.6129 -0.315503 10.3819 -0.313272 9.10159 0.944303L0.385881 9.49008C-0.128627 9.99557 -0.128627 10.8135 0.385881 11.3182C0.900621 11.8235 1.73641 11.8235 2.25096 11.3182L10.9658 2.77219C11.2497 2.49527 11.7501 2.49527 12.0325 2.77137L20.7489 11.3182C21.0074 11.5709 21.3443 11.6966 21.6812 11.6966C22.0188 11.6966 22.3563 11.5708 22.614 11.3182C23.1287 10.8135 23.1287 9.99561 22.6139 9.49008Z"/>
<path d="M11.9575 5.22557C11.7043 4.97742 11.2943 4.97742 11.0418 5.22557L3.37547 12.7404C3.25444 12.859 3.18582 13.021 3.18582 13.19V18.671C3.18582 19.9572 4.24937 21 5.56104 21H9.35666V15.2363H13.6419V21H17.4375C18.7491 21 19.8127 19.9572 19.8127 18.6711V13.19C19.8127 13.021 19.7447 12.859 19.623 12.7404L11.9575 5.22557Z"/>
</svg>
