<svg class="svg-icon" viewBox="0 0 18 18" fill="none" xmlns="http://www.w3.org/2000/svg">
<path d="M11.5 5.5C11.5 5.77614 11.7239 6 12 6C12.2761 6 12.5 5.77614 12.5 5.5H11.5ZM12.5 12.5C12.5 12.2239 12.2761 12 12 12C11.7239 12 11.5 12.2239 11.5 12.5H12.5ZM8.5 8.5C8.22386 8.5 8 8.72386 8 9C8 9.27614 8.22386 9.5 8.5 9.5V8.5ZM17 9L17.3536 9.35355C17.5488 9.15829 17.5488 8.84171 17.3536 8.64645L17 9ZM14.8536 6.14645C14.6583 5.95118 14.3417 5.95118 14.1464 6.14645C13.9512 6.34171 13.9512 6.65829 14.1464 6.85355L14.8536 6.14645ZM14.1464 11.1464C13.9512 11.3417 13.9512 11.6583 14.1464 11.8536C14.3417 12.0488 14.6583 12.0488 14.8536 11.8536L14.1464 11.1464ZM3 1.5H10V0.5H3V1.5ZM10 16.5H3V17.5H10V16.5ZM1.5 15V3H0.5V15H1.5ZM11.5 3V5.5H12.5V3H11.5ZM11.5 12.5V15H12.5V12.5H11.5ZM3 16.5C2.17157 16.5 1.5 15.8284 1.5 15H0.5C0.5 16.3807 1.61929 17.5 3 17.5V16.5ZM10 17.5C11.3807 17.5 12.5 16.3807 12.5 15H11.5C11.5 15.8284 10.8284 16.5 10 16.5V17.5ZM10 1.5C10.8284 1.5 11.5 2.17157 11.5 3H12.5C12.5 1.61929 11.3807 0.5 10 0.5V1.5ZM3 0.5C1.61929 0.5 0.5 1.61929 0.5 3H1.5C1.5 2.17157 2.17157 1.5 3 1.5V0.5ZM8.5 9.5H17V8.5H8.5V9.5ZM17.3536 8.64645L14.8536 6.14645L14.1464 6.85355L16.6464 9.35355L17.3536 8.64645ZM16.6464 8.64645L14.1464 11.1464L14.8536 11.8536L17.3536 9.35355L16.6464 8.64645Z"/>
</svg>
