<svg role="img" aria-labelledby="logoTitle logoDescription" aria-label="Академия Интернет Бизнеса" class="svg-icon" fill="none" xmlns="http://www.w3.org/2000/svg"><title id="logoTitle">Академия Интернет Бизнеса</title><desc id="logoDescription">Академия Интернет Бизнеса</desc><path fill-rule="evenodd" clip-rule="evenodd" d="M40.38 12.393l3.482 7.956C38.05 31.954 25.82 33.503 18.802 31.377l-3.51-7.956h14.953L40.38 12.393z" fill="#613C9E"/><path fill-rule="evenodd" clip-rule="evenodd" d="M0 21.767L20.006 0h29.512L29.512 21.767H9.27l15.79-10.398a.601.601 0 0 0 .184-.84.597.597 0 0 0-.838-.184L7.096 21.767H0zm7.123 9.4v-9.4h2.042v9.373H7.123v.026z" fill="#613C9E"/><path d="M65.937 17.067l-.969-2.678h-3.666l-.942 2.678h-1.65l3.587-9.689H64l3.587 9.689h-1.65zm-1.388-4.044l-.89-2.625c-.052-.184-.157-.447-.262-.84-.105-.368-.183-.657-.236-.84-.13.55-.288 1.128-.523 1.785l-.864 2.52h2.775zm8.668-3.256h1.702l-3.011 3.519 3.247 3.78h-1.78l-3.143-3.701v3.702h-1.545v-7.3h1.545v3.545l2.985-3.545zm7.699 7.3l-.314-1.024h-.053a3.29 3.29 0 0 1-1.047.919c-.367.157-.812.236-1.362.236-.707 0-1.283-.184-1.676-.578-.393-.393-.602-.945-.602-1.654 0-.761.288-1.313.838-1.707.55-.393 1.414-.577 2.54-.63l1.257-.052v-.394c0-.473-.105-.814-.314-1.05-.21-.237-.55-.342-1.022-.342-.366 0-.733.053-1.073.158-.34.105-.681.236-.995.394l-.498-1.103c.393-.21.838-.368 1.283-.473a6.152 6.152 0 0 1 1.336-.157c.916 0 1.623.21 2.095.604.471.394.707 1.05.707 1.916v4.937h-1.1zm-2.304-1.05c.55 0 1.02-.158 1.361-.473.34-.315.498-.762.498-1.313v-.63l-.943.052c-.733.027-1.257.158-1.597.368-.34.21-.498.551-.498.998 0 .315.105.577.288.761.21.131.498.237.89.237zm12.517 3.623h-1.44v-2.573h-4.976v2.573h-1.414v-3.781h.602c.524-.735.917-1.628 1.23-2.678.315-1.05.498-2.18.55-3.387h4.4v6.091h1.074v3.755h-.026zm-2.567-3.781v-4.91h-1.57a13.837 13.837 0 0 1-.525 2.678c-.261.867-.576 1.628-.968 2.232h3.063zm7.097 1.339c-1.126 0-2.017-.341-2.645-.998-.629-.656-.943-1.575-.943-2.73 0-1.182.288-2.127.89-2.81.603-.683 1.415-1.024 2.436-1.024.969 0 1.728.289 2.278.867.55.577.838 1.391.838 2.415v.84H93.67c.026.71.21 1.26.576 1.628.366.368.864.578 1.518.578.42 0 .838-.053 1.205-.131a7.09 7.09 0 0 0 1.205-.394v1.26c-.367.184-.76.315-1.153.394-.418.052-.864.105-1.361.105zm-.288-6.38c-.498 0-.89.157-1.179.472-.288.315-.471.762-.523 1.366h3.3c0-.604-.158-1.05-.446-1.366-.262-.315-.655-.472-1.152-.472zm9.034 4.752l.079-.315c.183-.656.314-1.155.471-1.497l1.623-3.99h2.069v7.299h-1.414v-5.882l-.131.394c-.209.709-.366 1.234-.497 1.55l-1.598 3.938h-1.178l-1.597-3.965c-.236-.578-.419-1.208-.603-1.943v5.908h-1.414v-7.3h2.043l1.571 3.86c.183.368.367.998.576 1.943zm7.934-5.803v3.729c0 .42-.026 1.076-.104 1.917l3.64-5.646h1.885v7.3h-1.493V13.39c0-.21.027-.525.027-.972.026-.446.052-.787.052-.997l-3.588 5.645h-1.885v-7.3h1.466zm8.38 7.3h-1.728l2.016-2.994c-.497-.13-.89-.393-1.152-.761-.288-.368-.419-.814-.419-1.34 0-.682.236-1.233.733-1.627.498-.394 1.152-.578 2.017-.578h3.299v7.3h-1.545v-2.81h-1.466l-1.755 2.81zm.21-5.094c0 .367.131.656.419.84.288.184.654.289 1.126.289h1.44v-2.153h-1.676c-.419 0-.733.079-.969.262a.994.994 0 0 0-.34.762zm-62.14 10.161h1.44v5.015c0 .525-.026 1.05-.053 1.576-.026.525-.052.892-.052 1.076h.052l4.923-7.667h1.833v9.636h-1.466v-4.988c0-.762.052-1.68.13-2.757h-.052l-4.923 7.745h-1.833v-9.636zm12.045 2.337v2.94h3.43v-2.94h1.546v7.3h-1.546V28.62h-3.43v3.15H69.29v-7.299h1.545zm12.622 0v1.208h-2.357v6.091h-1.545V25.68h-2.357V24.47h6.259zm4.452 7.43c-1.126 0-2.017-.34-2.645-.997-.629-.657-.943-1.576-.943-2.73 0-1.182.288-2.127.89-2.81.603-.683 1.415-1.024 2.436-1.024.969 0 1.728.289 2.278.866.55.578.838 1.392.838 2.416v.84h-4.87c.026.709.209 1.26.575 1.628.367.368.865.578 1.52.578.418 0 .837-.053 1.204-.132.366-.078.76-.21 1.204-.394v1.26c-.366.185-.76.316-1.152.395a9.86 9.86 0 0 1-1.335.105zm-.288-6.38c-.498 0-.89.158-1.179.473-.288.315-.471.761-.523 1.365h3.299c0-.604-.157-1.05-.445-1.365-.288-.315-.655-.473-1.152-.473zm8.563 6.38c-.917 0-1.624-.34-2.148-.997h-.105c.053.604.105.998.105 1.129v2.993H92.49V24.471h1.257c.026.131.105.473.21.972h.078c.472-.736 1.205-1.103 2.174-1.103.916 0 1.623.341 2.12.997.498.657.76 1.576.76 2.784 0 1.181-.262 2.127-.76 2.783-.55.656-1.256.998-2.146.998zm-.393-6.3c-.603 0-1.074.183-1.336.55-.288.368-.419.946-.419 1.733v.237c0 .893.131 1.523.42 1.917.287.393.732.603 1.36.603.525 0 .944-.21 1.232-.656.288-.446.445-1.077.445-1.89 0-.814-.131-1.445-.42-1.865-.287-.42-.706-.63-1.282-.63zm6.625-1.13v2.94h3.43v-2.94h1.545v7.3h-1.545V28.62h-3.43v3.15h-1.545v-7.299h1.545zm10.343 7.43c-1.126 0-2.016-.34-2.644-.997-.629-.657-.943-1.576-.943-2.73 0-1.182.288-2.127.89-2.81.603-.683 1.414-1.024 2.436-1.024.968 0 1.728.289 2.278.866.55.578.838 1.392.838 2.416v.84h-4.845c.026.709.21 1.26.576 1.628.367.368.865.578 1.519.578.419 0 .838-.053 1.205-.132.366-.078.759-.21 1.204-.394v1.26a4.591 4.591 0 0 1-1.152.395c-.419.052-.864.105-1.362.105zm-.288-6.38c-.497 0-.89.158-1.178.473-.288.315-.471.761-.524 1.365h3.3c0-.604-.157-1.05-.445-1.365-.262-.315-.655-.473-1.153-.473zm10.344-1.05v1.208h-2.357v6.091h-1.571V25.68h-2.357V24.47h6.285zm11.548 4.385c0 1.943-1.231 2.914-3.718 2.914h-2.802v-9.636h5.866v1.34h-4.295v2.573h1.152c2.54 0 3.797.945 3.797 2.809zm-4.923 1.575h1.126c.76 0 1.309-.131 1.65-.367.34-.237.524-.657.524-1.208 0-.525-.184-.92-.524-1.155-.341-.237-.969-.342-1.833-.342h-.943v3.072zm8.17-5.96V28.2c0 .446-.026 1.076-.104 1.916l3.639-5.645h1.886v7.3h-1.493v-3.677c0-.21.026-.525.026-.971.027-.446.053-.788.053-.998l-3.614 5.645h-1.885v-7.299h1.492zm9.218 2.915c.707 0 1.231-.08 1.545-.237.34-.157.497-.394.497-.735 0-.604-.523-.893-1.571-.893-.707 0-1.414.158-2.147.473l-.498-1.155a7.399 7.399 0 0 1 2.802-.525c.917 0 1.598.157 2.095.498.498.342.76.814.76 1.418 0 .814-.472 1.366-1.388 1.602v.052c.576.158.995.394 1.257.683.262.289.366.657.366 1.103 0 .656-.288 1.208-.864 1.601-.576.394-1.388.604-2.435.604-1.152 0-2.016-.157-2.619-.446V30.09c.812.368 1.624.578 2.488.578.628 0 1.1-.08 1.44-.263.341-.184.498-.446.498-.788 0-.367-.157-.63-.498-.814-.34-.183-.864-.262-1.571-.262h-.89v-1.155h.733zm6.939-2.915v2.94h3.431v-2.94h1.545v7.3h-1.545V28.62h-3.431v3.15h-1.545v-7.299h1.545zm10.344 7.43c-1.126 0-2.016-.34-2.645-.997-.628-.657-.943-1.576-.943-2.73 0-1.182.288-2.127.891-2.81.602-.683 1.414-1.024 2.435-1.024.969 0 1.728.289 2.278.866.55.578.838 1.392.838 2.416v.84h-4.87c.026.709.209 1.26.576 1.628.366.368.864.578 1.518.578.419 0 .838-.053 1.205-.132.367-.078.759-.21 1.205-.394v1.26c-.367.185-.76.316-1.153.395a9.849 9.849 0 0 1-1.335.105zm-.288-6.38c-.498 0-.891.158-1.179.473-.288.315-.471.761-.523 1.365h3.299c0-.604-.157-1.05-.445-1.365-.262-.315-.655-.473-1.152-.473zm7.803 6.38c-1.099 0-1.937-.314-2.514-.97-.576-.657-.864-1.576-.864-2.784 0-1.234.288-2.18.891-2.836.602-.656 1.466-.997 2.592-.997.759 0 1.467.13 2.069.42l-.472 1.26c-.654-.263-1.178-.394-1.623-.394-1.257 0-1.886.84-1.886 2.52 0 .815.158 1.419.472 1.839.314.42.759.604 1.388.604.681 0 1.335-.184 1.964-.525v1.365c-.288.157-.576.289-.891.341-.314.105-.68.158-1.126.158zm8.275-.13l-.314-1.025h-.052a3.29 3.29 0 0 1-1.048.92c-.366.157-.812.236-1.362.236-.707 0-1.283-.184-1.675-.578-.393-.394-.603-.945-.603-1.654 0-.762.288-1.313.838-1.707.55-.394 1.414-.604 2.54-.63l1.257-.052v-.394c0-.473-.104-.814-.314-1.05-.209-.237-.55-.342-1.021-.342-.367 0-.733.053-1.074.158-.34.105-.681.236-.995.394l-.498-1.103c.393-.21.838-.368 1.284-.473a6.14 6.14 0 0 1 1.335-.157c.917 0 1.624.21 2.095.603.471.394.707 1.05.707 1.917v4.936h-1.1zm-2.304-1.05c.55 0 1.021-.158 1.362-.474.34-.315.497-.76.497-1.312v-.63l-.943.052c-.733.026-1.257.158-1.597.368-.34.21-.498.551-.498.997 0 .316.105.578.288.762.236.131.524.236.891.236z" fill="#444545"/></svg>