<svg class="svg-icon" viewBox="0 0 46 49" fill="none" xmlns="http://www.w3.org/2000/svg">
<path d="M40.3894 36.5208C39.5394 34.0818 37.5171 32.2912 35.0925 31.6938L31.4387 19.1135C30.6313 16.3327 28.202 14.3246 25.3793 14.003V10.5318L37.8595 6.05524L23.7931 0V14.003C23.3141 14.0578 22.8455 14.1582 22.3947 14.3064C21.0354 13.271 19.2266 12.8996 17.5877 13.3488C16.4348 10.8216 13.9215 9.17367 11.1034 9.17367C7.16736 9.17367 3.96552 12.3893 3.96552 16.3424C3.96552 16.6306 3.98527 16.9172 4.01935 17.2027C1.74653 17.5609 0 19.5355 0 21.9181C0 24.5539 2.13418 26.6973 4.75862 26.6973H15.5314L15.069 28.2903C11.9171 28.2903 9.09939 30.4131 8.21722 33.451L4.16379 47.4069H2.37931V49H46V47.4069H44.1838L40.3894 36.5208ZM25.3793 2.4168L33.5199 5.91989L25.3793 8.83997V2.4168ZM26.6491 40.1425C27.1026 40.6372 27.7118 41.0347 28.5471 41.0347C30.2258 41.0347 31.0081 39.4654 31.6355 38.2045C32.238 36.9922 32.6528 36.2556 33.3049 36.2556C33.9575 36.2556 34.3722 36.9922 34.9759 38.2045C35.6048 39.4654 36.3859 41.0347 38.0666 41.0347C38.9051 41.0347 39.515 40.6357 39.97 40.1394L42.5023 47.4069H24.1184L26.6491 40.1425ZM38.8923 37.0463L39.3245 38.2873C38.859 39.1189 38.5027 39.4417 38.0666 39.4417C37.4137 39.4417 36.999 38.7047 36.3956 37.4924C35.7675 36.2315 34.9852 34.6625 33.3049 34.6625C31.625 34.6625 30.8431 36.2315 30.2158 37.4924C29.6128 38.7047 29.1988 39.4417 28.5471 39.4417C28.1122 39.4417 27.7578 39.1204 27.2939 38.2916L27.7276 37.0463C28.5571 34.668 30.8009 33.0695 33.3103 33.0695C35.8198 33.0695 38.0635 34.668 38.8923 37.0463ZM33.3103 31.4764C30.1275 31.4764 27.2827 33.5035 26.2305 36.5208L24.3666 41.8702L21.9215 33.451C21.1919 30.9385 19.1375 29.0565 16.6664 28.4782L17.9099 24.1968C18.3715 24.7075 18.9838 25.1042 19.8229 25.1042C21.5017 25.1042 22.284 23.5349 22.9113 22.274C23.5139 21.0617 23.9286 20.325 24.5808 20.325C25.2333 20.325 25.6481 21.0617 26.2518 22.274C26.8807 23.5349 27.6618 25.1042 29.3425 25.1042C30.184 25.1042 30.7978 24.7044 31.261 24.1929L33.377 31.4795C33.3549 31.4787 33.3324 31.4764 33.3103 31.4764ZM29.916 19.5604L30.6836 22.2032C30.1697 23.1576 29.8033 23.5111 29.3425 23.5111C28.6896 23.5111 28.2748 22.7741 27.6715 21.5618C27.0434 20.3009 26.2611 18.732 24.5808 18.732C22.9009 18.732 22.119 20.3009 21.4916 21.5618C20.8887 22.7741 20.4747 23.5111 19.8229 23.5111C19.3637 23.5111 18.9989 23.1592 18.4873 22.2086L19.2564 19.5604C19.9434 17.1961 22.1349 15.5459 24.5862 15.5459C27.0375 15.5459 29.229 17.1961 29.916 19.5604ZM4.75862 25.1042C3.00899 25.1042 1.58621 23.6753 1.58621 21.9181C1.58621 20.1609 3.00899 18.732 4.75862 18.732C6.50825 18.732 7.93103 20.1609 7.93103 21.9181H9.51724C9.51724 19.5818 7.83809 17.6352 5.62879 17.2226C5.5827 16.9324 5.55172 16.6388 5.55172 16.3424C5.55172 13.2687 8.04295 10.7667 11.1034 10.7667C13.5056 10.7667 15.6251 12.3088 16.3752 14.6027L16.6482 15.435L17.4475 15.0838C18.4873 14.6265 19.6824 14.6642 20.6954 15.1262C19.2986 16.0422 18.2209 17.4376 17.7345 19.1135L15.9937 25.1042H4.75862ZM15.069 29.8834C17.5203 29.8834 19.7118 31.5336 20.3988 33.8979L20.8577 35.4789C20.417 36.1513 20.1014 36.2556 19.8253 36.2556C19.1723 36.2556 18.7576 35.5186 18.1542 34.3063C17.5261 33.0454 16.7439 31.4764 15.0635 31.4764C13.3836 31.4764 12.6017 33.0454 11.9744 34.3063C11.3714 35.5186 10.9575 36.2556 10.3057 36.2556C10.0311 36.2556 9.71707 36.1502 9.27869 35.4836L9.73914 33.8979C10.4261 31.5336 12.6176 29.8834 15.069 29.8834ZM8.75667 37.2816C9.166 37.6168 9.66711 37.8486 10.3057 37.8486C11.9845 37.8486 12.7667 36.2793 13.3941 35.0184C13.9966 33.8061 14.4114 33.0695 15.0635 33.0695C15.7161 33.0695 16.1308 33.8061 16.7346 35.0184C17.3635 36.2793 18.1446 37.8486 19.8253 37.8486C20.4747 37.8486 20.9808 37.5962 21.3789 37.2726L23.4655 44.4565L22.4369 47.4069H5.81583L8.75667 37.2816Z"/>
</svg>
