<svg width="91" height="83" viewBox="0 0 91 83" fill="none" xmlns="http://www.w3.org/2000/svg">
<path d="M90.5774 78.6498L71.45 47.5331C70.9269 46.6823 70.0189 46.1744 69.0209 46.1744C68.0231 46.1744 67.1151 46.6825 66.5923 47.5331L64.109 51.573C63.7226 52.2015 63.9185 53.0247 64.5464 53.4114C65.1747 53.798 65.9967 53.6021 66.3833 52.9736L68.8666 48.9335C68.8798 48.9121 68.9198 48.847 69.0212 48.847C69.1227 48.847 69.1629 48.9121 69.1761 48.9335L88.3035 80.0502C88.3188 80.075 88.3593 80.141 88.3074 80.234C88.2555 80.327 88.178 80.327 88.1489 80.327H77.5559L47.9288 32.1306C47.6627 31.6976 47.2966 31.3541 46.8699 31.1205C46.8704 31.1207 46.8709 31.121 46.8713 31.1212V22.0518C47.9823 22.3534 49.0645 22.4822 50.1233 22.4822C53.1682 22.4822 56.0196 21.4228 58.8092 20.3863C62.6745 18.9501 66.3256 17.5937 70.2745 19.1787C70.7837 19.3832 71.3592 19.3216 71.8136 19.0138C72.2688 18.7057 72.5404 18.1935 72.5404 17.6438V2.54772C72.5404 1.88238 72.146 1.28445 71.5362 1.02472C66.5236 -1.11489 62.1292 0.517523 57.8798 2.09621C53.8989 3.57528 50.1389 4.97233 46.0448 3.14084C45.6316 2.956 45.1533 2.99336 44.7737 3.23958C44.394 3.48597 44.1649 3.90795 44.1649 4.36088V4.41052C44.142 4.50996 44.1288 4.61297 44.1288 4.71935V31.1212C43.7028 31.3548 43.337 31.6981 43.0711 32.1306L29.0054 55.0127L24.4078 47.5332C23.8849 46.6825 22.9768 46.1746 21.9789 46.1746C20.9811 46.1746 20.073 46.6825 19.5501 47.5332L0.422504 78.6498C-0.118342 79.5295 -0.141447 80.6362 0.361897 81.538C0.865241 82.4398 1.81914 83 2.85125 83H88.1487C89.1808 83 90.1347 82.4398 90.638 81.538C91.1415 80.6362 91.1183 79.5293 90.5774 78.6498ZM46.8352 6.25819C51.1572 7.44479 55.0391 6.00255 58.8092 4.60176C62.5389 3.21592 66.0726 1.90337 69.8703 3.24225V16.2263C65.5353 15.0365 61.6495 16.4804 57.88 17.8808C54.1564 19.2641 50.6261 20.5758 46.8352 19.241V6.25819ZM16.5795 80.3272L21.1599 72.8759C21.5462 72.2473 21.3504 71.4242 20.7224 71.0374C20.0943 70.6509 19.2721 70.8467 18.8857 71.4753L13.4444 80.3272H2.85142C2.82227 80.3272 2.74478 80.3272 2.69288 80.2342C2.64099 80.1411 2.68133 80.0753 2.69679 80.0504L21.8244 48.9338C21.8376 48.9125 21.8775 48.8474 21.979 48.8474C22.0805 48.8474 22.1205 48.9125 22.1337 48.9338L27.438 57.5627L22.1417 66.1786C21.7553 66.8071 21.9511 67.6303 22.5791 68.017C23.2074 68.4038 24.0296 68.2078 24.4158 67.5792L45.3454 33.531C45.3586 33.5097 45.3986 33.4446 45.5 33.4446C45.6014 33.4446 45.6413 33.5097 45.6547 33.531L74.4206 80.3272H16.5795Z" fill="url(#paint0_linear)"/>
<defs>
<linearGradient id="paint0_linear" x1="81.7917" y1="80.7446" x2="35.6512" y2="-1.11603" gradientUnits="userSpaceOnUse">
<stop stop-color="#613C9E"/>
<stop offset="1" stop-color="#F96031"/>
</linearGradient>
</defs>
</svg>
