<svg width="1190" height="1140" viewBox="0 0 1190 1140" fill="none" xmlns="http://www.w3.org/2000/svg">
<mask id="mask0" mask-type="alpha" maskUnits="userSpaceOnUse" x="0" y="0" width="1024" height="1140">
<path d="M805.641 1138.27C649.141 1152.27 607.641 1024 249.001 1051.5C-53.6821 1074.71 -23.495 563.144 50.5004 359.5C169.5 32 404.5 -5.8926 527.5 1.49998C717.814 12.9383 890.394 265.509 884.001 359.5C856.501 763.767 999.641 660.267 1021.14 829.767C1051.89 1072.19 823.265 1136.69 805.641 1138.27Z" fill="url(#paint0_linear)"/>
</mask>
<g mask="url(#mask0)">
<path d="M805.641 1138.27C649.141 1152.27 607.641 1024 249.001 1051.5C-53.6821 1074.71 -23.495 563.144 50.5004 359.5C169.5 32 404.5 -5.8926 527.5 1.49998C717.814 12.9383 890.394 265.509 884.001 359.5C856.501 763.767 999.641 660.267 1021.14 829.767C1051.89 1072.19 823.265 1136.69 805.641 1138.27Z" fill="url(#paint1_linear)"/>
<path d="M1328.85 698.863C1154.38 821.3 1031.11 724.385 628.623 1000.47C288.939 1233.48 25.6484 711.011 -6.83386 459.973C-59.0719 56.252 193.059 -144.138 340.913 -222.332C569.682 -343.32 918.466 -215.6 965.852 -119.017C1169.67 296.401 1276.31 95.5046 1400.31 246.736C1577.66 463.032 1348.49 685.076 1328.85 698.863Z" fill="url(#paint2_linear)" fill-opacity="0.4"/>
</g>
<path d="M851.812 167.879C791.208 193.79 697.632 202.402 638.095 203.972C526.557 206.915 498.426 318.836 511.763 406.571C525.108 494.305 600.333 504.702 622.777 669.555C630.969 729.721 689.366 845.188 854.399 854.901C1102.3 846.336 1161.02 674.771 1159.4 590.059C1147.14 503.955 1114.47 440.313 1106.47 316.857C1097.58 179.839 965.858 119.12 851.812 167.879Z" fill="url(#paint3_linear)"/>
<path fill-rule="evenodd" clip-rule="evenodd" d="M638.095 203.972C697.632 202.402 791.208 193.79 851.812 167.879C965.857 119.12 1097.58 179.839 1106.47 316.857C1109.72 366.962 1117.03 407.215 1125.39 443.115C1121.57 515.911 1096.39 682.572 948.491 710.912C809.796 737.488 736.482 788.948 716.242 811.653C654.179 770.051 628.056 708.323 622.777 669.555C609.723 573.67 578.812 530.039 552.608 493.05C533.76 466.444 517.346 443.276 511.763 406.571C498.426 318.836 526.557 206.915 638.095 203.972Z" fill="url(#paint4_linear)" fill-opacity="0.4"/>
<defs>
<linearGradient id="paint0_linear" x1="49" y1="920.5" x2="1025.84" y2="1016.82" gradientUnits="userSpaceOnUse">
<stop stop-color="#533698"/>
<stop offset="1" stop-color="#7447A9"/>
</linearGradient>
<linearGradient id="paint1_linear" x1="49" y1="920.5" x2="1025.84" y2="1016.82" gradientUnits="userSpaceOnUse">
<stop stop-color="#533698"/>
<stop offset="1" stop-color="#7447A9"/>
</linearGradient>
<linearGradient id="paint2_linear" x1="675.411" y1="80.9715" x2="945.44" y2="1020.51" gradientUnits="userSpaceOnUse">
<stop stop-color="#151071"/>
<stop stop-color="#151071"/>
<stop offset="1" stop-color="#151071" stop-opacity="0"/>
</linearGradient>
<linearGradient id="paint3_linear" x1="777.373" y1="828.658" x2="1037.35" y2="168.853" gradientUnits="userSpaceOnUse">
<stop stop-color="#533698"/>
<stop offset="1" stop-color="#7447A9"/>
</linearGradient>
<linearGradient id="paint4_linear" x1="703.074" y1="796.797" x2="887.203" y2="414.923" gradientUnits="userSpaceOnUse">
<stop stop-color="#151071"/>
<stop offset="0.0001" stop-color="#151071"/>
<stop offset="1" stop-color="#151071" stop-opacity="0"/>
</linearGradient>
</defs>
</svg>
