<svg width="14" height="14" viewBox="0 0 14 14" fill="none" xmlns="http://www.w3.org/2000/svg">
<path opacity="0.4" d="M2 5.41043C1.17157 5.41043 0.5 6.082 0.5 6.91043C0.5 7.73885 1.17157 8.41043 2 8.41043V5.41043ZM11.8209 8.41043C12.6493 8.41043 13.3209 7.73885 13.3209 6.91043C13.3209 6.082 12.6493 5.41043 11.8209 5.41043V8.41043ZM8.41043 2C8.41043 1.17157 7.73885 0.5 6.91043 0.5C6.082 0.5 5.41043 1.17157 5.41043 2H8.41043ZM5.41043 11.8209C5.41043 12.6493 6.082 13.3209 6.91043 13.3209C7.73885 13.3209 8.41043 12.6493 8.41043 11.8209H5.41043ZM2 8.41043H11.8209V5.41043H2V8.41043ZM5.41043 2V11.8209H8.41043V2H5.41043Z" fill="#151071"/>
</svg>
