<svg width="19" height="24" viewBox="0 0 19 24" fill="none" xmlns="http://www.w3.org/2000/svg">
<path d="M18.3125 7.40625C18.3125 9.79167 17.5312 11.6198 15.9688 12.8906C14.4062 14.1615 12.1823 14.7969 9.29688 14.7969H6.92188V23.3438H3.1875V0.5H9.76562C12.6198 0.5 14.7552 1.08333 16.1719 2.25C17.599 3.41667 18.3125 5.13542 18.3125 7.40625ZM6.92188 11.6562H8.90625C10.8229 11.6562 12.2292 11.3229 13.125 10.6562C14.0208 9.98958 14.4688 8.94792 14.4688 7.53125C14.4688 6.21875 14.0677 5.23958 13.2656 4.59375C12.4635 3.94792 11.2135 3.625 9.51562 3.625H6.92188V11.6562Z" fill="#333333"/>
<path d="M0 11.6602H7V14.7986H0V11.6602Z" fill="#333333"/>
<path d="M0 16.3438H13V19.3438H0V16.3438Z" fill="#333333"/>
</svg>
