<svg width="101" height="82" viewBox="0 0 101 82" fill="none" xmlns="http://www.w3.org/2000/svg">
<path d="M96.3579 79.0419H94.6749V35.1628C98.4754 32.718 101 28.455 101 23.6108C101 23.3534 100.933 23.1004 100.805 22.877L89.0652 2.33828C88.2407 0.896108 86.6963 0 85.0347 0H15.9653C14.3037 0 12.7593 0.895911 11.9348 2.33828L0.194898 22.877C0.0672676 23.1004 0 23.3536 0 23.6108C0 28.455 2.52461 32.718 6.32512 35.1628V79.0419H4.64205C3.82498 79.0419 3.16256 79.7041 3.16256 80.521C3.16256 81.3378 3.82498 82 4.64205 82H96.3579C97.1752 82 97.8374 81.3378 97.8374 80.521C97.8374 79.7041 97.175 79.0419 96.3579 79.0419ZM3.06097 25.0898H7.80403C8.6211 25.0898 9.28352 24.4276 9.28352 23.6108C9.28352 22.794 8.6211 22.1317 7.80403 22.1317H4.02895L14.504 3.80589C14.803 3.2829 15.3628 2.9581 15.9653 2.9581H85.0347C85.6371 2.9581 86.1972 3.2829 86.496 3.80589L96.9709 22.1317H93.195C92.3777 22.1317 91.7155 22.794 91.7155 23.6108C91.7155 24.4276 92.3777 25.0898 93.195 25.0898H97.9388C97.2155 30.3324 92.705 34.3832 87.2652 34.3832C81.8256 34.3832 77.3173 30.332 76.5937 25.0898H86.8705C87.6877 25.0898 88.3499 24.4276 88.3499 23.6108C88.3499 22.794 87.6877 22.1317 86.8705 22.1317H14.1303C13.3133 22.1317 12.6508 22.794 12.6508 23.6108C12.6508 24.4276 13.3133 25.0898 14.1303 25.0898H24.4061C23.6825 30.332 19.174 34.3832 13.7346 34.3832C8.29482 34.3832 3.78434 30.3324 3.06097 25.0898ZM73.4266 25.0898C72.703 30.332 68.1945 34.3832 62.7551 34.3832C57.3155 34.3832 52.8072 30.332 52.0837 25.0898H73.4266ZM48.9164 25.0898C48.1928 30.332 43.6843 34.3832 38.2449 34.3832C32.8055 34.3832 28.297 30.332 27.5734 25.0898H48.9164ZM83.8091 79.0421H67.7925V74.0959H83.8091V79.0421ZM83.8091 71.1378H67.7925V44.06H83.8091V71.1378ZM91.7159 79.0421H86.7683V42.5809C86.7683 41.7641 86.1061 41.1019 85.2888 41.1019H66.3132C65.4959 41.1019 64.8337 41.7641 64.8337 42.5809V79.0419H9.28411V36.5973C10.6809 37.0771 12.177 37.3413 13.7346 37.3413C19.0795 37.3413 23.721 34.2736 25.9897 29.8066C28.2585 34.2734 32.9 37.3413 38.2449 37.3413C43.5898 37.3413 48.2312 34.2736 50.5 29.8066C52.7688 34.2734 57.4102 37.3413 62.7551 37.3413C68.1 37.3413 72.7415 34.2736 75.0103 29.8066C77.279 34.2734 81.9205 37.3413 87.2654 37.3413C88.823 37.3413 90.3191 37.0771 91.7159 36.5975V79.0421Z" fill="url(#paint0_linear)"/>
<path d="M58.4066 41.1019H15.7112C14.8941 41.1019 14.2317 41.7641 14.2317 42.5809V72.6169C14.2317 73.4337 14.8941 74.0959 15.7112 74.0959H58.4066C59.2239 74.0959 59.8861 73.4337 59.8861 72.6169V42.5809C59.8861 41.7639 59.2239 41.1019 58.4066 41.1019ZM56.9271 71.1378H17.1907V44.06H56.9271V71.1378Z" fill="url(#paint1_linear)"/>
<defs>
<linearGradient id="paint0_linear" x1="90.7798" y1="79.7717" x2="48.0647" y2="-5.36513" gradientUnits="userSpaceOnUse">
<stop stop-color="#613C9E"/>
<stop offset="1" stop-color="#F96031"/>
</linearGradient>
<linearGradient id="paint1_linear" x1="90.7798" y1="79.7717" x2="48.0647" y2="-5.36513" gradientUnits="userSpaceOnUse">
<stop stop-color="#613C9E"/>
<stop offset="1" stop-color="#F96031"/>
</linearGradient>
</defs>
</svg>
