<svg class="svg-icon" viewBox="0 0 19 19" fill="none" xmlns="http://www.w3.org/2000/svg">
<path d="M19 2.44276L16.1501 2.84981L16.5573 0L14.3895 2.16767C12.914 1.16319 11.1317 0.575752 9.21211 0.575752C4.12437 0.575752 0 4.70012 0 9.78789C0 14.8757 4.12437 19 9.21211 19C14.2998 19 18.4242 14.8756 18.4242 9.78789C18.4242 7.86826 17.8368 6.08594 16.8323 4.61039L19 2.44276ZM9.21211 16.697C5.39633 16.697 2.30301 13.6036 2.30301 9.78786C2.30301 5.97209 5.39633 2.8788 9.21211 2.8788C10.8087 2.8788 12.2786 3.42063 13.4485 4.33007L11.8006 5.97795C11.0629 5.47571 10.1719 5.18184 9.21207 5.18184C6.66818 5.18184 4.60602 7.24405 4.60602 9.78789C4.60602 12.3317 6.66822 14.3939 9.21207 14.3939C11.7559 14.3939 13.8181 12.3317 13.8181 9.78789C13.8181 8.8281 13.5243 7.93706 13.022 7.19933L14.6699 5.55145C15.5794 6.7214 16.1211 8.1913 16.1211 9.78786C16.1212 13.6037 13.0278 16.697 9.21211 16.697ZM8.82194 10.178C9.15915 10.5153 9.70603 10.5153 10.0434 10.178L11.3329 8.88851C11.4501 9.16487 11.5152 9.46883 11.5152 9.78789C11.5152 11.0599 10.484 12.0909 9.21211 12.0909C7.94018 12.0909 6.90906 11.0599 6.90906 9.78789C6.90906 8.51593 7.94018 7.48485 9.21211 7.48485C9.53121 7.48485 9.83513 7.54979 10.1115 7.66713L8.82194 8.95665C8.48472 9.29389 8.48472 9.84074 8.82194 10.178Z"/>
</svg>
