<svg width="109" height="82" viewBox="0 0 109 82" fill="none" xmlns="http://www.w3.org/2000/svg">
<path fill-rule="evenodd" clip-rule="evenodd" d="M71.0337 6.97C71.0337 3.12058 74.1409 0 77.9738 0H102.06C105.893 0 109 3.12058 109 6.97V27.675C109 31.5244 105.893 34.645 102.06 34.645H77.9738C74.2779 34.645 71.2568 31.7436 71.0455 28.085H63.4463C61.9914 28.085 61.2629 26.3185 62.2916 25.2853L71.0337 16.5055V6.97ZM77.9738 2.46C75.4937 2.46 73.4831 4.4792 73.4831 6.97V16.8452C73.4831 17.2801 73.3111 17.6973 73.0049 18.0048L65.4174 25.625H71.8502C72.752 25.625 73.4831 26.3593 73.4831 27.265V27.675C73.4831 30.1658 75.4937 32.185 77.9738 32.185H102.06C104.54 32.185 106.551 30.1658 106.551 27.675V6.97C106.551 4.4792 104.54 2.46 102.06 2.46H77.9738ZM15.5131 7.995C12.8075 7.995 10.6142 10.1978 10.6142 12.915V69.905H15.5131C16.1895 69.905 16.7378 70.4557 16.7378 71.135C16.7378 71.8143 16.1895 72.365 15.5131 72.365H3.67416C2.99776 72.365 2.44944 72.9157 2.44944 73.595V76.26C2.44944 77.4605 2.90785 78.206 3.6037 78.698C4.35902 79.232 5.50791 79.54 6.94007 79.54H99.2022C100.634 79.54 101.783 79.232 102.539 78.698C103.234 78.206 103.693 77.4605 103.693 76.26V73.595C103.693 72.9157 103.145 72.365 102.468 72.365H60.9298C60.9298 73.0443 60.3815 73.595 59.7051 73.595H46.2331C45.5568 73.595 45.0084 73.0443 45.0084 72.365H23.0655C22.3891 72.365 21.8408 71.8143 21.8408 71.135C21.8408 70.4557 22.3891 69.905 23.0655 69.905H99.2022V38.95C99.2022 38.2707 99.7506 37.72 100.427 37.72C101.103 37.72 101.652 38.2707 101.652 38.95V69.905H102.468C104.497 69.905 106.142 71.5571 106.142 73.595V76.26C106.142 78.2296 105.321 79.7391 103.949 80.7096C102.635 81.638 100.927 82 99.2022 82H6.94007C5.21573 82 3.50694 81.638 2.19371 80.7096C0.821015 79.7391 0 78.2296 0 76.26V73.595C0 71.5571 1.64498 69.905 3.67416 69.905H8.16479V12.915C8.16479 8.83914 11.4547 5.535 15.5131 5.535H63.8895C64.5659 5.535 65.1142 6.08569 65.1142 6.765C65.1142 7.44431 64.5659 7.995 63.8895 7.995H15.5131ZM78.7903 9.43C78.7903 8.75069 79.3386 8.2 80.015 8.2H83.6891C84.3655 8.2 84.9139 8.75069 84.9139 9.43C84.9139 10.1093 84.3655 10.66 83.6891 10.66H80.015C79.3386 10.66 78.7903 10.1093 78.7903 9.43ZM87.8736 9.43C87.8736 8.75069 88.4219 8.2 89.0983 8.2H100.427C101.103 8.2 101.652 8.75069 101.652 9.43C101.652 10.1093 101.103 10.66 100.427 10.66H89.0983C88.4219 10.66 87.8736 10.1093 87.8736 9.43ZM21.6367 14.145C18.9311 14.145 16.7378 16.3478 16.7378 19.065V63.755H21.8408V56.6825C21.8408 54.6045 22.9646 53.234 24.3814 52.2968C25.6387 51.4652 27.2562 50.8879 28.715 50.3672C28.8177 50.3306 28.9195 50.2942 29.0204 50.2581C30.6434 49.6767 32.0597 49.1376 33.0845 48.3828C34.0366 47.6814 34.5735 46.8548 34.5735 45.6125V44.2059C31.8937 41.917 30.2097 38.1858 30.2097 34.1325C30.2097 27.5 34.7185 21.73 40.7219 21.73C46.7253 21.73 51.2341 27.5 51.2341 34.1325C51.2341 38.1341 49.5928 41.8217 46.9723 44.1176V45.6125C46.9723 46.8548 47.5093 47.6814 48.4614 48.3828C49.4862 49.1376 50.9025 49.6767 52.5254 50.2581C52.6263 50.2942 52.7282 50.3306 52.8309 50.3672C54.2896 50.8879 55.9072 51.4652 57.1645 52.2968C58.5813 53.234 59.7051 54.6045 59.7051 56.6825V63.755H93.0787V38.95C93.0787 38.2707 93.627 37.72 94.3034 37.72C94.9798 37.72 95.5281 38.2707 95.5281 38.95V64.985C95.5281 65.6643 94.9798 66.215 94.3034 66.215H15.5131C14.8367 66.215 14.2884 65.6643 14.2884 64.985V19.065C14.2884 14.9891 17.5783 11.685 21.6367 11.685H63.9916C64.668 11.685 65.2163 12.2357 65.2163 12.915C65.2163 13.5943 64.668 14.145 63.9916 14.145H21.6367ZM57.2556 63.755V56.6825C57.2556 55.6856 56.7878 54.9933 55.8172 54.3513C54.8173 53.6899 53.4645 53.2057 51.8995 52.6456C51.8342 52.6223 51.7686 52.5988 51.7025 52.5751C50.4677 52.1328 49.1035 51.6358 47.9126 50.9503L41.6478 56.6701C41.3995 56.8968 41.0837 57.002 40.7729 56.9889C40.4622 57.002 40.1464 56.8968 39.8981 56.6701L33.6332 50.9503C32.4424 51.6358 31.0782 52.1328 29.8434 52.5751C29.7773 52.5988 29.7116 52.6223 29.6463 52.6456C28.0814 53.2057 26.7286 53.6899 25.7287 54.3513C24.7581 54.9933 24.2903 55.6856 24.2903 56.6825V63.755H28.1685V59.655C28.1685 58.9757 28.7169 58.425 29.3933 58.425C30.0697 58.425 30.618 58.9757 30.618 59.655V63.755H50.9279V59.655C50.9279 58.9757 51.4762 58.425 52.1526 58.425C52.829 58.425 53.3773 58.9757 53.3773 59.655V63.755H57.2556ZM35.5927 49.4146L40.7729 54.1443L45.9532 49.4146C45.1053 48.4721 44.5459 47.2664 44.5236 45.7097C43.3556 46.2411 42.0768 46.535 40.7219 46.535C39.406 46.535 38.162 46.2578 37.0215 45.7551C36.989 47.2898 36.4323 48.4813 35.5927 49.4146ZM78.7903 17.22C78.7903 16.5407 79.3386 15.99 80.015 15.99L100.427 15.99C101.103 15.99 101.652 16.5407 101.652 17.22C101.652 17.8993 101.103 18.45 100.427 18.45H80.015C79.3386 18.45 78.7903 17.8993 78.7903 17.22ZM40.7219 24.19C36.4667 24.19 32.6592 28.4242 32.6592 34.1325C32.6592 39.8408 36.4667 44.075 40.7219 44.075C44.9771 44.075 48.7846 39.8408 48.7846 34.1325C48.7846 28.4242 44.9771 24.19 40.7219 24.19ZM95.5281 25.01C95.5281 24.3307 96.0764 23.78 96.7528 23.78H100.427C101.103 23.78 101.652 24.3307 101.652 25.01C101.652 25.6893 101.103 26.24 100.427 26.24H96.7528C96.0764 26.24 95.5281 25.6893 95.5281 25.01ZM78.7903 25.01C78.7903 24.3307 79.3386 23.78 80.015 23.78H91.3436C92.02 23.78 92.5684 24.3307 92.5684 25.01C92.5684 25.6893 92.02 26.24 91.3436 26.24H80.015C79.3386 26.24 78.7903 25.6893 78.7903 25.01Z" fill="url(#paint0_linear)"/>
<defs>
<linearGradient id="paint0_linear" x1="97.9702" y1="79.7717" x2="57.2318" y2="-7.85697" gradientUnits="userSpaceOnUse">
<stop stop-color="#613C9E"/>
<stop offset="1" stop-color="#F96031"/>
</linearGradient>
</defs>
</svg>
