<svg xmlns="http://www.w3.org/2000/svg" width="500" height="500" xmlns:xlink="http://www.w3.org/1999/xlink"><defs><path id="a" d="M250 500c25.947 0 50.974-3.921 74.517-11.201 18.95-62.098 62.39-85.313 129.636-93.321 29.491-40.982 45.442-91.21 45.442-145.478 0-56.937-17.701-109.428-49.882-151.458-67.463 7.811-97.976-31.744-112.03-82.865C310.387 5.541 280.843 0 250 0c-23.043 0-45.361 3.093-66.558 8.884-5.969 7.436-32.797 42.945-67.123 64.963-34.326 22.018-71.777 27.663-71.777 32.506C15.845 146.996.339 196.538.339 250c0 53.512 15.537 103.096 44.283 143.76 32.707 14.017 72.631 35.647 100.778 59.155 28.147 23.507 31.376 36.28 31.376 36.28C199.94 496.22 224.528 500 250 500z"/></defs><g fill="none" fill-rule="evenodd"><mask id="b" fill="#fff"><use xlink:href="#a"/></mask><use fill="#FFF" xlink:href="#a"/><path fill="#FFF" fill-rule="nonzero" mask="url(#b)" d="M-217.954 27.025l17.537 8.73L696.141 482l29.463-53.74L-188.49-26.713z"/><path fill="#FFF" fill-rule="nonzero" mask="url(#b)" d="M-239.78 55.376l914.095 454.975 21.213-42.266L-218.567 13.11z"/><path fill="#FFF" fill-rule="nonzero" mask="url(#b)" d="M696.141 21.615L-217.954 476.59l21.213 42.267L717.354 63.882z"/><path fill="#FFF" fill-rule="nonzero" mask="url(#b)" d="M677.162-6.735L-236.933 448.24l21.213 42.266L698.375 35.53z"/><path fill="#E93B3B" fill-rule="nonzero" mask="url(#b)" d="M-243.993 31.025l457.048 227.488 21.213-42.266L-222.78-11.241zM686.652 6.45L229.604 233.937l21.213 42.266L707.865 48.716z"/><path fill="#E93B3B" fill-rule="nonzero" mask="url(#b)" d="M754.438 472.535L297.39 245.048l-21.213 42.266 457.048 227.488zm-960.668 27.137l457.047-226.488-21.213-42.266-457.048 227.487z"/><path fill="#FFF" fill-rule="nonzero" mask="url(#b)" d="M172.768-76.923h154.464v653.846H172.768z"/><path fill="#FFF" fill-rule="nonzero" mask="url(#b)" d="M-213.392 173.077h926.784v153.846h-926.784z"/><path fill="#E93B3B" fill-rule="nonzero" mask="url(#b)" d="M211.384-76.923h76.923v653.846h-76.923z"/><path fill="#E93B3B" fill-rule="nonzero" mask="url(#b)" d="M-213.392 211.538h926.784v76.923h-926.784z"/><path fill="#4758A9" d="M44.234 105.693l129.432 63.747V11.784S136.28 21.266 98.715 50.21c-37.566 28.943-54.481 55.484-54.481 55.484zm412.431 0L327.232 169.44V11.784s37.386 9.482 74.952 38.425c37.565 28.943 54.48 55.484 54.48 55.484zM45.238 393.454l129.432-63.747v157.656s-37.386-9.482-74.951-38.425c-37.566-28.943-54.481-55.484-54.481-55.484zm411.427-1l-129.433-63.747v157.656s37.386-9.482 74.952-38.425c37.565-28.943 54.48-55.484 54.48-55.484z"/></g></svg>