<svg viewBox="0 0 500 500" xmlns="http://www.w3.org/2000/svg"><defs><linearGradient x1="50%" y1="0%" x2="50%" y2="100%" id="a"><stop stop-color="#FC6E51" offset="0%"/><stop stop-color="#FC6E51" offset="34.44%"/><stop stop-color="#FFF" offset="34.652%"/><stop stop-color="#FFF" offset="65.405%"/><stop stop-color="#57A863" offset="65.644%"/><stop stop-color="#57A863" offset="100%"/></linearGradient></defs><g fill="none"><circle transform="matrix(-1 0 0 1 500 0)" cx="250" cy="250" r="250" fill="url(#a)"/><g fill="#4758A9"><g transform="translate(193 193)"><path d="M57 114C25.52 114 0 88.48 0 57S25.52 0 57 0s57 25.52 57 57-25.52 57-57 57zm0-7.125c27.545 0 49.875-22.33 49.875-49.875S84.545 7.125 57 7.125 7.125 29.455 7.125 57 29.455 106.875 57 106.875z"/><circle cx="56.551" cy="56.551" r="9.874"/><circle transform="rotate(7.5 106.82 63.732)" cx="106.819" cy="63.732" r="2.693"/><path d="M57.45 106.82l1.794-29.797-1.795-14.188-1.8 14.188 1.794 29.796z"/><circle transform="rotate(22.5 103.228 76.3)" cx="103.228" cy="76.299" r="2.693"/><path d="M44.576 105.172l9.446-28.316 1.938-14.17-5.407 13.24-5.977 29.246z"/><circle transform="rotate(37.5 96.945 87.07)" cx="96.945" cy="87.071" r="2.693"/><path d="M32.09 99.384l16.453-24.906 5.54-13.185-8.65 11.39-13.342 26.7z"/><circle transform="rotate(52.5 87.07 96.945)" cx="87.071" cy="96.945" r="2.693"/><path d="M22.15 92.3l22.338-19.8 8.764-11.303L41.95 69.96 22.15 92.3z"/><circle transform="rotate(67.5 76.3 103.228)" cx="76.299" cy="103.228" r="2.693"/><path d="M14.167 81.46l26.7-13.343 11.39-8.648-13.184 5.533L14.167 81.46z"/><circle transform="rotate(82.5 63.732 106.82)" cx="63.732" cy="106.819" r="2.693"/><path d="M9.277 69.873l29.245-5.978 13.24-5.406-14.17 1.932L9.277 69.87z"/><circle transform="rotate(97.5 50.268 106.82)" cx="50.268" cy="106.819" r="2.693"/><path d="M7.63 57l29.796 1.795L51.614 57l-14.188-1.795L7.63 57z"/><circle transform="rotate(112.5 37.7 103.228)" cx="37.701" cy="103.228" r="2.693"/><path d="M9.277 44.127l28.316 9.446 14.17 1.938-13.24-5.4-29.246-5.98z"/><circle transform="rotate(127.5 26.93 96.945)" cx="26.929" cy="96.945" r="2.693"/><path d="M14.167 31.642l24.906 16.452 13.185 5.54-11.39-8.65-26.7-13.342z"/><circle transform="rotate(142.5 17.953 87.07)" cx="17.953" cy="87.071" r="2.693"/><path d="M22.15 21.7l19.8 22.34 11.302 8.763L44.488 41.5 22.15 21.7z"/><circle transform="rotate(157.5 10.772 76.3)" cx="10.772" cy="76.299" r="2.693"/><path d="M32.09 13.718L45.435 40.42l8.65 11.39-5.54-13.186L32.09 13.718z"/><circle transform="rotate(172.5 8.08 63.732)" cx="8.079" cy="63.732" r="2.693"/><path d="M44.576 8.828l5.977 29.245 5.407 13.24-1.938-14.17L44.576 8.83z"/><circle transform="rotate(-172.5 8.08 50.268)" cx="8.079" cy="50.268" r="2.693"/><path d="M57.45 7.18l-1.796 29.797 1.795 14.188 1.79-14.188L57.45 7.18z"/><circle transform="rotate(-157.5 10.772 37.7)" cx="10.772" cy="37.701" r="2.693"/><path d="M70.322 8.828l-9.446 28.316-1.938 14.17 5.406-13.24 5.978-29.246z"/><circle transform="rotate(-142.5 17.953 26.93)" cx="17.953" cy="26.929" r="2.693"/><path d="M81.91 13.718L65.456 38.624l-5.54 13.186 8.65-11.39 13.342-26.702z"/><circle transform="rotate(-127.5 26.93 17.055)" cx="26.929" cy="17.055" r="2.693"/><path d="M91.85 21.7L69.512 41.5l-8.764 11.303L72.05 44.04l19.8-22.34z"/><circle transform="rotate(-112.5 37.7 10.772)" cx="37.701" cy="10.772" r="2.693"/><path d="M99.833 31.642l-26.7 13.343-11.39 8.65 13.184-5.54L99.833 31.64z"/><circle transform="rotate(-97.5 50.268 7.18)" cx="50.268" cy="7.181" r="2.693"/><path d="M104.723 44.127l-29.245 5.978-13.24 5.406 14.17-1.932 28.315-9.446z"/><circle transform="rotate(-82.5 63.732 7.18)" cx="63.732" cy="7.181" r="2.693"/><path d="M107.268 57l-29.796-1.795L63.282 57l14.19 1.795L107.268 57z"/><circle transform="rotate(-67.5 76.3 10.772)" cx="76.299" cy="10.772" r="2.693"/><path d="M104.723 69.873l-28.316-9.446-14.17-1.938 13.24 5.4 29.246 5.98z"/><circle transform="rotate(-52.5 87.97 17.055)" cx="87.969" cy="17.055" r="2.693"/><path d="M99.833 81.46L74.927 65.01l-13.185-5.54 11.39 8.65 26.7 13.343z"/><circle transform="rotate(-37.5 96.945 26.93)" cx="96.945" cy="26.929" r="2.693"/><path d="M91.85 92.3l-19.8-22.34-11.302-8.763L69.512 72.5 91.85 92.3z"/><circle transform="rotate(-22.5 103.228 37.7)" cx="103.228" cy="37.701" r="2.693"/><path d="M81.91 100.282L68.565 73.58l-8.65-11.39 5.54 13.186 16.453 24.906z"/><circle transform="rotate(-7.5 106.82 50.268)" cx="106.819" cy="50.268" r="2.693"/><path d="M70.322 105.172l-5.978-29.245-5.406-13.24 1.938 14.17 9.446 28.315z"/></g><path d="M250 312c-34.242 0-62-27.758-62-62 0-34.242 27.758-62 62-62 34.242 0 62 27.758 62 62 0 34.242-27.758 62-62 62zm0-6.245c30.793 0 55.755-24.962 55.755-55.755 0-30.793-24.962-55.755-55.755-55.755-30.793 0-55.755 24.962-55.755 55.755 0 30.793 24.962 55.755 55.755 55.755z"/></g></g></svg>