<?xml version="1.0" encoding="UTF-8"?>
<svg width="26px" height="26px" viewBox="0 0 26 26" version="1.1" xmlns="http://www.w3.org/2000/svg" xmlns:xlink="http://www.w3.org/1999/xlink">
    <!-- Generator: Sketch 50.2 (55047) - http://www.bohemiancoding.com/sketch -->
    <title>korean</title>
    <desc>Created with Sketch.</desc>
    <defs>
        <ellipse id="path-1" cx="5.977" cy="6.095" rx="5.787" ry="5.587"></ellipse>
    </defs>
    <g id="Page-1" stroke="none" stroke-width="1" fill="none" fill-rule="evenodd">
        <g id="korean">
            <circle id="Oval" fill="#FFFFFF" cx="13" cy="13" r="13"></circle>
            <g id="Group-2" transform="translate(7.000000, 7.000000)">
                <mask id="mask-2" fill="white">
                    <use xlink:href="#path-1"></use>
                </mask>
                <use id="Oval" fill="#0047A0" fill-rule="nonzero" xlink:href="#path-1"></use>
                <path d="M1.133,2.793 C6.516,-4.613 15.129,4.796 11.159,8.694 C11.697,3.913 6.718,4.536 5.91,6.225 C5.564,6.951 3.784,7.901 2.008,6.81 C0.231,5.719 0.617,3.638 1.133,2.793 Z" id="Shape" fill="#CD2E3A" fill-rule="nonzero" mask="url(#mask-2)"></path>
            </g>
            <path d="M3.34,10.175 L6.733,5.488 L7.505,6.009 L4.113,10.696 L3.341,10.175 L3.34,10.175 Z M2.238,9.43 L5.629,4.744 L6.402,5.265 L3.01,9.952 L2.238,9.431 L2.238,9.43 Z M1,8.686 L4.392,4 L5.164,4.521 L1.772,9.207 L1,8.687 L1,8.686 Z" id="Shape" fill="#000000" fill-rule="nonzero"></path>
            <path d="M4.248,15.304 L7.639,19.991 L6.867,20.511 L3.476,15.825 L4.248,15.305 L4.248,15.304 Z M4.552,18.178 L3.01,16.048 L2.238,16.569 L3.768,18.684 L4.552,18.178 Z M4.782,18.498 L4,19.003 L5.63,21.256 L6.402,20.735 L4.782,18.498 Z M5.299,21.479 L1.907,16.793 L1.135,17.313 L4.526,22 L5.299,21.479 Z M20.132,17.73 L18.495,19.99 L19.268,20.512 L20.905,18.248 L20.132,17.729 L20.132,17.73 Z M20.363,17.41 L21.137,17.929 L22.659,15.825 L21.887,15.305 L20.363,17.41 Z M21.327,18.532 L19.733,20.735 L20.505,21.255 L22.101,19.051 L21.327,18.531 L21.327,18.532 Z M22.332,18.732 L21.559,18.212 L23.125,16.048 L23.897,16.569 L22.332,18.732 Z M22.432,19.274 L20.836,21.479 L21.608,22 L23.206,19.793 L23.004,19.658 L22.432,19.274 Z M23.437,19.474 L23.234,19.338 L22.664,18.954 L24.228,16.793 L25,17.313 L23.437,19.473 L23.437,19.474 Z M23.412,6.492 L25,8.686 L24.228,9.207 L22.638,7.011 L23.412,6.491 L23.412,6.492 Z M23.18,6.172 L21.608,4 L20.836,4.52 L22.407,6.691 L23.18,6.172 Z M23.762,9.431 L20.371,4.744 L19.598,5.265 L22.99,9.952 L23.762,9.431 Z M20.88,7.717 L19.267,5.488 L18.495,6.009 L20.107,8.236 L20.88,7.716 L20.88,7.717 Z M21.111,8.037 L20.338,8.556 L21.887,10.696 L22.659,10.175 L21.111,8.036 L21.111,8.037 Z" id="Shape" fill="#000000"></path>
        </g>
    </g>
</svg>