<svg xmlns="http://www.w3.org/2000/svg" width="500" height="500"><defs><linearGradient id="a" x1="50%" x2="50%" y1=".318%" y2="96.909%"><stop stop-color="#E93B3B" offset="0%"/><stop stop-color="#FFF" offset=".328%"/><stop stop-color="#FFF" offset="8.058%"/><stop stop-color="#E93B3B" offset="8.245%"/><stop stop-color="#E93B3B" offset="15.787%"/><stop stop-color="#FFF" offset="15.881%"/><stop stop-color="#FFF" offset="23.642%"/><stop stop-color="#E93B3B" offset="23.781%"/><stop stop-color="#E93B3B" offset="31.716%"/><stop stop-color="#FFF" offset="31.738%"/><stop stop-color="#FFF" offset="39.591%"/><stop stop-color="#E93B3B" offset="39.737%"/><stop stop-color="#E93B3B" offset="47.559%"/><stop stop-color="#FFF" offset="47.681%"/><stop stop-color="#FFF" offset="55.478%"/><stop stop-color="#E93B3B" offset="55.568%"/><stop stop-color="#E93B3B" offset="63.164%"/><stop stop-color="#FFF" offset="63.317%"/><stop stop-color="#FFF" offset="71.193%"/><stop stop-color="#E93B3B" offset="71.358%"/><stop stop-color="#E93B3B" offset="79.087%"/><stop stop-color="#FFF" offset="79.243%"/><stop stop-color="#FFF" offset="87.067%"/><stop stop-color="#E93B3B" offset="87.283%"/><stop stop-color="#E93B3B" offset="95.323%"/><stop stop-color="#FFF" offset="95.354%"/><stop stop-color="#FFF" offset="100%"/></linearGradient></defs><g fill="none" fill-rule="evenodd"><path fill="url(#a)" d="M250.737 499.788C388.401 499.788 500 388.576 500 251.389c0-106.492-67.246-197.332-161.73-232.651 0 0-6.353-1.922-15.777 1.346s-16.473 8.961-18.845 12.541c-5.79 8.74-3.6 40.506-19.199 37.514-24.017-4.606-3.764-65.404-10.702-66.309-7.32-.954 48.715 261.75 42.742 261.75-137.664 0-131.615-151.378-131.615-14.191 0 9.039-113.421-16.675-152.187-13.213-38.766 3.461-29.39 43.45-29.167 45.183 15.742 122.087 120.424 216.429 247.217 216.429z"/><g fill-rule="nonzero"><path fill="#4758A9" d="M329 14.627v256.23H2.2A235.223 235.223 0 0 1 0 238.7C0 106.87 109.478 0 244.525 0 274.217 0 302.672 5.166 329 14.627z"/><g fill="#FC0"><path d="M181.627 77C141.538 77 109 108.314 109 146.895c0 38.581 32.538 69.896 72.627 69.896 14.484 0 27.978-4.093 39.312-11.133a66.512 66.512 0 0 1-21.057 3.402c-35.548 0-64.399-27.765-64.399-61.976s28.85-61.976 64.399-61.976c7.855 0 15.38 1.354 22.343 3.836C210.634 81.406 196.66 77 181.627 77z"/><path d="M302.069 183.281l-30.593-15.412 9.045 31.543-20.462-26.386-6.383 32.115-6.279-32.134-20.548 26.327 9.149-31.517-30.643 15.324 22.763-24.658-34.668 1.286 31.87-12.915-31.828-13.007 34.664 1.386-22.682-24.724 30.592 15.413-9.045-31.544 20.462 26.387 6.384-32.116 6.278 32.134 20.548-26.327-9.148 31.517 30.643-15.323-22.764 24.657 34.669-1.285-31.87 12.915 31.827 13.007-34.664-1.386z"/></g></g><path fill="#FFF" d="M329 15s25.881 10.069 28.615 14.065C360.35 33.06 342 34 342 34h-13V15z"/></g></svg>