<svg width="26" height="26" fill="none" xmlns="http://www.w3.org/2000/svg"><path d="M36 0H10.8v27H36V0z" fill="red"/><path d="M10.8 0H-6v27h16.8V0z" fill="#060"/><path fill-rule="evenodd" clip-rule="evenodd" d="M16.277 17.688c-2.115-.062-11.812-5.898-11.879-6.828l.536-.86c.962 1.347 10.875 7.023 11.849 6.822l-.507.865" fill="#FF0"/><path fill-rule="evenodd" clip-rule="evenodd" d="M4.821 9.882c-.19.492 2.53 2.114 5.803 4.033 3.273 1.92 6.095 3.106 6.304 2.936.013-.022.103-.172.095-.17-.04.057-.135.074-.284.033-.884-.246-3.19-1.266-6.046-2.937-2.856-1.67-5.34-3.209-5.727-3.863a.386.386 0 0 1-.042-.192h-.01l-.082.138-.01.022zm11.505 7.832c-.035.063-.102.065-.23.052-.79-.085-3.19-1.21-6.03-2.85-3.306-1.908-6.035-3.646-5.738-4.1l.08-.138.016.005c-.266.77 5.386 3.886 5.72 4.085 3.27 1.954 6.027 3.095 6.271 2.799l-.089.147z" fill="#FF0"/><path fill-rule="evenodd" clip-rule="evenodd" d="M10.812 11.423c2.116-.016 4.728-.28 6.231-.857l-.324-.507c-.888.474-3.514.786-5.925.832-2.851-.025-4.864-.28-5.873-.933l-.306.54c1.854.756 3.754.917 6.197.925z" fill="#FF0"/><path fill-rule="evenodd" clip-rule="evenodd" d="M17.13 10.578c-.05.08-1.031.406-2.475.646-.98.144-2.257.267-3.85.268a28.293 28.293 0 0 1-3.688-.224c-1.516-.23-2.299-.549-2.588-.661.028-.053.045-.09.072-.14.832.32 1.619.512 2.54.65.93.12 2.152.226 3.659.225a26.663 26.663 0 0 0 3.823-.274c1.48-.23 2.29-.527 2.403-.664l.105.174zm-.283-.515c-.16.125-.96.398-2.368.615-.939.13-2.133.246-3.658.247a25.528 25.528 0 0 1-3.534-.22c-1.429-.179-2.19-.504-2.464-.599l.084-.135c.213.103.947.39 2.396.588.89.122 2.076.213 3.518.211a26.012 26.012 0 0 0 3.632-.249c1.414-.187 2.175-.536 2.29-.624l.104.166zM3.862 13.882c1.302.675 4.193 1.015 6.93 1.039 2.49.004 5.736-.371 6.95-.992l-.033-.675c-.38.572-3.858 1.12-6.945 1.098-3.086-.022-5.952-.482-6.908-1.077l.006.607z" fill="#FF0"/><path fill-rule="evenodd" clip-rule="evenodd" d="M17.808 13.785v.161c-.182.21-1.326.528-2.76.752-1.092.161-2.515.283-4.288.283-1.685 0-3.029-.116-4.07-.27-1.648-.231-2.701-.636-2.913-.757l.001-.188c.636.407 2.357.705 2.934.796 1.035.154 2.371.268 4.048.268 1.765 0 3.18-.12 4.265-.28 1.029-.144 2.495-.517 2.784-.765zm.001-.573v.16c-.182.211-1.326.53-2.76.753-1.092.161-2.515.283-4.289.283-1.684 0-3.028-.116-4.07-.27-1.647-.231-2.7-.636-2.912-.757v-.188c.636.407 2.357.705 2.935.796 1.035.153 2.37.269 4.047.269 1.765 0 3.18-.121 4.265-.282 1.03-.143 2.495-.516 2.784-.764zm-7.024 4.36c-2.994-.018-5.559-.787-6.1-.915l.394.596c.957.389 3.46.967 5.735.903 2.276-.064 4.264-.234 5.665-.892l.405-.618c-.955.434-4.205.921-6.099.926z" fill="#FF0"/><path fill-rule="evenodd" clip-rule="evenodd" d="M16.631 17.126c-.06.088-.12.174-.181.259a16.62 16.62 0 0 1-2.142.529c-.898.179-2.287.31-3.52.31-2.652-.037-4.823-.537-5.844-.965l-.082-.136.013-.02.14.052c1.816.626 3.856.876 5.788.921a20.43 20.43 0 0 0 3.45-.307c1.525-.294 2.141-.516 2.33-.617l.048-.026zm.351-.559l.005.006-.137.22c-.353.122-1.31.392-2.707.58-.92.12-1.492.238-3.323.272-3.431-.084-5.652-.731-6.18-.89l-.078-.145c1.988.5 4.02.85 6.258.885 1.675-.034 2.388-.153 3.3-.273 1.63-.244 2.45-.503 2.697-.577l-.01-.014.175-.063z" fill="#FF0"/><path fill-rule="evenodd" clip-rule="evenodd" d="M17.018 13.349c.01 1.9-.998 3.603-1.81 4.355a6.64 6.64 0 0 1-4.45 1.78c-1.985.035-3.858-1.214-4.36-1.762-.982-1.072-1.782-2.434-1.807-4.269.121-2.073.965-3.516 2.188-4.507 1.223-.99 2.852-1.472 4.209-1.438 1.565.04 3.393.78 4.656 2.25.828.963 1.186 2.008 1.374 3.59zm-6.243-6.503c3.814 0 6.95 2.993 6.95 6.662 0 3.67-3.136 6.663-6.95 6.663S3.85 17.178 3.85 13.508c0-3.67 3.111-6.662 6.925-6.662z" fill="#FF0"/><path fill-rule="evenodd" clip-rule="evenodd" d="M11.019 6.718v.074h-.438V6.72h-.15v13.583h.15v-.064h.44v.066h.15L11.17 6.718h-.151z" fill="#FF0"/><path fill-rule="evenodd" clip-rule="evenodd" d="M3.838 13.222c.869-.772 4.076-1.272 6.921-1.259 2.845.013 6.215.576 6.948 1.242l.007.576c-.614-.557-3.232-1.221-6.95-1.228-3.717-.008-6.416.674-6.926 1.243v-.574z" fill="#FF0"/><path fill-rule="evenodd" clip-rule="evenodd" d="M10.797 12.472c1.637-.003 3.225.15 4.484.386 1.3.25 2.215.564 2.528.916v.174c-.378-.437-1.609-.759-2.557-.942-1.25-.235-2.827-.386-4.455-.383-1.718.003-3.317.16-4.549.391-.988.19-2.307.565-2.471.936v-.182c.09-.256 1.072-.64 2.449-.905 1.24-.234 2.843-.388 4.571-.391zm0-.573c1.638-.003 3.226.15 4.485.386 1.3.25 2.215.564 2.527.916v.174c-.377-.438-1.608-.76-2.556-.943-1.25-.234-2.828-.386-4.455-.383-1.718.003-3.31.16-4.542.392-.953.174-2.326.565-2.479.935v-.181c.09-.254 1.092-.651 2.45-.906 1.24-.233 2.843-.387 4.57-.39zm-.033-2.924c2.579-.013 4.829.347 5.858.856l.376.626c-.895-.465-3.322-.948-6.23-.876-2.37.014-4.903.252-6.173.905l.448-.722c1.043-.522 3.502-.787 5.72-.79" fill="#FF0"/><path fill-rule="evenodd" clip-rule="evenodd" d="M10.798 9.492c1.471-.004 2.893.076 4.023.273 1.053.188 2.057.472 2.2.625l.112.19c-.35-.22-1.218-.465-2.334-.669-1.12-.203-2.54-.27-4.004-.267-1.66-.005-2.95.08-4.058.265-1.17.212-1.983.514-2.183.657l.109-.2c.39-.192 1.007-.423 2.045-.603 1.145-.202 2.45-.263 4.09-.271zm0-.573c1.407-.003 2.797.072 3.881.26.855.16 1.7.41 2.01.634l.162.25c-.277-.297-1.318-.579-2.238-.736-1.075-.179-2.408-.25-3.816-.26-1.477.003-2.843.09-3.902.276-1.011.186-1.663.406-1.94.577l.144-.208c.38-.194.996-.371 1.77-.517 1.068-.187 2.442-.272 3.928-.276zm3.442 7.366c-1.275-.23-2.552-.263-3.445-.253-4.298.049-5.686.851-5.856 1.094l-.321-.505c1.094-.765 3.435-1.194 6.2-1.15 1.437.023 2.677.115 3.719.31l-.296.504z" fill="#FF0"/><path fill-rule="evenodd" clip-rule="evenodd" d="M10.77 15.961c1.196.017 2.37.065 3.503.269l-.082.14c-1.052-.188-2.174-.26-3.416-.254-1.587-.012-3.191.131-4.588.518-.441.118-1.17.391-1.245.617l-.082-.13c.024-.133.465-.41 1.29-.634 1.6-.442 3.096-.516 4.62-.526zm.055-.58c1.239.022 2.518.077 3.762.315l-.086.145c-1.122-.214-2.196-.286-3.669-.308-1.591.003-3.28.112-4.814.542-.496.14-1.35.44-1.38.679l-.081-.14c.018-.216.759-.499 1.425-.685 1.547-.434 3.24-.545 4.843-.548z" fill="#FF0"/><path fill-rule="evenodd" clip-rule="evenodd" d="M4.983 9.755c2.13-.027 11.964 5.795 11.992 6.867l-.609.9c-.275-1.244-10.253-6.91-11.9-6.802l.517-.965" fill="#FF0"/><path fill-rule="evenodd" clip-rule="evenodd" d="M4.406 10.685c.395-.258 3.3.99 6.338 2.756 3.031 1.773 5.928 3.775 5.666 4.15l-.086.13-.04.03c.01-.005.053-.056-.003-.196-.13-.41-2.184-1.99-5.593-3.975-3.323-1.911-6.093-3.063-6.37-2.733l.088-.162zm12.63 6.003c.25-.476-2.444-2.433-5.784-4.339-3.417-1.867-5.88-2.966-6.33-2.639l-.1.176c0 .01.004-.012.025-.028.082-.069.218-.064.279-.065.775.011 2.987.993 6.09 2.708 1.36.764 5.745 3.476 5.729 4.239 0 .065.005.079-.02.111l.111-.163" fill="#FF0"/><path fill-rule="evenodd" clip-rule="evenodd" d="M6.642 14.243c0 1.098.466 2.092 1.222 2.818a4.236 4.236 0 0 0 5.868.013 3.915 3.915 0 0 0 1.22-2.827V8.902l-8.311-.01v5.351z" fill="#fff"/><path fill-rule="evenodd" clip-rule="evenodd" d="M6.797 14.25v.004c0 1.05.451 2.006 1.174 2.7a4.063 4.063 0 0 0 2.815 1.128c1.098 0 2.094-.43 2.816-1.122a3.738 3.738 0 0 0 1.169-2.703V9.071L6.8 9.07l-.004 5.18zm6.371-3.627v3.3l-.002.349a2.215 2.215 0 0 1-.699 1.616 2.425 2.425 0 0 1-1.683.671 2.4 2.4 0 0 1-1.668-.682 2.252 2.252 0 0 1-.702-1.616l-.001-3.647 4.756.009" fill="red"/><path d="M10.285 13.663c0 .15.06.285.155.384.095.099.227.16.37.16a.515.515 0 0 0 .372-.16.553.553 0 0 0 .154-.384v-.727h-1.05l-.001.727zm-.005 1.74c0 .15.059.285.154.384.095.1.227.16.371.16a.515.515 0 0 0 .372-.16.552.552 0 0 0 .154-.383v-.727l-1.05-.001-.002.727zm-1.451-1.737c0 .15.06.286.155.384.095.1.227.16.37.16a.515.515 0 0 0 .372-.159.552.552 0 0 0 .154-.384v-.727H8.831l-.002.726zm2.908-.001c0 .15.06.286.154.384a.514.514 0 0 0 .742 0 .552.552 0 0 0 .155-.383v-.727h-1.05l-.001.726zm-1.453-1.759c0 .15.06.286.155.385a.512.512 0 0 0 .742 0 .55.55 0 0 0 .154-.384v-.727h-1.05v.726z" fill="#039"/><path fill-rule="evenodd" clip-rule="evenodd" d="M8.108 9.555l.01.235h-.29l.009-.235h.271m-.794.869c.01-.373.284-.46.285-.462.002-.001.296.095.295.466l-.58-.004z" fill="#FF0"/><path fill-rule="evenodd" clip-rule="evenodd" d="M7.077 9.969l-.048.428h.29c.002-.354.278-.413.285-.411.006 0 .279.078.286.411h.29l-.052-.431-1.051.003zm-.067.43h1.186c.025 0 .045.024.045.053 0 .03-.02.053-.045.053H7.01c-.025 0-.046-.024-.046-.053 0-.029.02-.053.046-.053z" fill="#FF0"/><path fill-rule="evenodd" clip-rule="evenodd" d="M7.44 10.397c.002-.224.16-.287.16-.287s.164.066.165.287h-.324zm-.405-.606h1.137c.024 0 .043.022.043.048 0 .026-.02.048-.043.048H7.035c-.024 0-.044-.022-.044-.048 0-.026.02-.048.044-.048zm.023.096h1.088c.023 0 .042.021.042.047 0 .027-.019.048-.042.048H7.058c-.022 0-.04-.022-.04-.048 0-.026.018-.047.04-.047zm.356-.715h.084v.059h.061v-.06h.086v.06h.062v-.06h.086v.136c0 .02-.018.035-.037.035h-.303c-.02 0-.039-.016-.039-.036v-.134m.32.181l.019.436-.301-.001.02-.436.262.001zm.05.032h.084v.06h.061v-.06h.086v.06h.062v-.06h.086v.135c0 .022-.018.035-.038.035h-.302c-.02 0-.04-.016-.04-.035v-.134m-.742-.001h.084v.06h.062v-.06h.085v.06h.062v-.06h.086v.135c0 .022-.017.035-.038.035H7.08c-.02 0-.039-.016-.039-.035v-.134m.325.169l.01.235h-.29l.009-.235h.271" fill="#FF0"/><path fill-rule="evenodd" clip-rule="evenodd" d="M7.573 9.491c-.002-.042.061-.043.06 0v.104h-.06V9.49zm.372.151c0-.04.058-.042.058 0v.08h-.058v-.08zm-.745 0c0-.04.059-.042.058 0v.08H7.2v-.08z" fill="#000"/><path fill-rule="evenodd" clip-rule="evenodd" d="M11.308 9.555l.01.235h-.29l.009-.235h.271m-.794.869c.01-.373.283-.46.285-.462.003-.001.296.095.296.466l-.581-.004z" fill="#FF0"/><path fill-rule="evenodd" clip-rule="evenodd" d="M10.277 9.969l-.048.428h.29c.002-.354.278-.413.285-.411.006 0 .279.078.286.411h.29l-.052-.431-1.051.003zm-.067.43h1.186c.025 0 .046.024.046.053 0 .03-.02.053-.046.053H10.21c-.025 0-.046-.024-.046-.053 0-.029.02-.053.046-.053z" fill="#FF0"/><path fill-rule="evenodd" clip-rule="evenodd" d="M10.641 10.397c.001-.224.158-.287.16-.287 0 0 .163.066.164.287h-.324zm-.406-.606h1.137c.024 0 .043.022.043.048 0 .026-.02.048-.043.048h-1.137c-.024 0-.044-.022-.044-.048 0-.026.02-.048.044-.048zm.024.096h1.087c.023 0 .042.021.042.047 0 .027-.019.048-.042.048h-1.087c-.023 0-.042-.022-.042-.048 0-.026.019-.047.042-.047zm.355-.715h.084v.059h.061v-.06h.087v.06h.061v-.06h.086v.136c0 .02-.017.035-.038.035h-.302c-.02 0-.039-.016-.039-.036v-.134zm.32.181l.019.436-.301-.001.02-.436.262.001zm.05.032h.084v.06h.061v-.06h.086v.06h.062v-.06h.086v.135c0 .022-.017.035-.038.035h-.302c-.02 0-.04-.016-.04-.035v-.134m-.743-.001h.085v.06h.061v-.06h.087v.06h.061v-.06h.086v.135c0 .022-.018.035-.038.035h-.302c-.02 0-.039-.016-.039-.035v-.134m.325.169l.01.235h-.29l.008-.235h.272" fill="#FF0"/><path fill-rule="evenodd" clip-rule="evenodd" d="M10.773 9.491c-.002-.042.061-.043.06 0v.104h-.06V9.49zm.372.151c0-.04.058-.042.057 0v.08h-.057v-.08zm-.745 0c0-.04.059-.042.058 0v.08H10.4v-.08z" fill="#000"/><path fill-rule="evenodd" clip-rule="evenodd" d="M14.473 9.555l.01.235h-.29l.009-.235h.271m-.795.869c.009-.373.283-.46.285-.462.002-.001.296.095.296.466l-.582-.004z" fill="#FF0"/><path fill-rule="evenodd" clip-rule="evenodd" d="M13.441 9.969l-.047.428h.29c.002-.354.278-.413.284-.411.007 0 .28.078.287.411h.29l-.052-.431-1.052.003zm-.067.43h1.186c.025 0 .046.024.046.053 0 .03-.02.053-.046.053h-1.186c-.025 0-.045-.024-.045-.053 0-.029.02-.053.045-.053z" fill="#FF0"/><path fill-rule="evenodd" clip-rule="evenodd" d="M13.805 10.397c.001-.224.158-.287.16-.287 0 0 .163.066.165.287h-.325zm-.406-.606h1.137c.024 0 .044.022.044.048 0 .026-.02.048-.044.048H13.4c-.024 0-.044-.022-.044-.048 0-.026.02-.048.044-.048zm.024.096h1.088c.023 0 .042.021.042.047 0 .027-.02.048-.042.048h-1.088c-.023 0-.041-.022-.041-.048 0-.026.018-.047.041-.047zm.355-.715h.084v.059h.062v-.06h.086v.06h.061v-.06h.086v.136c0 .02-.017.035-.037.035h-.302c-.02 0-.04-.016-.04-.036v-.134zm.32.181l.02.436-.302-.001.02-.436.262.001zm.05.032h.084v.06h.062v-.06h.086v.06h.061v-.06h.086v.135c0 .022-.017.035-.037.035h-.302c-.02 0-.04-.016-.04-.035v-.134m-.743-.001h.084v.06h.062v-.06h.086v.06h.062v-.06h.086v.135c0 .022-.018.035-.038.035h-.302c-.02 0-.04-.016-.04-.035v-.134m.325.169l.01.235h-.29l.009-.235h.271" fill="#FF0"/><path fill-rule="evenodd" clip-rule="evenodd" d="M13.938 9.491c-.002-.042.061-.043.06 0v.104h-.06V9.49zm.372.151c-.001-.04.057-.042.057 0v.08h-.058v-.08zm-.746 0c0-.04.059-.042.058 0v.08h-.058v-.08z" fill="#000"/><path fill-rule="evenodd" clip-rule="evenodd" d="M8.108 12.682l.01.235h-.29l.009-.235h.271zm-.794.868c.01-.372.284-.46.285-.462.002-.001.296.096.295.466l-.58-.003z" fill="#FF0"/><path fill-rule="evenodd" clip-rule="evenodd" d="M7.077 13.095l-.048.428.29.001c.002-.354.278-.413.285-.412.006 0 .279.078.286.412h.29l-.052-.432-1.051.003zm-.067.431h1.186c.025 0 .045.024.045.053 0 .028-.02.052-.045.052H7.01c-.025 0-.046-.023-.046-.052 0-.03.02-.053.046-.053z" fill="#FF0"/><path fill-rule="evenodd" clip-rule="evenodd" d="M7.44 13.524c.002-.224.16-.287.16-.287s.164.065.165.287h-.324zm-.405-.606h1.137c.024 0 .043.021.043.048 0 .026-.02.047-.043.047H7.035c-.024 0-.044-.021-.044-.047 0-.027.02-.048.044-.048zm.023.095h1.088c.023 0 .042.022.042.048 0 .026-.019.047-.042.047H7.058c-.022 0-.04-.021-.04-.047s.018-.048.04-.048zm.356-.715h.084v.06h.061v-.061h.086v.06h.062v-.06h.086v.136c0 .021-.018.035-.037.035h-.303c-.02 0-.039-.016-.039-.035v-.135m.32.182l.019.436-.301-.001.02-.436.262.001m.05.032h.084v.059h.061v-.06h.086v.06h.062v-.06h.086v.136c0 .02-.018.035-.038.035h-.302c-.02 0-.04-.016-.04-.036v-.134zm-.743 0h.084v.059h.062v-.06h.085v.06h.062v-.06h.086v.136c0 .02-.017.035-.038.035H7.08c-.02 0-.039-.016-.039-.036v-.134zm.325.17l.01.235h-.29l.009-.235h.271z" fill="#FF0"/><path fill-rule="evenodd" clip-rule="evenodd" d="M7.573 12.618c-.002-.042.061-.043.06 0v.104h-.06v-.104zm.372.15c0-.04.058-.042.058 0v.08h-.058v-.08zm-.745 0c0-.04.059-.042.058 0v.08H7.2v-.08z" fill="#000"/><path fill-rule="evenodd" clip-rule="evenodd" d="M13.8 16.343l-.165.172-.205-.197.178-.16.192.185zm-1.2.072c.28-.257.54-.132.542-.132.002 0 .14.27-.133.53l-.408-.398z" fill="#FF0"/><path fill-rule="evenodd" clip-rule="evenodd" d="M12.768 15.932l-.348.27.205.198c.261-.248.5-.102.503-.097.005.004.14.246-.1.487l.206.198.28-.34-.746-.716zm-.364.258l.84.81c.017.016.014.047-.008.067-.02.021-.053.024-.07.007l-.84-.809c-.017-.017-.014-.048.007-.068.022-.02.054-.024.071-.007z" fill="#FF0"/><path fill-rule="evenodd" clip-rule="evenodd" d="M12.71 16.483c.166-.157.323-.095.324-.094 0 0 .068.158-.094.315l-.23-.221zm.158-.705l.804.775c.017.017.015.045-.004.064-.02.018-.05.02-.066.004l-.804-.776c-.017-.016-.015-.044.004-.063.02-.019.049-.02.066-.004z" fill="#FF0"/><path fill-rule="evenodd" clip-rule="evenodd" d="M12.814 15.861l.77.742c.016.016.014.044-.006.062-.019.019-.048.021-.064.005l-.77-.741c-.015-.016-.013-.044.006-.062.02-.019.048-.021.064-.006zm.776-.263l.06.058-.043.041.043.042.044-.042.061.059-.044.042.044.042.044-.043.06.06-.1.095a.037.037 0 0 1-.051-.001l-.214-.206c-.014-.014-.016-.038-.002-.052l.099-.095zm.093.347l-.306.32-.212-.205.333-.294.185.179m.012.056l.06.058-.044.041.044.042.044-.043.06.06-.043.042.043.042.044-.043.061.059-.1.096a.037.037 0 0 1-.052 0l-.214-.207a.037.037 0 0 1 0-.052l.097-.095zm-.525-.506l.06.057-.044.042.044.042.044-.043.06.06-.043.041.043.042.044-.042.061.058-.1.096c-.015.016-.038.013-.052 0l-.214-.207c-.014-.013-.016-.037 0-.051l.097-.095zm.105.342l-.166.172-.204-.197.178-.16.192.185z" fill="#FF0"/><path fill-rule="evenodd" clip-rule="evenodd" d="M13.468 15.933c.03-.032.075.011.043.04l-.076.074-.042-.041.075-.073zm.152.36c.03-.03.073.01.042.04l-.06.056-.04-.04.059-.056zm-.525-.508c.03-.03.072.01.04.04l-.058.056-.04-.04.058-.056z" fill="#000"/><path fill-rule="evenodd" clip-rule="evenodd" d="M14.468 12.682l.01.235h-.29l.009-.235h.271zm-.796.868c.01-.372.284-.46.286-.462.002 0 .296.096.295.466l-.58-.003z" fill="#FF0"/><path fill-rule="evenodd" clip-rule="evenodd" d="M13.437 13.095l-.048.428.29.001c.002-.354.278-.413.285-.412.006 0 .279.078.286.412h.29l-.052-.431-1.051.002zm-.067.431h1.185c.025 0 .046.024.046.053 0 .028-.02.053-.046.053H13.37c-.025 0-.045-.024-.045-.053 0-.03.02-.053.045-.053z" fill="#FF0"/><path fill-rule="evenodd" clip-rule="evenodd" d="M13.8 13.524c.002-.224.159-.287.16-.287 0 0 .163.065.165.287H13.8zm-.406-.606h1.138c.024 0 .043.022.043.048 0 .026-.02.047-.043.047h-1.138c-.023 0-.043-.021-.043-.047s.02-.048.043-.048zm.024.096h1.088c.023 0 .041.02.041.047 0 .026-.018.047-.041.047h-1.088c-.023 0-.041-.021-.041-.047s.018-.047.041-.047zm.356-.716h.084v.06h.061v-.06h.086v.06h.062v-.06h.086v.135c0 .021-.018.035-.038.035h-.302c-.02 0-.04-.016-.04-.035v-.135zm.319.182l.02.436-.302-.001.02-.436.262.001zm.051.032h.084v.059h.06v-.06h.087v.06h.062v-.06h.086v.136c0 .02-.018.035-.038.035h-.302c-.02 0-.04-.016-.04-.036v-.134zm-.744 0h.085v.059h.061v-.06h.086v.06h.062v-.06h.085v.136c0 .02-.017.035-.037.035h-.302c-.02 0-.04-.016-.04-.036v-.134zm.326.17l.009.235h-.29l.009-.235h.272z" fill="#FF0"/><path fill-rule="evenodd" clip-rule="evenodd" d="M13.933 12.618c-.002-.043.061-.043.06 0v.103h-.06v-.103zm.371.15c0-.04.06-.041.059 0v.08h-.059v-.08zm-.744 0c0-.04.058-.041.057 0v.08h-.058v-.08z" fill="#000"/><path fill-rule="evenodd" clip-rule="evenodd" d="M8.5 15.65l.18.159-.205.197-.167-.172.193-.185zm.075 1.156c-.266-.27-.137-.52-.136-.521 0-.002.279-.135.55.128l-.414.393z" fill="#FF0"/><path fill-rule="evenodd" clip-rule="evenodd" d="M8.074 16.645l.28.335.206-.197c-.258-.252-.106-.482-.1-.485.004-.005.254-.135.504.096l.206-.198-.354-.27-.742.719zm.268.35l.84-.809c.017-.017.049-.014.07.007.021.02.024.05.007.068l-.84.809c-.017.017-.049.014-.07-.007-.021-.02-.024-.05-.007-.068z" fill="#FF0"/><path fill-rule="evenodd" clip-rule="evenodd" d="M8.646 16.7c-.163-.16-.099-.312-.098-.312 0 0 .164-.065.327.09l-.23.222zm-.732-.152l.804-.775c.017-.016.046-.015.066.004.019.018.02.047.004.063l-.804.776c-.017.016-.047.014-.066-.004-.02-.019-.021-.048-.004-.064z" fill="#FF0"/><path fill-rule="evenodd" clip-rule="evenodd" d="M8.001 16.599l.77-.742c.015-.015.044-.013.064.005.019.019.021.047.005.062l-.77.742c-.015.016-.044.014-.063-.005-.02-.019-.022-.046-.006-.062zm-.272-.747l.059-.057.043.041.043-.042-.044-.042.061-.059.044.042.044-.041-.045-.043.062-.058.1.096c.015.015.012.036-.002.05l-.213.206c-.015.014-.04.015-.054.001l-.098-.094m.359-.09l.333.295-.214.204-.305-.321.186-.178zm.058-.012l.06-.057.043.042.043-.042-.044-.042.061-.059.044.042.044-.041-.044-.043.06-.059.1.097c.016.015.013.036 0 .05l-.214.206c-.015.014-.04.015-.054.001l-.099-.094m-.525.506l.06-.058.043.042.043-.042-.044-.042.061-.059.044.043.044-.042-.044-.043.06-.059.1.097c.016.014.013.036 0 .05l-.215.206c-.014.014-.039.016-.053.001l-.099-.094z" fill="#FF0"/><path fill-rule="evenodd" clip-rule="evenodd" d="M7.975 16.155l.18.16-.205.197-.166-.171.191-.186z" fill="#FF0"/><path fill-rule="evenodd" clip-rule="evenodd" d="M8.075 15.97c-.033-.03.012-.073.043-.042l.076.073-.043.042-.076-.074zm.373-.148c-.03-.028.01-.07.041-.04l.059.057-.041.04-.059-.057zm-.526.508c-.03-.028.01-.069.04-.04l.06.058-.041.039-.06-.057z" fill="#000"/><path d="M11.102 15.404a.102.102 0 0 0-.104.1c0 .055.046.1.104.1a.102.102 0 0 0 .104-.1c0-.055-.047-.1-.104-.1zm-.577 0a.102.102 0 0 0-.104.1c0 .056.047.1.104.1a.102.102 0 0 0 .104-.1c0-.055-.046-.1-.104-.1zm.286-.282a.103.103 0 0 0-.104.1c0 .056.047.101.104.101a.102.102 0 0 0 .104-.1c0-.056-.047-.1-.104-.1zm.292-.269a.103.103 0 0 0-.105.1c0 .055.047.1.105.1a.103.103 0 0 0 .104-.1c0-.055-.047-.1-.104-.1zm1.457-1.187a.102.102 0 0 0-.105.1c0 .055.047.1.104.1a.102.102 0 0 0 .104-.1c0-.055-.046-.1-.104-.1zm-.568.001a.103.103 0 0 0-.104.1c0 .055.046.1.104.1a.102.102 0 0 0 .103-.1c0-.055-.046-.1-.103-.1zm.276-.282a.102.102 0 0 0-.103.1c0 .055.046.1.103.1a.103.103 0 0 0 .105-.1c0-.055-.047-.1-.105-.1zm.292-.27a.102.102 0 0 0-.104.1c0 .056.046.1.103.1a.102.102 0 0 0 .105-.1c0-.055-.047-.1-.105-.1zm-.57 0a.102.102 0 0 0-.104.1c0 .055.047.1.105.1a.103.103 0 0 0 .103-.1c0-.055-.046-.1-.103-.1zm-.883.548a.102.102 0 0 0-.104.1c0 .056.047.1.104.1a.102.102 0 0 0 .104-.1c0-.055-.047-.1-.104-.1zm-.582.001a.102.102 0 0 0-.104.1c0 .055.047.1.104.1a.102.102 0 0 0 .104-.1c0-.055-.046-.1-.104-.1zm.291-.282a.102.102 0 0 0-.104.1c0 .055.047.1.104.1a.102.102 0 0 0 .104-.1c0-.055-.047-.1-.104-.1zm.292-.269a.102.102 0 0 0-.105.1c0 .055.047.1.105.1a.102.102 0 0 0 .104-.1c0-.056-.047-.1-.104-.1zm-.583-.001a.102.102 0 0 0-.104.1c0 .055.047.1.104.1a.102.102 0 0 0 .104-.1c0-.055-.046-.1-.104-.1zm-.874.555a.102.102 0 0 0-.104.1c0 .055.047.1.104.1a.102.102 0 0 0 .104-.1c0-.055-.046-.1-.104-.1zm-.568 0a.103.103 0 0 0-.104.101c0 .055.047.1.104.1a.102.102 0 0 0 .104-.1c0-.055-.047-.1-.104-.1zm.277-.282a.103.103 0 0 0-.104.1c0 .056.047.101.104.101a.102.102 0 0 0 .104-.1c0-.056-.047-.1-.104-.1zm.291-.269a.102.102 0 0 0-.103.1c0 .055.046.1.103.1a.102.102 0 0 0 .104-.1c0-.055-.046-.1-.104-.1zm.874 1.736a.102.102 0 0 0-.104.1c0 .056.047.1.104.1a.102.102 0 0 0 .104-.1c0-.055-.046-.1-.104-.1z" fill="#fff"/><path d="M9.082 13.115a.102.102 0 0 0-.104.1c0 .056.047.1.104.1a.102.102 0 0 0 .104-.1c0-.055-.047-.1-.104-.1z" fill="#FF0"/><path d="M10.525 11.356a.102.102 0 0 0-.104.1c0 .055.047.1.104.1a.102.102 0 0 0 .104-.1c0-.055-.046-.1-.104-.1zm.57 0a.102.102 0 0 0-.104.1c0 .055.046.1.104.1a.103.103 0 0 0 .104-.1c0-.055-.047-.1-.104-.1zm-.292.27a.102.102 0 0 0-.104.1c0 .055.047.1.104.1a.102.102 0 0 0 .105-.1c0-.055-.047-.1-.105-.1zm.291.281a.102.102 0 0 0-.103.1c0 .056.046.1.103.1a.102.102 0 0 0 .105-.1c0-.055-.047-.1-.105-.1zm-.569.001a.102.102 0 0 0-.104.1c0 .055.047.1.104.1a.102.102 0 0 0 .104-.1c0-.055-.046-.1-.104-.1zm-1.443 1.207a.102.102 0 0 0-.104.1c0 .056.047.1.104.1a.102.102 0 0 0 .104-.1c0-.054-.047-.1-.104-.1z" fill="#fff"/></svg>